<?xml version="1.0" encoding="UTF-8" standalone="no"?>
<!DOCTYPE svg PUBLIC "-//W3C//DTD SVG 1.1//EN"
 "http://www.w3.org/Graphics/SVG/1.1/DTD/svg11.dtd">
<!-- Generated by graphviz version 3.0.0 (0)
 -->
<!-- Title: get_curve Pages: 1 -->
<!--zoomable 199 -->
<svg id="main" version="1.1" xmlns="http://www.w3.org/2000/svg" xmlns:xlink="http://www.w3.org/1999/xlink" xml:space="preserve" onload="init(evt)">
<style type="text/css"><![CDATA[
.edge:hover path { stroke: red; }
.edge:hover polygon { stroke: red; fill: red; }
]]></style>
<script type="text/javascript"><![CDATA[
var edges = document.getElementsByTagName('g');
if (edges && edges.length) {
  for (var i=0;i<edges.length;i++) {
    if (edges[i].id.substr(0,4)=='edge') {
      edges[i].setAttribute('class','edge');
    }
  }
}
]]></script>
        <defs>
                <circle id="rim" cx="0" cy="0" r="7"/>
                <circle id="rim2" cx="0" cy="0" r="3.5"/>
                <g id="zoomPlus">
                        <use xlink:href="#rim" fill="#404040">
                                <set attributeName="fill" to="#808080" begin="zoomplus.mouseover" end="zoomplus.mouseout"/>
                        </use>
                        <path d="M-4,0h8M0,-4v8" fill="none" stroke="white" stroke-width="1.5" pointer-events="none"/>
                </g>
                <g id="zoomMin">
                        <use xlink:href="#rim" fill="#404040">
                                <set attributeName="fill" to="#808080" begin="zoomminus.mouseover" end="zoomminus.mouseout"/>
                        </use>
                        <path d="M-4,0h8" fill="none" stroke="white" stroke-width="1.5" pointer-events="none"/>
                </g>
                <g id="dirArrow">
                        <path fill="none" stroke="white" stroke-width="1.5" d="M0,-3.0v7 M-2.5,-0.5L0,-3.0L2.5,-0.5"/>
                </g>
               <g id="resetDef">
                       <use xlink:href="#rim2" fill="#404040">
                               <set attributeName="fill" to="#808080" begin="reset.mouseover" end="reset.mouseout"/>
                       </use>
               </g>
        </defs>

<script type="text/javascript">
var viewWidth = 1040;
var viewHeight = 199;
var sectionId = 'dynsection-16';
</script>
<script xlink:href="svgpan.js"/>
<svg id="graph" class="graph">
<g id="viewport">
<title>get_curve</title>
<polygon fill="white" stroke="transparent" points="-4,4 -4,-195 1036,-195 1036,4 -4,4"/>
<!-- Node1 -->
<g id="node1" class="node">
<title>Node1</title>
<g id="a_node1"><a xlink:title=" ">
<polygon fill="#bfbfbf" stroke="black" points="967,-95.5 967,-114.5 1032,-114.5 1032,-95.5 967,-95.5"/>
<text text-anchor="middle" x="999.5" y="-102.5" font-family="Helvetica,sans-Serif" font-size="10.00">get_curve</text>
</a>
</g>
</g>
<!-- Node2 -->
<g id="node2" class="node">
<title>Node2</title>
<g id="a_node2"><a xlink:href="curves_8cpp.html#ae1f2aea35fc8ca6d56097bc3b7824c07" target="_top" xlink:title=" ">
<polygon fill="white" stroke="black" points="817,-171.5 817,-190.5 915,-190.5 915,-171.5 817,-171.5"/>
<text text-anchor="middle" x="866" y="-178.5" font-family="Helvetica,sans-Serif" font-size="10.00">get_bezier_point</text>
</a>
</g>
</g>
<!-- Node1&#45;&gt;Node2 -->
<g id="edge1" class="edge">
<title>Node1&#45;&gt;Node2</title>
<path fill="none" stroke="midnightblue" d="M982.23,-122.14C969.39,-134.76 950.45,-151.5 931,-162 923.96,-165.8 916.07,-168.93 908.29,-171.48"/>
<polygon fill="midnightblue" stroke="midnightblue" points="984.85,-124.47 989.39,-114.9 979.87,-119.55 984.85,-124.47"/>
</g>
<!-- Node7 -->
<g id="node7" class="node">
<title>Node7</title>
<g id="a_node7"><a xlink:href="curves_8cpp.html#add82340f1f49c827ac105487308d47ac" target="_top" xlink:title=" ">
<polygon fill="white" stroke="black" points="814,-133.5 814,-152.5 918,-152.5 918,-133.5 814,-133.5"/>
<text text-anchor="middle" x="866" y="-140.5" font-family="Helvetica,sans-Serif" font-size="10.00">get_bezier_point3</text>
</a>
</g>
</g>
<!-- Node1&#45;&gt;Node7 -->
<g id="edge6" class="edge">
<title>Node1&#45;&gt;Node7</title>
<path fill="none" stroke="midnightblue" d="M957.06,-116.98C938.62,-122.3 917.23,-128.49 899.91,-133.49"/>
<polygon fill="midnightblue" stroke="midnightblue" points="958.03,-120.34 966.67,-114.2 956.09,-113.61 958.03,-120.34"/>
</g>
<!-- Node8 -->
<g id="node8" class="node">
<title>Node8</title>
<g id="a_node8"><a xlink:href="curves_8cpp.html#a4c44d8b9c30ca7301f192b133542eacc" target="_top" xlink:title=" ">
<polygon fill="white" stroke="black" points="814,-95.5 814,-114.5 918,-114.5 918,-95.5 814,-95.5"/>
<text text-anchor="middle" x="866" y="-102.5" font-family="Helvetica,sans-Serif" font-size="10.00">get_bezier_point4</text>
</a>
</g>
</g>
<!-- Node1&#45;&gt;Node8 -->
<g id="edge7" class="edge">
<title>Node1&#45;&gt;Node8</title>
<path fill="none" stroke="midnightblue" d="M956.33,-105C944.14,-105 930.7,-105 918.03,-105"/>
<polygon fill="midnightblue" stroke="midnightblue" points="956.67,-108.5 966.67,-105 956.67,-101.5 956.67,-108.5"/>
</g>
<!-- Node9 -->
<g id="node9" class="node">
<title>Node9</title>
<g id="a_node9"><a xlink:href="curves_8cpp.html#a43ee8fc382b0ea43a7da3f871d9c631e" target="_top" xlink:title=" ">
<polygon fill="white" stroke="black" points="833.5,-57.5 833.5,-76.5 898.5,-76.5 898.5,-57.5 833.5,-57.5"/>
<text text-anchor="middle" x="866" y="-64.5" font-family="Helvetica,sans-Serif" font-size="10.00">get_curve</text>
</a>
</g>
</g>
<!-- Node1&#45;&gt;Node9 -->
<g id="edge8" class="edge">
<title>Node1&#45;&gt;Node9</title>
<path fill="none" stroke="midnightblue" d="M956.83,-92.96C937.96,-87.51 916.02,-81.16 898.54,-76.11"/>
<polygon fill="midnightblue" stroke="midnightblue" points="956.09,-96.39 966.67,-95.8 958.03,-89.66 956.09,-96.39"/>
</g>
<!-- Node10 -->
<g id="node10" class="node">
<title>Node10</title>
<g id="a_node10"><a xlink:href="curves_8cpp.html#abe9fa1f2a311f275f92f5b46fb2f8490" target="_top" xlink:title=" ">
<polygon fill="white" stroke="black" points="801,-19.5 801,-38.5 931,-38.5 931,-19.5 801,-19.5"/>
<text text-anchor="middle" x="866" y="-26.5" font-family="Helvetica,sans-Serif" font-size="10.00">get_curve_global_point</text>
</a>
</g>
</g>
<!-- Node1&#45;&gt;Node10 -->
<g id="edge9" class="edge">
<title>Node1&#45;&gt;Node10</title>
<path fill="none" stroke="midnightblue" d="M982.23,-87.86C969.39,-75.24 950.45,-58.5 931,-48 923.96,-44.2 916.07,-41.07 908.29,-38.52"/>
<polygon fill="midnightblue" stroke="midnightblue" points="979.87,-90.45 989.39,-95.1 984.85,-85.53 979.87,-90.45"/>
</g>
<!-- Node3 -->
<g id="node3" class="node">
<title>Node3</title>
<g id="a_node3"><a xlink:href="curves_8cpp.html#acd318fe2ec3011922c3f4d9d7590b168" target="_top" xlink:title=" ">
<polygon fill="white" stroke="black" points="653.5,-171.5 653.5,-190.5 753.5,-190.5 753.5,-171.5 653.5,-171.5"/>
<text text-anchor="middle" x="703.5" y="-178.5" font-family="Helvetica,sans-Serif" font-size="10.00">get_bezier_patch</text>
</a>
</g>
</g>
<!-- Node2&#45;&gt;Node3 -->
<g id="edge2" class="edge">
<title>Node2&#45;&gt;Node3</title>
<path fill="none" stroke="midnightblue" d="M806.8,-181C789.4,-181 770.5,-181 753.73,-181"/>
<polygon fill="midnightblue" stroke="midnightblue" points="806.84,-184.5 816.84,-181 806.84,-177.5 806.84,-184.5"/>
</g>
<!-- Node4 -->
<g id="node4" class="node">
<title>Node4</title>
<g id="a_node4"><a xlink:href="curves_8cpp.html#ad80a7305d57dbb5359a411d6e7a9e307" target="_top" xlink:title=" ">
<polygon fill="white" stroke="black" points="497,-171.5 497,-190.5 606,-190.5 606,-171.5 497,-171.5"/>
<text text-anchor="middle" x="551.5" y="-178.5" font-family="Helvetica,sans-Serif" font-size="10.00">get_bezier_surface</text>
</a>
</g>
</g>
<!-- Node3&#45;&gt;Node4 -->
<g id="edge3" class="edge">
<title>Node3&#45;&gt;Node4</title>
<path fill="none" stroke="midnightblue" d="M643.26,-181C631.01,-181 618.17,-181 606.13,-181"/>
<polygon fill="midnightblue" stroke="midnightblue" points="643.38,-184.5 653.38,-181 643.38,-177.5 643.38,-184.5"/>
</g>
<!-- Node5 -->
<g id="node5" class="node">
<title>Node5</title>
<g id="a_node5"><a xlink:href="group__sphere.html#ga6a7ebb50b44e4785bda364ba2bdb12d7" target="_top" xlink:title=" ">
<polygon fill="white" stroke="black" points="348,-171.5 348,-190.5 461,-190.5 461,-171.5 348,-171.5"/>
<text text-anchor="middle" x="404.5" y="-178.5" font-family="Helvetica,sans-Serif" font-size="10.00">model_bezier_write</text>
</a>
</g>
</g>
<!-- Node4&#45;&gt;Node5 -->
<g id="edge4" class="edge">
<title>Node4&#45;&gt;Node5</title>
<path fill="none" stroke="midnightblue" d="M486.7,-181C478.23,-181 469.61,-181 461.29,-181"/>
<polygon fill="midnightblue" stroke="midnightblue" points="486.92,-184.5 496.92,-181 486.92,-177.5 486.92,-184.5"/>
</g>
<!-- Node6 -->
<g id="node6" class="node">
<title>Node6</title>
<g id="a_node6"><a xlink:href="generator_8cpp.html#a0ddf1224851353fc92bfbff6f499fa97" target="_top" xlink:title=" ">
<polygon fill="white" stroke="black" points="227.5,-171.5 227.5,-190.5 268.5,-190.5 268.5,-171.5 227.5,-171.5"/>
<text text-anchor="middle" x="248" y="-178.5" font-family="Helvetica,sans-Serif" font-size="10.00">main</text>
</a>
</g>
</g>
<!-- Node5&#45;&gt;Node6 -->
<g id="edge5" class="edge">
<title>Node5&#45;&gt;Node6</title>
<path fill="none" stroke="midnightblue" d="M337.53,-181C312.57,-181 286.01,-181 268.57,-181"/>
<polygon fill="midnightblue" stroke="midnightblue" points="337.72,-184.5 347.72,-181 337.72,-177.5 337.72,-184.5"/>
</g>
<!-- Node11 -->
<g id="node11" class="node">
<title>Node11</title>
<g id="a_node11"><a xlink:href="curves_8cpp.html#aca4aaefe66ab2cbc9d44054ab8929c0d" target="_top" xlink:title=" ">
<polygon fill="white" stroke="black" points="642,-38.5 642,-57.5 765,-57.5 765,-38.5 642,-38.5"/>
<text text-anchor="middle" x="703.5" y="-45.5" font-family="Helvetica,sans-Serif" font-size="10.00">align_global_pos_mat</text>
</a>
</g>
</g>
<!-- Node10&#45;&gt;Node11 -->
<g id="edge10" class="edge">
<title>Node10&#45;&gt;Node11</title>
<path fill="none" stroke="midnightblue" d="M790.7,-37.8C782.17,-38.81 773.55,-39.83 765.22,-40.81"/>
<polygon fill="midnightblue" stroke="midnightblue" points="791.12,-41.27 800.64,-36.62 790.3,-34.32 791.12,-41.27"/>
</g>
<!-- Node18 -->
<g id="node18" class="node">
<title>Node18</title>
<g id="a_node18"><a xlink:href="curves_8cpp.html#ad812fc50a0384335487e258a6f61714e" target="_top" xlink:title=" ">
<polygon fill="white" stroke="black" points="513,-0.5 513,-19.5 590,-19.5 590,-0.5 513,-0.5"/>
<text text-anchor="middle" x="551.5" y="-7.5" font-family="Helvetica,sans-Serif" font-size="10.00">renderCurve</text>
</a>
</g>
</g>
<!-- Node10&#45;&gt;Node18 -->
<g id="edge18" class="edge">
<title>Node10&#45;&gt;Node18</title>
<path fill="none" stroke="midnightblue" d="M790.34,-24.46C727.32,-20.63 639.69,-15.3 590.29,-12.3"/>
<polygon fill="midnightblue" stroke="midnightblue" points="790.43,-27.97 800.63,-25.09 790.86,-20.99 790.43,-27.97"/>
</g>
<!-- Node12 -->
<g id="node12" class="node">
<title>Node12</title>
<g id="a_node12"><a xlink:href="curves_8cpp.html#af213e79ca700e91ea886085a4149a848" target="_top" xlink:title=" ">
<polygon fill="white" stroke="black" points="499.5,-38.5 499.5,-57.5 603.5,-57.5 603.5,-38.5 499.5,-38.5"/>
<text text-anchor="middle" x="551.5" y="-45.5" font-family="Helvetica,sans-Serif" font-size="10.00">advance_in_curve</text>
</a>
</g>
</g>
<!-- Node11&#45;&gt;Node12 -->
<g id="edge11" class="edge">
<title>Node11&#45;&gt;Node12</title>
<path fill="none" stroke="midnightblue" d="M631.72,-48C622.26,-48 612.71,-48 603.68,-48"/>
<polygon fill="midnightblue" stroke="midnightblue" points="631.92,-51.5 641.92,-48 631.92,-44.5 631.92,-51.5"/>
</g>
<!-- Node13 -->
<g id="node13" class="node">
<title>Node13</title>
<g id="a_node13"><a xlink:href="group___operations.html#ga887f20c10a27832ea24178203a47fcc2" target="_top" xlink:title=" ">
<polygon fill="white" stroke="black" points="352,-19.5 352,-38.5 457,-38.5 457,-19.5 352,-19.5"/>
<text text-anchor="middle" x="404.5" y="-26.5" font-family="Helvetica,sans-Serif" font-size="10.00">operations_render</text>
</a>
</g>
</g>
<!-- Node12&#45;&gt;Node13 -->
<g id="edge12" class="edge">
<title>Node12&#45;&gt;Node13</title>
<path fill="none" stroke="midnightblue" d="M489.26,-39.98C478.57,-38.57 467.54,-37.13 457.14,-35.77"/>
<polygon fill="midnightblue" stroke="midnightblue" points="489.01,-43.47 499.38,-41.3 489.92,-36.53 489.01,-43.47"/>
</g>
<!-- Node14 -->
<g id="node14" class="node">
<title>Node14</title>
<g id="a_node14"><a xlink:href="group__engine.html#ga91c42686f3245f22fb6b17ba5372d92c" target="_top" xlink:title=" ">
<polygon fill="white" stroke="black" points="209.5,-38.5 209.5,-57.5 286.5,-57.5 286.5,-38.5 209.5,-38.5"/>
<text text-anchor="middle" x="248" y="-45.5" font-family="Helvetica,sans-Serif" font-size="10.00">renderScene</text>
</a>
</g>
</g>
<!-- Node13&#45;&gt;Node14 -->
<g id="edge13" class="edge">
<title>Node13&#45;&gt;Node14</title>
<path fill="none" stroke="midnightblue" d="M341.5,-36.62C322.99,-38.9 303.27,-41.33 286.82,-43.35"/>
<polygon fill="midnightblue" stroke="midnightblue" points="342.13,-40.07 351.62,-35.38 341.27,-33.13 342.13,-40.07"/>
</g>
<!-- Node17 -->
<g id="node17" class="node">
<title>Node17</title>
<g id="a_node17"><a xlink:href="group__engine.html#ga2b6a8884687b3fe271b099a450a82d24" target="_top" xlink:title=" ">
<polygon fill="white" stroke="black" points="184,-0.5 184,-19.5 312,-19.5 312,-0.5 184,-0.5"/>
<text text-anchor="middle" x="248" y="-7.5" font-family="Helvetica,sans-Serif" font-size="10.00">xml_load_and_set_env</text>
</a>
</g>
</g>
<!-- Node13&#45;&gt;Node17 -->
<g id="edge16" class="edge">
<title>Node13&#45;&gt;Node17</title>
<path fill="none" stroke="midnightblue" d="M341.61,-21.39C331.86,-20.19 321.77,-18.95 312,-17.75"/>
<polygon fill="midnightblue" stroke="midnightblue" points="341.27,-24.87 351.62,-22.62 342.13,-17.93 341.27,-24.87"/>
</g>
<!-- Node15 -->
<g id="node15" class="node">
<title>Node15</title>
<g id="a_node15"><a xlink:href="group__engine.html#ga98eaf946471acbd931de5d52ca83b3d1" target="_top" xlink:title=" ">
<polygon fill="white" stroke="black" points="77,-19.5 77,-38.5 148,-38.5 148,-19.5 77,-19.5"/>
<text text-anchor="middle" x="112.5" y="-26.5" font-family="Helvetica,sans-Serif" font-size="10.00">engine_run</text>
</a>
</g>
</g>
<!-- Node14&#45;&gt;Node15 -->
<g id="edge14" class="edge">
<title>Node14&#45;&gt;Node15</title>
<path fill="none" stroke="midnightblue" d="M199.2,-41.2C182.29,-38.79 163.61,-36.13 148.02,-33.91"/>
<polygon fill="midnightblue" stroke="midnightblue" points="199.06,-44.71 209.46,-42.66 200.05,-37.78 199.06,-44.71"/>
</g>
<!-- Node16 -->
<g id="node16" class="node">
<title>Node16</title>
<g id="a_node16"><a xlink:href="group__engine.html#ga3c04138a5bfe5d72780bb7e82a18e627" target="_top" xlink:title=" ">
<polygon fill="white" stroke="black" points="0,-19.5 0,-38.5 41,-38.5 41,-19.5 0,-19.5"/>
<text text-anchor="middle" x="20.5" y="-26.5" font-family="Helvetica,sans-Serif" font-size="10.00">main</text>
</a>
</g>
</g>
<!-- Node15&#45;&gt;Node16 -->
<g id="edge15" class="edge">
<title>Node15&#45;&gt;Node16</title>
<path fill="none" stroke="midnightblue" d="M66.88,-29C57.87,-29 48.84,-29 41.24,-29"/>
<polygon fill="midnightblue" stroke="midnightblue" points="66.96,-32.5 76.96,-29 66.96,-25.5 66.96,-32.5"/>
</g>
<!-- Node17&#45;&gt;Node15 -->
<g id="edge17" class="edge">
<title>Node17&#45;&gt;Node15</title>
<path fill="none" stroke="midnightblue" d="M173.71,-20.43C164.82,-21.7 156.09,-22.94 148.16,-24.07"/>
<polygon fill="midnightblue" stroke="midnightblue" points="174.36,-23.87 183.77,-19 173.38,-16.94 174.36,-23.87"/>
</g>
<!-- Node18&#45;&gt;Node13 -->
<g id="edge19" class="edge">
<title>Node18&#45;&gt;Node13</title>
<path fill="none" stroke="midnightblue" d="M502.51,-16.29C487.99,-18.19 471.98,-20.29 457.22,-22.22"/>
<polygon fill="midnightblue" stroke="midnightblue" points="503.32,-19.71 512.78,-14.94 502.41,-12.77 503.32,-19.71"/>
</g>
</g>
</svg>
        <g id="navigator" transform="translate(0 0)" fill="#404254">
                <rect fill="#f2f5e9" fill-opacity="0.5" stroke="#606060" stroke-width=".5" x="0" y="0" width="60" height="60"/>
                <use id="zoomplus" xlink:href="#zoomPlus" x="17" y="9" onmousedown="handleZoom(evt,'in')"/>
                <use id="zoomminus" xlink:href="#zoomMin" x="42" y="9" onmousedown="handleZoom(evt,'out')"/>
                <use id="reset" xlink:href="#resetDef" x="30" y="36" onmousedown="handleReset()"/>
                <g id="arrowUp" xlink:href="#dirArrow" transform="translate(30 24)" onmousedown="handlePan(0,-1)">
                  <use xlink:href="#rim" fill="#404040">
                        <set attributeName="fill" to="#808080" begin="arrowUp.mouseover" end="arrowUp.mouseout"/>
                  </use>
                  <path fill="none" stroke="white" stroke-width="1.5" d="M0,-3.0v7 M-2.5,-0.5L0,-3.0L2.5,-0.5"/>
                </g>
                <g id="arrowRight" xlink:href="#dirArrow" transform="rotate(90) translate(36 -43)" onmousedown="handlePan(1,0)">
                  <use xlink:href="#rim" fill="#404040">
                        <set attributeName="fill" to="#808080" begin="arrowRight.mouseover" end="arrowRight.mouseout"/>
                  </use>
                  <path fill="none" stroke="white" stroke-width="1.5" d="M0,-3.0v7 M-2.5,-0.5L0,-3.0L2.5,-0.5"/>
                </g>
                <g id="arrowDown" xlink:href="#dirArrow" transform="rotate(180) translate(-30 -48)" onmousedown="handlePan(0,1)">
                  <use xlink:href="#rim" fill="#404040">
                        <set attributeName="fill" to="#808080" begin="arrowDown.mouseover" end="arrowDown.mouseout"/>
                  </use>
                  <path fill="none" stroke="white" stroke-width="1.5" d="M0,-3.0v7 M-2.5,-0.5L0,-3.0L2.5,-0.5"/>
                </g>
                <g id="arrowLeft" xlink:href="#dirArrow" transform="rotate(270) translate(-36 17)" onmousedown="handlePan(-1,0)">
                  <use xlink:href="#rim" fill="#404040">
                        <set attributeName="fill" to="#808080" begin="arrowLeft.mouseover" end="arrowLeft.mouseout"/>
                  </use>
                  <path fill="none" stroke="white" stroke-width="1.5" d="M0,-3.0v7 M-2.5,-0.5L0,-3.0L2.5,-0.5"/>
                </g>
        </g>
        <svg viewBox="0 0 15 15" width="100%" height="30px" preserveAspectRatio="xMaxYMin meet">
         <g id="arrow_out" transform="scale(0.3 0.3)">
          <a xlink:href="curves_8cpp_af68f8da25ecf53c589aa5d47f1f8e164_icgraph_org.svg" target="_base">
           <rect id="button" ry="5" rx="5" y="6" x="6" height="38" width="38"
                fill="#f2f5e9" fill-opacity="0.5" stroke="#606060" stroke-width="1.0"/>
           <path id="arrow"
             d="M 11.500037,31.436501 C 11.940474,20.09759 22.043105,11.32322 32.158766,21.979434 L 37.068811,17.246167 C 37.068811,17.246167 37.088388,32 37.088388,32 L 22.160133,31.978069 C 22.160133,31.978069 26.997745,27.140456 26.997745,27.140456 C 18.528582,18.264221 13.291696,25.230495 11.500037,31.436501 z"
             style="fill:#404040;"/>
          </a>
         </g>
        </svg>
</svg>
