<?xml version="1.0" encoding="UTF-8" standalone="no"?>
<!DOCTYPE svg PUBLIC "-//W3C//DTD SVG 1.1//EN"
 "http://www.w3.org/Graphics/SVG/1.1/DTD/svg11.dtd">
<!-- Generated by graphviz version 3.0.0 (0)
 -->
<!-- Title: src/engine.cpp Pages: 1 -->
<svg width="797pt" height="140pt"
 viewBox="0.00 0.00 797.00 140.00" xmlns="http://www.w3.org/2000/svg" xmlns:xlink="http://www.w3.org/1999/xlink">
<g id="graph0" class="graph" transform="scale(1 1) rotate(0) translate(4 136)">
<title>src/engine.cpp</title>
<polygon fill="white" stroke="transparent" points="-4,4 -4,-136 793,-136 793,4 -4,4"/>
<!-- Node1 -->
<g id="node1" class="node">
<title>Node1</title>
<g id="a_node1"><a xlink:title=" ">
<polygon fill="#bfbfbf" stroke="black" points="304.5,-112.5 304.5,-131.5 391.5,-131.5 391.5,-112.5 304.5,-112.5"/>
<text text-anchor="middle" x="348" y="-119.5" font-family="Helvetica,sans-Serif" font-size="10.00">src/engine.cpp</text>
</a>
</g>
</g>
<!-- Node2 -->
<g id="node2" class="node">
<title>Node2</title>
<g id="a_node2"><a xlink:title=" ">
<polygon fill="white" stroke="#bfbfbf" points="0,-56.5 0,-75.5 64,-75.5 64,-56.5 0,-56.5"/>
<text text-anchor="middle" x="32" y="-63.5" font-family="Helvetica,sans-Serif" font-size="10.00">GL/glew.h</text>
</a>
</g>
</g>
<!-- Node1&#45;&gt;Node2 -->
<g id="edge1" class="edge">
<title>Node1&#45;&gt;Node2</title>
<path fill="none" stroke="midnightblue" d="M304.05,-114.56C251.67,-106.71 161.28,-92.65 74.24,-76.16"/>
<polygon fill="midnightblue" stroke="midnightblue" points="74.67,-72.68 64.2,-74.24 73.36,-79.55 74.67,-72.68"/>
</g>
<!-- Node3 -->
<g id="node3" class="node">
<title>Node3</title>
<g id="a_node3"><a xlink:title=" ">
<polygon fill="white" stroke="#bfbfbf" points="82,-56.5 82,-75.5 142,-75.5 142,-56.5 82,-56.5"/>
<text text-anchor="middle" x="112" y="-63.5" font-family="Helvetica,sans-Serif" font-size="10.00">GL/glut.h</text>
</a>
</g>
</g>
<!-- Node1&#45;&gt;Node3 -->
<g id="edge2" class="edge">
<title>Node1&#45;&gt;Node3</title>
<path fill="none" stroke="midnightblue" d="M310.59,-112.48C272.98,-103.91 213.04,-90.23 152.03,-76.23"/>
<polygon fill="midnightblue" stroke="midnightblue" points="152.76,-72.81 142.23,-73.98 151.2,-79.63 152.76,-72.81"/>
</g>
<!-- Node4 -->
<g id="node4" class="node">
<title>Node4</title>
<g id="a_node4"><a xlink:title=" ">
<polygon fill="white" stroke="#bfbfbf" points="160,-56.5 160,-75.5 206,-75.5 206,-56.5 160,-56.5"/>
<text text-anchor="middle" x="183" y="-63.5" font-family="Helvetica,sans-Serif" font-size="10.00">cstdio</text>
</a>
</g>
</g>
<!-- Node1&#45;&gt;Node4 -->
<g id="edge3" class="edge">
<title>Node1&#45;&gt;Node4</title>
<path fill="none" stroke="midnightblue" d="M321.86,-112.44C293.07,-103.02 246.77,-87.87 215.63,-77.68"/>
<polygon fill="midnightblue" stroke="midnightblue" points="216.69,-74.34 206.09,-74.56 214.51,-80.99 216.69,-74.34"/>
</g>
<!-- Node5 -->
<g id="node5" class="node">
<title>Node5</title>
<g id="a_node5"><a xlink:title=" ">
<polygon fill="white" stroke="#bfbfbf" points="455.5,-0.5 455.5,-19.5 502.5,-19.5 502.5,-0.5 455.5,-0.5"/>
<text text-anchor="middle" x="479" y="-7.5" font-family="Helvetica,sans-Serif" font-size="10.00">vector</text>
</a>
</g>
</g>
<!-- Node1&#45;&gt;Node5 -->
<g id="edge4" class="edge">
<title>Node1&#45;&gt;Node5</title>
<path fill="none" stroke="midnightblue" d="M314.49,-112.44C279.27,-101.84 231.7,-81.95 253,-56 276.9,-26.87 387.98,-16.25 445.01,-12.66"/>
<polygon fill="midnightblue" stroke="midnightblue" points="445.55,-16.14 455.33,-12.06 445.14,-9.15 445.55,-16.14"/>
</g>
<!-- Node6 -->
<g id="node6" class="node">
<title>Node6</title>
<g id="a_node6"><a xlink:title=" ">
<polygon fill="white" stroke="#bfbfbf" points="262.5,-56.5 262.5,-75.5 309.5,-75.5 309.5,-56.5 262.5,-56.5"/>
<text text-anchor="middle" x="286" y="-63.5" font-family="Helvetica,sans-Serif" font-size="10.00">cmath</text>
</a>
</g>
</g>
<!-- Node1&#45;&gt;Node6 -->
<g id="edge5" class="edge">
<title>Node1&#45;&gt;Node6</title>
<path fill="none" stroke="midnightblue" d="M338.04,-112.32C328.87,-104.34 315.06,-92.31 303.97,-82.65"/>
<polygon fill="midnightblue" stroke="midnightblue" points="305.98,-79.76 296.14,-75.83 301.38,-85.04 305.98,-79.76"/>
</g>
<!-- Node7 -->
<g id="node7" class="node">
<title>Node7</title>
<g id="a_node7"><a xlink:title=" ">
<polygon fill="white" stroke="#bfbfbf" points="327.5,-56.5 327.5,-75.5 368.5,-75.5 368.5,-56.5 327.5,-56.5"/>
<text text-anchor="middle" x="348" y="-63.5" font-family="Helvetica,sans-Serif" font-size="10.00">tuple</text>
</a>
</g>
</g>
<!-- Node1&#45;&gt;Node7 -->
<g id="edge6" class="edge">
<title>Node1&#45;&gt;Node7</title>
<path fill="none" stroke="midnightblue" d="M348,-112.08C348,-105.01 348,-94.86 348,-85.99"/>
<polygon fill="midnightblue" stroke="midnightblue" points="351.5,-85.75 348,-75.75 344.5,-85.75 351.5,-85.75"/>
</g>
<!-- Node8 -->
<g id="node8" class="node">
<title>Node8</title>
<g id="a_node8"><a xlink:title=" ">
<polygon fill="white" stroke="#bfbfbf" points="386.5,-56.5 386.5,-75.5 429.5,-75.5 429.5,-56.5 386.5,-56.5"/>
<text text-anchor="middle" x="408" y="-63.5" font-family="Helvetica,sans-Serif" font-size="10.00">IL/il.h</text>
</a>
</g>
</g>
<!-- Node1&#45;&gt;Node8 -->
<g id="edge7" class="edge">
<title>Node1&#45;&gt;Node8</title>
<path fill="none" stroke="midnightblue" d="M357.64,-112.32C366.51,-104.34 379.87,-92.31 390.61,-82.65"/>
<polygon fill="midnightblue" stroke="midnightblue" points="393.09,-85.13 398.18,-75.83 388.41,-79.92 393.09,-85.13"/>
</g>
<!-- Node9 -->
<g id="node9" class="node">
<title>Node9</title>
<g id="a_node9"><a xlink:title=" ">
<polygon fill="white" stroke="#bfbfbf" points="711,-0.5 711,-19.5 789,-19.5 789,-0.5 711,-0.5"/>
<text text-anchor="middle" x="750" y="-7.5" font-family="Helvetica,sans-Serif" font-size="10.00">glm/glm.hpp</text>
</a>
</g>
</g>
<!-- Node1&#45;&gt;Node9 -->
<g id="edge8" class="edge">
<title>Node1&#45;&gt;Node9</title>
<path fill="none" stroke="midnightblue" d="M391.63,-121.71C480.98,-122.27 680.63,-118.57 731,-76 744.31,-64.75 748.58,-44.74 749.81,-29.88"/>
<polygon fill="midnightblue" stroke="midnightblue" points="753.31,-29.9 750.26,-19.76 746.32,-29.59 753.31,-29.9"/>
</g>
<!-- Node10 -->
<g id="node10" class="node">
<title>Node10</title>
<g id="a_node10"><a xlink:title=" ">
<polygon fill="white" stroke="#bfbfbf" points="528,-56.5 528,-75.5 646,-75.5 646,-56.5 528,-56.5"/>
<text text-anchor="middle" x="587" y="-63.5" font-family="Helvetica,sans-Serif" font-size="10.00">glm/gtc/type_ptr.hpp</text>
</a>
</g>
</g>
<!-- Node1&#45;&gt;Node10 -->
<g id="edge9" class="edge">
<title>Node1&#45;&gt;Node10</title>
<path fill="none" stroke="midnightblue" d="M385.87,-112.44C427.48,-103.04 494.37,-87.93 539.47,-77.74"/>
<polygon fill="midnightblue" stroke="midnightblue" points="540.32,-81.13 549.31,-75.52 538.78,-74.31 540.32,-81.13"/>
</g>
<!-- Node11 -->
<g id="node11" class="node">
<title>Node11</title>
<g id="a_node11"><a xlink:href="parsing_8h.html" target="_top" xlink:title=" ">
<polygon fill="white" stroke="black" points="448,-56.5 448,-75.5 510,-75.5 510,-56.5 448,-56.5"/>
<text text-anchor="middle" x="479" y="-63.5" font-family="Helvetica,sans-Serif" font-size="10.00">parsing.h</text>
</a>
</g>
</g>
<!-- Node1&#45;&gt;Node11 -->
<g id="edge10" class="edge">
<title>Node1&#45;&gt;Node11</title>
<path fill="none" stroke="midnightblue" d="M368.76,-112.44C390.32,-103.56 424.26,-89.56 448.79,-79.45"/>
<polygon fill="midnightblue" stroke="midnightblue" points="450.43,-82.56 458.34,-75.52 447.76,-76.09 450.43,-82.56"/>
</g>
<!-- Node12 -->
<g id="node12" class="node">
<title>Node12</title>
<g id="a_node12"><a xlink:href="curves_8h.html" target="_top" xlink:title=" ">
<polygon fill="white" stroke="black" points="664,-56.5 664,-75.5 722,-75.5 722,-56.5 664,-56.5"/>
<text text-anchor="middle" x="693" y="-63.5" font-family="Helvetica,sans-Serif" font-size="10.00">curves.h</text>
</a>
</g>
</g>
<!-- Node1&#45;&gt;Node12 -->
<g id="edge12" class="edge">
<title>Node1&#45;&gt;Node12</title>
<path fill="none" stroke="midnightblue" d="M391.67,-115.81C449.46,-108.68 554.69,-94.78 653.72,-76.11"/>
<polygon fill="midnightblue" stroke="midnightblue" points="654.43,-79.54 663.6,-74.23 653.12,-72.66 654.43,-79.54"/>
</g>
<!-- Node11&#45;&gt;Node5 -->
<g id="edge11" class="edge">
<title>Node11&#45;&gt;Node5</title>
<path fill="none" stroke="midnightblue" d="M479,-56.08C479,-49.01 479,-38.86 479,-29.99"/>
<polygon fill="midnightblue" stroke="midnightblue" points="482.5,-29.75 479,-19.75 475.5,-29.75 482.5,-29.75"/>
</g>
<!-- Node12&#45;&gt;Node5 -->
<g id="edge14" class="edge">
<title>Node12&#45;&gt;Node5</title>
<path fill="none" stroke="midnightblue" d="M663.69,-57.6C624.23,-47.65 554.16,-29.97 512.6,-19.48"/>
<polygon fill="midnightblue" stroke="midnightblue" points="513.24,-16.03 502.69,-16.98 511.53,-22.82 513.24,-16.03"/>
</g>
<!-- Node12&#45;&gt;Node9 -->
<g id="edge15" class="edge">
<title>Node12&#45;&gt;Node9</title>
<path fill="none" stroke="midnightblue" d="M702.16,-56.32C710.5,-48.42 723.03,-36.55 733.18,-26.94"/>
<polygon fill="midnightblue" stroke="midnightblue" points="735.82,-29.25 740.68,-19.83 731.01,-24.17 735.82,-29.25"/>
</g>
<!-- Node13 -->
<g id="node13" class="node">
<title>Node13</title>
<g id="a_node13"><a xlink:title=" ">
<polygon fill="white" stroke="#bfbfbf" points="651,-0.5 651,-19.5 693,-19.5 693,-0.5 651,-0.5"/>
<text text-anchor="middle" x="672" y="-7.5" font-family="Helvetica,sans-Serif" font-size="10.00">array</text>
</a>
</g>
</g>
<!-- Node12&#45;&gt;Node13 -->
<g id="edge13" class="edge">
<title>Node12&#45;&gt;Node13</title>
<path fill="none" stroke="midnightblue" d="M689.53,-56.08C686.69,-48.77 682.57,-38.18 679.04,-29.1"/>
<polygon fill="midnightblue" stroke="midnightblue" points="682.29,-27.8 675.4,-19.75 675.77,-30.34 682.29,-27.8"/>
</g>
</g>
</svg>
