<?xml version="1.0" encoding="UTF-8" standalone="no"?>
<!DOCTYPE svg PUBLIC "-//W3C//DTD SVG 1.1//EN"
 "http://www.w3.org/Graphics/SVG/1.1/DTD/svg11.dtd">
<!-- Generated by graphviz version 3.0.0 (0)
 -->
<!-- Title: src/engine.cpp Pages: 1 -->
<!--zoomable 140 -->
<svg id="main" version="1.1" xmlns="http://www.w3.org/2000/svg" xmlns:xlink="http://www.w3.org/1999/xlink" xml:space="preserve" onload="init(evt)">
<style type="text/css"><![CDATA[
.edge:hover path { stroke: red; }
.edge:hover polygon { stroke: red; fill: red; }
]]></style>
<script type="text/javascript"><![CDATA[
var edges = document.getElementsByTagName('g');
if (edges && edges.length) {
  for (var i=0;i<edges.length;i++) {
    if (edges[i].id.substr(0,4)=='edge') {
      edges[i].setAttribute('class','edge');
    }
  }
}
]]></script>
        <defs>
                <circle id="rim" cx="0" cy="0" r="7"/>
                <circle id="rim2" cx="0" cy="0" r="3.5"/>
                <g id="zoomPlus">
                        <use xlink:href="#rim" fill="#404040">
                                <set attributeName="fill" to="#808080" begin="zoomplus.mouseover" end="zoomplus.mouseout"/>
                        </use>
                        <path d="M-4,0h8M0,-4v8" fill="none" stroke="white" stroke-width="1.5" pointer-events="none"/>
                </g>
                <g id="zoomMin">
                        <use xlink:href="#rim" fill="#404040">
                                <set attributeName="fill" to="#808080" begin="zoomminus.mouseover" end="zoomminus.mouseout"/>
                        </use>
                        <path d="M-4,0h8" fill="none" stroke="white" stroke-width="1.5" pointer-events="none"/>
                </g>
                <g id="dirArrow">
                        <path fill="none" stroke="white" stroke-width="1.5" d="M0,-3.0v7 M-2.5,-0.5L0,-3.0L2.5,-0.5"/>
                </g>
               <g id="resetDef">
                       <use xlink:href="#rim2" fill="#404040">
                               <set attributeName="fill" to="#808080" begin="reset.mouseover" end="reset.mouseout"/>
                       </use>
               </g>
        </defs>

<script type="text/javascript">
var viewWidth = 1165;
var viewHeight = 140;
var sectionId = 'dynsection-0';
</script>
<script xlink:href="svgpan.js"/>
<svg id="graph" class="graph">
<g id="viewport">
<title>src/engine.cpp</title>
<polygon fill="white" stroke="transparent" points="-4,4 -4,-136 1161,-136 1161,4 -4,4"/>
<!-- Node1 -->
<g id="node1" class="node">
<title>Node1</title>
<g id="a_node1"><a xlink:title=" ">
<polygon fill="#bfbfbf" stroke="black" points="465.5,-112.5 465.5,-131.5 552.5,-131.5 552.5,-112.5 465.5,-112.5"/>
<text text-anchor="middle" x="509" y="-119.5" font-family="Helvetica,sans-Serif" font-size="10.00">src/engine.cpp</text>
</a>
</g>
</g>
<!-- Node2 -->
<g id="node2" class="node">
<title>Node2</title>
<g id="a_node2"><a xlink:title=" ">
<polygon fill="white" stroke="#bfbfbf" points="0,-56.5 0,-75.5 64,-75.5 64,-56.5 0,-56.5"/>
<text text-anchor="middle" x="32" y="-63.5" font-family="Helvetica,sans-Serif" font-size="10.00">GL/glew.h</text>
</a>
</g>
</g>
<!-- Node1&#45;&gt;Node2 -->
<g id="edge1" class="edge">
<title>Node1&#45;&gt;Node2</title>
<path fill="none" stroke="midnightblue" d="M465.47,-118.15C388.54,-112.75 223.39,-99.57 74.41,-76.06"/>
<polygon fill="midnightblue" stroke="midnightblue" points="74.59,-72.54 64.16,-74.42 73.49,-79.46 74.59,-72.54"/>
</g>
<!-- Node3 -->
<g id="node3" class="node">
<title>Node3</title>
<g id="a_node3"><a xlink:title=" ">
<polygon fill="white" stroke="#bfbfbf" points="82,-56.5 82,-75.5 142,-75.5 142,-56.5 82,-56.5"/>
<text text-anchor="middle" x="112" y="-63.5" font-family="Helvetica,sans-Serif" font-size="10.00">GL/glut.h</text>
</a>
</g>
</g>
<!-- Node1&#45;&gt;Node3 -->
<g id="edge2" class="edge">
<title>Node1&#45;&gt;Node3</title>
<path fill="none" stroke="midnightblue" d="M465.25,-116.95C399.42,-110.54 270.84,-96.79 152.16,-76.05"/>
<polygon fill="midnightblue" stroke="midnightblue" points="152.63,-72.58 142.17,-74.28 151.41,-79.47 152.63,-72.58"/>
</g>
<!-- Node4 -->
<g id="node4" class="node">
<title>Node4</title>
<g id="a_node4"><a xlink:title=" ">
<polygon fill="white" stroke="#bfbfbf" points="160,-56.5 160,-75.5 206,-75.5 206,-56.5 160,-56.5"/>
<text text-anchor="middle" x="183" y="-63.5" font-family="Helvetica,sans-Serif" font-size="10.00">cstdio</text>
</a>
</g>
</g>
<!-- Node1&#45;&gt;Node4 -->
<g id="edge3" class="edge">
<title>Node1&#45;&gt;Node4</title>
<path fill="none" stroke="midnightblue" d="M465.36,-116.01C409.65,-109.28 310.16,-96 216.28,-76.06"/>
<polygon fill="midnightblue" stroke="midnightblue" points="216.85,-72.6 206.34,-73.92 215.37,-79.45 216.85,-72.6"/>
</g>
<!-- Node5 -->
<g id="node5" class="node">
<title>Node5</title>
<g id="a_node5"><a xlink:title=" ">
<polygon fill="white" stroke="#bfbfbf" points="224.5,-56.5 224.5,-75.5 271.5,-75.5 271.5,-56.5 224.5,-56.5"/>
<text text-anchor="middle" x="248" y="-63.5" font-family="Helvetica,sans-Serif" font-size="10.00">cmath</text>
</a>
</g>
</g>
<!-- Node1&#45;&gt;Node5 -->
<g id="edge4" class="edge">
<title>Node1&#45;&gt;Node5</title>
<path fill="none" stroke="midnightblue" d="M465.09,-113.3C421.1,-105.36 351.26,-92.19 281.57,-76"/>
<polygon fill="midnightblue" stroke="midnightblue" points="282.28,-72.57 271.74,-73.69 280.68,-79.38 282.28,-72.57"/>
</g>
<!-- Node6 -->
<g id="node6" class="node">
<title>Node6</title>
<g id="a_node6"><a xlink:title=" ">
<polygon fill="white" stroke="#bfbfbf" points="290,-56.5 290,-75.5 354,-75.5 354,-56.5 290,-56.5"/>
<text text-anchor="middle" x="322" y="-63.5" font-family="Helvetica,sans-Serif" font-size="10.00">algorithm</text>
</a>
</g>
</g>
<!-- Node1&#45;&gt;Node6 -->
<g id="edge5" class="edge">
<title>Node1&#45;&gt;Node6</title>
<path fill="none" stroke="midnightblue" d="M479.37,-112.44C447.5,-103.24 396.67,-88.56 361.44,-78.39"/>
<polygon fill="midnightblue" stroke="midnightblue" points="362.07,-74.93 351.49,-75.52 360.13,-81.65 362.07,-74.93"/>
</g>
<!-- Node7 -->
<g id="node7" class="node">
<title>Node7</title>
<g id="a_node7"><a xlink:title=" ">
<polygon fill="white" stroke="#bfbfbf" points="372,-56.5 372,-75.5 432,-75.5 432,-56.5 372,-56.5"/>
<text text-anchor="middle" x="402" y="-63.5" font-family="Helvetica,sans-Serif" font-size="10.00">iostream</text>
</a>
</g>
</g>
<!-- Node1&#45;&gt;Node7 -->
<g id="edge6" class="edge">
<title>Node1&#45;&gt;Node7</title>
<path fill="none" stroke="midnightblue" d="M491.81,-112.32C474.65,-103.66 448.05,-90.24 428.25,-80.25"/>
<polygon fill="midnightblue" stroke="midnightblue" points="429.65,-77.04 419.15,-75.65 426.5,-83.28 429.65,-77.04"/>
</g>
<!-- Node8 -->
<g id="node8" class="node">
<title>Node8</title>
<g id="a_node8"><a xlink:title=" ">
<polygon fill="white" stroke="#bfbfbf" points="673.5,-0.5 673.5,-19.5 720.5,-19.5 720.5,-0.5 673.5,-0.5"/>
<text text-anchor="middle" x="697" y="-7.5" font-family="Helvetica,sans-Serif" font-size="10.00">vector</text>
</a>
</g>
</g>
<!-- Node1&#45;&gt;Node8 -->
<g id="edge7" class="edge">
<title>Node1&#45;&gt;Node8</title>
<path fill="none" stroke="midnightblue" d="M499.35,-112.24C485.9,-98.99 464.71,-73.54 479,-56 501.87,-27.92 608.1,-16.84 663.37,-12.91"/>
<polygon fill="midnightblue" stroke="midnightblue" points="663.65,-16.4 673.39,-12.24 663.18,-9.42 663.65,-16.4"/>
</g>
<!-- Node9 -->
<g id="node9" class="node">
<title>Node9</title>
<g id="a_node9"><a xlink:title=" ">
<polygon fill="white" stroke="#bfbfbf" points="488.5,-56.5 488.5,-75.5 529.5,-75.5 529.5,-56.5 488.5,-56.5"/>
<text text-anchor="middle" x="509" y="-63.5" font-family="Helvetica,sans-Serif" font-size="10.00">tuple</text>
</a>
</g>
</g>
<!-- Node1&#45;&gt;Node9 -->
<g id="edge8" class="edge">
<title>Node1&#45;&gt;Node9</title>
<path fill="none" stroke="midnightblue" d="M509,-112.08C509,-105.01 509,-94.86 509,-85.99"/>
<polygon fill="midnightblue" stroke="midnightblue" points="512.5,-85.75 509,-75.75 505.5,-85.75 512.5,-85.75"/>
</g>
<!-- Node10 -->
<g id="node10" class="node">
<title>Node10</title>
<g id="a_node10"><a xlink:title=" ">
<polygon fill="white" stroke="#bfbfbf" points="548,-56.5 548,-75.5 586,-75.5 586,-56.5 548,-56.5"/>
<text text-anchor="middle" x="567" y="-63.5" font-family="Helvetica,sans-Serif" font-size="10.00">map</text>
</a>
</g>
</g>
<!-- Node1&#45;&gt;Node10 -->
<g id="edge9" class="edge">
<title>Node1&#45;&gt;Node10</title>
<path fill="none" stroke="midnightblue" d="M518.32,-112.32C526.89,-104.34 539.81,-92.31 550.19,-82.65"/>
<polygon fill="midnightblue" stroke="midnightblue" points="552.58,-85.21 557.51,-75.83 547.81,-80.09 552.58,-85.21"/>
</g>
<!-- Node11 -->
<g id="node11" class="node">
<title>Node11</title>
<g id="a_node11"><a xlink:title=" ">
<polygon fill="white" stroke="#bfbfbf" points="604.5,-56.5 604.5,-75.5 647.5,-75.5 647.5,-56.5 604.5,-56.5"/>
<text text-anchor="middle" x="626" y="-63.5" font-family="Helvetica,sans-Serif" font-size="10.00">IL/il.h</text>
</a>
</g>
</g>
<!-- Node1&#45;&gt;Node11 -->
<g id="edge10" class="edge">
<title>Node1&#45;&gt;Node11</title>
<path fill="none" stroke="midnightblue" d="M527.54,-112.44C546.62,-103.64 576.57,-89.81 598.44,-79.72"/>
<polygon fill="midnightblue" stroke="midnightblue" points="599.93,-82.88 607.55,-75.52 597,-76.53 599.93,-82.88"/>
</g>
<!-- Node12 -->
<g id="node12" class="node">
<title>Node12</title>
<g id="a_node12"><a xlink:title=" ">
<polygon fill="white" stroke="#bfbfbf" points="1079,-0.5 1079,-19.5 1157,-19.5 1157,-0.5 1079,-0.5"/>
<text text-anchor="middle" x="1118" y="-7.5" font-family="Helvetica,sans-Serif" font-size="10.00">glm/glm.hpp</text>
</a>
</g>
</g>
<!-- Node1&#45;&gt;Node12 -->
<g id="edge11" class="edge">
<title>Node1&#45;&gt;Node12</title>
<path fill="none" stroke="midnightblue" d="M552.92,-120.49C682.51,-118.59 1056.86,-110.17 1099,-76 1112.54,-65.03 1116.77,-44.97 1117.93,-30.03"/>
<polygon fill="midnightblue" stroke="midnightblue" points="1121.44,-29.96 1118.33,-19.83 1114.44,-29.69 1121.44,-29.96"/>
</g>
<!-- Node13 -->
<g id="node13" class="node">
<title>Node13</title>
<g id="a_node13"><a xlink:title=" ">
<polygon fill="white" stroke="#bfbfbf" points="746.5,-56.5 746.5,-75.5 877.5,-75.5 877.5,-56.5 746.5,-56.5"/>
<text text-anchor="middle" x="812" y="-63.5" font-family="Helvetica,sans-Serif" font-size="10.00">glm/gtx/string_cast.hpp</text>
</a>
</g>
</g>
<!-- Node1&#45;&gt;Node13 -->
<g id="edge12" class="edge">
<title>Node1&#45;&gt;Node13</title>
<path fill="none" stroke="midnightblue" d="M552.74,-113.21C605.87,-103.74 695.69,-87.73 754.41,-77.26"/>
<polygon fill="midnightblue" stroke="midnightblue" points="755.05,-80.71 764.28,-75.5 753.82,-73.81 755.05,-80.71"/>
</g>
<!-- Node14 -->
<g id="node14" class="node">
<title>Node14</title>
<g id="a_node14"><a xlink:title=" ">
<polygon fill="white" stroke="#bfbfbf" points="896,-56.5 896,-75.5 1014,-75.5 1014,-56.5 896,-56.5"/>
<text text-anchor="middle" x="955" y="-63.5" font-family="Helvetica,sans-Serif" font-size="10.00">glm/gtc/type_ptr.hpp</text>
</a>
</g>
</g>
<!-- Node1&#45;&gt;Node14 -->
<g id="edge13" class="edge">
<title>Node1&#45;&gt;Node14</title>
<path fill="none" stroke="midnightblue" d="M552.56,-115.96C620.99,-108 758.13,-91.92 885.94,-75.99"/>
<polygon fill="midnightblue" stroke="midnightblue" points="886.42,-79.46 895.91,-74.75 885.55,-72.52 886.42,-79.46"/>
</g>
<!-- Node15 -->
<g id="node15" class="node">
<title>Node15</title>
<g id="a_node15"><a xlink:href="parsing_8h.html" target="_top" xlink:title=" ">
<polygon fill="white" stroke="black" points="666,-56.5 666,-75.5 728,-75.5 728,-56.5 666,-56.5"/>
<text text-anchor="middle" x="697" y="-63.5" font-family="Helvetica,sans-Serif" font-size="10.00">parsing.h</text>
</a>
</g>
</g>
<!-- Node1&#45;&gt;Node15 -->
<g id="edge14" class="edge">
<title>Node1&#45;&gt;Node15</title>
<path fill="none" stroke="midnightblue" d="M538.79,-112.44C570.83,-103.24 621.93,-88.56 657.35,-78.39"/>
<polygon fill="midnightblue" stroke="midnightblue" points="658.71,-81.64 667.35,-75.52 656.77,-74.91 658.71,-81.64"/>
</g>
<!-- Node16 -->
<g id="node16" class="node">
<title>Node16</title>
<g id="a_node16"><a xlink:href="curves_8h.html" target="_top" xlink:title=" ">
<polygon fill="white" stroke="black" points="1032,-56.5 1032,-75.5 1090,-75.5 1090,-56.5 1032,-56.5"/>
<text text-anchor="middle" x="1061" y="-63.5" font-family="Helvetica,sans-Serif" font-size="10.00">curves.h</text>
</a>
</g>
</g>
<!-- Node1&#45;&gt;Node16 -->
<g id="edge16" class="edge">
<title>Node1&#45;&gt;Node16</title>
<path fill="none" stroke="midnightblue" d="M552.59,-119.32C639.87,-115.5 842.41,-104.32 1021.5,-76.03"/>
<polygon fill="midnightblue" stroke="midnightblue" points="1022.31,-79.44 1031.63,-74.4 1021.2,-72.53 1022.31,-79.44"/>
</g>
<!-- Node15&#45;&gt;Node8 -->
<g id="edge15" class="edge">
<title>Node15&#45;&gt;Node8</title>
<path fill="none" stroke="midnightblue" d="M697,-56.08C697,-49.01 697,-38.86 697,-29.99"/>
<polygon fill="midnightblue" stroke="midnightblue" points="700.5,-29.75 697,-19.75 693.5,-29.75 700.5,-29.75"/>
</g>
<!-- Node16&#45;&gt;Node8 -->
<g id="edge18" class="edge">
<title>Node16&#45;&gt;Node8</title>
<path fill="none" stroke="midnightblue" d="M1031.6,-57.74C1028.7,-57.12 1025.8,-56.52 1023,-56 917.04,-36.19 790.19,-21.14 730.8,-14.59"/>
<polygon fill="midnightblue" stroke="midnightblue" points="731.17,-11.11 720.85,-13.5 730.41,-18.07 731.17,-11.11"/>
</g>
<!-- Node16&#45;&gt;Node12 -->
<g id="edge19" class="edge">
<title>Node16&#45;&gt;Node12</title>
<path fill="none" stroke="midnightblue" d="M1070.16,-56.32C1078.5,-48.42 1091.03,-36.55 1101.18,-26.94"/>
<polygon fill="midnightblue" stroke="midnightblue" points="1103.82,-29.25 1108.68,-19.83 1099.01,-24.17 1103.82,-29.25"/>
</g>
<!-- Node17 -->
<g id="node17" class="node">
<title>Node17</title>
<g id="a_node17"><a xlink:title=" ">
<polygon fill="white" stroke="#bfbfbf" points="1019,-0.5 1019,-19.5 1061,-19.5 1061,-0.5 1019,-0.5"/>
<text text-anchor="middle" x="1040" y="-7.5" font-family="Helvetica,sans-Serif" font-size="10.00">array</text>
</a>
</g>
</g>
<!-- Node16&#45;&gt;Node17 -->
<g id="edge17" class="edge">
<title>Node16&#45;&gt;Node17</title>
<path fill="none" stroke="midnightblue" d="M1057.53,-56.08C1054.69,-48.77 1050.57,-38.18 1047.04,-29.1"/>
<polygon fill="midnightblue" stroke="midnightblue" points="1050.29,-27.8 1043.4,-19.75 1043.77,-30.34 1050.29,-27.8"/>
</g>
</g>
</svg>
        <g id="navigator" transform="translate(0 0)" fill="#404254">
                <rect fill="#f2f5e9" fill-opacity="0.5" stroke="#606060" stroke-width=".5" x="0" y="0" width="60" height="60"/>
                <use id="zoomplus" xlink:href="#zoomPlus" x="17" y="9" onmousedown="handleZoom(evt,'in')"/>
                <use id="zoomminus" xlink:href="#zoomMin" x="42" y="9" onmousedown="handleZoom(evt,'out')"/>
                <use id="reset" xlink:href="#resetDef" x="30" y="36" onmousedown="handleReset()"/>
                <g id="arrowUp" xlink:href="#dirArrow" transform="translate(30 24)" onmousedown="handlePan(0,-1)">
                  <use xlink:href="#rim" fill="#404040">
                        <set attributeName="fill" to="#808080" begin="arrowUp.mouseover" end="arrowUp.mouseout"/>
                  </use>
                  <path fill="none" stroke="white" stroke-width="1.5" d="M0,-3.0v7 M-2.5,-0.5L0,-3.0L2.5,-0.5"/>
                </g>
                <g id="arrowRight" xlink:href="#dirArrow" transform="rotate(90) translate(36 -43)" onmousedown="handlePan(1,0)">
                  <use xlink:href="#rim" fill="#404040">
                        <set attributeName="fill" to="#808080" begin="arrowRight.mouseover" end="arrowRight.mouseout"/>
                  </use>
                  <path fill="none" stroke="white" stroke-width="1.5" d="M0,-3.0v7 M-2.5,-0.5L0,-3.0L2.5,-0.5"/>
                </g>
                <g id="arrowDown" xlink:href="#dirArrow" transform="rotate(180) translate(-30 -48)" onmousedown="handlePan(0,1)">
                  <use xlink:href="#rim" fill="#404040">
                        <set attributeName="fill" to="#808080" begin="arrowDown.mouseover" end="arrowDown.mouseout"/>
                  </use>
                  <path fill="none" stroke="white" stroke-width="1.5" d="M0,-3.0v7 M-2.5,-0.5L0,-3.0L2.5,-0.5"/>
                </g>
                <g id="arrowLeft" xlink:href="#dirArrow" transform="rotate(270) translate(-36 17)" onmousedown="handlePan(-1,0)">
                  <use xlink:href="#rim" fill="#404040">
                        <set attributeName="fill" to="#808080" begin="arrowLeft.mouseover" end="arrowLeft.mouseout"/>
                  </use>
                  <path fill="none" stroke="white" stroke-width="1.5" d="M0,-3.0v7 M-2.5,-0.5L0,-3.0L2.5,-0.5"/>
                </g>
        </g>
        <svg viewBox="0 0 15 15" width="100%" height="30px" preserveAspectRatio="xMaxYMin meet">
         <g id="arrow_out" transform="scale(0.3 0.3)">
          <a xlink:href="engine_8cpp__incl_org.svg" target="_base">
           <rect id="button" ry="5" rx="5" y="6" x="6" height="38" width="38"
                fill="#f2f5e9" fill-opacity="0.5" stroke="#606060" stroke-width="1.0"/>
           <path id="arrow"
             d="M 11.500037,31.436501 C 11.940474,20.09759 22.043105,11.32322 32.158766,21.979434 L 37.068811,17.246167 C 37.068811,17.246167 37.088388,32 37.088388,32 L 22.160133,31.978069 C 22.160133,31.978069 26.997745,27.140456 26.997745,27.140456 C 18.528582,18.264221 13.291696,25.230495 11.500037,31.436501 z"
             style="fill:#404040;"/>
          </a>
         </g>
        </svg>
</svg>
