<?xml version="1.0" encoding="UTF-8" standalone="no"?>
<!DOCTYPE svg PUBLIC "-//W3C//DTD SVG 1.1//EN"
 "http://www.w3.org/Graphics/SVG/1.1/DTD/svg11.dtd">
<!-- Generated by graphviz version 3.0.0 (0)
 -->
<!-- Title: src/engine.cpp Pages: 1 -->
<svg width="412pt" height="140pt"
 viewBox="0.00 0.00 411.50 140.00" xmlns="http://www.w3.org/2000/svg" xmlns:xlink="http://www.w3.org/1999/xlink">
<g id="graph0" class="graph" transform="scale(1 1) rotate(0) translate(4 136)">
<title>src/engine.cpp</title>
<polygon fill="white" stroke="transparent" points="-4,4 -4,-136 407.5,-136 407.5,4 -4,4"/>
<!-- Node1 -->
<g id="node1" class="node">
<title>Node1</title>
<g id="a_node1"><a xlink:title=" ">
<polygon fill="#bfbfbf" stroke="black" points="173.5,-112.5 173.5,-131.5 260.5,-131.5 260.5,-112.5 173.5,-112.5"/>
<text text-anchor="middle" x="217" y="-119.5" font-family="Helvetica,sans-Serif" font-size="10.00">src/engine.cpp</text>
</a>
</g>
</g>
<!-- Node2 -->
<g id="node2" class="node">
<title>Node2</title>
<g id="a_node2"><a xlink:title=" ">
<polygon fill="white" stroke="#bfbfbf" points="0,-56.5 0,-75.5 60,-75.5 60,-56.5 0,-56.5"/>
<text text-anchor="middle" x="30" y="-63.5" font-family="Helvetica,sans-Serif" font-size="10.00">GL/glut.h</text>
</a>
</g>
</g>
<!-- Node1&#45;&gt;Node2 -->
<g id="edge1" class="edge">
<title>Node1&#45;&gt;Node2</title>
<path fill="none" stroke="midnightblue" d="M187.37,-112.44C155.5,-103.24 104.67,-88.56 69.44,-78.39"/>
<polygon fill="midnightblue" stroke="midnightblue" points="70.07,-74.93 59.49,-75.52 68.13,-81.65 70.07,-74.93"/>
</g>
<!-- Node3 -->
<g id="node3" class="node">
<title>Node3</title>
<g id="a_node3"><a xlink:title=" ">
<polygon fill="white" stroke="#bfbfbf" points="78.5,-56.5 78.5,-75.5 147.5,-75.5 147.5,-56.5 78.5,-56.5"/>
<text text-anchor="middle" x="113" y="-63.5" font-family="Helvetica,sans-Serif" font-size="10.00">tinyxml2.h</text>
</a>
</g>
</g>
<!-- Node1&#45;&gt;Node3 -->
<g id="edge2" class="edge">
<title>Node1&#45;&gt;Node3</title>
<path fill="none" stroke="midnightblue" d="M200.29,-112.32C183.69,-103.7 158,-90.36 138.78,-80.39"/>
<polygon fill="midnightblue" stroke="midnightblue" points="140.16,-77.16 129.67,-75.65 136.93,-83.37 140.16,-77.16"/>
</g>
<!-- Node4 -->
<g id="node4" class="node">
<title>Node4</title>
<g id="a_node4"><a xlink:title=" ">
<polygon fill="white" stroke="#bfbfbf" points="166,-56.5 166,-75.5 216,-75.5 216,-56.5 166,-56.5"/>
<text text-anchor="middle" x="191" y="-63.5" font-family="Helvetica,sans-Serif" font-size="10.00">stdio.h</text>
</a>
</g>
</g>
<!-- Node1&#45;&gt;Node4 -->
<g id="edge3" class="edge">
<title>Node1&#45;&gt;Node4</title>
<path fill="none" stroke="midnightblue" d="M212.71,-112.08C209.15,-104.69 203.98,-93.95 199.58,-84.81"/>
<polygon fill="midnightblue" stroke="midnightblue" points="202.71,-83.24 195.21,-75.75 196.4,-86.28 202.71,-83.24"/>
</g>
<!-- Node5 -->
<g id="node5" class="node">
<title>Node5</title>
<g id="a_node5"><a xlink:title=" ">
<polygon fill="white" stroke="#bfbfbf" points="249.5,-0.5 249.5,-19.5 296.5,-19.5 296.5,-0.5 249.5,-0.5"/>
<text text-anchor="middle" x="273" y="-7.5" font-family="Helvetica,sans-Serif" font-size="10.00">vector</text>
</a>
</g>
</g>
<!-- Node1&#45;&gt;Node5 -->
<g id="edge4" class="edge">
<title>Node1&#45;&gt;Node5</title>
<path fill="none" stroke="midnightblue" d="M221.39,-112.37C230.55,-94.38 251.85,-52.55 264.03,-28.63"/>
<polygon fill="midnightblue" stroke="midnightblue" points="267.21,-30.09 268.63,-19.59 260.97,-26.92 267.21,-30.09"/>
</g>
<!-- Node6 -->
<g id="node6" class="node">
<title>Node6</title>
<g id="a_node6"><a xlink:href="parsing_8h.html" target="_top" xlink:title=" ">
<polygon fill="white" stroke="black" points="272,-56.5 272,-75.5 334,-75.5 334,-56.5 272,-56.5"/>
<text text-anchor="middle" x="303" y="-63.5" font-family="Helvetica,sans-Serif" font-size="10.00">parsing.h</text>
</a>
</g>
</g>
<!-- Node1&#45;&gt;Node6 -->
<g id="edge5" class="edge">
<title>Node1&#45;&gt;Node6</title>
<path fill="none" stroke="midnightblue" d="M230.82,-112.32C244.23,-103.9 264.82,-90.97 280.59,-81.07"/>
<polygon fill="midnightblue" stroke="midnightblue" points="282.61,-83.94 289.22,-75.65 278.89,-78.01 282.61,-83.94"/>
</g>
<!-- Node7 -->
<g id="node7" class="node">
<title>Node7</title>
<g id="a_node7"><a xlink:title=" ">
<polygon fill="white" stroke="#bfbfbf" points="352.5,-56.5 352.5,-75.5 403.5,-75.5 403.5,-56.5 352.5,-56.5"/>
<text text-anchor="middle" x="378" y="-63.5" font-family="Helvetica,sans-Serif" font-size="10.00">math.h</text>
</a>
</g>
</g>
<!-- Node1&#45;&gt;Node7 -->
<g id="edge7" class="edge">
<title>Node1&#45;&gt;Node7</title>
<path fill="none" stroke="midnightblue" d="M242.51,-112.44C269.6,-103.36 312.59,-88.94 342.87,-78.78"/>
<polygon fill="midnightblue" stroke="midnightblue" points="344.24,-82.01 352.61,-75.52 342.01,-75.38 344.24,-82.01"/>
</g>
<!-- Node6&#45;&gt;Node5 -->
<g id="edge6" class="edge">
<title>Node6&#45;&gt;Node5</title>
<path fill="none" stroke="midnightblue" d="M298.05,-56.08C293.9,-48.61 287.85,-37.72 282.73,-28.52"/>
<polygon fill="midnightblue" stroke="midnightblue" points="285.78,-26.79 277.86,-19.75 279.66,-30.19 285.78,-26.79"/>
</g>
</g>
</svg>
