<?xml version="1.0" encoding="UTF-8" standalone="no"?>
<!DOCTYPE svg PUBLIC "-//W3C//DTD SVG 1.1//EN"
 "http://www.w3.org/Graphics/SVG/1.1/DTD/svg11.dtd">
<!-- Generated by graphviz version 3.0.0 (0)
 -->
<!-- Title: src/engine.cpp Pages: 1 -->
<svg width="1083pt" height="140pt"
 viewBox="0.00 0.00 1083.00 140.00" xmlns="http://www.w3.org/2000/svg" xmlns:xlink="http://www.w3.org/1999/xlink">
<g id="graph0" class="graph" transform="scale(1 1) rotate(0) translate(4 136)">
<title>src/engine.cpp</title>
<polygon fill="white" stroke="transparent" points="-4,4 -4,-136 1079,-136 1079,4 -4,4"/>
<!-- Node1 -->
<g id="node1" class="node">
<title>Node1</title>
<g id="a_node1"><a xlink:title=" ">
<polygon fill="#bfbfbf" stroke="black" points="454.5,-112.5 454.5,-131.5 541.5,-131.5 541.5,-112.5 454.5,-112.5"/>
<text text-anchor="middle" x="498" y="-119.5" font-family="Helvetica,sans-Serif" font-size="10.00">src/engine.cpp</text>
</a>
</g>
</g>
<!-- Node2 -->
<g id="node2" class="node">
<title>Node2</title>
<g id="a_node2"><a xlink:title=" ">
<polygon fill="white" stroke="#bfbfbf" points="0,-56.5 0,-75.5 64,-75.5 64,-56.5 0,-56.5"/>
<text text-anchor="middle" x="32" y="-63.5" font-family="Helvetica,sans-Serif" font-size="10.00">GL/glew.h</text>
</a>
</g>
</g>
<!-- Node1&#45;&gt;Node2 -->
<g id="edge1" class="edge">
<title>Node1&#45;&gt;Node2</title>
<path fill="none" stroke="midnightblue" d="M454.35,-117.98C378.84,-112.41 218.82,-99.07 74.11,-76.02"/>
<polygon fill="midnightblue" stroke="midnightblue" points="74.59,-72.55 64.16,-74.41 73.48,-79.46 74.59,-72.55"/>
</g>
<!-- Node3 -->
<g id="node3" class="node">
<title>Node3</title>
<g id="a_node3"><a xlink:title=" ">
<polygon fill="white" stroke="#bfbfbf" points="82,-56.5 82,-75.5 142,-75.5 142,-56.5 82,-56.5"/>
<text text-anchor="middle" x="112" y="-63.5" font-family="Helvetica,sans-Serif" font-size="10.00">GL/glut.h</text>
</a>
</g>
</g>
<!-- Node1&#45;&gt;Node3 -->
<g id="edge2" class="edge">
<title>Node1&#45;&gt;Node3</title>
<path fill="none" stroke="midnightblue" d="M454.24,-116.71C390.1,-110.13 266.62,-96.29 152.16,-76.06"/>
<polygon fill="midnightblue" stroke="midnightblue" points="152.63,-72.59 142.17,-74.27 151.4,-79.48 152.63,-72.59"/>
</g>
<!-- Node4 -->
<g id="node4" class="node">
<title>Node4</title>
<g id="a_node4"><a xlink:title=" ">
<polygon fill="white" stroke="#bfbfbf" points="160,-56.5 160,-75.5 206,-75.5 206,-56.5 160,-56.5"/>
<text text-anchor="middle" x="183" y="-63.5" font-family="Helvetica,sans-Serif" font-size="10.00">cstdio</text>
</a>
</g>
</g>
<!-- Node1&#45;&gt;Node4 -->
<g id="edge3" class="edge">
<title>Node1&#45;&gt;Node4</title>
<path fill="none" stroke="midnightblue" d="M454.07,-115.63C400.14,-108.68 305.76,-95.37 216.12,-76.04"/>
<polygon fill="midnightblue" stroke="midnightblue" points="216.86,-72.62 206.34,-73.9 215.36,-79.46 216.86,-72.62"/>
</g>
<!-- Node5 -->
<g id="node5" class="node">
<title>Node5</title>
<g id="a_node5"><a xlink:title=" ">
<polygon fill="white" stroke="#bfbfbf" points="224.5,-56.5 224.5,-75.5 271.5,-75.5 271.5,-56.5 224.5,-56.5"/>
<text text-anchor="middle" x="248" y="-63.5" font-family="Helvetica,sans-Serif" font-size="10.00">cmath</text>
</a>
</g>
</g>
<!-- Node1&#45;&gt;Node5 -->
<g id="edge4" class="edge">
<title>Node1&#45;&gt;Node5</title>
<path fill="none" stroke="midnightblue" d="M454.18,-112.74C412.37,-104.67 347.41,-91.66 281.85,-76.08"/>
<polygon fill="midnightblue" stroke="midnightblue" points="282.29,-72.59 271.75,-73.67 280.66,-79.4 282.29,-72.59"/>
</g>
<!-- Node6 -->
<g id="node6" class="node">
<title>Node6</title>
<g id="a_node6"><a xlink:title=" ">
<polygon fill="white" stroke="#bfbfbf" points="290,-56.5 290,-75.5 350,-75.5 350,-56.5 290,-56.5"/>
<text text-anchor="middle" x="320" y="-63.5" font-family="Helvetica,sans-Serif" font-size="10.00">iostream</text>
</a>
</g>
</g>
<!-- Node1&#45;&gt;Node6 -->
<g id="edge5" class="edge">
<title>Node1&#45;&gt;Node6</title>
<path fill="none" stroke="midnightblue" d="M469.8,-112.44C439.59,-103.28 391.49,-88.69 357.97,-78.52"/>
<polygon fill="midnightblue" stroke="midnightblue" points="358.66,-75.07 348.07,-75.52 356.63,-81.77 358.66,-75.07"/>
</g>
<!-- Node7 -->
<g id="node7" class="node">
<title>Node7</title>
<g id="a_node7"><a xlink:title=" ">
<polygon fill="white" stroke="#bfbfbf" points="612.5,-0.5 612.5,-19.5 659.5,-19.5 659.5,-0.5 612.5,-0.5"/>
<text text-anchor="middle" x="636" y="-7.5" font-family="Helvetica,sans-Serif" font-size="10.00">vector</text>
</a>
</g>
</g>
<!-- Node1&#45;&gt;Node7 -->
<g id="edge6" class="edge">
<title>Node1&#45;&gt;Node7</title>
<path fill="none" stroke="midnightblue" d="M541.75,-114.08C566.63,-108 596.59,-96.73 616,-76 627.72,-63.49 632.58,-44.26 634.59,-29.96"/>
<polygon fill="midnightblue" stroke="midnightblue" points="638.09,-30.08 635.67,-19.77 631.13,-29.34 638.09,-30.08"/>
</g>
<!-- Node8 -->
<g id="node8" class="node">
<title>Node8</title>
<g id="a_node8"><a xlink:title=" ">
<polygon fill="white" stroke="#bfbfbf" points="448.5,-56.5 448.5,-75.5 489.5,-75.5 489.5,-56.5 448.5,-56.5"/>
<text text-anchor="middle" x="469" y="-63.5" font-family="Helvetica,sans-Serif" font-size="10.00">tuple</text>
</a>
</g>
</g>
<!-- Node1&#45;&gt;Node8 -->
<g id="edge7" class="edge">
<title>Node1&#45;&gt;Node8</title>
<path fill="none" stroke="midnightblue" d="M493.21,-112.08C489.24,-104.69 483.47,-93.95 478.57,-84.81"/>
<polygon fill="midnightblue" stroke="midnightblue" points="481.51,-82.91 473.7,-75.75 475.35,-86.22 481.51,-82.91"/>
</g>
<!-- Node9 -->
<g id="node9" class="node">
<title>Node9</title>
<g id="a_node9"><a xlink:title=" ">
<polygon fill="white" stroke="#bfbfbf" points="508,-56.5 508,-75.5 546,-75.5 546,-56.5 508,-56.5"/>
<text text-anchor="middle" x="527" y="-63.5" font-family="Helvetica,sans-Serif" font-size="10.00">map</text>
</a>
</g>
</g>
<!-- Node1&#45;&gt;Node9 -->
<g id="edge8" class="edge">
<title>Node1&#45;&gt;Node9</title>
<path fill="none" stroke="midnightblue" d="M502.79,-112.08C506.76,-104.69 512.53,-93.95 517.43,-84.81"/>
<polygon fill="midnightblue" stroke="midnightblue" points="520.65,-86.22 522.3,-75.75 514.49,-82.91 520.65,-86.22"/>
</g>
<!-- Node10 -->
<g id="node10" class="node">
<title>Node10</title>
<g id="a_node10"><a xlink:title=" ">
<polygon fill="white" stroke="#bfbfbf" points="564.5,-56.5 564.5,-75.5 607.5,-75.5 607.5,-56.5 564.5,-56.5"/>
<text text-anchor="middle" x="586" y="-63.5" font-family="Helvetica,sans-Serif" font-size="10.00">IL/il.h</text>
</a>
</g>
</g>
<!-- Node1&#45;&gt;Node10 -->
<g id="edge9" class="edge">
<title>Node1&#45;&gt;Node10</title>
<path fill="none" stroke="midnightblue" d="M512.14,-112.32C525.87,-103.9 546.94,-90.97 563.06,-81.07"/>
<polygon fill="midnightblue" stroke="midnightblue" points="565.2,-83.87 571.9,-75.65 561.54,-77.9 565.2,-83.87"/>
</g>
<!-- Node11 -->
<g id="node11" class="node">
<title>Node11</title>
<g id="a_node11"><a xlink:title=" ">
<polygon fill="white" stroke="#bfbfbf" points="997,-0.5 997,-19.5 1075,-19.5 1075,-0.5 997,-0.5"/>
<text text-anchor="middle" x="1036" y="-7.5" font-family="Helvetica,sans-Serif" font-size="10.00">glm/glm.hpp</text>
</a>
</g>
</g>
<!-- Node1&#45;&gt;Node11 -->
<g id="edge10" class="edge">
<title>Node1&#45;&gt;Node11</title>
<path fill="none" stroke="midnightblue" d="M541.63,-120C659.97,-116.91 980.58,-105.84 1017,-76 1030.48,-64.96 1034.72,-44.91 1035.9,-29.99"/>
<polygon fill="midnightblue" stroke="midnightblue" points="1039.4,-29.95 1036.31,-19.81 1032.41,-29.66 1039.4,-29.95"/>
</g>
<!-- Node12 -->
<g id="node12" class="node">
<title>Node12</title>
<g id="a_node12"><a xlink:title=" ">
<polygon fill="white" stroke="#bfbfbf" points="664.5,-56.5 664.5,-75.5 795.5,-75.5 795.5,-56.5 664.5,-56.5"/>
<text text-anchor="middle" x="730" y="-63.5" font-family="Helvetica,sans-Serif" font-size="10.00">glm/gtx/string_cast.hpp</text>
</a>
</g>
</g>
<!-- Node1&#45;&gt;Node12 -->
<g id="edge11" class="edge">
<title>Node1&#45;&gt;Node12</title>
<path fill="none" stroke="midnightblue" d="M534.76,-112.44C575.06,-103.06 639.81,-87.99 683.58,-77.8"/>
<polygon fill="midnightblue" stroke="midnightblue" points="684.46,-81.19 693.41,-75.52 682.88,-74.37 684.46,-81.19"/>
</g>
<!-- Node13 -->
<g id="node13" class="node">
<title>Node13</title>
<g id="a_node13"><a xlink:title=" ">
<polygon fill="white" stroke="#bfbfbf" points="814,-56.5 814,-75.5 932,-75.5 932,-56.5 814,-56.5"/>
<text text-anchor="middle" x="873" y="-63.5" font-family="Helvetica,sans-Serif" font-size="10.00">glm/gtc/type_ptr.hpp</text>
</a>
</g>
</g>
<!-- Node1&#45;&gt;Node13 -->
<g id="edge12" class="edge">
<title>Node1&#45;&gt;Node13</title>
<path fill="none" stroke="midnightblue" d="M541.75,-114.7C606.19,-105.42 727.24,-87.99 803.8,-76.96"/>
<polygon fill="midnightblue" stroke="midnightblue" points="804.44,-80.41 813.83,-75.52 803.44,-73.48 804.44,-80.41"/>
</g>
<!-- Node14 -->
<g id="node14" class="node">
<title>Node14</title>
<g id="a_node14"><a xlink:href="parsing_8h.html" target="_top" xlink:title=" ">
<polygon fill="white" stroke="black" points="368,-56.5 368,-75.5 430,-75.5 430,-56.5 368,-56.5"/>
<text text-anchor="middle" x="399" y="-63.5" font-family="Helvetica,sans-Serif" font-size="10.00">parsing.h</text>
</a>
</g>
</g>
<!-- Node1&#45;&gt;Node14 -->
<g id="edge13" class="edge">
<title>Node1&#45;&gt;Node14</title>
<path fill="none" stroke="midnightblue" d="M482.09,-112.32C466.36,-103.74 442.06,-90.49 423.79,-80.52"/>
<polygon fill="midnightblue" stroke="midnightblue" points="425.32,-77.37 414.87,-75.65 421.97,-83.52 425.32,-77.37"/>
</g>
<!-- Node15 -->
<g id="node15" class="node">
<title>Node15</title>
<g id="a_node15"><a xlink:href="curves_8h.html" target="_top" xlink:title=" ">
<polygon fill="white" stroke="black" points="950,-56.5 950,-75.5 1008,-75.5 1008,-56.5 950,-56.5"/>
<text text-anchor="middle" x="979" y="-63.5" font-family="Helvetica,sans-Serif" font-size="10.00">curves.h</text>
</a>
</g>
</g>
<!-- Node1&#45;&gt;Node15 -->
<g id="edge15" class="edge">
<title>Node1&#45;&gt;Node15</title>
<path fill="none" stroke="midnightblue" d="M541.64,-118.47C619.67,-113.55 788.33,-101.02 939.68,-76.03"/>
<polygon fill="midnightblue" stroke="midnightblue" points="940.33,-79.46 949.62,-74.36 939.18,-72.56 940.33,-79.46"/>
</g>
<!-- Node14&#45;&gt;Node7 -->
<g id="edge14" class="edge">
<title>Node14&#45;&gt;Node7</title>
<path fill="none" stroke="midnightblue" d="M430.47,-57.83C475.1,-47.66 556.41,-29.13 602.25,-18.69"/>
<polygon fill="midnightblue" stroke="midnightblue" points="603.31,-22.04 612.28,-16.4 601.75,-15.21 603.31,-22.04"/>
</g>
<!-- Node15&#45;&gt;Node7 -->
<g id="edge17" class="edge">
<title>Node15&#45;&gt;Node7</title>
<path fill="none" stroke="midnightblue" d="M949.6,-57.77C946.7,-57.14 943.8,-56.54 941,-56 843.22,-37.24 726.51,-21.99 670,-15.05"/>
<polygon fill="midnightblue" stroke="midnightblue" points="670.2,-11.54 659.85,-13.81 669.35,-18.49 670.2,-11.54"/>
</g>
<!-- Node15&#45;&gt;Node11 -->
<g id="edge18" class="edge">
<title>Node15&#45;&gt;Node11</title>
<path fill="none" stroke="midnightblue" d="M988.16,-56.32C996.5,-48.42 1009.03,-36.55 1019.18,-26.94"/>
<polygon fill="midnightblue" stroke="midnightblue" points="1021.82,-29.25 1026.68,-19.83 1017.01,-24.17 1021.82,-29.25"/>
</g>
<!-- Node16 -->
<g id="node16" class="node">
<title>Node16</title>
<g id="a_node16"><a xlink:title=" ">
<polygon fill="white" stroke="#bfbfbf" points="937,-0.5 937,-19.5 979,-19.5 979,-0.5 937,-0.5"/>
<text text-anchor="middle" x="958" y="-7.5" font-family="Helvetica,sans-Serif" font-size="10.00">array</text>
</a>
</g>
</g>
<!-- Node15&#45;&gt;Node16 -->
<g id="edge16" class="edge">
<title>Node15&#45;&gt;Node16</title>
<path fill="none" stroke="midnightblue" d="M975.53,-56.08C972.69,-48.77 968.57,-38.18 965.04,-29.1"/>
<polygon fill="midnightblue" stroke="midnightblue" points="968.29,-27.8 961.4,-19.75 961.77,-30.34 968.29,-27.8"/>
</g>
</g>
</svg>
