<?xml version="1.0" encoding="UTF-8" standalone="no"?>
<!DOCTYPE svg PUBLIC "-//W3C//DTD SVG 1.1//EN"
 "http://www.w3.org/Graphics/SVG/1.1/DTD/svg11.dtd">
<!-- Generated by graphviz version 3.0.0 (0)
 -->
<!-- Title: main Pages: 1 -->
<svg width="653pt" height="332pt"
 viewBox="0.00 0.00 653.00 332.00" xmlns="http://www.w3.org/2000/svg" xmlns:xlink="http://www.w3.org/1999/xlink">
<g id="graph0" class="graph" transform="scale(1 1) rotate(0) translate(4 328)">
<title>main</title>
<polygon fill="white" stroke="transparent" points="-4,4 -4,-328 649,-328 649,4 -4,4"/>
<!-- Node1 -->
<g id="node1" class="node">
<title>Node1</title>
<g id="a_node1"><a xlink:title=" ">
<polygon fill="#bfbfbf" stroke="black" points="0,-152.5 0,-171.5 41,-171.5 41,-152.5 0,-152.5"/>
<text text-anchor="middle" x="20.5" y="-159.5" font-family="Helvetica,sans-Serif" font-size="10.00">main</text>
</a>
</g>
</g>
<!-- Node2 -->
<g id="node2" class="node">
<title>Node2</title>
<g id="a_node2"><a xlink:href="group__cone.html#ga91bcf93d6d83f4837ac94093d869af78" target="_top" xlink:title=" ">
<polygon fill="white" stroke="black" points="82,-242.5 82,-261.5 188,-261.5 188,-242.5 82,-242.5"/>
<text text-anchor="middle" x="135" y="-249.5" font-family="Helvetica,sans-Serif" font-size="10.00">model_cone_write</text>
</a>
</g>
</g>
<!-- Node1&#45;&gt;Node2 -->
<g id="edge1" class="edge">
<title>Node1&#45;&gt;Node2</title>
<path fill="none" stroke="midnightblue" d="M32.4,-171.55C43.49,-181.18 61.22,-196.38 77,-209 88.61,-218.28 101.85,-228.31 112.65,-236.34"/>
<polygon fill="midnightblue" stroke="midnightblue" points="110.59,-239.17 120.71,-242.3 114.75,-233.54 110.59,-239.17"/>
</g>
<!-- Node8 -->
<g id="node8" class="node">
<title>Node8</title>
<g id="a_node8"><a xlink:href="group__cube.html#gad6fe75a034b53925563817d6efd139a0" target="_top" xlink:title=" ">
<polygon fill="white" stroke="black" points="82,-180.5 82,-199.5 188,-199.5 188,-180.5 82,-180.5"/>
<text text-anchor="middle" x="135" y="-187.5" font-family="Helvetica,sans-Serif" font-size="10.00">model_cube_write</text>
</a>
</g>
</g>
<!-- Node1&#45;&gt;Node8 -->
<g id="edge8" class="edge">
<title>Node1&#45;&gt;Node8</title>
<path fill="none" stroke="midnightblue" d="M41.1,-166.88C53.39,-169.94 69.81,-174.02 85.43,-177.91"/>
<polygon fill="midnightblue" stroke="midnightblue" points="84.98,-181.41 95.53,-180.43 86.67,-174.61 84.98,-181.41"/>
</g>
<!-- Node11 -->
<g id="node11" class="node">
<title>Node11</title>
<g id="a_node11"><a xlink:href="group__plane.html#ga5e8bda3b029f10d274a294c697a622cd" target="_top" xlink:title=" ">
<polygon fill="white" stroke="black" points="80,-133.5 80,-152.5 190,-152.5 190,-133.5 80,-133.5"/>
<text text-anchor="middle" x="135" y="-140.5" font-family="Helvetica,sans-Serif" font-size="10.00">model_plane_write</text>
</a>
</g>
</g>
<!-- Node1&#45;&gt;Node11 -->
<g id="edge13" class="edge">
<title>Node1&#45;&gt;Node11</title>
<path fill="none" stroke="midnightblue" d="M41.1,-158.69C49.3,-157.3 59.35,-155.61 69.77,-153.85"/>
<polygon fill="midnightblue" stroke="midnightblue" points="70.55,-157.27 79.83,-152.15 69.39,-150.36 70.55,-157.27"/>
</g>
<!-- Node14 -->
<g id="node14" class="node">
<title>Node14</title>
<g id="a_node14"><a xlink:href="group__sphere.html#gac12b373e99ed20d69a86f42d7fbba274" target="_top" xlink:title=" ">
<polygon fill="white" stroke="black" points="77,-76.5 77,-95.5 193,-95.5 193,-76.5 77,-76.5"/>
<text text-anchor="middle" x="135" y="-83.5" font-family="Helvetica,sans-Serif" font-size="10.00">model_sphere_write</text>
</a>
</g>
</g>
<!-- Node1&#45;&gt;Node14 -->
<g id="edge18" class="edge">
<title>Node1&#45;&gt;Node14</title>
<path fill="none" stroke="midnightblue" d="M35.61,-152.27C46.81,-144.56 62.87,-133.54 77,-124 88.13,-116.48 100.53,-108.2 110.92,-101.3"/>
<polygon fill="midnightblue" stroke="midnightblue" points="113.05,-104.08 119.44,-95.63 109.17,-98.25 113.05,-104.08"/>
</g>
<!-- Node3 -->
<g id="node3" class="node">
<title>Node3</title>
<g id="a_node3"><a xlink:href="group__cone.html#ga5b5f2964e2c773066361e823daa9211d" target="_top" xlink:title=" ">
<polygon fill="white" stroke="black" points="234,-266.5 234,-285.5 361,-285.5 361,-266.5 234,-266.5"/>
<text text-anchor="middle" x="297.5" y="-273.5" font-family="Helvetica,sans-Serif" font-size="10.00">model_cone_nVertices</text>
</a>
</g>
</g>
<!-- Node2&#45;&gt;Node3 -->
<g id="edge2" class="edge">
<title>Node2&#45;&gt;Node3</title>
<path fill="none" stroke="midnightblue" d="M188.11,-259.79C199.48,-261.49 211.71,-263.32 223.72,-265.12"/>
<polygon fill="midnightblue" stroke="midnightblue" points="223.32,-268.6 233.73,-266.61 224.36,-261.67 223.32,-268.6"/>
</g>
<!-- Node4 -->
<g id="node4" class="node">
<title>Node4</title>
<g id="a_node4"><a xlink:href="group__cone.html#gaed448e670b4c08b141dc96be90fc444a" target="_top" xlink:title=" ">
<polygon fill="white" stroke="black" points="237.5,-304.5 237.5,-323.5 357.5,-323.5 357.5,-304.5 237.5,-304.5"/>
<text text-anchor="middle" x="297.5" y="-311.5" font-family="Helvetica,sans-Serif" font-size="10.00">model_cone_vertices</text>
</a>
</g>
</g>
<!-- Node2&#45;&gt;Node4 -->
<g id="edge3" class="edge">
<title>Node2&#45;&gt;Node4</title>
<path fill="none" stroke="midnightblue" d="M154.51,-261.62C173.02,-270.99 202.47,-285.2 229,-295 235.37,-297.35 242.17,-299.58 248.9,-301.63"/>
<polygon fill="midnightblue" stroke="midnightblue" points="248.09,-305.04 258.67,-304.49 250.06,-298.32 248.09,-305.04"/>
</g>
<!-- Node7 -->
<g id="node7" class="node">
<title>Node7</title>
<g id="a_node7"><a xlink:href="group__points.html#gab0ec2dac46ec7ee44911b8bcf1e9dad0" target="_top" xlink:title=" ">
<polygon fill="white" stroke="black" points="259,-152.5 259,-171.5 336,-171.5 336,-152.5 259,-152.5"/>
<text text-anchor="middle" x="297.5" y="-159.5" font-family="Helvetica,sans-Serif" font-size="10.00">points_write</text>
</a>
</g>
</g>
<!-- Node2&#45;&gt;Node7 -->
<g id="edge7" class="edge">
<title>Node2&#45;&gt;Node7</title>
<path fill="none" stroke="midnightblue" d="M153.18,-242.37C181.29,-226.6 237.31,-195.19 270.38,-176.65"/>
<polygon fill="midnightblue" stroke="midnightblue" points="272.44,-179.51 279.45,-171.56 269.01,-173.4 272.44,-179.51"/>
</g>
<!-- Node5 -->
<g id="node5" class="node">
<title>Node5</title>
<g id="a_node5"><a xlink:href="group__cone.html#ga30e1b3df23e49e33821bac9f6bf679db" target="_top" xlink:title=" ">
<polygon fill="white" stroke="black" points="407.5,-294.5 407.5,-313.5 520.5,-313.5 520.5,-294.5 407.5,-294.5"/>
<text text-anchor="middle" x="464" y="-301.5" font-family="Helvetica,sans-Serif" font-size="10.00">model_cone_vertex</text>
</a>
</g>
</g>
<!-- Node4&#45;&gt;Node5 -->
<g id="edge4" class="edge">
<title>Node4&#45;&gt;Node5</title>
<path fill="none" stroke="midnightblue" d="M357.89,-310.39C370.6,-309.62 384.1,-308.8 397.03,-308.01"/>
<polygon fill="midnightblue" stroke="midnightblue" points="397.5,-311.49 407.26,-307.39 397.07,-304.5 397.5,-311.49"/>
</g>
<!-- Node6 -->
<g id="node6" class="node">
<title>Node6</title>
<g id="a_node6"><a xlink:href="group__points.html#ga127fb8e56ec1e38505cdd9ea6efa2cf6" target="_top" xlink:title=" ">
<polygon fill="white" stroke="black" points="562,-190.5 562,-209.5 645,-209.5 645,-190.5 562,-190.5"/>
<text text-anchor="middle" x="603.5" y="-197.5" font-family="Helvetica,sans-Serif" font-size="10.00">points_vertex</text>
</a>
</g>
</g>
<!-- Node4&#45;&gt;Node6 -->
<g id="edge6" class="edge">
<title>Node4&#45;&gt;Node6</title>
<path fill="none" stroke="midnightblue" d="M335.15,-304.46C345.22,-301.63 356.09,-298.37 366,-295 440.96,-269.48 526.7,-233.21 571.51,-213.7"/>
<polygon fill="midnightblue" stroke="midnightblue" points="573.19,-216.78 580.95,-209.57 570.38,-210.37 573.19,-216.78"/>
</g>
<!-- Node5&#45;&gt;Node6 -->
<g id="edge5" class="edge">
<title>Node5&#45;&gt;Node6</title>
<path fill="none" stroke="midnightblue" d="M485.82,-294.38C497.99,-288.36 513.38,-280.05 526,-271 548.82,-254.64 572.05,-232.06 586.83,-216.8"/>
<polygon fill="midnightblue" stroke="midnightblue" points="589.37,-219.2 593.74,-209.55 584.3,-214.37 589.37,-219.2"/>
</g>
<!-- Node8&#45;&gt;Node7 -->
<g id="edge12" class="edge">
<title>Node8&#45;&gt;Node7</title>
<path fill="none" stroke="midnightblue" d="M188.11,-180.91C207.66,-177.5 229.77,-173.64 248.89,-170.31"/>
<polygon fill="midnightblue" stroke="midnightblue" points="249.63,-173.73 258.88,-168.56 248.43,-166.83 249.63,-173.73"/>
</g>
<!-- Node9 -->
<g id="node9" class="node">
<title>Node9</title>
<g id="a_node9"><a xlink:href="group__cube.html#ga029b7906dd04b97c96cca5dd9a9db601" target="_top" xlink:title=" ">
<polygon fill="white" stroke="black" points="234,-228.5 234,-247.5 361,-247.5 361,-228.5 234,-228.5"/>
<text text-anchor="middle" x="297.5" y="-235.5" font-family="Helvetica,sans-Serif" font-size="10.00">model_cube_nVertices</text>
</a>
</g>
</g>
<!-- Node8&#45;&gt;Node9 -->
<g id="edge9" class="edge">
<title>Node8&#45;&gt;Node9</title>
<path fill="none" stroke="midnightblue" d="M168.09,-199.6C193.03,-207.05 227.8,-217.45 254.87,-225.55"/>
<polygon fill="midnightblue" stroke="midnightblue" points="253.88,-228.91 264.46,-228.42 255.88,-222.2 253.88,-228.91"/>
</g>
<!-- Node10 -->
<g id="node10" class="node">
<title>Node10</title>
<g id="a_node10"><a xlink:href="group__cube.html#ga035b5ad854abdbc786a8b78882d390c1" target="_top" xlink:title=" ">
<polygon fill="white" stroke="black" points="404,-190.5 404,-209.5 524,-209.5 524,-190.5 404,-190.5"/>
<text text-anchor="middle" x="464" y="-197.5" font-family="Helvetica,sans-Serif" font-size="10.00">model_cube_vertices</text>
</a>
</g>
</g>
<!-- Node8&#45;&gt;Node10 -->
<g id="edge10" class="edge">
<title>Node8&#45;&gt;Node10</title>
<path fill="none" stroke="midnightblue" d="M188.18,-191.6C243.86,-193.3 332.35,-196 393.81,-197.88"/>
<polygon fill="midnightblue" stroke="midnightblue" points="393.71,-201.38 403.82,-198.19 393.93,-194.39 393.71,-201.38"/>
</g>
<!-- Node10&#45;&gt;Node6 -->
<g id="edge11" class="edge">
<title>Node10&#45;&gt;Node6</title>
<path fill="none" stroke="midnightblue" d="M524.11,-200C533.21,-200 542.55,-200 551.45,-200"/>
<polygon fill="midnightblue" stroke="midnightblue" points="551.68,-203.5 561.68,-200 551.68,-196.5 551.68,-203.5"/>
</g>
<!-- Node11&#45;&gt;Node7 -->
<g id="edge17" class="edge">
<title>Node11&#45;&gt;Node7</title>
<path fill="none" stroke="midnightblue" d="M190.34,-149.43C209.28,-151.67 230.38,-154.17 248.75,-156.35"/>
<polygon fill="midnightblue" stroke="midnightblue" points="248.58,-159.85 258.92,-157.55 249.4,-152.9 248.58,-159.85"/>
</g>
<!-- Node12 -->
<g id="node12" class="node">
<title>Node12</title>
<g id="a_node12"><a xlink:href="group__plane.html#ga2dc797b7bd5ac0ed0f270d481d977a55" target="_top" xlink:title=" ">
<polygon fill="white" stroke="black" points="232,-114.5 232,-133.5 363,-133.5 363,-114.5 232,-114.5"/>
<text text-anchor="middle" x="297.5" y="-121.5" font-family="Helvetica,sans-Serif" font-size="10.00">model_plane_nVertices</text>
</a>
</g>
</g>
<!-- Node11&#45;&gt;Node12 -->
<g id="edge14" class="edge">
<title>Node11&#45;&gt;Node12</title>
<path fill="none" stroke="midnightblue" d="M190.34,-136.57C200.47,-135.37 211.22,-134.1 221.83,-132.84"/>
<polygon fill="midnightblue" stroke="midnightblue" points="222.43,-136.29 231.95,-131.64 221.61,-129.34 222.43,-136.29"/>
</g>
<!-- Node13 -->
<g id="node13" class="node">
<title>Node13</title>
<g id="a_node13"><a xlink:href="group__plane.html#ga2860798c8a53cfdf27dcecdfb1616940" target="_top" xlink:title=" ">
<polygon fill="white" stroke="black" points="402,-124.5 402,-143.5 526,-143.5 526,-124.5 402,-124.5"/>
<text text-anchor="middle" x="464" y="-131.5" font-family="Helvetica,sans-Serif" font-size="10.00">model_plane_vertices</text>
</a>
</g>
</g>
<!-- Node11&#45;&gt;Node13 -->
<g id="edge15" class="edge">
<title>Node11&#45;&gt;Node13</title>
<path fill="none" stroke="midnightblue" d="M153.53,-133.42C171.77,-124.05 201.45,-110.41 229,-105 288.75,-93.26 305.75,-96.19 366,-105 387.28,-108.11 410.37,-114.87 428.69,-121.08"/>
<polygon fill="midnightblue" stroke="midnightblue" points="427.73,-124.46 438.33,-124.45 430.04,-117.85 427.73,-124.46"/>
</g>
<!-- Node13&#45;&gt;Node6 -->
<g id="edge16" class="edge">
<title>Node13&#45;&gt;Node6</title>
<path fill="none" stroke="midnightblue" d="M484.99,-143.6C508.21,-154.74 546.71,-173.22 573.28,-185.98"/>
<polygon fill="midnightblue" stroke="midnightblue" points="571.95,-189.22 582.48,-190.39 574.98,-182.91 571.95,-189.22"/>
</g>
<!-- Node14&#45;&gt;Node7 -->
<g id="edge23" class="edge">
<title>Node14&#45;&gt;Node7</title>
<path fill="none" stroke="midnightblue" d="M150.5,-95.57C172.42,-109.91 213.12,-136.06 229,-143 235.3,-145.75 242.1,-148.21 248.87,-150.38"/>
<polygon fill="midnightblue" stroke="midnightblue" points="248.14,-153.81 258.72,-153.34 250.15,-147.11 248.14,-153.81"/>
</g>
<!-- Node15 -->
<g id="node15" class="node">
<title>Node15</title>
<g id="a_node15"><a xlink:href="group__sphere.html#ga093e996c7f18f239228d66ffa2b35078" target="_top" xlink:title=" ">
<polygon fill="white" stroke="black" points="229,-38.5 229,-57.5 366,-57.5 366,-38.5 229,-38.5"/>
<text text-anchor="middle" x="297.5" y="-45.5" font-family="Helvetica,sans-Serif" font-size="10.00">model_sphere_nVertices</text>
</a>
</g>
</g>
<!-- Node14&#45;&gt;Node15 -->
<g id="edge19" class="edge">
<title>Node14&#45;&gt;Node15</title>
<path fill="none" stroke="midnightblue" d="M176.5,-76.41C197.68,-71.4 223.8,-65.21 246.26,-59.89"/>
<polygon fill="midnightblue" stroke="midnightblue" points="247.37,-63.23 256.29,-57.52 245.75,-56.42 247.37,-63.23"/>
</g>
<!-- Node16 -->
<g id="node16" class="node">
<title>Node16</title>
<g id="a_node16"><a xlink:href="group__sphere.html#gaaa3b03bbb79c4d88b3eee338eeec15b2" target="_top" xlink:title=" ">
<polygon fill="white" stroke="black" points="232.5,-0.5 232.5,-19.5 362.5,-19.5 362.5,-0.5 232.5,-0.5"/>
<text text-anchor="middle" x="297.5" y="-7.5" font-family="Helvetica,sans-Serif" font-size="10.00">model_sphere_vertices</text>
</a>
</g>
</g>
<!-- Node14&#45;&gt;Node16 -->
<g id="edge20" class="edge">
<title>Node14&#45;&gt;Node16</title>
<path fill="none" stroke="midnightblue" d="M148.92,-76.48C166.33,-64.04 198.63,-42.27 229,-29 234.36,-26.66 240.09,-24.52 245.85,-22.61"/>
<polygon fill="midnightblue" stroke="midnightblue" points="247.03,-25.9 255.53,-19.58 244.94,-19.22 247.03,-25.9"/>
</g>
<!-- Node17 -->
<g id="node17" class="node">
<title>Node17</title>
<g id="a_node17"><a xlink:href="group__sphere.html#ga8cfa785fa5a63f8e74b5d21f24721c4c" target="_top" xlink:title=" ">
<polygon fill="white" stroke="black" points="403,-29.5 403,-48.5 525,-48.5 525,-29.5 403,-29.5"/>
<text text-anchor="middle" x="464" y="-36.5" font-family="Helvetica,sans-Serif" font-size="10.00">model_sphere_vertex</text>
</a>
</g>
</g>
<!-- Node16&#45;&gt;Node17 -->
<g id="edge21" class="edge">
<title>Node16&#45;&gt;Node17</title>
<path fill="none" stroke="midnightblue" d="M352.82,-19.58C367.64,-22.19 383.82,-25.04 399.12,-27.74"/>
<polygon fill="midnightblue" stroke="midnightblue" points="398.56,-31.19 409.02,-29.48 399.78,-24.3 398.56,-31.19"/>
</g>
<!-- Node17&#45;&gt;Node6 -->
<g id="edge22" class="edge">
<title>Node17&#45;&gt;Node6</title>
<path fill="none" stroke="midnightblue" d="M473.19,-48.59C495.68,-74.92 558.65,-148.65 587.6,-182.55"/>
<polygon fill="midnightblue" stroke="midnightblue" points="585.02,-184.93 594.18,-190.26 590.35,-180.38 585.02,-184.93"/>
</g>
</g>
</svg>
