<?xml version="1.0" encoding="UTF-8" standalone="no"?>
<!DOCTYPE svg PUBLIC "-//W3C//DTD SVG 1.1//EN"
 "http://www.w3.org/Graphics/SVG/1.1/DTD/svg11.dtd">
<!-- Generated by graphviz version 3.0.0 (0)
 -->
<!-- Title: src/generator.cpp Pages: 1 -->
<svg width="896pt" height="140pt"
 viewBox="0.00 0.00 895.87 140.00" xmlns="http://www.w3.org/2000/svg" xmlns:xlink="http://www.w3.org/1999/xlink">
<g id="graph0" class="graph" transform="scale(1 1) rotate(0) translate(4 136)">
<title>src/generator.cpp</title>
<polygon fill="white" stroke="transparent" points="-4,4 -4,-136 891.87,-136 891.87,4 -4,4"/>
<!-- Node1 -->
<g id="node1" class="node">
<title>Node1</title>
<g id="a_node1"><a xlink:title=" ">
<polygon fill="#bfbfbf" stroke="black" points="432,-112.5 432,-131.5 533,-131.5 533,-112.5 432,-112.5"/>
<text text-anchor="middle" x="482.5" y="-119.5" font-family="Helvetica,sans-Serif" font-size="10.00">src/generator.cpp</text>
</a>
</g>
</g>
<!-- Node2 -->
<g id="node2" class="node">
<title>Node2</title>
<g id="a_node2"><a xlink:title=" ">
<polygon fill="white" stroke="#bfbfbf" points="0,-56.5 0,-75.5 47,-75.5 47,-56.5 0,-56.5"/>
<text text-anchor="middle" x="23.5" y="-63.5" font-family="Helvetica,sans-Serif" font-size="10.00">cmath</text>
</a>
</g>
</g>
<!-- Node1&#45;&gt;Node2 -->
<g id="edge1" class="edge">
<title>Node1&#45;&gt;Node2</title>
<path fill="none" stroke="midnightblue" d="M431.95,-118.3C353.66,-113.54 198.31,-101.81 57.31,-75.84"/>
<polygon fill="midnightblue" stroke="midnightblue" points="57.66,-72.35 47.19,-73.95 56.37,-79.23 57.66,-72.35"/>
</g>
<!-- Node3 -->
<g id="node3" class="node">
<title>Node3</title>
<g id="a_node3"><a xlink:title=" ">
<polygon fill="white" stroke="#bfbfbf" points="65.5,-56.5 65.5,-75.5 111.5,-75.5 111.5,-56.5 65.5,-56.5"/>
<text text-anchor="middle" x="88.5" y="-63.5" font-family="Helvetica,sans-Serif" font-size="10.00">cstdio</text>
</a>
</g>
</g>
<!-- Node1&#45;&gt;Node3 -->
<g id="edge2" class="edge">
<title>Node1&#45;&gt;Node3</title>
<path fill="none" stroke="midnightblue" d="M431.75,-117.12C363.36,-111.35 237.76,-98.88 121.92,-76.02"/>
<polygon fill="midnightblue" stroke="midnightblue" points="122.31,-72.53 111.82,-74 120.94,-79.39 122.31,-72.53"/>
</g>
<!-- Node4 -->
<g id="node4" class="node">
<title>Node4</title>
<g id="a_node4"><a xlink:title=" ">
<polygon fill="white" stroke="#bfbfbf" points="129.5,-56.5 129.5,-75.5 179.5,-75.5 179.5,-56.5 129.5,-56.5"/>
<text text-anchor="middle" x="154.5" y="-63.5" font-family="Helvetica,sans-Serif" font-size="10.00">cstring</text>
</a>
</g>
</g>
<!-- Node1&#45;&gt;Node4 -->
<g id="edge3" class="edge">
<title>Node1&#45;&gt;Node4</title>
<path fill="none" stroke="midnightblue" d="M431.74,-114.91C374.98,-107.72 280.14,-94.6 189.56,-76.04"/>
<polygon fill="midnightblue" stroke="midnightblue" points="190.18,-72.59 179.68,-73.99 188.76,-79.44 190.18,-72.59"/>
</g>
<!-- Node5 -->
<g id="node5" class="node">
<title>Node5</title>
<g id="a_node5"><a xlink:title=" ">
<polygon fill="white" stroke="#bfbfbf" points="198,-56.5 198,-75.5 247,-75.5 247,-56.5 198,-56.5"/>
<text text-anchor="middle" x="222.5" y="-63.5" font-family="Helvetica,sans-Serif" font-size="10.00">cstdlib</text>
</a>
</g>
</g>
<!-- Node1&#45;&gt;Node5 -->
<g id="edge4" class="edge">
<title>Node1&#45;&gt;Node5</title>
<path fill="none" stroke="midnightblue" d="M438.82,-112.45C394.19,-103.64 322.91,-89.34 261.5,-76 260.06,-75.69 258.58,-75.36 257.1,-75.03"/>
<polygon fill="midnightblue" stroke="midnightblue" points="257.76,-71.6 247.24,-72.81 256.22,-78.42 257.76,-71.6"/>
</g>
<!-- Node6 -->
<g id="node6" class="node">
<title>Node6</title>
<g id="a_node6"><a xlink:title=" ">
<polygon fill="white" stroke="#bfbfbf" points="301.5,-0.5 301.5,-19.5 379.5,-19.5 379.5,-0.5 301.5,-0.5"/>
<text text-anchor="middle" x="340.5" y="-7.5" font-family="Helvetica,sans-Serif" font-size="10.00">glm/glm.hpp</text>
</a>
</g>
</g>
<!-- Node1&#45;&gt;Node6 -->
<g id="edge5" class="edge">
<title>Node1&#45;&gt;Node6</title>
<path fill="none" stroke="midnightblue" d="M431.88,-115.89C382.15,-109.69 311.34,-97.34 294.5,-76 281.25,-59.21 300.81,-38.98 318.37,-25.59"/>
<polygon fill="midnightblue" stroke="midnightblue" points="320.6,-28.3 326.67,-19.62 316.51,-22.62 320.6,-28.3"/>
</g>
<!-- Node7 -->
<g id="node7" class="node">
<title>Node7</title>
<g id="a_node7"><a xlink:title=" ">
<polygon fill="white" stroke="#bfbfbf" points="304,-56.5 304,-75.5 435,-75.5 435,-56.5 304,-56.5"/>
<text text-anchor="middle" x="369.5" y="-63.5" font-family="Helvetica,sans-Serif" font-size="10.00">glm/gtx/string_cast.hpp</text>
</a>
</g>
</g>
<!-- Node1&#45;&gt;Node7 -->
<g id="edge6" class="edge">
<title>Node1&#45;&gt;Node7</title>
<path fill="none" stroke="midnightblue" d="M464.59,-112.44C446.25,-103.68 417.49,-89.94 396.41,-79.86"/>
<polygon fill="midnightblue" stroke="midnightblue" points="397.85,-76.67 387.32,-75.52 394.83,-82.99 397.85,-76.67"/>
</g>
<!-- Node8 -->
<g id="node8" class="node">
<title>Node8</title>
<g id="a_node8"><a xlink:title=" ">
<polygon fill="white" stroke="#bfbfbf" points="698,-0.5 698,-19.5 745,-19.5 745,-0.5 698,-0.5"/>
<text text-anchor="middle" x="721.5" y="-7.5" font-family="Helvetica,sans-Serif" font-size="10.00">vector</text>
</a>
</g>
</g>
<!-- Node1&#45;&gt;Node8 -->
<g id="edge7" class="edge">
<title>Node1&#45;&gt;Node8</title>
<path fill="none" stroke="midnightblue" d="M533.19,-118.96C635.05,-114.33 856.8,-101.42 879.5,-76 916.98,-34.03 812.16,-18.57 755.35,-13.38"/>
<polygon fill="midnightblue" stroke="midnightblue" points="755.61,-9.89 745.35,-12.52 755.01,-16.86 755.61,-9.89"/>
</g>
<!-- Node9 -->
<g id="node9" class="node">
<title>Node9</title>
<g id="a_node9"><a xlink:title=" ">
<polygon fill="white" stroke="#bfbfbf" points="529.5,-56.5 529.5,-75.5 573.5,-75.5 573.5,-56.5 529.5,-56.5"/>
<text text-anchor="middle" x="551.5" y="-63.5" font-family="Helvetica,sans-Serif" font-size="10.00">string</text>
</a>
</g>
</g>
<!-- Node1&#45;&gt;Node9 -->
<g id="edge8" class="edge">
<title>Node1&#45;&gt;Node9</title>
<path fill="none" stroke="midnightblue" d="M493.59,-112.32C503.99,-104.18 519.76,-91.84 532.22,-82.09"/>
<polygon fill="midnightblue" stroke="midnightblue" points="534.49,-84.75 540.21,-75.83 530.18,-79.24 534.49,-84.75"/>
</g>
<!-- Node10 -->
<g id="node10" class="node">
<title>Node10</title>
<g id="a_node10"><a xlink:title=" ">
<polygon fill="white" stroke="#bfbfbf" points="592,-56.5 592,-75.5 647,-75.5 647,-56.5 592,-56.5"/>
<text text-anchor="middle" x="619.5" y="-63.5" font-family="Helvetica,sans-Serif" font-size="10.00">fstream</text>
</a>
</g>
</g>
<!-- Node1&#45;&gt;Node10 -->
<g id="edge9" class="edge">
<title>Node1&#45;&gt;Node10</title>
<path fill="none" stroke="midnightblue" d="M504.21,-112.44C526.85,-103.52 562.57,-89.44 588.25,-79.32"/>
<polygon fill="midnightblue" stroke="midnightblue" points="589.87,-82.44 597.89,-75.52 587.31,-75.93 589.87,-82.44"/>
</g>
<!-- Node11 -->
<g id="node11" class="node">
<title>Node11</title>
<g id="a_node11"><a xlink:title=" ">
<polygon fill="white" stroke="#bfbfbf" points="665,-56.5 665,-75.5 706,-75.5 706,-56.5 665,-56.5"/>
<text text-anchor="middle" x="685.5" y="-63.5" font-family="Helvetica,sans-Serif" font-size="10.00">tuple</text>
</a>
</g>
</g>
<!-- Node1&#45;&gt;Node11 -->
<g id="edge10" class="edge">
<title>Node1&#45;&gt;Node11</title>
<path fill="none" stroke="midnightblue" d="M516.74,-112.49C549.73,-104.2 601.28,-91.03 655.15,-76.02"/>
<polygon fill="midnightblue" stroke="midnightblue" points="656.19,-79.36 664.87,-73.3 654.3,-72.62 656.19,-79.36"/>
</g>
<!-- Node12 -->
<g id="node12" class="node">
<title>Node12</title>
<g id="a_node12"><a xlink:title=" ">
<polygon fill="white" stroke="#bfbfbf" points="724.5,-56.5 724.5,-75.5 784.5,-75.5 784.5,-56.5 724.5,-56.5"/>
<text text-anchor="middle" x="754.5" y="-63.5" font-family="Helvetica,sans-Serif" font-size="10.00">iostream</text>
</a>
</g>
</g>
<!-- Node1&#45;&gt;Node12 -->
<g id="edge11" class="edge">
<title>Node1&#45;&gt;Node12</title>
<path fill="none" stroke="midnightblue" d="M529.46,-112.44C574.47,-104.13 644.57,-90.88 714.44,-76.17"/>
<polygon fill="midnightblue" stroke="midnightblue" points="715.23,-79.58 724.29,-74.08 713.78,-72.73 715.23,-79.58"/>
</g>
<!-- Node13 -->
<g id="node13" class="node">
<title>Node13</title>
<g id="a_node13"><a xlink:title=" ">
<polygon fill="white" stroke="#bfbfbf" points="802.5,-56.5 802.5,-75.5 870.5,-75.5 870.5,-56.5 802.5,-56.5"/>
<text text-anchor="middle" x="836.5" y="-63.5" font-family="Helvetica,sans-Serif" font-size="10.00">filesystem</text>
</a>
</g>
</g>
<!-- Node1&#45;&gt;Node13 -->
<g id="edge12" class="edge">
<title>Node1&#45;&gt;Node13</title>
<path fill="none" stroke="midnightblue" d="M533.02,-114.68C592.63,-107 694.96,-93.13 792.26,-76.13"/>
<polygon fill="midnightblue" stroke="midnightblue" points="793.03,-79.55 802.27,-74.37 791.81,-72.65 793.03,-79.55"/>
</g>
<!-- Node14 -->
<g id="node14" class="node">
<title>Node14</title>
<g id="a_node14"><a xlink:href="curves_8h.html" target="_top" xlink:title=" ">
<polygon fill="white" stroke="black" points="453.5,-56.5 453.5,-75.5 511.5,-75.5 511.5,-56.5 453.5,-56.5"/>
<text text-anchor="middle" x="482.5" y="-63.5" font-family="Helvetica,sans-Serif" font-size="10.00">curves.h</text>
</a>
</g>
</g>
<!-- Node1&#45;&gt;Node14 -->
<g id="edge13" class="edge">
<title>Node1&#45;&gt;Node14</title>
<path fill="none" stroke="midnightblue" d="M482.5,-112.08C482.5,-105.01 482.5,-94.86 482.5,-85.99"/>
<polygon fill="midnightblue" stroke="midnightblue" points="486,-85.75 482.5,-75.75 479,-85.75 486,-85.75"/>
</g>
<!-- Node14&#45;&gt;Node6 -->
<g id="edge16" class="edge">
<title>Node14&#45;&gt;Node6</title>
<path fill="none" stroke="midnightblue" d="M460,-56.44C436.42,-47.48 399.18,-33.31 372.54,-23.18"/>
<polygon fill="midnightblue" stroke="midnightblue" points="373.49,-19.8 362.9,-19.52 371,-26.34 373.49,-19.8"/>
</g>
<!-- Node14&#45;&gt;Node8 -->
<g id="edge15" class="edge">
<title>Node14&#45;&gt;Node8</title>
<path fill="none" stroke="midnightblue" d="M511.54,-58.08C514.56,-57.37 517.59,-56.67 520.5,-56 579.36,-42.44 648.05,-27.19 687.97,-18.37"/>
<polygon fill="midnightblue" stroke="midnightblue" points="688.95,-21.74 697.96,-16.17 687.44,-14.91 688.95,-21.74"/>
</g>
<!-- Node15 -->
<g id="node15" class="node">
<title>Node15</title>
<g id="a_node15"><a xlink:title=" ">
<polygon fill="white" stroke="#bfbfbf" points="461.5,-0.5 461.5,-19.5 503.5,-19.5 503.5,-0.5 461.5,-0.5"/>
<text text-anchor="middle" x="482.5" y="-7.5" font-family="Helvetica,sans-Serif" font-size="10.00">array</text>
</a>
</g>
</g>
<!-- Node14&#45;&gt;Node15 -->
<g id="edge14" class="edge">
<title>Node14&#45;&gt;Node15</title>
<path fill="none" stroke="midnightblue" d="M482.5,-56.08C482.5,-49.01 482.5,-38.86 482.5,-29.99"/>
<polygon fill="midnightblue" stroke="midnightblue" points="486,-29.75 482.5,-19.75 479,-29.75 486,-29.75"/>
</g>
</g>
</svg>
