<?xml version="1.0" encoding="UTF-8" standalone="no"?>
<!DOCTYPE svg PUBLIC "-//W3C//DTD SVG 1.1//EN"
 "http://www.w3.org/Graphics/SVG/1.1/DTD/svg11.dtd">
<!-- Generated by graphviz version 3.0.0 (0)
 -->
<!-- Title: spherical2Cartesian Pages: 1 -->
<svg width="232pt" height="104pt"
 viewBox="0.00 0.00 232.00 104.00" xmlns="http://www.w3.org/2000/svg" xmlns:xlink="http://www.w3.org/1999/xlink">
<g id="graph0" class="graph" transform="scale(1 1) rotate(0) translate(4 100)">
<title>spherical2Cartesian</title>
<polygon fill="white" stroke="transparent" points="-4,4 -4,-100 228,-100 228,4 -4,4"/>
<!-- Node1 -->
<g id="node1" class="node">
<title>Node1</title>
<g id="a_node1"><a xlink:title=" ">
<polygon fill="#bfbfbf" stroke="black" points="0,-38.5 0,-57.5 113,-57.5 113,-38.5 0,-38.5"/>
<text text-anchor="middle" x="56.5" y="-45.5" font-family="Helvetica,sans-Serif" font-size="10.00">spherical2Cartesian</text>
</a>
</g>
</g>
<!-- Node2 -->
<g id="node2" class="node">
<title>Node2</title>
<g id="a_node2"><a xlink:href="namespace_d.html#a393bfec992f13a40a9f601e3e6c82874" target="_top" xlink:title=" ">
<polygon fill="white" stroke="black" points="149,-76.5 149,-95.5 224,-95.5 224,-76.5 149,-76.5"/>
<text text-anchor="middle" x="186.5" y="-83.5" font-family="Helvetica,sans-Serif" font-size="10.00">D::cartesian</text>
</a>
</g>
</g>
<!-- Node1&#45;&gt;Node2 -->
<g id="edge1" class="edge">
<title>Node1&#45;&gt;Node2</title>
<path fill="none" stroke="midnightblue" d="M89.8,-57.59C106.02,-62.4 125.88,-68.3 143.29,-73.47"/>
<polygon fill="midnightblue" stroke="midnightblue" points="142.63,-76.92 153.21,-76.41 144.62,-70.21 142.63,-76.92"/>
</g>
<!-- Node3 -->
<g id="node3" class="node">
<title>Node3</title>
<g id="a_node3"><a xlink:href="namespace_d.html#ae27403f76d7334ff69a099e42f1f1616" target="_top" xlink:title=" ">
<polygon fill="white" stroke="black" points="157.5,-38.5 157.5,-57.5 215.5,-57.5 215.5,-38.5 157.5,-38.5"/>
<text text-anchor="middle" x="186.5" y="-45.5" font-family="Helvetica,sans-Serif" font-size="10.00">D::origin</text>
</a>
</g>
</g>
<!-- Node1&#45;&gt;Node3 -->
<g id="edge2" class="edge">
<title>Node1&#45;&gt;Node3</title>
<path fill="none" stroke="midnightblue" d="M113.27,-48C124.69,-48 136.46,-48 147.11,-48"/>
<polygon fill="midnightblue" stroke="midnightblue" points="147.32,-51.5 157.32,-48 147.32,-44.5 147.32,-51.5"/>
</g>
<!-- Node4 -->
<g id="node4" class="node">
<title>Node4</title>
<g id="a_node4"><a xlink:href="namespace_d.html#aa2fb96ccebb5bf88d4325f85beb99d84" target="_top" xlink:title="(radius,zenith,azimuth)">
<polygon fill="white" stroke="black" points="159,-0.5 159,-19.5 214,-19.5 214,-0.5 159,-0.5"/>
<text text-anchor="middle" x="186.5" y="-7.5" font-family="Helvetica,sans-Serif" font-size="10.00">D::polar</text>
</a>
</g>
</g>
<!-- Node1&#45;&gt;Node4 -->
<g id="edge3" class="edge">
<title>Node1&#45;&gt;Node4</title>
<path fill="none" stroke="midnightblue" d="M89.8,-38.41C107.88,-33.04 130.48,-26.34 149.17,-20.79"/>
<polygon fill="midnightblue" stroke="midnightblue" points="150.23,-24.12 158.82,-17.92 148.24,-17.41 150.23,-24.12"/>
</g>
</g>
</svg>
