<?xml version="1.0" encoding="UTF-8" standalone="no"?>
<!DOCTYPE svg PUBLIC "-//W3C//DTD SVG 1.1//EN"
 "http://www.w3.org/Graphics/SVG/1.1/DTD/svg11.dtd">
<!-- Generated by graphviz version 3.0.0 (0)
 -->
<!-- Title: renderScene Pages: 1 -->
<svg width="828pt" height="294pt"
 viewBox="0.00 0.00 828.00 294.00" xmlns="http://www.w3.org/2000/svg" xmlns:xlink="http://www.w3.org/1999/xlink">
<g id="graph0" class="graph" transform="scale(1 1) rotate(0) translate(4 290)">
<title>renderScene</title>
<polygon fill="white" stroke="transparent" points="-4,4 -4,-290 824,-290 824,4 -4,4"/>
<!-- Node1 -->
<g id="node1" class="node">
<title>Node1</title>
<g id="a_node1"><a xlink:title=" ">
<polygon fill="#bfbfbf" stroke="black" points="0,-133.5 0,-152.5 77,-152.5 77,-133.5 0,-133.5"/>
<text text-anchor="middle" x="38.5" y="-140.5" font-family="Helvetica,sans-Serif" font-size="10.00">renderScene</text>
</a>
</g>
</g>
<!-- Node2 -->
<g id="node2" class="node">
<title>Node2</title>
<g id="a_node2"><a xlink:href="engine_8cpp.html#a634dba686e70e7ff3f10c37d11f463da" target="_top" xlink:title=" ">
<polygon fill="white" stroke="black" points="131,-171.5 131,-190.5 200,-190.5 200,-171.5 131,-171.5"/>
<text text-anchor="middle" x="165.5" y="-178.5" font-family="Helvetica,sans-Serif" font-size="10.00">draw_axes</text>
</a>
</g>
</g>
<!-- Node1&#45;&gt;Node2 -->
<g id="edge1" class="edge">
<title>Node1&#45;&gt;Node2</title>
<path fill="none" stroke="midnightblue" d="M71.04,-152.59C86.88,-157.4 106.27,-163.3 123.28,-168.47"/>
<polygon fill="midnightblue" stroke="midnightblue" points="122.38,-171.85 132.97,-171.41 124.42,-165.16 122.38,-171.85"/>
</g>
<!-- Node3 -->
<g id="node3" class="node">
<title>Node3</title>
<g id="a_node3"><a xlink:href="group___operations.html#ga887f20c10a27832ea24178203a47fcc2" target="_top" xlink:title=" ">
<polygon fill="white" stroke="black" points="113,-133.5 113,-152.5 218,-152.5 218,-133.5 113,-133.5"/>
<text text-anchor="middle" x="165.5" y="-140.5" font-family="Helvetica,sans-Serif" font-size="10.00">operations_render</text>
</a>
</g>
</g>
<!-- Node1&#45;&gt;Node3 -->
<g id="edge2" class="edge">
<title>Node1&#45;&gt;Node3</title>
<path fill="none" stroke="midnightblue" d="M77,-143C85.07,-143 93.8,-143 102.51,-143"/>
<polygon fill="midnightblue" stroke="midnightblue" points="102.69,-146.5 112.69,-143 102.69,-139.5 102.69,-146.5"/>
</g>
<!-- Node15 -->
<g id="node15" class="node">
<title>Node15</title>
<g id="a_node15"><a xlink:href="group__engine.html#gab9813926390dc5773baf0b20dc2ea16e" target="_top" xlink:title=" ">
<polygon fill="white" stroke="black" points="134.5,-57.5 134.5,-76.5 196.5,-76.5 196.5,-57.5 134.5,-57.5"/>
<text text-anchor="middle" x="165.5" y="-64.5" font-family="Helvetica,sans-Serif" font-size="10.00">redisplay</text>
</a>
</g>
</g>
<!-- Node1&#45;&gt;Node15 -->
<g id="edge15" class="edge">
<title>Node1&#45;&gt;Node15</title>
<path fill="none" stroke="midnightblue" d="M55.33,-133.37C76.75,-120.35 115.14,-97.01 140.22,-81.76"/>
<polygon fill="midnightblue" stroke="midnightblue" points="142.07,-84.73 148.8,-76.55 138.43,-78.75 142.07,-84.73"/>
</g>
<!-- Node4 -->
<g id="node4" class="node">
<title>Node4</title>
<g id="a_node4"><a xlink:href="group__model_engine.html#gaa9af6d9e3eb9df46397e7fc463ae5525" target="_top" xlink:title=" ">
<polygon fill="white" stroke="black" points="276.5,-266.5 276.5,-285.5 347.5,-285.5 347.5,-266.5 276.5,-266.5"/>
<text text-anchor="middle" x="312" y="-273.5" font-family="Helvetica,sans-Serif" font-size="10.00">addTexture</text>
</a>
</g>
</g>
<!-- Node3&#45;&gt;Node4 -->
<g id="edge3" class="edge">
<title>Node3&#45;&gt;Node4</title>
<path fill="none" stroke="midnightblue" d="M204.22,-152.53C209.28,-155.01 214.07,-158.11 218,-162 250.07,-193.79 221.43,-225.73 254,-257 257.76,-260.61 262.22,-263.54 266.97,-265.9"/>
<polygon fill="midnightblue" stroke="midnightblue" points="265.77,-269.2 276.35,-269.81 268.46,-262.73 265.77,-269.2"/>
</g>
<!-- Node5 -->
<g id="node5" class="node">
<title>Node5</title>
<g id="a_node5"><a xlink:href="curves_8cpp.html#af213e79ca700e91ea886085a4149a848" target="_top" xlink:title=" ">
<polygon fill="white" stroke="black" points="260,-228.5 260,-247.5 364,-247.5 364,-228.5 260,-228.5"/>
<text text-anchor="middle" x="312" y="-235.5" font-family="Helvetica,sans-Serif" font-size="10.00">advance_in_curve</text>
</a>
</g>
</g>
<!-- Node3&#45;&gt;Node5 -->
<g id="edge4" class="edge">
<title>Node3&#45;&gt;Node5</title>
<path fill="none" stroke="midnightblue" d="M201.95,-152.56C207.67,-155.06 213.26,-158.16 218,-162 241.29,-180.85 230.41,-200.52 254,-219 256.31,-220.81 258.8,-222.45 261.4,-223.94"/>
<polygon fill="midnightblue" stroke="midnightblue" points="260.07,-227.18 270.59,-228.43 263.14,-220.89 260.07,-227.18"/>
</g>
<!-- Node10 -->
<g id="node10" class="node">
<title>Node10</title>
<g id="a_node10"><a xlink:href="engine_8cpp.html#a072c434cfd125e58ac1cec9a5725688a" target="_top" xlink:title=" ">
<polygon fill="white" stroke="black" points="254,-190.5 254,-209.5 370,-209.5 370,-190.5 254,-190.5"/>
<text text-anchor="middle" x="312" y="-197.5" font-family="Helvetica,sans-Serif" font-size="10.00">advance_in_rotation</text>
</a>
</g>
</g>
<!-- Node3&#45;&gt;Node10 -->
<g id="edge9" class="edge">
<title>Node3&#45;&gt;Node10</title>
<path fill="none" stroke="midnightblue" d="M194.57,-152.59C202.25,-155.42 210.51,-158.66 218,-162 234.52,-169.37 237.36,-173.89 254,-181 259.04,-183.15 264.4,-185.22 269.76,-187.15"/>
<polygon fill="midnightblue" stroke="midnightblue" points="268.7,-190.49 279.3,-190.46 270.99,-183.87 268.7,-190.49"/>
</g>
<!-- Node11 -->
<g id="node11" class="node">
<title>Node11</title>
<g id="a_node11"><a xlink:href="group__model_engine.html#ga56beba311d0a6fcbda9aeb516fe67f8f" target="_top" xlink:title=" ">
<polygon fill="white" stroke="black" points="277,-152.5 277,-171.5 347,-171.5 347,-152.5 277,-152.5"/>
<text text-anchor="middle" x="312" y="-159.5" font-family="Helvetica,sans-Serif" font-size="10.00">allocModel</text>
</a>
</g>
</g>
<!-- Node3&#45;&gt;Node11 -->
<g id="edge10" class="edge">
<title>Node3&#45;&gt;Node11</title>
<path fill="none" stroke="midnightblue" d="M218.26,-149.81C234.05,-151.88 251.27,-154.15 266.53,-156.15"/>
<polygon fill="midnightblue" stroke="midnightblue" points="266.37,-159.66 276.74,-157.5 267.29,-152.72 266.37,-159.66"/>
</g>
<!-- Node12 -->
<g id="node12" class="node">
<title>Node12</title>
<g id="a_node12"><a xlink:href="group__spherical.html#ga2a22d15f7463ccd8f8d1aa65e7578983" target="_top" xlink:title=" ">
<polygon fill="white" stroke="black" points="255.5,-114.5 255.5,-133.5 368.5,-133.5 368.5,-114.5 255.5,-114.5"/>
<text text-anchor="middle" x="312" y="-121.5" font-family="Helvetica,sans-Serif" font-size="10.00">cartesian2Spherical</text>
</a>
</g>
</g>
<!-- Node3&#45;&gt;Node12 -->
<g id="edge11" class="edge">
<title>Node3&#45;&gt;Node12</title>
<path fill="none" stroke="midnightblue" d="M218.26,-136.19C226.97,-135.05 236.11,-133.85 245.12,-132.66"/>
<polygon fill="midnightblue" stroke="midnightblue" points="245.74,-136.11 255.2,-131.34 244.83,-129.17 245.74,-136.11"/>
</g>
<!-- Node13 -->
<g id="node13" class="node">
<title>Node13</title>
<g id="a_node13"><a xlink:href="curves_8cpp.html#ad812fc50a0384335487e258a6f61714e" target="_top" xlink:title=" ">
<polygon fill="white" stroke="black" points="429,-133.5 429,-152.5 506,-152.5 506,-133.5 429,-133.5"/>
<text text-anchor="middle" x="467.5" y="-140.5" font-family="Helvetica,sans-Serif" font-size="10.00">renderCurve</text>
</a>
</g>
</g>
<!-- Node3&#45;&gt;Node13 -->
<g id="edge12" class="edge">
<title>Node3&#45;&gt;Node13</title>
<path fill="none" stroke="midnightblue" d="M182.92,-133.43C200.02,-124.06 227.89,-110.42 254,-105 304.48,-94.51 319.35,-95.39 370,-105 394.25,-109.6 420.21,-120.17 439.08,-129"/>
<polygon fill="midnightblue" stroke="midnightblue" points="437.73,-132.24 448.26,-133.42 440.77,-125.93 437.73,-132.24"/>
</g>
<!-- Node14 -->
<g id="node14" class="node">
<title>Node14</title>
<g id="a_node14"><a xlink:href="group__model_engine.html#ga9b0aa26dead35aab4fa6be0709998046" target="_top" xlink:title=" ">
<polygon fill="white" stroke="black" points="273,-38.5 273,-57.5 351,-57.5 351,-38.5 273,-38.5"/>
<text text-anchor="middle" x="312" y="-45.5" font-family="Helvetica,sans-Serif" font-size="10.00">renderModel</text>
</a>
</g>
</g>
<!-- Node3&#45;&gt;Node14 -->
<g id="edge14" class="edge">
<title>Node3&#45;&gt;Node14</title>
<path fill="none" stroke="midnightblue" d="M176.3,-133.46C191.78,-118.78 223.3,-90.41 254,-72 260.39,-68.17 267.51,-64.65 274.49,-61.55"/>
<polygon fill="midnightblue" stroke="midnightblue" points="275.99,-64.72 283.85,-57.61 273.27,-58.27 275.99,-64.72"/>
</g>
<!-- Node6 -->
<g id="node6" class="node">
<title>Node6</title>
<g id="a_node6"><a xlink:href="curves_8cpp.html#aca4aaefe66ab2cbc9d44054ab8929c0d" target="_top" xlink:title=" ">
<polygon fill="white" stroke="black" points="406,-199.5 406,-218.5 529,-218.5 529,-199.5 406,-199.5"/>
<text text-anchor="middle" x="467.5" y="-206.5" font-family="Helvetica,sans-Serif" font-size="10.00">align_global_pos_mat</text>
</a>
</g>
</g>
<!-- Node5&#45;&gt;Node6 -->
<g id="edge5" class="edge">
<title>Node5&#45;&gt;Node6</title>
<path fill="none" stroke="midnightblue" d="M363.69,-228.42C377.25,-225.86 392.04,-223.07 406.07,-220.42"/>
<polygon fill="midnightblue" stroke="midnightblue" points="406.95,-223.81 416.13,-218.52 405.65,-216.93 406.95,-223.81"/>
</g>
<!-- Node7 -->
<g id="node7" class="node">
<title>Node7</title>
<g id="a_node7"><a xlink:href="curves_8cpp.html#abe9fa1f2a311f275f92f5b46fb2f8490" target="_top" xlink:title=" ">
<polygon fill="white" stroke="black" points="565,-152.5 565,-171.5 695,-171.5 695,-152.5 565,-152.5"/>
<text text-anchor="middle" x="630" y="-159.5" font-family="Helvetica,sans-Serif" font-size="10.00">get_curve_global_point</text>
</a>
</g>
</g>
<!-- Node6&#45;&gt;Node7 -->
<g id="edge6" class="edge">
<title>Node6&#45;&gt;Node7</title>
<path fill="none" stroke="midnightblue" d="M500.98,-199.49C525.59,-192.28 559.62,-182.32 586.42,-174.47"/>
<polygon fill="midnightblue" stroke="midnightblue" points="587.68,-177.75 596.29,-171.58 585.71,-171.03 587.68,-177.75"/>
</g>
<!-- Node8 -->
<g id="node8" class="node">
<title>Node8</title>
<g id="a_node8"><a xlink:href="curves_8cpp.html#af68f8da25ecf53c589aa5d47f1f8e164" target="_top" xlink:title=" ">
<polygon fill="white" stroke="black" points="743,-171.5 743,-190.5 808,-190.5 808,-171.5 743,-171.5"/>
<text text-anchor="middle" x="775.5" y="-178.5" font-family="Helvetica,sans-Serif" font-size="10.00">get_curve</text>
</a>
</g>
</g>
<!-- Node7&#45;&gt;Node8 -->
<g id="edge7" class="edge">
<title>Node7&#45;&gt;Node8</title>
<path fill="none" stroke="midnightblue" d="M695.2,-170.5C708.01,-172.2 721.15,-173.94 732.95,-175.5"/>
<polygon fill="midnightblue" stroke="midnightblue" points="732.57,-178.98 742.94,-176.82 733.48,-172.04 732.57,-178.98"/>
</g>
<!-- Node9 -->
<g id="node9" class="node">
<title>Node9</title>
<g id="a_node9"><a xlink:href="curves_8cpp.html#afa648d7de8c941b50b26f02755a955b9" target="_top" xlink:title=" ">
<polygon fill="white" stroke="black" points="731,-133.5 731,-152.5 820,-152.5 820,-133.5 731,-133.5"/>
<text text-anchor="middle" x="775.5" y="-140.5" font-family="Helvetica,sans-Serif" font-size="10.00">get_curve_info</text>
</a>
</g>
</g>
<!-- Node7&#45;&gt;Node9 -->
<g id="edge8" class="edge">
<title>Node7&#45;&gt;Node9</title>
<path fill="none" stroke="midnightblue" d="M695.2,-153.5C703.79,-152.36 712.53,-151.21 720.92,-150.09"/>
<polygon fill="midnightblue" stroke="midnightblue" points="721.48,-153.55 730.94,-148.77 720.56,-146.61 721.48,-153.55"/>
</g>
<!-- Node13&#45;&gt;Node7 -->
<g id="edge13" class="edge">
<title>Node13&#45;&gt;Node7</title>
<path fill="none" stroke="midnightblue" d="M506.13,-147.45C520.63,-149.17 537.75,-151.2 554.53,-153.18"/>
<polygon fill="midnightblue" stroke="midnightblue" points="554.56,-156.71 564.91,-154.41 555.39,-149.76 554.56,-156.71"/>
</g>
<!-- Node16 -->
<g id="node16" class="node">
<title>Node16</title>
<g id="a_node16"><a xlink:href="group__spherical.html#gab5ff5216bffd1e15798677f24213213d" target="_top" xlink:title=" ">
<polygon fill="white" stroke="black" points="255.5,-0.5 255.5,-19.5 368.5,-19.5 368.5,-0.5 255.5,-0.5"/>
<text text-anchor="middle" x="312" y="-7.5" font-family="Helvetica,sans-Serif" font-size="10.00">spherical2Cartesian</text>
</a>
</g>
</g>
<!-- Node15&#45;&gt;Node16 -->
<g id="edge16" class="edge">
<title>Node15&#45;&gt;Node16</title>
<path fill="none" stroke="midnightblue" d="M187.15,-57.42C204.75,-49.4 230.8,-37.88 254,-29 259.49,-26.9 265.33,-24.8 271.09,-22.81"/>
<polygon fill="midnightblue" stroke="midnightblue" points="272.3,-26.09 280.65,-19.57 270.06,-19.46 272.3,-26.09"/>
</g>
</g>
</svg>
