<?xml version="1.0" encoding="UTF-8" standalone="no"?>
<!DOCTYPE svg PUBLIC "-//W3C//DTD SVG 1.1//EN"
 "http://www.w3.org/Graphics/SVG/1.1/DTD/svg11.dtd">
<!-- Generated by graphviz version 3.0.0 (0)
 -->
<!-- Title: xml_load_and_set_env Pages: 1 -->
<svg width="839pt" height="218pt"
 viewBox="0.00 0.00 839.00 218.00" xmlns="http://www.w3.org/2000/svg" xmlns:xlink="http://www.w3.org/1999/xlink">
<g id="graph0" class="graph" transform="scale(1 1) rotate(0) translate(4 214)">
<title>xml_load_and_set_env</title>
<polygon fill="white" stroke="transparent" points="-4,4 -4,-214 835,-214 835,4 -4,4"/>
<!-- Node1 -->
<g id="node1" class="node">
<title>Node1</title>
<g id="a_node1"><a xlink:title=" ">
<polygon fill="#bfbfbf" stroke="black" points="0,-114.5 0,-133.5 128,-133.5 128,-114.5 0,-114.5"/>
<text text-anchor="middle" x="64" y="-121.5" font-family="Helvetica,sans-Serif" font-size="10.00">xml_load_and_set_env</text>
</a>
</g>
</g>
<!-- Node2 -->
<g id="node2" class="node">
<title>Node2</title>
<g id="a_node2"><a xlink:href="group__engine.html#ga8679d9b303f36964bf51dba0993caeaa" target="_top" xlink:title=" ">
<polygon fill="white" stroke="black" points="170.5,-152.5 170.5,-171.5 276.5,-171.5 276.5,-152.5 170.5,-152.5"/>
<text text-anchor="middle" x="223.5" y="-159.5" font-family="Helvetica,sans-Serif" font-size="10.00">env_load_defaults</text>
</a>
</g>
</g>
<!-- Node1&#45;&gt;Node2 -->
<g id="edge1" class="edge">
<title>Node1&#45;&gt;Node2</title>
<path fill="none" stroke="midnightblue" d="M104.74,-133.59C125.53,-138.6 151.16,-144.79 173.2,-150.11"/>
<polygon fill="midnightblue" stroke="midnightblue" points="172.5,-153.54 183.04,-152.48 174.14,-146.73 172.5,-153.54"/>
</g>
<!-- Node3 -->
<g id="node3" class="node">
<title>Node3</title>
<g id="a_node3"><a xlink:href="group__xml.html#gac937a83a82258806ef77b02f97ef0834" target="_top" xlink:title=" ">
<polygon fill="white" stroke="black" points="164,-114.5 164,-133.5 283,-133.5 283,-114.5 164,-114.5"/>
<text text-anchor="middle" x="223.5" y="-121.5" font-family="Helvetica,sans-Serif" font-size="10.00">operations_load_xml</text>
</a>
</g>
</g>
<!-- Node1&#45;&gt;Node3 -->
<g id="edge2" class="edge">
<title>Node1&#45;&gt;Node3</title>
<path fill="none" stroke="midnightblue" d="M128.15,-124C136.55,-124 145.19,-124 153.68,-124"/>
<polygon fill="midnightblue" stroke="midnightblue" points="153.93,-127.5 163.93,-124 153.93,-120.5 153.93,-127.5"/>
</g>
<!-- Node9 -->
<g id="node9" class="node">
<title>Node9</title>
<g id="a_node9"><a xlink:href="group___operations.html#ga887f20c10a27832ea24178203a47fcc2" target="_top" xlink:title=" ">
<polygon fill="white" stroke="black" points="171,-57.5 171,-76.5 276,-76.5 276,-57.5 171,-57.5"/>
<text text-anchor="middle" x="223.5" y="-64.5" font-family="Helvetica,sans-Serif" font-size="10.00">operations_render</text>
</a>
</g>
</g>
<!-- Node1&#45;&gt;Node9 -->
<g id="edge10" class="edge">
<title>Node1&#45;&gt;Node9</title>
<path fill="none" stroke="midnightblue" d="M91.36,-114.46C117.37,-105.05 157.33,-90.59 186.3,-80.1"/>
<polygon fill="midnightblue" stroke="midnightblue" points="187.84,-83.27 196.05,-76.57 185.46,-76.68 187.84,-83.27"/>
</g>
<!-- Node4 -->
<g id="node4" class="node">
<title>Node4</title>
<g id="a_node4"><a xlink:href="group___groups.html#ga72c2d5ef943a89f829c08f6707e7669d" target="_top" xlink:title=" ">
<polygon fill="white" stroke="black" points="319,-152.5 319,-171.5 454,-171.5 454,-152.5 319,-152.5"/>
<text text-anchor="middle" x="386.5" y="-159.5" font-family="Helvetica,sans-Serif" font-size="10.00">operations_push_groups</text>
</a>
</g>
</g>
<!-- Node3&#45;&gt;Node4 -->
<g id="edge3" class="edge">
<title>Node3&#45;&gt;Node4</title>
<path fill="none" stroke="midnightblue" d="M265.13,-133.59C286.47,-138.63 312.81,-144.84 335.41,-150.18"/>
<polygon fill="midnightblue" stroke="midnightblue" points="334.63,-153.59 345.17,-152.48 336.24,-146.78 334.63,-153.59"/>
</g>
<!-- Node8 -->
<g id="node8" class="node">
<title>Node8</title>
<g id="a_node8"><a xlink:href="group___transforms.html#gaa15fe56d7980e7877845f3bc09125017" target="_top" xlink:title=" ">
<polygon fill="white" stroke="black" points="681,-125 681,-155 831,-155 831,-125 681,-125"/>
<text text-anchor="start" x="689" y="-143" font-family="Helvetica,sans-Serif" font-size="10.00">operations_push_transform</text>
<text text-anchor="middle" x="756" y="-132" font-family="Helvetica,sans-Serif" font-size="10.00">_attributes</text>
</a>
</g>
</g>
<!-- Node3&#45;&gt;Node8 -->
<g id="edge9" class="edge">
<title>Node3&#45;&gt;Node8</title>
<path fill="none" stroke="midnightblue" d="M283.04,-125.77C377.02,-128.6 561.95,-134.18 670.32,-137.45"/>
<polygon fill="midnightblue" stroke="midnightblue" points="670.46,-140.95 680.56,-137.75 670.67,-133.95 670.46,-140.95"/>
</g>
<!-- Node4&#45;&gt;Node4 -->
<g id="edge4" class="edge">
<title>Node4&#45;&gt;Node4</title>
<path fill="none" stroke="midnightblue" d="M361.53,-171.76C349.38,-180.57 357.71,-190 386.5,-190 405.85,-190 415.95,-185.74 416.81,-180.27"/>
<polygon fill="midnightblue" stroke="midnightblue" points="419.75,-178.37 411.47,-171.76 413.82,-182.09 419.75,-178.37"/>
</g>
<!-- Node5 -->
<g id="node5" class="node">
<title>Node5</title>
<g id="a_node5"><a xlink:href="group___models.html#gaca17d77a06e750f5cd95c1b79e1a8a30" target="_top" xlink:title=" ">
<polygon fill="white" stroke="black" points="498.5,-190.5 498.5,-209.5 636.5,-209.5 636.5,-190.5 498.5,-190.5"/>
<text text-anchor="middle" x="567.5" y="-197.5" font-family="Helvetica,sans-Serif" font-size="10.00">operations_push_models</text>
</a>
</g>
</g>
<!-- Node4&#45;&gt;Node5 -->
<g id="edge5" class="edge">
<title>Node4&#45;&gt;Node5</title>
<path fill="none" stroke="midnightblue" d="M432.67,-171.59C456.72,-176.69 486.47,-183.01 511.82,-188.39"/>
<polygon fill="midnightblue" stroke="midnightblue" points="511.15,-191.83 521.66,-190.48 512.6,-184.98 511.15,-191.83"/>
</g>
<!-- Node7 -->
<g id="node7" class="node">
<title>Node7</title>
<g id="a_node7"><a xlink:href="group___transforms.html#gaaa78b92f0257bb4755731622692de0cb" target="_top" xlink:title=" ">
<polygon fill="white" stroke="black" points="490,-152.5 490,-171.5 645,-171.5 645,-152.5 490,-152.5"/>
<text text-anchor="middle" x="567.5" y="-159.5" font-family="Helvetica,sans-Serif" font-size="10.00">operations_push_transforms</text>
</a>
</g>
</g>
<!-- Node4&#45;&gt;Node7 -->
<g id="edge7" class="edge">
<title>Node4&#45;&gt;Node7</title>
<path fill="none" stroke="midnightblue" d="M454.15,-162C462.51,-162 471.16,-162 479.77,-162"/>
<polygon fill="midnightblue" stroke="midnightblue" points="479.84,-165.5 489.84,-162 479.84,-158.5 479.84,-165.5"/>
</g>
<!-- Node6 -->
<g id="node6" class="node">
<title>Node6</title>
<g id="a_node6"><a xlink:href="group___models.html#ga5dc84f3f40c0bb6ad63dc2da3793ddd9" target="_top" xlink:title=" ">
<polygon fill="white" stroke="black" points="689.5,-190.5 689.5,-209.5 822.5,-209.5 822.5,-190.5 689.5,-190.5"/>
<text text-anchor="middle" x="756" y="-197.5" font-family="Helvetica,sans-Serif" font-size="10.00">operations_push_model</text>
</a>
</g>
</g>
<!-- Node5&#45;&gt;Node6 -->
<g id="edge6" class="edge">
<title>Node5&#45;&gt;Node6</title>
<path fill="none" stroke="midnightblue" d="M636.62,-200C650.44,-200 665.05,-200 679.11,-200"/>
<polygon fill="midnightblue" stroke="midnightblue" points="679.24,-203.5 689.24,-200 679.24,-196.5 679.24,-203.5"/>
</g>
<!-- Node7&#45;&gt;Node8 -->
<g id="edge8" class="edge">
<title>Node7&#45;&gt;Node8</title>
<path fill="none" stroke="midnightblue" d="M645.16,-152.96C653.61,-151.96 662.25,-150.94 670.78,-149.93"/>
<polygon fill="midnightblue" stroke="midnightblue" points="671.22,-153.41 680.74,-148.76 670.4,-146.46 671.22,-153.41"/>
</g>
<!-- Node10 -->
<g id="node10" class="node">
<title>Node10</title>
<g id="a_node10"><a xlink:href="group__model_engine.html#ga56beba311d0a6fcbda9aeb516fe67f8f" target="_top" xlink:title=" ">
<polygon fill="white" stroke="black" points="351.5,-76.5 351.5,-95.5 421.5,-95.5 421.5,-76.5 351.5,-76.5"/>
<text text-anchor="middle" x="386.5" y="-83.5" font-family="Helvetica,sans-Serif" font-size="10.00">allocModel</text>
</a>
</g>
</g>
<!-- Node9&#45;&gt;Node10 -->
<g id="edge11" class="edge">
<title>Node9&#45;&gt;Node10</title>
<path fill="none" stroke="midnightblue" d="M276.33,-73.12C297.15,-75.57 320.92,-78.38 340.95,-80.74"/>
<polygon fill="midnightblue" stroke="midnightblue" points="340.7,-84.24 351.04,-81.93 341.52,-77.29 340.7,-84.24"/>
</g>
<!-- Node11 -->
<g id="node11" class="node">
<title>Node11</title>
<g id="a_node11"><a xlink:href="group__spherical.html#ga2a22d15f7463ccd8f8d1aa65e7578983" target="_top" xlink:title=" ">
<polygon fill="white" stroke="black" points="330,-38.5 330,-57.5 443,-57.5 443,-38.5 330,-38.5"/>
<text text-anchor="middle" x="386.5" y="-45.5" font-family="Helvetica,sans-Serif" font-size="10.00">cartesian2Spherical</text>
</a>
</g>
</g>
<!-- Node9&#45;&gt;Node11 -->
<g id="edge12" class="edge">
<title>Node9&#45;&gt;Node11</title>
<path fill="none" stroke="midnightblue" d="M276.33,-60.88C290.09,-59.26 305.13,-57.48 319.53,-55.79"/>
<polygon fill="midnightblue" stroke="midnightblue" points="320.36,-59.21 329.88,-54.56 319.54,-52.26 320.36,-59.21"/>
</g>
<!-- Node12 -->
<g id="node12" class="node">
<title>Node12</title>
<g id="a_node12"><a xlink:href="group__model_engine.html#ga9b0aa26dead35aab4fa6be0709998046" target="_top" xlink:title=" ">
<polygon fill="white" stroke="black" points="347.5,-0.5 347.5,-19.5 425.5,-19.5 425.5,-0.5 347.5,-0.5"/>
<text text-anchor="middle" x="386.5" y="-7.5" font-family="Helvetica,sans-Serif" font-size="10.00">renderModel</text>
</a>
</g>
</g>
<!-- Node9&#45;&gt;Node12 -->
<g id="edge13" class="edge">
<title>Node9&#45;&gt;Node12</title>
<path fill="none" stroke="midnightblue" d="M246.4,-57.44C265.4,-49.32 293.74,-37.66 319,-29 325.56,-26.75 332.55,-24.55 339.44,-22.49"/>
<polygon fill="midnightblue" stroke="midnightblue" points="340.78,-25.74 349.39,-19.58 338.81,-19.02 340.78,-25.74"/>
</g>
</g>
</svg>
