<?xml version="1.0" encoding="UTF-8" standalone="no"?>
<!DOCTYPE svg PUBLIC "-//W3C//DTD SVG 1.1//EN"
 "http://www.w3.org/Graphics/SVG/1.1/DTD/svg11.dtd">
<!-- Generated by graphviz version 3.0.0 (0)
 -->
<!-- Title: ExplorerCamera Pages: 1 -->
<svg width="295pt" height="138pt"
 viewBox="0.00 0.00 295.00 138.00" xmlns="http://www.w3.org/2000/svg" xmlns:xlink="http://www.w3.org/1999/xlink">
<g id="graph0" class="graph" transform="scale(1 1) rotate(0) translate(4 134)">
<title>ExplorerCamera</title>
<polygon fill="white" stroke="transparent" points="-4,4 -4,-134 291,-134 291,4 -4,4"/>
<!-- Node2 -->
<g id="node1" class="node">
<title>Node2</title>
<g id="a_node1"><a xlink:href="group__camera.html" target="_top" xlink:title=" ">
<polygon fill="white" stroke="black" points="55,-74 0,-74 0,-55 55,-55 55,-74"/>
<text text-anchor="middle" x="27.5" y="-62" font-family="Helvetica,sans-Serif" font-size="10.00">Camera</text>
</a>
</g>
</g>
<!-- Node1 -->
<g id="node2" class="node">
<title>Node1</title>
<g id="a_node2"><a xlink:title=" ">
<polygon fill="#bfbfbf" stroke="black" points="186,-74 91,-74 91,-55 186,-55 186,-74"/>
<text text-anchor="middle" x="138.5" y="-62" font-family="Helvetica,sans-Serif" font-size="10.00">ExplorerCamera</text>
</a>
</g>
</g>
<!-- Node2&#45;&gt;Node1 -->
<g id="edge1" class="edge">
<title>Node2&#45;&gt;Node1</title>
<path fill="none" stroke="black" d="M65.43,-64.5C73.56,-64.5 82.26,-64.5 90.71,-64.5"/>
<polygon fill="black" stroke="black" points="65.16,-61 55.16,-64.5 65.16,-68 65.16,-61"/>
</g>
<!-- Node4 -->
<g id="node3" class="node">
<title>Node4</title>
<g id="a_node3"><a xlink:href="group__look_at.html" target="_top" xlink:title=" ">
<polygon fill="white" stroke="black" points="279.5,-130 229.5,-130 229.5,-111 279.5,-111 279.5,-130"/>
<text text-anchor="middle" x="254.5" y="-118" font-family="Helvetica,sans-Serif" font-size="10.00">LookAt</text>
</a>
</g>
</g>
<!-- Node1&#45;&gt;Node4 -->
<g id="edge3" class="edge">
<title>Node1&#45;&gt;Node4</title>
<path fill="none" stroke="black" d="M168.33,-78.66C188.94,-88.79 216.11,-102.13 234.16,-111"/>
<polygon fill="black" stroke="black" points="169.62,-75.39 159.1,-74.13 166.53,-81.68 169.62,-75.39"/>
</g>
<!-- Node3 -->
<g id="node4" class="node">
<title>Node3</title>
<g id="a_node4"><a xlink:href="group__position.html" target="_top" xlink:title=" ">
<polygon fill="white" stroke="black" points="282.5,-93 226.5,-93 226.5,-74 282.5,-74 282.5,-93"/>
<text text-anchor="middle" x="254.5" y="-81" font-family="Helvetica,sans-Serif" font-size="10.00">Position</text>
</a>
</g>
</g>
<!-- Node1&#45;&gt;Node3 -->
<g id="edge2" class="edge">
<title>Node1&#45;&gt;Node3</title>
<path fill="none" stroke="black" d="M196.21,-73.95C206.71,-75.7 217.22,-77.45 226.32,-78.97"/>
<polygon fill="black" stroke="black" points="196.64,-70.47 186.2,-72.28 195.49,-77.38 196.64,-70.47"/>
</g>
<!-- Node6 -->
<g id="node5" class="node">
<title>Node6</title>
<g id="a_node5"><a xlink:href="group__projection.html" target="_top" xlink:title=" ">
<polygon fill="white" stroke="black" points="287,-56 222,-56 222,-37 287,-37 287,-56"/>
<text text-anchor="middle" x="254.5" y="-44" font-family="Helvetica,sans-Serif" font-size="10.00">Projection</text>
</a>
</g>
</g>
<!-- Node1&#45;&gt;Node6 -->
<g id="edge5" class="edge">
<title>Node1&#45;&gt;Node6</title>
<path fill="none" stroke="black" d="M196.08,-55.57C204.87,-54.18 213.68,-52.79 221.67,-51.53"/>
<polygon fill="black" stroke="black" points="195.53,-52.11 186.2,-57.13 196.62,-59.02 195.53,-52.11"/>
</g>
<!-- Node5 -->
<g id="node6" class="node">
<title>Node5</title>
<g id="a_node6"><a xlink:href="group__up.html" target="_top" xlink:title=" ">
<polygon fill="white" stroke="black" points="269.5,-19 239.5,-19 239.5,0 269.5,0 269.5,-19"/>
<text text-anchor="middle" x="254.5" y="-7" font-family="Helvetica,sans-Serif" font-size="10.00">Up</text>
</a>
</g>
</g>
<!-- Node1&#45;&gt;Node5 -->
<g id="edge4" class="edge">
<title>Node1&#45;&gt;Node5</title>
<path fill="none" stroke="black" d="M168.52,-50.5C191.16,-39.57 221.64,-24.87 239.27,-16.36"/>
<polygon fill="black" stroke="black" points="166.84,-47.42 159.36,-54.92 169.88,-53.73 166.84,-47.42"/>
</g>
</g>
</svg>
