<?xml version="1.0" encoding="UTF-8" standalone="no"?>
<!DOCTYPE svg PUBLIC "-//W3C//DTD SVG 1.1//EN"
 "http://www.w3.org/Graphics/SVG/1.1/DTD/svg11.dtd">
<!-- Generated by graphviz version 3.0.0 (0)
 -->
<!-- Title: operations_render Pages: 1 -->
<svg width="736pt" height="268pt"
 viewBox="0.00 0.00 736.00 268.00" xmlns="http://www.w3.org/2000/svg" xmlns:xlink="http://www.w3.org/1999/xlink">
<g id="graph0" class="graph" transform="scale(1 1) rotate(0) translate(4 264)">
<title>operations_render</title>
<polygon fill="white" stroke="transparent" points="-4,4 -4,-264 732,-264 732,4 -4,4"/>
<!-- Node1 -->
<g id="node1" class="node">
<title>Node1</title>
<g id="a_node1"><a xlink:title=" ">
<polygon fill="#bfbfbf" stroke="black" points="0,-120.5 0,-139.5 105,-139.5 105,-120.5 0,-120.5"/>
<text text-anchor="middle" x="52.5" y="-127.5" font-family="Helvetica,sans-Serif" font-size="10.00">operations_render</text>
</a>
</g>
</g>
<!-- Node2 -->
<g id="node2" class="node">
<title>Node2</title>
<g id="a_node2"><a xlink:href="curves_8cpp.html#a821c8cbf0a47b918c60a4912b733e6bd" target="_top" xlink:title=" ">
<polygon fill="white" stroke="black" points="147,-240.5 147,-259.5 251,-259.5 251,-240.5 147,-240.5"/>
<text text-anchor="middle" x="199" y="-247.5" font-family="Helvetica,sans-Serif" font-size="10.00">advance_in_curve</text>
</a>
</g>
</g>
<!-- Node1&#45;&gt;Node2 -->
<g id="edge1" class="edge">
<title>Node1&#45;&gt;Node2</title>
<path fill="none" stroke="midnightblue" d="M59.25,-139.57C71.67,-159.48 103.01,-205.6 141,-231 143.95,-232.97 147.12,-234.76 150.41,-236.37"/>
<polygon fill="midnightblue" stroke="midnightblue" points="149.3,-239.7 159.87,-240.46 152.08,-233.28 149.3,-239.7"/>
</g>
<!-- Node7 -->
<g id="node7" class="node">
<title>Node7</title>
<g id="a_node7"><a xlink:href="engine_8cpp.html#a072c434cfd125e58ac1cec9a5725688a" target="_top" xlink:title=" ">
<polygon fill="white" stroke="black" points="141,-202.5 141,-221.5 257,-221.5 257,-202.5 141,-202.5"/>
<text text-anchor="middle" x="199" y="-209.5" font-family="Helvetica,sans-Serif" font-size="10.00">advance_in_rotation</text>
</a>
</g>
</g>
<!-- Node1&#45;&gt;Node7 -->
<g id="edge6" class="edge">
<title>Node1&#45;&gt;Node7</title>
<path fill="none" stroke="midnightblue" d="M64.39,-139.53C80.28,-153.02 111.17,-177.74 141,-193 145.25,-195.17 149.79,-197.17 154.4,-199"/>
<polygon fill="midnightblue" stroke="midnightblue" points="153.26,-202.31 163.86,-202.49 155.69,-195.74 153.26,-202.31"/>
</g>
<!-- Node8 -->
<g id="node8" class="node">
<title>Node8</title>
<g id="a_node8"><a xlink:href="group__model_engine.html#ga361bcac2814bb93f543d2c0f1b28b6d2" target="_top" xlink:title=" ">
<polygon fill="white" stroke="black" points="164,-164.5 164,-183.5 234,-183.5 234,-164.5 164,-164.5"/>
<text text-anchor="middle" x="199" y="-171.5" font-family="Helvetica,sans-Serif" font-size="10.00">allocModel</text>
</a>
</g>
</g>
<!-- Node1&#45;&gt;Node8 -->
<g id="edge7" class="edge">
<title>Node1&#45;&gt;Node8</title>
<path fill="none" stroke="midnightblue" d="M84.85,-139.55C105.97,-145.98 134.03,-154.52 156.92,-161.49"/>
<polygon fill="midnightblue" stroke="midnightblue" points="156.12,-164.91 166.71,-164.47 158.16,-158.21 156.12,-164.91"/>
</g>
<!-- Node9 -->
<g id="node9" class="node">
<title>Node9</title>
<g id="a_node9"><a xlink:href="group__model_engine.html#ga8c7329ae859a08eea53a77130ebe6018" target="_top" xlink:title=" ">
<polygon fill="white" stroke="black" points="141.5,-115 141.5,-145 256.5,-145 256.5,-115 141.5,-115"/>
<text text-anchor="start" x="149.5" y="-133" font-family="Helvetica,sans-Serif" font-size="10.00">associate_a_texture</text>
<text text-anchor="middle" x="199" y="-122" font-family="Helvetica,sans-Serif" font-size="10.00">_to_model</text>
</a>
</g>
</g>
<!-- Node1&#45;&gt;Node9 -->
<g id="edge8" class="edge">
<title>Node1&#45;&gt;Node9</title>
<path fill="none" stroke="midnightblue" d="M105.26,-130C113.64,-130 122.42,-130 131.1,-130"/>
<polygon fill="midnightblue" stroke="midnightblue" points="131.21,-133.5 141.21,-130 131.21,-126.5 131.21,-133.5"/>
</g>
<!-- Node10 -->
<g id="node10" class="node">
<title>Node10</title>
<g id="a_node10"><a xlink:href="group__spherical.html#gabd434f65cba3ee8011b8d3cdd1f25dca" target="_top" xlink:title=" ">
<polygon fill="white" stroke="black" points="142.5,-76.5 142.5,-95.5 255.5,-95.5 255.5,-76.5 142.5,-76.5"/>
<text text-anchor="middle" x="199" y="-83.5" font-family="Helvetica,sans-Serif" font-size="10.00">cartesian2Spherical</text>
</a>
</g>
</g>
<!-- Node1&#45;&gt;Node10 -->
<g id="edge9" class="edge">
<title>Node1&#45;&gt;Node10</title>
<path fill="none" stroke="midnightblue" d="M84.85,-120.45C105.97,-114.02 134.03,-105.48 156.92,-98.51"/>
<polygon fill="midnightblue" stroke="midnightblue" points="158.16,-101.79 166.71,-95.53 156.12,-95.09 158.16,-101.79"/>
</g>
<!-- Node11 -->
<g id="node11" class="node">
<title>Node11</title>
<g id="a_node11"><a xlink:href="curves_8cpp.html#ad812fc50a0384335487e258a6f61714e" target="_top" xlink:title=" ">
<polygon fill="white" stroke="black" points="316,-120.5 316,-139.5 393,-139.5 393,-120.5 316,-120.5"/>
<text text-anchor="middle" x="354.5" y="-127.5" font-family="Helvetica,sans-Serif" font-size="10.00">renderCurve</text>
</a>
</g>
</g>
<!-- Node1&#45;&gt;Node11 -->
<g id="edge10" class="edge">
<title>Node1&#45;&gt;Node11</title>
<path fill="none" stroke="midnightblue" d="M62.59,-120.36C77.36,-105.49 108.22,-77.57 141,-67 190.07,-51.17 207.59,-52.3 257,-67 287.32,-76.02 317,-97.93 335.27,-113.37"/>
<polygon fill="midnightblue" stroke="midnightblue" points="333.43,-116.41 343.27,-120.34 338.03,-111.14 333.43,-116.41"/>
</g>
<!-- Node12 -->
<g id="node12" class="node">
<title>Node12</title>
<g id="a_node12"><a xlink:href="group__model_engine.html#ga2907e4adf4f2bef2c8ce416cb8470997" target="_top" xlink:title=" ">
<polygon fill="white" stroke="black" points="160,-0.5 160,-19.5 238,-19.5 238,-0.5 160,-0.5"/>
<text text-anchor="middle" x="199" y="-7.5" font-family="Helvetica,sans-Serif" font-size="10.00">renderModel</text>
</a>
</g>
</g>
<!-- Node1&#45;&gt;Node12 -->
<g id="edge12" class="edge">
<title>Node1&#45;&gt;Node12</title>
<path fill="none" stroke="midnightblue" d="M60.12,-120.28C73.44,-101.36 105.27,-59.24 141,-34 146.6,-30.05 152.95,-26.57 159.33,-23.58"/>
<polygon fill="midnightblue" stroke="midnightblue" points="160.83,-26.75 168.61,-19.55 158.04,-20.32 160.83,-26.75"/>
</g>
<!-- Node3 -->
<g id="node3" class="node">
<title>Node3</title>
<g id="a_node3"><a xlink:href="curves_8cpp.html#a98b26a4263f61db7149441a99a6d35b6" target="_top" xlink:title=" ">
<polygon fill="white" stroke="black" points="293,-199.5 293,-218.5 416,-218.5 416,-199.5 293,-199.5"/>
<text text-anchor="middle" x="354.5" y="-206.5" font-family="Helvetica,sans-Serif" font-size="10.00">align_global_pos_mat</text>
</a>
</g>
</g>
<!-- Node2&#45;&gt;Node3 -->
<g id="edge2" class="edge">
<title>Node2&#45;&gt;Node3</title>
<path fill="none" stroke="midnightblue" d="M235.6,-240.49C257.13,-234.74 284.78,-227.35 307.9,-221.18"/>
<polygon fill="midnightblue" stroke="midnightblue" points="309.07,-224.49 317.83,-218.53 307.26,-217.73 309.07,-224.49"/>
</g>
<!-- Node4 -->
<g id="node4" class="node">
<title>Node4</title>
<g id="a_node4"><a xlink:href="curves_8cpp.html#abe9fa1f2a311f275f92f5b46fb2f8490" target="_top" xlink:title=" ">
<polygon fill="white" stroke="black" points="452,-139.5 452,-158.5 582,-158.5 582,-139.5 452,-139.5"/>
<text text-anchor="middle" x="517" y="-146.5" font-family="Helvetica,sans-Serif" font-size="10.00">get_curve_global_point</text>
</a>
</g>
</g>
<!-- Node3&#45;&gt;Node4 -->
<g id="edge3" class="edge">
<title>Node3&#45;&gt;Node4</title>
<path fill="none" stroke="midnightblue" d="M380.93,-199.49C407.85,-189.43 450.54,-173.47 480.71,-162.19"/>
<polygon fill="midnightblue" stroke="midnightblue" points="482.28,-165.34 490.42,-158.56 479.83,-158.79 482.28,-165.34"/>
</g>
<!-- Node5 -->
<g id="node5" class="node">
<title>Node5</title>
<g id="a_node5"><a xlink:href="curves_8cpp.html#afa648d7de8c941b50b26f02755a955b9" target="_top" xlink:title=" ">
<polygon fill="white" stroke="black" points="628.5,-158.5 628.5,-177.5 717.5,-177.5 717.5,-158.5 628.5,-158.5"/>
<text text-anchor="middle" x="673" y="-165.5" font-family="Helvetica,sans-Serif" font-size="10.00">get_curve_info</text>
</a>
</g>
</g>
<!-- Node4&#45;&gt;Node5 -->
<g id="edge4" class="edge">
<title>Node4&#45;&gt;Node5</title>
<path fill="none" stroke="midnightblue" d="M582.42,-156.95C594.4,-158.43 606.8,-159.96 618.42,-161.39"/>
<polygon fill="midnightblue" stroke="midnightblue" points="618.04,-164.87 628.4,-162.62 618.9,-157.92 618.04,-164.87"/>
</g>
<!-- Node6 -->
<g id="node6" class="node">
<title>Node6</title>
<g id="a_node6"><a xlink:href="curves_8cpp.html#a6d6def6a76701b08284cba58066e3382" target="_top" xlink:title=" ">
<polygon fill="white" stroke="black" points="618,-120.5 618,-139.5 728,-139.5 728,-120.5 618,-120.5"/>
<text text-anchor="middle" x="673" y="-127.5" font-family="Helvetica,sans-Serif" font-size="10.00">get_curve_point_at</text>
</a>
</g>
</g>
<!-- Node4&#45;&gt;Node6 -->
<g id="edge5" class="edge">
<title>Node4&#45;&gt;Node6</title>
<path fill="none" stroke="midnightblue" d="M582.42,-141.05C590.74,-140.03 599.26,-138.97 607.58,-137.95"/>
<polygon fill="midnightblue" stroke="midnightblue" points="608.11,-141.41 617.6,-136.71 607.25,-134.46 608.11,-141.41"/>
</g>
<!-- Node11&#45;&gt;Node4 -->
<g id="edge11" class="edge">
<title>Node11&#45;&gt;Node4</title>
<path fill="none" stroke="midnightblue" d="M393.13,-134.45C407.63,-136.17 424.75,-138.2 441.53,-140.18"/>
<polygon fill="midnightblue" stroke="midnightblue" points="441.56,-143.71 451.91,-141.41 442.39,-136.76 441.56,-143.71"/>
</g>
</g>
</svg>
