<?xml version="1.0" encoding="UTF-8" standalone="no"?>
<!DOCTYPE svg PUBLIC "-//W3C//DTD SVG 1.1//EN"
 "http://www.w3.org/Graphics/SVG/1.1/DTD/svg11.dtd">
<!-- Generated by graphviz version 3.0.0 (0)
 -->
<!-- Title: renderScene Pages: 1 -->
<!--zoomable 496 -->
<svg id="main" version="1.1" xmlns="http://www.w3.org/2000/svg" xmlns:xlink="http://www.w3.org/1999/xlink" xml:space="preserve" onload="init(evt)">
<style type="text/css"><![CDATA[
.edge:hover path { stroke: red; }
.edge:hover polygon { stroke: red; fill: red; }
]]></style>
<script type="text/javascript"><![CDATA[
var edges = document.getElementsByTagName('g');
if (edges && edges.length) {
  for (var i=0;i<edges.length;i++) {
    if (edges[i].id.substr(0,4)=='edge') {
      edges[i].setAttribute('class','edge');
    }
  }
}
]]></script>
        <defs>
                <circle id="rim" cx="0" cy="0" r="7"/>
                <circle id="rim2" cx="0" cy="0" r="3.5"/>
                <g id="zoomPlus">
                        <use xlink:href="#rim" fill="#404040">
                                <set attributeName="fill" to="#808080" begin="zoomplus.mouseover" end="zoomplus.mouseout"/>
                        </use>
                        <path d="M-4,0h8M0,-4v8" fill="none" stroke="white" stroke-width="1.5" pointer-events="none"/>
                </g>
                <g id="zoomMin">
                        <use xlink:href="#rim" fill="#404040">
                                <set attributeName="fill" to="#808080" begin="zoomminus.mouseover" end="zoomminus.mouseout"/>
                        </use>
                        <path d="M-4,0h8" fill="none" stroke="white" stroke-width="1.5" pointer-events="none"/>
                </g>
                <g id="dirArrow">
                        <path fill="none" stroke="white" stroke-width="1.5" d="M0,-3.0v7 M-2.5,-0.5L0,-3.0L2.5,-0.5"/>
                </g>
               <g id="resetDef">
                       <use xlink:href="#rim2" fill="#404040">
                               <set attributeName="fill" to="#808080" begin="reset.mouseover" end="reset.mouseout"/>
                       </use>
               </g>
        </defs>

<script type="text/javascript">
var viewWidth = 849;
var viewHeight = 496;
var sectionId = 'dynsection-4';
</script>
<script xlink:href="svgpan.js"/>
<svg id="graph" class="graph">
<g id="viewport">
<title>renderScene</title>
<polygon fill="white" stroke="transparent" points="-4,4 -4,-492 845,-492 845,4 -4,4"/>
<!-- Node1 -->
<g id="node1" class="node">
<title>Node1</title>
<g id="a_node1"><a xlink:title=" ">
<polygon fill="#bfbfbf" stroke="black" points="0,-266.5 0,-285.5 77,-285.5 77,-266.5 0,-266.5"/>
<text text-anchor="middle" x="38.5" y="-273.5" font-family="Helvetica,sans-Serif" font-size="10.00">renderScene</text>
</a>
</g>
</g>
<!-- Node2 -->
<g id="node2" class="node">
<title>Node2</title>
<g id="a_node2"><a xlink:href="engine_8cpp.html#a634dba686e70e7ff3f10c37d11f463da" target="_top" xlink:title=" ">
<polygon fill="white" stroke="black" points="131,-304.5 131,-323.5 200,-323.5 200,-304.5 131,-304.5"/>
<text text-anchor="middle" x="165.5" y="-311.5" font-family="Helvetica,sans-Serif" font-size="10.00">draw_axes</text>
</a>
</g>
</g>
<!-- Node1&#45;&gt;Node2 -->
<g id="edge1" class="edge">
<title>Node1&#45;&gt;Node2</title>
<path fill="none" stroke="midnightblue" d="M71.04,-285.59C86.88,-290.4 106.27,-296.3 123.28,-301.47"/>
<polygon fill="midnightblue" stroke="midnightblue" points="122.38,-304.85 132.97,-304.41 124.42,-298.16 122.38,-304.85"/>
</g>
<!-- Node3 -->
<g id="node3" class="node">
<title>Node3</title>
<g id="a_node3"><a xlink:href="group__camera.html#ga4eec7d736381fd000f84ccb4f2d844da" target="_top" xlink:title=" ">
<polygon fill="white" stroke="black" points="131,-266.5 131,-285.5 200,-285.5 200,-266.5 131,-266.5"/>
<text text-anchor="middle" x="165.5" y="-273.5" font-family="Helvetica,sans-Serif" font-size="10.00">loadProfile</text>
</a>
</g>
</g>
<!-- Node1&#45;&gt;Node3 -->
<g id="edge2" class="edge">
<title>Node1&#45;&gt;Node3</title>
<path fill="none" stroke="midnightblue" d="M77,-276C90.78,-276 106.49,-276 120.76,-276"/>
<polygon fill="midnightblue" stroke="midnightblue" points="120.85,-279.5 130.85,-276 120.85,-272.5 120.85,-279.5"/>
</g>
<!-- Node4 -->
<g id="node4" class="node">
<title>Node4</title>
<g id="a_node4"><a xlink:href="group___operations.html#ga8d5a19a3522cea1b4254684cf6515d13" target="_top" xlink:title=" ">
<polygon fill="white" stroke="black" points="113,-228.5 113,-247.5 218,-247.5 218,-228.5 113,-228.5"/>
<text text-anchor="middle" x="165.5" y="-235.5" font-family="Helvetica,sans-Serif" font-size="10.00">operations_render</text>
</a>
</g>
</g>
<!-- Node1&#45;&gt;Node4 -->
<g id="edge3" class="edge">
<title>Node1&#45;&gt;Node4</title>
<path fill="none" stroke="midnightblue" d="M71.04,-266.41C86.88,-261.6 106.27,-255.7 123.28,-250.53"/>
<polygon fill="midnightblue" stroke="midnightblue" points="124.42,-253.84 132.97,-247.59 122.38,-247.15 124.42,-253.84"/>
</g>
<!-- Node5 -->
<g id="node5" class="node">
<title>Node5</title>
<g id="a_node5"><a xlink:href="curves_8cpp.html#a821c8cbf0a47b918c60a4912b733e6bd" target="_top" xlink:title=" ">
<polygon fill="white" stroke="black" points="260,-468.5 260,-487.5 364,-487.5 364,-468.5 260,-468.5"/>
<text text-anchor="middle" x="312" y="-475.5" font-family="Helvetica,sans-Serif" font-size="10.00">advance_in_curve</text>
</a>
</g>
</g>
<!-- Node4&#45;&gt;Node5 -->
<g id="edge4" class="edge">
<title>Node4&#45;&gt;Node5</title>
<path fill="none" stroke="midnightblue" d="M206.18,-247.59C210.65,-250.04 214.76,-253.13 218,-257 276.53,-326.93 194.37,-390 254,-459 255.15,-460.33 256.39,-461.57 257.72,-462.72"/>
<polygon fill="midnightblue" stroke="midnightblue" points="255.79,-465.64 266.02,-468.41 259.75,-459.87 255.79,-465.64"/>
</g>
<!-- Node10 -->
<g id="node10" class="node">
<title>Node10</title>
<g id="a_node10"><a xlink:href="engine_8cpp.html#a072c434cfd125e58ac1cec9a5725688a" target="_top" xlink:title=" ">
<polygon fill="white" stroke="black" points="254,-430.5 254,-449.5 370,-449.5 370,-430.5 254,-430.5"/>
<text text-anchor="middle" x="312" y="-437.5" font-family="Helvetica,sans-Serif" font-size="10.00">advance_in_rotation</text>
</a>
</g>
</g>
<!-- Node4&#45;&gt;Node10 -->
<g id="edge9" class="edge">
<title>Node4&#45;&gt;Node10</title>
<path fill="none" stroke="midnightblue" d="M205.78,-247.57C210.37,-250.03 214.62,-253.12 218,-257 267.02,-313.26 204.09,-365.52 254,-421 255.2,-422.33 256.49,-423.57 257.87,-424.73"/>
<polygon fill="midnightblue" stroke="midnightblue" points="256.18,-427.81 266.45,-430.42 260.05,-421.98 256.18,-427.81"/>
</g>
<!-- Node11 -->
<g id="node11" class="node">
<title>Node11</title>
<g id="a_node11"><a xlink:href="group__model_engine.html#ga361bcac2814bb93f543d2c0f1b28b6d2" target="_top" xlink:title=" ">
<polygon fill="white" stroke="black" points="277,-392.5 277,-411.5 347,-411.5 347,-392.5 277,-392.5"/>
<text text-anchor="middle" x="312" y="-399.5" font-family="Helvetica,sans-Serif" font-size="10.00">allocModel</text>
</a>
</g>
</g>
<!-- Node4&#45;&gt;Node11 -->
<g id="edge10" class="edge">
<title>Node4&#45;&gt;Node11</title>
<path fill="none" stroke="midnightblue" d="M205.04,-247.51C209.86,-249.98 214.37,-253.09 218,-257 257.61,-299.7 213.72,-340.93 254,-383 257.83,-387 262.53,-390.16 267.57,-392.66"/>
<polygon fill="midnightblue" stroke="midnightblue" points="266.31,-395.92 276.89,-396.47 268.95,-389.44 266.31,-395.92"/>
</g>
<!-- Node12 -->
<g id="node12" class="node">
<title>Node12</title>
<g id="a_node12"><a xlink:href="group__model_engine.html#ga8c7329ae859a08eea53a77130ebe6018" target="_top" xlink:title=" ">
<polygon fill="white" stroke="black" points="254.5,-343 254.5,-373 369.5,-373 369.5,-343 254.5,-343"/>
<text text-anchor="start" x="262.5" y="-361" font-family="Helvetica,sans-Serif" font-size="10.00">associate_a_texture</text>
<text text-anchor="middle" x="312" y="-350" font-family="Helvetica,sans-Serif" font-size="10.00">_to_model</text>
</a>
</g>
</g>
<!-- Node4&#45;&gt;Node12 -->
<g id="edge11" class="edge">
<title>Node4&#45;&gt;Node12</title>
<path fill="none" stroke="midnightblue" d="M203.42,-247.57C208.71,-250.05 213.78,-253.14 218,-257 245.58,-282.23 227.19,-306.96 254,-333 255.61,-334.56 257.33,-336.03 259.13,-337.42"/>
<polygon fill="midnightblue" stroke="midnightblue" points="257.22,-340.35 267.49,-342.97 261.09,-334.52 257.22,-340.35"/>
</g>
<!-- Node13 -->
<g id="node13" class="node">
<title>Node13</title>
<g id="a_node13"><a xlink:href="namespace_d.html#a393bfec992f13a40a9f601e3e6c82874" target="_top" xlink:title=" ">
<polygon fill="white" stroke="black" points="274.5,-304.5 274.5,-323.5 349.5,-323.5 349.5,-304.5 274.5,-304.5"/>
<text text-anchor="middle" x="312" y="-311.5" font-family="Helvetica,sans-Serif" font-size="10.00">D::cartesian</text>
</a>
</g>
</g>
<!-- Node4&#45;&gt;Node13 -->
<g id="edge12" class="edge">
<title>Node4&#45;&gt;Node13</title>
<path fill="none" stroke="midnightblue" d="M199.46,-247.59C205.87,-250.16 212.35,-253.28 218,-257 237.42,-269.81 234.38,-282.5 254,-295 257.37,-297.15 261,-299.07 264.75,-300.8"/>
<polygon fill="midnightblue" stroke="midnightblue" points="263.63,-304.13 274.21,-304.7 266.29,-297.65 263.63,-304.13"/>
</g>
<!-- Node14 -->
<g id="node14" class="node">
<title>Node14</title>
<g id="a_node14"><a xlink:href="group__explorer_camera.html#ga2bd01f833407b47f26121736925e24fc" target="_top" xlink:title=" ">
<polygon fill="white" stroke="black" points="255.5,-266.5 255.5,-285.5 368.5,-285.5 368.5,-266.5 255.5,-266.5"/>
<text text-anchor="middle" x="312" y="-273.5" font-family="Helvetica,sans-Serif" font-size="10.00">cartesian2Spherical</text>
</a>
</g>
</g>
<!-- Node4&#45;&gt;Node14 -->
<g id="edge13" class="edge">
<title>Node4&#45;&gt;Node14</title>
<path fill="none" stroke="midnightblue" d="M202.96,-247.59C221.77,-252.54 244.91,-258.62 264.95,-263.89"/>
<polygon fill="midnightblue" stroke="midnightblue" points="264.24,-267.32 274.8,-266.48 266.02,-260.55 264.24,-267.32"/>
</g>
<!-- Node15 -->
<g id="node15" class="node">
<title>Node15</title>
<g id="a_node15"><a xlink:href="namespace_d.html#ae27403f76d7334ff69a099e42f1f1616" target="_top" xlink:title=" ">
<polygon fill="white" stroke="black" points="283,-228.5 283,-247.5 341,-247.5 341,-228.5 283,-228.5"/>
<text text-anchor="middle" x="312" y="-235.5" font-family="Helvetica,sans-Serif" font-size="10.00">D::origin</text>
</a>
</g>
</g>
<!-- Node4&#45;&gt;Node15 -->
<g id="edge14" class="edge">
<title>Node4&#45;&gt;Node15</title>
<path fill="none" stroke="midnightblue" d="M218.26,-238C236.06,-238 255.68,-238 272.26,-238"/>
<polygon fill="midnightblue" stroke="midnightblue" points="272.68,-241.5 282.67,-238 272.67,-234.5 272.68,-241.5"/>
</g>
<!-- Node16 -->
<g id="node16" class="node">
<title>Node16</title>
<g id="a_node16"><a xlink:href="namespace_d.html#aa2fb96ccebb5bf88d4325f85beb99d84" target="_top" xlink:title="(radius,zenith,azimuth)">
<polygon fill="white" stroke="black" points="284.5,-190.5 284.5,-209.5 339.5,-209.5 339.5,-190.5 284.5,-190.5"/>
<text text-anchor="middle" x="312" y="-197.5" font-family="Helvetica,sans-Serif" font-size="10.00">D::polar</text>
</a>
</g>
</g>
<!-- Node4&#45;&gt;Node16 -->
<g id="edge15" class="edge">
<title>Node4&#45;&gt;Node16</title>
<path fill="none" stroke="midnightblue" d="M202.96,-228.41C224.76,-222.68 252.37,-215.42 274.22,-209.67"/>
<polygon fill="midnightblue" stroke="midnightblue" points="275.35,-213 284.13,-207.07 273.57,-206.23 275.35,-213"/>
</g>
<!-- Node17 -->
<g id="node17" class="node">
<title>Node17</title>
<g id="a_node17"><a xlink:href="namespace_d.html#a49b3788c9a2aae032c6c74d76441aa18" target="_top" xlink:title="(fov,near,var)">
<polygon fill="white" stroke="black" points="272.5,-152.5 272.5,-171.5 351.5,-171.5 351.5,-152.5 272.5,-152.5"/>
<text text-anchor="middle" x="312" y="-159.5" font-family="Helvetica,sans-Serif" font-size="10.00">D::projection</text>
</a>
</g>
</g>
<!-- Node4&#45;&gt;Node17 -->
<g id="edge16" class="edge">
<title>Node4&#45;&gt;Node17</title>
<path fill="none" stroke="midnightblue" d="M178.94,-228.42C195.38,-216.11 225.59,-194.71 254,-181 258.41,-178.87 263.11,-176.89 267.86,-175.06"/>
<polygon fill="midnightblue" stroke="midnightblue" points="269.36,-178.24 277.58,-171.55 266.98,-171.66 269.36,-178.24"/>
</g>
<!-- Node18 -->
<g id="node18" class="node">
<title>Node18</title>
<g id="a_node18"><a xlink:href="curves_8cpp.html#ad812fc50a0384335487e258a6f61714e" target="_top" xlink:title=" ">
<polygon fill="white" stroke="black" points="429,-272.5 429,-291.5 506,-291.5 506,-272.5 429,-272.5"/>
<text text-anchor="middle" x="467.5" y="-279.5" font-family="Helvetica,sans-Serif" font-size="10.00">renderCurve</text>
</a>
</g>
</g>
<!-- Node4&#45;&gt;Node18 -->
<g id="edge17" class="edge">
<title>Node4&#45;&gt;Node18</title>
<path fill="none" stroke="midnightblue" d="M171.68,-228.33C183.23,-207.91 213.34,-160.83 254,-143 301.22,-122.3 324.32,-119.1 370,-143 418.65,-168.45 447.69,-230.81 459.83,-262.64"/>
<polygon fill="midnightblue" stroke="midnightblue" points="456.59,-263.96 463.3,-272.16 463.17,-261.57 456.59,-263.96"/>
</g>
<!-- Node19 -->
<g id="node19" class="node">
<title>Node19</title>
<g id="a_node19"><a xlink:href="group__model_engine.html#ga2907e4adf4f2bef2c8ce416cb8470997" target="_top" xlink:title=" ">
<polygon fill="white" stroke="black" points="273,-76.5 273,-95.5 351,-95.5 351,-76.5 273,-76.5"/>
<text text-anchor="middle" x="312" y="-83.5" font-family="Helvetica,sans-Serif" font-size="10.00">renderModel</text>
</a>
</g>
</g>
<!-- Node4&#45;&gt;Node19 -->
<g id="edge19" class="edge">
<title>Node4&#45;&gt;Node19</title>
<path fill="none" stroke="midnightblue" d="M170.76,-228.26C181.46,-204.8 211.68,-144.57 254,-110 258.74,-106.13 264.2,-102.79 269.82,-99.94"/>
<polygon fill="midnightblue" stroke="midnightblue" points="271.68,-102.94 279.33,-95.6 268.78,-96.57 271.68,-102.94"/>
</g>
<!-- Node20 -->
<g id="node20" class="node">
<title>Node20</title>
<g id="a_node20"><a xlink:href="namespace_d.html#a1ccd692563b2bed3dbd7275b0bd3dbb3" target="_top" xlink:title=" ">
<polygon fill="white" stroke="black" points="284,-38.5 284,-57.5 340,-57.5 340,-38.5 284,-38.5"/>
<text text-anchor="middle" x="312" y="-45.5" font-family="Helvetica,sans-Serif" font-size="10.00">D::scale</text>
</a>
</g>
</g>
<!-- Node4&#45;&gt;Node20 -->
<g id="edge20" class="edge">
<title>Node4&#45;&gt;Node20</title>
<path fill="none" stroke="midnightblue" d="M168.71,-228.26C175.79,-199.29 200.63,-112.86 254,-67 259.77,-62.05 266.87,-58.37 274.08,-55.65"/>
<polygon fill="midnightblue" stroke="midnightblue" points="275.42,-58.9 283.86,-52.5 273.27,-52.24 275.42,-58.9"/>
</g>
<!-- Node21 -->
<g id="node21" class="node">
<title>Node21</title>
<g id="a_node21"><a xlink:href="namespace_d.html#a075a76915f7e2899933f446de8be40d9" target="_top" xlink:title=" ">
<polygon fill="white" stroke="black" points="291,-0.5 291,-19.5 333,-19.5 333,-0.5 291,-0.5"/>
<text text-anchor="middle" x="312" y="-7.5" font-family="Helvetica,sans-Serif" font-size="10.00">D::up</text>
</a>
</g>
</g>
<!-- Node4&#45;&gt;Node21 -->
<g id="edge21" class="edge">
<title>Node4&#45;&gt;Node21</title>
<path fill="none" stroke="midnightblue" d="M167.74,-228.06C172.43,-194.84 192.01,-86.53 254,-29 261.49,-22.05 271.6,-17.64 281.22,-14.84"/>
<polygon fill="midnightblue" stroke="midnightblue" points="282.05,-18.23 290.94,-12.46 280.39,-11.43 282.05,-18.23"/>
</g>
<!-- Node6 -->
<g id="node6" class="node">
<title>Node6</title>
<g id="a_node6"><a xlink:href="curves_8cpp.html#a98b26a4263f61db7149441a99a6d35b6" target="_top" xlink:title=" ">
<polygon fill="white" stroke="black" points="406,-389.5 406,-408.5 529,-408.5 529,-389.5 406,-389.5"/>
<text text-anchor="middle" x="467.5" y="-396.5" font-family="Helvetica,sans-Serif" font-size="10.00">align_global_pos_mat</text>
</a>
</g>
</g>
<!-- Node5&#45;&gt;Node6 -->
<g id="edge5" class="edge">
<title>Node5&#45;&gt;Node6</title>
<path fill="none" stroke="midnightblue" d="M346.07,-468.44C354.05,-465.73 362.45,-462.55 370,-459 397.13,-446.26 426.05,-427.51 445.08,-414.37"/>
<polygon fill="midnightblue" stroke="midnightblue" points="447.14,-417.19 453.33,-408.59 443.13,-411.46 447.14,-417.19"/>
</g>
<!-- Node7 -->
<g id="node7" class="node">
<title>Node7</title>
<g id="a_node7"><a xlink:href="curves_8cpp.html#af7cd8d9b34a073c2fd2d7d8187bcff42" target="_top" xlink:title=" ">
<polygon fill="white" stroke="black" points="565,-291.5 565,-310.5 695,-310.5 695,-291.5 565,-291.5"/>
<text text-anchor="middle" x="630" y="-298.5" font-family="Helvetica,sans-Serif" font-size="10.00">get_curve_global_point</text>
</a>
</g>
</g>
<!-- Node6&#45;&gt;Node7 -->
<g id="edge6" class="edge">
<title>Node6&#45;&gt;Node7</title>
<path fill="none" stroke="midnightblue" d="M484.18,-389.42C512.16,-372.34 570.86,-336.5 604.3,-316.08"/>
<polygon fill="midnightblue" stroke="midnightblue" points="606.31,-318.96 613.02,-310.76 602.66,-312.98 606.31,-318.96"/>
</g>
<!-- Node8 -->
<g id="node8" class="node">
<title>Node8</title>
<g id="a_node8"><a xlink:href="curves_8cpp.html#afa648d7de8c941b50b26f02755a955b9" target="_top" xlink:title=" ">
<polygon fill="white" stroke="black" points="741.5,-310.5 741.5,-329.5 830.5,-329.5 830.5,-310.5 741.5,-310.5"/>
<text text-anchor="middle" x="786" y="-317.5" font-family="Helvetica,sans-Serif" font-size="10.00">get_curve_info</text>
</a>
</g>
</g>
<!-- Node7&#45;&gt;Node8 -->
<g id="edge7" class="edge">
<title>Node7&#45;&gt;Node8</title>
<path fill="none" stroke="midnightblue" d="M695.42,-308.95C707.4,-310.43 719.8,-311.96 731.42,-313.39"/>
<polygon fill="midnightblue" stroke="midnightblue" points="731.04,-316.87 741.4,-314.62 731.9,-309.92 731.04,-316.87"/>
</g>
<!-- Node9 -->
<g id="node9" class="node">
<title>Node9</title>
<g id="a_node9"><a xlink:href="curves_8cpp.html#a6d6def6a76701b08284cba58066e3382" target="_top" xlink:title=" ">
<polygon fill="white" stroke="black" points="731,-272.5 731,-291.5 841,-291.5 841,-272.5 731,-272.5"/>
<text text-anchor="middle" x="786" y="-279.5" font-family="Helvetica,sans-Serif" font-size="10.00">get_curve_point_at</text>
</a>
</g>
</g>
<!-- Node7&#45;&gt;Node9 -->
<g id="edge8" class="edge">
<title>Node7&#45;&gt;Node9</title>
<path fill="none" stroke="midnightblue" d="M695.42,-293.05C703.74,-292.03 712.26,-290.97 720.58,-289.95"/>
<polygon fill="midnightblue" stroke="midnightblue" points="721.11,-293.41 730.6,-288.71 720.25,-286.46 721.11,-293.41"/>
</g>
<!-- Node18&#45;&gt;Node7 -->
<g id="edge18" class="edge">
<title>Node18&#45;&gt;Node7</title>
<path fill="none" stroke="midnightblue" d="M506.13,-286.45C520.63,-288.17 537.75,-290.2 554.53,-292.18"/>
<polygon fill="midnightblue" stroke="midnightblue" points="554.56,-295.71 564.91,-293.41 555.39,-288.76 554.56,-295.71"/>
</g>
</g>
</svg>
        <g id="navigator" transform="translate(0 0)" fill="#404254">
                <rect fill="#f2f5e9" fill-opacity="0.5" stroke="#606060" stroke-width=".5" x="0" y="0" width="60" height="60"/>
                <use id="zoomplus" xlink:href="#zoomPlus" x="17" y="9" onmousedown="handleZoom(evt,'in')"/>
                <use id="zoomminus" xlink:href="#zoomMin" x="42" y="9" onmousedown="handleZoom(evt,'out')"/>
                <use id="reset" xlink:href="#resetDef" x="30" y="36" onmousedown="handleReset()"/>
                <g id="arrowUp" xlink:href="#dirArrow" transform="translate(30 24)" onmousedown="handlePan(0,-1)">
                  <use xlink:href="#rim" fill="#404040">
                        <set attributeName="fill" to="#808080" begin="arrowUp.mouseover" end="arrowUp.mouseout"/>
                  </use>
                  <path fill="none" stroke="white" stroke-width="1.5" d="M0,-3.0v7 M-2.5,-0.5L0,-3.0L2.5,-0.5"/>
                </g>
                <g id="arrowRight" xlink:href="#dirArrow" transform="rotate(90) translate(36 -43)" onmousedown="handlePan(1,0)">
                  <use xlink:href="#rim" fill="#404040">
                        <set attributeName="fill" to="#808080" begin="arrowRight.mouseover" end="arrowRight.mouseout"/>
                  </use>
                  <path fill="none" stroke="white" stroke-width="1.5" d="M0,-3.0v7 M-2.5,-0.5L0,-3.0L2.5,-0.5"/>
                </g>
                <g id="arrowDown" xlink:href="#dirArrow" transform="rotate(180) translate(-30 -48)" onmousedown="handlePan(0,1)">
                  <use xlink:href="#rim" fill="#404040">
                        <set attributeName="fill" to="#808080" begin="arrowDown.mouseover" end="arrowDown.mouseout"/>
                  </use>
                  <path fill="none" stroke="white" stroke-width="1.5" d="M0,-3.0v7 M-2.5,-0.5L0,-3.0L2.5,-0.5"/>
                </g>
                <g id="arrowLeft" xlink:href="#dirArrow" transform="rotate(270) translate(-36 17)" onmousedown="handlePan(-1,0)">
                  <use xlink:href="#rim" fill="#404040">
                        <set attributeName="fill" to="#808080" begin="arrowLeft.mouseover" end="arrowLeft.mouseout"/>
                  </use>
                  <path fill="none" stroke="white" stroke-width="1.5" d="M0,-3.0v7 M-2.5,-0.5L0,-3.0L2.5,-0.5"/>
                </g>
        </g>
        <svg viewBox="0 0 15 15" width="100%" height="30px" preserveAspectRatio="xMaxYMin meet">
         <g id="arrow_out" transform="scale(0.3 0.3)">
          <a xlink:href="group__engine_ga91c42686f3245f22fb6b17ba5372d92c_cgraph_org.svg" target="_base">
           <rect id="button" ry="5" rx="5" y="6" x="6" height="38" width="38"
                fill="#f2f5e9" fill-opacity="0.5" stroke="#606060" stroke-width="1.0"/>
           <path id="arrow"
             d="M 11.500037,31.436501 C 11.940474,20.09759 22.043105,11.32322 32.158766,21.979434 L 37.068811,17.246167 C 37.068811,17.246167 37.088388,32 37.088388,32 L 22.160133,31.978069 C 22.160133,31.978069 26.997745,27.140456 26.997745,27.140456 C 18.528582,18.264221 13.291696,25.230495 11.500037,31.436501 z"
             style="fill:#404040;"/>
          </a>
         </g>
        </svg>
</svg>
