<?xml version="1.0" encoding="UTF-8" standalone="no"?>
<!DOCTYPE svg PUBLIC "-//W3C//DTD SVG 1.1//EN"
 "http://www.w3.org/Graphics/SVG/1.1/DTD/svg11.dtd">
<!-- Generated by graphviz version 3.0.0 (0)
 -->
<!-- Title: Models Pages: 1 -->
<svg width="247pt" height="175pt"
 viewBox="0.00 0.00 247.00 175.00" xmlns="http://www.w3.org/2000/svg" xmlns:xlink="http://www.w3.org/1999/xlink">
<g id="graph0" class="graph" transform="scale(1 1) rotate(0) translate(4 171)">
<title>Models</title>
<polygon fill="white" stroke="transparent" points="-4,4 -4,-171 243,-171 243,4 -4,4"/>
<!-- Node7 -->
<g id="node1" class="node">
<title>Node7</title>
<g id="a_node1"><a xlink:href="group___bezier.html" target="_top" xlink:title=" ">
<polygon fill="white" stroke="black" points="237.5,-167 190.5,-167 190.5,-148 237.5,-148 237.5,-167"/>
<text text-anchor="middle" x="214" y="-155" font-family="Helvetica,sans-Serif" font-size="10.00">Bezier</text>
</a>
</g>
</g>
<!-- Node5 -->
<g id="node2" class="node">
<title>Node5</title>
<g id="a_node2"><a xlink:href="group___cone.html" target="_top" xlink:title=" ">
<polygon fill="white" stroke="black" points="234.5,-130 193.5,-130 193.5,-111 234.5,-111 234.5,-130"/>
<text text-anchor="middle" x="214" y="-118" font-family="Helvetica,sans-Serif" font-size="10.00">Cone</text>
</a>
</g>
</g>
<!-- Node4 -->
<g id="node3" class="node">
<title>Node4</title>
<g id="a_node3"><a xlink:href="group___cube.html" target="_top" xlink:title=" ">
<polygon fill="white" stroke="black" points="234.5,-93 193.5,-93 193.5,-74 234.5,-74 234.5,-93"/>
<text text-anchor="middle" x="214" y="-81" font-family="Helvetica,sans-Serif" font-size="10.00">Cube</text>
</a>
</g>
</g>
<!-- Node1 -->
<g id="node4" class="node">
<title>Node1</title>
<g id="a_node4"><a xlink:title=" ">
<polygon fill="#bfbfbf" stroke="black" points="153,-93 101,-93 101,-74 153,-74 153,-93"/>
<text text-anchor="middle" x="127" y="-81" font-family="Helvetica,sans-Serif" font-size="10.00">Models</text>
</a>
</g>
</g>
<!-- Node1&#45;&gt;Node7 -->
<g id="edge6" class="edge">
<title>Node1&#45;&gt;Node7</title>
<path fill="none" stroke="black" d="M145.6,-100.52C157.56,-111.87 173.9,-126.96 189,-139.5 192.37,-142.3 196.11,-145.19 199.61,-147.83"/>
<polygon fill="black" stroke="black" points="147.73,-97.71 138.08,-93.33 142.89,-102.77 147.73,-97.71"/>
</g>
<!-- Node1&#45;&gt;Node5 -->
<g id="edge4" class="edge">
<title>Node1&#45;&gt;Node5</title>
<path fill="none" stroke="black" d="M159.11,-97.04C170.5,-102 183.08,-107.48 193.22,-111.89"/>
<polygon fill="black" stroke="black" points="160.46,-93.81 149.89,-93.03 157.66,-100.23 160.46,-93.81"/>
</g>
<!-- Node1&#45;&gt;Node4 -->
<g id="edge3" class="edge">
<title>Node1&#45;&gt;Node4</title>
<path fill="none" stroke="black" d="M163.05,-83.5C173.36,-83.5 184.27,-83.5 193.25,-83.5"/>
<polygon fill="black" stroke="black" points="163.04,-80 153.04,-83.5 163.04,-87 163.04,-80"/>
</g>
<!-- Node3 -->
<g id="node5" class="node">
<title>Node3</title>
<g id="a_node5"><a xlink:href="group___plane.html" target="_top" xlink:title=" ">
<polygon fill="white" stroke="black" points="236,-56 192,-56 192,-37 236,-37 236,-56"/>
<text text-anchor="middle" x="214" y="-44" font-family="Helvetica,sans-Serif" font-size="10.00">Plane</text>
</a>
</g>
</g>
<!-- Node1&#45;&gt;Node3 -->
<g id="edge2" class="edge">
<title>Node1&#45;&gt;Node3</title>
<path fill="none" stroke="black" d="M159.08,-69.97C169.95,-65.24 181.89,-60.04 191.77,-55.74"/>
<polygon fill="black" stroke="black" points="157.66,-66.77 149.89,-73.97 160.46,-73.19 157.66,-66.77"/>
</g>
<!-- Node6 -->
<g id="node6" class="node">
<title>Node6</title>
<g id="a_node6"><a xlink:href="group___sphere.html" target="_top" xlink:title=" ">
<polygon fill="white" stroke="black" points="239,-19 189,-19 189,0 239,0 239,-19"/>
<text text-anchor="middle" x="214" y="-7" font-family="Helvetica,sans-Serif" font-size="10.00">Sphere</text>
</a>
</g>
</g>
<!-- Node1&#45;&gt;Node6 -->
<g id="edge5" class="edge">
<title>Node1&#45;&gt;Node6</title>
<path fill="none" stroke="black" d="M145.6,-66.48C157.56,-55.13 173.9,-40.04 189,-27.5 192.37,-24.7 196.11,-21.81 199.61,-19.17"/>
<polygon fill="black" stroke="black" points="142.89,-64.23 138.08,-73.67 147.73,-69.29 142.89,-64.23"/>
</g>
<!-- Node2 -->
<g id="node7" class="node">
<title>Node2</title>
<g id="a_node7"><a xlink:href="group__generator.html" target="_top" xlink:title=" ">
<polygon fill="white" stroke="black" points="65,-93 0,-93 0,-74 65,-74 65,-93"/>
<text text-anchor="middle" x="32.5" y="-81" font-family="Helvetica,sans-Serif" font-size="10.00">Generator</text>
</a>
</g>
</g>
<!-- Node2&#45;&gt;Node1 -->
<g id="edge1" class="edge">
<title>Node2&#45;&gt;Node1</title>
<path fill="none" stroke="black" d="M75.22,-83.5C84.02,-83.5 93.04,-83.5 100.98,-83.5"/>
<polygon fill="black" stroke="black" points="75.07,-80 65.07,-83.5 75.07,-87 75.07,-80"/>
</g>
</g>
</svg>
