<?xml version="1.0" encoding="UTF-8" standalone="no"?>
<!DOCTYPE svg PUBLIC "-//W3C//DTD SVG 1.1//EN"
 "http://www.w3.org/Graphics/SVG/1.1/DTD/svg11.dtd">
<!-- Generated by graphviz version 3.0.0 (0)
 -->
<!-- Title: xml_load_and_set_env Pages: 1 -->
<!--zoomable 673 -->
<svg id="main" version="1.1" xmlns="http://www.w3.org/2000/svg" xmlns:xlink="http://www.w3.org/1999/xlink" xml:space="preserve" onload="init(evt)">
<style type="text/css"><![CDATA[
.edge:hover path { stroke: red; }
.edge:hover polygon { stroke: red; fill: red; }
]]></style>
<script type="text/javascript"><![CDATA[
var edges = document.getElementsByTagName('g');
if (edges && edges.length) {
  for (var i=0;i<edges.length;i++) {
    if (edges[i].id.substr(0,4)=='edge') {
      edges[i].setAttribute('class','edge');
    }
  }
}
]]></script>
        <defs>
                <circle id="rim" cx="0" cy="0" r="7"/>
                <circle id="rim2" cx="0" cy="0" r="3.5"/>
                <g id="zoomPlus">
                        <use xlink:href="#rim" fill="#404040">
                                <set attributeName="fill" to="#808080" begin="zoomplus.mouseover" end="zoomplus.mouseout"/>
                        </use>
                        <path d="M-4,0h8M0,-4v8" fill="none" stroke="white" stroke-width="1.5" pointer-events="none"/>
                </g>
                <g id="zoomMin">
                        <use xlink:href="#rim" fill="#404040">
                                <set attributeName="fill" to="#808080" begin="zoomminus.mouseover" end="zoomminus.mouseout"/>
                        </use>
                        <path d="M-4,0h8" fill="none" stroke="white" stroke-width="1.5" pointer-events="none"/>
                </g>
                <g id="dirArrow">
                        <path fill="none" stroke="white" stroke-width="1.5" d="M0,-3.0v7 M-2.5,-0.5L0,-3.0L2.5,-0.5"/>
                </g>
               <g id="resetDef">
                       <use xlink:href="#rim2" fill="#404040">
                               <set attributeName="fill" to="#808080" begin="reset.mouseover" end="reset.mouseout"/>
                       </use>
               </g>
        </defs>

<script type="text/javascript">
var viewWidth = 949;
var viewHeight = 673;
var sectionId = 'dynsection-6';
</script>
<script xlink:href="svgpan.js"/>
<svg id="graph" class="graph">
<g id="viewport">
<title>xml_load_and_set_env</title>
<polygon fill="white" stroke="transparent" points="-4,4 -4,-669 945,-669 945,4 -4,4"/>
<!-- Node1 -->
<g id="node1" class="node">
<title>Node1</title>
<g id="a_node1"><a xlink:title=" ">
<polygon fill="#bfbfbf" stroke="black" points="0,-341.5 0,-360.5 128,-360.5 128,-341.5 0,-341.5"/>
<text text-anchor="middle" x="64" y="-348.5" font-family="Helvetica,sans-Serif" font-size="10.00">xml_load_and_set_env</text>
</a>
</g>
</g>
<!-- Node2 -->
<g id="node2" class="node">
<title>Node2</title>
<g id="a_node2"><a xlink:href="group__explorer_camera.html#ga8679d9b303f36964bf51dba0993caeaa" target="_top" xlink:title=" ">
<polygon fill="white" stroke="black" points="170.5,-493.5 170.5,-512.5 276.5,-512.5 276.5,-493.5 170.5,-493.5"/>
<text text-anchor="middle" x="223.5" y="-500.5" font-family="Helvetica,sans-Serif" font-size="10.00">env_load_defaults</text>
</a>
</g>
</g>
<!-- Node1&#45;&gt;Node2 -->
<g id="edge1" class="edge">
<title>Node1&#45;&gt;Node2</title>
<path fill="none" stroke="midnightblue" d="M74.85,-360.51C100.93,-385.67 172,-454.26 205.1,-486.21"/>
<polygon fill="midnightblue" stroke="midnightblue" points="203.03,-489.07 212.65,-493.5 207.89,-484.03 203.03,-489.07"/>
</g>
<!-- Node11 -->
<g id="node11" class="node">
<title>Node11</title>
<g id="a_node11"><a xlink:href="group___operations.html#ga462c16b6479801f3de982785f509141a" target="_top" xlink:title=" ">
<polygon fill="white" stroke="black" points="164,-180.5 164,-199.5 283,-199.5 283,-180.5 164,-180.5"/>
<text text-anchor="middle" x="223.5" y="-187.5" font-family="Helvetica,sans-Serif" font-size="10.00">operations_load_xml</text>
</a>
</g>
</g>
<!-- Node1&#45;&gt;Node11 -->
<g id="edge10" class="edge">
<title>Node1&#45;&gt;Node11</title>
<path fill="none" stroke="midnightblue" d="M74.38,-341.41C100.25,-314.96 172.88,-240.72 205.85,-207.02"/>
<polygon fill="midnightblue" stroke="midnightblue" points="208.48,-209.34 212.97,-199.74 203.47,-204.44 208.48,-209.34"/>
</g>
<!-- Node17 -->
<g id="node17" class="node">
<title>Node17</title>
<g id="a_node17"><a xlink:href="group___operations.html#ga8d5a19a3522cea1b4254684cf6515d13" target="_top" xlink:title=" ">
<polygon fill="white" stroke="black" points="171,-341.5 171,-360.5 276,-360.5 276,-341.5 171,-341.5"/>
<text text-anchor="middle" x="223.5" y="-348.5" font-family="Helvetica,sans-Serif" font-size="10.00">operations_render</text>
</a>
</g>
</g>
<!-- Node1&#45;&gt;Node17 -->
<g id="edge17" class="edge">
<title>Node1&#45;&gt;Node17</title>
<path fill="none" stroke="midnightblue" d="M128.15,-351C138.92,-351 150.09,-351 160.82,-351"/>
<polygon fill="midnightblue" stroke="midnightblue" points="160.94,-354.5 170.94,-351 160.94,-347.5 160.94,-354.5"/>
</g>
<!-- Node3 -->
<g id="node3" class="node">
<title>Node3</title>
<g id="a_node3"><a xlink:href="namespace_d.html#a393bfec992f13a40a9f601e3e6c82874" target="_top" xlink:title=" ">
<polygon fill="white" stroke="black" points="352.5,-569.5 352.5,-588.5 427.5,-588.5 427.5,-569.5 352.5,-569.5"/>
<text text-anchor="middle" x="390" y="-576.5" font-family="Helvetica,sans-Serif" font-size="10.00">D::cartesian</text>
</a>
</g>
</g>
<!-- Node2&#45;&gt;Node3 -->
<g id="edge2" class="edge">
<title>Node2&#45;&gt;Node3</title>
<path fill="none" stroke="midnightblue" d="M237.64,-512.55C255.33,-525.03 288.17,-546.82 319,-560 326.49,-563.2 334.67,-566 342.7,-568.39"/>
<polygon fill="midnightblue" stroke="midnightblue" points="341.81,-571.77 352.38,-571.11 343.7,-565.03 341.81,-571.77"/>
</g>
<!-- Node4 -->
<g id="node4" class="node">
<title>Node4</title>
<g id="a_node4"><a xlink:href="namespace_d.html#ae27403f76d7334ff69a099e42f1f1616" target="_top" xlink:title=" ">
<polygon fill="white" stroke="black" points="361,-531.5 361,-550.5 419,-550.5 419,-531.5 361,-531.5"/>
<text text-anchor="middle" x="390" y="-538.5" font-family="Helvetica,sans-Serif" font-size="10.00">D::origin</text>
</a>
</g>
</g>
<!-- Node2&#45;&gt;Node4 -->
<g id="edge3" class="edge">
<title>Node2&#45;&gt;Node4</title>
<path fill="none" stroke="midnightblue" d="M266.01,-512.59C292.11,-518.62 325.53,-526.34 350.95,-532.21"/>
<polygon fill="midnightblue" stroke="midnightblue" points="350.42,-535.68 360.96,-534.52 352,-528.86 350.42,-535.68"/>
</g>
<!-- Node5 -->
<g id="node5" class="node">
<title>Node5</title>
<g id="a_node5"><a xlink:href="namespace_d.html#aa2fb96ccebb5bf88d4325f85beb99d84" target="_top" xlink:title="(radius,zenith,azimuth)">
<polygon fill="white" stroke="black" points="362.5,-493.5 362.5,-512.5 417.5,-512.5 417.5,-493.5 362.5,-493.5"/>
<text text-anchor="middle" x="390" y="-500.5" font-family="Helvetica,sans-Serif" font-size="10.00">D::polar</text>
</a>
</g>
</g>
<!-- Node2&#45;&gt;Node5 -->
<g id="edge4" class="edge">
<title>Node2&#45;&gt;Node5</title>
<path fill="none" stroke="midnightblue" d="M276.55,-503C301.09,-503 329.79,-503 352.06,-503"/>
<polygon fill="midnightblue" stroke="midnightblue" points="352.11,-506.5 362.11,-503 352.11,-499.5 352.11,-506.5"/>
</g>
<!-- Node6 -->
<g id="node6" class="node">
<title>Node6</title>
<g id="a_node6"><a xlink:href="namespace_d.html#a49b3788c9a2aae032c6c74d76441aa18" target="_top" xlink:title="(fov,near,var)">
<polygon fill="white" stroke="black" points="350.5,-455.5 350.5,-474.5 429.5,-474.5 429.5,-455.5 350.5,-455.5"/>
<text text-anchor="middle" x="390" y="-462.5" font-family="Helvetica,sans-Serif" font-size="10.00">D::projection</text>
</a>
</g>
</g>
<!-- Node2&#45;&gt;Node6 -->
<g id="edge5" class="edge">
<title>Node2&#45;&gt;Node6</title>
<path fill="none" stroke="midnightblue" d="M266.01,-493.41C288.66,-488.18 316.83,-481.67 340.49,-476.21"/>
<polygon fill="midnightblue" stroke="midnightblue" points="341.37,-479.59 350.33,-473.93 339.8,-472.77 341.37,-479.59"/>
</g>
<!-- Node7 -->
<g id="node7" class="node">
<title>Node7</title>
<g id="a_node7"><a xlink:href="namespace_d.html#acff69d64de92ad4a8530de5424425dee" target="_top" xlink:title=" ">
<polygon fill="white" stroke="black" points="360.5,-645.5 360.5,-664.5 419.5,-664.5 419.5,-645.5 360.5,-645.5"/>
<text text-anchor="middle" x="390" y="-652.5" font-family="Helvetica,sans-Serif" font-size="10.00">D::rotate</text>
</a>
</g>
</g>
<!-- Node2&#45;&gt;Node7 -->
<g id="edge6" class="edge">
<title>Node2&#45;&gt;Node7</title>
<path fill="none" stroke="midnightblue" d="M228.59,-512.78C239.43,-537.48 271.37,-602.78 319,-636 328.16,-642.39 339.37,-646.63 350.11,-649.45"/>
<polygon fill="midnightblue" stroke="midnightblue" points="349.66,-652.93 360.19,-651.73 351.21,-646.11 349.66,-652.93"/>
</g>
<!-- Node8 -->
<g id="node8" class="node">
<title>Node8</title>
<g id="a_node8"><a xlink:href="namespace_d.html#a1ccd692563b2bed3dbd7275b0bd3dbb3" target="_top" xlink:title=" ">
<polygon fill="white" stroke="black" points="362,-417.5 362,-436.5 418,-436.5 418,-417.5 362,-417.5"/>
<text text-anchor="middle" x="390" y="-424.5" font-family="Helvetica,sans-Serif" font-size="10.00">D::scale</text>
</a>
</g>
</g>
<!-- Node2&#45;&gt;Node8 -->
<g id="edge7" class="edge">
<title>Node2&#45;&gt;Node8</title>
<path fill="none" stroke="midnightblue" d="M237.64,-493.45C255.33,-480.97 288.17,-459.18 319,-446 329.35,-441.57 341.02,-437.92 351.81,-435.04"/>
<polygon fill="midnightblue" stroke="midnightblue" points="352.98,-438.36 361.82,-432.52 351.27,-431.57 352.98,-438.36"/>
</g>
<!-- Node9 -->
<g id="node9" class="node">
<title>Node9</title>
<g id="a_node9"><a xlink:href="namespace_d.html#ae308988f832b1d5420f532ac7dfd772e" target="_top" xlink:title=" ">
<polygon fill="white" stroke="black" points="353,-607.5 353,-626.5 427,-626.5 427,-607.5 353,-607.5"/>
<text text-anchor="middle" x="390" y="-614.5" font-family="Helvetica,sans-Serif" font-size="10.00">D::translate</text>
</a>
</g>
</g>
<!-- Node2&#45;&gt;Node9 -->
<g id="edge8" class="edge">
<title>Node2&#45;&gt;Node9</title>
<path fill="none" stroke="midnightblue" d="M231.36,-512.73C245.48,-532.02 279.78,-575.2 319,-598 326.36,-602.28 334.7,-605.62 343.01,-608.22"/>
<polygon fill="midnightblue" stroke="midnightblue" points="342.1,-611.6 352.68,-610.95 344,-604.87 342.1,-611.6"/>
</g>
<!-- Node10 -->
<g id="node10" class="node">
<title>Node10</title>
<g id="a_node10"><a xlink:href="namespace_d.html#a075a76915f7e2899933f446de8be40d9" target="_top" xlink:title=" ">
<polygon fill="white" stroke="black" points="369,-379.5 369,-398.5 411,-398.5 411,-379.5 369,-379.5"/>
<text text-anchor="middle" x="390" y="-386.5" font-family="Helvetica,sans-Serif" font-size="10.00">D::up</text>
</a>
</g>
</g>
<!-- Node2&#45;&gt;Node10 -->
<g id="edge9" class="edge">
<title>Node2&#45;&gt;Node10</title>
<path fill="none" stroke="midnightblue" d="M231.36,-493.27C245.48,-473.98 279.78,-430.8 319,-408 331.2,-400.91 346.13,-396.39 359.06,-393.54"/>
<polygon fill="midnightblue" stroke="midnightblue" points="359.78,-396.97 368.92,-391.6 358.43,-390.1 359.78,-396.97"/>
</g>
<!-- Node12 -->
<g id="node12" class="node">
<title>Node12</title>
<g id="a_node12"><a xlink:href="group___operations.html#ga724a75a0bcc5898b0f2e576db5a3ef65" target="_top" xlink:title=" ">
<polygon fill="white" stroke="black" points="330,-57.5 330,-76.5 450,-76.5 450,-57.5 330,-57.5"/>
<text text-anchor="middle" x="390" y="-64.5" font-family="Helvetica,sans-Serif" font-size="10.00">operations_push_any</text>
</a>
</g>
</g>
<!-- Node11&#45;&gt;Node12 -->
<g id="edge11" class="edge">
<title>Node11&#45;&gt;Node12</title>
<path fill="none" stroke="midnightblue" d="M233.48,-180.36C249.53,-163.49 284.69,-128.1 319,-104 331.28,-95.37 345.82,-87.38 358.45,-81.04"/>
<polygon fill="midnightblue" stroke="midnightblue" points="360.23,-84.07 367.68,-76.54 357.15,-77.78 360.23,-84.07"/>
</g>
<!-- Node12&#45;&gt;Node12 -->
<g id="edge14" class="edge">
<title>Node12&#45;&gt;Node12</title>
<path fill="none" stroke="midnightblue" d="M364.41,-76.76C351.97,-85.57 360.5,-95 390,-95 409.82,-95 420.18,-90.74 421.06,-85.27"/>
<polygon fill="midnightblue" stroke="midnightblue" points="423.94,-83.27 415.59,-76.76 418.05,-87.06 423.94,-83.27"/>
</g>
<!-- Node13 -->
<g id="node13" class="node">
<title>Node13</title>
<g id="a_node13"><a xlink:href="group___operations.html#ga5e1350b5e6d7267d7e95a8ee351eae51" target="_top" xlink:title=" ">
<polygon fill="white" stroke="black" points="497,-38.5 497,-57.5 629,-57.5 629,-38.5 497,-38.5"/>
<text text-anchor="middle" x="563" y="-45.5" font-family="Helvetica,sans-Serif" font-size="10.00">crashIfFileDoesNotExist</text>
</a>
</g>
</g>
<!-- Node12&#45;&gt;Node13 -->
<g id="edge12" class="edge">
<title>Node12&#45;&gt;Node13</title>
<path fill="none" stroke="midnightblue" d="M450.33,-60.41C462.08,-59.1 474.57,-57.71 486.77,-56.36"/>
<polygon fill="midnightblue" stroke="midnightblue" points="487.38,-59.81 496.94,-55.23 486.61,-52.86 487.38,-59.81"/>
</g>
<!-- Node14 -->
<g id="node14" class="node">
<title>Node14</title>
<g id="a_node14"><a xlink:href="group___operations.html#gab70be49ae6c9836b6605fa296e23c58c" target="_top" xlink:title=" ">
<polygon fill="white" stroke="black" points="515.5,-0.5 515.5,-19.5 610.5,-19.5 610.5,-0.5 515.5,-0.5"/>
<text text-anchor="middle" x="563" y="-7.5" font-family="Helvetica,sans-Serif" font-size="10.00">elementToEnum</text>
</a>
</g>
</g>
<!-- Node12&#45;&gt;Node14 -->
<g id="edge13" class="edge">
<title>Node12&#45;&gt;Node14</title>
<path fill="none" stroke="midnightblue" d="M416.56,-57.35C437.93,-49.4 469.3,-38.01 497,-29 503.69,-26.83 510.79,-24.63 517.76,-22.54"/>
<polygon fill="midnightblue" stroke="midnightblue" points="519.21,-25.77 527.81,-19.58 517.23,-19.05 519.21,-25.77"/>
</g>
<!-- Node15 -->
<g id="node15" class="node">
<title>Node15</title>
<g id="a_node15"><a xlink:href="group___operations.html#ga27f2fb7edc94a99859f8e3a5120af3b4" target="_top" xlink:title=" ">
<polygon fill="white" stroke="black" points="498,-115 498,-145 628,-145 628,-115 498,-115"/>
<text text-anchor="start" x="506" y="-133" font-family="Helvetica,sans-Serif" font-size="10.00">operations_push_string</text>
<text text-anchor="middle" x="563" y="-122" font-family="Helvetica,sans-Serif" font-size="10.00">_attribute</text>
</a>
</g>
</g>
<!-- Node12&#45;&gt;Node15 -->
<g id="edge15" class="edge">
<title>Node12&#45;&gt;Node15</title>
<path fill="none" stroke="midnightblue" d="M416.97,-76.57C441.93,-85.76 480.31,-99.9 511.33,-111.33"/>
<polygon fill="midnightblue" stroke="midnightblue" points="510.52,-114.76 521.11,-114.93 512.94,-108.19 510.52,-114.76"/>
</g>
<!-- Node16 -->
<g id="node16" class="node">
<title>Node16</title>
<g id="a_node16"><a xlink:href="group___operations.html#ga97fc3f3450980b121126d829a0263836" target="_top" xlink:title=" ">
<polygon fill="white" stroke="black" points="506.5,-76.5 506.5,-95.5 619.5,-95.5 619.5,-76.5 506.5,-76.5"/>
<text text-anchor="middle" x="563" y="-83.5" font-family="Helvetica,sans-Serif" font-size="10.00">pushFloatAttributes</text>
</a>
</g>
</g>
<!-- Node12&#45;&gt;Node16 -->
<g id="edge16" class="edge">
<title>Node12&#45;&gt;Node16</title>
<path fill="none" stroke="midnightblue" d="M450.33,-73.59C465.06,-75.23 480.94,-76.99 495.98,-78.66"/>
<polygon fill="midnightblue" stroke="midnightblue" points="495.9,-82.18 506.23,-79.8 496.67,-75.22 495.9,-82.18"/>
</g>
<!-- Node17&#45;&gt;Node3 -->
<g id="edge25" class="edge">
<title>Node17&#45;&gt;Node3</title>
<path fill="none" stroke="midnightblue" d="M228.71,-360.62C246.51,-401.18 314.78,-556.41 319,-560 325.76,-565.76 334.1,-569.78 342.64,-572.59"/>
<polygon fill="midnightblue" stroke="midnightblue" points="341.72,-575.97 352.29,-575.28 343.6,-569.23 341.72,-575.97"/>
</g>
<!-- Node17&#45;&gt;Node4 -->
<g id="edge28" class="edge">
<title>Node17&#45;&gt;Node4</title>
<path fill="none" stroke="midnightblue" d="M227.01,-360.9C235.01,-390.3 262.7,-477.81 319,-522 328.1,-529.14 339.69,-533.61 350.8,-536.39"/>
<polygon fill="midnightblue" stroke="midnightblue" points="350.28,-539.86 360.79,-538.51 351.73,-533.01 350.28,-539.86"/>
</g>
<!-- Node17&#45;&gt;Node5 -->
<g id="edge29" class="edge">
<title>Node17&#45;&gt;Node5</title>
<path fill="none" stroke="midnightblue" d="M228.59,-360.78C239.43,-385.48 271.37,-450.78 319,-484 328.83,-490.85 341.02,-495.24 352.46,-498.04"/>
<polygon fill="midnightblue" stroke="midnightblue" points="351.73,-501.46 362.24,-500.12 353.18,-494.62 351.73,-501.46"/>
</g>
<!-- Node17&#45;&gt;Node6 -->
<g id="edge30" class="edge">
<title>Node17&#45;&gt;Node6</title>
<path fill="none" stroke="midnightblue" d="M231.36,-360.73C245.48,-380.02 279.78,-423.2 319,-446 325.59,-449.83 332.97,-452.91 340.4,-455.38"/>
<polygon fill="midnightblue" stroke="midnightblue" points="339.56,-458.78 350.14,-458.29 341.56,-452.07 339.56,-458.78"/>
</g>
<!-- Node17&#45;&gt;Node8 -->
<g id="edge34" class="edge">
<title>Node17&#45;&gt;Node8</title>
<path fill="none" stroke="midnightblue" d="M237.64,-360.55C255.33,-373.03 288.17,-394.82 319,-408 329.35,-412.43 341.02,-416.08 351.81,-418.96"/>
<polygon fill="midnightblue" stroke="midnightblue" points="351.27,-422.43 361.82,-421.48 352.98,-415.64 351.27,-422.43"/>
</g>
<!-- Node17&#45;&gt;Node10 -->
<g id="edge35" class="edge">
<title>Node17&#45;&gt;Node10</title>
<path fill="none" stroke="midnightblue" d="M266.01,-360.59C294.95,-367.28 332.9,-376.04 358.95,-382.06"/>
<polygon fill="midnightblue" stroke="midnightblue" points="358.45,-385.54 368.98,-384.38 360.03,-378.72 358.45,-385.54"/>
</g>
<!-- Node18 -->
<g id="node18" class="node">
<title>Node18</title>
<g id="a_node18"><a xlink:href="group__model_engine.html#ga2ca8791f2c1829e3df5d449129d21c32" target="_top" xlink:title=" ">
<polygon fill="white" stroke="black" points="319,-113.5 319,-132.5 461,-132.5 461,-113.5 319,-113.5"/>
<text text-anchor="middle" x="390" y="-120.5" font-family="Helvetica,sans-Serif" font-size="10.00">addTextureImageToModel</text>
</a>
</g>
</g>
<!-- Node17&#45;&gt;Node18 -->
<g id="edge18" class="edge">
<title>Node17&#45;&gt;Node18</title>
<path fill="none" stroke="midnightblue" d="M228.27,-341.41C243.73,-302.32 302.21,-156.3 319,-142 320.97,-140.32 323.08,-138.79 325.28,-137.39"/>
<polygon fill="midnightblue" stroke="midnightblue" points="327.03,-140.42 334.22,-132.64 323.75,-134.24 327.03,-140.42"/>
</g>
<!-- Node19 -->
<g id="node19" class="node">
<title>Node19</title>
<g id="a_node19"><a xlink:href="curves_8cpp.html#a821c8cbf0a47b918c60a4912b733e6bd" target="_top" xlink:title=" ">
<polygon fill="white" stroke="black" points="338,-341.5 338,-360.5 442,-360.5 442,-341.5 338,-341.5"/>
<text text-anchor="middle" x="390" y="-348.5" font-family="Helvetica,sans-Serif" font-size="10.00">advance_in_curve</text>
</a>
</g>
</g>
<!-- Node17&#45;&gt;Node19 -->
<g id="edge19" class="edge">
<title>Node17&#45;&gt;Node19</title>
<path fill="none" stroke="midnightblue" d="M276.1,-351C292.41,-351 310.59,-351 327.52,-351"/>
<polygon fill="midnightblue" stroke="midnightblue" points="327.87,-354.5 337.87,-351 327.87,-347.5 327.87,-354.5"/>
</g>
<!-- Node24 -->
<g id="node24" class="node">
<title>Node24</title>
<g id="a_node24"><a xlink:href="engine_8cpp.html#a072c434cfd125e58ac1cec9a5725688a" target="_top" xlink:title=" ">
<polygon fill="white" stroke="black" points="332,-265.5 332,-284.5 448,-284.5 448,-265.5 332,-265.5"/>
<text text-anchor="middle" x="390" y="-272.5" font-family="Helvetica,sans-Serif" font-size="10.00">advance_in_rotation</text>
</a>
</g>
</g>
<!-- Node17&#45;&gt;Node24 -->
<g id="edge24" class="edge">
<title>Node17&#45;&gt;Node24</title>
<path fill="none" stroke="midnightblue" d="M240.12,-341.3C258.52,-330.15 290.23,-311.73 319,-299 328.16,-294.95 338.22,-291.14 347.8,-287.8"/>
<polygon fill="midnightblue" stroke="midnightblue" points="349.19,-291.02 357.54,-284.5 346.95,-284.39 349.19,-291.02"/>
</g>
<!-- Node25 -->
<g id="node25" class="node">
<title>Node25</title>
<g id="a_node25"><a xlink:href="group__explorer_camera.html#ga2bd01f833407b47f26121736925e24fc" target="_top" xlink:title=" ">
<polygon fill="white" stroke="black" points="333.5,-227.5 333.5,-246.5 446.5,-246.5 446.5,-227.5 333.5,-227.5"/>
<text text-anchor="middle" x="390" y="-234.5" font-family="Helvetica,sans-Serif" font-size="10.00">cartesian2Spherical</text>
</a>
</g>
</g>
<!-- Node17&#45;&gt;Node25 -->
<g id="edge26" class="edge">
<title>Node17&#45;&gt;Node25</title>
<path fill="none" stroke="midnightblue" d="M231.36,-341.27C245.48,-321.98 279.78,-278.8 319,-256 322.84,-253.77 326.95,-251.79 331.18,-250.04"/>
<polygon fill="midnightblue" stroke="midnightblue" points="332.43,-253.31 340.59,-246.56 330,-246.75 332.43,-253.31"/>
</g>
<!-- Node26 -->
<g id="node26" class="node">
<title>Node26</title>
<g id="a_node26"><a xlink:href="group__model_engine.html#gac02eaf37d06ce4074af34bcf4c2ebec6" target="_top" xlink:title=" ">
<polygon fill="white" stroke="black" points="359,-189.5 359,-208.5 421,-208.5 421,-189.5 359,-189.5"/>
<text text-anchor="middle" x="390" y="-196.5" font-family="Helvetica,sans-Serif" font-size="10.00">getModel</text>
</a>
</g>
</g>
<!-- Node17&#45;&gt;Node26 -->
<g id="edge27" class="edge">
<title>Node17&#45;&gt;Node26</title>
<path fill="none" stroke="midnightblue" d="M228.59,-341.22C239.43,-316.52 271.37,-251.22 319,-218 327.84,-211.83 338.6,-207.66 349.01,-204.85"/>
<polygon fill="midnightblue" stroke="midnightblue" points="349.87,-208.24 358.8,-202.54 348.26,-201.43 349.87,-208.24"/>
</g>
<!-- Node27 -->
<g id="node27" class="node">
<title>Node27</title>
<g id="a_node27"><a xlink:href="curves_8cpp.html#ad812fc50a0384335487e258a6f61714e" target="_top" xlink:title=" ">
<polygon fill="white" stroke="black" points="524.5,-303.5 524.5,-322.5 601.5,-322.5 601.5,-303.5 524.5,-303.5"/>
<text text-anchor="middle" x="563" y="-310.5" font-family="Helvetica,sans-Serif" font-size="10.00">renderCurve</text>
</a>
</g>
</g>
<!-- Node17&#45;&gt;Node27 -->
<g id="edge31" class="edge">
<title>Node17&#45;&gt;Node27</title>
<path fill="none" stroke="midnightblue" d="M266.18,-341.49C282.57,-338.05 301.6,-334.42 319,-332 386.5,-322.61 465.24,-317.52 514.36,-315.03"/>
<polygon fill="midnightblue" stroke="midnightblue" points="514.57,-318.52 524.38,-314.54 514.22,-311.53 514.57,-318.52"/>
</g>
<!-- Node28 -->
<g id="node28" class="node">
<title>Node28</title>
<g id="a_node28"><a xlink:href="group__model_engine.html#ga2907e4adf4f2bef2c8ce416cb8470997" target="_top" xlink:title=" ">
<polygon fill="white" stroke="black" points="351,-151.5 351,-170.5 429,-170.5 429,-151.5 351,-151.5"/>
<text text-anchor="middle" x="390" y="-158.5" font-family="Helvetica,sans-Serif" font-size="10.00">renderModel</text>
</a>
</g>
</g>
<!-- Node17&#45;&gt;Node28 -->
<g id="edge33" class="edge">
<title>Node17&#45;&gt;Node28</title>
<path fill="none" stroke="midnightblue" d="M227.01,-341.1C235.01,-311.7 262.7,-224.19 319,-180 325.48,-174.91 333.22,-171.19 341.15,-168.46"/>
<polygon fill="midnightblue" stroke="midnightblue" points="342.24,-171.78 350.84,-165.6 340.26,-165.07 342.24,-171.78"/>
</g>
<!-- Node20 -->
<g id="node20" class="node">
<title>Node20</title>
<g id="a_node20"><a xlink:href="curves_8cpp.html#a98b26a4263f61db7149441a99a6d35b6" target="_top" xlink:title=" ">
<polygon fill="white" stroke="black" points="501.5,-341.5 501.5,-360.5 624.5,-360.5 624.5,-341.5 501.5,-341.5"/>
<text text-anchor="middle" x="563" y="-348.5" font-family="Helvetica,sans-Serif" font-size="10.00">align_global_pos_mat</text>
</a>
</g>
</g>
<!-- Node19&#45;&gt;Node20 -->
<g id="edge20" class="edge">
<title>Node19&#45;&gt;Node20</title>
<path fill="none" stroke="midnightblue" d="M442.31,-351C457.7,-351 474.87,-351 491.29,-351"/>
<polygon fill="midnightblue" stroke="midnightblue" points="491.39,-354.5 501.39,-351 491.39,-347.5 491.39,-354.5"/>
</g>
<!-- Node21 -->
<g id="node21" class="node">
<title>Node21</title>
<g id="a_node21"><a xlink:href="curves_8cpp.html#af7cd8d9b34a073c2fd2d7d8187bcff42" target="_top" xlink:title=" ">
<polygon fill="white" stroke="black" points="665,-322.5 665,-341.5 795,-341.5 795,-322.5 665,-322.5"/>
<text text-anchor="middle" x="730" y="-329.5" font-family="Helvetica,sans-Serif" font-size="10.00">get_curve_global_point</text>
</a>
</g>
</g>
<!-- Node20&#45;&gt;Node21 -->
<g id="edge21" class="edge">
<title>Node20&#45;&gt;Node21</title>
<path fill="none" stroke="midnightblue" d="M624.5,-344.03C634.37,-342.9 644.68,-341.71 654.83,-340.54"/>
<polygon fill="midnightblue" stroke="midnightblue" points="655.36,-344 664.9,-339.38 654.56,-337.05 655.36,-344"/>
</g>
<!-- Node22 -->
<g id="node22" class="node">
<title>Node22</title>
<g id="a_node22"><a xlink:href="curves_8cpp.html#afa648d7de8c941b50b26f02755a955b9" target="_top" xlink:title=" ">
<polygon fill="white" stroke="black" points="841.5,-341.5 841.5,-360.5 930.5,-360.5 930.5,-341.5 841.5,-341.5"/>
<text text-anchor="middle" x="886" y="-348.5" font-family="Helvetica,sans-Serif" font-size="10.00">get_curve_info</text>
</a>
</g>
</g>
<!-- Node21&#45;&gt;Node22 -->
<g id="edge22" class="edge">
<title>Node21&#45;&gt;Node22</title>
<path fill="none" stroke="midnightblue" d="M795.42,-339.95C807.4,-341.43 819.8,-342.96 831.42,-344.39"/>
<polygon fill="midnightblue" stroke="midnightblue" points="831.04,-347.87 841.4,-345.62 831.9,-340.92 831.04,-347.87"/>
</g>
<!-- Node23 -->
<g id="node23" class="node">
<title>Node23</title>
<g id="a_node23"><a xlink:href="curves_8cpp.html#a6d6def6a76701b08284cba58066e3382" target="_top" xlink:title=" ">
<polygon fill="white" stroke="black" points="831,-303.5 831,-322.5 941,-322.5 941,-303.5 831,-303.5"/>
<text text-anchor="middle" x="886" y="-310.5" font-family="Helvetica,sans-Serif" font-size="10.00">get_curve_point_at</text>
</a>
</g>
</g>
<!-- Node21&#45;&gt;Node23 -->
<g id="edge23" class="edge">
<title>Node21&#45;&gt;Node23</title>
<path fill="none" stroke="midnightblue" d="M795.42,-324.05C803.74,-323.03 812.26,-321.97 820.58,-320.95"/>
<polygon fill="midnightblue" stroke="midnightblue" points="821.11,-324.41 830.6,-319.71 820.25,-317.46 821.11,-324.41"/>
</g>
<!-- Node27&#45;&gt;Node21 -->
<g id="edge32" class="edge">
<title>Node27&#45;&gt;Node21</title>
<path fill="none" stroke="midnightblue" d="M601.85,-317.36C617.59,-319.17 636.42,-321.34 654.71,-323.45"/>
<polygon fill="midnightblue" stroke="midnightblue" points="654.46,-326.94 664.8,-324.61 655.26,-319.99 654.46,-326.94"/>
</g>
</g>
</svg>
        <g id="navigator" transform="translate(0 0)" fill="#404254">
                <rect fill="#f2f5e9" fill-opacity="0.5" stroke="#606060" stroke-width=".5" x="0" y="0" width="60" height="60"/>
                <use id="zoomplus" xlink:href="#zoomPlus" x="17" y="9" onmousedown="handleZoom(evt,'in')"/>
                <use id="zoomminus" xlink:href="#zoomMin" x="42" y="9" onmousedown="handleZoom(evt,'out')"/>
                <use id="reset" xlink:href="#resetDef" x="30" y="36" onmousedown="handleReset()"/>
                <g id="arrowUp" xlink:href="#dirArrow" transform="translate(30 24)" onmousedown="handlePan(0,-1)">
                  <use xlink:href="#rim" fill="#404040">
                        <set attributeName="fill" to="#808080" begin="arrowUp.mouseover" end="arrowUp.mouseout"/>
                  </use>
                  <path fill="none" stroke="white" stroke-width="1.5" d="M0,-3.0v7 M-2.5,-0.5L0,-3.0L2.5,-0.5"/>
                </g>
                <g id="arrowRight" xlink:href="#dirArrow" transform="rotate(90) translate(36 -43)" onmousedown="handlePan(1,0)">
                  <use xlink:href="#rim" fill="#404040">
                        <set attributeName="fill" to="#808080" begin="arrowRight.mouseover" end="arrowRight.mouseout"/>
                  </use>
                  <path fill="none" stroke="white" stroke-width="1.5" d="M0,-3.0v7 M-2.5,-0.5L0,-3.0L2.5,-0.5"/>
                </g>
                <g id="arrowDown" xlink:href="#dirArrow" transform="rotate(180) translate(-30 -48)" onmousedown="handlePan(0,1)">
                  <use xlink:href="#rim" fill="#404040">
                        <set attributeName="fill" to="#808080" begin="arrowDown.mouseover" end="arrowDown.mouseout"/>
                  </use>
                  <path fill="none" stroke="white" stroke-width="1.5" d="M0,-3.0v7 M-2.5,-0.5L0,-3.0L2.5,-0.5"/>
                </g>
                <g id="arrowLeft" xlink:href="#dirArrow" transform="rotate(270) translate(-36 17)" onmousedown="handlePan(-1,0)">
                  <use xlink:href="#rim" fill="#404040">
                        <set attributeName="fill" to="#808080" begin="arrowLeft.mouseover" end="arrowLeft.mouseout"/>
                  </use>
                  <path fill="none" stroke="white" stroke-width="1.5" d="M0,-3.0v7 M-2.5,-0.5L0,-3.0L2.5,-0.5"/>
                </g>
        </g>
        <svg viewBox="0 0 15 15" width="100%" height="30px" preserveAspectRatio="xMaxYMin meet">
         <g id="arrow_out" transform="scale(0.3 0.3)">
          <a xlink:href="group__engine_ga7148688af5abea686f74d15a50bd20ae_cgraph_org.svg" target="_base">
           <rect id="button" ry="5" rx="5" y="6" x="6" height="38" width="38"
                fill="#f2f5e9" fill-opacity="0.5" stroke="#606060" stroke-width="1.0"/>
           <path id="arrow"
             d="M 11.500037,31.436501 C 11.940474,20.09759 22.043105,11.32322 32.158766,21.979434 L 37.068811,17.246167 C 37.068811,17.246167 37.088388,32 37.088388,32 L 22.160133,31.978069 C 22.160133,31.978069 26.997745,27.140456 26.997745,27.140456 C 18.528582,18.264221 13.291696,25.230495 11.500037,31.436501 z"
             style="fill:#404040;"/>
          </a>
         </g>
        </svg>
</svg>
