<?xml version="1.0" encoding="UTF-8" standalone="no"?>
<!DOCTYPE svg PUBLIC "-//W3C//DTD SVG 1.1//EN"
 "http://www.w3.org/Graphics/SVG/1.1/DTD/svg11.dtd">
<!-- Generated by graphviz version 3.0.0 (0)
 -->
<!-- Title: Operations Pages: 1 -->
<svg width="180pt" height="64pt"
 viewBox="0.00 0.00 180.00 64.00" xmlns="http://www.w3.org/2000/svg" xmlns:xlink="http://www.w3.org/1999/xlink">
<g id="graph0" class="graph" transform="scale(1 1) rotate(0) translate(4 60)">
<title>Operations</title>
<polygon fill="white" stroke="transparent" points="-4,4 -4,-60 176,-60 176,4 -4,4"/>
<!-- Node1 -->
<g id="node1" class="node">
<title>Node1</title>
<g id="a_node1"><a xlink:title=" ">
<polygon fill="#bfbfbf" stroke="black" points="70,-37 0,-37 0,-18 70,-18 70,-37"/>
<text text-anchor="middle" x="35" y="-25" font-family="Helvetica,sans-Serif" font-size="10.00">Operations</text>
</a>
</g>
</g>
<!-- Node3 -->
<g id="node2" class="node">
<title>Node3</title>
<g id="a_node2"><a xlink:href="group___parsing.html" target="_top" xlink:title=" ">
<polygon fill="white" stroke="black" points="165.5,-56 112.5,-56 112.5,-37 165.5,-37 165.5,-56"/>
<text text-anchor="middle" x="139" y="-44" font-family="Helvetica,sans-Serif" font-size="10.00">Parsing</text>
</a>
</g>
</g>
<!-- Node1&#45;&gt;Node3 -->
<g id="edge2" class="edge">
<title>Node1&#45;&gt;Node3</title>
<path fill="none" stroke="black" d="M80.18,-35.73C91.18,-37.78 102.62,-39.91 112.39,-41.73"/>
<polygon fill="black" stroke="black" points="80.72,-32.27 70.25,-33.88 79.44,-39.15 80.72,-32.27"/>
</g>
<!-- Node2 -->
<g id="node3" class="node">
<title>Node2</title>
<g id="a_node3"><a xlink:href="group___rendering.html" target="_top" xlink:title=" ">
<polygon fill="white" stroke="black" points="172,-19 106,-19 106,0 172,0 172,-19"/>
<text text-anchor="middle" x="139" y="-7" font-family="Helvetica,sans-Serif" font-size="10.00">Rendering</text>
</a>
</g>
</g>
<!-- Node1&#45;&gt;Node2 -->
<g id="edge1" class="edge">
<title>Node1&#45;&gt;Node2</title>
<path fill="none" stroke="black" d="M80.16,-19.71C88.75,-18.19 97.61,-16.63 105.74,-15.19"/>
<polygon fill="black" stroke="black" points="79.49,-16.27 70.25,-21.46 80.7,-23.16 79.49,-16.27"/>
</g>
</g>
</svg>
