<?xml version="1.0" encoding="UTF-8" standalone="no"?>
<!DOCTYPE svg PUBLIC "-//W3C//DTD SVG 1.1//EN"
 "http://www.w3.org/Graphics/SVG/1.1/DTD/svg11.dtd">
<!-- Generated by graphviz version 3.0.0 (0)
 -->
<!-- Title: operations_push_transform_attributes Pages: 1 -->
<svg width="1023pt" height="75pt"
 viewBox="0.00 0.00 1023.00 75.00" xmlns="http://www.w3.org/2000/svg" xmlns:xlink="http://www.w3.org/1999/xlink">
<g id="graph0" class="graph" transform="scale(1 1) rotate(0) translate(4 71)">
<title>operations_push_transform_attributes</title>
<polygon fill="white" stroke="transparent" points="-4,4 -4,-71 1019,-71 1019,4 -4,4"/>
<!-- Node1 -->
<g id="node1" class="node">
<title>Node1</title>
<g id="a_node1"><a xlink:title=" ">
<polygon fill="#bfbfbf" stroke="black" points="865,-23 865,-53 1015,-53 1015,-23 865,-23"/>
<text text-anchor="start" x="873" y="-41" font-family="Helvetica,sans-Serif" font-size="10.00">operations_push_transform</text>
<text text-anchor="middle" x="940" y="-30" font-family="Helvetica,sans-Serif" font-size="10.00">_attributes</text>
</a>
</g>
</g>
<!-- Node2 -->
<g id="node2" class="node">
<title>Node2</title>
<g id="a_node2"><a xlink:href="group__xml.html#gac937a83a82258806ef77b02f97ef0834" target="_top" xlink:title=" ">
<polygon fill="white" stroke="black" points="348,-28.5 348,-47.5 467,-47.5 467,-28.5 348,-28.5"/>
<text text-anchor="middle" x="407.5" y="-35.5" font-family="Helvetica,sans-Serif" font-size="10.00">operations_load_xml</text>
</a>
</g>
</g>
<!-- Node1&#45;&gt;Node2 -->
<g id="edge1" class="edge">
<title>Node1&#45;&gt;Node2</title>
<path fill="none" stroke="midnightblue" d="M854.72,-43.14C766.87,-47.7 625.21,-52.81 503,-47 491.39,-46.45 479.01,-45.52 467.17,-44.46"/>
<polygon fill="midnightblue" stroke="midnightblue" points="855.1,-46.62 864.9,-42.6 854.73,-39.63 855.1,-46.62"/>
</g>
<!-- Node8 -->
<g id="node8" class="node">
<title>Node8</title>
<g id="a_node8"><a xlink:href="group___transforms.html#gaaa78b92f0257bb4755731622692de0cb" target="_top" xlink:title=" ">
<polygon fill="white" stroke="black" points="674,-9.5 674,-28.5 829,-28.5 829,-9.5 674,-9.5"/>
<text text-anchor="middle" x="751.5" y="-16.5" font-family="Helvetica,sans-Serif" font-size="10.00">operations_push_transforms</text>
</a>
</g>
</g>
<!-- Node1&#45;&gt;Node8 -->
<g id="edge7" class="edge">
<title>Node1&#45;&gt;Node8</title>
<path fill="none" stroke="midnightblue" d="M854.54,-29.4C846.11,-28.54 837.58,-27.67 829.24,-26.82"/>
<polygon fill="midnightblue" stroke="midnightblue" points="854.45,-32.9 864.75,-30.44 855.16,-25.94 854.45,-32.9"/>
</g>
<!-- Node3 -->
<g id="node3" class="node">
<title>Node3</title>
<g id="a_node3"><a xlink:href="parsing_8cpp.html#a46d5190ea0181cc625329b5221e9dce9" target="_top" xlink:title=" ">
<polygon fill="white" stroke="black" points="215.5,-47.5 215.5,-66.5 280.5,-66.5 280.5,-47.5 215.5,-47.5"/>
<text text-anchor="middle" x="248" y="-54.5" font-family="Helvetica,sans-Serif" font-size="10.00">example1</text>
</a>
</g>
</g>
<!-- Node2&#45;&gt;Node3 -->
<g id="edge2" class="edge">
<title>Node2&#45;&gt;Node3</title>
<path fill="none" stroke="midnightblue" d="M337.87,-46.28C317.97,-48.68 297.2,-51.19 280.74,-53.17"/>
<polygon fill="midnightblue" stroke="midnightblue" points="338.34,-49.75 347.85,-45.07 337.51,-42.8 338.34,-49.75"/>
</g>
<!-- Node5 -->
<g id="node5" class="node">
<title>Node5</title>
<g id="a_node5"><a xlink:href="group__engine.html#ga2b6a8884687b3fe271b099a450a82d24" target="_top" xlink:title=" ">
<polygon fill="white" stroke="black" points="184,-9.5 184,-28.5 312,-28.5 312,-9.5 184,-9.5"/>
<text text-anchor="middle" x="248" y="-16.5" font-family="Helvetica,sans-Serif" font-size="10.00">xml_load_and_set_env</text>
</a>
</g>
</g>
<!-- Node2&#45;&gt;Node5 -->
<g id="edge4" class="edge">
<title>Node2&#45;&gt;Node5</title>
<path fill="none" stroke="midnightblue" d="M337.91,-29.73C329.36,-28.69 320.65,-27.64 312.19,-26.62"/>
<polygon fill="midnightblue" stroke="midnightblue" points="337.51,-33.2 347.85,-30.93 338.34,-26.25 337.51,-33.2"/>
</g>
<!-- Node4 -->
<g id="node4" class="node">
<title>Node4</title>
<g id="a_node4"><a xlink:href="parsing_8cpp.html#a75c2e94360fa8e46050b4f66fe444d6b" target="_top" xlink:title=" ">
<polygon fill="white" stroke="black" points="89,-47.5 89,-66.5 136,-66.5 136,-47.5 89,-47.5"/>
<text text-anchor="middle" x="112.5" y="-54.5" font-family="Helvetica,sans-Serif" font-size="10.00">main2</text>
</a>
</g>
</g>
<!-- Node3&#45;&gt;Node4 -->
<g id="edge3" class="edge">
<title>Node3&#45;&gt;Node4</title>
<path fill="none" stroke="midnightblue" d="M205.24,-57C182.41,-57 155.02,-57 136.14,-57"/>
<polygon fill="midnightblue" stroke="midnightblue" points="205.36,-60.5 215.36,-57 205.36,-53.5 205.36,-60.5"/>
</g>
<!-- Node6 -->
<g id="node6" class="node">
<title>Node6</title>
<g id="a_node6"><a xlink:href="group__engine.html#ga98eaf946471acbd931de5d52ca83b3d1" target="_top" xlink:title=" ">
<polygon fill="white" stroke="black" points="77,-9.5 77,-28.5 148,-28.5 148,-9.5 77,-9.5"/>
<text text-anchor="middle" x="112.5" y="-16.5" font-family="Helvetica,sans-Serif" font-size="10.00">engine_run</text>
</a>
</g>
</g>
<!-- Node5&#45;&gt;Node6 -->
<g id="edge5" class="edge">
<title>Node5&#45;&gt;Node6</title>
<path fill="none" stroke="midnightblue" d="M173.71,-19C164.82,-19 156.09,-19 148.16,-19"/>
<polygon fill="midnightblue" stroke="midnightblue" points="173.77,-22.5 183.77,-19 173.77,-15.5 173.77,-22.5"/>
</g>
<!-- Node7 -->
<g id="node7" class="node">
<title>Node7</title>
<g id="a_node7"><a xlink:href="group__engine.html#ga3c04138a5bfe5d72780bb7e82a18e627" target="_top" xlink:title=" ">
<polygon fill="white" stroke="black" points="0,-9.5 0,-28.5 41,-28.5 41,-9.5 0,-9.5"/>
<text text-anchor="middle" x="20.5" y="-16.5" font-family="Helvetica,sans-Serif" font-size="10.00">main</text>
</a>
</g>
</g>
<!-- Node6&#45;&gt;Node7 -->
<g id="edge6" class="edge">
<title>Node6&#45;&gt;Node7</title>
<path fill="none" stroke="midnightblue" d="M66.88,-19C57.87,-19 48.84,-19 41.24,-19"/>
<polygon fill="midnightblue" stroke="midnightblue" points="66.96,-22.5 76.96,-19 66.96,-15.5 66.96,-22.5"/>
</g>
<!-- Node9 -->
<g id="node9" class="node">
<title>Node9</title>
<g id="a_node9"><a xlink:href="group___groups.html#ga72c2d5ef943a89f829c08f6707e7669d" target="_top" xlink:title=" ">
<polygon fill="white" stroke="black" points="503,-0.5 503,-19.5 638,-19.5 638,-0.5 503,-0.5"/>
<text text-anchor="middle" x="570.5" y="-7.5" font-family="Helvetica,sans-Serif" font-size="10.00">operations_push_groups</text>
</a>
</g>
</g>
<!-- Node8&#45;&gt;Node9 -->
<g id="edge8" class="edge">
<title>Node8&#45;&gt;Node9</title>
<path fill="none" stroke="midnightblue" d="M663.75,-14.64C655.15,-14.21 646.51,-13.77 638.16,-13.35"/>
<polygon fill="midnightblue" stroke="midnightblue" points="663.65,-18.14 673.81,-15.14 664,-11.15 663.65,-18.14"/>
</g>
<!-- Node9&#45;&gt;Node2 -->
<g id="edge9" class="edge">
<title>Node9&#45;&gt;Node2</title>
<path fill="none" stroke="midnightblue" d="M504.67,-21.28C490.92,-23.67 476.54,-26.17 463.21,-28.49"/>
<polygon fill="midnightblue" stroke="midnightblue" points="505.29,-24.72 514.54,-19.56 504.09,-17.82 505.29,-24.72"/>
</g>
<!-- Node9&#45;&gt;Node9 -->
<g id="edge10" class="edge">
<title>Node9&#45;&gt;Node9</title>
<path fill="none" stroke="midnightblue" d="M600.81,-28.27C599.95,-33.74 589.85,-38 570.5,-38 541.71,-38 533.38,-28.57 545.53,-19.76"/>
<polygon fill="midnightblue" stroke="midnightblue" points="603.75,-26.37 595.47,-19.76 597.82,-30.09 603.75,-26.37"/>
</g>
</g>
</svg>
