<?xml version="1.0" encoding="UTF-8" standalone="no"?>
<!DOCTYPE svg PUBLIC "-//W3C//DTD SVG 1.1//EN"
 "http://www.w3.org/Graphics/SVG/1.1/DTD/svg11.dtd">
<!-- Generated by graphviz version 3.0.0 (0)
 -->
<!-- Title: engine_run Pages: 1 -->
<svg width="946pt" height="351pt"
 viewBox="0.00 0.00 946.00 351.00" xmlns="http://www.w3.org/2000/svg" xmlns:xlink="http://www.w3.org/1999/xlink">
<g id="graph0" class="graph" transform="scale(1 1) rotate(0) translate(4 347)">
<title>engine_run</title>
<polygon fill="white" stroke="transparent" points="-4,4 -4,-347 942,-347 942,4 -4,4"/>
<!-- Node1 -->
<g id="node1" class="node">
<title>Node1</title>
<g id="a_node1"><a xlink:title=" ">
<polygon fill="#bfbfbf" stroke="black" points="0,-95.5 0,-114.5 71,-114.5 71,-95.5 0,-95.5"/>
<text text-anchor="middle" x="35.5" y="-102.5" font-family="Helvetica,sans-Serif" font-size="10.00">engine_run</text>
</a>
</g>
</g>
<!-- Node2 -->
<g id="node2" class="node">
<title>Node2</title>
<g id="a_node2"><a xlink:href="group__engine.html#ga33e20b37682a0492a9e95d13bef17f02" target="_top" xlink:title=" ">
<polygon fill="white" stroke="black" points="135,-190.5 135,-209.5 207,-209.5 207,-190.5 135,-190.5"/>
<text text-anchor="middle" x="171" y="-197.5" font-family="Helvetica,sans-Serif" font-size="10.00">changeSize</text>
</a>
</g>
</g>
<!-- Node1&#45;&gt;Node2 -->
<g id="edge1" class="edge">
<title>Node1&#45;&gt;Node2</title>
<path fill="none" stroke="midnightblue" d="M42.88,-114.7C53.99,-130.84 78.45,-163.18 107,-181 112.53,-184.45 118.73,-187.31 125.02,-189.67"/>
<polygon fill="midnightblue" stroke="midnightblue" points="124.31,-193.12 134.91,-192.97 126.53,-186.48 124.31,-193.12"/>
</g>
<!-- Node3 -->
<g id="node3" class="node">
<title>Node3</title>
<g id="a_node3"><a xlink:href="group__input.html#gac7632fff72011e8c11ae504a4596a7f7" target="_top" xlink:title=" ">
<polygon fill="white" stroke="black" points="129,-76.5 129,-95.5 213,-95.5 213,-76.5 129,-76.5"/>
<text text-anchor="middle" x="171" y="-83.5" font-family="Helvetica,sans-Serif" font-size="10.00">keyboardFunc</text>
</a>
</g>
</g>
<!-- Node1&#45;&gt;Node3 -->
<g id="edge2" class="edge">
<title>Node1&#45;&gt;Node3</title>
<path fill="none" stroke="midnightblue" d="M71.23,-100.06C85.68,-98 102.75,-95.57 118.6,-93.32"/>
<polygon fill="midnightblue" stroke="midnightblue" points="119.4,-96.74 128.8,-91.86 118.41,-89.81 119.4,-96.74"/>
</g>
<!-- Node7 -->
<g id="node7" class="node">
<title>Node7</title>
<g id="a_node7"><a xlink:href="group__input.html#ga2bebb17428cb218231ad556de2a20ed6" target="_top" xlink:title=" ">
<polygon fill="white" stroke="black" points="134,-38.5 134,-57.5 208,-57.5 208,-38.5 134,-38.5"/>
<text text-anchor="middle" x="171" y="-45.5" font-family="Helvetica,sans-Serif" font-size="10.00">motionFunc</text>
</a>
</g>
</g>
<!-- Node1&#45;&gt;Node7 -->
<g id="edge6" class="edge">
<title>Node1&#45;&gt;Node7</title>
<path fill="none" stroke="midnightblue" d="M52.01,-95.46C66.01,-87.14 87.35,-75.16 107,-67 112.47,-64.73 118.32,-62.59 124.16,-60.64"/>
<polygon fill="midnightblue" stroke="midnightblue" points="125.45,-63.9 133.91,-57.52 123.32,-57.23 125.45,-63.9"/>
</g>
<!-- Node8 -->
<g id="node8" class="node">
<title>Node8</title>
<g id="a_node8"><a xlink:href="group__input.html#gad48076b61c0ddb6bd4fadf644bf59ff1" target="_top" xlink:title=" ">
<polygon fill="white" stroke="black" points="135,-0.5 135,-19.5 207,-19.5 207,-0.5 135,-0.5"/>
<text text-anchor="middle" x="171" y="-7.5" font-family="Helvetica,sans-Serif" font-size="10.00">mouseFunc</text>
</a>
</g>
</g>
<!-- Node1&#45;&gt;Node8 -->
<g id="edge8" class="edge">
<title>Node1&#45;&gt;Node8</title>
<path fill="none" stroke="midnightblue" d="M42.88,-95.3C53.99,-79.16 78.45,-46.82 107,-29 112.53,-25.55 118.73,-22.69 125.02,-20.33"/>
<polygon fill="midnightblue" stroke="midnightblue" points="126.53,-23.52 134.91,-17.03 124.31,-16.88 126.53,-23.52"/>
</g>
<!-- Node9 -->
<g id="node9" class="node">
<title>Node9</title>
<g id="a_node9"><a xlink:href="group__engine.html#ga91c42686f3245f22fb6b17ba5372d92c" target="_top" xlink:title=" ">
<polygon fill="white" stroke="black" points="132.5,-114.5 132.5,-133.5 209.5,-133.5 209.5,-114.5 132.5,-114.5"/>
<text text-anchor="middle" x="171" y="-121.5" font-family="Helvetica,sans-Serif" font-size="10.00">renderScene</text>
</a>
</g>
</g>
<!-- Node1&#45;&gt;Node9 -->
<g id="edge10" class="edge">
<title>Node1&#45;&gt;Node9</title>
<path fill="none" stroke="midnightblue" d="M71.23,-109.94C86.71,-112.15 105.2,-114.78 121.98,-117.17"/>
<polygon fill="midnightblue" stroke="midnightblue" points="121.77,-120.67 132.16,-118.62 122.76,-113.74 121.77,-120.67"/>
</g>
<!-- Node17 -->
<g id="node17" class="node">
<title>Node17</title>
<g id="a_node17"><a xlink:href="group__engine.html#ga2b6a8884687b3fe271b099a450a82d24" target="_top" xlink:title=" ">
<polygon fill="white" stroke="black" points="107,-152.5 107,-171.5 235,-171.5 235,-152.5 107,-152.5"/>
<text text-anchor="middle" x="171" y="-159.5" font-family="Helvetica,sans-Serif" font-size="10.00">xml_load_and_set_env</text>
</a>
</g>
</g>
<!-- Node1&#45;&gt;Node17 -->
<g id="edge18" class="edge">
<title>Node1&#45;&gt;Node17</title>
<path fill="none" stroke="midnightblue" d="M52.01,-114.54C66.01,-122.86 87.35,-134.84 107,-143 112.47,-145.27 118.32,-147.41 124.16,-149.36"/>
<polygon fill="midnightblue" stroke="midnightblue" points="123.32,-152.77 133.91,-152.48 125.45,-146.1 123.32,-152.77"/>
</g>
<!-- Node4 -->
<g id="node4" class="node">
<title>Node4</title>
<g id="a_node4"><a xlink:href="group__engine.html#ga8679d9b303f36964bf51dba0993caeaa" target="_top" xlink:title=" ">
<polygon fill="white" stroke="black" points="277.5,-133.5 277.5,-152.5 383.5,-152.5 383.5,-133.5 277.5,-133.5"/>
<text text-anchor="middle" x="330.5" y="-140.5" font-family="Helvetica,sans-Serif" font-size="10.00">env_load_defaults</text>
</a>
</g>
</g>
<!-- Node3&#45;&gt;Node4 -->
<g id="edge3" class="edge">
<title>Node3&#45;&gt;Node4</title>
<path fill="none" stroke="midnightblue" d="M208.07,-95.57C216.99,-98.3 226.44,-101.49 235,-105 251.74,-111.87 254.34,-116.96 271,-124 276.1,-126.16 281.54,-128.22 286.97,-130.14"/>
<polygon fill="midnightblue" stroke="midnightblue" points="286.05,-133.52 296.65,-133.42 288.3,-126.89 286.05,-133.52"/>
</g>
<!-- Node5 -->
<g id="node5" class="node">
<title>Node5</title>
<g id="a_node5"><a xlink:href="group__engine.html#gab9813926390dc5773baf0b20dc2ea16e" target="_top" xlink:title=" ">
<polygon fill="white" stroke="black" points="299.5,-19.5 299.5,-38.5 361.5,-38.5 361.5,-19.5 299.5,-19.5"/>
<text text-anchor="middle" x="330.5" y="-26.5" font-family="Helvetica,sans-Serif" font-size="10.00">redisplay</text>
</a>
</g>
</g>
<!-- Node3&#45;&gt;Node5 -->
<g id="edge4" class="edge">
<title>Node3&#45;&gt;Node5</title>
<path fill="none" stroke="midnightblue" d="M208.07,-76.43C216.99,-73.7 226.44,-70.51 235,-67 251.74,-60.13 254.34,-55.04 271,-48 276.94,-45.49 283.33,-43.11 289.63,-40.93"/>
<polygon fill="midnightblue" stroke="midnightblue" points="290.99,-44.17 299.38,-37.69 288.78,-37.52 290.99,-44.17"/>
</g>
<!-- Node6 -->
<g id="node6" class="node">
<title>Node6</title>
<g id="a_node6"><a xlink:href="group__spherical.html#gab5ff5216bffd1e15798677f24213213d" target="_top" xlink:title=" ">
<polygon fill="white" stroke="black" points="437,-19.5 437,-38.5 550,-38.5 550,-19.5 437,-19.5"/>
<text text-anchor="middle" x="493.5" y="-26.5" font-family="Helvetica,sans-Serif" font-size="10.00">spherical2Cartesian</text>
</a>
</g>
</g>
<!-- Node5&#45;&gt;Node6 -->
<g id="edge5" class="edge">
<title>Node5&#45;&gt;Node6</title>
<path fill="none" stroke="midnightblue" d="M361.78,-29C380.11,-29 404.22,-29 426.73,-29"/>
<polygon fill="midnightblue" stroke="midnightblue" points="426.94,-32.5 436.94,-29 426.94,-25.5 426.94,-32.5"/>
</g>
<!-- Node7&#45;&gt;Node5 -->
<g id="edge7" class="edge">
<title>Node7&#45;&gt;Node5</title>
<path fill="none" stroke="midnightblue" d="M208.13,-43.64C232.29,-40.73 264.11,-36.89 289.1,-33.87"/>
<polygon fill="midnightblue" stroke="midnightblue" points="289.84,-37.31 299.35,-32.64 289.01,-30.36 289.84,-37.31"/>
</g>
<!-- Node8&#45;&gt;Node5 -->
<g id="edge9" class="edge">
<title>Node8&#45;&gt;Node5</title>
<path fill="none" stroke="midnightblue" d="M207.35,-14.26C231.66,-17.2 264,-21.1 289.29,-24.15"/>
<polygon fill="midnightblue" stroke="midnightblue" points="288.96,-27.64 299.31,-25.36 289.8,-20.69 288.96,-27.64"/>
</g>
<!-- Node10 -->
<g id="node10" class="node">
<title>Node10</title>
<g id="a_node10"><a xlink:href="engine_8cpp.html#a634dba686e70e7ff3f10c37d11f463da" target="_top" xlink:title=" ">
<polygon fill="white" stroke="black" points="296,-95.5 296,-114.5 365,-114.5 365,-95.5 296,-95.5"/>
<text text-anchor="middle" x="330.5" y="-102.5" font-family="Helvetica,sans-Serif" font-size="10.00">draw_axes</text>
</a>
</g>
</g>
<!-- Node9&#45;&gt;Node10 -->
<g id="edge11" class="edge">
<title>Node9&#45;&gt;Node10</title>
<path fill="none" stroke="midnightblue" d="M209.73,-119.45C232.56,-116.69 261.77,-113.17 285.63,-110.29"/>
<polygon fill="midnightblue" stroke="midnightblue" points="286.32,-113.73 295.83,-109.06 285.49,-106.78 286.32,-113.73"/>
</g>
<!-- Node11 -->
<g id="node11" class="node">
<title>Node11</title>
<g id="a_node11"><a xlink:href="group___operations.html#ga887f20c10a27832ea24178203a47fcc2" target="_top" xlink:title=" ">
<polygon fill="white" stroke="black" points="278,-171.5 278,-190.5 383,-190.5 383,-171.5 278,-171.5"/>
<text text-anchor="middle" x="330.5" y="-178.5" font-family="Helvetica,sans-Serif" font-size="10.00">operations_render</text>
</a>
</g>
</g>
<!-- Node9&#45;&gt;Node11 -->
<g id="edge12" class="edge">
<title>Node9&#45;&gt;Node11</title>
<path fill="none" stroke="midnightblue" d="M208.07,-133.57C216.99,-136.3 226.44,-139.49 235,-143 251.74,-149.87 254.34,-154.96 271,-162 276.1,-164.16 281.54,-166.22 286.97,-168.14"/>
<polygon fill="midnightblue" stroke="midnightblue" points="286.05,-171.52 296.65,-171.42 288.3,-164.89 286.05,-171.52"/>
</g>
<!-- Node16 -->
<g id="node16" class="node">
<title>Node16</title>
<g id="a_node16"><a xlink:href="group__engine.html#gaf049ec1caddd7a032fc8b48641e12f1e" target="_top" xlink:title=" ">
<polygon fill="white" stroke="black" points="278.5,-57.5 278.5,-76.5 382.5,-76.5 382.5,-57.5 278.5,-57.5"/>
<text text-anchor="middle" x="330.5" y="-64.5" font-family="Helvetica,sans-Serif" font-size="10.00">renderGreenPlane</text>
</a>
</g>
</g>
<!-- Node9&#45;&gt;Node16 -->
<g id="edge17" class="edge">
<title>Node9&#45;&gt;Node16</title>
<path fill="none" stroke="midnightblue" d="M208.07,-114.43C216.99,-111.7 226.44,-108.51 235,-105 251.74,-98.13 254.34,-93.04 271,-86 276.1,-83.84 281.54,-81.78 286.97,-79.86"/>
<polygon fill="midnightblue" stroke="midnightblue" points="288.3,-83.11 296.65,-76.58 286.05,-76.48 288.3,-83.11"/>
</g>
<!-- Node12 -->
<g id="node12" class="node">
<title>Node12</title>
<g id="a_node12"><a xlink:href="group__model_engine.html#ga56beba311d0a6fcbda9aeb516fe67f8f" target="_top" xlink:title=" ">
<polygon fill="white" stroke="black" points="458.5,-95.5 458.5,-114.5 528.5,-114.5 528.5,-95.5 458.5,-95.5"/>
<text text-anchor="middle" x="493.5" y="-102.5" font-family="Helvetica,sans-Serif" font-size="10.00">allocModel</text>
</a>
</g>
</g>
<!-- Node11&#45;&gt;Node12 -->
<g id="edge13" class="edge">
<title>Node11&#45;&gt;Node12</title>
<path fill="none" stroke="midnightblue" d="M370.18,-171.47C377.06,-168.94 383.95,-165.82 390,-162 409.67,-149.58 406.11,-136.07 426,-124 432.86,-119.84 440.66,-116.56 448.46,-113.98"/>
<polygon fill="midnightblue" stroke="midnightblue" points="449.66,-117.27 458.25,-111.07 447.67,-110.56 449.66,-117.27"/>
</g>
<!-- Node13 -->
<g id="node13" class="node">
<title>Node13</title>
<g id="a_node13"><a xlink:href="group__spherical.html#ga2a22d15f7463ccd8f8d1aa65e7578983" target="_top" xlink:title=" ">
<polygon fill="white" stroke="black" points="437,-209.5 437,-228.5 550,-228.5 550,-209.5 437,-209.5"/>
<text text-anchor="middle" x="493.5" y="-216.5" font-family="Helvetica,sans-Serif" font-size="10.00">cartesian2Spherical</text>
</a>
</g>
</g>
<!-- Node11&#45;&gt;Node13 -->
<g id="edge14" class="edge">
<title>Node11&#45;&gt;Node13</title>
<path fill="none" stroke="midnightblue" d="M372.13,-190.59C393.47,-195.63 419.81,-201.84 442.41,-207.18"/>
<polygon fill="midnightblue" stroke="midnightblue" points="441.63,-210.59 452.17,-209.48 443.24,-203.78 441.63,-210.59"/>
</g>
<!-- Node14 -->
<g id="node14" class="node">
<title>Node14</title>
<g id="a_node14"><a xlink:href="group__model_engine.html#gae7de75a0850ac9069b4a3710b63a102c" target="_top" xlink:title=" ">
<polygon fill="white" stroke="black" points="454.5,-171.5 454.5,-190.5 532.5,-190.5 532.5,-171.5 454.5,-171.5"/>
<text text-anchor="middle" x="493.5" y="-178.5" font-family="Helvetica,sans-Serif" font-size="10.00">renderModel</text>
</a>
</g>
</g>
<!-- Node11&#45;&gt;Node14 -->
<g id="edge15" class="edge">
<title>Node11&#45;&gt;Node14</title>
<path fill="none" stroke="midnightblue" d="M383.33,-181C402.89,-181 425.04,-181 444.26,-181"/>
<polygon fill="midnightblue" stroke="midnightblue" points="444.3,-184.5 454.3,-181 444.3,-177.5 444.3,-184.5"/>
</g>
<!-- Node15 -->
<g id="node15" class="node">
<title>Node15</title>
<g id="a_node15"><a xlink:href="group__engine.html#ga260fbd3d70764684657bbf1a617ddf99" target="_top" xlink:title=" ">
<polygon fill="white" stroke="black" points="456.5,-133.5 456.5,-152.5 530.5,-152.5 530.5,-133.5 456.5,-133.5"/>
<text text-anchor="middle" x="493.5" y="-140.5" font-family="Helvetica,sans-Serif" font-size="10.00">vbo_indices</text>
</a>
</g>
</g>
<!-- Node11&#45;&gt;Node15 -->
<g id="edge16" class="edge">
<title>Node11&#45;&gt;Node15</title>
<path fill="none" stroke="midnightblue" d="M372.13,-171.41C394.69,-166.09 422.83,-159.44 446.24,-153.92"/>
<polygon fill="midnightblue" stroke="midnightblue" points="447.35,-157.25 456.28,-151.55 445.74,-150.44 447.35,-157.25"/>
</g>
<!-- Node17&#45;&gt;Node4 -->
<g id="edge19" class="edge">
<title>Node17&#45;&gt;Node4</title>
<path fill="none" stroke="midnightblue" d="M235.15,-154.38C245.79,-153.1 256.82,-151.77 267.43,-150.49"/>
<polygon fill="midnightblue" stroke="midnightblue" points="267.94,-153.95 277.44,-149.28 267.1,-147 267.94,-153.95"/>
</g>
<!-- Node17&#45;&gt;Node11 -->
<g id="edge28" class="edge">
<title>Node17&#45;&gt;Node11</title>
<path fill="none" stroke="midnightblue" d="M235.15,-169.62C245.92,-170.92 257.09,-172.26 267.82,-173.56"/>
<polygon fill="midnightblue" stroke="midnightblue" points="267.59,-177.06 277.94,-174.78 268.43,-170.11 267.59,-177.06"/>
</g>
<!-- Node18 -->
<g id="node18" class="node">
<title>Node18</title>
<g id="a_node18"><a xlink:href="group__xml.html#gac937a83a82258806ef77b02f97ef0834" target="_top" xlink:title=" ">
<polygon fill="white" stroke="black" points="271,-247.5 271,-266.5 390,-266.5 390,-247.5 271,-247.5"/>
<text text-anchor="middle" x="330.5" y="-254.5" font-family="Helvetica,sans-Serif" font-size="10.00">operations_load_xml</text>
</a>
</g>
</g>
<!-- Node17&#45;&gt;Node18 -->
<g id="edge20" class="edge">
<title>Node17&#45;&gt;Node18</title>
<path fill="none" stroke="midnightblue" d="M211.91,-171.5C219.78,-174.07 227.82,-177.22 235,-181 265.2,-196.92 295.06,-223.17 312.89,-240.27"/>
<polygon fill="midnightblue" stroke="midnightblue" points="310.6,-242.92 320.2,-247.41 315.49,-237.92 310.6,-242.92"/>
</g>
<!-- Node19 -->
<g id="node19" class="node">
<title>Node19</title>
<g id="a_node19"><a xlink:href="group___groups.html#ga72c2d5ef943a89f829c08f6707e7669d" target="_top" xlink:title=" ">
<polygon fill="white" stroke="black" points="426,-285.5 426,-304.5 561,-304.5 561,-285.5 426,-285.5"/>
<text text-anchor="middle" x="493.5" y="-292.5" font-family="Helvetica,sans-Serif" font-size="10.00">operations_push_groups</text>
</a>
</g>
</g>
<!-- Node18&#45;&gt;Node19 -->
<g id="edge21" class="edge">
<title>Node18&#45;&gt;Node19</title>
<path fill="none" stroke="midnightblue" d="M372.13,-266.59C393.47,-271.63 419.81,-277.84 442.41,-283.18"/>
<polygon fill="midnightblue" stroke="midnightblue" points="441.63,-286.59 452.17,-285.48 443.24,-279.78 441.63,-286.59"/>
</g>
<!-- Node23 -->
<g id="node23" class="node">
<title>Node23</title>
<g id="a_node23"><a xlink:href="group___transforms.html#gaa15fe56d7980e7877845f3bc09125017" target="_top" xlink:title=" ">
<polygon fill="white" stroke="black" points="788,-258 788,-288 938,-288 938,-258 788,-258"/>
<text text-anchor="start" x="796" y="-276" font-family="Helvetica,sans-Serif" font-size="10.00">operations_push_transform</text>
<text text-anchor="middle" x="863" y="-265" font-family="Helvetica,sans-Serif" font-size="10.00">_attributes</text>
</a>
</g>
</g>
<!-- Node18&#45;&gt;Node23 -->
<g id="edge27" class="edge">
<title>Node18&#45;&gt;Node23</title>
<path fill="none" stroke="midnightblue" d="M390.04,-258.77C484.02,-261.6 668.95,-267.18 777.32,-270.45"/>
<polygon fill="midnightblue" stroke="midnightblue" points="777.46,-273.95 787.56,-270.75 777.67,-266.95 777.46,-273.95"/>
</g>
<!-- Node19&#45;&gt;Node19 -->
<g id="edge22" class="edge">
<title>Node19&#45;&gt;Node19</title>
<path fill="none" stroke="midnightblue" d="M468.53,-304.76C456.38,-313.57 464.71,-323 493.5,-323 512.85,-323 522.95,-318.74 523.81,-313.27"/>
<polygon fill="midnightblue" stroke="midnightblue" points="526.75,-311.37 518.47,-304.76 520.82,-315.09 526.75,-311.37"/>
</g>
<!-- Node20 -->
<g id="node20" class="node">
<title>Node20</title>
<g id="a_node20"><a xlink:href="group___models.html#gaca17d77a06e750f5cd95c1b79e1a8a30" target="_top" xlink:title=" ">
<polygon fill="white" stroke="black" points="605.5,-323.5 605.5,-342.5 743.5,-342.5 743.5,-323.5 605.5,-323.5"/>
<text text-anchor="middle" x="674.5" y="-330.5" font-family="Helvetica,sans-Serif" font-size="10.00">operations_push_models</text>
</a>
</g>
</g>
<!-- Node19&#45;&gt;Node20 -->
<g id="edge23" class="edge">
<title>Node19&#45;&gt;Node20</title>
<path fill="none" stroke="midnightblue" d="M539.67,-304.59C563.72,-309.69 593.47,-316.01 618.82,-321.39"/>
<polygon fill="midnightblue" stroke="midnightblue" points="618.15,-324.83 628.66,-323.48 619.6,-317.98 618.15,-324.83"/>
</g>
<!-- Node22 -->
<g id="node22" class="node">
<title>Node22</title>
<g id="a_node22"><a xlink:href="group___transforms.html#gaaa78b92f0257bb4755731622692de0cb" target="_top" xlink:title=" ">
<polygon fill="white" stroke="black" points="597,-285.5 597,-304.5 752,-304.5 752,-285.5 597,-285.5"/>
<text text-anchor="middle" x="674.5" y="-292.5" font-family="Helvetica,sans-Serif" font-size="10.00">operations_push_transforms</text>
</a>
</g>
</g>
<!-- Node19&#45;&gt;Node22 -->
<g id="edge25" class="edge">
<title>Node19&#45;&gt;Node22</title>
<path fill="none" stroke="midnightblue" d="M561.15,-295C569.51,-295 578.16,-295 586.77,-295"/>
<polygon fill="midnightblue" stroke="midnightblue" points="586.84,-298.5 596.84,-295 586.84,-291.5 586.84,-298.5"/>
</g>
<!-- Node21 -->
<g id="node21" class="node">
<title>Node21</title>
<g id="a_node21"><a xlink:href="group___models.html#ga5dc84f3f40c0bb6ad63dc2da3793ddd9" target="_top" xlink:title=" ">
<polygon fill="white" stroke="black" points="796.5,-323.5 796.5,-342.5 929.5,-342.5 929.5,-323.5 796.5,-323.5"/>
<text text-anchor="middle" x="863" y="-330.5" font-family="Helvetica,sans-Serif" font-size="10.00">operations_push_model</text>
</a>
</g>
</g>
<!-- Node20&#45;&gt;Node21 -->
<g id="edge24" class="edge">
<title>Node20&#45;&gt;Node21</title>
<path fill="none" stroke="midnightblue" d="M743.62,-333C757.44,-333 772.05,-333 786.11,-333"/>
<polygon fill="midnightblue" stroke="midnightblue" points="786.24,-336.5 796.24,-333 786.24,-329.5 786.24,-336.5"/>
</g>
<!-- Node22&#45;&gt;Node23 -->
<g id="edge26" class="edge">
<title>Node22&#45;&gt;Node23</title>
<path fill="none" stroke="midnightblue" d="M752.16,-285.96C760.61,-284.96 769.25,-283.94 777.78,-282.93"/>
<polygon fill="midnightblue" stroke="midnightblue" points="778.22,-286.41 787.74,-281.76 777.4,-279.46 778.22,-286.41"/>
</g>
</g>
</svg>
