<?xml version="1.0" encoding="UTF-8" standalone="no"?>
<!DOCTYPE svg PUBLIC "-//W3C//DTD SVG 1.1//EN"
 "http://www.w3.org/Graphics/SVG/1.1/DTD/svg11.dtd">
<!-- Generated by graphviz version 3.0.0 (0)
 -->
<!-- Title: operations_render Pages: 1 -->
<svg width="762pt" height="484pt"
 viewBox="0.00 0.00 762.00 484.00" xmlns="http://www.w3.org/2000/svg" xmlns:xlink="http://www.w3.org/1999/xlink">
<g id="graph0" class="graph" transform="scale(1 1) rotate(0) translate(4 480)">
<title>operations_render</title>
<polygon fill="white" stroke="transparent" points="-4,4 -4,-480 758,-480 758,4 -4,4"/>
<!-- Node1 -->
<g id="node1" class="node">
<title>Node1</title>
<g id="a_node1"><a xlink:title=" ">
<polygon fill="#bfbfbf" stroke="black" points="0,-228.5 0,-247.5 105,-247.5 105,-228.5 0,-228.5"/>
<text text-anchor="middle" x="52.5" y="-235.5" font-family="Helvetica,sans-Serif" font-size="10.00">operations_render</text>
</a>
</g>
</g>
<!-- Node2 -->
<g id="node2" class="node">
<title>Node2</title>
<g id="a_node2"><a xlink:href="group__model_engine.html#ga2ca8791f2c1829e3df5d449129d21c32" target="_top" xlink:title=" ">
<polygon fill="white" stroke="black" points="141,-456.5 141,-475.5 283,-475.5 283,-456.5 141,-456.5"/>
<text text-anchor="middle" x="212" y="-463.5" font-family="Helvetica,sans-Serif" font-size="10.00">addTextureImageToModel</text>
</a>
</g>
</g>
<!-- Node1&#45;&gt;Node2 -->
<g id="edge1" class="edge">
<title>Node1&#45;&gt;Node2</title>
<path fill="none" stroke="midnightblue" d="M54.56,-247.61C58.74,-280.71 77.1,-391 141,-447 142.95,-448.71 145.03,-450.26 147.22,-451.68"/>
<polygon fill="midnightblue" stroke="midnightblue" points="145.65,-454.81 156.11,-456.49 148.98,-448.65 145.65,-454.81"/>
</g>
<!-- Node3 -->
<g id="node3" class="node">
<title>Node3</title>
<g id="a_node3"><a xlink:href="curves_8cpp.html#a821c8cbf0a47b918c60a4912b733e6bd" target="_top" xlink:title=" ">
<polygon fill="white" stroke="black" points="160,-418.5 160,-437.5 264,-437.5 264,-418.5 160,-418.5"/>
<text text-anchor="middle" x="212" y="-425.5" font-family="Helvetica,sans-Serif" font-size="10.00">advance_in_curve</text>
</a>
</g>
</g>
<!-- Node1&#45;&gt;Node3 -->
<g id="edge2" class="edge">
<title>Node1&#45;&gt;Node3</title>
<path fill="none" stroke="midnightblue" d="M55.59,-247.88C62.35,-277.25 86.35,-364.68 141,-409 143.96,-411.4 147.2,-413.5 150.61,-415.34"/>
<polygon fill="midnightblue" stroke="midnightblue" points="149.42,-418.64 159.97,-419.6 152.32,-412.27 149.42,-418.64"/>
</g>
<!-- Node8 -->
<g id="node8" class="node">
<title>Node8</title>
<g id="a_node8"><a xlink:href="engine_8cpp.html#a072c434cfd125e58ac1cec9a5725688a" target="_top" xlink:title=" ">
<polygon fill="white" stroke="black" points="154,-380.5 154,-399.5 270,-399.5 270,-380.5 154,-380.5"/>
<text text-anchor="middle" x="212" y="-387.5" font-family="Helvetica,sans-Serif" font-size="10.00">advance_in_rotation</text>
</a>
</g>
</g>
<!-- Node1&#45;&gt;Node8 -->
<g id="edge7" class="edge">
<title>Node1&#45;&gt;Node8</title>
<path fill="none" stroke="midnightblue" d="M57.07,-247.77C66.61,-272.47 95.12,-337.76 141,-371 143.7,-372.96 146.6,-374.71 149.61,-376.29"/>
<polygon fill="midnightblue" stroke="midnightblue" points="148.4,-379.58 158.95,-380.49 151.27,-373.2 148.4,-379.58"/>
</g>
<!-- Node9 -->
<g id="node9" class="node">
<title>Node9</title>
<g id="a_node9"><a xlink:href="namespace_d.html#a393bfec992f13a40a9f601e3e6c82874" target="_top" xlink:title=" ">
<polygon fill="white" stroke="black" points="174.5,-342.5 174.5,-361.5 249.5,-361.5 249.5,-342.5 174.5,-342.5"/>
<text text-anchor="middle" x="212" y="-349.5" font-family="Helvetica,sans-Serif" font-size="10.00">D::cartesian</text>
</a>
</g>
</g>
<!-- Node1&#45;&gt;Node9 -->
<g id="edge8" class="edge">
<title>Node1&#45;&gt;Node9</title>
<path fill="none" stroke="midnightblue" d="M59.67,-247.75C72.42,-267.06 103.63,-310.3 141,-333 148.12,-337.32 156.23,-340.68 164.34,-343.28"/>
<polygon fill="midnightblue" stroke="midnightblue" points="163.6,-346.71 174.18,-346.09 165.52,-339.98 163.6,-346.71"/>
</g>
<!-- Node10 -->
<g id="node10" class="node">
<title>Node10</title>
<g id="a_node10"><a xlink:href="group__explorer_camera.html#ga2bd01f833407b47f26121736925e24fc" target="_top" xlink:title=" ">
<polygon fill="white" stroke="black" points="155.5,-304.5 155.5,-323.5 268.5,-323.5 268.5,-304.5 155.5,-304.5"/>
<text text-anchor="middle" x="212" y="-311.5" font-family="Helvetica,sans-Serif" font-size="10.00">cartesian2Spherical</text>
</a>
</g>
</g>
<!-- Node1&#45;&gt;Node10 -->
<g id="edge9" class="edge">
<title>Node1&#45;&gt;Node10</title>
<path fill="none" stroke="midnightblue" d="M65.54,-247.61C81.79,-260.15 112.05,-282.03 141,-295 146.3,-297.37 151.96,-299.51 157.69,-301.42"/>
<polygon fill="midnightblue" stroke="midnightblue" points="156.73,-304.78 167.32,-304.41 158.81,-298.1 156.73,-304.78"/>
</g>
<!-- Node11 -->
<g id="node11" class="node">
<title>Node11</title>
<g id="a_node11"><a xlink:href="group__model_engine.html#gac02eaf37d06ce4074af34bcf4c2ebec6" target="_top" xlink:title=" ">
<polygon fill="white" stroke="black" points="181,-266.5 181,-285.5 243,-285.5 243,-266.5 181,-266.5"/>
<text text-anchor="middle" x="212" y="-273.5" font-family="Helvetica,sans-Serif" font-size="10.00">getModel</text>
</a>
</g>
</g>
<!-- Node1&#45;&gt;Node11 -->
<g id="edge10" class="edge">
<title>Node1&#45;&gt;Node11</title>
<path fill="none" stroke="midnightblue" d="M93.24,-247.59C117.01,-253.32 147.11,-260.58 170.93,-266.33"/>
<polygon fill="midnightblue" stroke="midnightblue" points="170.17,-269.75 180.71,-268.69 171.81,-262.95 170.17,-269.75"/>
</g>
<!-- Node12 -->
<g id="node12" class="node">
<title>Node12</title>
<g id="a_node12"><a xlink:href="namespace_d.html#ae27403f76d7334ff69a099e42f1f1616" target="_top" xlink:title=" ">
<polygon fill="white" stroke="black" points="183,-228.5 183,-247.5 241,-247.5 241,-228.5 183,-228.5"/>
<text text-anchor="middle" x="212" y="-235.5" font-family="Helvetica,sans-Serif" font-size="10.00">D::origin</text>
</a>
</g>
</g>
<!-- Node1&#45;&gt;Node12 -->
<g id="edge11" class="edge">
<title>Node1&#45;&gt;Node12</title>
<path fill="none" stroke="midnightblue" d="M105.07,-238C127.07,-238 152.3,-238 172.62,-238"/>
<polygon fill="midnightblue" stroke="midnightblue" points="172.75,-241.5 182.75,-238 172.75,-234.5 172.75,-241.5"/>
</g>
<!-- Node13 -->
<g id="node13" class="node">
<title>Node13</title>
<g id="a_node13"><a xlink:href="namespace_d.html#aa2fb96ccebb5bf88d4325f85beb99d84" target="_top" xlink:title="(radius,zenith,azimuth)">
<polygon fill="white" stroke="black" points="184.5,-190.5 184.5,-209.5 239.5,-209.5 239.5,-190.5 184.5,-190.5"/>
<text text-anchor="middle" x="212" y="-197.5" font-family="Helvetica,sans-Serif" font-size="10.00">D::polar</text>
</a>
</g>
</g>
<!-- Node1&#45;&gt;Node13 -->
<g id="edge12" class="edge">
<title>Node1&#45;&gt;Node13</title>
<path fill="none" stroke="midnightblue" d="M93.24,-228.41C118.12,-222.41 149.95,-214.73 174.24,-208.87"/>
<polygon fill="midnightblue" stroke="midnightblue" points="175.25,-212.23 184.15,-206.48 173.61,-205.42 175.25,-212.23"/>
</g>
<!-- Node14 -->
<g id="node14" class="node">
<title>Node14</title>
<g id="a_node14"><a xlink:href="namespace_d.html#a49b3788c9a2aae032c6c74d76441aa18" target="_top" xlink:title="(fov,near,var)">
<polygon fill="white" stroke="black" points="172.5,-152.5 172.5,-171.5 251.5,-171.5 251.5,-152.5 172.5,-152.5"/>
<text text-anchor="middle" x="212" y="-159.5" font-family="Helvetica,sans-Serif" font-size="10.00">D::projection</text>
</a>
</g>
</g>
<!-- Node1&#45;&gt;Node14 -->
<g id="edge13" class="edge">
<title>Node1&#45;&gt;Node14</title>
<path fill="none" stroke="midnightblue" d="M65.54,-228.39C81.79,-215.85 112.05,-193.97 141,-181 147.87,-177.92 155.35,-175.24 162.78,-172.95"/>
<polygon fill="midnightblue" stroke="midnightblue" points="163.83,-176.29 172.47,-170.15 161.89,-169.56 163.83,-176.29"/>
</g>
<!-- Node15 -->
<g id="node15" class="node">
<title>Node15</title>
<g id="a_node15"><a xlink:href="curves_8cpp.html#ad812fc50a0384335487e258a6f61714e" target="_top" xlink:title=" ">
<polygon fill="white" stroke="black" points="342,-247.5 342,-266.5 419,-266.5 419,-247.5 342,-247.5"/>
<text text-anchor="middle" x="380.5" y="-254.5" font-family="Helvetica,sans-Serif" font-size="10.00">renderCurve</text>
</a>
</g>
</g>
<!-- Node1&#45;&gt;Node15 -->
<g id="edge14" class="edge">
<title>Node1&#45;&gt;Node15</title>
<path fill="none" stroke="midnightblue" d="M58.68,-228.33C70.23,-207.91 100.34,-160.83 141,-143 198.8,-117.66 225.74,-116.45 283,-143 325.35,-162.63 355.85,-211.02 370.23,-238.02"/>
<polygon fill="midnightblue" stroke="midnightblue" points="367.27,-239.91 374.94,-247.21 373.5,-236.72 367.27,-239.91"/>
</g>
<!-- Node16 -->
<g id="node16" class="node">
<title>Node16</title>
<g id="a_node16"><a xlink:href="group__model_engine.html#ga2907e4adf4f2bef2c8ce416cb8470997" target="_top" xlink:title=" ">
<polygon fill="white" stroke="black" points="173,-76.5 173,-95.5 251,-95.5 251,-76.5 173,-76.5"/>
<text text-anchor="middle" x="212" y="-83.5" font-family="Helvetica,sans-Serif" font-size="10.00">renderModel</text>
</a>
</g>
</g>
<!-- Node1&#45;&gt;Node16 -->
<g id="edge16" class="edge">
<title>Node1&#45;&gt;Node16</title>
<path fill="none" stroke="midnightblue" d="M57.46,-228.42C67.69,-204.8 97.31,-143.26 141,-110 147.61,-104.97 155.35,-100.94 163.23,-97.74"/>
<polygon fill="midnightblue" stroke="midnightblue" points="164.65,-100.95 172.84,-94.23 162.25,-94.38 164.65,-100.95"/>
</g>
<!-- Node17 -->
<g id="node17" class="node">
<title>Node17</title>
<g id="a_node17"><a xlink:href="namespace_d.html#a1ccd692563b2bed3dbd7275b0bd3dbb3" target="_top" xlink:title=" ">
<polygon fill="white" stroke="black" points="184,-38.5 184,-57.5 240,-57.5 240,-38.5 184,-38.5"/>
<text text-anchor="middle" x="212" y="-45.5" font-family="Helvetica,sans-Serif" font-size="10.00">D::scale</text>
</a>
</g>
</g>
<!-- Node1&#45;&gt;Node17 -->
<g id="edge17" class="edge">
<title>Node1&#45;&gt;Node17</title>
<path fill="none" stroke="midnightblue" d="M55.59,-228.12C62.35,-198.75 86.35,-111.32 141,-67 150.3,-59.45 162.36,-54.89 173.84,-52.14"/>
<polygon fill="midnightblue" stroke="midnightblue" points="174.58,-55.56 183.69,-50.16 173.2,-48.7 174.58,-55.56"/>
</g>
<!-- Node18 -->
<g id="node18" class="node">
<title>Node18</title>
<g id="a_node18"><a xlink:href="namespace_d.html#a075a76915f7e2899933f446de8be40d9" target="_top" xlink:title=" ">
<polygon fill="white" stroke="black" points="191,-0.5 191,-19.5 233,-19.5 233,-0.5 191,-0.5"/>
<text text-anchor="middle" x="212" y="-7.5" font-family="Helvetica,sans-Serif" font-size="10.00">D::up</text>
</a>
</g>
</g>
<!-- Node1&#45;&gt;Node18 -->
<g id="edge18" class="edge">
<title>Node1&#45;&gt;Node18</title>
<path fill="none" stroke="midnightblue" d="M54.56,-228.39C58.74,-195.29 77.1,-85 141,-29 152.02,-19.34 167.48,-14.54 181.07,-12.17"/>
<polygon fill="midnightblue" stroke="midnightblue" points="181.57,-15.64 190.99,-10.8 180.61,-8.7 181.57,-15.64"/>
</g>
<!-- Node4 -->
<g id="node4" class="node">
<title>Node4</title>
<g id="a_node4"><a xlink:href="curves_8cpp.html#a98b26a4263f61db7149441a99a6d35b6" target="_top" xlink:title=" ">
<polygon fill="white" stroke="black" points="319,-351.5 319,-370.5 442,-370.5 442,-351.5 319,-351.5"/>
<text text-anchor="middle" x="380.5" y="-358.5" font-family="Helvetica,sans-Serif" font-size="10.00">align_global_pos_mat</text>
</a>
</g>
</g>
<!-- Node3&#45;&gt;Node4 -->
<g id="edge3" class="edge">
<title>Node3&#45;&gt;Node4</title>
<path fill="none" stroke="midnightblue" d="M253.41,-418.48C263.22,-415.78 273.58,-412.58 283,-409 307.84,-399.56 334.81,-385.82 353.91,-375.46"/>
<polygon fill="midnightblue" stroke="midnightblue" points="355.79,-378.42 362.87,-370.53 352.42,-372.29 355.79,-378.42"/>
</g>
<!-- Node5 -->
<g id="node5" class="node">
<title>Node5</title>
<g id="a_node5"><a xlink:href="curves_8cpp.html#af7cd8d9b34a073c2fd2d7d8187bcff42" target="_top" xlink:title=" ">
<polygon fill="white" stroke="black" points="478,-266.5 478,-285.5 608,-285.5 608,-266.5 478,-266.5"/>
<text text-anchor="middle" x="543" y="-273.5" font-family="Helvetica,sans-Serif" font-size="10.00">get_curve_global_point</text>
</a>
</g>
</g>
<!-- Node4&#45;&gt;Node5 -->
<g id="edge4" class="edge">
<title>Node4&#45;&gt;Node5</title>
<path fill="none" stroke="midnightblue" d="M399.6,-351.41C427.66,-336.56 481.82,-307.87 514.66,-290.48"/>
<polygon fill="midnightblue" stroke="midnightblue" points="516.52,-293.45 523.72,-285.68 513.25,-287.27 516.52,-293.45"/>
</g>
<!-- Node6 -->
<g id="node6" class="node">
<title>Node6</title>
<g id="a_node6"><a xlink:href="curves_8cpp.html#afa648d7de8c941b50b26f02755a955b9" target="_top" xlink:title=" ">
<polygon fill="white" stroke="black" points="654.5,-285.5 654.5,-304.5 743.5,-304.5 743.5,-285.5 654.5,-285.5"/>
<text text-anchor="middle" x="699" y="-292.5" font-family="Helvetica,sans-Serif" font-size="10.00">get_curve_info</text>
</a>
</g>
</g>
<!-- Node5&#45;&gt;Node6 -->
<g id="edge5" class="edge">
<title>Node5&#45;&gt;Node6</title>
<path fill="none" stroke="midnightblue" d="M608.42,-283.95C620.4,-285.43 632.8,-286.96 644.42,-288.39"/>
<polygon fill="midnightblue" stroke="midnightblue" points="644.04,-291.87 654.4,-289.62 644.9,-284.92 644.04,-291.87"/>
</g>
<!-- Node7 -->
<g id="node7" class="node">
<title>Node7</title>
<g id="a_node7"><a xlink:href="curves_8cpp.html#a6d6def6a76701b08284cba58066e3382" target="_top" xlink:title=" ">
<polygon fill="white" stroke="black" points="644,-247.5 644,-266.5 754,-266.5 754,-247.5 644,-247.5"/>
<text text-anchor="middle" x="699" y="-254.5" font-family="Helvetica,sans-Serif" font-size="10.00">get_curve_point_at</text>
</a>
</g>
</g>
<!-- Node5&#45;&gt;Node7 -->
<g id="edge6" class="edge">
<title>Node5&#45;&gt;Node7</title>
<path fill="none" stroke="midnightblue" d="M608.42,-268.05C616.74,-267.03 625.26,-265.97 633.58,-264.95"/>
<polygon fill="midnightblue" stroke="midnightblue" points="634.11,-268.41 643.6,-263.71 633.25,-261.46 634.11,-268.41"/>
</g>
<!-- Node15&#45;&gt;Node5 -->
<g id="edge15" class="edge">
<title>Node15&#45;&gt;Node5</title>
<path fill="none" stroke="midnightblue" d="M419.13,-261.45C433.63,-263.17 450.75,-265.2 467.53,-267.18"/>
<polygon fill="midnightblue" stroke="midnightblue" points="467.56,-270.71 477.91,-268.41 468.39,-263.76 467.56,-270.71"/>
</g>
</g>
</svg>
