<?xml version="1.0" encoding="UTF-8" standalone="no"?>
<!DOCTYPE svg PUBLIC "-//W3C//DTD SVG 1.1//EN"
 "http://www.w3.org/Graphics/SVG/1.1/DTD/svg11.dtd">
<!-- Generated by graphviz version 3.0.0 (0)
 -->
<!-- Title: env_load_defaults Pages: 1 -->
<svg width="229pt" height="294pt"
 viewBox="0.00 0.00 229.00 294.00" xmlns="http://www.w3.org/2000/svg" xmlns:xlink="http://www.w3.org/1999/xlink">
<g id="graph0" class="graph" transform="scale(1 1) rotate(0) translate(4 290)">
<title>env_load_defaults</title>
<polygon fill="white" stroke="transparent" points="-4,4 -4,-290 225,-290 225,4 -4,4"/>
<!-- Node1 -->
<g id="node1" class="node">
<title>Node1</title>
<g id="a_node1"><a xlink:title=" ">
<polygon fill="#bfbfbf" stroke="black" points="0,-133.5 0,-152.5 106,-152.5 106,-133.5 0,-133.5"/>
<text text-anchor="middle" x="53" y="-140.5" font-family="Helvetica,sans-Serif" font-size="10.00">env_load_defaults</text>
</a>
</g>
</g>
<!-- Node2 -->
<g id="node2" class="node">
<title>Node2</title>
<g id="a_node2"><a xlink:href="namespace_d.html#a393bfec992f13a40a9f601e3e6c82874" target="_top" xlink:title=" ">
<polygon fill="white" stroke="black" points="144,-266.5 144,-285.5 219,-285.5 219,-266.5 144,-266.5"/>
<text text-anchor="middle" x="181.5" y="-273.5" font-family="Helvetica,sans-Serif" font-size="10.00">D::cartesian</text>
</a>
</g>
</g>
<!-- Node1&#45;&gt;Node2 -->
<g id="edge1" class="edge">
<title>Node1&#45;&gt;Node2</title>
<path fill="none" stroke="midnightblue" d="M59.42,-152.75C71.68,-174.08 103.5,-225.49 142,-257 143.78,-258.46 145.69,-259.84 147.68,-261.14"/>
<polygon fill="midnightblue" stroke="midnightblue" points="146.26,-264.37 156.67,-266.35 149.77,-258.31 146.26,-264.37"/>
</g>
<!-- Node3 -->
<g id="node3" class="node">
<title>Node3</title>
<g id="a_node3"><a xlink:href="namespace_d.html#ae27403f76d7334ff69a099e42f1f1616" target="_top" xlink:title=" ">
<polygon fill="white" stroke="black" points="152.5,-228.5 152.5,-247.5 210.5,-247.5 210.5,-228.5 152.5,-228.5"/>
<text text-anchor="middle" x="181.5" y="-235.5" font-family="Helvetica,sans-Serif" font-size="10.00">D::origin</text>
</a>
</g>
</g>
<!-- Node1&#45;&gt;Node3 -->
<g id="edge2" class="edge">
<title>Node1&#45;&gt;Node3</title>
<path fill="none" stroke="midnightblue" d="M63.62,-152.78C79.12,-168.19 111.04,-198.48 142,-219 144.45,-220.62 147.05,-222.19 149.71,-223.69"/>
<polygon fill="midnightblue" stroke="midnightblue" points="148.3,-226.91 158.78,-228.48 151.57,-220.72 148.3,-226.91"/>
</g>
<!-- Node4 -->
<g id="node4" class="node">
<title>Node4</title>
<g id="a_node4"><a xlink:href="namespace_d.html#aa2fb96ccebb5bf88d4325f85beb99d84" target="_top" xlink:title="(radius,zenith,azimuth)">
<polygon fill="white" stroke="black" points="154,-190.5 154,-209.5 209,-209.5 209,-190.5 154,-190.5"/>
<text text-anchor="middle" x="181.5" y="-197.5" font-family="Helvetica,sans-Serif" font-size="10.00">D::polar</text>
</a>
</g>
</g>
<!-- Node1&#45;&gt;Node4 -->
<g id="edge3" class="edge">
<title>Node1&#45;&gt;Node4</title>
<path fill="none" stroke="midnightblue" d="M75.17,-152.54C95.61,-161.75 126.76,-175.78 149.89,-186.21"/>
<polygon fill="midnightblue" stroke="midnightblue" points="148.7,-189.51 159.26,-190.43 151.58,-183.13 148.7,-189.51"/>
</g>
<!-- Node5 -->
<g id="node5" class="node">
<title>Node5</title>
<g id="a_node5"><a xlink:href="namespace_d.html#a49b3788c9a2aae032c6c74d76441aa18" target="_top" xlink:title="(fov,near,var)">
<polygon fill="white" stroke="black" points="142,-152.5 142,-171.5 221,-171.5 221,-152.5 142,-152.5"/>
<text text-anchor="middle" x="181.5" y="-159.5" font-family="Helvetica,sans-Serif" font-size="10.00">D::projection</text>
</a>
</g>
</g>
<!-- Node1&#45;&gt;Node5 -->
<g id="edge4" class="edge">
<title>Node1&#45;&gt;Node5</title>
<path fill="none" stroke="midnightblue" d="M106.18,-150.84C114.7,-152.12 123.49,-153.44 131.92,-154.7"/>
<polygon fill="midnightblue" stroke="midnightblue" points="131.56,-158.19 141.97,-156.21 132.6,-151.27 131.56,-158.19"/>
</g>
<!-- Node6 -->
<g id="node6" class="node">
<title>Node6</title>
<g id="a_node6"><a xlink:href="namespace_d.html#acff69d64de92ad4a8530de5424425dee" target="_top" xlink:title=" ">
<polygon fill="white" stroke="black" points="152,-114.5 152,-133.5 211,-133.5 211,-114.5 152,-114.5"/>
<text text-anchor="middle" x="181.5" y="-121.5" font-family="Helvetica,sans-Serif" font-size="10.00">D::rotate</text>
</a>
</g>
</g>
<!-- Node1&#45;&gt;Node6 -->
<g id="edge5" class="edge">
<title>Node1&#45;&gt;Node6</title>
<path fill="none" stroke="midnightblue" d="M106.18,-135.16C118.17,-133.36 130.7,-131.48 141.98,-129.78"/>
<polygon fill="midnightblue" stroke="midnightblue" points="142.58,-133.24 151.95,-128.29 141.54,-126.31 142.58,-133.24"/>
</g>
<!-- Node7 -->
<g id="node7" class="node">
<title>Node7</title>
<g id="a_node7"><a xlink:href="namespace_d.html#a1ccd692563b2bed3dbd7275b0bd3dbb3" target="_top" xlink:title=" ">
<polygon fill="white" stroke="black" points="153.5,-76.5 153.5,-95.5 209.5,-95.5 209.5,-76.5 153.5,-76.5"/>
<text text-anchor="middle" x="181.5" y="-83.5" font-family="Helvetica,sans-Serif" font-size="10.00">D::scale</text>
</a>
</g>
</g>
<!-- Node1&#45;&gt;Node7 -->
<g id="edge6" class="edge">
<title>Node1&#45;&gt;Node7</title>
<path fill="none" stroke="midnightblue" d="M75.17,-133.46C95.61,-124.25 126.76,-110.22 149.89,-99.79"/>
<polygon fill="midnightblue" stroke="midnightblue" points="151.58,-102.87 159.26,-95.57 148.7,-96.49 151.58,-102.87"/>
</g>
<!-- Node8 -->
<g id="node8" class="node">
<title>Node8</title>
<g id="a_node8"><a xlink:href="namespace_d.html#ae308988f832b1d5420f532ac7dfd772e" target="_top" xlink:title=" ">
<polygon fill="white" stroke="black" points="144.5,-38.5 144.5,-57.5 218.5,-57.5 218.5,-38.5 144.5,-38.5"/>
<text text-anchor="middle" x="181.5" y="-45.5" font-family="Helvetica,sans-Serif" font-size="10.00">D::translate</text>
</a>
</g>
</g>
<!-- Node1&#45;&gt;Node8 -->
<g id="edge7" class="edge">
<title>Node1&#45;&gt;Node8</title>
<path fill="none" stroke="midnightblue" d="M63.62,-133.22C79.12,-117.81 111.04,-87.52 142,-67 144.45,-65.38 147.05,-63.81 149.71,-62.31"/>
<polygon fill="midnightblue" stroke="midnightblue" points="151.57,-65.28 158.78,-57.52 148.3,-59.09 151.57,-65.28"/>
</g>
<!-- Node9 -->
<g id="node9" class="node">
<title>Node9</title>
<g id="a_node9"><a xlink:href="namespace_d.html#a075a76915f7e2899933f446de8be40d9" target="_top" xlink:title=" ">
<polygon fill="white" stroke="black" points="160.5,-0.5 160.5,-19.5 202.5,-19.5 202.5,-0.5 160.5,-0.5"/>
<text text-anchor="middle" x="181.5" y="-7.5" font-family="Helvetica,sans-Serif" font-size="10.00">D::up</text>
</a>
</g>
</g>
<!-- Node1&#45;&gt;Node9 -->
<g id="edge8" class="edge">
<title>Node1&#45;&gt;Node9</title>
<path fill="none" stroke="midnightblue" d="M59.42,-133.25C71.68,-111.92 103.5,-60.51 142,-29 144.88,-26.64 148.1,-24.48 151.42,-22.53"/>
<polygon fill="midnightblue" stroke="midnightblue" points="153.06,-25.62 160.27,-17.86 149.8,-19.43 153.06,-25.62"/>
</g>
</g>
</svg>
