<?xml version="1.0" encoding="UTF-8" standalone="no"?>
<!DOCTYPE svg PUBLIC "-//W3C//DTD SVG 1.1//EN"
 "http://www.w3.org/Graphics/SVG/1.1/DTD/svg11.dtd">
<!-- Generated by graphviz version 3.0.0 (0)
 -->
<!-- Title: renderScene Pages: 1 -->
<svg width="849pt" height="306pt"
 viewBox="0.00 0.00 849.00 306.00" xmlns="http://www.w3.org/2000/svg" xmlns:xlink="http://www.w3.org/1999/xlink">
<g id="graph0" class="graph" transform="scale(1 1) rotate(0) translate(4 302)">
<title>renderScene</title>
<polygon fill="white" stroke="transparent" points="-4,4 -4,-302 845,-302 845,4 -4,4"/>
<!-- Node1 -->
<g id="node1" class="node">
<title>Node1</title>
<g id="a_node1"><a xlink:title=" ">
<polygon fill="#bfbfbf" stroke="black" points="0,-136.5 0,-155.5 77,-155.5 77,-136.5 0,-136.5"/>
<text text-anchor="middle" x="38.5" y="-143.5" font-family="Helvetica,sans-Serif" font-size="10.00">renderScene</text>
</a>
</g>
</g>
<!-- Node2 -->
<g id="node2" class="node">
<title>Node2</title>
<g id="a_node2"><a xlink:href="engine_8cpp.html#a634dba686e70e7ff3f10c37d11f463da" target="_top" xlink:title=" ">
<polygon fill="white" stroke="black" points="131,-174.5 131,-193.5 200,-193.5 200,-174.5 131,-174.5"/>
<text text-anchor="middle" x="165.5" y="-181.5" font-family="Helvetica,sans-Serif" font-size="10.00">draw_axes</text>
</a>
</g>
</g>
<!-- Node1&#45;&gt;Node2 -->
<g id="edge1" class="edge">
<title>Node1&#45;&gt;Node2</title>
<path fill="none" stroke="midnightblue" d="M71.04,-155.59C86.88,-160.4 106.27,-166.3 123.28,-171.47"/>
<polygon fill="midnightblue" stroke="midnightblue" points="122.38,-174.85 132.97,-174.41 124.42,-168.16 122.38,-174.85"/>
</g>
<!-- Node3 -->
<g id="node3" class="node">
<title>Node3</title>
<g id="a_node3"><a xlink:href="group___operations.html#ga8d5a19a3522cea1b4254684cf6515d13" target="_top" xlink:title=" ">
<polygon fill="white" stroke="black" points="113,-136.5 113,-155.5 218,-155.5 218,-136.5 113,-136.5"/>
<text text-anchor="middle" x="165.5" y="-143.5" font-family="Helvetica,sans-Serif" font-size="10.00">operations_render</text>
</a>
</g>
</g>
<!-- Node1&#45;&gt;Node3 -->
<g id="edge2" class="edge">
<title>Node1&#45;&gt;Node3</title>
<path fill="none" stroke="midnightblue" d="M77,-146C85.07,-146 93.8,-146 102.51,-146"/>
<polygon fill="midnightblue" stroke="midnightblue" points="102.69,-149.5 112.69,-146 102.69,-142.5 102.69,-149.5"/>
</g>
<!-- Node15 -->
<g id="node15" class="node">
<title>Node15</title>
<g id="a_node15"><a xlink:href="group__engine.html#gab9813926390dc5773baf0b20dc2ea16e" target="_top" xlink:title=" ">
<polygon fill="white" stroke="black" points="134.5,-60.5 134.5,-79.5 196.5,-79.5 196.5,-60.5 134.5,-60.5"/>
<text text-anchor="middle" x="165.5" y="-67.5" font-family="Helvetica,sans-Serif" font-size="10.00">redisplay</text>
</a>
</g>
</g>
<!-- Node1&#45;&gt;Node15 -->
<g id="edge15" class="edge">
<title>Node1&#45;&gt;Node15</title>
<path fill="none" stroke="midnightblue" d="M55.33,-136.37C76.75,-123.35 115.14,-100.01 140.22,-84.76"/>
<polygon fill="midnightblue" stroke="midnightblue" points="142.07,-87.73 148.8,-79.55 138.43,-81.75 142.07,-87.73"/>
</g>
<!-- Node4 -->
<g id="node4" class="node">
<title>Node4</title>
<g id="a_node4"><a xlink:href="curves_8cpp.html#a821c8cbf0a47b918c60a4912b733e6bd" target="_top" xlink:title=" ">
<polygon fill="white" stroke="black" points="260,-278.5 260,-297.5 364,-297.5 364,-278.5 260,-278.5"/>
<text text-anchor="middle" x="312" y="-285.5" font-family="Helvetica,sans-Serif" font-size="10.00">advance_in_curve</text>
</a>
</g>
</g>
<!-- Node3&#45;&gt;Node4 -->
<g id="edge3" class="edge">
<title>Node3&#45;&gt;Node4</title>
<path fill="none" stroke="midnightblue" d="M204.59,-155.56C209.54,-158.03 214.2,-161.12 218,-165 252.24,-199.93 219.22,-234.61 254,-269 255.47,-270.46 257.06,-271.8 258.74,-273.05"/>
<polygon fill="midnightblue" stroke="midnightblue" points="257.36,-276.3 267.73,-278.44 260.96,-270.29 257.36,-276.3"/>
</g>
<!-- Node9 -->
<g id="node9" class="node">
<title>Node9</title>
<g id="a_node9"><a xlink:href="engine_8cpp.html#a072c434cfd125e58ac1cec9a5725688a" target="_top" xlink:title=" ">
<polygon fill="white" stroke="black" points="254,-240.5 254,-259.5 370,-259.5 370,-240.5 254,-240.5"/>
<text text-anchor="middle" x="312" y="-247.5" font-family="Helvetica,sans-Serif" font-size="10.00">advance_in_rotation</text>
</a>
</g>
</g>
<!-- Node3&#45;&gt;Node9 -->
<g id="edge8" class="edge">
<title>Node3&#45;&gt;Node9</title>
<path fill="none" stroke="midnightblue" d="M202.7,-155.54C208.2,-158.03 213.53,-161.14 218,-165 243.29,-186.84 228.37,-209.56 254,-231 256.03,-232.7 258.22,-234.25 260.51,-235.66"/>
<polygon fill="midnightblue" stroke="midnightblue" points="259.29,-238.97 269.78,-240.45 262.5,-232.75 259.29,-238.97"/>
</g>
<!-- Node10 -->
<g id="node10" class="node">
<title>Node10</title>
<g id="a_node10"><a xlink:href="group__model_engine.html#ga361bcac2814bb93f543d2c0f1b28b6d2" target="_top" xlink:title=" ">
<polygon fill="white" stroke="black" points="277,-202.5 277,-221.5 347,-221.5 347,-202.5 277,-202.5"/>
<text text-anchor="middle" x="312" y="-209.5" font-family="Helvetica,sans-Serif" font-size="10.00">allocModel</text>
</a>
</g>
</g>
<!-- Node3&#45;&gt;Node10 -->
<g id="edge9" class="edge">
<title>Node3&#45;&gt;Node10</title>
<path fill="none" stroke="midnightblue" d="M197.15,-155.55C204.18,-158.21 211.5,-161.39 218,-165 235.72,-174.85 236.13,-183.44 254,-193 258.2,-195.25 262.73,-197.3 267.32,-199.16"/>
<polygon fill="midnightblue" stroke="midnightblue" points="266.16,-202.46 276.75,-202.68 268.61,-195.9 266.16,-202.46"/>
</g>
<!-- Node11 -->
<g id="node11" class="node">
<title>Node11</title>
<g id="a_node11"><a xlink:href="group__model_engine.html#ga8c7329ae859a08eea53a77130ebe6018" target="_top" xlink:title=" ">
<polygon fill="white" stroke="black" points="254.5,-153 254.5,-183 369.5,-183 369.5,-153 254.5,-153"/>
<text text-anchor="start" x="262.5" y="-171" font-family="Helvetica,sans-Serif" font-size="10.00">associate_a_texture</text>
<text text-anchor="middle" x="312" y="-160" font-family="Helvetica,sans-Serif" font-size="10.00">_to_model</text>
</a>
</g>
</g>
<!-- Node3&#45;&gt;Node11 -->
<g id="edge10" class="edge">
<title>Node3&#45;&gt;Node11</title>
<path fill="none" stroke="midnightblue" d="M218.26,-153.88C226.64,-155.16 235.42,-156.49 244.1,-157.82"/>
<polygon fill="midnightblue" stroke="midnightblue" points="243.8,-161.31 254.21,-159.35 244.85,-154.39 243.8,-161.31"/>
</g>
<!-- Node12 -->
<g id="node12" class="node">
<title>Node12</title>
<g id="a_node12"><a xlink:href="group__spherical.html#gabd434f65cba3ee8011b8d3cdd1f25dca" target="_top" xlink:title=" ">
<polygon fill="white" stroke="black" points="255.5,-114.5 255.5,-133.5 368.5,-133.5 368.5,-114.5 255.5,-114.5"/>
<text text-anchor="middle" x="312" y="-121.5" font-family="Helvetica,sans-Serif" font-size="10.00">cartesian2Spherical</text>
</a>
</g>
</g>
<!-- Node3&#45;&gt;Node12 -->
<g id="edge11" class="edge">
<title>Node3&#45;&gt;Node12</title>
<path fill="none" stroke="midnightblue" d="M218.26,-138.12C226.97,-136.79 236.11,-135.4 245.12,-134.03"/>
<polygon fill="midnightblue" stroke="midnightblue" points="245.84,-137.46 255.2,-132.5 244.79,-130.54 245.84,-137.46"/>
</g>
<!-- Node13 -->
<g id="node13" class="node">
<title>Node13</title>
<g id="a_node13"><a xlink:href="curves_8cpp.html#ad812fc50a0384335487e258a6f61714e" target="_top" xlink:title=" ">
<polygon fill="white" stroke="black" points="429,-158.5 429,-177.5 506,-177.5 506,-158.5 429,-158.5"/>
<text text-anchor="middle" x="467.5" y="-165.5" font-family="Helvetica,sans-Serif" font-size="10.00">renderCurve</text>
</a>
</g>
</g>
<!-- Node3&#45;&gt;Node13 -->
<g id="edge12" class="edge">
<title>Node3&#45;&gt;Node13</title>
<path fill="none" stroke="midnightblue" d="M181.57,-136.42C198.44,-126.31 226.98,-111.02 254,-105 304.32,-93.79 320.59,-90.3 370,-105 400.32,-114.02 430,-135.93 448.27,-151.37"/>
<polygon fill="midnightblue" stroke="midnightblue" points="446.43,-154.41 456.27,-158.34 451.03,-149.14 446.43,-154.41"/>
</g>
<!-- Node14 -->
<g id="node14" class="node">
<title>Node14</title>
<g id="a_node14"><a xlink:href="group__model_engine.html#ga2907e4adf4f2bef2c8ce416cb8470997" target="_top" xlink:title=" ">
<polygon fill="white" stroke="black" points="273,-38.5 273,-57.5 351,-57.5 351,-38.5 273,-38.5"/>
<text text-anchor="middle" x="312" y="-45.5" font-family="Helvetica,sans-Serif" font-size="10.00">renderModel</text>
</a>
</g>
</g>
<!-- Node3&#45;&gt;Node14 -->
<g id="edge14" class="edge">
<title>Node3&#45;&gt;Node14</title>
<path fill="none" stroke="midnightblue" d="M175.97,-136.27C191.25,-121 222.8,-91.14 254,-72 260.36,-68.1 267.46,-64.55 274.43,-61.45"/>
<polygon fill="midnightblue" stroke="midnightblue" points="275.93,-64.62 283.78,-57.5 273.21,-58.17 275.93,-64.62"/>
</g>
<!-- Node5 -->
<g id="node5" class="node">
<title>Node5</title>
<g id="a_node5"><a xlink:href="curves_8cpp.html#a98b26a4263f61db7149441a99a6d35b6" target="_top" xlink:title=" ">
<polygon fill="white" stroke="black" points="406,-237.5 406,-256.5 529,-256.5 529,-237.5 406,-237.5"/>
<text text-anchor="middle" x="467.5" y="-244.5" font-family="Helvetica,sans-Serif" font-size="10.00">align_global_pos_mat</text>
</a>
</g>
</g>
<!-- Node4&#45;&gt;Node5 -->
<g id="edge4" class="edge">
<title>Node4&#45;&gt;Node5</title>
<path fill="none" stroke="midnightblue" d="M348.6,-278.49C370.13,-272.74 397.78,-265.35 420.9,-259.18"/>
<polygon fill="midnightblue" stroke="midnightblue" points="422.07,-262.49 430.83,-256.53 420.26,-255.73 422.07,-262.49"/>
</g>
<!-- Node6 -->
<g id="node6" class="node">
<title>Node6</title>
<g id="a_node6"><a xlink:href="curves_8cpp.html#abe9fa1f2a311f275f92f5b46fb2f8490" target="_top" xlink:title=" ">
<polygon fill="white" stroke="black" points="565,-177.5 565,-196.5 695,-196.5 695,-177.5 565,-177.5"/>
<text text-anchor="middle" x="630" y="-184.5" font-family="Helvetica,sans-Serif" font-size="10.00">get_curve_global_point</text>
</a>
</g>
</g>
<!-- Node5&#45;&gt;Node6 -->
<g id="edge5" class="edge">
<title>Node5&#45;&gt;Node6</title>
<path fill="none" stroke="midnightblue" d="M493.93,-237.49C520.85,-227.43 563.54,-211.47 593.71,-200.19"/>
<polygon fill="midnightblue" stroke="midnightblue" points="595.28,-203.34 603.42,-196.56 592.83,-196.79 595.28,-203.34"/>
</g>
<!-- Node7 -->
<g id="node7" class="node">
<title>Node7</title>
<g id="a_node7"><a xlink:href="curves_8cpp.html#afa648d7de8c941b50b26f02755a955b9" target="_top" xlink:title=" ">
<polygon fill="white" stroke="black" points="741.5,-196.5 741.5,-215.5 830.5,-215.5 830.5,-196.5 741.5,-196.5"/>
<text text-anchor="middle" x="786" y="-203.5" font-family="Helvetica,sans-Serif" font-size="10.00">get_curve_info</text>
</a>
</g>
</g>
<!-- Node6&#45;&gt;Node7 -->
<g id="edge6" class="edge">
<title>Node6&#45;&gt;Node7</title>
<path fill="none" stroke="midnightblue" d="M695.42,-194.95C707.4,-196.43 719.8,-197.96 731.42,-199.39"/>
<polygon fill="midnightblue" stroke="midnightblue" points="731.04,-202.87 741.4,-200.62 731.9,-195.92 731.04,-202.87"/>
</g>
<!-- Node8 -->
<g id="node8" class="node">
<title>Node8</title>
<g id="a_node8"><a xlink:href="curves_8cpp.html#a6d6def6a76701b08284cba58066e3382" target="_top" xlink:title=" ">
<polygon fill="white" stroke="black" points="731,-158.5 731,-177.5 841,-177.5 841,-158.5 731,-158.5"/>
<text text-anchor="middle" x="786" y="-165.5" font-family="Helvetica,sans-Serif" font-size="10.00">get_curve_point_at</text>
</a>
</g>
</g>
<!-- Node6&#45;&gt;Node8 -->
<g id="edge7" class="edge">
<title>Node6&#45;&gt;Node8</title>
<path fill="none" stroke="midnightblue" d="M695.42,-179.05C703.74,-178.03 712.26,-176.97 720.58,-175.95"/>
<polygon fill="midnightblue" stroke="midnightblue" points="721.11,-179.41 730.6,-174.71 720.25,-172.46 721.11,-179.41"/>
</g>
<!-- Node13&#45;&gt;Node6 -->
<g id="edge13" class="edge">
<title>Node13&#45;&gt;Node6</title>
<path fill="none" stroke="midnightblue" d="M506.13,-172.45C520.63,-174.17 537.75,-176.2 554.53,-178.18"/>
<polygon fill="midnightblue" stroke="midnightblue" points="554.56,-181.71 564.91,-179.41 555.39,-174.76 554.56,-181.71"/>
</g>
<!-- Node16 -->
<g id="node16" class="node">
<title>Node16</title>
<g id="a_node16"><a xlink:href="group__spherical.html#gaeac535a2aaeb6b1c8c4d1169bbc3cab1" target="_top" xlink:title=" ">
<polygon fill="white" stroke="black" points="255.5,-0.5 255.5,-19.5 368.5,-19.5 368.5,-0.5 255.5,-0.5"/>
<text text-anchor="middle" x="312" y="-7.5" font-family="Helvetica,sans-Serif" font-size="10.00">spherical2Cartesian</text>
</a>
</g>
</g>
<!-- Node15&#45;&gt;Node16 -->
<g id="edge16" class="edge">
<title>Node15&#45;&gt;Node16</title>
<path fill="none" stroke="midnightblue" d="M185.34,-60.39C202.87,-51.64 229.85,-38.64 254,-29 259.27,-26.9 264.87,-24.83 270.42,-22.88"/>
<polygon fill="midnightblue" stroke="midnightblue" points="271.96,-26.05 280.29,-19.51 269.7,-19.43 271.96,-26.05"/>
</g>
</g>
</svg>
