<?xml version="1.0" encoding="UTF-8" standalone="no"?>
<!DOCTYPE svg PUBLIC "-//W3C//DTD SVG 1.1//EN"
 "http://www.w3.org/Graphics/SVG/1.1/DTD/svg11.dtd">
<!-- Generated by graphviz version 3.0.0 (0)
 -->
<!-- Title: cartesian2Spherical Pages: 1 -->
<svg width="610pt" height="104pt"
 viewBox="0.00 0.00 610.00 104.00" xmlns="http://www.w3.org/2000/svg" xmlns:xlink="http://www.w3.org/1999/xlink">
<g id="graph0" class="graph" transform="scale(1 1) rotate(0) translate(4 100)">
<title>cartesian2Spherical</title>
<polygon fill="white" stroke="transparent" points="-4,4 -4,-100 606,-100 606,4 -4,4"/>
<!-- Node1 -->
<g id="node1" class="node">
<title>Node1</title>
<g id="a_node1"><a xlink:title=" ">
<polygon fill="#bfbfbf" stroke="black" points="489,-57.5 489,-76.5 602,-76.5 602,-57.5 489,-57.5"/>
<text text-anchor="middle" x="545.5" y="-64.5" font-family="Helvetica,sans-Serif" font-size="10.00">cartesian2Spherical</text>
</a>
</g>
</g>
<!-- Node2 -->
<g id="node2" class="node">
<title>Node2</title>
<g id="a_node2"><a xlink:href="group__input.html#gad48076b61c0ddb6bd4fadf644bf59ff1" target="_top" xlink:title=" ">
<polygon fill="white" stroke="black" points="364.5,-76.5 364.5,-95.5 436.5,-95.5 436.5,-76.5 364.5,-76.5"/>
<text text-anchor="middle" x="400.5" y="-83.5" font-family="Helvetica,sans-Serif" font-size="10.00">mouseFunc</text>
</a>
</g>
</g>
<!-- Node1&#45;&gt;Node2 -->
<g id="edge1" class="edge">
<title>Node1&#45;&gt;Node2</title>
<path fill="none" stroke="midnightblue" d="M478.81,-75.73C464.26,-77.66 449.38,-79.64 436.62,-81.33"/>
<polygon fill="midnightblue" stroke="midnightblue" points="479.35,-79.19 488.8,-74.4 478.43,-72.25 479.35,-79.19"/>
</g>
<!-- Node5 -->
<g id="node5" class="node">
<title>Node5</title>
<g id="a_node5"><a xlink:href="group___operations.html#ga887f20c10a27832ea24178203a47fcc2" target="_top" xlink:title=" ">
<polygon fill="white" stroke="black" points="348,-38.5 348,-57.5 453,-57.5 453,-38.5 348,-38.5"/>
<text text-anchor="middle" x="400.5" y="-45.5" font-family="Helvetica,sans-Serif" font-size="10.00">operations_render</text>
</a>
</g>
</g>
<!-- Node1&#45;&gt;Node5 -->
<g id="edge4" class="edge">
<title>Node1&#45;&gt;Node5</title>
<path fill="none" stroke="midnightblue" d="M478.77,-58.27C470.15,-57.12 461.41,-55.96 453.07,-54.85"/>
<polygon fill="midnightblue" stroke="midnightblue" points="478.43,-61.75 488.8,-59.6 479.35,-54.81 478.43,-61.75"/>
</g>
<!-- Node3 -->
<g id="node3" class="node">
<title>Node3</title>
<g id="a_node3"><a xlink:href="group__engine.html#ga98eaf946471acbd931de5d52ca83b3d1" target="_top" xlink:title=" ">
<polygon fill="white" stroke="black" points="77,-38.5 77,-57.5 148,-57.5 148,-38.5 77,-38.5"/>
<text text-anchor="middle" x="112.5" y="-45.5" font-family="Helvetica,sans-Serif" font-size="10.00">engine_run</text>
</a>
</g>
</g>
<!-- Node2&#45;&gt;Node3 -->
<g id="edge2" class="edge">
<title>Node2&#45;&gt;Node3</title>
<path fill="none" stroke="midnightblue" d="M354.11,-84.31C310.29,-82.14 242.2,-77.33 184,-67 170.77,-64.65 156.41,-60.99 144.12,-57.51"/>
<polygon fill="midnightblue" stroke="midnightblue" points="354.01,-87.81 364.16,-84.78 354.34,-80.82 354.01,-87.81"/>
</g>
<!-- Node4 -->
<g id="node4" class="node">
<title>Node4</title>
<g id="a_node4"><a xlink:href="group__engine.html#ga3c04138a5bfe5d72780bb7e82a18e627" target="_top" xlink:title=" ">
<polygon fill="white" stroke="black" points="0,-38.5 0,-57.5 41,-57.5 41,-38.5 0,-38.5"/>
<text text-anchor="middle" x="20.5" y="-45.5" font-family="Helvetica,sans-Serif" font-size="10.00">main</text>
</a>
</g>
</g>
<!-- Node3&#45;&gt;Node4 -->
<g id="edge3" class="edge">
<title>Node3&#45;&gt;Node4</title>
<path fill="none" stroke="midnightblue" d="M66.88,-48C57.87,-48 48.84,-48 41.24,-48"/>
<polygon fill="midnightblue" stroke="midnightblue" points="66.96,-51.5 76.96,-48 66.96,-44.5 66.96,-51.5"/>
</g>
<!-- Node6 -->
<g id="node6" class="node">
<title>Node6</title>
<g id="a_node6"><a xlink:href="group__engine.html#ga91c42686f3245f22fb6b17ba5372d92c" target="_top" xlink:title=" ">
<polygon fill="white" stroke="black" points="209.5,-38.5 209.5,-57.5 286.5,-57.5 286.5,-38.5 209.5,-38.5"/>
<text text-anchor="middle" x="248" y="-45.5" font-family="Helvetica,sans-Serif" font-size="10.00">renderScene</text>
</a>
</g>
</g>
<!-- Node5&#45;&gt;Node6 -->
<g id="edge5" class="edge">
<title>Node5&#45;&gt;Node6</title>
<path fill="none" stroke="midnightblue" d="M337.66,-48C320.35,-48 302.07,-48 286.63,-48"/>
<polygon fill="midnightblue" stroke="midnightblue" points="337.71,-51.5 347.71,-48 337.71,-44.5 337.71,-51.5"/>
</g>
<!-- Node7 -->
<g id="node7" class="node">
<title>Node7</title>
<g id="a_node7"><a xlink:href="group__engine.html#ga2b6a8884687b3fe271b099a450a82d24" target="_top" xlink:title=" ">
<polygon fill="white" stroke="black" points="184,-0.5 184,-19.5 312,-19.5 312,-0.5 184,-0.5"/>
<text text-anchor="middle" x="248" y="-7.5" font-family="Helvetica,sans-Serif" font-size="10.00">xml_load_and_set_env</text>
</a>
</g>
</g>
<!-- Node5&#45;&gt;Node7 -->
<g id="edge7" class="edge">
<title>Node5&#45;&gt;Node7</title>
<path fill="none" stroke="midnightblue" d="M351.82,-35.96C330.79,-30.65 306.43,-24.5 286.7,-19.52"/>
<polygon fill="midnightblue" stroke="midnightblue" points="350.97,-39.36 361.52,-38.41 352.68,-32.57 350.97,-39.36"/>
</g>
<!-- Node6&#45;&gt;Node3 -->
<g id="edge6" class="edge">
<title>Node6&#45;&gt;Node3</title>
<path fill="none" stroke="midnightblue" d="M199.2,-48C182.29,-48 163.61,-48 148.02,-48"/>
<polygon fill="midnightblue" stroke="midnightblue" points="199.46,-51.5 209.46,-48 199.46,-44.5 199.46,-51.5"/>
</g>
<!-- Node7&#45;&gt;Node3 -->
<g id="edge8" class="edge">
<title>Node7&#45;&gt;Node3</title>
<path fill="none" stroke="midnightblue" d="M203.47,-22.39C185.19,-27.59 164.25,-33.55 147.18,-38.41"/>
<polygon fill="midnightblue" stroke="midnightblue" points="204.65,-25.69 213.31,-19.59 202.74,-18.96 204.65,-25.69"/>
</g>
</g>
</svg>
