<?xml version="1.0" encoding="UTF-8" standalone="no"?>
<!DOCTYPE svg PUBLIC "-//W3C//DTD SVG 1.1//EN"
 "http://www.w3.org/Graphics/SVG/1.1/DTD/svg11.dtd">
<!-- Generated by graphviz version 3.0.0 (0)
 -->
<!-- Title: fpsTimer Pages: 1 -->
<svg width="150pt" height="46pt"
 viewBox="0.00 0.00 150.00 46.00" xmlns="http://www.w3.org/2000/svg" xmlns:xlink="http://www.w3.org/1999/xlink">
<g id="graph0" class="graph" transform="scale(1 1) rotate(0) translate(4 42)">
<title>fpsTimer</title>
<polygon fill="white" stroke="transparent" points="-4,4 -4,-42 146,-42 146,4 -4,4"/>
<!-- Node1 -->
<g id="node1" class="node">
<title>Node1</title>
<g id="a_node1"><a xlink:title=" ">
<polygon fill="#bfbfbf" stroke="black" points="83,-0.5 83,-19.5 142,-19.5 142,-0.5 83,-0.5"/>
<text text-anchor="middle" x="112.5" y="-7.5" font-family="Helvetica,sans-Serif" font-size="10.00">fpsTimer</text>
</a>
</g>
</g>
<!-- Node1&#45;&gt;Node1 -->
<g id="edge2" class="edge">
<title>Node1&#45;&gt;Node1</title>
<path fill="none" stroke="midnightblue" d="M128.8,-29.4C127.71,-34.31 122.28,-38 112.5,-38 96.86,-38 92.34,-28.57 98.94,-19.76"/>
<polygon fill="midnightblue" stroke="midnightblue" points="132.16,-28.42 126.06,-19.76 125.42,-30.33 132.16,-28.42"/>
</g>
<!-- Node2 -->
<g id="node2" class="node">
<title>Node2</title>
<g id="a_node2"><a xlink:href="group__fps_camera.html#ga2460303fbb6b455ef1d546f4ff051fee" target="_top" xlink:title=" ">
<polygon fill="white" stroke="black" points="0,-0.5 0,-19.5 47,-19.5 47,-0.5 0,-0.5"/>
<text text-anchor="middle" x="23.5" y="-7.5" font-family="Helvetica,sans-Serif" font-size="10.00">fpsInit</text>
</a>
</g>
</g>
<!-- Node1&#45;&gt;Node2 -->
<g id="edge1" class="edge">
<title>Node1&#45;&gt;Node2</title>
<path fill="none" stroke="midnightblue" d="M72.49,-10C63.77,-10 54.8,-10 47.02,-10"/>
<polygon fill="midnightblue" stroke="midnightblue" points="72.53,-13.5 82.53,-10 72.53,-6.5 72.53,-13.5"/>
</g>
</g>
</svg>
