<?xml version="1.0" encoding="UTF-8" standalone="no"?>
<!DOCTYPE svg PUBLIC "-//W3C//DTD SVG 1.1//EN"
 "http://www.w3.org/Graphics/SVG/1.1/DTD/svg11.dtd">
<!-- Generated by graphviz version 3.0.0 (0)
 -->
<!-- Title: operations_load_xml Pages: 1 -->
<svg width="451pt" height="154pt"
 viewBox="0.00 0.00 451.00 154.00" xmlns="http://www.w3.org/2000/svg" xmlns:xlink="http://www.w3.org/1999/xlink">
<g id="graph0" class="graph" transform="scale(1 1) rotate(0) translate(4 150)">
<title>operations_load_xml</title>
<polygon fill="white" stroke="transparent" points="-4,4 -4,-150 447,-150 447,4 -4,4"/>
<!-- Node1 -->
<g id="node1" class="node">
<title>Node1</title>
<g id="a_node1"><a xlink:title=" ">
<polygon fill="#bfbfbf" stroke="black" points="0,-66.5 0,-85.5 119,-85.5 119,-66.5 0,-66.5"/>
<text text-anchor="middle" x="59.5" y="-73.5" font-family="Helvetica,sans-Serif" font-size="10.00">operations_load_xml</text>
</a>
</g>
</g>
<!-- Node2 -->
<g id="node2" class="node">
<title>Node2</title>
<g id="a_node2"><a xlink:href="group___parsing.html#ga724a75a0bcc5898b0f2e576db5a3ef65" target="_top" xlink:title=" ">
<polygon fill="white" stroke="black" points="155,-66.5 155,-85.5 275,-85.5 275,-66.5 155,-66.5"/>
<text text-anchor="middle" x="215" y="-73.5" font-family="Helvetica,sans-Serif" font-size="10.00">operations_push_any</text>
</a>
</g>
</g>
<!-- Node1&#45;&gt;Node2 -->
<g id="edge1" class="edge">
<title>Node1&#45;&gt;Node2</title>
<path fill="none" stroke="midnightblue" d="M119.41,-76C127.7,-76 136.29,-76 144.76,-76"/>
<polygon fill="midnightblue" stroke="midnightblue" points="145,-79.5 155,-76 145,-72.5 145,-79.5"/>
</g>
<!-- Node2&#45;&gt;Node2 -->
<g id="edge4" class="edge">
<title>Node2&#45;&gt;Node2</title>
<path fill="none" stroke="midnightblue" d="M191.26,-85.76C179.72,-94.57 187.63,-104 215,-104 232.96,-104 242.54,-99.94 243.75,-94.65"/>
<polygon fill="midnightblue" stroke="midnightblue" points="246.69,-92.75 238.74,-85.76 240.59,-96.19 246.69,-92.75"/>
</g>
<!-- Node3 -->
<g id="node3" class="node">
<title>Node3</title>
<g id="a_node3"><a xlink:href="group___auxiliary.html#ga5e1350b5e6d7267d7e95a8ee351eae51" target="_top" xlink:title=" ">
<polygon fill="white" stroke="black" points="311,-126.5 311,-145.5 443,-145.5 443,-126.5 311,-126.5"/>
<text text-anchor="middle" x="377" y="-133.5" font-family="Helvetica,sans-Serif" font-size="10.00">crashIfFileDoesNotExist</text>
</a>
</g>
</g>
<!-- Node2&#45;&gt;Node3 -->
<g id="edge2" class="edge">
<title>Node2&#45;&gt;Node3</title>
<path fill="none" stroke="midnightblue" d="M236.09,-85.53C255.13,-94.35 284.64,-107.5 311,-117 317.32,-119.28 324.05,-121.48 330.7,-123.54"/>
<polygon fill="midnightblue" stroke="midnightblue" points="329.74,-126.9 340.32,-126.43 331.75,-120.2 329.74,-126.9"/>
</g>
<!-- Node4 -->
<g id="node4" class="node">
<title>Node4</title>
<g id="a_node4"><a xlink:href="group___auxiliary.html#gab70be49ae6c9836b6605fa296e23c58c" target="_top" xlink:title=" ">
<polygon fill="white" stroke="black" points="329.5,-88.5 329.5,-107.5 424.5,-107.5 424.5,-88.5 329.5,-88.5"/>
<text text-anchor="middle" x="377" y="-95.5" font-family="Helvetica,sans-Serif" font-size="10.00">elementToEnum</text>
</a>
</g>
</g>
<!-- Node2&#45;&gt;Node4 -->
<g id="edge3" class="edge">
<title>Node2&#45;&gt;Node4</title>
<path fill="none" stroke="midnightblue" d="M275.12,-84.13C289.52,-86.11 304.89,-88.22 319.18,-90.19"/>
<polygon fill="midnightblue" stroke="midnightblue" points="318.98,-93.69 329.36,-91.59 319.93,-86.76 318.98,-93.69"/>
</g>
<!-- Node5 -->
<g id="node5" class="node">
<title>Node5</title>
<g id="a_node5"><a xlink:href="group___auxiliary.html#ga27f2fb7edc94a99859f8e3a5120af3b4" target="_top" xlink:title=" ">
<polygon fill="white" stroke="black" points="312,-39 312,-69 442,-69 442,-39 312,-39"/>
<text text-anchor="start" x="320" y="-57" font-family="Helvetica,sans-Serif" font-size="10.00">operations_push_string</text>
<text text-anchor="middle" x="377" y="-46" font-family="Helvetica,sans-Serif" font-size="10.00">_attribute</text>
</a>
</g>
</g>
<!-- Node2&#45;&gt;Node5 -->
<g id="edge5" class="edge">
<title>Node2&#45;&gt;Node5</title>
<path fill="none" stroke="midnightblue" d="M275.12,-67.87C283.79,-66.68 292.81,-65.44 301.73,-64.21"/>
<polygon fill="midnightblue" stroke="midnightblue" points="302.31,-67.67 311.74,-62.84 301.36,-60.73 302.31,-67.67"/>
</g>
<!-- Node6 -->
<g id="node6" class="node">
<title>Node6</title>
<g id="a_node6"><a xlink:href="group___auxiliary.html#ga97fc3f3450980b121126d829a0263836" target="_top" xlink:title=" ">
<polygon fill="white" stroke="black" points="320.5,-0.5 320.5,-19.5 433.5,-19.5 433.5,-0.5 320.5,-0.5"/>
<text text-anchor="middle" x="377" y="-7.5" font-family="Helvetica,sans-Serif" font-size="10.00">pushFloatAttributes</text>
</a>
</g>
</g>
<!-- Node2&#45;&gt;Node6 -->
<g id="edge6" class="edge">
<title>Node2&#45;&gt;Node6</title>
<path fill="none" stroke="midnightblue" d="M233.85,-66.34C252.67,-56.4 283.37,-40.87 311,-30 317.72,-27.36 324.95,-24.83 332.04,-22.52"/>
<polygon fill="midnightblue" stroke="midnightblue" points="333.1,-25.86 341.59,-19.52 331,-19.18 333.1,-25.86"/>
</g>
</g>
</svg>
