<?xml version="1.0" encoding="UTF-8" standalone="no"?>
<!DOCTYPE svg PUBLIC "-//W3C//DTD SVG 1.1//EN"
 "http://www.w3.org/Graphics/SVG/1.1/DTD/svg11.dtd">
<!-- Generated by graphviz version 3.0.0 (0)
 -->
<!-- Title: operations_push_groups Pages: 1 -->
<svg width="915pt" height="110pt"
 viewBox="0.00 0.00 915.00 110.00" xmlns="http://www.w3.org/2000/svg" xmlns:xlink="http://www.w3.org/1999/xlink">
<g id="graph0" class="graph" transform="scale(1 1) rotate(0) translate(4 106)">
<title>operations_push_groups</title>
<polygon fill="white" stroke="transparent" points="-4,4 -4,-106 911,-106 911,4 -4,4"/>
<!-- Node1 -->
<g id="node1" class="node">
<title>Node1</title>
<g id="a_node1"><a xlink:title=" ">
<polygon fill="#bfbfbf" stroke="black" points="0,-52 0,-71 135,-71 135,-52 0,-52"/>
<text text-anchor="middle" x="67.5" y="-59" font-family="Helvetica,sans-Serif" font-size="10.00">operations_push_groups</text>
</a>
</g>
</g>
<!-- Node1&#45;&gt;Node1 -->
<g id="edge1" class="edge">
<title>Node1&#45;&gt;Node1</title>
<path fill="none" stroke="midnightblue" d="M39.76,-71.26C26.26,-80.07 35.51,-89.5 67.5,-89.5 89.49,-89.5 100.74,-85.04 101.23,-79.39"/>
<polygon fill="midnightblue" stroke="midnightblue" points="103.99,-77.23 95.24,-71.26 98.35,-81.38 103.99,-77.23"/>
</g>
<!-- Node2 -->
<g id="node2" class="node">
<title>Node2</title>
<g id="a_node2"><a xlink:href="group___models.html#gaf4f69faf6a2c6db692bd0f742c08ca17" target="_top" xlink:title=" ">
<polygon fill="white" stroke="black" points="179.5,-74 179.5,-93 317.5,-93 317.5,-74 179.5,-74"/>
<text text-anchor="middle" x="248.5" y="-81" font-family="Helvetica,sans-Serif" font-size="10.00">operations_push_models</text>
</a>
</g>
</g>
<!-- Node1&#45;&gt;Node2 -->
<g id="edge2" class="edge">
<title>Node1&#45;&gt;Node2</title>
<path fill="none" stroke="midnightblue" d="M135.15,-69.69C146.3,-71.06 157.95,-72.49 169.36,-73.9"/>
<polygon fill="midnightblue" stroke="midnightblue" points="168.94,-77.37 179.3,-75.12 169.8,-70.42 168.94,-77.37"/>
</g>
<!-- Node5 -->
<g id="node5" class="node">
<title>Node5</title>
<g id="a_node5"><a xlink:href="group___transforms.html#gab74408a65711c19872c69797a55c6229" target="_top" xlink:title=" ">
<polygon fill="white" stroke="black" points="171,-33 171,-52 326,-52 326,-33 171,-33"/>
<text text-anchor="middle" x="248.5" y="-40" font-family="Helvetica,sans-Serif" font-size="10.00">operations_push_transforms</text>
</a>
</g>
</g>
<!-- Node1&#45;&gt;Node5 -->
<g id="edge5" class="edge">
<title>Node1&#45;&gt;Node5</title>
<path fill="none" stroke="midnightblue" d="M135.15,-54.43C143.51,-53.54 152.16,-52.62 160.77,-51.71"/>
<polygon fill="midnightblue" stroke="midnightblue" points="161.26,-55.17 170.84,-50.64 160.52,-48.21 161.26,-55.17"/>
</g>
<!-- Node3 -->
<g id="node3" class="node">
<title>Node3</title>
<g id="a_node3"><a xlink:href="group___models.html#ga9c6066851b617631703c06b7aa6f72ac" target="_top" xlink:title=" ">
<polygon fill="white" stroke="black" points="383,-75 383,-94 516,-94 516,-75 383,-75"/>
<text text-anchor="middle" x="449.5" y="-82" font-family="Helvetica,sans-Serif" font-size="10.00">operations_push_model</text>
</a>
</g>
</g>
<!-- Node2&#45;&gt;Node3 -->
<g id="edge3" class="edge">
<title>Node2&#45;&gt;Node3</title>
<path fill="none" stroke="midnightblue" d="M317.71,-83.84C335.38,-83.93 354.51,-84.03 372.55,-84.12"/>
<polygon fill="midnightblue" stroke="midnightblue" points="372.72,-87.62 382.74,-84.17 372.75,-80.62 372.72,-87.62"/>
</g>
<!-- Node4 -->
<g id="node4" class="node">
<title>Node4</title>
<g id="a_node4"><a xlink:href="group___models.html#gaa31dcad7bd49e781068f4d5f42734e2a" target="_top" xlink:title=" ">
<polygon fill="white" stroke="black" points="582,-71.5 582,-101.5 712,-101.5 712,-71.5 582,-71.5"/>
<text text-anchor="start" x="590" y="-89.5" font-family="Helvetica,sans-Serif" font-size="10.00">operations_push_string</text>
<text text-anchor="middle" x="647" y="-78.5" font-family="Helvetica,sans-Serif" font-size="10.00">_attribute</text>
</a>
</g>
</g>
<!-- Node3&#45;&gt;Node4 -->
<g id="edge4" class="edge">
<title>Node3&#45;&gt;Node4</title>
<path fill="none" stroke="midnightblue" d="M516.14,-85.17C534.02,-85.35 553.51,-85.55 571.82,-85.74"/>
<polygon fill="midnightblue" stroke="midnightblue" points="571.82,-89.24 581.86,-85.84 571.89,-82.24 571.82,-89.24"/>
</g>
<!-- Node6 -->
<g id="node6" class="node">
<title>Node6</title>
<g id="a_node6"><a xlink:href="group___transforms.html#ga9b8048838c7a406b93e9677dd9cb4373" target="_top" xlink:title=" ">
<polygon fill="white" stroke="black" points="362,-28 362,-47 537,-47 537,-28 362,-28"/>
<text text-anchor="middle" x="449.5" y="-35" font-family="Helvetica,sans-Serif" font-size="10.00">operations_push_transformation</text>
</a>
</g>
</g>
<!-- Node5&#45;&gt;Node6 -->
<g id="edge6" class="edge">
<title>Node5&#45;&gt;Node6</title>
<path fill="none" stroke="midnightblue" d="M326.15,-40.57C334.57,-40.36 343.23,-40.15 351.85,-39.93"/>
<polygon fill="midnightblue" stroke="midnightblue" points="352.03,-43.42 361.94,-39.67 351.86,-36.43 352.03,-43.42"/>
</g>
<!-- Node7 -->
<g id="node7" class="node">
<title>Node7</title>
<g id="a_node7"><a xlink:href="group___transforms.html#ga34490f49c910f6ad0b3b39d97ca6991f" target="_top" xlink:title=" ">
<polygon fill="white" stroke="black" points="573,-22.5 573,-52.5 721,-52.5 721,-22.5 573,-22.5"/>
<text text-anchor="start" x="581" y="-40.5" font-family="Helvetica,sans-Serif" font-size="10.00">operations_push_extended</text>
<text text-anchor="middle" x="647" y="-29.5" font-family="Helvetica,sans-Serif" font-size="10.00">_translate_attributes</text>
</a>
</g>
</g>
<!-- Node6&#45;&gt;Node7 -->
<g id="edge7" class="edge">
<title>Node6&#45;&gt;Node7</title>
<path fill="none" stroke="midnightblue" d="M537.1,-37.5C545.6,-37.5 554.21,-37.5 562.67,-37.5"/>
<polygon fill="midnightblue" stroke="midnightblue" points="562.9,-41 572.9,-37.5 562.9,-34 562.9,-41"/>
</g>
<!-- Node8 -->
<g id="node8" class="node">
<title>Node8</title>
<g id="a_node8"><a xlink:href="group___transforms.html#gaa8e01339ca5863980bb193197d4781e2" target="_top" xlink:title=" ">
<polygon fill="white" stroke="black" points="757,-0.5 757,-30.5 907,-30.5 907,-0.5 757,-0.5"/>
<text text-anchor="start" x="765" y="-18.5" font-family="Helvetica,sans-Serif" font-size="10.00">operations_push_transform</text>
<text text-anchor="middle" x="832" y="-7.5" font-family="Helvetica,sans-Serif" font-size="10.00">_attributes</text>
</a>
</g>
</g>
<!-- Node6&#45;&gt;Node8 -->
<g id="edge9" class="edge">
<title>Node6&#45;&gt;Node8</title>
<path fill="none" stroke="midnightblue" d="M487.19,-28C511.37,-22.24 543.85,-15.44 573,-12.5 638.44,-5.89 655.23,-11.6 721,-12.5 729.31,-12.61 737.97,-12.77 746.62,-12.96"/>
<polygon fill="midnightblue" stroke="midnightblue" points="746.67,-16.47 756.75,-13.2 746.83,-9.47 746.67,-16.47"/>
</g>
<!-- Node7&#45;&gt;Node8 -->
<g id="edge8" class="edge">
<title>Node7&#45;&gt;Node8</title>
<path fill="none" stroke="midnightblue" d="M721.12,-28.71C729.56,-27.7 738.22,-26.65 746.8,-25.62"/>
<polygon fill="midnightblue" stroke="midnightblue" points="747.29,-29.09 756.8,-24.42 746.46,-22.14 747.29,-29.09"/>
</g>
</g>
</svg>
