<?xml version="1.0" encoding="UTF-8" standalone="no"?>
<!DOCTYPE svg PUBLIC "-//W3C//DTD SVG 1.1//EN"
 "http://www.w3.org/Graphics/SVG/1.1/DTD/svg11.dtd">
<!-- Generated by graphviz version 3.0.0 (0)
 -->
<!-- Title: operations_render Pages: 1 -->
<svg width="262pt" height="104pt"
 viewBox="0.00 0.00 262.00 104.00" xmlns="http://www.w3.org/2000/svg" xmlns:xlink="http://www.w3.org/1999/xlink">
<g id="graph0" class="graph" transform="scale(1 1) rotate(0) translate(4 100)">
<title>operations_render</title>
<polygon fill="white" stroke="transparent" points="-4,4 -4,-100 258,-100 258,4 -4,4"/>
<!-- Node1 -->
<g id="node1" class="node">
<title>Node1</title>
<g id="a_node1"><a xlink:title=" ">
<polygon fill="#bfbfbf" stroke="black" points="0,-38.5 0,-57.5 105,-57.5 105,-38.5 0,-38.5"/>
<text text-anchor="middle" x="52.5" y="-45.5" font-family="Helvetica,sans-Serif" font-size="10.00">operations_render</text>
</a>
</g>
</g>
<!-- Node2 -->
<g id="node2" class="node">
<title>Node2</title>
<g id="a_node2"><a xlink:href="group__model_engine.html#ga56beba311d0a6fcbda9aeb516fe67f8f" target="_top" xlink:title=" ">
<polygon fill="white" stroke="black" points="162.5,-76.5 162.5,-95.5 232.5,-95.5 232.5,-76.5 162.5,-76.5"/>
<text text-anchor="middle" x="197.5" y="-83.5" font-family="Helvetica,sans-Serif" font-size="10.00">allocModel</text>
</a>
</g>
</g>
<!-- Node1&#45;&gt;Node2 -->
<g id="edge1" class="edge">
<title>Node1&#45;&gt;Node2</title>
<path fill="none" stroke="midnightblue" d="M89.58,-57.59C108.7,-62.67 132.32,-68.95 152.5,-74.31"/>
<polygon fill="midnightblue" stroke="midnightblue" points="151.83,-77.75 162.4,-76.94 153.63,-70.99 151.83,-77.75"/>
</g>
<!-- Node3 -->
<g id="node3" class="node">
<title>Node3</title>
<g id="a_node3"><a xlink:href="group__spherical.html#ga2a22d15f7463ccd8f8d1aa65e7578983" target="_top" xlink:title=" ">
<polygon fill="white" stroke="black" points="141,-38.5 141,-57.5 254,-57.5 254,-38.5 141,-38.5"/>
<text text-anchor="middle" x="197.5" y="-45.5" font-family="Helvetica,sans-Serif" font-size="10.00">cartesian2Spherical</text>
</a>
</g>
</g>
<!-- Node1&#45;&gt;Node3 -->
<g id="edge2" class="edge">
<title>Node1&#45;&gt;Node3</title>
<path fill="none" stroke="midnightblue" d="M105.13,-48C113.32,-48 121.88,-48 130.35,-48"/>
<polygon fill="midnightblue" stroke="midnightblue" points="130.6,-51.5 140.6,-48 130.6,-44.5 130.6,-51.5"/>
</g>
<!-- Node4 -->
<g id="node4" class="node">
<title>Node4</title>
<g id="a_node4"><a xlink:href="group__model_engine.html#ga9b0aa26dead35aab4fa6be0709998046" target="_top" xlink:title=" ">
<polygon fill="white" stroke="black" points="158.5,-0.5 158.5,-19.5 236.5,-19.5 236.5,-0.5 158.5,-0.5"/>
<text text-anchor="middle" x="197.5" y="-7.5" font-family="Helvetica,sans-Serif" font-size="10.00">renderModel</text>
</a>
</g>
</g>
<!-- Node1&#45;&gt;Node4 -->
<g id="edge3" class="edge">
<title>Node1&#45;&gt;Node4</title>
<path fill="none" stroke="midnightblue" d="M89.58,-38.41C108.13,-33.48 130.93,-27.43 150.7,-22.17"/>
<polygon fill="midnightblue" stroke="midnightblue" points="151.66,-25.54 160.43,-19.59 149.86,-18.77 151.66,-25.54"/>
</g>
</g>
</svg>
