<?xml version="1.0" encoding="UTF-8" standalone="no"?>
<!DOCTYPE svg PUBLIC "-//W3C//DTD SVG 1.1//EN"
 "http://www.w3.org/Graphics/SVG/1.1/DTD/svg11.dtd">
<!-- Generated by graphviz version 3.0.0 (0)
 -->
<!-- Title: Camera Pages: 1 -->
<svg width="280pt" height="101pt"
 viewBox="0.00 0.00 280.00 101.00" xmlns="http://www.w3.org/2000/svg" xmlns:xlink="http://www.w3.org/1999/xlink">
<g id="graph0" class="graph" transform="scale(1 1) rotate(0) translate(4 97)">
<title>Camera</title>
<polygon fill="white" stroke="transparent" points="-4,4 -4,-97 276,-97 276,4 -4,4"/>
<!-- Node3 -->
<g id="node1" class="node">
<title>Node3</title>
<g id="a_node1"><a xlink:href="group___profile.html" target="_top" xlink:title=" ">
<polygon fill="white" stroke="black" points="248.5,-93 200.5,-93 200.5,-74 248.5,-74 248.5,-93"/>
<text text-anchor="middle" x="224.5" y="-81" font-family="Helvetica,sans-Serif" font-size="10.00">Profile</text>
</a>
</g>
</g>
<!-- Node1 -->
<g id="node2" class="node">
<title>Node1</title>
<g id="a_node2"><a xlink:title=" ">
<polygon fill="#bfbfbf" stroke="black" points="141,-56 86,-56 86,-37 141,-37 141,-56"/>
<text text-anchor="middle" x="113.5" y="-44" font-family="Helvetica,sans-Serif" font-size="10.00">Camera</text>
</a>
</g>
</g>
<!-- Node1&#45;&gt;Node3 -->
<g id="edge2" class="edge">
<title>Node1&#45;&gt;Node3</title>
<path fill="none" stroke="black" d="M150.96,-58.88C167.3,-64.42 186.08,-70.8 200.43,-75.67"/>
<polygon fill="black" stroke="black" points="151.76,-55.45 141.16,-55.55 149.51,-62.08 151.76,-55.45"/>
</g>
<!-- Node5 -->
<g id="node4" class="node">
<title>Node5</title>
<g id="a_node4"><a xlink:href="group__explorer_camera.html" target="_top" xlink:title=" ">
<polygon fill="white" stroke="black" points="272,-56 177,-56 177,-37 272,-37 272,-56"/>
<text text-anchor="middle" x="224.5" y="-44" font-family="Helvetica,sans-Serif" font-size="10.00">ExplorerCamera</text>
</a>
</g>
</g>
<!-- Node1&#45;&gt;Node5 -->
<g id="edge4" class="edge">
<title>Node1&#45;&gt;Node5</title>
<path fill="none" stroke="black" d="M151.43,-46.5C159.56,-46.5 168.26,-46.5 176.71,-46.5"/>
<polygon fill="black" stroke="black" points="151.16,-43 141.16,-46.5 151.16,-50 151.16,-43"/>
</g>
<!-- Node4 -->
<g id="node5" class="node">
<title>Node4</title>
<g id="a_node5"><a xlink:href="group__fps_camera.html" target="_top" xlink:title=" ">
<polygon fill="white" stroke="black" points="260.5,-19 188.5,-19 188.5,0 260.5,0 260.5,-19"/>
<text text-anchor="middle" x="224.5" y="-7" font-family="Helvetica,sans-Serif" font-size="10.00">FpsCamera</text>
</a>
</g>
</g>
<!-- Node1&#45;&gt;Node4 -->
<g id="edge3" class="edge">
<title>Node1&#45;&gt;Node4</title>
<path fill="none" stroke="black" d="M150.81,-34.18C165.27,-29.27 181.65,-23.7 195.21,-19.1"/>
<polygon fill="black" stroke="black" points="149.51,-30.92 141.16,-37.45 151.76,-37.55 149.51,-30.92"/>
</g>
<!-- Node2 -->
<g id="node3" class="node">
<title>Node2</title>
<g id="a_node3"><a xlink:href="group__engine.html" target="_top" xlink:title=" ">
<polygon fill="white" stroke="black" points="50,-56 0,-56 0,-37 50,-37 50,-56"/>
<text text-anchor="middle" x="25" y="-44" font-family="Helvetica,sans-Serif" font-size="10.00">Engine</text>
</a>
</g>
</g>
<!-- Node2&#45;&gt;Node1 -->
<g id="edge1" class="edge">
<title>Node2&#45;&gt;Node1</title>
<path fill="none" stroke="black" d="M60.15,-46.5C68.68,-46.5 77.69,-46.5 85.8,-46.5"/>
<polygon fill="black" stroke="black" points="60.1,-43 50.1,-46.5 60.1,-50 60.1,-43"/>
</g>
</g>
</svg>
