<?xml version="1.0" encoding="UTF-8" standalone="no"?>
<!DOCTYPE svg PUBLIC "-//W3C//DTD SVG 1.1//EN"
 "http://www.w3.org/Graphics/SVG/1.1/DTD/svg11.dtd">
<!-- Generated by graphviz version 3.0.0 (0)
 -->
<!-- Title: main Pages: 1 -->
<svg width="860pt" height="527pt"
 viewBox="0.00 0.00 860.00 526.50" xmlns="http://www.w3.org/2000/svg" xmlns:xlink="http://www.w3.org/1999/xlink">
<g id="graph0" class="graph" transform="scale(1 1) rotate(0) translate(4 522.5)">
<title>main</title>
<polygon fill="white" stroke="transparent" points="-4,4 -4,-522.5 856,-522.5 856,4 -4,4"/>
<!-- Node1 -->
<g id="node1" class="node">
<title>Node1</title>
<g id="a_node1"><a xlink:title=" ">
<polygon fill="#bfbfbf" stroke="black" points="0,-190.5 0,-209.5 41,-209.5 41,-190.5 0,-190.5"/>
<text text-anchor="middle" x="20.5" y="-197.5" font-family="Helvetica,sans-Serif" font-size="10.00">main</text>
</a>
</g>
</g>
<!-- Node2 -->
<g id="node2" class="node">
<title>Node2</title>
<g id="a_node2"><a xlink:href="group___bezier.html#ga0886f14826417ba72823e219550591e1" target="_top" xlink:title=" ">
<polygon fill="white" stroke="black" points="78.5,-342.5 78.5,-361.5 191.5,-361.5 191.5,-342.5 78.5,-342.5"/>
<text text-anchor="middle" x="135" y="-349.5" font-family="Helvetica,sans-Serif" font-size="10.00">model_bezier_write</text>
</a>
</g>
</g>
<!-- Node1&#45;&gt;Node2 -->
<g id="edge1" class="edge">
<title>Node1&#45;&gt;Node2</title>
<path fill="none" stroke="midnightblue" d="M28.64,-209.87C39.17,-224.39 59.51,-252.36 77,-276 91.76,-295.95 108.86,-318.7 120.45,-334.07"/>
<polygon fill="midnightblue" stroke="midnightblue" points="117.76,-336.32 126.58,-342.19 123.35,-332.1 117.76,-336.32"/>
</g>
<!-- Node14 -->
<g id="node14" class="node">
<title>Node14</title>
<g id="a_node14"><a xlink:href="group___cone.html#ga8d44ed9ba371e8d8d356c8eaff378a5f" target="_top" xlink:title=" ">
<polygon fill="white" stroke="black" points="82,-247.5 82,-266.5 188,-266.5 188,-247.5 82,-247.5"/>
<text text-anchor="middle" x="135" y="-254.5" font-family="Helvetica,sans-Serif" font-size="10.00">model_cone_write</text>
</a>
</g>
</g>
<!-- Node1&#45;&gt;Node14 -->
<g id="edge13" class="edge">
<title>Node1&#45;&gt;Node14</title>
<path fill="none" stroke="midnightblue" d="M40.33,-209.54C58.26,-218.62 85.47,-232.41 105.95,-242.79"/>
<polygon fill="midnightblue" stroke="midnightblue" points="104.61,-246.03 115.11,-247.43 107.77,-239.79 104.61,-246.03"/>
</g>
<!-- Node18 -->
<g id="node18" class="node">
<title>Node18</title>
<g id="a_node18"><a xlink:href="group___cube.html#ga7239c3ce0b454de72e704380c91ab81d" target="_top" xlink:title=" ">
<polygon fill="white" stroke="black" points="82,-190.5 82,-209.5 188,-209.5 188,-190.5 82,-190.5"/>
<text text-anchor="middle" x="135" y="-197.5" font-family="Helvetica,sans-Serif" font-size="10.00">model_cube_write</text>
</a>
</g>
</g>
<!-- Node1&#45;&gt;Node18 -->
<g id="edge18" class="edge">
<title>Node1&#45;&gt;Node18</title>
<path fill="none" stroke="midnightblue" d="M41.1,-200C49.77,-200 60.51,-200 71.57,-200"/>
<polygon fill="midnightblue" stroke="midnightblue" points="71.76,-203.5 81.76,-200 71.76,-196.5 71.76,-203.5"/>
</g>
<!-- Node21 -->
<g id="node21" class="node">
<title>Node21</title>
<g id="a_node21"><a xlink:href="group___plane.html#ga5e8bda3b029f10d274a294c697a622cd" target="_top" xlink:title=" ">
<polygon fill="white" stroke="black" points="80,-133.5 80,-152.5 190,-152.5 190,-133.5 80,-133.5"/>
<text text-anchor="middle" x="135" y="-140.5" font-family="Helvetica,sans-Serif" font-size="10.00">model_plane_write</text>
</a>
</g>
</g>
<!-- Node1&#45;&gt;Node21 -->
<g id="edge22" class="edge">
<title>Node1&#45;&gt;Node21</title>
<path fill="none" stroke="midnightblue" d="M40.33,-190.46C58.26,-181.38 85.47,-167.59 105.95,-157.21"/>
<polygon fill="midnightblue" stroke="midnightblue" points="107.77,-160.21 115.11,-152.57 104.61,-153.97 107.77,-160.21"/>
</g>
<!-- Node24 -->
<g id="node24" class="node">
<title>Node24</title>
<g id="a_node24"><a xlink:href="group___sphere.html#gaf08dfd157d10007a1618c218c295083f" target="_top" xlink:title=" ">
<polygon fill="white" stroke="black" points="77,-57.5 77,-76.5 193,-76.5 193,-57.5 77,-57.5"/>
<text text-anchor="middle" x="135" y="-64.5" font-family="Helvetica,sans-Serif" font-size="10.00">model_sphere_write</text>
</a>
</g>
</g>
<!-- Node1&#45;&gt;Node24 -->
<g id="edge26" class="edge">
<title>Node1&#45;&gt;Node24</title>
<path fill="none" stroke="midnightblue" d="M27.88,-190.28C37.77,-175.47 57.66,-146.59 77,-124 89.28,-109.66 104.44,-94.61 116.04,-83.58"/>
<polygon fill="midnightblue" stroke="midnightblue" points="118.53,-86.04 123.42,-76.64 113.74,-80.94 118.53,-86.04"/>
</g>
<!-- Node3 -->
<g id="node3" class="node">
<title>Node3</title>
<g id="a_node3"><a xlink:href="group___bezier.html#gad696b1162ccfd03b01584b7794814cf5" target="_top" xlink:title=" ">
<polygon fill="white" stroke="black" points="243,-430.5 243,-449.5 352,-449.5 352,-430.5 243,-430.5"/>
<text text-anchor="middle" x="297.5" y="-437.5" font-family="Helvetica,sans-Serif" font-size="10.00">get_bezier_surface</text>
</a>
</g>
</g>
<!-- Node2&#45;&gt;Node3 -->
<g id="edge2" class="edge">
<title>Node2&#45;&gt;Node3</title>
<path fill="none" stroke="midnightblue" d="M146.32,-361.68C162.64,-376.49 195.97,-404.79 229,-421 233.66,-423.29 238.64,-425.34 243.71,-427.17"/>
<polygon fill="midnightblue" stroke="midnightblue" points="242.9,-430.59 253.5,-430.43 245.11,-423.95 242.9,-430.59"/>
</g>
<!-- Node10 -->
<g id="node10" class="node">
<title>Node10</title>
<g id="a_node10"><a xlink:href="group___bezier.html#ga20c58299589514750446c5b775b91bc0" target="_top" xlink:title=" ">
<polygon fill="white" stroke="black" points="235.5,-381 235.5,-411 359.5,-411 359.5,-381 235.5,-381"/>
<text text-anchor="start" x="243.5" y="-399" font-family="Helvetica,sans-Serif" font-size="10.00">model_bezier_surface</text>
<text text-anchor="middle" x="297.5" y="-388" font-family="Helvetica,sans-Serif" font-size="10.00">_nVertices</text>
</a>
</g>
</g>
<!-- Node2&#45;&gt;Node10 -->
<g id="edge9" class="edge">
<title>Node2&#45;&gt;Node10</title>
<path fill="none" stroke="midnightblue" d="M170.83,-361.55C188.65,-366.43 210.94,-372.55 231.78,-378.26"/>
<polygon fill="midnightblue" stroke="midnightblue" points="230.98,-381.67 241.55,-380.93 232.83,-374.92 230.98,-381.67"/>
</g>
<!-- Node12 -->
<g id="node12" class="node">
<title>Node12</title>
<g id="a_node12"><a xlink:href="group___write.html#gaf9dbdadabbf44c2542a65faaad2ae271" target="_top" xlink:title=" ">
<polygon fill="white" stroke="black" points="259,-228.5 259,-247.5 336,-247.5 336,-228.5 259,-228.5"/>
<text text-anchor="middle" x="297.5" y="-235.5" font-family="Helvetica,sans-Serif" font-size="10.00">model_write</text>
</a>
</g>
</g>
<!-- Node2&#45;&gt;Node12 -->
<g id="edge11" class="edge">
<title>Node2&#45;&gt;Node12</title>
<path fill="none" stroke="midnightblue" d="M142.73,-342.3C156.59,-323.06 190.29,-279.95 229,-257 235.26,-253.29 242.28,-250.27 249.37,-247.83"/>
<polygon fill="midnightblue" stroke="midnightblue" points="250.48,-251.15 259,-244.85 248.41,-244.46 250.48,-251.15"/>
</g>
<!-- Node13 -->
<g id="node13" class="node">
<title>Node13</title>
<g id="a_node13"><a xlink:href="group___bezier.html#ga84e3c4940075b047e593e590b6e814d8" target="_top" xlink:title=" ">
<polygon fill="white" stroke="black" points="260.5,-342.5 260.5,-361.5 334.5,-361.5 334.5,-342.5 260.5,-342.5"/>
<text text-anchor="middle" x="297.5" y="-349.5" font-family="Helvetica,sans-Serif" font-size="10.00">read_Bezier</text>
</a>
</g>
</g>
<!-- Node2&#45;&gt;Node13 -->
<g id="edge12" class="edge">
<title>Node2&#45;&gt;Node13</title>
<path fill="none" stroke="midnightblue" d="M191.68,-352C210.69,-352 231.74,-352 249.95,-352"/>
<polygon fill="midnightblue" stroke="midnightblue" points="250.03,-355.5 260.03,-352 250.03,-348.5 250.03,-355.5"/>
</g>
<!-- Node4 -->
<g id="node4" class="node">
<title>Node4</title>
<g id="a_node4"><a xlink:href="group___bezier.html#ga08aa0300760bfa97d7555a4c4d09f8be" target="_top" xlink:title=" ">
<polygon fill="white" stroke="black" points="413,-430.5 413,-449.5 513,-449.5 513,-430.5 413,-430.5"/>
<text text-anchor="middle" x="463" y="-437.5" font-family="Helvetica,sans-Serif" font-size="10.00">get_bezier_patch</text>
</a>
</g>
</g>
<!-- Node3&#45;&gt;Node4 -->
<g id="edge3" class="edge">
<title>Node3&#45;&gt;Node4</title>
<path fill="none" stroke="midnightblue" d="M352.04,-440C368.23,-440 386.11,-440 402.66,-440"/>
<polygon fill="midnightblue" stroke="midnightblue" points="402.77,-443.5 412.77,-440 402.77,-436.5 402.77,-443.5"/>
</g>
<!-- Node5 -->
<g id="node5" class="node">
<title>Node5</title>
<g id="a_node5"><a xlink:href="group___bezier.html#ga4623e7c5e81e842a2b10cd85b9481744" target="_top" xlink:title=" ">
<polygon fill="white" stroke="black" points="560,-430.5 560,-449.5 673,-449.5 673,-430.5 560,-430.5"/>
<text text-anchor="middle" x="616.5" y="-437.5" font-family="Helvetica,sans-Serif" font-size="10.00">get_bezier_point_at</text>
</a>
</g>
</g>
<!-- Node4&#45;&gt;Node5 -->
<g id="edge4" class="edge">
<title>Node4&#45;&gt;Node5</title>
<path fill="none" stroke="midnightblue" d="M513.19,-440C524.87,-440 537.51,-440 549.79,-440"/>
<polygon fill="midnightblue" stroke="midnightblue" points="550,-443.5 560,-440 550,-436.5 550,-443.5"/>
</g>
<!-- Node6 -->
<g id="node6" class="node">
<title>Node6</title>
<g id="a_node6"><a xlink:href="group___bezier.html#gad11b5559e8d34f899f934960207ded9a" target="_top" xlink:title=" ">
<polygon fill="white" stroke="black" points="724,-488 724,-518 837,-518 837,-488 724,-488"/>
<text text-anchor="start" x="732" y="-506" font-family="Helvetica,sans-Serif" font-size="10.00">deriv_of_monic_3rd</text>
<text text-anchor="middle" x="780.5" y="-495" font-family="Helvetica,sans-Serif" font-size="10.00">_polynomial_at</text>
</a>
</g>
</g>
<!-- Node5&#45;&gt;Node6 -->
<g id="edge5" class="edge">
<title>Node5&#45;&gt;Node6</title>
<path fill="none" stroke="midnightblue" d="M639.56,-449.54C658.01,-457.44 685.08,-468.8 709,-478 714.51,-480.12 720.29,-482.28 726.07,-484.39"/>
<polygon fill="midnightblue" stroke="midnightblue" points="725.15,-487.78 735.74,-487.89 727.53,-481.2 725.15,-487.78"/>
</g>
<!-- Node7 -->
<g id="node7" class="node">
<title>Node7</title>
<g id="a_node7"><a xlink:href="group___curves.html#ga6d6def6a76701b08284cba58066e3382" target="_top" xlink:title=" ">
<polygon fill="white" stroke="black" points="725.5,-449.5 725.5,-468.5 835.5,-468.5 835.5,-449.5 725.5,-449.5"/>
<text text-anchor="middle" x="780.5" y="-456.5" font-family="Helvetica,sans-Serif" font-size="10.00">get_curve_point_at</text>
</a>
</g>
</g>
<!-- Node5&#45;&gt;Node7 -->
<g id="edge6" class="edge">
<title>Node5&#45;&gt;Node7</title>
<path fill="none" stroke="midnightblue" d="M673.25,-446.54C686.8,-448.13 701.4,-449.84 715.31,-451.47"/>
<polygon fill="midnightblue" stroke="midnightblue" points="714.95,-454.95 725.29,-452.64 715.76,-448 714.95,-454.95"/>
</g>
<!-- Node8 -->
<g id="node8" class="node">
<title>Node8</title>
<g id="a_node8"><a xlink:href="group___bezier.html#gafcf7fcde525db8b303b2205562b7684d" target="_top" xlink:title=" ">
<polygon fill="white" stroke="black" points="762.5,-411.5 762.5,-430.5 798.5,-430.5 798.5,-411.5 762.5,-411.5"/>
<text text-anchor="middle" x="780.5" y="-418.5" font-family="Helvetica,sans-Serif" font-size="10.00">mat</text>
</a>
</g>
</g>
<!-- Node5&#45;&gt;Node8 -->
<g id="edge7" class="edge">
<title>Node5&#45;&gt;Node8</title>
<path fill="none" stroke="midnightblue" d="M673.25,-433.46C700.03,-430.32 730.9,-426.7 752.44,-424.17"/>
<polygon fill="midnightblue" stroke="midnightblue" points="752.97,-427.64 762.49,-422.99 752.15,-420.68 752.97,-427.64"/>
</g>
<!-- Node9 -->
<g id="node9" class="node">
<title>Node9</title>
<g id="a_node9"><a xlink:href="group___bezier.html#gaa5cc85b3de7b256bb1f7c98ac78fef08" target="_top" xlink:title=" ">
<polygon fill="white" stroke="black" points="709,-373.5 709,-392.5 852,-392.5 852,-373.5 709,-373.5"/>
<text text-anchor="middle" x="780.5" y="-380.5" font-family="Helvetica,sans-Serif" font-size="10.00">monic_3rd_polynomial_at</text>
</a>
</g>
</g>
<!-- Node5&#45;&gt;Node9 -->
<g id="edge8" class="edge">
<title>Node5&#45;&gt;Node9</title>
<path fill="none" stroke="midnightblue" d="M638.28,-430.46C656.64,-422.25 684.25,-410.43 709,-402 715.93,-399.64 723.32,-397.38 730.61,-395.29"/>
<polygon fill="midnightblue" stroke="midnightblue" points="731.74,-398.61 740.44,-392.55 729.87,-391.86 731.74,-398.61"/>
</g>
<!-- Node11 -->
<g id="node11" class="node">
<title>Node11</title>
<g id="a_node11"><a xlink:href="group___bezier.html#ga8d6c3e5adc4ee3cfb89a75f2ce7642a8" target="_top" xlink:title=" ">
<polygon fill="white" stroke="black" points="405.5,-381 405.5,-411 520.5,-411 520.5,-381 405.5,-381"/>
<text text-anchor="start" x="413.5" y="-399" font-family="Helvetica,sans-Serif" font-size="10.00">model_bezier_patch</text>
<text text-anchor="middle" x="463" y="-388" font-family="Helvetica,sans-Serif" font-size="10.00">_nVertices</text>
</a>
</g>
</g>
<!-- Node10&#45;&gt;Node11 -->
<g id="edge10" class="edge">
<title>Node10&#45;&gt;Node11</title>
<path fill="none" stroke="midnightblue" d="M359.85,-396C371.41,-396 383.56,-396 395.27,-396"/>
<polygon fill="midnightblue" stroke="midnightblue" points="395.44,-399.5 405.44,-396 395.44,-392.5 395.44,-399.5"/>
</g>
<!-- Node14&#45;&gt;Node12 -->
<g id="edge17" class="edge">
<title>Node14&#45;&gt;Node12</title>
<path fill="none" stroke="midnightblue" d="M188.11,-250.83C207.66,-248.52 229.77,-245.9 248.89,-243.64"/>
<polygon fill="midnightblue" stroke="midnightblue" points="249.36,-247.1 258.88,-242.45 248.54,-240.15 249.36,-247.1"/>
</g>
<!-- Node15 -->
<g id="node15" class="node">
<title>Node15</title>
<g id="a_node15"><a xlink:href="group___cone.html#ga5b5f2964e2c773066361e823daa9211d" target="_top" xlink:title=" ">
<polygon fill="white" stroke="black" points="234,-304.5 234,-323.5 361,-323.5 361,-304.5 234,-304.5"/>
<text text-anchor="middle" x="297.5" y="-311.5" font-family="Helvetica,sans-Serif" font-size="10.00">model_cone_nVertices</text>
</a>
</g>
</g>
<!-- Node14&#45;&gt;Node15 -->
<g id="edge14" class="edge">
<title>Node14&#45;&gt;Node15</title>
<path fill="none" stroke="midnightblue" d="M157.53,-266.61C176.21,-274.76 204.09,-286.44 229,-295 235.81,-297.34 243.07,-299.61 250.22,-301.72"/>
<polygon fill="midnightblue" stroke="midnightblue" points="249.26,-305.09 259.83,-304.5 251.19,-298.36 249.26,-305.09"/>
</g>
<!-- Node16 -->
<g id="node16" class="node">
<title>Node16</title>
<g id="a_node16"><a xlink:href="group___cone.html#ga6ea124a8a7febdc575dae2585526a7e7" target="_top" xlink:title=" ">
<polygon fill="white" stroke="black" points="237.5,-266.5 237.5,-285.5 357.5,-285.5 357.5,-266.5 237.5,-266.5"/>
<text text-anchor="middle" x="297.5" y="-273.5" font-family="Helvetica,sans-Serif" font-size="10.00">model_cone_vertices</text>
</a>
</g>
</g>
<!-- Node14&#45;&gt;Node16 -->
<g id="edge15" class="edge">
<title>Node14&#45;&gt;Node16</title>
<path fill="none" stroke="midnightblue" d="M188.11,-263.17C200.66,-264.65 214.25,-266.26 227.44,-267.82"/>
<polygon fill="midnightblue" stroke="midnightblue" points="227.07,-271.31 237.42,-269.01 227.9,-264.35 227.07,-271.31"/>
</g>
<!-- Node17 -->
<g id="node17" class="node">
<title>Node17</title>
<g id="a_node17"><a xlink:href="group___cone.html#ga57970e2d7e92898171f3ab74ff588ec4" target="_top" xlink:title=" ">
<polygon fill="white" stroke="black" points="406.5,-266.5 406.5,-285.5 519.5,-285.5 519.5,-266.5 406.5,-266.5"/>
<text text-anchor="middle" x="463" y="-273.5" font-family="Helvetica,sans-Serif" font-size="10.00">model_cone_vertex</text>
</a>
</g>
</g>
<!-- Node16&#45;&gt;Node17 -->
<g id="edge16" class="edge">
<title>Node16&#45;&gt;Node17</title>
<path fill="none" stroke="midnightblue" d="M357.53,-276C370.09,-276 383.42,-276 396.21,-276"/>
<polygon fill="midnightblue" stroke="midnightblue" points="396.33,-279.5 406.33,-276 396.33,-272.5 396.33,-279.5"/>
</g>
<!-- Node18&#45;&gt;Node12 -->
<g id="edge21" class="edge">
<title>Node18&#45;&gt;Node12</title>
<path fill="none" stroke="midnightblue" d="M176.5,-209.59C198.5,-214.8 225.84,-221.27 248.86,-226.72"/>
<polygon fill="midnightblue" stroke="midnightblue" points="248.23,-230.17 258.77,-229.07 249.84,-223.36 248.23,-230.17"/>
</g>
<!-- Node19 -->
<g id="node19" class="node">
<title>Node19</title>
<g id="a_node19"><a xlink:href="group___cube.html#gac38b747f505758bd5a764bbffb67d6b8" target="_top" xlink:title=" ">
<polygon fill="white" stroke="black" points="234,-190.5 234,-209.5 361,-209.5 361,-190.5 234,-190.5"/>
<text text-anchor="middle" x="297.5" y="-197.5" font-family="Helvetica,sans-Serif" font-size="10.00">model_cube_nVertices</text>
</a>
</g>
</g>
<!-- Node18&#45;&gt;Node19 -->
<g id="edge19" class="edge">
<title>Node18&#45;&gt;Node19</title>
<path fill="none" stroke="midnightblue" d="M188.11,-200C199.48,-200 211.71,-200 223.72,-200"/>
<polygon fill="midnightblue" stroke="midnightblue" points="223.73,-203.5 233.73,-200 223.73,-196.5 223.73,-203.5"/>
</g>
<!-- Node20 -->
<g id="node20" class="node">
<title>Node20</title>
<g id="a_node20"><a xlink:href="group___cube.html#ga6f47c7f7a450b00614ed0114ea191025" target="_top" xlink:title=" ">
<polygon fill="white" stroke="black" points="237.5,-152.5 237.5,-171.5 357.5,-171.5 357.5,-152.5 237.5,-152.5"/>
<text text-anchor="middle" x="297.5" y="-159.5" font-family="Helvetica,sans-Serif" font-size="10.00">model_cube_vertices</text>
</a>
</g>
</g>
<!-- Node18&#45;&gt;Node20 -->
<g id="edge20" class="edge">
<title>Node18&#45;&gt;Node20</title>
<path fill="none" stroke="midnightblue" d="M176.5,-190.41C197.68,-185.4 223.8,-179.21 246.26,-173.89"/>
<polygon fill="midnightblue" stroke="midnightblue" points="247.37,-177.23 256.29,-171.52 245.75,-170.42 247.37,-177.23"/>
</g>
<!-- Node21&#45;&gt;Node12 -->
<g id="edge25" class="edge">
<title>Node21&#45;&gt;Node12</title>
<path fill="none" stroke="midnightblue" d="M152.41,-152.57C164.19,-159.76 180.18,-170.19 193,-181 210.79,-195.99 209.09,-206.97 229,-219 235.23,-222.76 242.24,-225.81 249.31,-228.26"/>
<polygon fill="midnightblue" stroke="midnightblue" points="248.35,-231.63 258.94,-231.25 250.43,-224.94 248.35,-231.63"/>
</g>
<!-- Node22 -->
<g id="node22" class="node">
<title>Node22</title>
<g id="a_node22"><a xlink:href="group___plane.html#ga917b50a03b0518d3eb50af41249da642" target="_top" xlink:title=" ">
<polygon fill="white" stroke="black" points="232,-114.5 232,-133.5 363,-133.5 363,-114.5 232,-114.5"/>
<text text-anchor="middle" x="297.5" y="-121.5" font-family="Helvetica,sans-Serif" font-size="10.00">model_plane_nVertices</text>
</a>
</g>
</g>
<!-- Node21&#45;&gt;Node22 -->
<g id="edge23" class="edge">
<title>Node21&#45;&gt;Node22</title>
<path fill="none" stroke="midnightblue" d="M190.34,-136.57C200.47,-135.37 211.22,-134.1 221.83,-132.84"/>
<polygon fill="midnightblue" stroke="midnightblue" points="222.43,-136.29 231.95,-131.64 221.61,-129.34 222.43,-136.29"/>
</g>
<!-- Node23 -->
<g id="node23" class="node">
<title>Node23</title>
<g id="a_node23"><a xlink:href="group___plane.html#ga5ab17d05dd31c49e98dc33d0e46e3308" target="_top" xlink:title=" ">
<polygon fill="white" stroke="black" points="235.5,-76.5 235.5,-95.5 359.5,-95.5 359.5,-76.5 235.5,-76.5"/>
<text text-anchor="middle" x="297.5" y="-83.5" font-family="Helvetica,sans-Serif" font-size="10.00">model_plane_vertices</text>
</a>
</g>
</g>
<!-- Node21&#45;&gt;Node23 -->
<g id="edge24" class="edge">
<title>Node21&#45;&gt;Node23</title>
<path fill="none" stroke="midnightblue" d="M157.53,-133.39C176.21,-125.24 204.09,-113.56 229,-105 235.81,-102.66 243.07,-100.39 250.22,-98.28"/>
<polygon fill="midnightblue" stroke="midnightblue" points="251.19,-101.64 259.83,-95.5 249.26,-94.91 251.19,-101.64"/>
</g>
<!-- Node24&#45;&gt;Node12 -->
<g id="edge30" class="edge">
<title>Node24&#45;&gt;Node12</title>
<path fill="none" stroke="midnightblue" d="M148.43,-76.71C161.14,-87.19 180.69,-104.96 193,-124 217.51,-161.92 195.7,-188.51 229,-219 234.62,-224.14 241.52,-227.91 248.74,-230.66"/>
<polygon fill="midnightblue" stroke="midnightblue" points="248.12,-234.13 258.71,-233.82 250.23,-227.46 248.12,-234.13"/>
</g>
<!-- Node25 -->
<g id="node25" class="node">
<title>Node25</title>
<g id="a_node25"><a xlink:href="group___sphere.html#ga093e996c7f18f239228d66ffa2b35078" target="_top" xlink:title=" ">
<polygon fill="white" stroke="black" points="229,-38.5 229,-57.5 366,-57.5 366,-38.5 229,-38.5"/>
<text text-anchor="middle" x="297.5" y="-45.5" font-family="Helvetica,sans-Serif" font-size="10.00">model_sphere_nVertices</text>
</a>
</g>
</g>
<!-- Node24&#45;&gt;Node25 -->
<g id="edge27" class="edge">
<title>Node24&#45;&gt;Node25</title>
<path fill="none" stroke="midnightblue" d="M193.04,-60.25C201.39,-59.26 210.11,-58.23 218.8,-57.2"/>
<polygon fill="midnightblue" stroke="midnightblue" points="219.42,-60.65 228.94,-56 218.6,-53.7 219.42,-60.65"/>
</g>
<!-- Node26 -->
<g id="node26" class="node">
<title>Node26</title>
<g id="a_node26"><a xlink:href="group___sphere.html#ga70b7b26f0308dc10cf2756987651de92" target="_top" xlink:title=" ">
<polygon fill="white" stroke="black" points="232.5,-0.5 232.5,-19.5 362.5,-19.5 362.5,-0.5 232.5,-0.5"/>
<text text-anchor="middle" x="297.5" y="-7.5" font-family="Helvetica,sans-Serif" font-size="10.00">model_sphere_vertices</text>
</a>
</g>
</g>
<!-- Node24&#45;&gt;Node26 -->
<g id="edge28" class="edge">
<title>Node24&#45;&gt;Node26</title>
<path fill="none" stroke="midnightblue" d="M157.53,-57.39C176.21,-49.24 204.09,-37.56 229,-29 235.81,-26.66 243.07,-24.39 250.22,-22.28"/>
<polygon fill="midnightblue" stroke="midnightblue" points="251.19,-25.64 259.83,-19.5 249.26,-18.91 251.19,-25.64"/>
</g>
<!-- Node27 -->
<g id="node27" class="node">
<title>Node27</title>
<g id="a_node27"><a xlink:href="group___sphere.html#gacf1c00867069a3a1ad3a69b8ded33821" target="_top" xlink:title=" ">
<polygon fill="white" stroke="black" points="402,-0.5 402,-19.5 524,-19.5 524,-0.5 402,-0.5"/>
<text text-anchor="middle" x="463" y="-7.5" font-family="Helvetica,sans-Serif" font-size="10.00">model_sphere_vertex</text>
</a>
</g>
</g>
<!-- Node26&#45;&gt;Node27 -->
<g id="edge29" class="edge">
<title>Node26&#45;&gt;Node27</title>
<path fill="none" stroke="midnightblue" d="M362.65,-10C372.11,-10 381.9,-10 391.48,-10"/>
<polygon fill="midnightblue" stroke="midnightblue" points="391.77,-13.5 401.77,-10 391.77,-6.5 391.77,-13.5"/>
</g>
</g>
</svg>
