<?xml version="1.0" encoding="UTF-8" standalone="no"?>
<!DOCTYPE svg PUBLIC "-//W3C//DTD SVG 1.1//EN"
 "http://www.w3.org/Graphics/SVG/1.1/DTD/svg11.dtd">
<!-- Generated by graphviz version 3.0.0 (0)
 -->
<!-- Title: Generator Pages: 1 -->
<svg width="161pt" height="101pt"
 viewBox="0.00 0.00 161.00 101.00" xmlns="http://www.w3.org/2000/svg" xmlns:xlink="http://www.w3.org/1999/xlink">
<g id="graph0" class="graph" transform="scale(1 1) rotate(0) translate(4 97)">
<title>Generator</title>
<polygon fill="white" stroke="transparent" points="-4,4 -4,-97 157,-97 157,4 -4,4"/>
<!-- Node4 -->
<g id="node1" class="node">
<title>Node4</title>
<g id="a_node1"><a xlink:href="group___c_l_i.html" target="_top" xlink:title=" ">
<polygon fill="white" stroke="black" points="143,-93 111,-93 111,-74 143,-74 143,-93"/>
<text text-anchor="middle" x="127" y="-81" font-family="Helvetica,sans-Serif" font-size="10.00">CLI</text>
</a>
</g>
</g>
<!-- Node3 -->
<g id="node2" class="node">
<title>Node3</title>
<g id="a_node2"><a xlink:href="group___models.html" target="_top" xlink:title=" ">
<polygon fill="white" stroke="black" points="153,-56 101,-56 101,-37 153,-37 153,-56"/>
<text text-anchor="middle" x="127" y="-44" font-family="Helvetica,sans-Serif" font-size="10.00">Models</text>
</a>
</g>
</g>
<!-- Node2 -->
<g id="node3" class="node">
<title>Node2</title>
<g id="a_node3"><a xlink:href="group___write.html" target="_top" xlink:title=" ">
<polygon fill="white" stroke="black" points="148.5,-19 105.5,-19 105.5,0 148.5,0 148.5,-19"/>
<text text-anchor="middle" x="127" y="-7" font-family="Helvetica,sans-Serif" font-size="10.00">Write</text>
</a>
</g>
</g>
<!-- Node1 -->
<g id="node4" class="node">
<title>Node1</title>
<g id="a_node4"><a xlink:title=" ">
<polygon fill="#bfbfbf" stroke="black" points="65,-56 0,-56 0,-37 65,-37 65,-56"/>
<text text-anchor="middle" x="32.5" y="-44" font-family="Helvetica,sans-Serif" font-size="10.00">Generator</text>
</a>
</g>
</g>
<!-- Node1&#45;&gt;Node4 -->
<g id="edge3" class="edge">
<title>Node1&#45;&gt;Node4</title>
<path fill="none" stroke="black" d="M66.88,-59.85C81.97,-65.89 99.04,-72.72 110.95,-77.48"/>
<polygon fill="black" stroke="black" points="67.91,-56.49 57.32,-56.03 65.31,-62.99 67.91,-56.49"/>
</g>
<!-- Node1&#45;&gt;Node3 -->
<g id="edge2" class="edge">
<title>Node1&#45;&gt;Node3</title>
<path fill="none" stroke="black" d="M75.22,-46.5C84.02,-46.5 93.04,-46.5 100.98,-46.5"/>
<polygon fill="black" stroke="black" points="75.07,-43 65.07,-46.5 75.07,-50 75.07,-43"/>
</g>
<!-- Node1&#45;&gt;Node2 -->
<g id="edge1" class="edge">
<title>Node1&#45;&gt;Node2</title>
<path fill="none" stroke="black" d="M66.82,-33.17C79.71,-28.01 94.06,-22.28 105.4,-17.74"/>
<polygon fill="black" stroke="black" points="65.31,-30.01 57.32,-36.97 67.91,-36.51 65.31,-30.01"/>
</g>
</g>
</svg>
