<?xml version="1.0" encoding="UTF-8" standalone="no"?>
<!DOCTYPE svg PUBLIC "-//W3C//DTD SVG 1.1//EN"
 "http://www.w3.org/Graphics/SVG/1.1/DTD/svg11.dtd">
<!-- Generated by graphviz version 3.0.0 (0)
 -->
<!-- Title: Operations Pages: 1 -->
<svg width="185pt" height="138pt"
 viewBox="0.00 0.00 185.00 138.00" xmlns="http://www.w3.org/2000/svg" xmlns:xlink="http://www.w3.org/1999/xlink">
<g id="graph0" class="graph" transform="scale(1 1) rotate(0) translate(4 134)">
<title>Operations</title>
<polygon fill="white" stroke="transparent" points="-4,4 -4,-134 181,-134 181,4 -4,4"/>
<!-- Node4 -->
<g id="node1" class="node">
<title>Node4</title>
<g id="a_node1"><a xlink:href="group___groups.html" target="_top" xlink:title=" ">
<polygon fill="white" stroke="black" points="167,-130 116,-130 116,-111 167,-111 167,-130"/>
<text text-anchor="middle" x="141.5" y="-118" font-family="Helvetica,sans-Serif" font-size="10.00">Groups</text>
</a>
</g>
</g>
<!-- Node3 -->
<g id="node2" class="node">
<title>Node3</title>
<g id="a_node2"><a xlink:href="group___models.html" target="_top" xlink:title=" ">
<polygon fill="white" stroke="black" points="167.5,-93 115.5,-93 115.5,-74 167.5,-74 167.5,-93"/>
<text text-anchor="middle" x="141.5" y="-81" font-family="Helvetica,sans-Serif" font-size="10.00">Models</text>
</a>
</g>
</g>
<!-- Node1 -->
<g id="node3" class="node">
<title>Node1</title>
<g id="a_node3"><a xlink:title=" ">
<polygon fill="#bfbfbf" stroke="black" points="70,-74 0,-74 0,-55 70,-55 70,-74"/>
<text text-anchor="middle" x="35" y="-62" font-family="Helvetica,sans-Serif" font-size="10.00">Operations</text>
</a>
</g>
</g>
<!-- Node1&#45;&gt;Node4 -->
<g id="edge3" class="edge">
<title>Node1&#45;&gt;Node4</title>
<path fill="none" stroke="black" d="M62.44,-78.99C75.52,-86.12 91.56,-94.81 106,-102.5 111.13,-105.23 116.71,-108.16 121.85,-110.84"/>
<polygon fill="black" stroke="black" points="63.96,-75.83 53.51,-74.11 60.6,-81.97 63.96,-75.83"/>
</g>
<!-- Node1&#45;&gt;Node3 -->
<g id="edge2" class="edge">
<title>Node1&#45;&gt;Node3</title>
<path fill="none" stroke="black" d="M80.16,-72.53C92.23,-74.72 104.9,-77.03 115.49,-78.95"/>
<polygon fill="black" stroke="black" points="80.68,-69.07 70.22,-70.72 79.43,-75.95 80.68,-69.07"/>
</g>
<!-- Node2 -->
<g id="node4" class="node">
<title>Node2</title>
<g id="a_node4"><a xlink:href="group___transforms.html" target="_top" xlink:title=" ">
<polygon fill="white" stroke="black" points="177,-56 106,-56 106,-37 177,-37 177,-56"/>
<text text-anchor="middle" x="141.5" y="-44" font-family="Helvetica,sans-Serif" font-size="10.00">Transforms</text>
</a>
</g>
</g>
<!-- Node1&#45;&gt;Node2 -->
<g id="edge1" class="edge">
<title>Node1&#45;&gt;Node2</title>
<path fill="none" stroke="black" d="M80.11,-56.9C88.71,-55.42 97.61,-53.89 105.85,-52.47"/>
<polygon fill="black" stroke="black" points="79.48,-53.46 70.22,-58.61 80.67,-60.36 79.48,-53.46"/>
</g>
<!-- Node5 -->
<g id="node5" class="node">
<title>Node5</title>
<g id="a_node5"><a xlink:href="group__xml.html" target="_top" xlink:title=" ">
<polygon fill="white" stroke="black" points="159.5,-19 123.5,-19 123.5,0 159.5,0 159.5,-19"/>
<text text-anchor="middle" x="141.5" y="-7" font-family="Helvetica,sans-Serif" font-size="10.00">Xml</text>
</a>
</g>
</g>
<!-- Node1&#45;&gt;Node5 -->
<g id="edge4" class="edge">
<title>Node1&#45;&gt;Node5</title>
<path fill="none" stroke="black" d="M63.25,-50.16C82.2,-40.18 106.89,-27.19 123.2,-18.61"/>
<polygon fill="black" stroke="black" points="61.42,-47.16 54.2,-54.92 64.68,-53.36 61.42,-47.16"/>
</g>
</g>
</svg>
