<?xml version="1.0" encoding="UTF-8" standalone="no"?>
<!DOCTYPE svg PUBLIC "-//W3C//DTD SVG 1.1//EN"
 "http://www.w3.org/Graphics/SVG/1.1/DTD/svg11.dtd">
<!-- Generated by graphviz version 3.0.0 (0)
 -->
<!-- Title: main Pages: 1 -->
<svg width="1418pt" height="519pt"
 viewBox="0.00 0.00 1418.00 518.50" xmlns="http://www.w3.org/2000/svg" xmlns:xlink="http://www.w3.org/1999/xlink">
<g id="graph0" class="graph" transform="scale(1 1) rotate(0) translate(4 514.5)">
<title>main</title>
<polygon fill="white" stroke="transparent" points="-4,4 -4,-514.5 1414,-514.5 1414,4 -4,4"/>
<!-- Node1 -->
<g id="node1" class="node">
<title>Node1</title>
<g id="a_node1"><a xlink:title=" ">
<polygon fill="#bfbfbf" stroke="black" points="0,-145.5 0,-164.5 41,-164.5 41,-145.5 0,-145.5"/>
<text text-anchor="middle" x="20.5" y="-152.5" font-family="Helvetica,sans-Serif" font-size="10.00">main</text>
</a>
</g>
</g>
<!-- Node2 -->
<g id="node2" class="node">
<title>Node2</title>
<g id="a_node2"><a xlink:href="group__engine.html#ga98eaf946471acbd931de5d52ca83b3d1" target="_top" xlink:title=" ">
<polygon fill="white" stroke="black" points="77,-145.5 77,-164.5 148,-164.5 148,-145.5 77,-145.5"/>
<text text-anchor="middle" x="112.5" y="-152.5" font-family="Helvetica,sans-Serif" font-size="10.00">engine_run</text>
</a>
</g>
</g>
<!-- Node1&#45;&gt;Node2 -->
<g id="edge1" class="edge">
<title>Node1&#45;&gt;Node2</title>
<path fill="none" stroke="midnightblue" d="M41.03,-155C48.62,-155 57.64,-155 66.66,-155"/>
<polygon fill="midnightblue" stroke="midnightblue" points="66.77,-158.5 76.77,-155 66.77,-151.5 66.77,-158.5"/>
</g>
<!-- Node3 -->
<g id="node3" class="node">
<title>Node3</title>
<g id="a_node3"><a xlink:href="group__engine.html#ga26df4370f6bf2d02524bd370e9e4e292" target="_top" xlink:title=" ">
<polygon fill="white" stroke="black" points="212,-240.5 212,-259.5 284,-259.5 284,-240.5 212,-240.5"/>
<text text-anchor="middle" x="248" y="-247.5" font-family="Helvetica,sans-Serif" font-size="10.00">changeSize</text>
</a>
</g>
</g>
<!-- Node2&#45;&gt;Node3 -->
<g id="edge2" class="edge">
<title>Node2&#45;&gt;Node3</title>
<path fill="none" stroke="midnightblue" d="M119.88,-164.7C130.99,-180.84 155.45,-213.18 184,-231 189.53,-234.45 195.73,-237.31 202.02,-239.67"/>
<polygon fill="midnightblue" stroke="midnightblue" points="201.31,-243.12 211.91,-242.97 203.53,-236.48 201.31,-243.12"/>
</g>
<!-- Node4 -->
<g id="node4" class="node">
<title>Node4</title>
<g id="a_node4"><a xlink:href="group__input.html#gac7632fff72011e8c11ae504a4596a7f7" target="_top" xlink:title=" ">
<polygon fill="white" stroke="black" points="206,-164.5 206,-183.5 290,-183.5 290,-164.5 206,-164.5"/>
<text text-anchor="middle" x="248" y="-171.5" font-family="Helvetica,sans-Serif" font-size="10.00">keyboardFunc</text>
</a>
</g>
</g>
<!-- Node2&#45;&gt;Node4 -->
<g id="edge3" class="edge">
<title>Node2&#45;&gt;Node4</title>
<path fill="none" stroke="midnightblue" d="M148.23,-159.94C162.68,-162 179.75,-164.43 195.6,-166.68"/>
<polygon fill="midnightblue" stroke="midnightblue" points="195.41,-170.19 205.8,-168.14 196.4,-163.26 195.41,-170.19"/>
</g>
<!-- Node8 -->
<g id="node8" class="node">
<title>Node8</title>
<g id="a_node8"><a xlink:href="group__input.html#ga2bebb17428cb218231ad556de2a20ed6" target="_top" xlink:title=" ">
<polygon fill="white" stroke="black" points="211,-88.5 211,-107.5 285,-107.5 285,-88.5 211,-88.5"/>
<text text-anchor="middle" x="248" y="-95.5" font-family="Helvetica,sans-Serif" font-size="10.00">motionFunc</text>
</a>
</g>
</g>
<!-- Node2&#45;&gt;Node8 -->
<g id="edge7" class="edge">
<title>Node2&#45;&gt;Node8</title>
<path fill="none" stroke="midnightblue" d="M129.01,-145.46C143.01,-137.14 164.35,-125.16 184,-117 189.47,-114.73 195.32,-112.59 201.16,-110.64"/>
<polygon fill="midnightblue" stroke="midnightblue" points="202.45,-113.9 210.91,-107.52 200.32,-107.23 202.45,-113.9"/>
</g>
<!-- Node9 -->
<g id="node9" class="node">
<title>Node9</title>
<g id="a_node9"><a xlink:href="group__input.html#gad48076b61c0ddb6bd4fadf644bf59ff1" target="_top" xlink:title=" ">
<polygon fill="white" stroke="black" points="212,-50.5 212,-69.5 284,-69.5 284,-50.5 212,-50.5"/>
<text text-anchor="middle" x="248" y="-57.5" font-family="Helvetica,sans-Serif" font-size="10.00">mouseFunc</text>
</a>
</g>
</g>
<!-- Node2&#45;&gt;Node9 -->
<g id="edge9" class="edge">
<title>Node2&#45;&gt;Node9</title>
<path fill="none" stroke="midnightblue" d="M119.88,-145.3C130.99,-129.16 155.45,-96.82 184,-79 189.53,-75.55 195.73,-72.69 202.02,-70.33"/>
<polygon fill="midnightblue" stroke="midnightblue" points="203.53,-73.52 211.91,-67.03 201.31,-66.88 203.53,-73.52"/>
</g>
<!-- Node10 -->
<g id="node10" class="node">
<title>Node10</title>
<g id="a_node10"><a xlink:href="group__engine.html#ga91c42686f3245f22fb6b17ba5372d92c" target="_top" xlink:title=" ">
<polygon fill="white" stroke="black" points="209.5,-126.5 209.5,-145.5 286.5,-145.5 286.5,-126.5 209.5,-126.5"/>
<text text-anchor="middle" x="248" y="-133.5" font-family="Helvetica,sans-Serif" font-size="10.00">renderScene</text>
</a>
</g>
</g>
<!-- Node2&#45;&gt;Node10 -->
<g id="edge11" class="edge">
<title>Node2&#45;&gt;Node10</title>
<path fill="none" stroke="midnightblue" d="M148.23,-150.06C163.71,-147.85 182.2,-145.22 198.98,-142.83"/>
<polygon fill="midnightblue" stroke="midnightblue" points="199.76,-146.26 209.16,-141.38 198.77,-139.33 199.76,-146.26"/>
</g>
<!-- Node24 -->
<g id="node24" class="node">
<title>Node24</title>
<g id="a_node24"><a xlink:href="group__engine.html#ga4c801322659c1ed52adccd3874552bb3" target="_top" xlink:title=" ">
<polygon fill="white" stroke="black" points="184,-202.5 184,-221.5 312,-221.5 312,-202.5 184,-202.5"/>
<text text-anchor="middle" x="248" y="-209.5" font-family="Helvetica,sans-Serif" font-size="10.00">xml_load_and_set_env</text>
</a>
</g>
</g>
<!-- Node2&#45;&gt;Node24 -->
<g id="edge27" class="edge">
<title>Node2&#45;&gt;Node24</title>
<path fill="none" stroke="midnightblue" d="M129.01,-164.54C143.01,-172.86 164.35,-184.84 184,-193 189.47,-195.27 195.32,-197.41 201.16,-199.36"/>
<polygon fill="midnightblue" stroke="midnightblue" points="200.32,-202.77 210.91,-202.48 202.45,-196.1 200.32,-202.77"/>
</g>
<!-- Node5 -->
<g id="node5" class="node">
<title>Node5</title>
<g id="a_node5"><a xlink:href="group__engine.html#ga8679d9b303f36964bf51dba0993caeaa" target="_top" xlink:title=" ">
<polygon fill="white" stroke="black" points="354.5,-202.5 354.5,-221.5 460.5,-221.5 460.5,-202.5 354.5,-202.5"/>
<text text-anchor="middle" x="407.5" y="-209.5" font-family="Helvetica,sans-Serif" font-size="10.00">env_load_defaults</text>
</a>
</g>
</g>
<!-- Node4&#45;&gt;Node5 -->
<g id="edge4" class="edge">
<title>Node4&#45;&gt;Node5</title>
<path fill="none" stroke="midnightblue" d="M288.74,-183.59C309.53,-188.6 335.16,-194.79 357.2,-200.11"/>
<polygon fill="midnightblue" stroke="midnightblue" points="356.5,-203.54 367.04,-202.48 358.14,-196.73 356.5,-203.54"/>
</g>
<!-- Node6 -->
<g id="node6" class="node">
<title>Node6</title>
<g id="a_node6"><a xlink:href="group__engine.html#gab9813926390dc5773baf0b20dc2ea16e" target="_top" xlink:title=" ">
<polygon fill="white" stroke="black" points="376.5,-88.5 376.5,-107.5 438.5,-107.5 438.5,-88.5 376.5,-88.5"/>
<text text-anchor="middle" x="407.5" y="-95.5" font-family="Helvetica,sans-Serif" font-size="10.00">redisplay</text>
</a>
</g>
</g>
<!-- Node4&#45;&gt;Node6 -->
<g id="edge5" class="edge">
<title>Node4&#45;&gt;Node6</title>
<path fill="none" stroke="midnightblue" d="M290.33,-164.91C297.84,-162.33 305.39,-159.08 312,-155 331.8,-142.79 328.33,-129.42 348,-117 353.76,-113.36 360.29,-110.36 366.84,-107.89"/>
<polygon fill="midnightblue" stroke="midnightblue" points="368.02,-111.19 376.37,-104.67 365.77,-104.56 368.02,-111.19"/>
</g>
<!-- Node7 -->
<g id="node7" class="node">
<title>Node7</title>
<g id="a_node7"><a xlink:href="group__spherical.html#gaeac535a2aaeb6b1c8c4d1169bbc3cab1" target="_top" xlink:title=" ">
<polygon fill="white" stroke="black" points="514,-0.5 514,-19.5 627,-19.5 627,-0.5 514,-0.5"/>
<text text-anchor="middle" x="570.5" y="-7.5" font-family="Helvetica,sans-Serif" font-size="10.00">spherical2Cartesian</text>
</a>
</g>
</g>
<!-- Node6&#45;&gt;Node7 -->
<g id="edge6" class="edge">
<title>Node6&#45;&gt;Node7</title>
<path fill="none" stroke="midnightblue" d="M419.02,-88.35C435.66,-73.57 469.6,-45.32 503,-29 507.67,-26.72 512.66,-24.67 517.73,-22.83"/>
<polygon fill="midnightblue" stroke="midnightblue" points="519.13,-26.05 527.51,-19.56 516.91,-19.41 519.13,-26.05"/>
</g>
<!-- Node8&#45;&gt;Node6 -->
<g id="edge8" class="edge">
<title>Node8&#45;&gt;Node6</title>
<path fill="none" stroke="midnightblue" d="M285.13,-98C309.29,-98 341.11,-98 366.1,-98"/>
<polygon fill="midnightblue" stroke="midnightblue" points="366.35,-101.5 376.35,-98 366.35,-94.5 366.35,-101.5"/>
</g>
<!-- Node9&#45;&gt;Node6 -->
<g id="edge10" class="edge">
<title>Node9&#45;&gt;Node6</title>
<path fill="none" stroke="midnightblue" d="M284.35,-68.53C308.66,-74.39 341,-82.2 366.29,-88.3"/>
<polygon fill="midnightblue" stroke="midnightblue" points="365.77,-91.77 376.31,-90.72 367.41,-84.97 365.77,-91.77"/>
</g>
<!-- Node10&#45;&gt;Node6 -->
<g id="edge26" class="edge">
<title>Node10&#45;&gt;Node6</title>
<path fill="none" stroke="midnightblue" d="M286.73,-126.9C310.88,-121.07 342.18,-113.52 366.73,-107.6"/>
<polygon fill="midnightblue" stroke="midnightblue" points="367.55,-111 376.45,-105.25 365.91,-104.19 367.55,-111"/>
</g>
<!-- Node11 -->
<g id="node11" class="node">
<title>Node11</title>
<g id="a_node11"><a xlink:href="engine_8cpp.html#a634dba686e70e7ff3f10c37d11f463da" target="_top" xlink:title=" ">
<polygon fill="white" stroke="black" points="373,-126.5 373,-145.5 442,-145.5 442,-126.5 373,-126.5"/>
<text text-anchor="middle" x="407.5" y="-133.5" font-family="Helvetica,sans-Serif" font-size="10.00">draw_axes</text>
</a>
</g>
</g>
<!-- Node10&#45;&gt;Node11 -->
<g id="edge12" class="edge">
<title>Node10&#45;&gt;Node11</title>
<path fill="none" stroke="midnightblue" d="M286.73,-136C309.56,-136 338.77,-136 362.63,-136"/>
<polygon fill="midnightblue" stroke="midnightblue" points="362.83,-139.5 372.83,-136 362.83,-132.5 362.83,-139.5"/>
</g>
<!-- Node12 -->
<g id="node12" class="node">
<title>Node12</title>
<g id="a_node12"><a xlink:href="group___operations.html#ga8d5a19a3522cea1b4254684cf6515d13" target="_top" xlink:title=" ">
<polygon fill="white" stroke="black" points="355,-164.5 355,-183.5 460,-183.5 460,-164.5 355,-164.5"/>
<text text-anchor="middle" x="407.5" y="-171.5" font-family="Helvetica,sans-Serif" font-size="10.00">operations_render</text>
</a>
</g>
</g>
<!-- Node10&#45;&gt;Node12 -->
<g id="edge13" class="edge">
<title>Node10&#45;&gt;Node12</title>
<path fill="none" stroke="midnightblue" d="M286.73,-145.1C307.81,-150.19 334.34,-156.59 357.07,-162.07"/>
<polygon fill="midnightblue" stroke="midnightblue" points="356.34,-165.5 366.88,-164.44 357.98,-158.69 356.34,-165.5"/>
</g>
<!-- Node13 -->
<g id="node13" class="node">
<title>Node13</title>
<g id="a_node13"><a xlink:href="curves_8cpp.html#a821c8cbf0a47b918c60a4912b733e6bd" target="_top" xlink:title=" ">
<polygon fill="white" stroke="black" points="518.5,-164.5 518.5,-183.5 622.5,-183.5 622.5,-164.5 518.5,-164.5"/>
<text text-anchor="middle" x="570.5" y="-171.5" font-family="Helvetica,sans-Serif" font-size="10.00">advance_in_curve</text>
</a>
</g>
</g>
<!-- Node12&#45;&gt;Node13 -->
<g id="edge14" class="edge">
<title>Node12&#45;&gt;Node13</title>
<path fill="none" stroke="midnightblue" d="M460.33,-174C475.56,-174 492.37,-174 508.14,-174"/>
<polygon fill="midnightblue" stroke="midnightblue" points="508.32,-177.5 518.32,-174 508.32,-170.5 508.32,-177.5"/>
</g>
<!-- Node18 -->
<g id="node18" class="node">
<title>Node18</title>
<g id="a_node18"><a xlink:href="engine_8cpp.html#a072c434cfd125e58ac1cec9a5725688a" target="_top" xlink:title=" ">
<polygon fill="white" stroke="black" points="512.5,-126.5 512.5,-145.5 628.5,-145.5 628.5,-126.5 512.5,-126.5"/>
<text text-anchor="middle" x="570.5" y="-133.5" font-family="Helvetica,sans-Serif" font-size="10.00">advance_in_rotation</text>
</a>
</g>
</g>
<!-- Node12&#45;&gt;Node18 -->
<g id="edge19" class="edge">
<title>Node12&#45;&gt;Node18</title>
<path fill="none" stroke="midnightblue" d="M449.13,-164.41C470.47,-159.37 496.81,-153.16 519.41,-147.82"/>
<polygon fill="midnightblue" stroke="midnightblue" points="520.24,-151.22 529.17,-145.52 518.63,-144.41 520.24,-151.22"/>
</g>
<!-- Node19 -->
<g id="node19" class="node">
<title>Node19</title>
<g id="a_node19"><a xlink:href="group__model_engine.html#ga361bcac2814bb93f543d2c0f1b28b6d2" target="_top" xlink:title=" ">
<polygon fill="white" stroke="black" points="535.5,-88.5 535.5,-107.5 605.5,-107.5 605.5,-88.5 535.5,-88.5"/>
<text text-anchor="middle" x="570.5" y="-95.5" font-family="Helvetica,sans-Serif" font-size="10.00">allocModel</text>
</a>
</g>
</g>
<!-- Node12&#45;&gt;Node19 -->
<g id="edge20" class="edge">
<title>Node12&#45;&gt;Node19</title>
<path fill="none" stroke="midnightblue" d="M447.18,-164.47C454.06,-161.94 460.95,-158.82 467,-155 486.67,-142.58 483.11,-129.07 503,-117 509.86,-112.84 517.66,-109.56 525.46,-106.98"/>
<polygon fill="midnightblue" stroke="midnightblue" points="526.66,-110.27 535.25,-104.07 524.67,-103.56 526.66,-110.27"/>
</g>
<!-- Node20 -->
<g id="node20" class="node">
<title>Node20</title>
<g id="a_node20"><a xlink:href="group__model_engine.html#ga8c7329ae859a08eea53a77130ebe6018" target="_top" xlink:title=" ">
<polygon fill="white" stroke="black" points="513,-39 513,-69 628,-69 628,-39 513,-39"/>
<text text-anchor="start" x="521" y="-57" font-family="Helvetica,sans-Serif" font-size="10.00">associate_a_texture</text>
<text text-anchor="middle" x="570.5" y="-46" font-family="Helvetica,sans-Serif" font-size="10.00">_to_model</text>
</a>
</g>
</g>
<!-- Node12&#45;&gt;Node20 -->
<g id="edge21" class="edge">
<title>Node12&#45;&gt;Node20</title>
<path fill="none" stroke="midnightblue" d="M451.9,-164.43C457.37,-161.97 462.59,-158.88 467,-155 495.07,-130.32 475.5,-104.31 503,-79 504.7,-77.44 506.5,-75.97 508.38,-74.6"/>
<polygon fill="midnightblue" stroke="midnightblue" points="510.5,-77.4 517.1,-69.11 506.77,-71.48 510.5,-77.4"/>
</g>
<!-- Node21 -->
<g id="node21" class="node">
<title>Node21</title>
<g id="a_node21"><a xlink:href="group__spherical.html#gabd434f65cba3ee8011b8d3cdd1f25dca" target="_top" xlink:title=" ">
<polygon fill="white" stroke="black" points="514,-278.5 514,-297.5 627,-297.5 627,-278.5 514,-278.5"/>
<text text-anchor="middle" x="570.5" y="-285.5" font-family="Helvetica,sans-Serif" font-size="10.00">cartesian2Spherical</text>
</a>
</g>
</g>
<!-- Node12&#45;&gt;Node21 -->
<g id="edge22" class="edge">
<title>Node12&#45;&gt;Node21</title>
<path fill="none" stroke="midnightblue" d="M451.9,-183.57C457.37,-186.03 462.59,-189.12 467,-193 495.07,-217.68 474.49,-244.83 503,-269 505,-270.7 507.15,-272.25 509.4,-273.66"/>
<polygon fill="midnightblue" stroke="midnightblue" points="508.03,-276.89 518.51,-278.43 511.28,-270.69 508.03,-276.89"/>
</g>
<!-- Node22 -->
<g id="node22" class="node">
<title>Node22</title>
<g id="a_node22"><a xlink:href="curves_8cpp.html#ad812fc50a0384335487e258a6f61714e" target="_top" xlink:title=" ">
<polygon fill="white" stroke="black" points="713,-202.5 713,-221.5 790,-221.5 790,-202.5 713,-202.5"/>
<text text-anchor="middle" x="751.5" y="-209.5" font-family="Helvetica,sans-Serif" font-size="10.00">renderCurve</text>
</a>
</g>
</g>
<!-- Node12&#45;&gt;Node22 -->
<g id="edge23" class="edge">
<title>Node12&#45;&gt;Node22</title>
<path fill="none" stroke="midnightblue" d="M450.18,-183.52C466.57,-186.96 485.59,-190.59 503,-193 571.95,-202.54 652.41,-207.61 702.42,-210.05"/>
<polygon fill="midnightblue" stroke="midnightblue" points="702.46,-213.55 712.61,-210.53 702.79,-206.56 702.46,-213.55"/>
</g>
<!-- Node23 -->
<g id="node23" class="node">
<title>Node23</title>
<g id="a_node23"><a xlink:href="group__model_engine.html#ga2907e4adf4f2bef2c8ce416cb8470997" target="_top" xlink:title=" ">
<polygon fill="white" stroke="black" points="531.5,-240.5 531.5,-259.5 609.5,-259.5 609.5,-240.5 531.5,-240.5"/>
<text text-anchor="middle" x="570.5" y="-247.5" font-family="Helvetica,sans-Serif" font-size="10.00">renderModel</text>
</a>
</g>
</g>
<!-- Node12&#45;&gt;Node23 -->
<g id="edge25" class="edge">
<title>Node12&#45;&gt;Node23</title>
<path fill="none" stroke="midnightblue" d="M446.04,-183.55C453.24,-186.11 460.54,-189.23 467,-193 485.75,-203.94 484.43,-214.76 503,-226 509.87,-230.16 517.56,-233.75 525.22,-236.81"/>
<polygon fill="midnightblue" stroke="midnightblue" points="524.24,-240.18 534.83,-240.39 526.68,-233.62 524.24,-240.18"/>
</g>
<!-- Node14 -->
<g id="node14" class="node">
<title>Node14</title>
<g id="a_node14"><a xlink:href="curves_8cpp.html#a98b26a4263f61db7149441a99a6d35b6" target="_top" xlink:title=" ">
<polygon fill="white" stroke="black" points="690,-164.5 690,-183.5 813,-183.5 813,-164.5 690,-164.5"/>
<text text-anchor="middle" x="751.5" y="-171.5" font-family="Helvetica,sans-Serif" font-size="10.00">align_global_pos_mat</text>
</a>
</g>
</g>
<!-- Node13&#45;&gt;Node14 -->
<g id="edge15" class="edge">
<title>Node13&#45;&gt;Node14</title>
<path fill="none" stroke="midnightblue" d="M622.79,-174C640.48,-174 660.62,-174 679.6,-174"/>
<polygon fill="midnightblue" stroke="midnightblue" points="679.69,-177.5 689.69,-174 679.69,-170.5 679.69,-177.5"/>
</g>
<!-- Node15 -->
<g id="node15" class="node">
<title>Node15</title>
<g id="a_node15"><a xlink:href="curves_8cpp.html#abe9fa1f2a311f275f92f5b46fb2f8490" target="_top" xlink:title=" ">
<polygon fill="white" stroke="black" points="887.5,-183.5 887.5,-202.5 1017.5,-202.5 1017.5,-183.5 887.5,-183.5"/>
<text text-anchor="middle" x="952.5" y="-190.5" font-family="Helvetica,sans-Serif" font-size="10.00">get_curve_global_point</text>
</a>
</g>
</g>
<!-- Node14&#45;&gt;Node15 -->
<g id="edge16" class="edge">
<title>Node14&#45;&gt;Node15</title>
<path fill="none" stroke="midnightblue" d="M813.02,-179.78C833.26,-181.71 856.06,-183.89 877.23,-185.91"/>
<polygon fill="midnightblue" stroke="midnightblue" points="877.19,-189.42 887.47,-186.89 877.85,-182.45 877.19,-189.42"/>
</g>
<!-- Node16 -->
<g id="node16" class="node">
<title>Node16</title>
<g id="a_node16"><a xlink:href="curves_8cpp.html#afa648d7de8c941b50b26f02755a955b9" target="_top" xlink:title=" ">
<polygon fill="white" stroke="black" points="1105.5,-202.5 1105.5,-221.5 1194.5,-221.5 1194.5,-202.5 1105.5,-202.5"/>
<text text-anchor="middle" x="1150" y="-209.5" font-family="Helvetica,sans-Serif" font-size="10.00">get_curve_info</text>
</a>
</g>
</g>
<!-- Node15&#45;&gt;Node16 -->
<g id="edge17" class="edge">
<title>Node15&#45;&gt;Node16</title>
<path fill="none" stroke="midnightblue" d="M1017.51,-199.22C1042.65,-201.66 1071.19,-204.44 1095.23,-206.77"/>
<polygon fill="midnightblue" stroke="midnightblue" points="1094.95,-210.26 1105.24,-207.75 1095.63,-203.3 1094.95,-210.26"/>
</g>
<!-- Node17 -->
<g id="node17" class="node">
<title>Node17</title>
<g id="a_node17"><a xlink:href="curves_8cpp.html#a6d6def6a76701b08284cba58066e3382" target="_top" xlink:title=" ">
<polygon fill="white" stroke="black" points="1095,-164.5 1095,-183.5 1205,-183.5 1205,-164.5 1095,-164.5"/>
<text text-anchor="middle" x="1150" y="-171.5" font-family="Helvetica,sans-Serif" font-size="10.00">get_curve_point_at</text>
</a>
</g>
</g>
<!-- Node15&#45;&gt;Node17 -->
<g id="edge18" class="edge">
<title>Node15&#45;&gt;Node17</title>
<path fill="none" stroke="midnightblue" d="M1017.51,-186.78C1039.14,-184.68 1063.29,-182.33 1084.92,-180.23"/>
<polygon fill="midnightblue" stroke="midnightblue" points="1085.38,-183.7 1094.99,-179.25 1084.7,-176.73 1085.38,-183.7"/>
</g>
<!-- Node22&#45;&gt;Node15 -->
<g id="edge24" class="edge">
<title>Node22&#45;&gt;Node15</title>
<path fill="none" stroke="midnightblue" d="M790.4,-208.38C814.81,-206.05 847.38,-202.94 876.84,-200.13"/>
<polygon fill="midnightblue" stroke="midnightblue" points="877.49,-203.58 887.12,-199.15 876.83,-196.61 877.49,-203.58"/>
</g>
<!-- Node24&#45;&gt;Node5 -->
<g id="edge28" class="edge">
<title>Node24&#45;&gt;Node5</title>
<path fill="none" stroke="midnightblue" d="M312.15,-212C322.79,-212 333.82,-212 344.43,-212"/>
<polygon fill="midnightblue" stroke="midnightblue" points="344.44,-215.5 354.44,-212 344.44,-208.5 344.44,-215.5"/>
</g>
<!-- Node24&#45;&gt;Node12 -->
<g id="edge42" class="edge">
<title>Node24&#45;&gt;Node12</title>
<path fill="none" stroke="midnightblue" d="M288.74,-202.41C309.53,-197.4 335.16,-191.21 357.2,-185.89"/>
<polygon fill="midnightblue" stroke="midnightblue" points="358.14,-189.27 367.04,-183.52 356.5,-182.46 358.14,-189.27"/>
</g>
<!-- Node25 -->
<g id="node25" class="node">
<title>Node25</title>
<g id="a_node25"><a xlink:href="group__xml.html#gad700972f3f382c3cc5658ce95361ad0e" target="_top" xlink:title=" ">
<polygon fill="white" stroke="black" points="348,-335.5 348,-354.5 467,-354.5 467,-335.5 348,-335.5"/>
<text text-anchor="middle" x="407.5" y="-342.5" font-family="Helvetica,sans-Serif" font-size="10.00">operations_load_xml</text>
</a>
</g>
</g>
<!-- Node24&#45;&gt;Node25 -->
<g id="edge29" class="edge">
<title>Node24&#45;&gt;Node25</title>
<path fill="none" stroke="midnightblue" d="M292.87,-221.57C299.58,-224.05 306.19,-227.15 312,-231 350.01,-256.22 380.73,-301.25 396,-326.51"/>
<polygon fill="midnightblue" stroke="midnightblue" points="393.16,-328.59 401.25,-335.43 399.2,-325.04 393.16,-328.59"/>
</g>
<!-- Node26 -->
<g id="node26" class="node">
<title>Node26</title>
<g id="a_node26"><a xlink:href="group___groups.html#ga2729bcb63525027c28b0107fe17d3a06" target="_top" xlink:title=" ">
<polygon fill="white" stroke="black" points="503,-414.5 503,-433.5 638,-433.5 638,-414.5 503,-414.5"/>
<text text-anchor="middle" x="570.5" y="-421.5" font-family="Helvetica,sans-Serif" font-size="10.00">operations_push_groups</text>
</a>
</g>
</g>
<!-- Node25&#45;&gt;Node26 -->
<g id="edge30" class="edge">
<title>Node25&#45;&gt;Node26</title>
<path fill="none" stroke="midnightblue" d="M427.92,-354.53C456.09,-368.35 508.45,-394.04 540.99,-410.01"/>
<polygon fill="midnightblue" stroke="midnightblue" points="539.49,-413.17 550.01,-414.44 542.58,-406.89 539.49,-413.17"/>
</g>
<!-- Node33 -->
<g id="node33" class="node">
<title>Node33</title>
<g id="a_node33"><a xlink:href="group___transforms.html#gaa8e01339ca5863980bb193197d4781e2" target="_top" xlink:title=" ">
<polygon fill="white" stroke="black" points="1260,-387 1260,-417 1410,-417 1410,-387 1260,-387"/>
<text text-anchor="start" x="1268" y="-405" font-family="Helvetica,sans-Serif" font-size="10.00">operations_push_transform</text>
<text text-anchor="middle" x="1335" y="-394" font-family="Helvetica,sans-Serif" font-size="10.00">_attributes</text>
</a>
</g>
</g>
<!-- Node25&#45;&gt;Node33 -->
<g id="edge41" class="edge">
<title>Node25&#45;&gt;Node33</title>
<path fill="none" stroke="midnightblue" d="M467.15,-350.24C535.22,-355.87 650.89,-364 750.5,-364 750.5,-364 750.5,-364 953.5,-364 1055.79,-364 1172.79,-377.77 1249.73,-388.73"/>
<polygon fill="midnightblue" stroke="midnightblue" points="1249.45,-392.22 1259.85,-390.18 1250.45,-385.29 1249.45,-392.22"/>
</g>
<!-- Node34 -->
<g id="node34" class="node">
<title>Node34</title>
<g id="a_node34"><a xlink:href="group__xml.html#gadda1aacffc4688669d0253cec56f849b" target="_top" xlink:title=" ">
<polygon fill="white" stroke="black" points="506,-316.5 506,-335.5 635,-335.5 635,-316.5 506,-316.5"/>
<text text-anchor="middle" x="570.5" y="-323.5" font-family="Helvetica,sans-Serif" font-size="10.00">operations_push_lights</text>
</a>
</g>
</g>
<!-- Node25&#45;&gt;Node34 -->
<g id="edge40" class="edge">
<title>Node25&#45;&gt;Node34</title>
<path fill="none" stroke="midnightblue" d="M467.08,-338.09C476.42,-336.98 486.19,-335.83 495.83,-334.69"/>
<polygon fill="midnightblue" stroke="midnightblue" points="496.28,-338.17 505.8,-333.52 495.46,-331.21 496.28,-338.17"/>
</g>
<!-- Node26&#45;&gt;Node26 -->
<g id="edge31" class="edge">
<title>Node26&#45;&gt;Node26</title>
<path fill="none" stroke="midnightblue" d="M545.53,-433.76C533.38,-442.57 541.71,-452 570.5,-452 589.85,-452 599.95,-447.74 600.81,-442.27"/>
<polygon fill="midnightblue" stroke="midnightblue" points="603.75,-440.37 595.47,-433.76 597.82,-444.09 603.75,-440.37"/>
</g>
<!-- Node27 -->
<g id="node27" class="node">
<title>Node27</title>
<g id="a_node27"><a xlink:href="group___models.html#gaf4f69faf6a2c6db692bd0f742c08ca17" target="_top" xlink:title=" ">
<polygon fill="white" stroke="black" points="682.5,-460.5 682.5,-479.5 820.5,-479.5 820.5,-460.5 682.5,-460.5"/>
<text text-anchor="middle" x="751.5" y="-467.5" font-family="Helvetica,sans-Serif" font-size="10.00">operations_push_models</text>
</a>
</g>
</g>
<!-- Node26&#45;&gt;Node27 -->
<g id="edge32" class="edge">
<title>Node26&#45;&gt;Node27</title>
<path fill="none" stroke="midnightblue" d="M608.59,-433.53C636.19,-440.62 674.06,-450.36 703.73,-457.98"/>
<polygon fill="midnightblue" stroke="midnightblue" points="702.9,-461.38 713.46,-460.48 704.64,-454.6 702.9,-461.38"/>
</g>
<!-- Node30 -->
<g id="node30" class="node">
<title>Node30</title>
<g id="a_node30"><a xlink:href="group___transforms.html#gab74408a65711c19872c69797a55c6229" target="_top" xlink:title=" ">
<polygon fill="white" stroke="black" points="674,-414.5 674,-433.5 829,-433.5 829,-414.5 674,-414.5"/>
<text text-anchor="middle" x="751.5" y="-421.5" font-family="Helvetica,sans-Serif" font-size="10.00">operations_push_transforms</text>
</a>
</g>
</g>
<!-- Node26&#45;&gt;Node30 -->
<g id="edge35" class="edge">
<title>Node26&#45;&gt;Node30</title>
<path fill="none" stroke="midnightblue" d="M638.15,-424C646.51,-424 655.16,-424 663.77,-424"/>
<polygon fill="midnightblue" stroke="midnightblue" points="663.84,-427.5 673.84,-424 663.84,-420.5 663.84,-427.5"/>
</g>
<!-- Node28 -->
<g id="node28" class="node">
<title>Node28</title>
<g id="a_node28"><a xlink:href="group___models.html#ga9c6066851b617631703c06b7aa6f72ac" target="_top" xlink:title=" ">
<polygon fill="white" stroke="black" points="886,-468.5 886,-487.5 1019,-487.5 1019,-468.5 886,-468.5"/>
<text text-anchor="middle" x="952.5" y="-475.5" font-family="Helvetica,sans-Serif" font-size="10.00">operations_push_model</text>
</a>
</g>
</g>
<!-- Node27&#45;&gt;Node28 -->
<g id="edge33" class="edge">
<title>Node27&#45;&gt;Node28</title>
<path fill="none" stroke="midnightblue" d="M820.71,-472.74C838.38,-473.45 857.51,-474.22 875.55,-474.95"/>
<polygon fill="midnightblue" stroke="midnightblue" points="875.6,-478.45 885.74,-475.36 875.88,-471.46 875.6,-478.45"/>
</g>
<!-- Node29 -->
<g id="node29" class="node">
<title>Node29</title>
<g id="a_node29"><a xlink:href="group___models.html#gaa31dcad7bd49e781068f4d5f42734e2a" target="_top" xlink:title=" ">
<polygon fill="white" stroke="black" points="1085,-480 1085,-510 1215,-510 1215,-480 1085,-480"/>
<text text-anchor="start" x="1093" y="-498" font-family="Helvetica,sans-Serif" font-size="10.00">operations_push_string</text>
<text text-anchor="middle" x="1150" y="-487" font-family="Helvetica,sans-Serif" font-size="10.00">_attribute</text>
</a>
</g>
</g>
<!-- Node28&#45;&gt;Node29 -->
<g id="edge34" class="edge">
<title>Node28&#45;&gt;Node29</title>
<path fill="none" stroke="midnightblue" d="M1019.14,-483.71C1037.02,-485.26 1056.51,-486.96 1074.82,-488.55"/>
<polygon fill="midnightblue" stroke="midnightblue" points="1074.59,-492.04 1084.86,-489.42 1075.2,-485.07 1074.59,-492.04"/>
</g>
<!-- Node31 -->
<g id="node31" class="node">
<title>Node31</title>
<g id="a_node31"><a xlink:href="group___transforms.html#ga9b8048838c7a406b93e9677dd9cb4373" target="_top" xlink:title=" ">
<polygon fill="white" stroke="black" points="865,-414.5 865,-433.5 1040,-433.5 1040,-414.5 865,-414.5"/>
<text text-anchor="middle" x="952.5" y="-421.5" font-family="Helvetica,sans-Serif" font-size="10.00">operations_push_transformation</text>
</a>
</g>
</g>
<!-- Node30&#45;&gt;Node31 -->
<g id="edge36" class="edge">
<title>Node30&#45;&gt;Node31</title>
<path fill="none" stroke="midnightblue" d="M829.15,-424C837.57,-424 846.23,-424 854.85,-424"/>
<polygon fill="midnightblue" stroke="midnightblue" points="854.94,-427.5 864.94,-424 854.94,-420.5 854.94,-427.5"/>
</g>
<!-- Node32 -->
<g id="node32" class="node">
<title>Node32</title>
<g id="a_node32"><a xlink:href="group___transforms.html#ga34490f49c910f6ad0b3b39d97ca6991f" target="_top" xlink:title=" ">
<polygon fill="white" stroke="black" points="1076,-431 1076,-461 1224,-461 1224,-431 1076,-431"/>
<text text-anchor="start" x="1084" y="-449" font-family="Helvetica,sans-Serif" font-size="10.00">operations_push_extended</text>
<text text-anchor="middle" x="1150" y="-438" font-family="Helvetica,sans-Serif" font-size="10.00">_translate_attributes</text>
</a>
</g>
</g>
<!-- Node31&#45;&gt;Node32 -->
<g id="edge37" class="edge">
<title>Node31&#45;&gt;Node32</title>
<path fill="none" stroke="midnightblue" d="M1038.11,-433.52C1047.26,-434.55 1056.56,-435.6 1065.69,-436.63"/>
<polygon fill="midnightblue" stroke="midnightblue" points="1065.59,-440.14 1075.91,-437.78 1066.37,-433.18 1065.59,-440.14"/>
</g>
<!-- Node31&#45;&gt;Node33 -->
<g id="edge39" class="edge">
<title>Node31&#45;&gt;Node33</title>
<path fill="none" stroke="midnightblue" d="M1040.32,-418.98C1103.06,-415.35 1187.38,-410.48 1249.57,-406.88"/>
<polygon fill="midnightblue" stroke="midnightblue" points="1249.96,-410.37 1259.74,-406.29 1249.56,-403.38 1249.96,-410.37"/>
</g>
<!-- Node32&#45;&gt;Node33 -->
<g id="edge38" class="edge">
<title>Node32&#45;&gt;Node33</title>
<path fill="none" stroke="midnightblue" d="M1213.47,-430.98C1228.99,-427.25 1245.75,-423.22 1261.7,-419.38"/>
<polygon fill="midnightblue" stroke="midnightblue" points="1262.6,-422.77 1271.5,-417.03 1260.96,-415.96 1262.6,-422.77"/>
</g>
</g>
</svg>
