<?xml version="1.0" encoding="UTF-8" standalone="no"?>
<!DOCTYPE svg PUBLIC "-//W3C//DTD SVG 1.1//EN"
 "http://www.w3.org/Graphics/SVG/1.1/DTD/svg11.dtd">
<!-- Generated by graphviz version 3.0.0 (0)
 -->
<!-- Title: get_bezier_point_at Pages: 1 -->
<svg width="300pt" height="154pt"
 viewBox="0.00 0.00 300.00 153.50" xmlns="http://www.w3.org/2000/svg" xmlns:xlink="http://www.w3.org/1999/xlink">
<g id="graph0" class="graph" transform="scale(1 1) rotate(0) translate(4 149.5)">
<title>get_bezier_point_at</title>
<polygon fill="white" stroke="transparent" points="-4,4 -4,-149.5 296,-149.5 296,4 -4,4"/>
<!-- Node1 -->
<g id="node1" class="node">
<title>Node1</title>
<g id="a_node1"><a xlink:title=" ">
<polygon fill="#bfbfbf" stroke="black" points="0,-57.5 0,-76.5 113,-76.5 113,-57.5 0,-57.5"/>
<text text-anchor="middle" x="56.5" y="-64.5" font-family="Helvetica,sans-Serif" font-size="10.00">get_bezier_point_at</text>
</a>
</g>
</g>
<!-- Node2 -->
<g id="node2" class="node">
<title>Node2</title>
<g id="a_node2"><a xlink:href="group__bezier.html#gad11b5559e8d34f899f934960207ded9a" target="_top" xlink:title=" ">
<polygon fill="white" stroke="black" points="164,-115 164,-145 277,-145 277,-115 164,-115"/>
<text text-anchor="start" x="172" y="-133" font-family="Helvetica,sans-Serif" font-size="10.00">deriv_of_monic_3rd</text>
<text text-anchor="middle" x="220.5" y="-122" font-family="Helvetica,sans-Serif" font-size="10.00">_polynomial_at</text>
</a>
</g>
</g>
<!-- Node1&#45;&gt;Node2 -->
<g id="edge1" class="edge">
<title>Node1&#45;&gt;Node2</title>
<path fill="none" stroke="midnightblue" d="M79.56,-76.54C98.01,-84.44 125.08,-95.8 149,-105 154.51,-107.12 160.29,-109.28 166.07,-111.39"/>
<polygon fill="midnightblue" stroke="midnightblue" points="165.15,-114.78 175.74,-114.89 167.53,-108.2 165.15,-114.78"/>
</g>
<!-- Node3 -->
<g id="node3" class="node">
<title>Node3</title>
<g id="a_node3"><a xlink:href="curves_8cpp.html#a6d6def6a76701b08284cba58066e3382" target="_top" xlink:title=" ">
<polygon fill="white" stroke="black" points="165.5,-76.5 165.5,-95.5 275.5,-95.5 275.5,-76.5 165.5,-76.5"/>
<text text-anchor="middle" x="220.5" y="-83.5" font-family="Helvetica,sans-Serif" font-size="10.00">get_curve_point_at</text>
</a>
</g>
</g>
<!-- Node1&#45;&gt;Node3 -->
<g id="edge2" class="edge">
<title>Node1&#45;&gt;Node3</title>
<path fill="none" stroke="midnightblue" d="M113.25,-73.54C126.8,-75.13 141.4,-76.84 155.31,-78.47"/>
<polygon fill="midnightblue" stroke="midnightblue" points="154.95,-81.95 165.29,-79.64 155.76,-75 154.95,-81.95"/>
</g>
<!-- Node4 -->
<g id="node4" class="node">
<title>Node4</title>
<g id="a_node4"><a xlink:href="group__bezier.html#gafcf7fcde525db8b303b2205562b7684d" target="_top" xlink:title=" ">
<polygon fill="white" stroke="black" points="202.5,-38.5 202.5,-57.5 238.5,-57.5 238.5,-38.5 202.5,-38.5"/>
<text text-anchor="middle" x="220.5" y="-45.5" font-family="Helvetica,sans-Serif" font-size="10.00">mat</text>
</a>
</g>
</g>
<!-- Node1&#45;&gt;Node4 -->
<g id="edge3" class="edge">
<title>Node1&#45;&gt;Node4</title>
<path fill="none" stroke="midnightblue" d="M113.25,-60.46C140.03,-57.32 170.9,-53.7 192.44,-51.17"/>
<polygon fill="midnightblue" stroke="midnightblue" points="192.97,-54.64 202.49,-49.99 192.15,-47.68 192.97,-54.64"/>
</g>
<!-- Node5 -->
<g id="node5" class="node">
<title>Node5</title>
<g id="a_node5"><a xlink:href="group__bezier.html#gaa5cc85b3de7b256bb1f7c98ac78fef08" target="_top" xlink:title=" ">
<polygon fill="white" stroke="black" points="149,-0.5 149,-19.5 292,-19.5 292,-0.5 149,-0.5"/>
<text text-anchor="middle" x="220.5" y="-7.5" font-family="Helvetica,sans-Serif" font-size="10.00">monic_3rd_polynomial_at</text>
</a>
</g>
</g>
<!-- Node1&#45;&gt;Node5 -->
<g id="edge4" class="edge">
<title>Node1&#45;&gt;Node5</title>
<path fill="none" stroke="midnightblue" d="M78.28,-57.46C96.64,-49.25 124.25,-37.43 149,-29 155.93,-26.64 163.32,-24.38 170.61,-22.29"/>
<polygon fill="midnightblue" stroke="midnightblue" points="171.74,-25.61 180.44,-19.55 169.87,-18.86 171.74,-25.61"/>
</g>
</g>
</svg>
