<?xml version="1.0" encoding="UTF-8" standalone="no"?>
<!DOCTYPE svg PUBLIC "-//W3C//DTD SVG 1.1//EN"
 "http://www.w3.org/Graphics/SVG/1.1/DTD/svg11.dtd">
<!-- Generated by graphviz version 3.0.0 (0)
 -->
<!-- Title: renderScene Pages: 1 -->
<svg width="375pt" height="142pt"
 viewBox="0.00 0.00 375.00 142.00" xmlns="http://www.w3.org/2000/svg" xmlns:xlink="http://www.w3.org/1999/xlink">
<g id="graph0" class="graph" transform="scale(1 1) rotate(0) translate(4 138)">
<title>renderScene</title>
<polygon fill="white" stroke="transparent" points="-4,4 -4,-138 371,-138 371,4 -4,4"/>
<!-- Node1 -->
<g id="node1" class="node">
<title>Node1</title>
<g id="a_node1"><a xlink:title=" ">
<polygon fill="#bfbfbf" stroke="black" points="0,-76.5 0,-95.5 77,-95.5 77,-76.5 0,-76.5"/>
<text text-anchor="middle" x="38.5" y="-83.5" font-family="Helvetica,sans-Serif" font-size="10.00">renderScene</text>
</a>
</g>
</g>
<!-- Node2 -->
<g id="node2" class="node">
<title>Node2</title>
<g id="a_node2"><a xlink:href="engine_8cpp.html#a634dba686e70e7ff3f10c37d11f463da" target="_top" xlink:title=" ">
<polygon fill="white" stroke="black" points="131,-95.5 131,-114.5 200,-114.5 200,-95.5 131,-95.5"/>
<text text-anchor="middle" x="165.5" y="-102.5" font-family="Helvetica,sans-Serif" font-size="10.00">draw_axes</text>
</a>
</g>
</g>
<!-- Node1&#45;&gt;Node2 -->
<g id="edge1" class="edge">
<title>Node1&#45;&gt;Node2</title>
<path fill="none" stroke="midnightblue" d="M77,-91.7C90.78,-93.79 106.49,-96.18 120.76,-98.35"/>
<polygon fill="midnightblue" stroke="midnightblue" points="120.44,-101.84 130.85,-99.89 121.49,-94.92 120.44,-101.84"/>
</g>
<!-- Node3 -->
<g id="node3" class="node">
<title>Node3</title>
<g id="a_node3"><a xlink:href="group___operations.html#ga887f20c10a27832ea24178203a47fcc2" target="_top" xlink:title=" ">
<polygon fill="white" stroke="black" points="113,-57.5 113,-76.5 218,-76.5 218,-57.5 113,-57.5"/>
<text text-anchor="middle" x="165.5" y="-64.5" font-family="Helvetica,sans-Serif" font-size="10.00">operations_render</text>
</a>
</g>
</g>
<!-- Node1&#45;&gt;Node3 -->
<g id="edge2" class="edge">
<title>Node1&#45;&gt;Node3</title>
<path fill="none" stroke="midnightblue" d="M77,-80.3C85.16,-79.06 93.99,-77.72 102.79,-76.38"/>
<polygon fill="midnightblue" stroke="midnightblue" points="103.33,-79.84 112.69,-74.87 102.28,-72.92 103.33,-79.84"/>
</g>
<!-- Node4 -->
<g id="node4" class="node">
<title>Node4</title>
<g id="a_node4"><a xlink:href="group__model_engine.html#ga56beba311d0a6fcbda9aeb516fe67f8f" target="_top" xlink:title=" ">
<polygon fill="white" stroke="black" points="275.5,-114.5 275.5,-133.5 345.5,-133.5 345.5,-114.5 275.5,-114.5"/>
<text text-anchor="middle" x="310.5" y="-121.5" font-family="Helvetica,sans-Serif" font-size="10.00">allocModel</text>
</a>
</g>
</g>
<!-- Node3&#45;&gt;Node4 -->
<g id="edge3" class="edge">
<title>Node3&#45;&gt;Node4</title>
<path fill="none" stroke="midnightblue" d="M194.57,-76.59C202.25,-79.42 210.51,-82.66 218,-86 234.52,-93.37 237.39,-97.83 254,-105 258.84,-107.09 264,-109.11 269.14,-111.01"/>
<polygon fill="midnightblue" stroke="midnightblue" points="268.34,-114.44 278.93,-114.49 270.68,-107.84 268.34,-114.44"/>
</g>
<!-- Node5 -->
<g id="node5" class="node">
<title>Node5</title>
<g id="a_node5"><a xlink:href="group__spherical.html#ga2a22d15f7463ccd8f8d1aa65e7578983" target="_top" xlink:title=" ">
<polygon fill="white" stroke="black" points="254,-76.5 254,-95.5 367,-95.5 367,-76.5 254,-76.5"/>
<text text-anchor="middle" x="310.5" y="-83.5" font-family="Helvetica,sans-Serif" font-size="10.00">cartesian2Spherical</text>
</a>
</g>
</g>
<!-- Node3&#45;&gt;Node5 -->
<g id="edge4" class="edge">
<title>Node3&#45;&gt;Node5</title>
<path fill="none" stroke="midnightblue" d="M218.13,-73.86C226.41,-74.96 235.07,-76.11 243.63,-77.25"/>
<polygon fill="midnightblue" stroke="midnightblue" points="243.22,-80.72 253.6,-78.57 244.15,-73.79 243.22,-80.72"/>
</g>
<!-- Node6 -->
<g id="node6" class="node">
<title>Node6</title>
<g id="a_node6"><a xlink:href="group__model_engine.html#gae7de75a0850ac9069b4a3710b63a102c" target="_top" xlink:title=" ">
<polygon fill="white" stroke="black" points="271.5,-38.5 271.5,-57.5 349.5,-57.5 349.5,-38.5 271.5,-38.5"/>
<text text-anchor="middle" x="310.5" y="-45.5" font-family="Helvetica,sans-Serif" font-size="10.00">renderModel</text>
</a>
</g>
</g>
<!-- Node3&#45;&gt;Node6 -->
<g id="edge5" class="edge">
<title>Node3&#45;&gt;Node6</title>
<path fill="none" stroke="midnightblue" d="M218.13,-60.14C232.15,-58.28 247.28,-56.27 261.12,-54.43"/>
<polygon fill="midnightblue" stroke="midnightblue" points="261.96,-57.85 271.41,-53.06 261.04,-50.91 261.96,-57.85"/>
</g>
<!-- Node7 -->
<g id="node7" class="node">
<title>Node7</title>
<g id="a_node7"><a xlink:href="group__engine.html#ga260fbd3d70764684657bbf1a617ddf99" target="_top" xlink:title=" ">
<polygon fill="white" stroke="black" points="273.5,-0.5 273.5,-19.5 347.5,-19.5 347.5,-0.5 273.5,-0.5"/>
<text text-anchor="middle" x="310.5" y="-7.5" font-family="Helvetica,sans-Serif" font-size="10.00">vbo_indices</text>
</a>
</g>
</g>
<!-- Node3&#45;&gt;Node7 -->
<g id="edge6" class="edge">
<title>Node3&#45;&gt;Node7</title>
<path fill="none" stroke="midnightblue" d="M187.17,-57.47C204.78,-49.48 230.84,-37.98 254,-29 259.28,-26.95 264.89,-24.9 270.43,-22.94"/>
<polygon fill="midnightblue" stroke="midnightblue" points="271.95,-26.11 280.25,-19.53 269.65,-19.5 271.95,-26.11"/>
</g>
</g>
</svg>
