<?xml version="1.0" encoding="UTF-8" standalone="no"?>
<!DOCTYPE svg PUBLIC "-//W3C//DTD SVG 1.1//EN"
 "http://www.w3.org/Graphics/SVG/1.1/DTD/svg11.dtd">
<!-- Generated by graphviz version 3.0.0 (0)
 -->
<!-- Title: points_write Pages: 1 -->
<svg width="314pt" height="142pt"
 viewBox="0.00 0.00 314.00 142.00" xmlns="http://www.w3.org/2000/svg" xmlns:xlink="http://www.w3.org/1999/xlink">
<g id="graph0" class="graph" transform="scale(1 1) rotate(0) translate(4 138)">
<title>points_write</title>
<polygon fill="white" stroke="transparent" points="-4,4 -4,-138 310,-138 310,4 -4,4"/>
<!-- Node1 -->
<g id="node1" class="node">
<title>Node1</title>
<g id="a_node1"><a xlink:title=" ">
<polygon fill="#bfbfbf" stroke="black" points="229,-57.5 229,-76.5 306,-76.5 306,-57.5 229,-57.5"/>
<text text-anchor="middle" x="267.5" y="-64.5" font-family="Helvetica,sans-Serif" font-size="10.00">points_write</text>
</a>
</g>
</g>
<!-- Node2 -->
<g id="node2" class="node">
<title>Node2</title>
<g id="a_node2"><a xlink:href="group__cone.html#ga91bcf93d6d83f4837ac94093d869af78" target="_top" xlink:title=" ">
<polygon fill="white" stroke="black" points="82,-114.5 82,-133.5 188,-133.5 188,-114.5 82,-114.5"/>
<text text-anchor="middle" x="135" y="-121.5" font-family="Helvetica,sans-Serif" font-size="10.00">model_cone_write</text>
</a>
</g>
</g>
<!-- Node1&#45;&gt;Node2 -->
<g id="edge1" class="edge">
<title>Node1&#45;&gt;Node2</title>
<path fill="none" stroke="midnightblue" d="M240.95,-81.46C227.02,-89.01 209.34,-98.1 193,-105 184.93,-108.41 176.02,-111.62 167.68,-114.41"/>
<polygon fill="midnightblue" stroke="midnightblue" points="242.85,-84.4 249.92,-76.51 239.48,-78.27 242.85,-84.4"/>
</g>
<!-- Node4 -->
<g id="node4" class="node">
<title>Node4</title>
<g id="a_node4"><a xlink:href="group__cube.html#gad6fe75a034b53925563817d6efd139a0" target="_top" xlink:title=" ">
<polygon fill="white" stroke="black" points="82,-76.5 82,-95.5 188,-95.5 188,-76.5 82,-76.5"/>
<text text-anchor="middle" x="135" y="-83.5" font-family="Helvetica,sans-Serif" font-size="10.00">model_cube_write</text>
</a>
</g>
</g>
<!-- Node1&#45;&gt;Node4 -->
<g id="edge3" class="edge">
<title>Node1&#45;&gt;Node4</title>
<path fill="none" stroke="midnightblue" d="M218.68,-73.96C208.77,-75.41 198.28,-76.93 188.22,-78.4"/>
<polygon fill="midnightblue" stroke="midnightblue" points="219.36,-77.4 228.75,-72.5 218.35,-70.47 219.36,-77.4"/>
</g>
<!-- Node5 -->
<g id="node5" class="node">
<title>Node5</title>
<g id="a_node5"><a xlink:href="group__plane.html#ga5e8bda3b029f10d274a294c697a622cd" target="_top" xlink:title=" ">
<polygon fill="white" stroke="black" points="80,-38.5 80,-57.5 190,-57.5 190,-38.5 80,-38.5"/>
<text text-anchor="middle" x="135" y="-45.5" font-family="Helvetica,sans-Serif" font-size="10.00">model_plane_write</text>
</a>
</g>
</g>
<!-- Node1&#45;&gt;Node5 -->
<g id="edge5" class="edge">
<title>Node1&#45;&gt;Node5</title>
<path fill="none" stroke="midnightblue" d="M218.57,-60.02C209.33,-58.68 199.59,-57.26 190.16,-55.89"/>
<polygon fill="midnightblue" stroke="midnightblue" points="218.35,-63.53 228.75,-61.5 219.36,-56.6 218.35,-63.53"/>
</g>
<!-- Node6 -->
<g id="node6" class="node">
<title>Node6</title>
<g id="a_node6"><a xlink:href="group__sphere.html#gac12b373e99ed20d69a86f42d7fbba274" target="_top" xlink:title=" ">
<polygon fill="white" stroke="black" points="77,-0.5 77,-19.5 193,-19.5 193,-0.5 77,-0.5"/>
<text text-anchor="middle" x="135" y="-7.5" font-family="Helvetica,sans-Serif" font-size="10.00">model_sphere_write</text>
</a>
</g>
</g>
<!-- Node1&#45;&gt;Node6 -->
<g id="edge7" class="edge">
<title>Node1&#45;&gt;Node6</title>
<path fill="none" stroke="midnightblue" d="M240.95,-52.54C227.02,-44.99 209.34,-35.9 193,-29 184.93,-25.59 176.02,-22.38 167.68,-19.59"/>
<polygon fill="midnightblue" stroke="midnightblue" points="239.48,-55.73 249.92,-57.49 242.85,-49.6 239.48,-55.73"/>
</g>
<!-- Node3 -->
<g id="node3" class="node">
<title>Node3</title>
<g id="a_node3"><a xlink:href="generator_8cpp.html#a0ddf1224851353fc92bfbff6f499fa97" target="_top" xlink:title=" ">
<polygon fill="white" stroke="black" points="0,-57.5 0,-76.5 41,-76.5 41,-57.5 0,-57.5"/>
<text text-anchor="middle" x="20.5" y="-64.5" font-family="Helvetica,sans-Serif" font-size="10.00">main</text>
</a>
</g>
</g>
<!-- Node2&#45;&gt;Node3 -->
<g id="edge2" class="edge">
<title>Node2&#45;&gt;Node3</title>
<path fill="none" stroke="midnightblue" d="M90.63,-110.97C85.95,-109.14 81.33,-107.15 77,-105 61.1,-97.1 44.52,-85.19 33.67,-76.81"/>
<polygon fill="midnightblue" stroke="midnightblue" points="89.62,-114.33 100.22,-114.47 92.03,-107.75 89.62,-114.33"/>
</g>
<!-- Node4&#45;&gt;Node3 -->
<g id="edge4" class="edge">
<title>Node4&#45;&gt;Node3</title>
<path fill="none" stroke="midnightblue" d="M71.53,-75.45C60.49,-73.59 49.78,-71.78 41.12,-70.31"/>
<polygon fill="midnightblue" stroke="midnightblue" points="71.26,-78.95 81.7,-77.17 72.42,-72.05 71.26,-78.95"/>
</g>
<!-- Node5&#45;&gt;Node3 -->
<g id="edge6" class="edge">
<title>Node5&#45;&gt;Node3</title>
<path fill="none" stroke="midnightblue" d="M69.7,-58.86C59.32,-60.61 49.31,-62.3 41.13,-63.69"/>
<polygon fill="midnightblue" stroke="midnightblue" points="70.45,-62.28 79.73,-57.17 69.28,-55.38 70.45,-62.28"/>
</g>
<!-- Node6&#45;&gt;Node3 -->
<g id="edge8" class="edge">
<title>Node6&#45;&gt;Node3</title>
<path fill="none" stroke="midnightblue" d="M90.63,-23.03C85.95,-24.86 81.33,-26.85 77,-29 61.1,-36.9 44.52,-48.81 33.67,-57.19"/>
<polygon fill="midnightblue" stroke="midnightblue" points="92.03,-26.25 100.22,-19.53 89.62,-19.67 92.03,-26.25"/>
</g>
</g>
</svg>
