<?xml version="1.0" encoding="UTF-8" standalone="no"?>
<!DOCTYPE svg PUBLIC "-//W3C//DTD SVG 1.1//EN"
 "http://www.w3.org/Graphics/SVG/1.1/DTD/svg11.dtd">
<!-- Generated by graphviz version 3.0.0 (0)
 -->
<!-- Title: get_bezier_surface Pages: 1 -->
<svg width="581pt" height="154pt"
 viewBox="0.00 0.00 581.00 153.50" xmlns="http://www.w3.org/2000/svg" xmlns:xlink="http://www.w3.org/1999/xlink">
<g id="graph0" class="graph" transform="scale(1 1) rotate(0) translate(4 149.5)">
<title>get_bezier_surface</title>
<polygon fill="white" stroke="transparent" points="-4,4 -4,-149.5 577,-149.5 577,4 -4,4"/>
<!-- Node1 -->
<g id="node1" class="node">
<title>Node1</title>
<g id="a_node1"><a xlink:title=" ">
<polygon fill="#bfbfbf" stroke="black" points="0,-57.5 0,-76.5 109,-76.5 109,-57.5 0,-57.5"/>
<text text-anchor="middle" x="54.5" y="-64.5" font-family="Helvetica,sans-Serif" font-size="10.00">get_bezier_surface</text>
</a>
</g>
</g>
<!-- Node2 -->
<g id="node2" class="node">
<title>Node2</title>
<g id="a_node2"><a xlink:href="group__bezier.html#ga08aa0300760bfa97d7555a4c4d09f8be" target="_top" xlink:title=" ">
<polygon fill="white" stroke="black" points="145,-57.5 145,-76.5 245,-76.5 245,-57.5 145,-57.5"/>
<text text-anchor="middle" x="195" y="-64.5" font-family="Helvetica,sans-Serif" font-size="10.00">get_bezier_patch</text>
</a>
</g>
</g>
<!-- Node1&#45;&gt;Node2 -->
<g id="edge1" class="edge">
<title>Node1&#45;&gt;Node2</title>
<path fill="none" stroke="midnightblue" d="M109.05,-67C117.38,-67 126.04,-67 134.49,-67"/>
<polygon fill="midnightblue" stroke="midnightblue" points="134.67,-70.5 144.67,-67 134.67,-63.5 134.67,-70.5"/>
</g>
<!-- Node3 -->
<g id="node3" class="node">
<title>Node3</title>
<g id="a_node3"><a xlink:href="group__bezier.html#ga4623e7c5e81e842a2b10cd85b9481744" target="_top" xlink:title=" ">
<polygon fill="white" stroke="black" points="281,-57.5 281,-76.5 394,-76.5 394,-57.5 281,-57.5"/>
<text text-anchor="middle" x="337.5" y="-64.5" font-family="Helvetica,sans-Serif" font-size="10.00">get_bezier_point_at</text>
</a>
</g>
</g>
<!-- Node2&#45;&gt;Node3 -->
<g id="edge2" class="edge">
<title>Node2&#45;&gt;Node3</title>
<path fill="none" stroke="midnightblue" d="M245.14,-67C253.44,-67 262.18,-67 270.83,-67"/>
<polygon fill="midnightblue" stroke="midnightblue" points="270.9,-70.5 280.9,-67 270.9,-63.5 270.9,-70.5"/>
</g>
<!-- Node4 -->
<g id="node4" class="node">
<title>Node4</title>
<g id="a_node4"><a xlink:href="group__bezier.html#gad11b5559e8d34f899f934960207ded9a" target="_top" xlink:title=" ">
<polygon fill="white" stroke="black" points="445,-115 445,-145 558,-145 558,-115 445,-115"/>
<text text-anchor="start" x="453" y="-133" font-family="Helvetica,sans-Serif" font-size="10.00">deriv_of_monic_3rd</text>
<text text-anchor="middle" x="501.5" y="-122" font-family="Helvetica,sans-Serif" font-size="10.00">_polynomial_at</text>
</a>
</g>
</g>
<!-- Node3&#45;&gt;Node4 -->
<g id="edge3" class="edge">
<title>Node3&#45;&gt;Node4</title>
<path fill="none" stroke="midnightblue" d="M360.56,-76.54C379.01,-84.44 406.08,-95.8 430,-105 435.51,-107.12 441.29,-109.28 447.07,-111.39"/>
<polygon fill="midnightblue" stroke="midnightblue" points="446.15,-114.78 456.74,-114.89 448.53,-108.2 446.15,-114.78"/>
</g>
<!-- Node5 -->
<g id="node5" class="node">
<title>Node5</title>
<g id="a_node5"><a xlink:href="curves_8cpp.html#a6d6def6a76701b08284cba58066e3382" target="_top" xlink:title=" ">
<polygon fill="white" stroke="black" points="446.5,-76.5 446.5,-95.5 556.5,-95.5 556.5,-76.5 446.5,-76.5"/>
<text text-anchor="middle" x="501.5" y="-83.5" font-family="Helvetica,sans-Serif" font-size="10.00">get_curve_point_at</text>
</a>
</g>
</g>
<!-- Node3&#45;&gt;Node5 -->
<g id="edge4" class="edge">
<title>Node3&#45;&gt;Node5</title>
<path fill="none" stroke="midnightblue" d="M394.25,-73.54C407.8,-75.13 422.4,-76.84 436.31,-78.47"/>
<polygon fill="midnightblue" stroke="midnightblue" points="435.95,-81.95 446.29,-79.64 436.76,-75 435.95,-81.95"/>
</g>
<!-- Node6 -->
<g id="node6" class="node">
<title>Node6</title>
<g id="a_node6"><a xlink:href="group__bezier.html#gafcf7fcde525db8b303b2205562b7684d" target="_top" xlink:title=" ">
<polygon fill="white" stroke="black" points="483.5,-38.5 483.5,-57.5 519.5,-57.5 519.5,-38.5 483.5,-38.5"/>
<text text-anchor="middle" x="501.5" y="-45.5" font-family="Helvetica,sans-Serif" font-size="10.00">mat</text>
</a>
</g>
</g>
<!-- Node3&#45;&gt;Node6 -->
<g id="edge5" class="edge">
<title>Node3&#45;&gt;Node6</title>
<path fill="none" stroke="midnightblue" d="M394.25,-60.46C421.03,-57.32 451.9,-53.7 473.44,-51.17"/>
<polygon fill="midnightblue" stroke="midnightblue" points="473.97,-54.64 483.49,-49.99 473.15,-47.68 473.97,-54.64"/>
</g>
<!-- Node7 -->
<g id="node7" class="node">
<title>Node7</title>
<g id="a_node7"><a xlink:href="group__bezier.html#gaa5cc85b3de7b256bb1f7c98ac78fef08" target="_top" xlink:title=" ">
<polygon fill="white" stroke="black" points="430,-0.5 430,-19.5 573,-19.5 573,-0.5 430,-0.5"/>
<text text-anchor="middle" x="501.5" y="-7.5" font-family="Helvetica,sans-Serif" font-size="10.00">monic_3rd_polynomial_at</text>
</a>
</g>
</g>
<!-- Node3&#45;&gt;Node7 -->
<g id="edge6" class="edge">
<title>Node3&#45;&gt;Node7</title>
<path fill="none" stroke="midnightblue" d="M359.28,-57.46C377.64,-49.25 405.25,-37.43 430,-29 436.93,-26.64 444.32,-24.38 451.61,-22.29"/>
<polygon fill="midnightblue" stroke="midnightblue" points="452.74,-25.61 461.44,-19.55 450.87,-18.86 452.74,-25.61"/>
</g>
</g>
</svg>
