<?xml version="1.0" encoding="UTF-8" standalone="no"?>
<!DOCTYPE svg PUBLIC "-//W3C//DTD SVG 1.1//EN"
 "http://www.w3.org/Graphics/SVG/1.1/DTD/svg11.dtd">
<!-- Generated by graphviz version 3.0.0 (0)
 -->
<!-- Title: explCamera Pages: 1 -->
<svg width="466pt" height="104pt"
 viewBox="0.00 0.00 466.00 104.00" xmlns="http://www.w3.org/2000/svg" xmlns:xlink="http://www.w3.org/1999/xlink">
<g id="graph0" class="graph" transform="scale(1 1) rotate(0) translate(4 100)">
<title>explCamera</title>
<polygon fill="white" stroke="transparent" points="-4,4 -4,-100 462,-100 462,4 -4,4"/>
<!-- Node1 -->
<g id="node1" class="node">
<title>Node1</title>
<g id="a_node1"><a xlink:title=" ">
<polygon fill="#bfbfbf" stroke="black" points="0,-38.5 0,-57.5 76,-57.5 76,-38.5 0,-38.5"/>
<text text-anchor="middle" x="38" y="-45.5" font-family="Helvetica,sans-Serif" font-size="10.00">explCamera</text>
</a>
</g>
</g>
<!-- Node2 -->
<g id="node2" class="node">
<title>Node2</title>
<g id="a_node2"><a xlink:href="group__explorer_camera.html#ga9fe47c5361dc03b642823dc88f07465b" target="_top" xlink:title=" ">
<polygon fill="white" stroke="black" points="112,-38.5 112,-57.5 198,-57.5 198,-38.5 112,-38.5"/>
<text text-anchor="middle" x="155" y="-45.5" font-family="Helvetica,sans-Serif" font-size="10.00">explRedisplay</text>
</a>
</g>
</g>
<!-- Node1&#45;&gt;Node2 -->
<g id="edge1" class="edge">
<title>Node1&#45;&gt;Node2</title>
<path fill="none" stroke="midnightblue" d="M76.02,-48C84.23,-48 93.08,-48 101.77,-48"/>
<polygon fill="midnightblue" stroke="midnightblue" points="101.85,-51.5 111.85,-48 101.85,-44.5 101.85,-51.5"/>
</g>
<!-- Node3 -->
<g id="node3" class="node">
<title>Node3</title>
<g id="a_node3"><a xlink:href="group__explorer_camera.html#ga549cdceeb42f58967c400bcf0fe7a9cf" target="_top" xlink:title=" ">
<polygon fill="white" stroke="black" points="234,-38.5 234,-57.5 347,-57.5 347,-38.5 234,-38.5"/>
<text text-anchor="middle" x="290.5" y="-45.5" font-family="Helvetica,sans-Serif" font-size="10.00">spherical2Cartesian</text>
</a>
</g>
</g>
<!-- Node2&#45;&gt;Node3 -->
<g id="edge2" class="edge">
<title>Node2&#45;&gt;Node3</title>
<path fill="none" stroke="midnightblue" d="M198.24,-48C206.37,-48 215.05,-48 223.72,-48"/>
<polygon fill="midnightblue" stroke="midnightblue" points="223.85,-51.5 233.85,-48 223.85,-44.5 223.85,-51.5"/>
</g>
<!-- Node4 -->
<g id="node4" class="node">
<title>Node4</title>
<g id="a_node4"><a xlink:href="namespace_d.html#a393bfec992f13a40a9f601e3e6c82874" target="_top" xlink:title=" ">
<polygon fill="white" stroke="black" points="383,-76.5 383,-95.5 458,-95.5 458,-76.5 383,-76.5"/>
<text text-anchor="middle" x="420.5" y="-83.5" font-family="Helvetica,sans-Serif" font-size="10.00">D::cartesian</text>
</a>
</g>
</g>
<!-- Node3&#45;&gt;Node4 -->
<g id="edge3" class="edge">
<title>Node3&#45;&gt;Node4</title>
<path fill="none" stroke="midnightblue" d="M323.8,-57.59C340.02,-62.4 359.88,-68.3 377.29,-73.47"/>
<polygon fill="midnightblue" stroke="midnightblue" points="376.63,-76.92 387.21,-76.41 378.62,-70.21 376.63,-76.92"/>
</g>
<!-- Node5 -->
<g id="node5" class="node">
<title>Node5</title>
<g id="a_node5"><a xlink:href="namespace_d.html#ae27403f76d7334ff69a099e42f1f1616" target="_top" xlink:title=" ">
<polygon fill="white" stroke="black" points="391.5,-38.5 391.5,-57.5 449.5,-57.5 449.5,-38.5 391.5,-38.5"/>
<text text-anchor="middle" x="420.5" y="-45.5" font-family="Helvetica,sans-Serif" font-size="10.00">D::origin</text>
</a>
</g>
</g>
<!-- Node3&#45;&gt;Node5 -->
<g id="edge4" class="edge">
<title>Node3&#45;&gt;Node5</title>
<path fill="none" stroke="midnightblue" d="M347.27,-48C358.69,-48 370.46,-48 381.11,-48"/>
<polygon fill="midnightblue" stroke="midnightblue" points="381.32,-51.5 391.32,-48 381.32,-44.5 381.32,-51.5"/>
</g>
<!-- Node6 -->
<g id="node6" class="node">
<title>Node6</title>
<g id="a_node6"><a xlink:href="namespace_d.html#aa2fb96ccebb5bf88d4325f85beb99d84" target="_top" xlink:title="(radius,zenith,azimuth)">
<polygon fill="white" stroke="black" points="393,-0.5 393,-19.5 448,-19.5 448,-0.5 393,-0.5"/>
<text text-anchor="middle" x="420.5" y="-7.5" font-family="Helvetica,sans-Serif" font-size="10.00">D::polar</text>
</a>
</g>
</g>
<!-- Node3&#45;&gt;Node6 -->
<g id="edge5" class="edge">
<title>Node3&#45;&gt;Node6</title>
<path fill="none" stroke="midnightblue" d="M323.8,-38.41C341.88,-33.04 364.48,-26.34 383.17,-20.79"/>
<polygon fill="midnightblue" stroke="midnightblue" points="384.23,-24.12 392.82,-17.92 382.24,-17.41 384.23,-24.12"/>
</g>
</g>
</svg>
