<?xml version="1.0" encoding="UTF-8" standalone="no"?>
<!DOCTYPE svg PUBLIC "-//W3C//DTD SVG 1.1//EN"
 "http://www.w3.org/Graphics/SVG/1.1/DTD/svg11.dtd">
<!-- Generated by graphviz version 3.0.0 (0)
 -->
<!-- Title: model_bezier_write Pages: 1 -->
<!--zoomable 223 -->
<svg id="main" version="1.1" xmlns="http://www.w3.org/2000/svg" xmlns:xlink="http://www.w3.org/1999/xlink" xml:space="preserve" onload="init(evt)">
<style type="text/css"><![CDATA[
.edge:hover path { stroke: red; }
.edge:hover polygon { stroke: red; fill: red; }
]]></style>
<script type="text/javascript"><![CDATA[
var edges = document.getElementsByTagName('g');
if (edges && edges.length) {
  for (var i=0;i<edges.length;i++) {
    if (edges[i].id.substr(0,4)=='edge') {
      edges[i].setAttribute('class','edge');
    }
  }
}
]]></script>
        <defs>
                <circle id="rim" cx="0" cy="0" r="7"/>
                <circle id="rim2" cx="0" cy="0" r="3.5"/>
                <g id="zoomPlus">
                        <use xlink:href="#rim" fill="#404040">
                                <set attributeName="fill" to="#808080" begin="zoomplus.mouseover" end="zoomplus.mouseout"/>
                        </use>
                        <path d="M-4,0h8M0,-4v8" fill="none" stroke="white" stroke-width="1.5" pointer-events="none"/>
                </g>
                <g id="zoomMin">
                        <use xlink:href="#rim" fill="#404040">
                                <set attributeName="fill" to="#808080" begin="zoomminus.mouseover" end="zoomminus.mouseout"/>
                        </use>
                        <path d="M-4,0h8" fill="none" stroke="white" stroke-width="1.5" pointer-events="none"/>
                </g>
                <g id="dirArrow">
                        <path fill="none" stroke="white" stroke-width="1.5" d="M0,-3.0v7 M-2.5,-0.5L0,-3.0L2.5,-0.5"/>
                </g>
               <g id="resetDef">
                       <use xlink:href="#rim2" fill="#404040">
                               <set attributeName="fill" to="#808080" begin="reset.mouseover" end="reset.mouseout"/>
                       </use>
               </g>
        </defs>

<script type="text/javascript">
var viewWidth = 760;
var viewHeight = 223;
var sectionId = 'dynsection-12';
</script>
<script xlink:href="svgpan.js"/>
<svg id="graph" class="graph">
<g id="viewport">
<title>model_bezier_write</title>
<polygon fill="white" stroke="transparent" points="-4,4 -4,-218.5 756,-218.5 756,4 -4,4"/>
<!-- Node1 -->
<g id="node1" class="node">
<title>Node1</title>
<g id="a_node1"><a xlink:title=" ">
<polygon fill="#bfbfbf" stroke="black" points="0,-60.5 0,-79.5 113,-79.5 113,-60.5 0,-60.5"/>
<text text-anchor="middle" x="56.5" y="-67.5" font-family="Helvetica,sans-Serif" font-size="10.00">model_bezier_write</text>
</a>
</g>
</g>
<!-- Node2 -->
<g id="node2" class="node">
<title>Node2</title>
<g id="a_node2"><a xlink:href="group__bezier.html#gad696b1162ccfd03b01584b7794814cf5" target="_top" xlink:title=" ">
<polygon fill="white" stroke="black" points="156.5,-126.5 156.5,-145.5 265.5,-145.5 265.5,-126.5 156.5,-126.5"/>
<text text-anchor="middle" x="211" y="-133.5" font-family="Helvetica,sans-Serif" font-size="10.00">get_bezier_surface</text>
</a>
</g>
</g>
<!-- Node1&#45;&gt;Node2 -->
<g id="edge1" class="edge">
<title>Node1&#45;&gt;Node2</title>
<path fill="none" stroke="midnightblue" d="M74.68,-79.61C92.81,-89.51 122.37,-105.01 149,-116 155.02,-118.48 161.46,-120.87 167.83,-123.09"/>
<polygon fill="midnightblue" stroke="midnightblue" points="167.1,-126.53 177.7,-126.4 169.33,-119.9 167.1,-126.53"/>
</g>
<!-- Node9 -->
<g id="node9" class="node">
<title>Node9</title>
<g id="a_node9"><a xlink:href="group__bezier.html#ga20c58299589514750446c5b775b91bc0" target="_top" xlink:title=" ">
<polygon fill="white" stroke="black" points="149,-77 149,-107 273,-107 273,-77 149,-77"/>
<text text-anchor="start" x="157" y="-95" font-family="Helvetica,sans-Serif" font-size="10.00">model_bezier_surface</text>
<text text-anchor="middle" x="211" y="-84" font-family="Helvetica,sans-Serif" font-size="10.00">_nVertices</text>
</a>
</g>
</g>
<!-- Node1&#45;&gt;Node9 -->
<g id="edge8" class="edge">
<title>Node1&#45;&gt;Node9</title>
<path fill="none" stroke="midnightblue" d="M113.42,-78.07C121.73,-79.27 130.39,-80.51 138.95,-81.75"/>
<polygon fill="midnightblue" stroke="midnightblue" points="138.55,-85.23 148.95,-83.19 139.55,-78.3 138.55,-85.23"/>
</g>
<!-- Node11 -->
<g id="node11" class="node">
<title>Node11</title>
<g id="a_node11"><a xlink:href="group__points.html#gaf9dbdadabbf44c2542a65faaad2ae271" target="_top" xlink:title=" ">
<polygon fill="white" stroke="black" points="172.5,-38.5 172.5,-57.5 249.5,-57.5 249.5,-38.5 172.5,-38.5"/>
<text text-anchor="middle" x="211" y="-45.5" font-family="Helvetica,sans-Serif" font-size="10.00">model_write</text>
</a>
</g>
</g>
<!-- Node1&#45;&gt;Node11 -->
<g id="edge10" class="edge">
<title>Node1&#45;&gt;Node11</title>
<path fill="none" stroke="midnightblue" d="M113.42,-61.93C129.31,-59.64 146.46,-57.17 161.84,-54.95"/>
<polygon fill="midnightblue" stroke="midnightblue" points="162.77,-58.35 172.17,-53.46 161.77,-51.42 162.77,-58.35"/>
</g>
<!-- Node12 -->
<g id="node12" class="node">
<title>Node12</title>
<g id="a_node12"><a xlink:href="group__bezier.html#ga84e3c4940075b047e593e590b6e814d8" target="_top" xlink:title=" ">
<polygon fill="white" stroke="black" points="174,-0.5 174,-19.5 248,-19.5 248,-0.5 174,-0.5"/>
<text text-anchor="middle" x="211" y="-7.5" font-family="Helvetica,sans-Serif" font-size="10.00">read_Bezier</text>
</a>
</g>
</g>
<!-- Node1&#45;&gt;Node12 -->
<g id="edge11" class="edge">
<title>Node1&#45;&gt;Node12</title>
<path fill="none" stroke="midnightblue" d="M77.2,-60.35C95.54,-51.56 123.76,-38.55 149,-29 154.86,-26.79 161.09,-24.62 167.26,-22.6"/>
<polygon fill="midnightblue" stroke="midnightblue" points="168.37,-25.92 176.83,-19.54 166.24,-19.25 168.37,-25.92"/>
</g>
<!-- Node3 -->
<g id="node3" class="node">
<title>Node3</title>
<g id="a_node3"><a xlink:href="group__bezier.html#ga08aa0300760bfa97d7555a4c4d09f8be" target="_top" xlink:title=" ">
<polygon fill="white" stroke="black" points="316.5,-126.5 316.5,-145.5 416.5,-145.5 416.5,-126.5 316.5,-126.5"/>
<text text-anchor="middle" x="366.5" y="-133.5" font-family="Helvetica,sans-Serif" font-size="10.00">get_bezier_patch</text>
</a>
</g>
</g>
<!-- Node2&#45;&gt;Node3 -->
<g id="edge2" class="edge">
<title>Node2&#45;&gt;Node3</title>
<path fill="none" stroke="midnightblue" d="M265.69,-136C278.85,-136 293,-136 306.4,-136"/>
<polygon fill="midnightblue" stroke="midnightblue" points="306.47,-139.5 316.47,-136 306.47,-132.5 306.47,-139.5"/>
</g>
<!-- Node4 -->
<g id="node4" class="node">
<title>Node4</title>
<g id="a_node4"><a xlink:href="group__bezier.html#ga4623e7c5e81e842a2b10cd85b9481744" target="_top" xlink:title=" ">
<polygon fill="white" stroke="black" points="460,-126.5 460,-145.5 573,-145.5 573,-126.5 460,-126.5"/>
<text text-anchor="middle" x="516.5" y="-133.5" font-family="Helvetica,sans-Serif" font-size="10.00">get_bezier_point_at</text>
</a>
</g>
</g>
<!-- Node3&#45;&gt;Node4 -->
<g id="edge3" class="edge">
<title>Node3&#45;&gt;Node4</title>
<path fill="none" stroke="midnightblue" d="M416.78,-136C427.34,-136 438.66,-136 449.73,-136"/>
<polygon fill="midnightblue" stroke="midnightblue" points="449.79,-139.5 459.79,-136 449.79,-132.5 449.79,-139.5"/>
</g>
<!-- Node5 -->
<g id="node5" class="node">
<title>Node5</title>
<g id="a_node5"><a xlink:href="group__bezier.html#gad11b5559e8d34f899f934960207ded9a" target="_top" xlink:title=" ">
<polygon fill="white" stroke="black" points="624,-184 624,-214 737,-214 737,-184 624,-184"/>
<text text-anchor="start" x="632" y="-202" font-family="Helvetica,sans-Serif" font-size="10.00">deriv_of_monic_3rd</text>
<text text-anchor="middle" x="680.5" y="-191" font-family="Helvetica,sans-Serif" font-size="10.00">_polynomial_at</text>
</a>
</g>
</g>
<!-- Node4&#45;&gt;Node5 -->
<g id="edge4" class="edge">
<title>Node4&#45;&gt;Node5</title>
<path fill="none" stroke="midnightblue" d="M539.56,-145.54C558.01,-153.44 585.08,-164.8 609,-174 614.51,-176.12 620.29,-178.28 626.07,-180.39"/>
<polygon fill="midnightblue" stroke="midnightblue" points="625.15,-183.78 635.74,-183.89 627.53,-177.2 625.15,-183.78"/>
</g>
<!-- Node6 -->
<g id="node6" class="node">
<title>Node6</title>
<g id="a_node6"><a xlink:href="curves_8cpp.html#a6d6def6a76701b08284cba58066e3382" target="_top" xlink:title=" ">
<polygon fill="white" stroke="black" points="625.5,-145.5 625.5,-164.5 735.5,-164.5 735.5,-145.5 625.5,-145.5"/>
<text text-anchor="middle" x="680.5" y="-152.5" font-family="Helvetica,sans-Serif" font-size="10.00">get_curve_point_at</text>
</a>
</g>
</g>
<!-- Node4&#45;&gt;Node6 -->
<g id="edge5" class="edge">
<title>Node4&#45;&gt;Node6</title>
<path fill="none" stroke="midnightblue" d="M573.25,-142.54C586.8,-144.13 601.4,-145.84 615.31,-147.47"/>
<polygon fill="midnightblue" stroke="midnightblue" points="614.95,-150.95 625.29,-148.64 615.76,-144 614.95,-150.95"/>
</g>
<!-- Node7 -->
<g id="node7" class="node">
<title>Node7</title>
<g id="a_node7"><a xlink:href="group__bezier.html#gafcf7fcde525db8b303b2205562b7684d" target="_top" xlink:title=" ">
<polygon fill="white" stroke="black" points="662.5,-107.5 662.5,-126.5 698.5,-126.5 698.5,-107.5 662.5,-107.5"/>
<text text-anchor="middle" x="680.5" y="-114.5" font-family="Helvetica,sans-Serif" font-size="10.00">mat</text>
</a>
</g>
</g>
<!-- Node4&#45;&gt;Node7 -->
<g id="edge6" class="edge">
<title>Node4&#45;&gt;Node7</title>
<path fill="none" stroke="midnightblue" d="M573.25,-129.46C600.03,-126.32 630.9,-122.7 652.44,-120.17"/>
<polygon fill="midnightblue" stroke="midnightblue" points="652.97,-123.64 662.49,-118.99 652.15,-116.68 652.97,-123.64"/>
</g>
<!-- Node8 -->
<g id="node8" class="node">
<title>Node8</title>
<g id="a_node8"><a xlink:href="group__bezier.html#gaa5cc85b3de7b256bb1f7c98ac78fef08" target="_top" xlink:title=" ">
<polygon fill="white" stroke="black" points="609,-69.5 609,-88.5 752,-88.5 752,-69.5 609,-69.5"/>
<text text-anchor="middle" x="680.5" y="-76.5" font-family="Helvetica,sans-Serif" font-size="10.00">monic_3rd_polynomial_at</text>
</a>
</g>
</g>
<!-- Node4&#45;&gt;Node8 -->
<g id="edge7" class="edge">
<title>Node4&#45;&gt;Node8</title>
<path fill="none" stroke="midnightblue" d="M538.28,-126.46C556.64,-118.25 584.25,-106.43 609,-98 615.93,-95.64 623.32,-93.38 630.61,-91.29"/>
<polygon fill="midnightblue" stroke="midnightblue" points="631.74,-94.61 640.44,-88.55 629.87,-87.86 631.74,-94.61"/>
</g>
<!-- Node10 -->
<g id="node10" class="node">
<title>Node10</title>
<g id="a_node10"><a xlink:href="group__bezier.html#ga8d6c3e5adc4ee3cfb89a75f2ce7642a8" target="_top" xlink:title=" ">
<polygon fill="white" stroke="black" points="309,-77 309,-107 424,-107 424,-77 309,-77"/>
<text text-anchor="start" x="317" y="-95" font-family="Helvetica,sans-Serif" font-size="10.00">model_bezier_patch</text>
<text text-anchor="middle" x="366.5" y="-84" font-family="Helvetica,sans-Serif" font-size="10.00">_nVertices</text>
</a>
</g>
</g>
<!-- Node9&#45;&gt;Node10 -->
<g id="edge9" class="edge">
<title>Node9&#45;&gt;Node10</title>
<path fill="none" stroke="midnightblue" d="M273.11,-92C281.43,-92 290.01,-92 298.43,-92"/>
<polygon fill="midnightblue" stroke="midnightblue" points="298.59,-95.5 308.59,-92 298.59,-88.5 298.59,-95.5"/>
</g>
</g>
</svg>
        <g id="navigator" transform="translate(0 0)" fill="#404254">
                <rect fill="#f2f5e9" fill-opacity="0.5" stroke="#606060" stroke-width=".5" x="0" y="0" width="60" height="60"/>
                <use id="zoomplus" xlink:href="#zoomPlus" x="17" y="9" onmousedown="handleZoom(evt,'in')"/>
                <use id="zoomminus" xlink:href="#zoomMin" x="42" y="9" onmousedown="handleZoom(evt,'out')"/>
                <use id="reset" xlink:href="#resetDef" x="30" y="36" onmousedown="handleReset()"/>
                <g id="arrowUp" xlink:href="#dirArrow" transform="translate(30 24)" onmousedown="handlePan(0,-1)">
                  <use xlink:href="#rim" fill="#404040">
                        <set attributeName="fill" to="#808080" begin="arrowUp.mouseover" end="arrowUp.mouseout"/>
                  </use>
                  <path fill="none" stroke="white" stroke-width="1.5" d="M0,-3.0v7 M-2.5,-0.5L0,-3.0L2.5,-0.5"/>
                </g>
                <g id="arrowRight" xlink:href="#dirArrow" transform="rotate(90) translate(36 -43)" onmousedown="handlePan(1,0)">
                  <use xlink:href="#rim" fill="#404040">
                        <set attributeName="fill" to="#808080" begin="arrowRight.mouseover" end="arrowRight.mouseout"/>
                  </use>
                  <path fill="none" stroke="white" stroke-width="1.5" d="M0,-3.0v7 M-2.5,-0.5L0,-3.0L2.5,-0.5"/>
                </g>
                <g id="arrowDown" xlink:href="#dirArrow" transform="rotate(180) translate(-30 -48)" onmousedown="handlePan(0,1)">
                  <use xlink:href="#rim" fill="#404040">
                        <set attributeName="fill" to="#808080" begin="arrowDown.mouseover" end="arrowDown.mouseout"/>
                  </use>
                  <path fill="none" stroke="white" stroke-width="1.5" d="M0,-3.0v7 M-2.5,-0.5L0,-3.0L2.5,-0.5"/>
                </g>
                <g id="arrowLeft" xlink:href="#dirArrow" transform="rotate(270) translate(-36 17)" onmousedown="handlePan(-1,0)">
                  <use xlink:href="#rim" fill="#404040">
                        <set attributeName="fill" to="#808080" begin="arrowLeft.mouseover" end="arrowLeft.mouseout"/>
                  </use>
                  <path fill="none" stroke="white" stroke-width="1.5" d="M0,-3.0v7 M-2.5,-0.5L0,-3.0L2.5,-0.5"/>
                </g>
        </g>
        <svg viewBox="0 0 15 15" width="100%" height="30px" preserveAspectRatio="xMaxYMin meet">
         <g id="arrow_out" transform="scale(0.3 0.3)">
          <a xlink:href="group__bezier_ga0886f14826417ba72823e219550591e1_cgraph_org.svg" target="_base">
           <rect id="button" ry="5" rx="5" y="6" x="6" height="38" width="38"
                fill="#f2f5e9" fill-opacity="0.5" stroke="#606060" stroke-width="1.0"/>
           <path id="arrow"
             d="M 11.500037,31.436501 C 11.940474,20.09759 22.043105,11.32322 32.158766,21.979434 L 37.068811,17.246167 C 37.068811,17.246167 37.088388,32 37.088388,32 L 22.160133,31.978069 C 22.160133,31.978069 26.997745,27.140456 26.997745,27.140456 C 18.528582,18.264221 13.291696,25.230495 11.500037,31.436501 z"
             style="fill:#404040;"/>
          </a>
         </g>
        </svg>
</svg>
