<?xml version="1.0" encoding="UTF-8" standalone="no"?>
<!DOCTYPE svg PUBLIC "-//W3C//DTD SVG 1.1//EN"
 "http://www.w3.org/Graphics/SVG/1.1/DTD/svg11.dtd">
<!-- Generated by graphviz version 3.0.0 (0)
 -->
<!-- Title: model_bezier_patch_nVertices Pages: 1 -->
<svg width="509pt" height="39pt"
 viewBox="0.00 0.00 509.00 39.00" xmlns="http://www.w3.org/2000/svg" xmlns:xlink="http://www.w3.org/1999/xlink">
<g id="graph0" class="graph" transform="scale(1 1) rotate(0) translate(4 35)">
<title>model_bezier_patch_nVertices</title>
<polygon fill="white" stroke="transparent" points="-4,4 -4,-35 505,-35 505,4 -4,4"/>
<!-- Node1 -->
<g id="node1" class="node">
<title>Node1</title>
<g id="a_node1"><a xlink:title=" ">
<polygon fill="#bfbfbf" stroke="black" points="386,-0.5 386,-30.5 501,-30.5 501,-0.5 386,-0.5"/>
<text text-anchor="start" x="394" y="-18.5" font-family="Helvetica,sans-Serif" font-size="10.00">model_bezier_patch</text>
<text text-anchor="middle" x="443.5" y="-7.5" font-family="Helvetica,sans-Serif" font-size="10.00">_nVertices</text>
</a>
</g>
</g>
<!-- Node2 -->
<g id="node2" class="node">
<title>Node2</title>
<g id="a_node2"><a xlink:href="group__bezier.html#ga20c58299589514750446c5b775b91bc0" target="_top" xlink:title=" ">
<polygon fill="white" stroke="black" points="226,-0.5 226,-30.5 350,-30.5 350,-0.5 226,-0.5"/>
<text text-anchor="start" x="234" y="-18.5" font-family="Helvetica,sans-Serif" font-size="10.00">model_bezier_surface</text>
<text text-anchor="middle" x="288" y="-7.5" font-family="Helvetica,sans-Serif" font-size="10.00">_nVertices</text>
</a>
</g>
</g>
<!-- Node1&#45;&gt;Node2 -->
<g id="edge1" class="edge">
<title>Node1&#45;&gt;Node2</title>
<path fill="none" stroke="midnightblue" d="M375.57,-15.5C367.11,-15.5 358.49,-15.5 350.13,-15.5"/>
<polygon fill="midnightblue" stroke="midnightblue" points="375.78,-19 385.78,-15.5 375.78,-12 375.78,-19"/>
</g>
<!-- Node3 -->
<g id="node3" class="node">
<title>Node3</title>
<g id="a_node3"><a xlink:href="group__bezier.html#ga0886f14826417ba72823e219550591e1" target="_top" xlink:title=" ">
<polygon fill="white" stroke="black" points="77,-6 77,-25 190,-25 190,-6 77,-6"/>
<text text-anchor="middle" x="133.5" y="-13" font-family="Helvetica,sans-Serif" font-size="10.00">model_bezier_write</text>
</a>
</g>
</g>
<!-- Node2&#45;&gt;Node3 -->
<g id="edge2" class="edge">
<title>Node2&#45;&gt;Node3</title>
<path fill="none" stroke="midnightblue" d="M215.83,-15.5C207.24,-15.5 198.56,-15.5 190.23,-15.5"/>
<polygon fill="midnightblue" stroke="midnightblue" points="215.85,-19 225.85,-15.5 215.85,-12 215.85,-19"/>
</g>
<!-- Node4 -->
<g id="node4" class="node">
<title>Node4</title>
<g id="a_node4"><a xlink:href="generator_8cpp.html#aee608aedd5b0b58f2966c2ff15101925" target="_top" xlink:title=" ">
<polygon fill="white" stroke="black" points="0,-6 0,-25 41,-25 41,-6 0,-6"/>
<text text-anchor="middle" x="20.5" y="-13" font-family="Helvetica,sans-Serif" font-size="10.00">main</text>
</a>
</g>
</g>
<!-- Node3&#45;&gt;Node4 -->
<g id="edge3" class="edge">
<title>Node3&#45;&gt;Node4</title>
<path fill="none" stroke="midnightblue" d="M66.58,-15.5C57.37,-15.5 48.56,-15.5 41.21,-15.5"/>
<polygon fill="midnightblue" stroke="midnightblue" points="66.67,-19 76.67,-15.5 66.67,-12 66.67,-19"/>
</g>
</g>
</svg>
