<?xml version="1.0" encoding="UTF-8" standalone="no"?>
<!DOCTYPE svg PUBLIC "-//W3C//DTD SVG 1.1//EN"
 "http://www.w3.org/Graphics/SVG/1.1/DTD/svg11.dtd">
<!-- Generated by graphviz version 3.0.0 (0)
 -->
<!-- Title: deriv_of_monic_3rd_polynomial_at Pages: 1 -->
<svg width="777pt" height="39pt"
 viewBox="0.00 0.00 777.00 39.00" xmlns="http://www.w3.org/2000/svg" xmlns:xlink="http://www.w3.org/1999/xlink">
<g id="graph0" class="graph" transform="scale(1 1) rotate(0) translate(4 35)">
<title>deriv_of_monic_3rd_polynomial_at</title>
<polygon fill="white" stroke="transparent" points="-4,4 -4,-35 773,-35 773,4 -4,4"/>
<!-- Node1 -->
<g id="node1" class="node">
<title>Node1</title>
<g id="a_node1"><a xlink:title=" ">
<polygon fill="#bfbfbf" stroke="black" points="656,-0.5 656,-30.5 769,-30.5 769,-0.5 656,-0.5"/>
<text text-anchor="start" x="664" y="-18.5" font-family="Helvetica,sans-Serif" font-size="10.00">deriv_of_monic_3rd</text>
<text text-anchor="middle" x="712.5" y="-7.5" font-family="Helvetica,sans-Serif" font-size="10.00">_polynomial_at</text>
</a>
</g>
</g>
<!-- Node2 -->
<g id="node2" class="node">
<title>Node2</title>
<g id="a_node2"><a xlink:href="group__bezier.html#ga3ab22588659e568df730297c82e0930b" target="_top" xlink:title=" ">
<polygon fill="white" stroke="black" points="507,-6 507,-25 620,-25 620,-6 507,-6"/>
<text text-anchor="middle" x="563.5" y="-13" font-family="Helvetica,sans-Serif" font-size="10.00">get_bezier_point_at</text>
</a>
</g>
</g>
<!-- Node1&#45;&gt;Node2 -->
<g id="edge1" class="edge">
<title>Node1&#45;&gt;Node2</title>
<path fill="none" stroke="midnightblue" d="M645.92,-15.5C637.32,-15.5 628.57,-15.5 620.15,-15.5"/>
<polygon fill="midnightblue" stroke="midnightblue" points="645.93,-19 655.93,-15.5 645.93,-12 645.93,-19"/>
</g>
<!-- Node3 -->
<g id="node3" class="node">
<title>Node3</title>
<g id="a_node3"><a xlink:href="group__bezier.html#ga08aa0300760bfa97d7555a4c4d09f8be" target="_top" xlink:title=" ">
<polygon fill="white" stroke="black" points="371,-6 371,-25 471,-25 471,-6 371,-6"/>
<text text-anchor="middle" x="421" y="-13" font-family="Helvetica,sans-Serif" font-size="10.00">get_bezier_patch</text>
</a>
</g>
</g>
<!-- Node2&#45;&gt;Node3 -->
<g id="edge2" class="edge">
<title>Node2&#45;&gt;Node3</title>
<path fill="none" stroke="midnightblue" d="M496.9,-15.5C488.25,-15.5 479.51,-15.5 471.21,-15.5"/>
<polygon fill="midnightblue" stroke="midnightblue" points="496.97,-19 506.97,-15.5 496.97,-12 496.97,-19"/>
</g>
<!-- Node4 -->
<g id="node4" class="node">
<title>Node4</title>
<g id="a_node4"><a xlink:href="group__bezier.html#gad696b1162ccfd03b01584b7794814cf5" target="_top" xlink:title=" ">
<polygon fill="white" stroke="black" points="226,-6 226,-25 335,-25 335,-6 226,-6"/>
<text text-anchor="middle" x="280.5" y="-13" font-family="Helvetica,sans-Serif" font-size="10.00">get_bezier_surface</text>
</a>
</g>
</g>
<!-- Node3&#45;&gt;Node4 -->
<g id="edge3" class="edge">
<title>Node3&#45;&gt;Node4</title>
<path fill="none" stroke="midnightblue" d="M360.63,-15.5C352.21,-15.5 343.58,-15.5 335.26,-15.5"/>
<polygon fill="midnightblue" stroke="midnightblue" points="360.78,-19 370.78,-15.5 360.78,-12 360.78,-19"/>
</g>
<!-- Node5 -->
<g id="node5" class="node">
<title>Node5</title>
<g id="a_node5"><a xlink:href="group__bezier.html#ga0886f14826417ba72823e219550591e1" target="_top" xlink:title=" ">
<polygon fill="white" stroke="black" points="77,-6 77,-25 190,-25 190,-6 77,-6"/>
<text text-anchor="middle" x="133.5" y="-13" font-family="Helvetica,sans-Serif" font-size="10.00">model_bezier_write</text>
</a>
</g>
</g>
<!-- Node4&#45;&gt;Node5 -->
<g id="edge4" class="edge">
<title>Node4&#45;&gt;Node5</title>
<path fill="none" stroke="midnightblue" d="M215.7,-15.5C207.23,-15.5 198.61,-15.5 190.29,-15.5"/>
<polygon fill="midnightblue" stroke="midnightblue" points="215.92,-19 225.92,-15.5 215.92,-12 215.92,-19"/>
</g>
<!-- Node6 -->
<g id="node6" class="node">
<title>Node6</title>
<g id="a_node6"><a xlink:href="generator_8cpp.html#aee608aedd5b0b58f2966c2ff15101925" target="_top" xlink:title=" ">
<polygon fill="white" stroke="black" points="0,-6 0,-25 41,-25 41,-6 0,-6"/>
<text text-anchor="middle" x="20.5" y="-13" font-family="Helvetica,sans-Serif" font-size="10.00">main</text>
</a>
</g>
</g>
<!-- Node5&#45;&gt;Node6 -->
<g id="edge5" class="edge">
<title>Node5&#45;&gt;Node6</title>
<path fill="none" stroke="midnightblue" d="M66.58,-15.5C57.37,-15.5 48.56,-15.5 41.21,-15.5"/>
<polygon fill="midnightblue" stroke="midnightblue" points="66.67,-19 76.67,-15.5 66.67,-12 66.67,-19"/>
</g>
</g>
</svg>
