<?xml version="1.0" encoding="UTF-8" standalone="no"?>
<!DOCTYPE svg PUBLIC "-//W3C//DTD SVG 1.1//EN"
 "http://www.w3.org/Graphics/SVG/1.1/DTD/svg11.dtd">
<!-- Generated by graphviz version 3.0.0 (0)
 -->
<!-- Title: operations_load_xml Pages: 1 -->
<svg width="675pt" height="94pt"
 viewBox="0.00 0.00 675.00 93.50" xmlns="http://www.w3.org/2000/svg" xmlns:xlink="http://www.w3.org/1999/xlink">
<g id="graph0" class="graph" transform="scale(1 1) rotate(0) translate(4 89.5)">
<title>operations_load_xml</title>
<polygon fill="white" stroke="transparent" points="-4,4 -4,-89.5 671,-89.5 671,4 -4,4"/>
<!-- Node1 -->
<g id="node1" class="node">
<title>Node1</title>
<g id="a_node1"><a xlink:title=" ">
<polygon fill="#bfbfbf" stroke="black" points="0,-9 0,-28 119,-28 119,-9 0,-9"/>
<text text-anchor="middle" x="59.5" y="-16" font-family="Helvetica,sans-Serif" font-size="10.00">operations_load_xml</text>
</a>
</g>
</g>
<!-- Node2 -->
<g id="node2" class="node">
<title>Node2</title>
<g id="a_node2"><a xlink:href="group___groups.html#ga72c2d5ef943a89f829c08f6707e7669d" target="_top" xlink:title=" ">
<polygon fill="white" stroke="black" points="155,-28 155,-47 290,-47 290,-28 155,-28"/>
<text text-anchor="middle" x="222.5" y="-35" font-family="Helvetica,sans-Serif" font-size="10.00">operations_push_groups</text>
</a>
</g>
</g>
<!-- Node1&#45;&gt;Node2 -->
<g id="edge1" class="edge">
<title>Node1&#45;&gt;Node2</title>
<path fill="none" stroke="midnightblue" d="M119.08,-25.41C127.42,-26.4 136.09,-27.42 144.71,-28.44"/>
<polygon fill="midnightblue" stroke="midnightblue" points="144.44,-31.93 154.78,-29.63 145.26,-24.98 144.44,-31.93"/>
</g>
<!-- Node6 -->
<g id="node6" class="node">
<title>Node6</title>
<g id="a_node6"><a xlink:href="group___transforms.html#gaa15fe56d7980e7877845f3bc09125017" target="_top" xlink:title=" ">
<polygon fill="white" stroke="black" points="517,-0.5 517,-30.5 667,-30.5 667,-0.5 517,-0.5"/>
<text text-anchor="start" x="525" y="-18.5" font-family="Helvetica,sans-Serif" font-size="10.00">operations_push_transform</text>
<text text-anchor="middle" x="592" y="-7.5" font-family="Helvetica,sans-Serif" font-size="10.00">_attributes</text>
</a>
</g>
</g>
<!-- Node1&#45;&gt;Node6 -->
<g id="edge7" class="edge">
<title>Node1&#45;&gt;Node6</title>
<path fill="none" stroke="midnightblue" d="M119.04,-18.17C213.02,-17.64 397.95,-16.59 506.32,-15.98"/>
<polygon fill="midnightblue" stroke="midnightblue" points="506.58,-19.48 516.56,-15.92 506.54,-12.48 506.58,-19.48"/>
</g>
<!-- Node2&#45;&gt;Node2 -->
<g id="edge2" class="edge">
<title>Node2&#45;&gt;Node2</title>
<path fill="none" stroke="midnightblue" d="M197.53,-47.26C185.38,-56.07 193.71,-65.5 222.5,-65.5 241.85,-65.5 251.95,-61.24 252.81,-55.77"/>
<polygon fill="midnightblue" stroke="midnightblue" points="255.75,-53.87 247.47,-47.26 249.82,-57.59 255.75,-53.87"/>
</g>
<!-- Node3 -->
<g id="node3" class="node">
<title>Node3</title>
<g id="a_node3"><a xlink:href="group___models.html#gaca17d77a06e750f5cd95c1b79e1a8a30" target="_top" xlink:title=" ">
<polygon fill="white" stroke="black" points="334.5,-66 334.5,-85 472.5,-85 472.5,-66 334.5,-66"/>
<text text-anchor="middle" x="403.5" y="-73" font-family="Helvetica,sans-Serif" font-size="10.00">operations_push_models</text>
</a>
</g>
</g>
<!-- Node2&#45;&gt;Node3 -->
<g id="edge3" class="edge">
<title>Node2&#45;&gt;Node3</title>
<path fill="none" stroke="midnightblue" d="M268.67,-47.09C292.72,-52.19 322.47,-58.51 347.82,-63.89"/>
<polygon fill="midnightblue" stroke="midnightblue" points="347.15,-67.33 357.66,-65.98 348.6,-60.48 347.15,-67.33"/>
</g>
<!-- Node5 -->
<g id="node5" class="node">
<title>Node5</title>
<g id="a_node5"><a xlink:href="group___transforms.html#gaaa78b92f0257bb4755731622692de0cb" target="_top" xlink:title=" ">
<polygon fill="white" stroke="black" points="326,-28 326,-47 481,-47 481,-28 326,-28"/>
<text text-anchor="middle" x="403.5" y="-35" font-family="Helvetica,sans-Serif" font-size="10.00">operations_push_transforms</text>
</a>
</g>
</g>
<!-- Node2&#45;&gt;Node5 -->
<g id="edge5" class="edge">
<title>Node2&#45;&gt;Node5</title>
<path fill="none" stroke="midnightblue" d="M290.15,-37.5C298.51,-37.5 307.16,-37.5 315.77,-37.5"/>
<polygon fill="midnightblue" stroke="midnightblue" points="315.84,-41 325.84,-37.5 315.84,-34 315.84,-41"/>
</g>
<!-- Node4 -->
<g id="node4" class="node">
<title>Node4</title>
<g id="a_node4"><a xlink:href="group___models.html#ga5dc84f3f40c0bb6ad63dc2da3793ddd9" target="_top" xlink:title=" ">
<polygon fill="white" stroke="black" points="525.5,-66 525.5,-85 658.5,-85 658.5,-66 525.5,-66"/>
<text text-anchor="middle" x="592" y="-73" font-family="Helvetica,sans-Serif" font-size="10.00">operations_push_model</text>
</a>
</g>
</g>
<!-- Node3&#45;&gt;Node4 -->
<g id="edge4" class="edge">
<title>Node3&#45;&gt;Node4</title>
<path fill="none" stroke="midnightblue" d="M472.62,-75.5C486.44,-75.5 501.05,-75.5 515.11,-75.5"/>
<polygon fill="midnightblue" stroke="midnightblue" points="515.24,-79 525.24,-75.5 515.24,-72 515.24,-79"/>
</g>
<!-- Node5&#45;&gt;Node6 -->
<g id="edge6" class="edge">
<title>Node5&#45;&gt;Node6</title>
<path fill="none" stroke="midnightblue" d="M481.16,-28.46C489.61,-27.46 498.25,-26.44 506.78,-25.43"/>
<polygon fill="midnightblue" stroke="midnightblue" points="507.22,-28.91 516.74,-24.26 506.4,-21.96 507.22,-28.91"/>
</g>
</g>
</svg>
