<?xml version="1.0" encoding="UTF-8" standalone="no"?>
<!DOCTYPE svg PUBLIC "-//W3C//DTD SVG 1.1//EN"
 "http://www.w3.org/Graphics/SVG/1.1/DTD/svg11.dtd">
<!-- Generated by graphviz version 3.0.0 (0)
 -->
<!-- Title: renderScene Pages: 1 -->
<svg width="849pt" height="268pt"
 viewBox="0.00 0.00 849.00 268.00" xmlns="http://www.w3.org/2000/svg" xmlns:xlink="http://www.w3.org/1999/xlink">
<g id="graph0" class="graph" transform="scale(1 1) rotate(0) translate(4 264)">
<title>renderScene</title>
<polygon fill="white" stroke="transparent" points="-4,4 -4,-264 845,-264 845,4 -4,4"/>
<!-- Node1 -->
<g id="node1" class="node">
<title>Node1</title>
<g id="a_node1"><a xlink:title=" ">
<polygon fill="#bfbfbf" stroke="black" points="0,-139.5 0,-158.5 77,-158.5 77,-139.5 0,-139.5"/>
<text text-anchor="middle" x="38.5" y="-146.5" font-family="Helvetica,sans-Serif" font-size="10.00">renderScene</text>
</a>
</g>
</g>
<!-- Node2 -->
<g id="node2" class="node">
<title>Node2</title>
<g id="a_node2"><a xlink:href="group__camera.html#ga4eec7d736381fd000f84ccb4f2d844da" target="_top" xlink:title=" ">
<polygon fill="white" stroke="black" points="131,-158.5 131,-177.5 200,-177.5 200,-158.5 131,-158.5"/>
<text text-anchor="middle" x="165.5" y="-165.5" font-family="Helvetica,sans-Serif" font-size="10.00">loadProfile</text>
</a>
</g>
</g>
<!-- Node1&#45;&gt;Node2 -->
<g id="edge1" class="edge">
<title>Node1&#45;&gt;Node2</title>
<path fill="none" stroke="midnightblue" d="M77,-154.7C90.78,-156.79 106.49,-159.18 120.76,-161.35"/>
<polygon fill="midnightblue" stroke="midnightblue" points="120.44,-164.84 130.85,-162.89 121.49,-157.92 120.44,-164.84"/>
</g>
<!-- Node3 -->
<g id="node3" class="node">
<title>Node3</title>
<g id="a_node3"><a xlink:href="group___operations.html#ga8d5a19a3522cea1b4254684cf6515d13" target="_top" xlink:title=" ">
<polygon fill="white" stroke="black" points="113,-120.5 113,-139.5 218,-139.5 218,-120.5 113,-120.5"/>
<text text-anchor="middle" x="165.5" y="-127.5" font-family="Helvetica,sans-Serif" font-size="10.00">operations_render</text>
</a>
</g>
</g>
<!-- Node1&#45;&gt;Node3 -->
<g id="edge2" class="edge">
<title>Node1&#45;&gt;Node3</title>
<path fill="none" stroke="midnightblue" d="M77,-143.3C85.16,-142.06 93.99,-140.72 102.79,-139.38"/>
<polygon fill="midnightblue" stroke="midnightblue" points="103.33,-142.84 112.69,-137.87 102.28,-135.92 103.33,-142.84"/>
</g>
<!-- Node4 -->
<g id="node4" class="node">
<title>Node4</title>
<g id="a_node4"><a xlink:href="curves_8cpp.html#a821c8cbf0a47b918c60a4912b733e6bd" target="_top" xlink:title=" ">
<polygon fill="white" stroke="black" points="260,-240.5 260,-259.5 364,-259.5 364,-240.5 260,-240.5"/>
<text text-anchor="middle" x="312" y="-247.5" font-family="Helvetica,sans-Serif" font-size="10.00">advance_in_curve</text>
</a>
</g>
</g>
<!-- Node3&#45;&gt;Node4 -->
<g id="edge3" class="edge">
<title>Node3&#45;&gt;Node4</title>
<path fill="none" stroke="midnightblue" d="M203.78,-139.59C208.96,-142.06 213.91,-145.15 218,-149 246.98,-176.28 224.59,-204.18 254,-231 255.72,-232.57 257.58,-234.01 259.53,-235.33"/>
<polygon fill="midnightblue" stroke="midnightblue" points="258.17,-238.58 268.6,-240.4 261.58,-232.47 258.17,-238.58"/>
</g>
<!-- Node9 -->
<g id="node9" class="node">
<title>Node9</title>
<g id="a_node9"><a xlink:href="engine_8cpp.html#a072c434cfd125e58ac1cec9a5725688a" target="_top" xlink:title=" ">
<polygon fill="white" stroke="black" points="254,-202.5 254,-221.5 370,-221.5 370,-202.5 254,-202.5"/>
<text text-anchor="middle" x="312" y="-209.5" font-family="Helvetica,sans-Serif" font-size="10.00">advance_in_rotation</text>
</a>
</g>
</g>
<!-- Node3&#45;&gt;Node9 -->
<g id="edge8" class="edge">
<title>Node3&#45;&gt;Node9</title>
<path fill="none" stroke="midnightblue" d="M200.49,-139.6C206.62,-142.13 212.72,-145.24 218,-149 238.58,-163.67 233.2,-178.66 254,-193 256.88,-194.98 259.98,-196.77 263.2,-198.39"/>
<polygon fill="midnightblue" stroke="midnightblue" points="261.92,-201.65 272.48,-202.48 264.74,-195.24 261.92,-201.65"/>
</g>
<!-- Node10 -->
<g id="node10" class="node">
<title>Node10</title>
<g id="a_node10"><a xlink:href="group__model_engine.html#ga361bcac2814bb93f543d2c0f1b28b6d2" target="_top" xlink:title=" ">
<polygon fill="white" stroke="black" points="277,-164.5 277,-183.5 347,-183.5 347,-164.5 277,-164.5"/>
<text text-anchor="middle" x="312" y="-171.5" font-family="Helvetica,sans-Serif" font-size="10.00">allocModel</text>
</a>
</g>
</g>
<!-- Node3&#45;&gt;Node10 -->
<g id="edge9" class="edge">
<title>Node3&#45;&gt;Node10</title>
<path fill="none" stroke="midnightblue" d="M197.85,-139.55C218.97,-145.98 247.03,-154.52 269.92,-161.49"/>
<polygon fill="midnightblue" stroke="midnightblue" points="269.12,-164.91 279.71,-164.47 271.16,-158.21 269.12,-164.91"/>
</g>
<!-- Node11 -->
<g id="node11" class="node">
<title>Node11</title>
<g id="a_node11"><a xlink:href="group__model_engine.html#ga8c7329ae859a08eea53a77130ebe6018" target="_top" xlink:title=" ">
<polygon fill="white" stroke="black" points="254.5,-115 254.5,-145 369.5,-145 369.5,-115 254.5,-115"/>
<text text-anchor="start" x="262.5" y="-133" font-family="Helvetica,sans-Serif" font-size="10.00">associate_a_texture</text>
<text text-anchor="middle" x="312" y="-122" font-family="Helvetica,sans-Serif" font-size="10.00">_to_model</text>
</a>
</g>
</g>
<!-- Node3&#45;&gt;Node11 -->
<g id="edge10" class="edge">
<title>Node3&#45;&gt;Node11</title>
<path fill="none" stroke="midnightblue" d="M218.26,-130C226.64,-130 235.42,-130 244.1,-130"/>
<polygon fill="midnightblue" stroke="midnightblue" points="244.21,-133.5 254.21,-130 244.21,-126.5 244.21,-133.5"/>
</g>
<!-- Node12 -->
<g id="node12" class="node">
<title>Node12</title>
<g id="a_node12"><a xlink:href="group__explorer_camera.html#gabd434f65cba3ee8011b8d3cdd1f25dca" target="_top" xlink:title=" ">
<polygon fill="white" stroke="black" points="255.5,-76.5 255.5,-95.5 368.5,-95.5 368.5,-76.5 255.5,-76.5"/>
<text text-anchor="middle" x="312" y="-83.5" font-family="Helvetica,sans-Serif" font-size="10.00">cartesian2Spherical</text>
</a>
</g>
</g>
<!-- Node3&#45;&gt;Node12 -->
<g id="edge11" class="edge">
<title>Node3&#45;&gt;Node12</title>
<path fill="none" stroke="midnightblue" d="M197.85,-120.45C218.97,-114.02 247.03,-105.48 269.92,-98.51"/>
<polygon fill="midnightblue" stroke="midnightblue" points="271.16,-101.79 279.71,-95.53 269.12,-95.09 271.16,-101.79"/>
</g>
<!-- Node13 -->
<g id="node13" class="node">
<title>Node13</title>
<g id="a_node13"><a xlink:href="curves_8cpp.html#ad812fc50a0384335487e258a6f61714e" target="_top" xlink:title=" ">
<polygon fill="white" stroke="black" points="429,-120.5 429,-139.5 506,-139.5 506,-120.5 429,-120.5"/>
<text text-anchor="middle" x="467.5" y="-127.5" font-family="Helvetica,sans-Serif" font-size="10.00">renderCurve</text>
</a>
</g>
</g>
<!-- Node3&#45;&gt;Node13 -->
<g id="edge12" class="edge">
<title>Node3&#45;&gt;Node13</title>
<path fill="none" stroke="midnightblue" d="M175.59,-120.36C190.36,-105.49 221.22,-77.57 254,-67 303.07,-51.17 320.59,-52.3 370,-67 400.32,-76.02 430,-97.93 448.27,-113.37"/>
<polygon fill="midnightblue" stroke="midnightblue" points="446.43,-116.41 456.27,-120.34 451.03,-111.14 446.43,-116.41"/>
</g>
<!-- Node14 -->
<g id="node14" class="node">
<title>Node14</title>
<g id="a_node14"><a xlink:href="group__model_engine.html#ga2907e4adf4f2bef2c8ce416cb8470997" target="_top" xlink:title=" ">
<polygon fill="white" stroke="black" points="273,-0.5 273,-19.5 351,-19.5 351,-0.5 273,-0.5"/>
<text text-anchor="middle" x="312" y="-7.5" font-family="Helvetica,sans-Serif" font-size="10.00">renderModel</text>
</a>
</g>
</g>
<!-- Node3&#45;&gt;Node14 -->
<g id="edge14" class="edge">
<title>Node3&#45;&gt;Node14</title>
<path fill="none" stroke="midnightblue" d="M173.12,-120.28C186.44,-101.36 218.27,-59.24 254,-34 259.6,-30.05 265.95,-26.57 272.33,-23.58"/>
<polygon fill="midnightblue" stroke="midnightblue" points="273.83,-26.75 281.61,-19.55 271.04,-20.32 273.83,-26.75"/>
</g>
<!-- Node5 -->
<g id="node5" class="node">
<title>Node5</title>
<g id="a_node5"><a xlink:href="curves_8cpp.html#a98b26a4263f61db7149441a99a6d35b6" target="_top" xlink:title=" ">
<polygon fill="white" stroke="black" points="406,-199.5 406,-218.5 529,-218.5 529,-199.5 406,-199.5"/>
<text text-anchor="middle" x="467.5" y="-206.5" font-family="Helvetica,sans-Serif" font-size="10.00">align_global_pos_mat</text>
</a>
</g>
</g>
<!-- Node4&#45;&gt;Node5 -->
<g id="edge4" class="edge">
<title>Node4&#45;&gt;Node5</title>
<path fill="none" stroke="midnightblue" d="M348.6,-240.49C370.13,-234.74 397.78,-227.35 420.9,-221.18"/>
<polygon fill="midnightblue" stroke="midnightblue" points="422.07,-224.49 430.83,-218.53 420.26,-217.73 422.07,-224.49"/>
</g>
<!-- Node6 -->
<g id="node6" class="node">
<title>Node6</title>
<g id="a_node6"><a xlink:href="curves_8cpp.html#abe9fa1f2a311f275f92f5b46fb2f8490" target="_top" xlink:title=" ">
<polygon fill="white" stroke="black" points="565,-139.5 565,-158.5 695,-158.5 695,-139.5 565,-139.5"/>
<text text-anchor="middle" x="630" y="-146.5" font-family="Helvetica,sans-Serif" font-size="10.00">get_curve_global_point</text>
</a>
</g>
</g>
<!-- Node5&#45;&gt;Node6 -->
<g id="edge5" class="edge">
<title>Node5&#45;&gt;Node6</title>
<path fill="none" stroke="midnightblue" d="M493.93,-199.49C520.85,-189.43 563.54,-173.47 593.71,-162.19"/>
<polygon fill="midnightblue" stroke="midnightblue" points="595.28,-165.34 603.42,-158.56 592.83,-158.79 595.28,-165.34"/>
</g>
<!-- Node7 -->
<g id="node7" class="node">
<title>Node7</title>
<g id="a_node7"><a xlink:href="curves_8cpp.html#afa648d7de8c941b50b26f02755a955b9" target="_top" xlink:title=" ">
<polygon fill="white" stroke="black" points="741.5,-158.5 741.5,-177.5 830.5,-177.5 830.5,-158.5 741.5,-158.5"/>
<text text-anchor="middle" x="786" y="-165.5" font-family="Helvetica,sans-Serif" font-size="10.00">get_curve_info</text>
</a>
</g>
</g>
<!-- Node6&#45;&gt;Node7 -->
<g id="edge6" class="edge">
<title>Node6&#45;&gt;Node7</title>
<path fill="none" stroke="midnightblue" d="M695.42,-156.95C707.4,-158.43 719.8,-159.96 731.42,-161.39"/>
<polygon fill="midnightblue" stroke="midnightblue" points="731.04,-164.87 741.4,-162.62 731.9,-157.92 731.04,-164.87"/>
</g>
<!-- Node8 -->
<g id="node8" class="node">
<title>Node8</title>
<g id="a_node8"><a xlink:href="curves_8cpp.html#a6d6def6a76701b08284cba58066e3382" target="_top" xlink:title=" ">
<polygon fill="white" stroke="black" points="731,-120.5 731,-139.5 841,-139.5 841,-120.5 731,-120.5"/>
<text text-anchor="middle" x="786" y="-127.5" font-family="Helvetica,sans-Serif" font-size="10.00">get_curve_point_at</text>
</a>
</g>
</g>
<!-- Node6&#45;&gt;Node8 -->
<g id="edge7" class="edge">
<title>Node6&#45;&gt;Node8</title>
<path fill="none" stroke="midnightblue" d="M695.42,-141.05C703.74,-140.03 712.26,-138.97 720.58,-137.95"/>
<polygon fill="midnightblue" stroke="midnightblue" points="721.11,-141.41 730.6,-136.71 720.25,-134.46 721.11,-141.41"/>
</g>
<!-- Node13&#45;&gt;Node6 -->
<g id="edge13" class="edge">
<title>Node13&#45;&gt;Node6</title>
<path fill="none" stroke="midnightblue" d="M506.13,-134.45C520.63,-136.17 537.75,-138.2 554.53,-140.18"/>
<polygon fill="midnightblue" stroke="midnightblue" points="554.56,-143.71 564.91,-141.41 555.39,-136.76 554.56,-143.71"/>
</g>
</g>
</svg>
