<?xml version="1.0" encoding="UTF-8" standalone="no"?>
<!DOCTYPE svg PUBLIC "-//W3C//DTD SVG 1.1//EN"
 "http://www.w3.org/Graphics/SVG/1.1/DTD/svg11.dtd">
<!-- Generated by graphviz version 3.0.0 (0)
 -->
<!-- Title: main Pages: 1 -->
<!--zoomable 284 -->
<svg id="main" version="1.1" xmlns="http://www.w3.org/2000/svg" xmlns:xlink="http://www.w3.org/1999/xlink" xml:space="preserve" onload="init(evt)">
<style type="text/css"><![CDATA[
.edge:hover path { stroke: red; }
.edge:hover polygon { stroke: red; fill: red; }
]]></style>
<script type="text/javascript"><![CDATA[
var edges = document.getElementsByTagName('g');
if (edges && edges.length) {
  for (var i=0;i<edges.length;i++) {
    if (edges[i].id.substr(0,4)=='edge') {
      edges[i].setAttribute('class','edge');
    }
  }
}
]]></script>
        <defs>
                <circle id="rim" cx="0" cy="0" r="7"/>
                <circle id="rim2" cx="0" cy="0" r="3.5"/>
                <g id="zoomPlus">
                        <use xlink:href="#rim" fill="#404040">
                                <set attributeName="fill" to="#808080" begin="zoomplus.mouseover" end="zoomplus.mouseout"/>
                        </use>
                        <path d="M-4,0h8M0,-4v8" fill="none" stroke="white" stroke-width="1.5" pointer-events="none"/>
                </g>
                <g id="zoomMin">
                        <use xlink:href="#rim" fill="#404040">
                                <set attributeName="fill" to="#808080" begin="zoomminus.mouseover" end="zoomminus.mouseout"/>
                        </use>
                        <path d="M-4,0h8" fill="none" stroke="white" stroke-width="1.5" pointer-events="none"/>
                </g>
                <g id="dirArrow">
                        <path fill="none" stroke="white" stroke-width="1.5" d="M0,-3.0v7 M-2.5,-0.5L0,-3.0L2.5,-0.5"/>
                </g>
               <g id="resetDef">
                       <use xlink:href="#rim2" fill="#404040">
                               <set attributeName="fill" to="#808080" begin="reset.mouseover" end="reset.mouseout"/>
                       </use>
               </g>
        </defs>

<script type="text/javascript">
var viewWidth = 1023;
var viewHeight = 284;
var sectionId = 'dynsection-5';
</script>
<script xlink:href="svgpan.js"/>
<svg id="graph" class="graph">
<g id="viewport">
<title>main</title>
<polygon fill="white" stroke="transparent" points="-4,4 -4,-280 1019,-280 1019,4 -4,4"/>
<!-- Node1 -->
<g id="node1" class="node">
<title>Node1</title>
<g id="a_node1"><a xlink:title=" ">
<polygon fill="#bfbfbf" stroke="black" points="0,-161.5 0,-180.5 41,-180.5 41,-161.5 0,-161.5"/>
<text text-anchor="middle" x="20.5" y="-168.5" font-family="Helvetica,sans-Serif" font-size="10.00">main</text>
</a>
</g>
</g>
<!-- Node2 -->
<g id="node2" class="node">
<title>Node2</title>
<g id="a_node2"><a xlink:href="group__engine.html#ga98eaf946471acbd931de5d52ca83b3d1" target="_top" xlink:title=" ">
<polygon fill="white" stroke="black" points="77,-161.5 77,-180.5 148,-180.5 148,-161.5 77,-161.5"/>
<text text-anchor="middle" x="112.5" y="-168.5" font-family="Helvetica,sans-Serif" font-size="10.00">engine_run</text>
</a>
</g>
</g>
<!-- Node1&#45;&gt;Node2 -->
<g id="edge1" class="edge">
<title>Node1&#45;&gt;Node2</title>
<path fill="none" stroke="midnightblue" d="M41.03,-171C48.62,-171 57.64,-171 66.66,-171"/>
<polygon fill="midnightblue" stroke="midnightblue" points="66.77,-174.5 76.77,-171 66.77,-167.5 66.77,-174.5"/>
</g>
<!-- Node3 -->
<g id="node3" class="node">
<title>Node3</title>
<g id="a_node3"><a xlink:href="group__engine.html#ga33e20b37682a0492a9e95d13bef17f02" target="_top" xlink:title=" ">
<polygon fill="white" stroke="black" points="212,-256.5 212,-275.5 284,-275.5 284,-256.5 212,-256.5"/>
<text text-anchor="middle" x="248" y="-263.5" font-family="Helvetica,sans-Serif" font-size="10.00">changeSize</text>
</a>
</g>
</g>
<!-- Node2&#45;&gt;Node3 -->
<g id="edge2" class="edge">
<title>Node2&#45;&gt;Node3</title>
<path fill="none" stroke="midnightblue" d="M119.88,-180.7C130.99,-196.84 155.45,-229.18 184,-247 189.53,-250.45 195.73,-253.31 202.02,-255.67"/>
<polygon fill="midnightblue" stroke="midnightblue" points="201.31,-259.12 211.91,-258.97 203.53,-252.48 201.31,-259.12"/>
</g>
<!-- Node4 -->
<g id="node4" class="node">
<title>Node4</title>
<g id="a_node4"><a xlink:href="group__input.html#gac7632fff72011e8c11ae504a4596a7f7" target="_top" xlink:title=" ">
<polygon fill="white" stroke="black" points="206,-142.5 206,-161.5 290,-161.5 290,-142.5 206,-142.5"/>
<text text-anchor="middle" x="248" y="-149.5" font-family="Helvetica,sans-Serif" font-size="10.00">keyboardFunc</text>
</a>
</g>
</g>
<!-- Node2&#45;&gt;Node4 -->
<g id="edge3" class="edge">
<title>Node2&#45;&gt;Node4</title>
<path fill="none" stroke="midnightblue" d="M148.23,-166.06C162.68,-164 179.75,-161.57 195.6,-159.32"/>
<polygon fill="midnightblue" stroke="midnightblue" points="196.4,-162.74 205.8,-157.86 195.41,-155.81 196.4,-162.74"/>
</g>
<!-- Node8 -->
<g id="node8" class="node">
<title>Node8</title>
<g id="a_node8"><a xlink:href="group__input.html#ga2bebb17428cb218231ad556de2a20ed6" target="_top" xlink:title=" ">
<polygon fill="white" stroke="black" points="211,-218.5 211,-237.5 285,-237.5 285,-218.5 211,-218.5"/>
<text text-anchor="middle" x="248" y="-225.5" font-family="Helvetica,sans-Serif" font-size="10.00">motionFunc</text>
</a>
</g>
</g>
<!-- Node2&#45;&gt;Node8 -->
<g id="edge7" class="edge">
<title>Node2&#45;&gt;Node8</title>
<path fill="none" stroke="midnightblue" d="M129.01,-180.54C143.01,-188.86 164.35,-200.84 184,-209 189.47,-211.27 195.32,-213.41 201.16,-215.36"/>
<polygon fill="midnightblue" stroke="midnightblue" points="200.32,-218.77 210.91,-218.48 202.45,-212.1 200.32,-218.77"/>
</g>
<!-- Node9 -->
<g id="node9" class="node">
<title>Node9</title>
<g id="a_node9"><a xlink:href="group__input.html#gad48076b61c0ddb6bd4fadf644bf59ff1" target="_top" xlink:title=" ">
<polygon fill="white" stroke="black" points="212,-180.5 212,-199.5 284,-199.5 284,-180.5 212,-180.5"/>
<text text-anchor="middle" x="248" y="-187.5" font-family="Helvetica,sans-Serif" font-size="10.00">mouseFunc</text>
</a>
</g>
</g>
<!-- Node2&#45;&gt;Node9 -->
<g id="edge9" class="edge">
<title>Node2&#45;&gt;Node9</title>
<path fill="none" stroke="midnightblue" d="M148.23,-175.94C164.63,-178.28 184.42,-181.09 201.96,-183.59"/>
<polygon fill="midnightblue" stroke="midnightblue" points="201.59,-187.07 211.98,-185.02 202.58,-180.14 201.59,-187.07"/>
</g>
<!-- Node11 -->
<g id="node11" class="node">
<title>Node11</title>
<g id="a_node11"><a xlink:href="group__engine.html#ga91c42686f3245f22fb6b17ba5372d92c" target="_top" xlink:title=" ">
<polygon fill="white" stroke="black" points="209.5,-66.5 209.5,-85.5 286.5,-85.5 286.5,-66.5 209.5,-66.5"/>
<text text-anchor="middle" x="248" y="-73.5" font-family="Helvetica,sans-Serif" font-size="10.00">renderScene</text>
</a>
</g>
</g>
<!-- Node2&#45;&gt;Node11 -->
<g id="edge12" class="edge">
<title>Node2&#45;&gt;Node11</title>
<path fill="none" stroke="midnightblue" d="M119.88,-161.3C130.99,-145.16 155.45,-112.82 184,-95 188.79,-92.01 194.07,-89.47 199.48,-87.32"/>
<polygon fill="midnightblue" stroke="midnightblue" points="201.02,-90.48 209.28,-83.84 198.68,-83.89 201.02,-90.48"/>
</g>
<!-- Node16 -->
<g id="node16" class="node">
<title>Node16</title>
<g id="a_node16"><a xlink:href="group__engine.html#ga2b6a8884687b3fe271b099a450a82d24" target="_top" xlink:title=" ">
<polygon fill="white" stroke="black" points="184,-104.5 184,-123.5 312,-123.5 312,-104.5 184,-104.5"/>
<text text-anchor="middle" x="248" y="-111.5" font-family="Helvetica,sans-Serif" font-size="10.00">xml_load_and_set_env</text>
</a>
</g>
</g>
<!-- Node2&#45;&gt;Node16 -->
<g id="edge18" class="edge">
<title>Node2&#45;&gt;Node16</title>
<path fill="none" stroke="midnightblue" d="M129.01,-161.46C143.01,-153.14 164.35,-141.16 184,-133 189.47,-130.73 195.32,-128.59 201.16,-126.64"/>
<polygon fill="midnightblue" stroke="midnightblue" points="202.45,-129.9 210.91,-123.52 200.32,-123.23 202.45,-129.9"/>
</g>
<!-- Node5 -->
<g id="node5" class="node">
<title>Node5</title>
<g id="a_node5"><a xlink:href="group__engine.html#ga8679d9b303f36964bf51dba0993caeaa" target="_top" xlink:title=" ">
<polygon fill="white" stroke="black" points="354.5,-142.5 354.5,-161.5 460.5,-161.5 460.5,-142.5 354.5,-142.5"/>
<text text-anchor="middle" x="407.5" y="-149.5" font-family="Helvetica,sans-Serif" font-size="10.00">env_load_defaults</text>
</a>
</g>
</g>
<!-- Node4&#45;&gt;Node5 -->
<g id="edge4" class="edge">
<title>Node4&#45;&gt;Node5</title>
<path fill="none" stroke="midnightblue" d="M290.38,-152C306.84,-152 326.13,-152 344.21,-152"/>
<polygon fill="midnightblue" stroke="midnightblue" points="344.39,-155.5 354.39,-152 344.39,-148.5 344.39,-155.5"/>
</g>
<!-- Node6 -->
<g id="node6" class="node">
<title>Node6</title>
<g id="a_node6"><a xlink:href="group__engine.html#gab9813926390dc5773baf0b20dc2ea16e" target="_top" xlink:title=" ">
<polygon fill="white" stroke="black" points="376.5,-218.5 376.5,-237.5 438.5,-237.5 438.5,-218.5 376.5,-218.5"/>
<text text-anchor="middle" x="407.5" y="-225.5" font-family="Helvetica,sans-Serif" font-size="10.00">redisplay</text>
</a>
</g>
</g>
<!-- Node4&#45;&gt;Node6 -->
<g id="edge5" class="edge">
<title>Node4&#45;&gt;Node6</title>
<path fill="none" stroke="midnightblue" d="M286.21,-161.54C294.83,-164.21 303.86,-167.38 312,-171 338.18,-182.63 366.02,-200.12 384.65,-212.66"/>
<polygon fill="midnightblue" stroke="midnightblue" points="382.77,-215.61 393,-218.37 386.72,-209.83 382.77,-215.61"/>
</g>
<!-- Node7 -->
<g id="node7" class="node">
<title>Node7</title>
<g id="a_node7"><a xlink:href="group__spherical.html#gab5ff5216bffd1e15798677f24213213d" target="_top" xlink:title=" ">
<polygon fill="white" stroke="black" points="514,-218.5 514,-237.5 627,-237.5 627,-218.5 514,-218.5"/>
<text text-anchor="middle" x="570.5" y="-225.5" font-family="Helvetica,sans-Serif" font-size="10.00">spherical2Cartesian</text>
</a>
</g>
</g>
<!-- Node6&#45;&gt;Node7 -->
<g id="edge6" class="edge">
<title>Node6&#45;&gt;Node7</title>
<path fill="none" stroke="midnightblue" d="M438.78,-228C457.11,-228 481.22,-228 503.73,-228"/>
<polygon fill="midnightblue" stroke="midnightblue" points="503.94,-231.5 513.94,-228 503.94,-224.5 503.94,-231.5"/>
</g>
<!-- Node8&#45;&gt;Node6 -->
<g id="edge8" class="edge">
<title>Node8&#45;&gt;Node6</title>
<path fill="none" stroke="midnightblue" d="M285.13,-228C309.29,-228 341.11,-228 366.1,-228"/>
<polygon fill="midnightblue" stroke="midnightblue" points="366.35,-231.5 376.35,-228 366.35,-224.5 366.35,-231.5"/>
</g>
<!-- Node9&#45;&gt;Node6 -->
<g id="edge11" class="edge">
<title>Node9&#45;&gt;Node6</title>
<path fill="none" stroke="midnightblue" d="M284.35,-198.53C308.66,-204.39 341,-212.2 366.29,-218.3"/>
<polygon fill="midnightblue" stroke="midnightblue" points="365.77,-221.77 376.31,-220.72 367.41,-214.97 365.77,-221.77"/>
</g>
<!-- Node10 -->
<g id="node10" class="node">
<title>Node10</title>
<g id="a_node10"><a xlink:href="group__spherical.html#ga2a22d15f7463ccd8f8d1aa65e7578983" target="_top" xlink:title=" ">
<polygon fill="white" stroke="black" points="514,-76.5 514,-95.5 627,-95.5 627,-76.5 514,-76.5"/>
<text text-anchor="middle" x="570.5" y="-83.5" font-family="Helvetica,sans-Serif" font-size="10.00">cartesian2Spherical</text>
</a>
</g>
</g>
<!-- Node9&#45;&gt;Node10 -->
<g id="edge10" class="edge">
<title>Node9&#45;&gt;Node10</title>
<path fill="none" stroke="midnightblue" d="M284.1,-193.2C328.47,-195.87 406.38,-195.89 467,-171 471.89,-168.99 522.14,-126.45 550.42,-102.33"/>
<polygon fill="midnightblue" stroke="midnightblue" points="552.75,-104.93 558.08,-95.78 548.21,-99.61 552.75,-104.93"/>
</g>
<!-- Node12 -->
<g id="node12" class="node">
<title>Node12</title>
<g id="a_node12"><a xlink:href="engine_8cpp.html#a634dba686e70e7ff3f10c37d11f463da" target="_top" xlink:title=" ">
<polygon fill="white" stroke="black" points="373,-28.5 373,-47.5 442,-47.5 442,-28.5 373,-28.5"/>
<text text-anchor="middle" x="407.5" y="-35.5" font-family="Helvetica,sans-Serif" font-size="10.00">draw_axes</text>
</a>
</g>
</g>
<!-- Node11&#45;&gt;Node12 -->
<g id="edge13" class="edge">
<title>Node11&#45;&gt;Node12</title>
<path fill="none" stroke="midnightblue" d="M286.73,-66.9C309.66,-61.36 339.03,-54.28 362.95,-48.51"/>
<polygon fill="midnightblue" stroke="midnightblue" points="363.93,-51.87 372.83,-46.12 362.29,-45.07 363.93,-51.87"/>
</g>
<!-- Node13 -->
<g id="node13" class="node">
<title>Node13</title>
<g id="a_node13"><a xlink:href="group___operations.html#ga887f20c10a27832ea24178203a47fcc2" target="_top" xlink:title=" ">
<polygon fill="white" stroke="black" points="355,-66.5 355,-85.5 460,-85.5 460,-66.5 355,-66.5"/>
<text text-anchor="middle" x="407.5" y="-73.5" font-family="Helvetica,sans-Serif" font-size="10.00">operations_render</text>
</a>
</g>
</g>
<!-- Node11&#45;&gt;Node13 -->
<g id="edge14" class="edge">
<title>Node11&#45;&gt;Node13</title>
<path fill="none" stroke="midnightblue" d="M286.73,-76C304.08,-76 325.13,-76 344.71,-76"/>
<polygon fill="midnightblue" stroke="midnightblue" points="344.79,-79.5 354.79,-76 344.79,-72.5 344.79,-79.5"/>
</g>
<!-- Node13&#45;&gt;Node10 -->
<g id="edge16" class="edge">
<title>Node13&#45;&gt;Node10</title>
<path fill="none" stroke="midnightblue" d="M460.33,-79.22C474.09,-80.07 489.13,-81.01 503.53,-81.9"/>
<polygon fill="midnightblue" stroke="midnightblue" points="503.68,-85.42 513.88,-82.55 504.11,-78.43 503.68,-85.42"/>
</g>
<!-- Node14 -->
<g id="node14" class="node">
<title>Node14</title>
<g id="a_node14"><a xlink:href="group__model_engine.html#ga56beba311d0a6fcbda9aeb516fe67f8f" target="_top" xlink:title=" ">
<polygon fill="white" stroke="black" points="535.5,-38.5 535.5,-57.5 605.5,-57.5 605.5,-38.5 535.5,-38.5"/>
<text text-anchor="middle" x="570.5" y="-45.5" font-family="Helvetica,sans-Serif" font-size="10.00">allocModel</text>
</a>
</g>
</g>
<!-- Node13&#45;&gt;Node14 -->
<g id="edge15" class="edge">
<title>Node13&#45;&gt;Node14</title>
<path fill="none" stroke="midnightblue" d="M460.33,-66.99C481.15,-63.37 504.92,-59.23 524.95,-55.75"/>
<polygon fill="midnightblue" stroke="midnightblue" points="525.79,-59.15 535.04,-53.99 524.59,-52.26 525.79,-59.15"/>
</g>
<!-- Node15 -->
<g id="node15" class="node">
<title>Node15</title>
<g id="a_node15"><a xlink:href="group__model_engine.html#ga9b0aa26dead35aab4fa6be0709998046" target="_top" xlink:title=" ">
<polygon fill="white" stroke="black" points="531.5,-0.5 531.5,-19.5 609.5,-19.5 609.5,-0.5 531.5,-0.5"/>
<text text-anchor="middle" x="570.5" y="-7.5" font-family="Helvetica,sans-Serif" font-size="10.00">renderModel</text>
</a>
</g>
</g>
<!-- Node13&#45;&gt;Node15 -->
<g id="edge17" class="edge">
<title>Node13&#45;&gt;Node15</title>
<path fill="none" stroke="midnightblue" d="M444.58,-66.46C452.19,-63.85 460.02,-60.7 467,-57 484.91,-47.5 484.93,-38.17 503,-29 508.76,-26.08 515.04,-23.54 521.36,-21.36"/>
<polygon fill="midnightblue" stroke="midnightblue" points="522.79,-24.58 531.27,-18.22 520.68,-17.91 522.79,-24.58"/>
</g>
<!-- Node16&#45;&gt;Node5 -->
<g id="edge19" class="edge">
<title>Node16&#45;&gt;Node5</title>
<path fill="none" stroke="midnightblue" d="M288.74,-123.59C309.53,-128.6 335.16,-134.79 357.2,-140.11"/>
<polygon fill="midnightblue" stroke="midnightblue" points="356.5,-143.54 367.04,-142.48 358.14,-136.73 356.5,-143.54"/>
</g>
<!-- Node16&#45;&gt;Node13 -->
<g id="edge28" class="edge">
<title>Node16&#45;&gt;Node13</title>
<path fill="none" stroke="midnightblue" d="M288.74,-104.41C309.53,-99.4 335.16,-93.21 357.2,-87.89"/>
<polygon fill="midnightblue" stroke="midnightblue" points="358.14,-91.27 367.04,-85.52 356.5,-84.46 358.14,-91.27"/>
</g>
<!-- Node17 -->
<g id="node17" class="node">
<title>Node17</title>
<g id="a_node17"><a xlink:href="group__xml.html#gac937a83a82258806ef77b02f97ef0834" target="_top" xlink:title=" ">
<polygon fill="white" stroke="black" points="348,-104.5 348,-123.5 467,-123.5 467,-104.5 348,-104.5"/>
<text text-anchor="middle" x="407.5" y="-111.5" font-family="Helvetica,sans-Serif" font-size="10.00">operations_load_xml</text>
</a>
</g>
</g>
<!-- Node16&#45;&gt;Node17 -->
<g id="edge20" class="edge">
<title>Node16&#45;&gt;Node17</title>
<path fill="none" stroke="midnightblue" d="M312.15,-114C320.55,-114 329.19,-114 337.68,-114"/>
<polygon fill="midnightblue" stroke="midnightblue" points="337.93,-117.5 347.93,-114 337.93,-110.5 337.93,-117.5"/>
</g>
<!-- Node18 -->
<g id="node18" class="node">
<title>Node18</title>
<g id="a_node18"><a xlink:href="group___groups.html#ga72c2d5ef943a89f829c08f6707e7669d" target="_top" xlink:title=" ">
<polygon fill="white" stroke="black" points="503,-152.5 503,-171.5 638,-171.5 638,-152.5 503,-152.5"/>
<text text-anchor="middle" x="570.5" y="-159.5" font-family="Helvetica,sans-Serif" font-size="10.00">operations_push_groups</text>
</a>
</g>
</g>
<!-- Node17&#45;&gt;Node18 -->
<g id="edge21" class="edge">
<title>Node17&#45;&gt;Node18</title>
<path fill="none" stroke="midnightblue" d="M440.69,-123.6C465.7,-131.05 500.58,-141.45 527.74,-149.55"/>
<polygon fill="midnightblue" stroke="midnightblue" points="526.78,-152.92 537.36,-152.42 528.78,-146.21 526.78,-152.92"/>
</g>
<!-- Node22 -->
<g id="node22" class="node">
<title>Node22</title>
<g id="a_node22"><a xlink:href="group___transforms.html#gaa15fe56d7980e7877845f3bc09125017" target="_top" xlink:title=" ">
<polygon fill="white" stroke="black" points="865,-125 865,-155 1015,-155 1015,-125 865,-125"/>
<text text-anchor="start" x="873" y="-143" font-family="Helvetica,sans-Serif" font-size="10.00">operations_push_transform</text>
<text text-anchor="middle" x="940" y="-132" font-family="Helvetica,sans-Serif" font-size="10.00">_attributes</text>
</a>
</g>
</g>
<!-- Node17&#45;&gt;Node22 -->
<g id="edge27" class="edge">
<title>Node17&#45;&gt;Node22</title>
<path fill="none" stroke="midnightblue" d="M467.04,-116.87C561.02,-121.48 745.95,-130.54 854.32,-135.85"/>
<polygon fill="midnightblue" stroke="midnightblue" points="854.4,-139.36 864.56,-136.35 854.74,-132.37 854.4,-139.36"/>
</g>
<!-- Node18&#45;&gt;Node18 -->
<g id="edge22" class="edge">
<title>Node18&#45;&gt;Node18</title>
<path fill="none" stroke="midnightblue" d="M545.53,-171.76C533.38,-180.57 541.71,-190 570.5,-190 589.85,-190 599.95,-185.74 600.81,-180.27"/>
<polygon fill="midnightblue" stroke="midnightblue" points="603.75,-178.37 595.47,-171.76 597.82,-182.09 603.75,-178.37"/>
</g>
<!-- Node19 -->
<g id="node19" class="node">
<title>Node19</title>
<g id="a_node19"><a xlink:href="group___models.html#gaca17d77a06e750f5cd95c1b79e1a8a30" target="_top" xlink:title=" ">
<polygon fill="white" stroke="black" points="682.5,-190.5 682.5,-209.5 820.5,-209.5 820.5,-190.5 682.5,-190.5"/>
<text text-anchor="middle" x="751.5" y="-197.5" font-family="Helvetica,sans-Serif" font-size="10.00">operations_push_models</text>
</a>
</g>
</g>
<!-- Node18&#45;&gt;Node19 -->
<g id="edge23" class="edge">
<title>Node18&#45;&gt;Node19</title>
<path fill="none" stroke="midnightblue" d="M616.67,-171.59C640.72,-176.69 670.47,-183.01 695.82,-188.39"/>
<polygon fill="midnightblue" stroke="midnightblue" points="695.15,-191.83 705.66,-190.48 696.6,-184.98 695.15,-191.83"/>
</g>
<!-- Node21 -->
<g id="node21" class="node">
<title>Node21</title>
<g id="a_node21"><a xlink:href="group___transforms.html#gaaa78b92f0257bb4755731622692de0cb" target="_top" xlink:title=" ">
<polygon fill="white" stroke="black" points="674,-152.5 674,-171.5 829,-171.5 829,-152.5 674,-152.5"/>
<text text-anchor="middle" x="751.5" y="-159.5" font-family="Helvetica,sans-Serif" font-size="10.00">operations_push_transforms</text>
</a>
</g>
</g>
<!-- Node18&#45;&gt;Node21 -->
<g id="edge25" class="edge">
<title>Node18&#45;&gt;Node21</title>
<path fill="none" stroke="midnightblue" d="M638.15,-162C646.51,-162 655.16,-162 663.77,-162"/>
<polygon fill="midnightblue" stroke="midnightblue" points="663.84,-165.5 673.84,-162 663.84,-158.5 663.84,-165.5"/>
</g>
<!-- Node20 -->
<g id="node20" class="node">
<title>Node20</title>
<g id="a_node20"><a xlink:href="group___models.html#ga5dc84f3f40c0bb6ad63dc2da3793ddd9" target="_top" xlink:title=" ">
<polygon fill="white" stroke="black" points="873.5,-190.5 873.5,-209.5 1006.5,-209.5 1006.5,-190.5 873.5,-190.5"/>
<text text-anchor="middle" x="940" y="-197.5" font-family="Helvetica,sans-Serif" font-size="10.00">operations_push_model</text>
</a>
</g>
</g>
<!-- Node19&#45;&gt;Node20 -->
<g id="edge24" class="edge">
<title>Node19&#45;&gt;Node20</title>
<path fill="none" stroke="midnightblue" d="M820.62,-200C834.44,-200 849.05,-200 863.11,-200"/>
<polygon fill="midnightblue" stroke="midnightblue" points="863.24,-203.5 873.24,-200 863.24,-196.5 863.24,-203.5"/>
</g>
<!-- Node21&#45;&gt;Node22 -->
<g id="edge26" class="edge">
<title>Node21&#45;&gt;Node22</title>
<path fill="none" stroke="midnightblue" d="M829.16,-152.96C837.61,-151.96 846.25,-150.94 854.78,-149.93"/>
<polygon fill="midnightblue" stroke="midnightblue" points="855.22,-153.41 864.74,-148.76 854.4,-146.46 855.22,-153.41"/>
</g>
</g>
</svg>
        <g id="navigator" transform="translate(0 0)" fill="#404254">
                <rect fill="#f2f5e9" fill-opacity="0.5" stroke="#606060" stroke-width=".5" x="0" y="0" width="60" height="60"/>
                <use id="zoomplus" xlink:href="#zoomPlus" x="17" y="9" onmousedown="handleZoom(evt,'in')"/>
                <use id="zoomminus" xlink:href="#zoomMin" x="42" y="9" onmousedown="handleZoom(evt,'out')"/>
                <use id="reset" xlink:href="#resetDef" x="30" y="36" onmousedown="handleReset()"/>
                <g id="arrowUp" xlink:href="#dirArrow" transform="translate(30 24)" onmousedown="handlePan(0,-1)">
                  <use xlink:href="#rim" fill="#404040">
                        <set attributeName="fill" to="#808080" begin="arrowUp.mouseover" end="arrowUp.mouseout"/>
                  </use>
                  <path fill="none" stroke="white" stroke-width="1.5" d="M0,-3.0v7 M-2.5,-0.5L0,-3.0L2.5,-0.5"/>
                </g>
                <g id="arrowRight" xlink:href="#dirArrow" transform="rotate(90) translate(36 -43)" onmousedown="handlePan(1,0)">
                  <use xlink:href="#rim" fill="#404040">
                        <set attributeName="fill" to="#808080" begin="arrowRight.mouseover" end="arrowRight.mouseout"/>
                  </use>
                  <path fill="none" stroke="white" stroke-width="1.5" d="M0,-3.0v7 M-2.5,-0.5L0,-3.0L2.5,-0.5"/>
                </g>
                <g id="arrowDown" xlink:href="#dirArrow" transform="rotate(180) translate(-30 -48)" onmousedown="handlePan(0,1)">
                  <use xlink:href="#rim" fill="#404040">
                        <set attributeName="fill" to="#808080" begin="arrowDown.mouseover" end="arrowDown.mouseout"/>
                  </use>
                  <path fill="none" stroke="white" stroke-width="1.5" d="M0,-3.0v7 M-2.5,-0.5L0,-3.0L2.5,-0.5"/>
                </g>
                <g id="arrowLeft" xlink:href="#dirArrow" transform="rotate(270) translate(-36 17)" onmousedown="handlePan(-1,0)">
                  <use xlink:href="#rim" fill="#404040">
                        <set attributeName="fill" to="#808080" begin="arrowLeft.mouseover" end="arrowLeft.mouseout"/>
                  </use>
                  <path fill="none" stroke="white" stroke-width="1.5" d="M0,-3.0v7 M-2.5,-0.5L0,-3.0L2.5,-0.5"/>
                </g>
        </g>
        <svg viewBox="0 0 15 15" width="100%" height="30px" preserveAspectRatio="xMaxYMin meet">
         <g id="arrow_out" transform="scale(0.3 0.3)">
          <a xlink:href="group__engine_ga3c04138a5bfe5d72780bb7e82a18e627_cgraph_org.svg" target="_base">
           <rect id="button" ry="5" rx="5" y="6" x="6" height="38" width="38"
                fill="#f2f5e9" fill-opacity="0.5" stroke="#606060" stroke-width="1.0"/>
           <path id="arrow"
             d="M 11.500037,31.436501 C 11.940474,20.09759 22.043105,11.32322 32.158766,21.979434 L 37.068811,17.246167 C 37.068811,17.246167 37.088388,32 37.088388,32 L 22.160133,31.978069 C 22.160133,31.978069 26.997745,27.140456 26.997745,27.140456 C 18.528582,18.264221 13.291696,25.230495 11.500037,31.436501 z"
             style="fill:#404040;"/>
          </a>
         </g>
        </svg>
</svg>
