<?xml version="1.0" encoding="UTF-8" standalone="no"?>
<!DOCTYPE svg PUBLIC "-//W3C//DTD SVG 1.1//EN"
 "http://www.w3.org/Graphics/SVG/1.1/DTD/svg11.dtd">
<!-- Generated by graphviz version 3.0.0 (0)
 -->
<!-- Title: engine_run Pages: 1 -->
<svg width="1341pt" height="519pt"
 viewBox="0.00 0.00 1341.00 518.50" xmlns="http://www.w3.org/2000/svg" xmlns:xlink="http://www.w3.org/1999/xlink">
<g id="graph0" class="graph" transform="scale(1 1) rotate(0) translate(4 514.5)">
<title>engine_run</title>
<polygon fill="white" stroke="transparent" points="-4,4 -4,-514.5 1337,-514.5 1337,4 -4,4"/>
<!-- Node1 -->
<g id="node1" class="node">
<title>Node1</title>
<g id="a_node1"><a xlink:title=" ">
<polygon fill="#bfbfbf" stroke="black" points="0,-145.5 0,-164.5 71,-164.5 71,-145.5 0,-145.5"/>
<text text-anchor="middle" x="35.5" y="-152.5" font-family="Helvetica,sans-Serif" font-size="10.00">engine_run</text>
</a>
</g>
</g>
<!-- Node2 -->
<g id="node2" class="node">
<title>Node2</title>
<g id="a_node2"><a xlink:href="group__engine.html#ga26df4370f6bf2d02524bd370e9e4e292" target="_top" xlink:title=" ">
<polygon fill="white" stroke="black" points="135,-240.5 135,-259.5 207,-259.5 207,-240.5 135,-240.5"/>
<text text-anchor="middle" x="171" y="-247.5" font-family="Helvetica,sans-Serif" font-size="10.00">changeSize</text>
</a>
</g>
</g>
<!-- Node1&#45;&gt;Node2 -->
<g id="edge1" class="edge">
<title>Node1&#45;&gt;Node2</title>
<path fill="none" stroke="midnightblue" d="M42.88,-164.7C53.99,-180.84 78.45,-213.18 107,-231 112.53,-234.45 118.73,-237.31 125.02,-239.67"/>
<polygon fill="midnightblue" stroke="midnightblue" points="124.31,-243.12 134.91,-242.97 126.53,-236.48 124.31,-243.12"/>
</g>
<!-- Node3 -->
<g id="node3" class="node">
<title>Node3</title>
<g id="a_node3"><a xlink:href="group__input.html#gac7632fff72011e8c11ae504a4596a7f7" target="_top" xlink:title=" ">
<polygon fill="white" stroke="black" points="129,-164.5 129,-183.5 213,-183.5 213,-164.5 129,-164.5"/>
<text text-anchor="middle" x="171" y="-171.5" font-family="Helvetica,sans-Serif" font-size="10.00">keyboardFunc</text>
</a>
</g>
</g>
<!-- Node1&#45;&gt;Node3 -->
<g id="edge2" class="edge">
<title>Node1&#45;&gt;Node3</title>
<path fill="none" stroke="midnightblue" d="M71.23,-159.94C85.68,-162 102.75,-164.43 118.6,-166.68"/>
<polygon fill="midnightblue" stroke="midnightblue" points="118.41,-170.19 128.8,-168.14 119.4,-163.26 118.41,-170.19"/>
</g>
<!-- Node7 -->
<g id="node7" class="node">
<title>Node7</title>
<g id="a_node7"><a xlink:href="group__input.html#ga2bebb17428cb218231ad556de2a20ed6" target="_top" xlink:title=" ">
<polygon fill="white" stroke="black" points="134,-88.5 134,-107.5 208,-107.5 208,-88.5 134,-88.5"/>
<text text-anchor="middle" x="171" y="-95.5" font-family="Helvetica,sans-Serif" font-size="10.00">motionFunc</text>
</a>
</g>
</g>
<!-- Node1&#45;&gt;Node7 -->
<g id="edge6" class="edge">
<title>Node1&#45;&gt;Node7</title>
<path fill="none" stroke="midnightblue" d="M52.01,-145.46C66.01,-137.14 87.35,-125.16 107,-117 112.47,-114.73 118.32,-112.59 124.16,-110.64"/>
<polygon fill="midnightblue" stroke="midnightblue" points="125.45,-113.9 133.91,-107.52 123.32,-107.23 125.45,-113.9"/>
</g>
<!-- Node8 -->
<g id="node8" class="node">
<title>Node8</title>
<g id="a_node8"><a xlink:href="group__input.html#gad48076b61c0ddb6bd4fadf644bf59ff1" target="_top" xlink:title=" ">
<polygon fill="white" stroke="black" points="135,-50.5 135,-69.5 207,-69.5 207,-50.5 135,-50.5"/>
<text text-anchor="middle" x="171" y="-57.5" font-family="Helvetica,sans-Serif" font-size="10.00">mouseFunc</text>
</a>
</g>
</g>
<!-- Node1&#45;&gt;Node8 -->
<g id="edge8" class="edge">
<title>Node1&#45;&gt;Node8</title>
<path fill="none" stroke="midnightblue" d="M42.88,-145.3C53.99,-129.16 78.45,-96.82 107,-79 112.53,-75.55 118.73,-72.69 125.02,-70.33"/>
<polygon fill="midnightblue" stroke="midnightblue" points="126.53,-73.52 134.91,-67.03 124.31,-66.88 126.53,-73.52"/>
</g>
<!-- Node9 -->
<g id="node9" class="node">
<title>Node9</title>
<g id="a_node9"><a xlink:href="group__engine.html#ga91c42686f3245f22fb6b17ba5372d92c" target="_top" xlink:title=" ">
<polygon fill="white" stroke="black" points="132.5,-126.5 132.5,-145.5 209.5,-145.5 209.5,-126.5 132.5,-126.5"/>
<text text-anchor="middle" x="171" y="-133.5" font-family="Helvetica,sans-Serif" font-size="10.00">renderScene</text>
</a>
</g>
</g>
<!-- Node1&#45;&gt;Node9 -->
<g id="edge10" class="edge">
<title>Node1&#45;&gt;Node9</title>
<path fill="none" stroke="midnightblue" d="M71.23,-150.06C86.71,-147.85 105.2,-145.22 121.98,-142.83"/>
<polygon fill="midnightblue" stroke="midnightblue" points="122.76,-146.26 132.16,-141.38 121.77,-139.33 122.76,-146.26"/>
</g>
<!-- Node23 -->
<g id="node23" class="node">
<title>Node23</title>
<g id="a_node23"><a xlink:href="group__engine.html#ga4c801322659c1ed52adccd3874552bb3" target="_top" xlink:title=" ">
<polygon fill="white" stroke="black" points="107,-202.5 107,-221.5 235,-221.5 235,-202.5 107,-202.5"/>
<text text-anchor="middle" x="171" y="-209.5" font-family="Helvetica,sans-Serif" font-size="10.00">xml_load_and_set_env</text>
</a>
</g>
</g>
<!-- Node1&#45;&gt;Node23 -->
<g id="edge26" class="edge">
<title>Node1&#45;&gt;Node23</title>
<path fill="none" stroke="midnightblue" d="M52.01,-164.54C66.01,-172.86 87.35,-184.84 107,-193 112.47,-195.27 118.32,-197.41 124.16,-199.36"/>
<polygon fill="midnightblue" stroke="midnightblue" points="123.32,-202.77 133.91,-202.48 125.45,-196.1 123.32,-202.77"/>
</g>
<!-- Node4 -->
<g id="node4" class="node">
<title>Node4</title>
<g id="a_node4"><a xlink:href="group__engine.html#ga8679d9b303f36964bf51dba0993caeaa" target="_top" xlink:title=" ">
<polygon fill="white" stroke="black" points="277.5,-202.5 277.5,-221.5 383.5,-221.5 383.5,-202.5 277.5,-202.5"/>
<text text-anchor="middle" x="330.5" y="-209.5" font-family="Helvetica,sans-Serif" font-size="10.00">env_load_defaults</text>
</a>
</g>
</g>
<!-- Node3&#45;&gt;Node4 -->
<g id="edge3" class="edge">
<title>Node3&#45;&gt;Node4</title>
<path fill="none" stroke="midnightblue" d="M211.74,-183.59C232.53,-188.6 258.16,-194.79 280.2,-200.11"/>
<polygon fill="midnightblue" stroke="midnightblue" points="279.5,-203.54 290.04,-202.48 281.14,-196.73 279.5,-203.54"/>
</g>
<!-- Node5 -->
<g id="node5" class="node">
<title>Node5</title>
<g id="a_node5"><a xlink:href="group__engine.html#gab9813926390dc5773baf0b20dc2ea16e" target="_top" xlink:title=" ">
<polygon fill="white" stroke="black" points="299.5,-88.5 299.5,-107.5 361.5,-107.5 361.5,-88.5 299.5,-88.5"/>
<text text-anchor="middle" x="330.5" y="-95.5" font-family="Helvetica,sans-Serif" font-size="10.00">redisplay</text>
</a>
</g>
</g>
<!-- Node3&#45;&gt;Node5 -->
<g id="edge4" class="edge">
<title>Node3&#45;&gt;Node5</title>
<path fill="none" stroke="midnightblue" d="M213.33,-164.91C220.84,-162.33 228.39,-159.08 235,-155 254.8,-142.79 251.33,-129.42 271,-117 276.76,-113.36 283.29,-110.36 289.84,-107.89"/>
<polygon fill="midnightblue" stroke="midnightblue" points="291.02,-111.19 299.37,-104.67 288.77,-104.56 291.02,-111.19"/>
</g>
<!-- Node6 -->
<g id="node6" class="node">
<title>Node6</title>
<g id="a_node6"><a xlink:href="group__spherical.html#gaeac535a2aaeb6b1c8c4d1169bbc3cab1" target="_top" xlink:title=" ">
<polygon fill="white" stroke="black" points="437,-0.5 437,-19.5 550,-19.5 550,-0.5 437,-0.5"/>
<text text-anchor="middle" x="493.5" y="-7.5" font-family="Helvetica,sans-Serif" font-size="10.00">spherical2Cartesian</text>
</a>
</g>
</g>
<!-- Node5&#45;&gt;Node6 -->
<g id="edge5" class="edge">
<title>Node5&#45;&gt;Node6</title>
<path fill="none" stroke="midnightblue" d="M342.02,-88.35C358.66,-73.57 392.6,-45.32 426,-29 430.67,-26.72 435.66,-24.67 440.73,-22.83"/>
<polygon fill="midnightblue" stroke="midnightblue" points="442.13,-26.05 450.51,-19.56 439.91,-19.41 442.13,-26.05"/>
</g>
<!-- Node7&#45;&gt;Node5 -->
<g id="edge7" class="edge">
<title>Node7&#45;&gt;Node5</title>
<path fill="none" stroke="midnightblue" d="M208.13,-98C232.29,-98 264.11,-98 289.1,-98"/>
<polygon fill="midnightblue" stroke="midnightblue" points="289.35,-101.5 299.35,-98 289.35,-94.5 289.35,-101.5"/>
</g>
<!-- Node8&#45;&gt;Node5 -->
<g id="edge9" class="edge">
<title>Node8&#45;&gt;Node5</title>
<path fill="none" stroke="midnightblue" d="M207.35,-68.53C231.66,-74.39 264,-82.2 289.29,-88.3"/>
<polygon fill="midnightblue" stroke="midnightblue" points="288.77,-91.77 299.31,-90.72 290.41,-84.97 288.77,-91.77"/>
</g>
<!-- Node9&#45;&gt;Node5 -->
<g id="edge25" class="edge">
<title>Node9&#45;&gt;Node5</title>
<path fill="none" stroke="midnightblue" d="M209.73,-126.9C233.88,-121.07 265.18,-113.52 289.73,-107.6"/>
<polygon fill="midnightblue" stroke="midnightblue" points="290.55,-111 299.45,-105.25 288.91,-104.19 290.55,-111"/>
</g>
<!-- Node10 -->
<g id="node10" class="node">
<title>Node10</title>
<g id="a_node10"><a xlink:href="engine_8cpp.html#a634dba686e70e7ff3f10c37d11f463da" target="_top" xlink:title=" ">
<polygon fill="white" stroke="black" points="296,-126.5 296,-145.5 365,-145.5 365,-126.5 296,-126.5"/>
<text text-anchor="middle" x="330.5" y="-133.5" font-family="Helvetica,sans-Serif" font-size="10.00">draw_axes</text>
</a>
</g>
</g>
<!-- Node9&#45;&gt;Node10 -->
<g id="edge11" class="edge">
<title>Node9&#45;&gt;Node10</title>
<path fill="none" stroke="midnightblue" d="M209.73,-136C232.56,-136 261.77,-136 285.63,-136"/>
<polygon fill="midnightblue" stroke="midnightblue" points="285.83,-139.5 295.83,-136 285.83,-132.5 285.83,-139.5"/>
</g>
<!-- Node11 -->
<g id="node11" class="node">
<title>Node11</title>
<g id="a_node11"><a xlink:href="group___operations.html#ga8d5a19a3522cea1b4254684cf6515d13" target="_top" xlink:title=" ">
<polygon fill="white" stroke="black" points="278,-164.5 278,-183.5 383,-183.5 383,-164.5 278,-164.5"/>
<text text-anchor="middle" x="330.5" y="-171.5" font-family="Helvetica,sans-Serif" font-size="10.00">operations_render</text>
</a>
</g>
</g>
<!-- Node9&#45;&gt;Node11 -->
<g id="edge12" class="edge">
<title>Node9&#45;&gt;Node11</title>
<path fill="none" stroke="midnightblue" d="M209.73,-145.1C230.81,-150.19 257.34,-156.59 280.07,-162.07"/>
<polygon fill="midnightblue" stroke="midnightblue" points="279.34,-165.5 289.88,-164.44 280.98,-158.69 279.34,-165.5"/>
</g>
<!-- Node12 -->
<g id="node12" class="node">
<title>Node12</title>
<g id="a_node12"><a xlink:href="curves_8cpp.html#a821c8cbf0a47b918c60a4912b733e6bd" target="_top" xlink:title=" ">
<polygon fill="white" stroke="black" points="441.5,-164.5 441.5,-183.5 545.5,-183.5 545.5,-164.5 441.5,-164.5"/>
<text text-anchor="middle" x="493.5" y="-171.5" font-family="Helvetica,sans-Serif" font-size="10.00">advance_in_curve</text>
</a>
</g>
</g>
<!-- Node11&#45;&gt;Node12 -->
<g id="edge13" class="edge">
<title>Node11&#45;&gt;Node12</title>
<path fill="none" stroke="midnightblue" d="M383.33,-174C398.56,-174 415.37,-174 431.14,-174"/>
<polygon fill="midnightblue" stroke="midnightblue" points="431.32,-177.5 441.32,-174 431.32,-170.5 431.32,-177.5"/>
</g>
<!-- Node17 -->
<g id="node17" class="node">
<title>Node17</title>
<g id="a_node17"><a xlink:href="engine_8cpp.html#a072c434cfd125e58ac1cec9a5725688a" target="_top" xlink:title=" ">
<polygon fill="white" stroke="black" points="435.5,-126.5 435.5,-145.5 551.5,-145.5 551.5,-126.5 435.5,-126.5"/>
<text text-anchor="middle" x="493.5" y="-133.5" font-family="Helvetica,sans-Serif" font-size="10.00">advance_in_rotation</text>
</a>
</g>
</g>
<!-- Node11&#45;&gt;Node17 -->
<g id="edge18" class="edge">
<title>Node11&#45;&gt;Node17</title>
<path fill="none" stroke="midnightblue" d="M372.13,-164.41C393.47,-159.37 419.81,-153.16 442.41,-147.82"/>
<polygon fill="midnightblue" stroke="midnightblue" points="443.24,-151.22 452.17,-145.52 441.63,-144.41 443.24,-151.22"/>
</g>
<!-- Node18 -->
<g id="node18" class="node">
<title>Node18</title>
<g id="a_node18"><a xlink:href="group__model_engine.html#ga361bcac2814bb93f543d2c0f1b28b6d2" target="_top" xlink:title=" ">
<polygon fill="white" stroke="black" points="458.5,-88.5 458.5,-107.5 528.5,-107.5 528.5,-88.5 458.5,-88.5"/>
<text text-anchor="middle" x="493.5" y="-95.5" font-family="Helvetica,sans-Serif" font-size="10.00">allocModel</text>
</a>
</g>
</g>
<!-- Node11&#45;&gt;Node18 -->
<g id="edge19" class="edge">
<title>Node11&#45;&gt;Node18</title>
<path fill="none" stroke="midnightblue" d="M370.18,-164.47C377.06,-161.94 383.95,-158.82 390,-155 409.67,-142.58 406.11,-129.07 426,-117 432.86,-112.84 440.66,-109.56 448.46,-106.98"/>
<polygon fill="midnightblue" stroke="midnightblue" points="449.66,-110.27 458.25,-104.07 447.67,-103.56 449.66,-110.27"/>
</g>
<!-- Node19 -->
<g id="node19" class="node">
<title>Node19</title>
<g id="a_node19"><a xlink:href="group__model_engine.html#ga8c7329ae859a08eea53a77130ebe6018" target="_top" xlink:title=" ">
<polygon fill="white" stroke="black" points="436,-39 436,-69 551,-69 551,-39 436,-39"/>
<text text-anchor="start" x="444" y="-57" font-family="Helvetica,sans-Serif" font-size="10.00">associate_a_texture</text>
<text text-anchor="middle" x="493.5" y="-46" font-family="Helvetica,sans-Serif" font-size="10.00">_to_model</text>
</a>
</g>
</g>
<!-- Node11&#45;&gt;Node19 -->
<g id="edge20" class="edge">
<title>Node11&#45;&gt;Node19</title>
<path fill="none" stroke="midnightblue" d="M374.9,-164.43C380.37,-161.97 385.59,-158.88 390,-155 418.07,-130.32 398.5,-104.31 426,-79 427.7,-77.44 429.5,-75.97 431.38,-74.6"/>
<polygon fill="midnightblue" stroke="midnightblue" points="433.5,-77.4 440.1,-69.11 429.77,-71.48 433.5,-77.4"/>
</g>
<!-- Node20 -->
<g id="node20" class="node">
<title>Node20</title>
<g id="a_node20"><a xlink:href="group__spherical.html#gabd434f65cba3ee8011b8d3cdd1f25dca" target="_top" xlink:title=" ">
<polygon fill="white" stroke="black" points="437,-278.5 437,-297.5 550,-297.5 550,-278.5 437,-278.5"/>
<text text-anchor="middle" x="493.5" y="-285.5" font-family="Helvetica,sans-Serif" font-size="10.00">cartesian2Spherical</text>
</a>
</g>
</g>
<!-- Node11&#45;&gt;Node20 -->
<g id="edge21" class="edge">
<title>Node11&#45;&gt;Node20</title>
<path fill="none" stroke="midnightblue" d="M374.9,-183.57C380.37,-186.03 385.59,-189.12 390,-193 418.07,-217.68 397.49,-244.83 426,-269 428,-270.7 430.15,-272.25 432.4,-273.66"/>
<polygon fill="midnightblue" stroke="midnightblue" points="431.03,-276.89 441.51,-278.43 434.28,-270.69 431.03,-276.89"/>
</g>
<!-- Node21 -->
<g id="node21" class="node">
<title>Node21</title>
<g id="a_node21"><a xlink:href="curves_8cpp.html#ad812fc50a0384335487e258a6f61714e" target="_top" xlink:title=" ">
<polygon fill="white" stroke="black" points="636,-202.5 636,-221.5 713,-221.5 713,-202.5 636,-202.5"/>
<text text-anchor="middle" x="674.5" y="-209.5" font-family="Helvetica,sans-Serif" font-size="10.00">renderCurve</text>
</a>
</g>
</g>
<!-- Node11&#45;&gt;Node21 -->
<g id="edge22" class="edge">
<title>Node11&#45;&gt;Node21</title>
<path fill="none" stroke="midnightblue" d="M373.18,-183.52C389.57,-186.96 408.59,-190.59 426,-193 494.95,-202.54 575.41,-207.61 625.42,-210.05"/>
<polygon fill="midnightblue" stroke="midnightblue" points="625.46,-213.55 635.61,-210.53 625.79,-206.56 625.46,-213.55"/>
</g>
<!-- Node22 -->
<g id="node22" class="node">
<title>Node22</title>
<g id="a_node22"><a xlink:href="group__model_engine.html#ga2907e4adf4f2bef2c8ce416cb8470997" target="_top" xlink:title=" ">
<polygon fill="white" stroke="black" points="454.5,-240.5 454.5,-259.5 532.5,-259.5 532.5,-240.5 454.5,-240.5"/>
<text text-anchor="middle" x="493.5" y="-247.5" font-family="Helvetica,sans-Serif" font-size="10.00">renderModel</text>
</a>
</g>
</g>
<!-- Node11&#45;&gt;Node22 -->
<g id="edge24" class="edge">
<title>Node11&#45;&gt;Node22</title>
<path fill="none" stroke="midnightblue" d="M369.04,-183.55C376.24,-186.11 383.54,-189.23 390,-193 408.75,-203.94 407.43,-214.76 426,-226 432.87,-230.16 440.56,-233.75 448.22,-236.81"/>
<polygon fill="midnightblue" stroke="midnightblue" points="447.24,-240.18 457.83,-240.39 449.68,-233.62 447.24,-240.18"/>
</g>
<!-- Node13 -->
<g id="node13" class="node">
<title>Node13</title>
<g id="a_node13"><a xlink:href="curves_8cpp.html#a98b26a4263f61db7149441a99a6d35b6" target="_top" xlink:title=" ">
<polygon fill="white" stroke="black" points="613,-164.5 613,-183.5 736,-183.5 736,-164.5 613,-164.5"/>
<text text-anchor="middle" x="674.5" y="-171.5" font-family="Helvetica,sans-Serif" font-size="10.00">align_global_pos_mat</text>
</a>
</g>
</g>
<!-- Node12&#45;&gt;Node13 -->
<g id="edge14" class="edge">
<title>Node12&#45;&gt;Node13</title>
<path fill="none" stroke="midnightblue" d="M545.79,-174C563.48,-174 583.62,-174 602.6,-174"/>
<polygon fill="midnightblue" stroke="midnightblue" points="602.69,-177.5 612.69,-174 602.69,-170.5 602.69,-177.5"/>
</g>
<!-- Node14 -->
<g id="node14" class="node">
<title>Node14</title>
<g id="a_node14"><a xlink:href="curves_8cpp.html#abe9fa1f2a311f275f92f5b46fb2f8490" target="_top" xlink:title=" ">
<polygon fill="white" stroke="black" points="810.5,-183.5 810.5,-202.5 940.5,-202.5 940.5,-183.5 810.5,-183.5"/>
<text text-anchor="middle" x="875.5" y="-190.5" font-family="Helvetica,sans-Serif" font-size="10.00">get_curve_global_point</text>
</a>
</g>
</g>
<!-- Node13&#45;&gt;Node14 -->
<g id="edge15" class="edge">
<title>Node13&#45;&gt;Node14</title>
<path fill="none" stroke="midnightblue" d="M736.02,-179.78C756.26,-181.71 779.06,-183.89 800.23,-185.91"/>
<polygon fill="midnightblue" stroke="midnightblue" points="800.19,-189.42 810.47,-186.89 800.85,-182.45 800.19,-189.42"/>
</g>
<!-- Node15 -->
<g id="node15" class="node">
<title>Node15</title>
<g id="a_node15"><a xlink:href="curves_8cpp.html#afa648d7de8c941b50b26f02755a955b9" target="_top" xlink:title=" ">
<polygon fill="white" stroke="black" points="1028.5,-202.5 1028.5,-221.5 1117.5,-221.5 1117.5,-202.5 1028.5,-202.5"/>
<text text-anchor="middle" x="1073" y="-209.5" font-family="Helvetica,sans-Serif" font-size="10.00">get_curve_info</text>
</a>
</g>
</g>
<!-- Node14&#45;&gt;Node15 -->
<g id="edge16" class="edge">
<title>Node14&#45;&gt;Node15</title>
<path fill="none" stroke="midnightblue" d="M940.51,-199.22C965.65,-201.66 994.19,-204.44 1018.23,-206.77"/>
<polygon fill="midnightblue" stroke="midnightblue" points="1017.95,-210.26 1028.24,-207.75 1018.63,-203.3 1017.95,-210.26"/>
</g>
<!-- Node16 -->
<g id="node16" class="node">
<title>Node16</title>
<g id="a_node16"><a xlink:href="curves_8cpp.html#a6d6def6a76701b08284cba58066e3382" target="_top" xlink:title=" ">
<polygon fill="white" stroke="black" points="1018,-164.5 1018,-183.5 1128,-183.5 1128,-164.5 1018,-164.5"/>
<text text-anchor="middle" x="1073" y="-171.5" font-family="Helvetica,sans-Serif" font-size="10.00">get_curve_point_at</text>
</a>
</g>
</g>
<!-- Node14&#45;&gt;Node16 -->
<g id="edge17" class="edge">
<title>Node14&#45;&gt;Node16</title>
<path fill="none" stroke="midnightblue" d="M940.51,-186.78C962.14,-184.68 986.29,-182.33 1007.92,-180.23"/>
<polygon fill="midnightblue" stroke="midnightblue" points="1008.38,-183.7 1017.99,-179.25 1007.7,-176.73 1008.38,-183.7"/>
</g>
<!-- Node21&#45;&gt;Node14 -->
<g id="edge23" class="edge">
<title>Node21&#45;&gt;Node14</title>
<path fill="none" stroke="midnightblue" d="M713.4,-208.38C737.81,-206.05 770.38,-202.94 799.84,-200.13"/>
<polygon fill="midnightblue" stroke="midnightblue" points="800.49,-203.58 810.12,-199.15 799.83,-196.61 800.49,-203.58"/>
</g>
<!-- Node23&#45;&gt;Node4 -->
<g id="edge27" class="edge">
<title>Node23&#45;&gt;Node4</title>
<path fill="none" stroke="midnightblue" d="M235.15,-212C245.79,-212 256.82,-212 267.43,-212"/>
<polygon fill="midnightblue" stroke="midnightblue" points="267.44,-215.5 277.44,-212 267.44,-208.5 267.44,-215.5"/>
</g>
<!-- Node23&#45;&gt;Node11 -->
<g id="edge41" class="edge">
<title>Node23&#45;&gt;Node11</title>
<path fill="none" stroke="midnightblue" d="M211.74,-202.41C232.53,-197.4 258.16,-191.21 280.2,-185.89"/>
<polygon fill="midnightblue" stroke="midnightblue" points="281.14,-189.27 290.04,-183.52 279.5,-182.46 281.14,-189.27"/>
</g>
<!-- Node24 -->
<g id="node24" class="node">
<title>Node24</title>
<g id="a_node24"><a xlink:href="group__xml.html#gad700972f3f382c3cc5658ce95361ad0e" target="_top" xlink:title=" ">
<polygon fill="white" stroke="black" points="271,-335.5 271,-354.5 390,-354.5 390,-335.5 271,-335.5"/>
<text text-anchor="middle" x="330.5" y="-342.5" font-family="Helvetica,sans-Serif" font-size="10.00">operations_load_xml</text>
</a>
</g>
</g>
<!-- Node23&#45;&gt;Node24 -->
<g id="edge28" class="edge">
<title>Node23&#45;&gt;Node24</title>
<path fill="none" stroke="midnightblue" d="M215.87,-221.57C222.58,-224.05 229.19,-227.15 235,-231 273.01,-256.22 303.73,-301.25 319,-326.51"/>
<polygon fill="midnightblue" stroke="midnightblue" points="316.16,-328.59 324.25,-335.43 322.2,-325.04 316.16,-328.59"/>
</g>
<!-- Node25 -->
<g id="node25" class="node">
<title>Node25</title>
<g id="a_node25"><a xlink:href="group___groups.html#ga2729bcb63525027c28b0107fe17d3a06" target="_top" xlink:title=" ">
<polygon fill="white" stroke="black" points="426,-414.5 426,-433.5 561,-433.5 561,-414.5 426,-414.5"/>
<text text-anchor="middle" x="493.5" y="-421.5" font-family="Helvetica,sans-Serif" font-size="10.00">operations_push_groups</text>
</a>
</g>
</g>
<!-- Node24&#45;&gt;Node25 -->
<g id="edge29" class="edge">
<title>Node24&#45;&gt;Node25</title>
<path fill="none" stroke="midnightblue" d="M350.92,-354.53C379.09,-368.35 431.45,-394.04 463.99,-410.01"/>
<polygon fill="midnightblue" stroke="midnightblue" points="462.49,-413.17 473.01,-414.44 465.58,-406.89 462.49,-413.17"/>
</g>
<!-- Node32 -->
<g id="node32" class="node">
<title>Node32</title>
<g id="a_node32"><a xlink:href="group___transforms.html#gaa8e01339ca5863980bb193197d4781e2" target="_top" xlink:title=" ">
<polygon fill="white" stroke="black" points="1183,-387 1183,-417 1333,-417 1333,-387 1183,-387"/>
<text text-anchor="start" x="1191" y="-405" font-family="Helvetica,sans-Serif" font-size="10.00">operations_push_transform</text>
<text text-anchor="middle" x="1258" y="-394" font-family="Helvetica,sans-Serif" font-size="10.00">_attributes</text>
</a>
</g>
</g>
<!-- Node24&#45;&gt;Node32 -->
<g id="edge40" class="edge">
<title>Node24&#45;&gt;Node32</title>
<path fill="none" stroke="midnightblue" d="M390.15,-350.24C458.22,-355.87 573.89,-364 673.5,-364 673.5,-364 673.5,-364 876.5,-364 978.79,-364 1095.79,-377.77 1172.73,-388.73"/>
<polygon fill="midnightblue" stroke="midnightblue" points="1172.45,-392.22 1182.85,-390.18 1173.45,-385.29 1172.45,-392.22"/>
</g>
<!-- Node33 -->
<g id="node33" class="node">
<title>Node33</title>
<g id="a_node33"><a xlink:href="group__xml.html#gadda1aacffc4688669d0253cec56f849b" target="_top" xlink:title=" ">
<polygon fill="white" stroke="black" points="429,-316.5 429,-335.5 558,-335.5 558,-316.5 429,-316.5"/>
<text text-anchor="middle" x="493.5" y="-323.5" font-family="Helvetica,sans-Serif" font-size="10.00">operations_push_lights</text>
</a>
</g>
</g>
<!-- Node24&#45;&gt;Node33 -->
<g id="edge39" class="edge">
<title>Node24&#45;&gt;Node33</title>
<path fill="none" stroke="midnightblue" d="M390.08,-338.09C399.42,-336.98 409.19,-335.83 418.83,-334.69"/>
<polygon fill="midnightblue" stroke="midnightblue" points="419.28,-338.17 428.8,-333.52 418.46,-331.21 419.28,-338.17"/>
</g>
<!-- Node25&#45;&gt;Node25 -->
<g id="edge30" class="edge">
<title>Node25&#45;&gt;Node25</title>
<path fill="none" stroke="midnightblue" d="M468.53,-433.76C456.38,-442.57 464.71,-452 493.5,-452 512.85,-452 522.95,-447.74 523.81,-442.27"/>
<polygon fill="midnightblue" stroke="midnightblue" points="526.75,-440.37 518.47,-433.76 520.82,-444.09 526.75,-440.37"/>
</g>
<!-- Node26 -->
<g id="node26" class="node">
<title>Node26</title>
<g id="a_node26"><a xlink:href="group___models.html#gaf4f69faf6a2c6db692bd0f742c08ca17" target="_top" xlink:title=" ">
<polygon fill="white" stroke="black" points="605.5,-460.5 605.5,-479.5 743.5,-479.5 743.5,-460.5 605.5,-460.5"/>
<text text-anchor="middle" x="674.5" y="-467.5" font-family="Helvetica,sans-Serif" font-size="10.00">operations_push_models</text>
</a>
</g>
</g>
<!-- Node25&#45;&gt;Node26 -->
<g id="edge31" class="edge">
<title>Node25&#45;&gt;Node26</title>
<path fill="none" stroke="midnightblue" d="M531.59,-433.53C559.19,-440.62 597.06,-450.36 626.73,-457.98"/>
<polygon fill="midnightblue" stroke="midnightblue" points="625.9,-461.38 636.46,-460.48 627.64,-454.6 625.9,-461.38"/>
</g>
<!-- Node29 -->
<g id="node29" class="node">
<title>Node29</title>
<g id="a_node29"><a xlink:href="group___transforms.html#gab74408a65711c19872c69797a55c6229" target="_top" xlink:title=" ">
<polygon fill="white" stroke="black" points="597,-414.5 597,-433.5 752,-433.5 752,-414.5 597,-414.5"/>
<text text-anchor="middle" x="674.5" y="-421.5" font-family="Helvetica,sans-Serif" font-size="10.00">operations_push_transforms</text>
</a>
</g>
</g>
<!-- Node25&#45;&gt;Node29 -->
<g id="edge34" class="edge">
<title>Node25&#45;&gt;Node29</title>
<path fill="none" stroke="midnightblue" d="M561.15,-424C569.51,-424 578.16,-424 586.77,-424"/>
<polygon fill="midnightblue" stroke="midnightblue" points="586.84,-427.5 596.84,-424 586.84,-420.5 586.84,-427.5"/>
</g>
<!-- Node27 -->
<g id="node27" class="node">
<title>Node27</title>
<g id="a_node27"><a xlink:href="group___models.html#ga9c6066851b617631703c06b7aa6f72ac" target="_top" xlink:title=" ">
<polygon fill="white" stroke="black" points="809,-468.5 809,-487.5 942,-487.5 942,-468.5 809,-468.5"/>
<text text-anchor="middle" x="875.5" y="-475.5" font-family="Helvetica,sans-Serif" font-size="10.00">operations_push_model</text>
</a>
</g>
</g>
<!-- Node26&#45;&gt;Node27 -->
<g id="edge32" class="edge">
<title>Node26&#45;&gt;Node27</title>
<path fill="none" stroke="midnightblue" d="M743.71,-472.74C761.38,-473.45 780.51,-474.22 798.55,-474.95"/>
<polygon fill="midnightblue" stroke="midnightblue" points="798.6,-478.45 808.74,-475.36 798.88,-471.46 798.6,-478.45"/>
</g>
<!-- Node28 -->
<g id="node28" class="node">
<title>Node28</title>
<g id="a_node28"><a xlink:href="group___models.html#gaa31dcad7bd49e781068f4d5f42734e2a" target="_top" xlink:title=" ">
<polygon fill="white" stroke="black" points="1008,-480 1008,-510 1138,-510 1138,-480 1008,-480"/>
<text text-anchor="start" x="1016" y="-498" font-family="Helvetica,sans-Serif" font-size="10.00">operations_push_string</text>
<text text-anchor="middle" x="1073" y="-487" font-family="Helvetica,sans-Serif" font-size="10.00">_attribute</text>
</a>
</g>
</g>
<!-- Node27&#45;&gt;Node28 -->
<g id="edge33" class="edge">
<title>Node27&#45;&gt;Node28</title>
<path fill="none" stroke="midnightblue" d="M942.14,-483.71C960.02,-485.26 979.51,-486.96 997.82,-488.55"/>
<polygon fill="midnightblue" stroke="midnightblue" points="997.59,-492.04 1007.86,-489.42 998.2,-485.07 997.59,-492.04"/>
</g>
<!-- Node30 -->
<g id="node30" class="node">
<title>Node30</title>
<g id="a_node30"><a xlink:href="group___transforms.html#ga9b8048838c7a406b93e9677dd9cb4373" target="_top" xlink:title=" ">
<polygon fill="white" stroke="black" points="788,-414.5 788,-433.5 963,-433.5 963,-414.5 788,-414.5"/>
<text text-anchor="middle" x="875.5" y="-421.5" font-family="Helvetica,sans-Serif" font-size="10.00">operations_push_transformation</text>
</a>
</g>
</g>
<!-- Node29&#45;&gt;Node30 -->
<g id="edge35" class="edge">
<title>Node29&#45;&gt;Node30</title>
<path fill="none" stroke="midnightblue" d="M752.15,-424C760.57,-424 769.23,-424 777.85,-424"/>
<polygon fill="midnightblue" stroke="midnightblue" points="777.94,-427.5 787.94,-424 777.94,-420.5 777.94,-427.5"/>
</g>
<!-- Node31 -->
<g id="node31" class="node">
<title>Node31</title>
<g id="a_node31"><a xlink:href="group___transforms.html#ga34490f49c910f6ad0b3b39d97ca6991f" target="_top" xlink:title=" ">
<polygon fill="white" stroke="black" points="999,-431 999,-461 1147,-461 1147,-431 999,-431"/>
<text text-anchor="start" x="1007" y="-449" font-family="Helvetica,sans-Serif" font-size="10.00">operations_push_extended</text>
<text text-anchor="middle" x="1073" y="-438" font-family="Helvetica,sans-Serif" font-size="10.00">_translate_attributes</text>
</a>
</g>
</g>
<!-- Node30&#45;&gt;Node31 -->
<g id="edge36" class="edge">
<title>Node30&#45;&gt;Node31</title>
<path fill="none" stroke="midnightblue" d="M961.11,-433.52C970.26,-434.55 979.56,-435.6 988.69,-436.63"/>
<polygon fill="midnightblue" stroke="midnightblue" points="988.59,-440.14 998.91,-437.78 989.37,-433.18 988.59,-440.14"/>
</g>
<!-- Node30&#45;&gt;Node32 -->
<g id="edge38" class="edge">
<title>Node30&#45;&gt;Node32</title>
<path fill="none" stroke="midnightblue" d="M963.32,-418.98C1026.06,-415.35 1110.38,-410.48 1172.57,-406.88"/>
<polygon fill="midnightblue" stroke="midnightblue" points="1172.96,-410.37 1182.74,-406.29 1172.56,-403.38 1172.96,-410.37"/>
</g>
<!-- Node31&#45;&gt;Node32 -->
<g id="edge37" class="edge">
<title>Node31&#45;&gt;Node32</title>
<path fill="none" stroke="midnightblue" d="M1136.47,-430.98C1151.99,-427.25 1168.75,-423.22 1184.7,-419.38"/>
<polygon fill="midnightblue" stroke="midnightblue" points="1185.6,-422.77 1194.5,-417.03 1183.96,-415.96 1185.6,-422.77"/>
</g>
</g>
</svg>
