<?xml version="1.0" encoding="UTF-8" standalone="no"?>
<!DOCTYPE svg PUBLIC "-//W3C//DTD SVG 1.1//EN"
 "http://www.w3.org/Graphics/SVG/1.1/DTD/svg11.dtd">
<!-- Generated by graphviz version 3.0.0 (0)
 -->
<!-- Title: xml_load_and_set_env Pages: 1 -->
<svg width="839pt" height="256pt"
 viewBox="0.00 0.00 839.00 256.00" xmlns="http://www.w3.org/2000/svg" xmlns:xlink="http://www.w3.org/1999/xlink">
<g id="graph0" class="graph" transform="scale(1 1) rotate(0) translate(4 252)">
<title>xml_load_and_set_env</title>
<polygon fill="white" stroke="transparent" points="-4,4 -4,-252 835,-252 835,4 -4,4"/>
<!-- Node1 -->
<g id="node1" class="node">
<title>Node1</title>
<g id="a_node1"><a xlink:title=" ">
<polygon fill="#bfbfbf" stroke="black" points="0,-152.5 0,-171.5 128,-171.5 128,-152.5 0,-152.5"/>
<text text-anchor="middle" x="64" y="-159.5" font-family="Helvetica,sans-Serif" font-size="10.00">xml_load_and_set_env</text>
</a>
</g>
</g>
<!-- Node2 -->
<g id="node2" class="node">
<title>Node2</title>
<g id="a_node2"><a xlink:href="group__engine.html#ga8679d9b303f36964bf51dba0993caeaa" target="_top" xlink:title=" ">
<polygon fill="white" stroke="black" points="170.5,-190.5 170.5,-209.5 276.5,-209.5 276.5,-190.5 170.5,-190.5"/>
<text text-anchor="middle" x="223.5" y="-197.5" font-family="Helvetica,sans-Serif" font-size="10.00">env_load_defaults</text>
</a>
</g>
</g>
<!-- Node1&#45;&gt;Node2 -->
<g id="edge1" class="edge">
<title>Node1&#45;&gt;Node2</title>
<path fill="none" stroke="midnightblue" d="M104.74,-171.59C125.53,-176.6 151.16,-182.79 173.2,-188.11"/>
<polygon fill="midnightblue" stroke="midnightblue" points="172.5,-191.54 183.04,-190.48 174.14,-184.73 172.5,-191.54"/>
</g>
<!-- Node3 -->
<g id="node3" class="node">
<title>Node3</title>
<g id="a_node3"><a xlink:href="group__xml.html#gac937a83a82258806ef77b02f97ef0834" target="_top" xlink:title=" ">
<polygon fill="white" stroke="black" points="164,-152.5 164,-171.5 283,-171.5 283,-152.5 164,-152.5"/>
<text text-anchor="middle" x="223.5" y="-159.5" font-family="Helvetica,sans-Serif" font-size="10.00">operations_load_xml</text>
</a>
</g>
</g>
<!-- Node1&#45;&gt;Node3 -->
<g id="edge2" class="edge">
<title>Node1&#45;&gt;Node3</title>
<path fill="none" stroke="midnightblue" d="M128.15,-162C136.55,-162 145.19,-162 153.68,-162"/>
<polygon fill="midnightblue" stroke="midnightblue" points="153.93,-165.5 163.93,-162 153.93,-158.5 153.93,-165.5"/>
</g>
<!-- Node9 -->
<g id="node9" class="node">
<title>Node9</title>
<g id="a_node9"><a xlink:href="group___operations.html#ga887f20c10a27832ea24178203a47fcc2" target="_top" xlink:title=" ">
<polygon fill="white" stroke="black" points="171,-76.5 171,-95.5 276,-95.5 276,-76.5 171,-76.5"/>
<text text-anchor="middle" x="223.5" y="-83.5" font-family="Helvetica,sans-Serif" font-size="10.00">operations_render</text>
</a>
</g>
</g>
<!-- Node1&#45;&gt;Node9 -->
<g id="edge10" class="edge">
<title>Node1&#45;&gt;Node9</title>
<path fill="none" stroke="midnightblue" d="M84.95,-152.37C112.4,-139.13 162.01,-115.19 193.55,-99.97"/>
<polygon fill="midnightblue" stroke="midnightblue" points="195.23,-103.05 202.71,-95.55 192.19,-96.74 195.23,-103.05"/>
</g>
<!-- Node4 -->
<g id="node4" class="node">
<title>Node4</title>
<g id="a_node4"><a xlink:href="group___groups.html#ga72c2d5ef943a89f829c08f6707e7669d" target="_top" xlink:title=" ">
<polygon fill="white" stroke="black" points="319,-190.5 319,-209.5 454,-209.5 454,-190.5 319,-190.5"/>
<text text-anchor="middle" x="386.5" y="-197.5" font-family="Helvetica,sans-Serif" font-size="10.00">operations_push_groups</text>
</a>
</g>
</g>
<!-- Node3&#45;&gt;Node4 -->
<g id="edge3" class="edge">
<title>Node3&#45;&gt;Node4</title>
<path fill="none" stroke="midnightblue" d="M265.13,-171.59C286.47,-176.63 312.81,-182.84 335.41,-188.18"/>
<polygon fill="midnightblue" stroke="midnightblue" points="334.63,-191.59 345.17,-190.48 336.24,-184.78 334.63,-191.59"/>
</g>
<!-- Node8 -->
<g id="node8" class="node">
<title>Node8</title>
<g id="a_node8"><a xlink:href="group___transforms.html#gaa15fe56d7980e7877845f3bc09125017" target="_top" xlink:title=" ">
<polygon fill="white" stroke="black" points="681,-163 681,-193 831,-193 831,-163 681,-163"/>
<text text-anchor="start" x="689" y="-181" font-family="Helvetica,sans-Serif" font-size="10.00">operations_push_transform</text>
<text text-anchor="middle" x="756" y="-170" font-family="Helvetica,sans-Serif" font-size="10.00">_attributes</text>
</a>
</g>
</g>
<!-- Node3&#45;&gt;Node8 -->
<g id="edge9" class="edge">
<title>Node3&#45;&gt;Node8</title>
<path fill="none" stroke="midnightblue" d="M283.04,-163.77C377.02,-166.6 561.95,-172.18 670.32,-175.45"/>
<polygon fill="midnightblue" stroke="midnightblue" points="670.46,-178.95 680.56,-175.75 670.67,-171.95 670.46,-178.95"/>
</g>
<!-- Node4&#45;&gt;Node4 -->
<g id="edge4" class="edge">
<title>Node4&#45;&gt;Node4</title>
<path fill="none" stroke="midnightblue" d="M361.53,-209.76C349.38,-218.57 357.71,-228 386.5,-228 405.85,-228 415.95,-223.74 416.81,-218.27"/>
<polygon fill="midnightblue" stroke="midnightblue" points="419.75,-216.37 411.47,-209.76 413.82,-220.09 419.75,-216.37"/>
</g>
<!-- Node5 -->
<g id="node5" class="node">
<title>Node5</title>
<g id="a_node5"><a xlink:href="group___models.html#gaca17d77a06e750f5cd95c1b79e1a8a30" target="_top" xlink:title=" ">
<polygon fill="white" stroke="black" points="498.5,-228.5 498.5,-247.5 636.5,-247.5 636.5,-228.5 498.5,-228.5"/>
<text text-anchor="middle" x="567.5" y="-235.5" font-family="Helvetica,sans-Serif" font-size="10.00">operations_push_models</text>
</a>
</g>
</g>
<!-- Node4&#45;&gt;Node5 -->
<g id="edge5" class="edge">
<title>Node4&#45;&gt;Node5</title>
<path fill="none" stroke="midnightblue" d="M432.67,-209.59C456.72,-214.69 486.47,-221.01 511.82,-226.39"/>
<polygon fill="midnightblue" stroke="midnightblue" points="511.15,-229.83 521.66,-228.48 512.6,-222.98 511.15,-229.83"/>
</g>
<!-- Node7 -->
<g id="node7" class="node">
<title>Node7</title>
<g id="a_node7"><a xlink:href="group___transforms.html#gaaa78b92f0257bb4755731622692de0cb" target="_top" xlink:title=" ">
<polygon fill="white" stroke="black" points="490,-190.5 490,-209.5 645,-209.5 645,-190.5 490,-190.5"/>
<text text-anchor="middle" x="567.5" y="-197.5" font-family="Helvetica,sans-Serif" font-size="10.00">operations_push_transforms</text>
</a>
</g>
</g>
<!-- Node4&#45;&gt;Node7 -->
<g id="edge7" class="edge">
<title>Node4&#45;&gt;Node7</title>
<path fill="none" stroke="midnightblue" d="M454.15,-200C462.51,-200 471.16,-200 479.77,-200"/>
<polygon fill="midnightblue" stroke="midnightblue" points="479.84,-203.5 489.84,-200 479.84,-196.5 479.84,-203.5"/>
</g>
<!-- Node6 -->
<g id="node6" class="node">
<title>Node6</title>
<g id="a_node6"><a xlink:href="group___models.html#ga5dc84f3f40c0bb6ad63dc2da3793ddd9" target="_top" xlink:title=" ">
<polygon fill="white" stroke="black" points="689.5,-228.5 689.5,-247.5 822.5,-247.5 822.5,-228.5 689.5,-228.5"/>
<text text-anchor="middle" x="756" y="-235.5" font-family="Helvetica,sans-Serif" font-size="10.00">operations_push_model</text>
</a>
</g>
</g>
<!-- Node5&#45;&gt;Node6 -->
<g id="edge6" class="edge">
<title>Node5&#45;&gt;Node6</title>
<path fill="none" stroke="midnightblue" d="M636.62,-238C650.44,-238 665.05,-238 679.11,-238"/>
<polygon fill="midnightblue" stroke="midnightblue" points="679.24,-241.5 689.24,-238 679.24,-234.5 679.24,-241.5"/>
</g>
<!-- Node7&#45;&gt;Node8 -->
<g id="edge8" class="edge">
<title>Node7&#45;&gt;Node8</title>
<path fill="none" stroke="midnightblue" d="M645.16,-190.96C653.61,-189.96 662.25,-188.94 670.78,-187.93"/>
<polygon fill="midnightblue" stroke="midnightblue" points="671.22,-191.41 680.74,-186.76 670.4,-184.46 671.22,-191.41"/>
</g>
<!-- Node10 -->
<g id="node10" class="node">
<title>Node10</title>
<g id="a_node10"><a xlink:href="group__model_engine.html#ga56beba311d0a6fcbda9aeb516fe67f8f" target="_top" xlink:title=" ">
<polygon fill="white" stroke="black" points="351.5,-114.5 351.5,-133.5 421.5,-133.5 421.5,-114.5 351.5,-114.5"/>
<text text-anchor="middle" x="386.5" y="-121.5" font-family="Helvetica,sans-Serif" font-size="10.00">allocModel</text>
</a>
</g>
</g>
<!-- Node9&#45;&gt;Node10 -->
<g id="edge11" class="edge">
<title>Node9&#45;&gt;Node10</title>
<path fill="none" stroke="midnightblue" d="M265.13,-95.59C288.44,-101.09 317.72,-108 341.56,-113.63"/>
<polygon fill="midnightblue" stroke="midnightblue" points="340.88,-117.06 351.42,-115.96 342.49,-110.25 340.88,-117.06"/>
</g>
<!-- Node11 -->
<g id="node11" class="node">
<title>Node11</title>
<g id="a_node11"><a xlink:href="group__spherical.html#ga2a22d15f7463ccd8f8d1aa65e7578983" target="_top" xlink:title=" ">
<polygon fill="white" stroke="black" points="330,-76.5 330,-95.5 443,-95.5 443,-76.5 330,-76.5"/>
<text text-anchor="middle" x="386.5" y="-83.5" font-family="Helvetica,sans-Serif" font-size="10.00">cartesian2Spherical</text>
</a>
</g>
</g>
<!-- Node9&#45;&gt;Node11 -->
<g id="edge12" class="edge">
<title>Node9&#45;&gt;Node11</title>
<path fill="none" stroke="midnightblue" d="M276.33,-86C290.09,-86 305.13,-86 319.53,-86"/>
<polygon fill="midnightblue" stroke="midnightblue" points="319.88,-89.5 329.88,-86 319.88,-82.5 319.88,-89.5"/>
</g>
<!-- Node12 -->
<g id="node12" class="node">
<title>Node12</title>
<g id="a_node12"><a xlink:href="group__model_engine.html#gae7de75a0850ac9069b4a3710b63a102c" target="_top" xlink:title=" ">
<polygon fill="white" stroke="black" points="347.5,-38.5 347.5,-57.5 425.5,-57.5 425.5,-38.5 347.5,-38.5"/>
<text text-anchor="middle" x="386.5" y="-45.5" font-family="Helvetica,sans-Serif" font-size="10.00">renderModel</text>
</a>
</g>
</g>
<!-- Node9&#45;&gt;Node12 -->
<g id="edge13" class="edge">
<title>Node9&#45;&gt;Node12</title>
<path fill="none" stroke="midnightblue" d="M265.13,-76.41C287.12,-71.22 314.42,-64.78 337.46,-59.34"/>
<polygon fill="midnightblue" stroke="midnightblue" points="338.45,-62.7 347.38,-57 336.84,-55.89 338.45,-62.7"/>
</g>
<!-- Node13 -->
<g id="node13" class="node">
<title>Node13</title>
<g id="a_node13"><a xlink:href="group__engine.html#ga260fbd3d70764684657bbf1a617ddf99" target="_top" xlink:title=" ">
<polygon fill="white" stroke="black" points="349.5,-0.5 349.5,-19.5 423.5,-19.5 423.5,-0.5 349.5,-0.5"/>
<text text-anchor="middle" x="386.5" y="-7.5" font-family="Helvetica,sans-Serif" font-size="10.00">vbo_indices</text>
</a>
</g>
</g>
<!-- Node9&#45;&gt;Node13 -->
<g id="edge14" class="edge">
<title>Node9&#45;&gt;Node13</title>
<path fill="none" stroke="midnightblue" d="M237.97,-76.3C255.76,-63.86 288.43,-42.3 319,-29 325.44,-26.2 332.4,-23.69 339.31,-21.48"/>
<polygon fill="midnightblue" stroke="midnightblue" points="340.78,-24.69 349.34,-18.46 338.76,-17.99 340.78,-24.69"/>
</g>
</g>
</svg>
