<?xml version="1.0" encoding="UTF-8" standalone="no"?>
<!DOCTYPE svg PUBLIC "-//W3C//DTD SVG 1.1//EN"
 "http://www.w3.org/Graphics/SVG/1.1/DTD/svg11.dtd">
<!-- Generated by graphviz version 3.0.0 (0)
 -->
<!-- Title: operations_load_xml Pages: 1 -->
<!--zoomable 203 -->
<svg id="main" version="1.1" xmlns="http://www.w3.org/2000/svg" xmlns:xlink="http://www.w3.org/1999/xlink" xml:space="preserve" onload="init(evt)">
<style type="text/css"><![CDATA[
.edge:hover path { stroke: red; }
.edge:hover polygon { stroke: red; fill: red; }
]]></style>
<script type="text/javascript"><![CDATA[
var edges = document.getElementsByTagName('g');
if (edges && edges.length) {
  for (var i=0;i<edges.length;i++) {
    if (edges[i].id.substr(0,4)=='edge') {
      edges[i].setAttribute('class','edge');
    }
  }
}
]]></script>
        <defs>
                <circle id="rim" cx="0" cy="0" r="7"/>
                <circle id="rim2" cx="0" cy="0" r="3.5"/>
                <g id="zoomPlus">
                        <use xlink:href="#rim" fill="#404040">
                                <set attributeName="fill" to="#808080" begin="zoomplus.mouseover" end="zoomplus.mouseout"/>
                        </use>
                        <path d="M-4,0h8M0,-4v8" fill="none" stroke="white" stroke-width="1.5" pointer-events="none"/>
                </g>
                <g id="zoomMin">
                        <use xlink:href="#rim" fill="#404040">
                                <set attributeName="fill" to="#808080" begin="zoomminus.mouseover" end="zoomminus.mouseout"/>
                        </use>
                        <path d="M-4,0h8" fill="none" stroke="white" stroke-width="1.5" pointer-events="none"/>
                </g>
                <g id="dirArrow">
                        <path fill="none" stroke="white" stroke-width="1.5" d="M0,-3.0v7 M-2.5,-0.5L0,-3.0L2.5,-0.5"/>
                </g>
               <g id="resetDef">
                       <use xlink:href="#rim2" fill="#404040">
                               <set attributeName="fill" to="#808080" begin="reset.mouseover" end="reset.mouseout"/>
                       </use>
               </g>
        </defs>

<script type="text/javascript">
var viewWidth = 1070;
var viewHeight = 203;
var sectionId = 'dynsection-1';
</script>
<script xlink:href="svgpan.js"/>
<svg id="graph" class="graph">
<g id="viewport">
<title>operations_load_xml</title>
<polygon fill="white" stroke="transparent" points="-4,4 -4,-198.5 1066,-198.5 1066,4 -4,4"/>
<!-- Node1 -->
<g id="node1" class="node">
<title>Node1</title>
<g id="a_node1"><a xlink:title=" ">
<polygon fill="#bfbfbf" stroke="black" points="0,-38.5 0,-57.5 119,-57.5 119,-38.5 0,-38.5"/>
<text text-anchor="middle" x="59.5" y="-45.5" font-family="Helvetica,sans-Serif" font-size="10.00">operations_load_xml</text>
</a>
</g>
</g>
<!-- Node2 -->
<g id="node2" class="node">
<title>Node2</title>
<g id="a_node2"><a xlink:href="group___groups.html#ga2729bcb63525027c28b0107fe17d3a06" target="_top" xlink:title=" ">
<polygon fill="white" stroke="black" points="155,-83.5 155,-102.5 290,-102.5 290,-83.5 155,-83.5"/>
<text text-anchor="middle" x="222.5" y="-90.5" font-family="Helvetica,sans-Serif" font-size="10.00">operations_push_groups</text>
</a>
</g>
</g>
<!-- Node1&#45;&gt;Node2 -->
<g id="edge1" class="edge">
<title>Node1&#45;&gt;Node2</title>
<path fill="none" stroke="midnightblue" d="M94.64,-57.54C118.87,-64.31 151.6,-73.46 177.74,-80.77"/>
<polygon fill="midnightblue" stroke="midnightblue" points="176.83,-84.15 187.41,-83.47 178.72,-77.41 176.83,-84.15"/>
</g>
<!-- Node9 -->
<g id="node9" class="node">
<title>Node9</title>
<g id="a_node9"><a xlink:href="group___transforms.html#gaa8e01339ca5863980bb193197d4781e2" target="_top" xlink:title=" ">
<polygon fill="white" stroke="black" points="912,-71 912,-101 1062,-101 1062,-71 912,-71"/>
<text text-anchor="start" x="920" y="-89" font-family="Helvetica,sans-Serif" font-size="10.00">operations_push_transform</text>
<text text-anchor="middle" x="987" y="-78" font-family="Helvetica,sans-Serif" font-size="10.00">_attributes</text>
</a>
</g>
</g>
<!-- Node1&#45;&gt;Node9 -->
<g id="edge12" class="edge">
<title>Node1&#45;&gt;Node9</title>
<path fill="none" stroke="midnightblue" d="M119.2,-48C187.33,-48 303.05,-48 402.5,-48 402.5,-48 402.5,-48 605.5,-48 707.79,-48 824.79,-61.77 901.73,-72.73"/>
<polygon fill="midnightblue" stroke="midnightblue" points="901.45,-76.22 911.85,-74.18 902.45,-69.29 901.45,-76.22"/>
</g>
<!-- Node10 -->
<g id="node10" class="node">
<title>Node10</title>
<g id="a_node10"><a xlink:href="group__xml.html#gadda1aacffc4688669d0253cec56f849b" target="_top" xlink:title=" ">
<polygon fill="white" stroke="black" points="158,-0.5 158,-19.5 287,-19.5 287,-0.5 158,-0.5"/>
<text text-anchor="middle" x="222.5" y="-7.5" font-family="Helvetica,sans-Serif" font-size="10.00">operations_push_lights</text>
</a>
</g>
</g>
<!-- Node1&#45;&gt;Node10 -->
<g id="edge11" class="edge">
<title>Node1&#45;&gt;Node10</title>
<path fill="none" stroke="midnightblue" d="M101.13,-38.41C122.47,-33.37 148.81,-27.16 171.41,-21.82"/>
<polygon fill="midnightblue" stroke="midnightblue" points="172.24,-25.22 181.17,-19.52 170.63,-18.41 172.24,-25.22"/>
</g>
<!-- Node2&#45;&gt;Node2 -->
<g id="edge2" class="edge">
<title>Node2&#45;&gt;Node2</title>
<path fill="none" stroke="midnightblue" d="M197.53,-102.76C185.38,-111.57 193.71,-121 222.5,-121 241.85,-121 251.95,-116.74 252.81,-111.27"/>
<polygon fill="midnightblue" stroke="midnightblue" points="255.75,-109.37 247.47,-102.76 249.82,-113.09 255.75,-109.37"/>
</g>
<!-- Node3 -->
<g id="node3" class="node">
<title>Node3</title>
<g id="a_node3"><a xlink:href="group___models.html#gaf4f69faf6a2c6db692bd0f742c08ca17" target="_top" xlink:title=" ">
<polygon fill="white" stroke="black" points="334.5,-135.5 334.5,-154.5 472.5,-154.5 472.5,-135.5 334.5,-135.5"/>
<text text-anchor="middle" x="403.5" y="-142.5" font-family="Helvetica,sans-Serif" font-size="10.00">operations_push_models</text>
</a>
</g>
</g>
<!-- Node2&#45;&gt;Node3 -->
<g id="edge3" class="edge">
<title>Node2&#45;&gt;Node3</title>
<path fill="none" stroke="midnightblue" d="M256.33,-102.54C285.38,-110.98 327.97,-123.35 359.69,-132.56"/>
<polygon fill="midnightblue" stroke="midnightblue" points="358.99,-136.01 369.57,-135.43 360.95,-129.28 358.99,-136.01"/>
</g>
<!-- Node6 -->
<g id="node6" class="node">
<title>Node6</title>
<g id="a_node6"><a xlink:href="group___transforms.html#gab74408a65711c19872c69797a55c6229" target="_top" xlink:title=" ">
<polygon fill="white" stroke="black" points="326,-83.5 326,-102.5 481,-102.5 481,-83.5 326,-83.5"/>
<text text-anchor="middle" x="403.5" y="-90.5" font-family="Helvetica,sans-Serif" font-size="10.00">operations_push_transforms</text>
</a>
</g>
</g>
<!-- Node2&#45;&gt;Node6 -->
<g id="edge6" class="edge">
<title>Node2&#45;&gt;Node6</title>
<path fill="none" stroke="midnightblue" d="M290.15,-93C298.51,-93 307.16,-93 315.77,-93"/>
<polygon fill="midnightblue" stroke="midnightblue" points="315.84,-96.5 325.84,-93 315.84,-89.5 315.84,-96.5"/>
</g>
<!-- Node4 -->
<g id="node4" class="node">
<title>Node4</title>
<g id="a_node4"><a xlink:href="group___models.html#ga9c6066851b617631703c06b7aa6f72ac" target="_top" xlink:title=" ">
<polygon fill="white" stroke="black" points="538,-162.5 538,-181.5 671,-181.5 671,-162.5 538,-162.5"/>
<text text-anchor="middle" x="604.5" y="-169.5" font-family="Helvetica,sans-Serif" font-size="10.00">operations_push_model</text>
</a>
</g>
</g>
<!-- Node3&#45;&gt;Node4 -->
<g id="edge4" class="edge">
<title>Node3&#45;&gt;Node4</title>
<path fill="none" stroke="midnightblue" d="M472.71,-154.25C490.46,-156.66 509.69,-159.27 527.8,-161.73"/>
<polygon fill="midnightblue" stroke="midnightblue" points="527.36,-165.2 537.74,-163.08 528.3,-158.26 527.36,-165.2"/>
</g>
<!-- Node5 -->
<g id="node5" class="node">
<title>Node5</title>
<g id="a_node5"><a xlink:href="group___models.html#gaa31dcad7bd49e781068f4d5f42734e2a" target="_top" xlink:title=" ">
<polygon fill="white" stroke="black" points="737,-164 737,-194 867,-194 867,-164 737,-164"/>
<text text-anchor="start" x="745" y="-182" font-family="Helvetica,sans-Serif" font-size="10.00">operations_push_string</text>
<text text-anchor="middle" x="802" y="-171" font-family="Helvetica,sans-Serif" font-size="10.00">_attribute</text>
</a>
</g>
</g>
<!-- Node4&#45;&gt;Node5 -->
<g id="edge5" class="edge">
<title>Node4&#45;&gt;Node5</title>
<path fill="none" stroke="midnightblue" d="M671.14,-174.35C689.02,-174.99 708.51,-175.69 726.82,-176.34"/>
<polygon fill="midnightblue" stroke="midnightblue" points="726.74,-179.84 736.86,-176.7 726.99,-172.85 726.74,-179.84"/>
</g>
<!-- Node7 -->
<g id="node7" class="node">
<title>Node7</title>
<g id="a_node7"><a xlink:href="group___transforms.html#ga9b8048838c7a406b93e9677dd9cb4373" target="_top" xlink:title=" ">
<polygon fill="white" stroke="black" points="517,-83.5 517,-102.5 692,-102.5 692,-83.5 517,-83.5"/>
<text text-anchor="middle" x="604.5" y="-90.5" font-family="Helvetica,sans-Serif" font-size="10.00">operations_push_transformation</text>
</a>
</g>
</g>
<!-- Node6&#45;&gt;Node7 -->
<g id="edge7" class="edge">
<title>Node6&#45;&gt;Node7</title>
<path fill="none" stroke="midnightblue" d="M481.15,-93C489.57,-93 498.23,-93 506.85,-93"/>
<polygon fill="midnightblue" stroke="midnightblue" points="506.94,-96.5 516.94,-93 506.94,-89.5 506.94,-96.5"/>
</g>
<!-- Node8 -->
<g id="node8" class="node">
<title>Node8</title>
<g id="a_node8"><a xlink:href="group___transforms.html#ga34490f49c910f6ad0b3b39d97ca6991f" target="_top" xlink:title=" ">
<polygon fill="white" stroke="black" points="728,-115 728,-145 876,-145 876,-115 728,-115"/>
<text text-anchor="start" x="736" y="-133" font-family="Helvetica,sans-Serif" font-size="10.00">operations_push_extended</text>
<text text-anchor="middle" x="802" y="-122" font-family="Helvetica,sans-Serif" font-size="10.00">_translate_attributes</text>
</a>
</g>
</g>
<!-- Node7&#45;&gt;Node8 -->
<g id="edge8" class="edge">
<title>Node7&#45;&gt;Node8</title>
<path fill="none" stroke="midnightblue" d="M655.85,-102.53C674.79,-106.11 696.88,-110.29 718.02,-114.29"/>
<polygon fill="midnightblue" stroke="midnightblue" points="717.5,-117.76 727.97,-116.18 718.8,-110.88 717.5,-117.76"/>
</g>
<!-- Node7&#45;&gt;Node9 -->
<g id="edge10" class="edge">
<title>Node7&#45;&gt;Node9</title>
<path fill="none" stroke="midnightblue" d="M692.32,-91.4C755.06,-90.25 839.38,-88.7 901.57,-87.55"/>
<polygon fill="midnightblue" stroke="midnightblue" points="901.81,-91.05 911.74,-87.37 901.68,-84.05 901.81,-91.05"/>
</g>
<!-- Node8&#45;&gt;Node9 -->
<g id="edge9" class="edge">
<title>Node8&#45;&gt;Node9</title>
<path fill="none" stroke="midnightblue" d="M865.47,-114.98C880.99,-111.25 897.75,-107.22 913.7,-103.38"/>
<polygon fill="midnightblue" stroke="midnightblue" points="914.6,-106.77 923.5,-101.03 912.96,-99.96 914.6,-106.77"/>
</g>
</g>
</svg>
        <g id="navigator" transform="translate(0 0)" fill="#404254">
                <rect fill="#f2f5e9" fill-opacity="0.5" stroke="#606060" stroke-width=".5" x="0" y="0" width="60" height="60"/>
                <use id="zoomplus" xlink:href="#zoomPlus" x="17" y="9" onmousedown="handleZoom(evt,'in')"/>
                <use id="zoomminus" xlink:href="#zoomMin" x="42" y="9" onmousedown="handleZoom(evt,'out')"/>
                <use id="reset" xlink:href="#resetDef" x="30" y="36" onmousedown="handleReset()"/>
                <g id="arrowUp" xlink:href="#dirArrow" transform="translate(30 24)" onmousedown="handlePan(0,-1)">
                  <use xlink:href="#rim" fill="#404040">
                        <set attributeName="fill" to="#808080" begin="arrowUp.mouseover" end="arrowUp.mouseout"/>
                  </use>
                  <path fill="none" stroke="white" stroke-width="1.5" d="M0,-3.0v7 M-2.5,-0.5L0,-3.0L2.5,-0.5"/>
                </g>
                <g id="arrowRight" xlink:href="#dirArrow" transform="rotate(90) translate(36 -43)" onmousedown="handlePan(1,0)">
                  <use xlink:href="#rim" fill="#404040">
                        <set attributeName="fill" to="#808080" begin="arrowRight.mouseover" end="arrowRight.mouseout"/>
                  </use>
                  <path fill="none" stroke="white" stroke-width="1.5" d="M0,-3.0v7 M-2.5,-0.5L0,-3.0L2.5,-0.5"/>
                </g>
                <g id="arrowDown" xlink:href="#dirArrow" transform="rotate(180) translate(-30 -48)" onmousedown="handlePan(0,1)">
                  <use xlink:href="#rim" fill="#404040">
                        <set attributeName="fill" to="#808080" begin="arrowDown.mouseover" end="arrowDown.mouseout"/>
                  </use>
                  <path fill="none" stroke="white" stroke-width="1.5" d="M0,-3.0v7 M-2.5,-0.5L0,-3.0L2.5,-0.5"/>
                </g>
                <g id="arrowLeft" xlink:href="#dirArrow" transform="rotate(270) translate(-36 17)" onmousedown="handlePan(-1,0)">
                  <use xlink:href="#rim" fill="#404040">
                        <set attributeName="fill" to="#808080" begin="arrowLeft.mouseover" end="arrowLeft.mouseout"/>
                  </use>
                  <path fill="none" stroke="white" stroke-width="1.5" d="M0,-3.0v7 M-2.5,-0.5L0,-3.0L2.5,-0.5"/>
                </g>
        </g>
        <svg viewBox="0 0 15 15" width="100%" height="30px" preserveAspectRatio="xMaxYMin meet">
         <g id="arrow_out" transform="scale(0.3 0.3)">
          <a xlink:href="group__xml_gad700972f3f382c3cc5658ce95361ad0e_cgraph_org.svg" target="_base">
           <rect id="button" ry="5" rx="5" y="6" x="6" height="38" width="38"
                fill="#f2f5e9" fill-opacity="0.5" stroke="#606060" stroke-width="1.0"/>
           <path id="arrow"
             d="M 11.500037,31.436501 C 11.940474,20.09759 22.043105,11.32322 32.158766,21.979434 L 37.068811,17.246167 C 37.068811,17.246167 37.088388,32 37.088388,32 L 22.160133,31.978069 C 22.160133,31.978069 26.997745,27.140456 26.997745,27.140456 C 18.528582,18.264221 13.291696,25.230495 11.500037,31.436501 z"
             style="fill:#404040;"/>
          </a>
         </g>
        </svg>
</svg>
