<?xml version="1.0" encoding="UTF-8" standalone="no"?>
<!DOCTYPE svg PUBLIC "-//W3C//DTD SVG 1.1//EN"
 "http://www.w3.org/Graphics/SVG/1.1/DTD/svg11.dtd">
<!-- Generated by graphviz version 3.0.0 (0)
 -->
<!-- Title: main Pages: 1 -->
<!--zoomable 694 -->
<svg id="main" version="1.1" xmlns="http://www.w3.org/2000/svg" xmlns:xlink="http://www.w3.org/1999/xlink" xml:space="preserve" onload="init(evt)">
<style type="text/css"><![CDATA[
.edge:hover path { stroke: red; }
.edge:hover polygon { stroke: red; fill: red; }
]]></style>
<script type="text/javascript"><![CDATA[
var edges = document.getElementsByTagName('g');
if (edges && edges.length) {
  for (var i=0;i<edges.length;i++) {
    if (edges[i].id.substr(0,4)=='edge') {
      edges[i].setAttribute('class','edge');
    }
  }
}
]]></script>
        <defs>
                <circle id="rim" cx="0" cy="0" r="7"/>
                <circle id="rim2" cx="0" cy="0" r="3.5"/>
                <g id="zoomPlus">
                        <use xlink:href="#rim" fill="#404040">
                                <set attributeName="fill" to="#808080" begin="zoomplus.mouseover" end="zoomplus.mouseout"/>
                        </use>
                        <path d="M-4,0h8M0,-4v8" fill="none" stroke="white" stroke-width="1.5" pointer-events="none"/>
                </g>
                <g id="zoomMin">
                        <use xlink:href="#rim" fill="#404040">
                                <set attributeName="fill" to="#808080" begin="zoomminus.mouseover" end="zoomminus.mouseout"/>
                        </use>
                        <path d="M-4,0h8" fill="none" stroke="white" stroke-width="1.5" pointer-events="none"/>
                </g>
                <g id="dirArrow">
                        <path fill="none" stroke="white" stroke-width="1.5" d="M0,-3.0v7 M-2.5,-0.5L0,-3.0L2.5,-0.5"/>
                </g>
               <g id="resetDef">
                       <use xlink:href="#rim2" fill="#404040">
                               <set attributeName="fill" to="#808080" begin="reset.mouseover" end="reset.mouseout"/>
                       </use>
               </g>
        </defs>

<script type="text/javascript">
var viewWidth = 1111;
var viewHeight = 694;
var sectionId = 'dynsection-3';
</script>
<script xlink:href="svgpan.js"/>
<svg id="graph" class="graph">
<g id="viewport">
<title>main</title>
<polygon fill="white" stroke="transparent" points="-4,4 -4,-690 1107,-690 1107,4 -4,4"/>
<!-- Node1 -->
<g id="node1" class="node">
<title>Node1</title>
<g id="a_node1"><a xlink:title=" ">
<polygon fill="#bfbfbf" stroke="black" points="0,-426.5 0,-445.5 41,-445.5 41,-426.5 0,-426.5"/>
<text text-anchor="middle" x="20.5" y="-433.5" font-family="Helvetica,sans-Serif" font-size="10.00">main</text>
</a>
</g>
</g>
<!-- Node2 -->
<g id="node2" class="node">
<title>Node2</title>
<g id="a_node2"><a xlink:href="group__engine.html#ga98eaf946471acbd931de5d52ca83b3d1" target="_top" xlink:title=" ">
<polygon fill="white" stroke="black" points="77,-426.5 77,-445.5 148,-445.5 148,-426.5 77,-426.5"/>
<text text-anchor="middle" x="112.5" y="-433.5" font-family="Helvetica,sans-Serif" font-size="10.00">engine_run</text>
</a>
</g>
</g>
<!-- Node1&#45;&gt;Node2 -->
<g id="edge1" class="edge">
<title>Node1&#45;&gt;Node2</title>
<path fill="none" stroke="midnightblue" d="M41.03,-436C48.62,-436 57.64,-436 66.66,-436"/>
<polygon fill="midnightblue" stroke="midnightblue" points="66.77,-439.5 76.77,-436 66.77,-432.5 66.77,-439.5"/>
</g>
<!-- Node3 -->
<g id="node3" class="node">
<title>Node3</title>
<g id="a_node3"><a xlink:href="group__camera.html#ga4eec7d736381fd000f84ccb4f2d844da" target="_top" xlink:title=" ">
<polygon fill="white" stroke="black" points="373,-464.5 373,-483.5 442,-483.5 442,-464.5 373,-464.5"/>
<text text-anchor="middle" x="407.5" y="-471.5" font-family="Helvetica,sans-Serif" font-size="10.00">loadProfile</text>
</a>
</g>
</g>
<!-- Node2&#45;&gt;Node3 -->
<g id="edge2" class="edge">
<title>Node2&#45;&gt;Node3</title>
<path fill="none" stroke="midnightblue" d="M144.12,-445.53C156.4,-449.01 170.77,-452.67 184,-455 245.46,-465.82 317.59,-470.54 362.68,-472.56"/>
<polygon fill="midnightblue" stroke="midnightblue" points="362.57,-476.06 372.71,-472.98 362.87,-469.07 362.57,-476.06"/>
</g>
<!-- Node4 -->
<g id="node4" class="node">
<title>Node4</title>
<g id="a_node4"><a xlink:href="group__engine.html#ga91c42686f3245f22fb6b17ba5372d92c" target="_top" xlink:title=" ">
<polygon fill="white" stroke="black" points="209.5,-426.5 209.5,-445.5 286.5,-445.5 286.5,-426.5 209.5,-426.5"/>
<text text-anchor="middle" x="248" y="-433.5" font-family="Helvetica,sans-Serif" font-size="10.00">renderScene</text>
</a>
</g>
</g>
<!-- Node2&#45;&gt;Node4 -->
<g id="edge3" class="edge">
<title>Node2&#45;&gt;Node4</title>
<path fill="none" stroke="midnightblue" d="M148.23,-436C163.71,-436 182.2,-436 198.98,-436"/>
<polygon fill="midnightblue" stroke="midnightblue" points="199.16,-439.5 209.16,-436 199.16,-432.5 199.16,-439.5"/>
</g>
<!-- Node24 -->
<g id="node24" class="node">
<title>Node24</title>
<g id="a_node24"><a xlink:href="group__engine.html#ga7148688af5abea686f74d15a50bd20ae" target="_top" xlink:title=" ">
<polygon fill="white" stroke="black" points="184,-331.5 184,-350.5 312,-350.5 312,-331.5 184,-331.5"/>
<text text-anchor="middle" x="248" y="-338.5" font-family="Helvetica,sans-Serif" font-size="10.00">xml_load_and_set_env</text>
</a>
</g>
</g>
<!-- Node2&#45;&gt;Node24 -->
<g id="edge25" class="edge">
<title>Node2&#45;&gt;Node24</title>
<path fill="none" stroke="midnightblue" d="M127.28,-426.19C150.49,-409.68 197.52,-376.21 225.23,-356.49"/>
<polygon fill="midnightblue" stroke="midnightblue" points="227.37,-359.26 233.49,-350.61 223.31,-353.56 227.37,-359.26"/>
</g>
<!-- Node4&#45;&gt;Node3 -->
<g id="edge5" class="edge">
<title>Node4&#45;&gt;Node3</title>
<path fill="none" stroke="midnightblue" d="M286.73,-445.1C309.66,-450.64 339.03,-457.72 362.95,-463.49"/>
<polygon fill="midnightblue" stroke="midnightblue" points="362.29,-466.93 372.83,-465.88 363.93,-460.13 362.29,-466.93"/>
</g>
<!-- Node5 -->
<g id="node5" class="node">
<title>Node5</title>
<g id="a_node5"><a xlink:href="engine_8cpp.html#a634dba686e70e7ff3f10c37d11f463da" target="_top" xlink:title=" ">
<polygon fill="white" stroke="black" points="373,-426.5 373,-445.5 442,-445.5 442,-426.5 373,-426.5"/>
<text text-anchor="middle" x="407.5" y="-433.5" font-family="Helvetica,sans-Serif" font-size="10.00">draw_axes</text>
</a>
</g>
</g>
<!-- Node4&#45;&gt;Node5 -->
<g id="edge4" class="edge">
<title>Node4&#45;&gt;Node5</title>
<path fill="none" stroke="midnightblue" d="M286.73,-436C309.56,-436 338.77,-436 362.63,-436"/>
<polygon fill="midnightblue" stroke="midnightblue" points="362.83,-439.5 372.83,-436 362.83,-432.5 362.83,-439.5"/>
</g>
<!-- Node6 -->
<g id="node6" class="node">
<title>Node6</title>
<g id="a_node6"><a xlink:href="group___operations.html#ga8d5a19a3522cea1b4254684cf6515d13" target="_top" xlink:title=" ">
<polygon fill="white" stroke="black" points="355,-388.5 355,-407.5 460,-407.5 460,-388.5 355,-388.5"/>
<text text-anchor="middle" x="407.5" y="-395.5" font-family="Helvetica,sans-Serif" font-size="10.00">operations_render</text>
</a>
</g>
</g>
<!-- Node4&#45;&gt;Node6 -->
<g id="edge6" class="edge">
<title>Node4&#45;&gt;Node6</title>
<path fill="none" stroke="midnightblue" d="M286.73,-426.9C307.81,-421.81 334.34,-415.41 357.07,-409.93"/>
<polygon fill="midnightblue" stroke="midnightblue" points="357.98,-413.31 366.88,-407.56 356.34,-406.5 357.98,-413.31"/>
</g>
<!-- Node7 -->
<g id="node7" class="node">
<title>Node7</title>
<g id="a_node7"><a xlink:href="curves_8cpp.html#a821c8cbf0a47b918c60a4912b733e6bd" target="_top" xlink:title=" ">
<polygon fill="white" stroke="black" points="511,-502.5 511,-521.5 615,-521.5 615,-502.5 511,-502.5"/>
<text text-anchor="middle" x="563" y="-509.5" font-family="Helvetica,sans-Serif" font-size="10.00">advance_in_curve</text>
</a>
</g>
</g>
<!-- Node6&#45;&gt;Node7 -->
<g id="edge7" class="edge">
<title>Node6&#45;&gt;Node7</title>
<path fill="none" stroke="midnightblue" d="M451.51,-407.55C457.1,-410.02 462.46,-413.11 467,-417 493.88,-440 476.97,-464.04 503,-488 507.33,-491.98 512.4,-495.34 517.73,-498.17"/>
<polygon fill="midnightblue" stroke="midnightblue" points="516.3,-501.37 526.84,-502.45 519.27,-495.03 516.3,-501.37"/>
</g>
<!-- Node12 -->
<g id="node12" class="node">
<title>Node12</title>
<g id="a_node12"><a xlink:href="engine_8cpp.html#a072c434cfd125e58ac1cec9a5725688a" target="_top" xlink:title=" ">
<polygon fill="white" stroke="black" points="505,-426.5 505,-445.5 621,-445.5 621,-426.5 505,-426.5"/>
<text text-anchor="middle" x="563" y="-433.5" font-family="Helvetica,sans-Serif" font-size="10.00">advance_in_rotation</text>
</a>
</g>
</g>
<!-- Node6&#45;&gt;Node12 -->
<g id="edge12" class="edge">
<title>Node6&#45;&gt;Node12</title>
<path fill="none" stroke="midnightblue" d="M447.23,-407.59C467.4,-412.58 492.25,-418.73 513.66,-424.03"/>
<polygon fill="midnightblue" stroke="midnightblue" points="513,-427.47 523.54,-426.48 514.68,-420.68 513,-427.47"/>
</g>
<!-- Node13 -->
<g id="node13" class="node">
<title>Node13</title>
<g id="a_node13"><a xlink:href="group__model_engine.html#ga361bcac2814bb93f543d2c0f1b28b6d2" target="_top" xlink:title=" ">
<polygon fill="white" stroke="black" points="528,-666.5 528,-685.5 598,-685.5 598,-666.5 528,-666.5"/>
<text text-anchor="middle" x="563" y="-673.5" font-family="Helvetica,sans-Serif" font-size="10.00">allocModel</text>
</a>
</g>
</g>
<!-- Node6&#45;&gt;Node13 -->
<g id="edge13" class="edge">
<title>Node6&#45;&gt;Node13</title>
<path fill="none" stroke="midnightblue" d="M455.04,-407.5C459.56,-409.98 463.69,-413.09 467,-417 536.72,-499.3 433.18,-574.79 503,-657 507.16,-661.9 512.59,-665.55 518.47,-668.26"/>
<polygon fill="midnightblue" stroke="midnightblue" points="517.37,-671.58 527.97,-671.8 519.82,-665.02 517.37,-671.58"/>
</g>
<!-- Node14 -->
<g id="node14" class="node">
<title>Node14</title>
<g id="a_node14"><a xlink:href="group__model_engine.html#ga8c7329ae859a08eea53a77130ebe6018" target="_top" xlink:title=" ">
<polygon fill="white" stroke="black" points="505.5,-617 505.5,-647 620.5,-647 620.5,-617 505.5,-617"/>
<text text-anchor="start" x="513.5" y="-635" font-family="Helvetica,sans-Serif" font-size="10.00">associate_a_texture</text>
<text text-anchor="middle" x="563" y="-624" font-family="Helvetica,sans-Serif" font-size="10.00">_to_model</text>
</a>
</g>
</g>
<!-- Node6&#45;&gt;Node14 -->
<g id="edge14" class="edge">
<title>Node6&#45;&gt;Node14</title>
<path fill="none" stroke="midnightblue" d="M454.89,-407.63C459.44,-410.08 463.61,-413.15 467,-417 523.8,-481.5 449.05,-540.1 503,-607 503.98,-608.22 505.03,-609.38 506.15,-610.48"/>
<polygon fill="midnightblue" stroke="midnightblue" points="504.25,-613.45 514.23,-616.99 508.64,-607.99 504.25,-613.45"/>
</g>
<!-- Node15 -->
<g id="node15" class="node">
<title>Node15</title>
<g id="a_node15"><a xlink:href="namespace_d.html#a393bfec992f13a40a9f601e3e6c82874" target="_top" xlink:title=" ">
<polygon fill="white" stroke="black" points="525.5,-274.5 525.5,-293.5 600.5,-293.5 600.5,-274.5 525.5,-274.5"/>
<text text-anchor="middle" x="563" y="-281.5" font-family="Helvetica,sans-Serif" font-size="10.00">D::cartesian</text>
</a>
</g>
</g>
<!-- Node6&#45;&gt;Node15 -->
<g id="edge15" class="edge">
<title>Node6&#45;&gt;Node15</title>
<path fill="none" stroke="midnightblue" d="M415.45,-388.43C429.74,-369.42 464.32,-326.7 503,-303 506.93,-300.59 511.19,-298.46 515.56,-296.58"/>
<polygon fill="midnightblue" stroke="midnightblue" points="517.17,-299.71 525.23,-292.85 514.65,-293.18 517.17,-299.71"/>
</g>
<!-- Node16 -->
<g id="node16" class="node">
<title>Node16</title>
<g id="a_node16"><a xlink:href="group__explorer_camera.html#ga2bd01f833407b47f26121736925e24fc" target="_top" xlink:title=" ">
<polygon fill="white" stroke="black" points="506.5,-578.5 506.5,-597.5 619.5,-597.5 619.5,-578.5 506.5,-578.5"/>
<text text-anchor="middle" x="563" y="-585.5" font-family="Helvetica,sans-Serif" font-size="10.00">cartesian2Spherical</text>
</a>
</g>
</g>
<!-- Node6&#45;&gt;Node16 -->
<g id="edge16" class="edge">
<title>Node6&#45;&gt;Node16</title>
<path fill="none" stroke="midnightblue" d="M454.44,-407.63C459.12,-410.08 463.45,-413.15 467,-417 514.05,-468.05 455.89,-518.01 503,-569 504.23,-570.33 505.55,-571.57 506.95,-572.72"/>
<polygon fill="midnightblue" stroke="midnightblue" points="505.39,-575.88 515.68,-578.42 509.22,-570.02 505.39,-575.88"/>
</g>
<!-- Node17 -->
<g id="node17" class="node">
<title>Node17</title>
<g id="a_node17"><a xlink:href="namespace_d.html#ae27403f76d7334ff69a099e42f1f1616" target="_top" xlink:title=" ">
<polygon fill="white" stroke="black" points="534,-236.5 534,-255.5 592,-255.5 592,-236.5 534,-236.5"/>
<text text-anchor="middle" x="563" y="-243.5" font-family="Helvetica,sans-Serif" font-size="10.00">D::origin</text>
</a>
</g>
</g>
<!-- Node6&#45;&gt;Node17 -->
<g id="edge17" class="edge">
<title>Node6&#45;&gt;Node17</title>
<path fill="none" stroke="midnightblue" d="M414.23,-388.36C430.79,-360.81 479.01,-282.58 503,-265 509.28,-260.4 516.72,-256.88 524.16,-254.21"/>
<polygon fill="midnightblue" stroke="midnightblue" points="525.37,-257.49 533.85,-251.15 523.26,-250.82 525.37,-257.49"/>
</g>
<!-- Node18 -->
<g id="node18" class="node">
<title>Node18</title>
<g id="a_node18"><a xlink:href="namespace_d.html#aa2fb96ccebb5bf88d4325f85beb99d84" target="_top" xlink:title="(radius,zenith,azimuth)">
<polygon fill="white" stroke="black" points="535.5,-198.5 535.5,-217.5 590.5,-217.5 590.5,-198.5 535.5,-198.5"/>
<text text-anchor="middle" x="563" y="-205.5" font-family="Helvetica,sans-Serif" font-size="10.00">D::polar</text>
</a>
</g>
</g>
<!-- Node6&#45;&gt;Node18 -->
<g id="edge18" class="edge">
<title>Node6&#45;&gt;Node18</title>
<path fill="none" stroke="midnightblue" d="M414.84,-388.5C425.98,-371.62 449.54,-335.18 467,-303 484.83,-270.15 474.9,-251.64 503,-227 509.38,-221.4 517.44,-217.45 525.53,-214.66"/>
<polygon fill="midnightblue" stroke="midnightblue" points="526.68,-217.97 535.3,-211.8 524.72,-211.25 526.68,-217.97"/>
</g>
<!-- Node19 -->
<g id="node19" class="node">
<title>Node19</title>
<g id="a_node19"><a xlink:href="namespace_d.html#a49b3788c9a2aae032c6c74d76441aa18" target="_top" xlink:title="(fov,near,var)">
<polygon fill="white" stroke="black" points="523.5,-388.5 523.5,-407.5 602.5,-407.5 602.5,-388.5 523.5,-388.5"/>
<text text-anchor="middle" x="563" y="-395.5" font-family="Helvetica,sans-Serif" font-size="10.00">D::projection</text>
</a>
</g>
</g>
<!-- Node6&#45;&gt;Node19 -->
<g id="edge19" class="edge">
<title>Node6&#45;&gt;Node19</title>
<path fill="none" stroke="midnightblue" d="M460.04,-398C477.21,-398 496.27,-398 513.22,-398"/>
<polygon fill="midnightblue" stroke="midnightblue" points="513.46,-401.5 523.46,-398 513.46,-394.5 513.46,-401.5"/>
</g>
<!-- Node20 -->
<g id="node20" class="node">
<title>Node20</title>
<g id="a_node20"><a xlink:href="curves_8cpp.html#ad812fc50a0384335487e258a6f61714e" target="_top" xlink:title=" ">
<polygon fill="white" stroke="black" points="686.5,-464.5 686.5,-483.5 763.5,-483.5 763.5,-464.5 686.5,-464.5"/>
<text text-anchor="middle" x="725" y="-471.5" font-family="Helvetica,sans-Serif" font-size="10.00">renderCurve</text>
</a>
</g>
</g>
<!-- Node6&#45;&gt;Node20 -->
<g id="edge20" class="edge">
<title>Node6&#45;&gt;Node20</title>
<path fill="none" stroke="midnightblue" d="M447.18,-407.53C454.06,-410.06 460.95,-413.18 467,-417 486.67,-429.42 482.04,-444.9 503,-455 557.99,-481.5 629.61,-482.47 676.19,-479.36"/>
<polygon fill="midnightblue" stroke="midnightblue" points="676.6,-482.84 686.3,-478.6 676.07,-475.86 676.6,-482.84"/>
</g>
<!-- Node21 -->
<g id="node21" class="node">
<title>Node21</title>
<g id="a_node21"><a xlink:href="group__model_engine.html#ga2907e4adf4f2bef2c8ce416cb8470997" target="_top" xlink:title=" ">
<polygon fill="white" stroke="black" points="524,-540.5 524,-559.5 602,-559.5 602,-540.5 524,-540.5"/>
<text text-anchor="middle" x="563" y="-547.5" font-family="Helvetica,sans-Serif" font-size="10.00">renderModel</text>
</a>
</g>
</g>
<!-- Node6&#45;&gt;Node21 -->
<g id="edge22" class="edge">
<title>Node6&#45;&gt;Node21</title>
<path fill="none" stroke="midnightblue" d="M453.58,-407.6C458.54,-410.05 463.16,-413.13 467,-417 504.42,-454.72 465.54,-493.32 503,-531 506.29,-534.31 510.16,-537.04 514.31,-539.3"/>
<polygon fill="midnightblue" stroke="midnightblue" points="513.2,-542.64 523.76,-543.52 516.06,-536.24 513.2,-542.64"/>
</g>
<!-- Node22 -->
<g id="node22" class="node">
<title>Node22</title>
<g id="a_node22"><a xlink:href="namespace_d.html#a1ccd692563b2bed3dbd7275b0bd3dbb3" target="_top" xlink:title=" ">
<polygon fill="white" stroke="black" points="535,-350.5 535,-369.5 591,-369.5 591,-350.5 535,-350.5"/>
<text text-anchor="middle" x="563" y="-357.5" font-family="Helvetica,sans-Serif" font-size="10.00">D::scale</text>
</a>
</g>
</g>
<!-- Node6&#45;&gt;Node22 -->
<g id="edge23" class="edge">
<title>Node6&#45;&gt;Node22</title>
<path fill="none" stroke="midnightblue" d="M447.23,-388.41C471.06,-382.51 501.43,-374.99 524.94,-369.17"/>
<polygon fill="midnightblue" stroke="midnightblue" points="526.02,-372.51 534.89,-366.71 524.34,-365.72 526.02,-372.51"/>
</g>
<!-- Node23 -->
<g id="node23" class="node">
<title>Node23</title>
<g id="a_node23"><a xlink:href="namespace_d.html#a075a76915f7e2899933f446de8be40d9" target="_top" xlink:title=" ">
<polygon fill="white" stroke="black" points="542,-312.5 542,-331.5 584,-331.5 584,-312.5 542,-312.5"/>
<text text-anchor="middle" x="563" y="-319.5" font-family="Helvetica,sans-Serif" font-size="10.00">D::up</text>
</a>
</g>
</g>
<!-- Node6&#45;&gt;Node23 -->
<g id="edge24" class="edge">
<title>Node6&#45;&gt;Node23</title>
<path fill="none" stroke="midnightblue" d="M422.04,-388.45C439.91,-376.18 472.66,-354.81 503,-341 512.21,-336.81 522.61,-333.13 532.08,-330.16"/>
<polygon fill="midnightblue" stroke="midnightblue" points="533.33,-333.44 541.9,-327.22 531.32,-326.74 533.33,-333.44"/>
</g>
<!-- Node8 -->
<g id="node8" class="node">
<title>Node8</title>
<g id="a_node8"><a xlink:href="curves_8cpp.html#a98b26a4263f61db7149441a99a6d35b6" target="_top" xlink:title=" ">
<polygon fill="white" stroke="black" points="663.5,-502.5 663.5,-521.5 786.5,-521.5 786.5,-502.5 663.5,-502.5"/>
<text text-anchor="middle" x="725" y="-509.5" font-family="Helvetica,sans-Serif" font-size="10.00">align_global_pos_mat</text>
</a>
</g>
</g>
<!-- Node7&#45;&gt;Node8 -->
<g id="edge8" class="edge">
<title>Node7&#45;&gt;Node8</title>
<path fill="none" stroke="midnightblue" d="M615.06,-512C627.19,-512 640.34,-512 653.17,-512"/>
<polygon fill="midnightblue" stroke="midnightblue" points="653.36,-515.5 663.36,-512 653.36,-508.5 653.36,-515.5"/>
</g>
<!-- Node9 -->
<g id="node9" class="node">
<title>Node9</title>
<g id="a_node9"><a xlink:href="curves_8cpp.html#af7cd8d9b34a073c2fd2d7d8187bcff42" target="_top" xlink:title=" ">
<polygon fill="white" stroke="black" points="827,-483.5 827,-502.5 957,-502.5 957,-483.5 827,-483.5"/>
<text text-anchor="middle" x="892" y="-490.5" font-family="Helvetica,sans-Serif" font-size="10.00">get_curve_global_point</text>
</a>
</g>
</g>
<!-- Node8&#45;&gt;Node9 -->
<g id="edge9" class="edge">
<title>Node8&#45;&gt;Node9</title>
<path fill="none" stroke="midnightblue" d="M786.5,-505.03C796.37,-503.9 806.68,-502.71 816.83,-501.54"/>
<polygon fill="midnightblue" stroke="midnightblue" points="817.36,-505 826.9,-500.38 816.56,-498.05 817.36,-505"/>
</g>
<!-- Node10 -->
<g id="node10" class="node">
<title>Node10</title>
<g id="a_node10"><a xlink:href="curves_8cpp.html#afa648d7de8c941b50b26f02755a955b9" target="_top" xlink:title=" ">
<polygon fill="white" stroke="black" points="1003.5,-502.5 1003.5,-521.5 1092.5,-521.5 1092.5,-502.5 1003.5,-502.5"/>
<text text-anchor="middle" x="1048" y="-509.5" font-family="Helvetica,sans-Serif" font-size="10.00">get_curve_info</text>
</a>
</g>
</g>
<!-- Node9&#45;&gt;Node10 -->
<g id="edge10" class="edge">
<title>Node9&#45;&gt;Node10</title>
<path fill="none" stroke="midnightblue" d="M957.42,-500.95C969.4,-502.43 981.8,-503.96 993.42,-505.39"/>
<polygon fill="midnightblue" stroke="midnightblue" points="993.04,-508.87 1003.4,-506.62 993.9,-501.92 993.04,-508.87"/>
</g>
<!-- Node11 -->
<g id="node11" class="node">
<title>Node11</title>
<g id="a_node11"><a xlink:href="curves_8cpp.html#a6d6def6a76701b08284cba58066e3382" target="_top" xlink:title=" ">
<polygon fill="white" stroke="black" points="993,-464.5 993,-483.5 1103,-483.5 1103,-464.5 993,-464.5"/>
<text text-anchor="middle" x="1048" y="-471.5" font-family="Helvetica,sans-Serif" font-size="10.00">get_curve_point_at</text>
</a>
</g>
</g>
<!-- Node9&#45;&gt;Node11 -->
<g id="edge11" class="edge">
<title>Node9&#45;&gt;Node11</title>
<path fill="none" stroke="midnightblue" d="M957.42,-485.05C965.74,-484.03 974.26,-482.97 982.58,-481.95"/>
<polygon fill="midnightblue" stroke="midnightblue" points="983.11,-485.41 992.6,-480.71 982.25,-478.46 983.11,-485.41"/>
</g>
<!-- Node20&#45;&gt;Node9 -->
<g id="edge21" class="edge">
<title>Node20&#45;&gt;Node9</title>
<path fill="none" stroke="midnightblue" d="M763.85,-478.36C779.59,-480.17 798.42,-482.34 816.71,-484.45"/>
<polygon fill="midnightblue" stroke="midnightblue" points="816.46,-487.94 826.8,-485.61 817.26,-480.99 816.46,-487.94"/>
</g>
<!-- Node24&#45;&gt;Node6 -->
<g id="edge42" class="edge">
<title>Node24&#45;&gt;Node6</title>
<path fill="none" stroke="midnightblue" d="M275.36,-350.54C301.37,-359.95 341.33,-374.41 370.3,-384.9"/>
<polygon fill="midnightblue" stroke="midnightblue" points="369.46,-388.32 380.05,-388.43 371.84,-381.73 369.46,-388.32"/>
</g>
<!-- Node25 -->
<g id="node25" class="node">
<title>Node25</title>
<g id="a_node25"><a xlink:href="group__explorer_camera.html#ga8679d9b303f36964bf51dba0993caeaa" target="_top" xlink:title=" ">
<polygon fill="white" stroke="black" points="354.5,-274.5 354.5,-293.5 460.5,-293.5 460.5,-274.5 354.5,-274.5"/>
<text text-anchor="middle" x="407.5" y="-281.5" font-family="Helvetica,sans-Serif" font-size="10.00">env_load_defaults</text>
</a>
</g>
</g>
<!-- Node24&#45;&gt;Node25 -->
<g id="edge26" class="edge">
<title>Node24&#45;&gt;Node25</title>
<path fill="none" stroke="midnightblue" d="M275.36,-331.46C301.37,-322.05 341.33,-307.59 370.3,-297.1"/>
<polygon fill="midnightblue" stroke="midnightblue" points="371.84,-300.27 380.05,-293.57 369.46,-293.68 371.84,-300.27"/>
</g>
<!-- Node28 -->
<g id="node28" class="node">
<title>Node28</title>
<g id="a_node28"><a xlink:href="group___operations.html#ga462c16b6479801f3de982785f509141a" target="_top" xlink:title=" ">
<polygon fill="white" stroke="black" points="348,-151.5 348,-170.5 467,-170.5 467,-151.5 348,-151.5"/>
<text text-anchor="middle" x="407.5" y="-158.5" font-family="Helvetica,sans-Serif" font-size="10.00">operations_load_xml</text>
</a>
</g>
</g>
<!-- Node24&#45;&gt;Node28 -->
<g id="edge35" class="edge">
<title>Node24&#45;&gt;Node28</title>
<path fill="none" stroke="midnightblue" d="M257.47,-331.32C282.89,-302.27 358.81,-215.5 391.38,-178.28"/>
<polygon fill="midnightblue" stroke="midnightblue" points="394.04,-180.56 397.99,-170.73 388.77,-175.95 394.04,-180.56"/>
</g>
<!-- Node25&#45;&gt;Node15 -->
<g id="edge27" class="edge">
<title>Node25&#45;&gt;Node15</title>
<path fill="none" stroke="midnightblue" d="M460.9,-284C478.45,-284 497.89,-284 515,-284"/>
<polygon fill="midnightblue" stroke="midnightblue" points="515.32,-287.5 525.32,-284 515.32,-280.5 515.32,-287.5"/>
</g>
<!-- Node25&#45;&gt;Node17 -->
<g id="edge28" class="edge">
<title>Node25&#45;&gt;Node17</title>
<path fill="none" stroke="midnightblue" d="M447.23,-274.41C470.75,-268.59 500.64,-261.19 524.02,-255.4"/>
<polygon fill="midnightblue" stroke="midnightblue" points="525.07,-258.75 533.94,-252.95 523.39,-251.95 525.07,-258.75"/>
</g>
<!-- Node25&#45;&gt;Node18 -->
<g id="edge29" class="edge">
<title>Node25&#45;&gt;Node18</title>
<path fill="none" stroke="midnightblue" d="M422.04,-274.45C439.91,-262.18 472.66,-240.81 503,-227 510.15,-223.75 518.02,-220.8 525.62,-218.26"/>
<polygon fill="midnightblue" stroke="midnightblue" points="526.9,-221.52 535.37,-215.15 524.78,-214.85 526.9,-221.52"/>
</g>
<!-- Node25&#45;&gt;Node19 -->
<g id="edge30" class="edge">
<title>Node25&#45;&gt;Node19</title>
<path fill="none" stroke="midnightblue" d="M415.45,-293.57C429.74,-312.58 464.32,-355.3 503,-379 506.41,-381.09 510.08,-382.98 513.85,-384.67"/>
<polygon fill="midnightblue" stroke="midnightblue" points="512.79,-388.01 523.37,-388.5 515.4,-381.52 512.79,-388.01"/>
</g>
<!-- Node25&#45;&gt;Node22 -->
<g id="edge32" class="edge">
<title>Node25&#45;&gt;Node22</title>
<path fill="none" stroke="midnightblue" d="M422.04,-293.55C439.91,-305.82 472.66,-327.19 503,-341 510.01,-344.19 517.72,-347.09 525.19,-349.6"/>
<polygon fill="midnightblue" stroke="midnightblue" points="524.19,-352.95 534.78,-352.67 526.32,-346.29 524.19,-352.95"/>
</g>
<!-- Node25&#45;&gt;Node23 -->
<g id="edge34" class="edge">
<title>Node25&#45;&gt;Node23</title>
<path fill="none" stroke="midnightblue" d="M447.23,-293.59C473.5,-300.09 507.72,-308.56 531.93,-314.56"/>
<polygon fill="midnightblue" stroke="midnightblue" points="531.1,-317.96 541.65,-316.96 532.78,-311.16 531.1,-317.96"/>
</g>
<!-- Node26 -->
<g id="node26" class="node">
<title>Node26</title>
<g id="a_node26"><a xlink:href="namespace_d.html#acff69d64de92ad4a8530de5424425dee" target="_top" xlink:title=" ">
<polygon fill="white" stroke="black" points="533.5,-122.5 533.5,-141.5 592.5,-141.5 592.5,-122.5 533.5,-122.5"/>
<text text-anchor="middle" x="563" y="-129.5" font-family="Helvetica,sans-Serif" font-size="10.00">D::rotate</text>
</a>
</g>
</g>
<!-- Node25&#45;&gt;Node26 -->
<g id="edge31" class="edge">
<title>Node25&#45;&gt;Node26</title>
<path fill="none" stroke="midnightblue" d="M412.68,-274.35C423.74,-249.96 456.16,-185.32 503,-151 509.09,-146.54 516.27,-143.1 523.48,-140.45"/>
<polygon fill="midnightblue" stroke="midnightblue" points="524.8,-143.7 533.25,-137.31 522.66,-137.04 524.8,-143.7"/>
</g>
<!-- Node27 -->
<g id="node27" class="node">
<title>Node27</title>
<g id="a_node27"><a xlink:href="namespace_d.html#ae308988f832b1d5420f532ac7dfd772e" target="_top" xlink:title=" ">
<polygon fill="white" stroke="black" points="526,-160.5 526,-179.5 600,-179.5 600,-160.5 526,-160.5"/>
<text text-anchor="middle" x="563" y="-167.5" font-family="Helvetica,sans-Serif" font-size="10.00">D::translate</text>
</a>
</g>
</g>
<!-- Node25&#45;&gt;Node27 -->
<g id="edge33" class="edge">
<title>Node25&#45;&gt;Node27</title>
<path fill="none" stroke="midnightblue" d="M415.45,-274.43C429.74,-255.42 464.32,-212.7 503,-189 507.14,-186.46 511.65,-184.23 516.28,-182.27"/>
<polygon fill="midnightblue" stroke="midnightblue" points="517.75,-185.46 525.85,-178.63 515.26,-178.91 517.75,-185.46"/>
</g>
<!-- Node29 -->
<g id="node29" class="node">
<title>Node29</title>
<g id="a_node29"><a xlink:href="group___operations.html#ga724a75a0bcc5898b0f2e576db5a3ef65" target="_top" xlink:title=" ">
<polygon fill="white" stroke="black" points="503,-66.5 503,-85.5 623,-85.5 623,-66.5 503,-66.5"/>
<text text-anchor="middle" x="563" y="-73.5" font-family="Helvetica,sans-Serif" font-size="10.00">operations_push_any</text>
</a>
</g>
</g>
<!-- Node28&#45;&gt;Node29 -->
<g id="edge36" class="edge">
<title>Node28&#45;&gt;Node29</title>
<path fill="none" stroke="midnightblue" d="M425.81,-151.41C452.53,-136.62 504,-108.11 535.45,-90.7"/>
<polygon fill="midnightblue" stroke="midnightblue" points="537.46,-93.59 544.52,-85.68 534.07,-87.46 537.46,-93.59"/>
</g>
<!-- Node29&#45;&gt;Node29 -->
<g id="edge39" class="edge">
<title>Node29&#45;&gt;Node29</title>
<path fill="none" stroke="midnightblue" d="M539.26,-85.76C527.72,-94.57 535.63,-104 563,-104 580.96,-104 590.54,-99.94 591.75,-94.65"/>
<polygon fill="midnightblue" stroke="midnightblue" points="594.69,-92.75 586.74,-85.76 588.59,-96.19 594.69,-92.75"/>
</g>
<!-- Node30 -->
<g id="node30" class="node">
<title>Node30</title>
<g id="a_node30"><a xlink:href="group___operations.html#ga5e1350b5e6d7267d7e95a8ee351eae51" target="_top" xlink:title=" ">
<polygon fill="white" stroke="black" points="659,-126.5 659,-145.5 791,-145.5 791,-126.5 659,-126.5"/>
<text text-anchor="middle" x="725" y="-133.5" font-family="Helvetica,sans-Serif" font-size="10.00">crashIfFileDoesNotExist</text>
</a>
</g>
</g>
<!-- Node29&#45;&gt;Node30 -->
<g id="edge37" class="edge">
<title>Node29&#45;&gt;Node30</title>
<path fill="none" stroke="midnightblue" d="M584.09,-85.53C603.13,-94.35 632.64,-107.5 659,-117 665.32,-119.28 672.05,-121.48 678.7,-123.54"/>
<polygon fill="midnightblue" stroke="midnightblue" points="677.74,-126.9 688.32,-126.43 679.75,-120.2 677.74,-126.9"/>
</g>
<!-- Node31 -->
<g id="node31" class="node">
<title>Node31</title>
<g id="a_node31"><a xlink:href="group___operations.html#gab70be49ae6c9836b6605fa296e23c58c" target="_top" xlink:title=" ">
<polygon fill="white" stroke="black" points="677.5,-88.5 677.5,-107.5 772.5,-107.5 772.5,-88.5 677.5,-88.5"/>
<text text-anchor="middle" x="725" y="-95.5" font-family="Helvetica,sans-Serif" font-size="10.00">elementToEnum</text>
</a>
</g>
</g>
<!-- Node29&#45;&gt;Node31 -->
<g id="edge38" class="edge">
<title>Node29&#45;&gt;Node31</title>
<path fill="none" stroke="midnightblue" d="M623.12,-84.13C637.52,-86.11 652.89,-88.22 667.18,-90.19"/>
<polygon fill="midnightblue" stroke="midnightblue" points="666.98,-93.69 677.36,-91.59 667.93,-86.76 666.98,-93.69"/>
</g>
<!-- Node32 -->
<g id="node32" class="node">
<title>Node32</title>
<g id="a_node32"><a xlink:href="group___operations.html#ga27f2fb7edc94a99859f8e3a5120af3b4" target="_top" xlink:title=" ">
<polygon fill="white" stroke="black" points="660,-39 660,-69 790,-69 790,-39 660,-39"/>
<text text-anchor="start" x="668" y="-57" font-family="Helvetica,sans-Serif" font-size="10.00">operations_push_string</text>
<text text-anchor="middle" x="725" y="-46" font-family="Helvetica,sans-Serif" font-size="10.00">_attribute</text>
</a>
</g>
</g>
<!-- Node29&#45;&gt;Node32 -->
<g id="edge40" class="edge">
<title>Node29&#45;&gt;Node32</title>
<path fill="none" stroke="midnightblue" d="M623.12,-67.87C631.79,-66.68 640.81,-65.44 649.73,-64.21"/>
<polygon fill="midnightblue" stroke="midnightblue" points="650.31,-67.67 659.74,-62.84 649.36,-60.73 650.31,-67.67"/>
</g>
<!-- Node33 -->
<g id="node33" class="node">
<title>Node33</title>
<g id="a_node33"><a xlink:href="group___operations.html#ga97fc3f3450980b121126d829a0263836" target="_top" xlink:title=" ">
<polygon fill="white" stroke="black" points="668.5,-0.5 668.5,-19.5 781.5,-19.5 781.5,-0.5 668.5,-0.5"/>
<text text-anchor="middle" x="725" y="-7.5" font-family="Helvetica,sans-Serif" font-size="10.00">pushFloatAttributes</text>
</a>
</g>
</g>
<!-- Node29&#45;&gt;Node33 -->
<g id="edge41" class="edge">
<title>Node29&#45;&gt;Node33</title>
<path fill="none" stroke="midnightblue" d="M581.1,-66.4C599.8,-56.17 630.89,-39.97 659,-29 664.89,-26.7 671.18,-24.53 677.44,-22.53"/>
<polygon fill="midnightblue" stroke="midnightblue" points="678.65,-25.82 687.18,-19.55 676.6,-19.13 678.65,-25.82"/>
</g>
</g>
</svg>
        <g id="navigator" transform="translate(0 0)" fill="#404254">
                <rect fill="#f2f5e9" fill-opacity="0.5" stroke="#606060" stroke-width=".5" x="0" y="0" width="60" height="60"/>
                <use id="zoomplus" xlink:href="#zoomPlus" x="17" y="9" onmousedown="handleZoom(evt,'in')"/>
                <use id="zoomminus" xlink:href="#zoomMin" x="42" y="9" onmousedown="handleZoom(evt,'out')"/>
                <use id="reset" xlink:href="#resetDef" x="30" y="36" onmousedown="handleReset()"/>
                <g id="arrowUp" xlink:href="#dirArrow" transform="translate(30 24)" onmousedown="handlePan(0,-1)">
                  <use xlink:href="#rim" fill="#404040">
                        <set attributeName="fill" to="#808080" begin="arrowUp.mouseover" end="arrowUp.mouseout"/>
                  </use>
                  <path fill="none" stroke="white" stroke-width="1.5" d="M0,-3.0v7 M-2.5,-0.5L0,-3.0L2.5,-0.5"/>
                </g>
                <g id="arrowRight" xlink:href="#dirArrow" transform="rotate(90) translate(36 -43)" onmousedown="handlePan(1,0)">
                  <use xlink:href="#rim" fill="#404040">
                        <set attributeName="fill" to="#808080" begin="arrowRight.mouseover" end="arrowRight.mouseout"/>
                  </use>
                  <path fill="none" stroke="white" stroke-width="1.5" d="M0,-3.0v7 M-2.5,-0.5L0,-3.0L2.5,-0.5"/>
                </g>
                <g id="arrowDown" xlink:href="#dirArrow" transform="rotate(180) translate(-30 -48)" onmousedown="handlePan(0,1)">
                  <use xlink:href="#rim" fill="#404040">
                        <set attributeName="fill" to="#808080" begin="arrowDown.mouseover" end="arrowDown.mouseout"/>
                  </use>
                  <path fill="none" stroke="white" stroke-width="1.5" d="M0,-3.0v7 M-2.5,-0.5L0,-3.0L2.5,-0.5"/>
                </g>
                <g id="arrowLeft" xlink:href="#dirArrow" transform="rotate(270) translate(-36 17)" onmousedown="handlePan(-1,0)">
                  <use xlink:href="#rim" fill="#404040">
                        <set attributeName="fill" to="#808080" begin="arrowLeft.mouseover" end="arrowLeft.mouseout"/>
                  </use>
                  <path fill="none" stroke="white" stroke-width="1.5" d="M0,-3.0v7 M-2.5,-0.5L0,-3.0L2.5,-0.5"/>
                </g>
        </g>
        <svg viewBox="0 0 15 15" width="100%" height="30px" preserveAspectRatio="xMaxYMin meet">
         <g id="arrow_out" transform="scale(0.3 0.3)">
          <a xlink:href="group__engine_ga3c04138a5bfe5d72780bb7e82a18e627_cgraph_org.svg" target="_base">
           <rect id="button" ry="5" rx="5" y="6" x="6" height="38" width="38"
                fill="#f2f5e9" fill-opacity="0.5" stroke="#606060" stroke-width="1.0"/>
           <path id="arrow"
             d="M 11.500037,31.436501 C 11.940474,20.09759 22.043105,11.32322 32.158766,21.979434 L 37.068811,17.246167 C 37.068811,17.246167 37.088388,32 37.088388,32 L 22.160133,31.978069 C 22.160133,31.978069 26.997745,27.140456 26.997745,27.140456 C 18.528582,18.264221 13.291696,25.230495 11.500037,31.436501 z"
             style="fill:#404040;"/>
          </a>
         </g>
        </svg>
</svg>
