<?xml version="1.0" encoding="UTF-8" standalone="no"?>
<!DOCTYPE svg PUBLIC "-//W3C//DTD SVG 1.1//EN"
 "http://www.w3.org/Graphics/SVG/1.1/DTD/svg11.dtd">
<!-- Generated by graphviz version 3.0.0 (0)
 -->
<!-- Title: Generator Pages: 1 -->
<svg width="156pt" height="101pt"
 viewBox="0.00 0.00 156.00 101.00" xmlns="http://www.w3.org/2000/svg" xmlns:xlink="http://www.w3.org/1999/xlink">
<g id="graph0" class="graph" transform="scale(1 1) rotate(0) translate(4 97)">
<title>Generator</title>
<polygon fill="white" stroke="transparent" points="-4,4 -4,-97 152,-97 152,4 -4,4"/>
<!-- Node4 -->
<g id="node1" class="node">
<title>Node4</title>
<g id="a_node1"><a xlink:href="group__bezier.html" target="_top" xlink:title=" ">
<polygon fill="white" stroke="black" points="148,-93 101,-93 101,-74 148,-74 148,-93"/>
<text text-anchor="middle" x="124.5" y="-81" font-family="Helvetica,sans-Serif" font-size="10.00">Bezier</text>
</a>
</g>
</g>
<!-- Node1 -->
<g id="node2" class="node">
<title>Node1</title>
<g id="a_node2"><a xlink:title=" ">
<polygon fill="#bfbfbf" stroke="black" points="65,-56 0,-56 0,-37 65,-37 65,-56"/>
<text text-anchor="middle" x="32.5" y="-44" font-family="Helvetica,sans-Serif" font-size="10.00">Generator</text>
</a>
</g>
</g>
<!-- Node1&#45;&gt;Node4 -->
<g id="edge3" class="edge">
<title>Node1&#45;&gt;Node4</title>
<path fill="none" stroke="black" d="M65.99,-59.86C77.5,-64.59 90.19,-69.8 100.71,-74.13"/>
<polygon fill="black" stroke="black" points="67.26,-56.59 56.68,-56.03 64.6,-63.07 67.26,-56.59"/>
</g>
<!-- Node3 -->
<g id="node3" class="node">
<title>Node3</title>
<g id="a_node3"><a xlink:href="group__model.html" target="_top" xlink:title=" ">
<polygon fill="white" stroke="black" points="148,-56 101,-56 101,-37 148,-37 148,-56"/>
<text text-anchor="middle" x="124.5" y="-44" font-family="Helvetica,sans-Serif" font-size="10.00">Model</text>
</a>
</g>
</g>
<!-- Node1&#45;&gt;Node3 -->
<g id="edge2" class="edge">
<title>Node1&#45;&gt;Node3</title>
<path fill="none" stroke="black" d="M75.37,-46.5C84.14,-46.5 93.07,-46.5 100.81,-46.5"/>
<polygon fill="black" stroke="black" points="75.23,-43 65.23,-46.5 75.23,-50 75.23,-43"/>
</g>
<!-- Node2 -->
<g id="node4" class="node">
<title>Node2</title>
<g id="a_node4"><a xlink:href="group__points.html" target="_top" xlink:title=" ">
<polygon fill="white" stroke="black" points="148,-19 101,-19 101,0 148,0 148,-19"/>
<text text-anchor="middle" x="124.5" y="-7" font-family="Helvetica,sans-Serif" font-size="10.00">Points</text>
</a>
</g>
</g>
<!-- Node1&#45;&gt;Node2 -->
<g id="edge1" class="edge">
<title>Node1&#45;&gt;Node2</title>
<path fill="none" stroke="black" d="M65.99,-33.14C77.5,-28.41 90.19,-23.2 100.71,-18.87"/>
<polygon fill="black" stroke="black" points="64.6,-29.93 56.68,-36.97 67.26,-36.41 64.6,-29.93"/>
</g>
</g>
</svg>
