<?xml version="1.0" encoding="UTF-8" standalone="no"?>
<!DOCTYPE svg PUBLIC "-//W3C//DTD SVG 1.1//EN"
 "http://www.w3.org/Graphics/SVG/1.1/DTD/svg11.dtd">
<!-- Generated by graphviz version 3.0.0 (0)
 -->
<!-- Title: renderScene Pages: 1 -->
<!--zoomable 484 -->
<svg id="main" version="1.1" xmlns="http://www.w3.org/2000/svg" xmlns:xlink="http://www.w3.org/1999/xlink" xml:space="preserve" onload="init(evt)">
<style type="text/css"><![CDATA[
.edge:hover path { stroke: red; }
.edge:hover polygon { stroke: red; fill: red; }
]]></style>
<script type="text/javascript"><![CDATA[
var edges = document.getElementsByTagName('g');
if (edges && edges.length) {
  for (var i=0;i<edges.length;i++) {
    if (edges[i].id.substr(0,4)=='edge') {
      edges[i].setAttribute('class','edge');
    }
  }
}
]]></script>
        <defs>
                <circle id="rim" cx="0" cy="0" r="7"/>
                <circle id="rim2" cx="0" cy="0" r="3.5"/>
                <g id="zoomPlus">
                        <use xlink:href="#rim" fill="#404040">
                                <set attributeName="fill" to="#808080" begin="zoomplus.mouseover" end="zoomplus.mouseout"/>
                        </use>
                        <path d="M-4,0h8M0,-4v8" fill="none" stroke="white" stroke-width="1.5" pointer-events="none"/>
                </g>
                <g id="zoomMin">
                        <use xlink:href="#rim" fill="#404040">
                                <set attributeName="fill" to="#808080" begin="zoomminus.mouseover" end="zoomminus.mouseout"/>
                        </use>
                        <path d="M-4,0h8" fill="none" stroke="white" stroke-width="1.5" pointer-events="none"/>
                </g>
                <g id="dirArrow">
                        <path fill="none" stroke="white" stroke-width="1.5" d="M0,-3.0v7 M-2.5,-0.5L0,-3.0L2.5,-0.5"/>
                </g>
               <g id="resetDef">
                       <use xlink:href="#rim2" fill="#404040">
                               <set attributeName="fill" to="#808080" begin="reset.mouseover" end="reset.mouseout"/>
                       </use>
               </g>
        </defs>

<script type="text/javascript">
var viewWidth = 875;
var viewHeight = 484;
var sectionId = 'dynsection-4';
</script>
<script xlink:href="svgpan.js"/>
<svg id="graph" class="graph">
<g id="viewport">
<title>renderScene</title>
<polygon fill="white" stroke="transparent" points="-4,4 -4,-480 871,-480 871,4 -4,4"/>
<!-- Node1 -->
<g id="node1" class="node">
<title>Node1</title>
<g id="a_node1"><a xlink:title=" ">
<polygon fill="#bfbfbf" stroke="black" points="0,-266.5 0,-285.5 77,-285.5 77,-266.5 0,-266.5"/>
<text text-anchor="middle" x="38.5" y="-273.5" font-family="Helvetica,sans-Serif" font-size="10.00">renderScene</text>
</a>
</g>
</g>
<!-- Node2 -->
<g id="node2" class="node">
<title>Node2</title>
<g id="a_node2"><a xlink:href="engine_8cpp.html#a634dba686e70e7ff3f10c37d11f463da" target="_top" xlink:title=" ">
<polygon fill="white" stroke="black" points="131,-304.5 131,-323.5 200,-323.5 200,-304.5 131,-304.5"/>
<text text-anchor="middle" x="165.5" y="-311.5" font-family="Helvetica,sans-Serif" font-size="10.00">draw_axes</text>
</a>
</g>
</g>
<!-- Node1&#45;&gt;Node2 -->
<g id="edge1" class="edge">
<title>Node1&#45;&gt;Node2</title>
<path fill="none" stroke="midnightblue" d="M71.04,-285.59C86.88,-290.4 106.27,-296.3 123.28,-301.47"/>
<polygon fill="midnightblue" stroke="midnightblue" points="122.38,-304.85 132.97,-304.41 124.42,-298.16 122.38,-304.85"/>
</g>
<!-- Node3 -->
<g id="node3" class="node">
<title>Node3</title>
<g id="a_node3"><a xlink:href="group__camera.html#ga4eec7d736381fd000f84ccb4f2d844da" target="_top" xlink:title=" ">
<polygon fill="white" stroke="black" points="131,-266.5 131,-285.5 200,-285.5 200,-266.5 131,-266.5"/>
<text text-anchor="middle" x="165.5" y="-273.5" font-family="Helvetica,sans-Serif" font-size="10.00">loadProfile</text>
</a>
</g>
</g>
<!-- Node1&#45;&gt;Node3 -->
<g id="edge2" class="edge">
<title>Node1&#45;&gt;Node3</title>
<path fill="none" stroke="midnightblue" d="M77,-276C90.78,-276 106.49,-276 120.76,-276"/>
<polygon fill="midnightblue" stroke="midnightblue" points="120.85,-279.5 130.85,-276 120.85,-272.5 120.85,-279.5"/>
</g>
<!-- Node4 -->
<g id="node4" class="node">
<title>Node4</title>
<g id="a_node4"><a xlink:href="group___operations.html#ga8d5a19a3522cea1b4254684cf6515d13" target="_top" xlink:title=" ">
<polygon fill="white" stroke="black" points="113,-228.5 113,-247.5 218,-247.5 218,-228.5 113,-228.5"/>
<text text-anchor="middle" x="165.5" y="-235.5" font-family="Helvetica,sans-Serif" font-size="10.00">operations_render</text>
</a>
</g>
</g>
<!-- Node1&#45;&gt;Node4 -->
<g id="edge3" class="edge">
<title>Node1&#45;&gt;Node4</title>
<path fill="none" stroke="midnightblue" d="M71.04,-266.41C86.88,-261.6 106.27,-255.7 123.28,-250.53"/>
<polygon fill="midnightblue" stroke="midnightblue" points="124.42,-253.84 132.97,-247.59 122.38,-247.15 124.42,-253.84"/>
</g>
<!-- Node5 -->
<g id="node5" class="node">
<title>Node5</title>
<g id="a_node5"><a xlink:href="group__model_engine.html#ga2ca8791f2c1829e3df5d449129d21c32" target="_top" xlink:title=" ">
<polygon fill="white" stroke="black" points="254,-456.5 254,-475.5 396,-475.5 396,-456.5 254,-456.5"/>
<text text-anchor="middle" x="325" y="-463.5" font-family="Helvetica,sans-Serif" font-size="10.00">addTextureImageToModel</text>
</a>
</g>
</g>
<!-- Node4&#45;&gt;Node5 -->
<g id="edge4" class="edge">
<title>Node4&#45;&gt;Node5</title>
<path fill="none" stroke="midnightblue" d="M206.14,-247.62C210.62,-250.07 214.74,-253.14 218,-257 273.52,-322.61 195.64,-383.91 254,-447 255.21,-448.3 256.49,-449.52 257.84,-450.66"/>
<polygon fill="midnightblue" stroke="midnightblue" points="255.99,-453.63 266.23,-456.33 259.9,-447.83 255.99,-453.63"/>
</g>
<!-- Node6 -->
<g id="node6" class="node">
<title>Node6</title>
<g id="a_node6"><a xlink:href="curves_8cpp.html#a821c8cbf0a47b918c60a4912b733e6bd" target="_top" xlink:title=" ">
<polygon fill="white" stroke="black" points="273,-418.5 273,-437.5 377,-437.5 377,-418.5 273,-418.5"/>
<text text-anchor="middle" x="325" y="-425.5" font-family="Helvetica,sans-Serif" font-size="10.00">advance_in_curve</text>
</a>
</g>
</g>
<!-- Node4&#45;&gt;Node6 -->
<g id="edge5" class="edge">
<title>Node4&#45;&gt;Node6</title>
<path fill="none" stroke="midnightblue" d="M205.72,-247.63C210.32,-250.08 214.59,-253.15 218,-257 264.04,-308.97 205.71,-359.12 254,-409 256.87,-411.97 260.16,-414.49 263.71,-416.63"/>
<polygon fill="midnightblue" stroke="midnightblue" points="262.46,-419.91 272.97,-421.19 265.55,-413.63 262.46,-419.91"/>
</g>
<!-- Node11 -->
<g id="node11" class="node">
<title>Node11</title>
<g id="a_node11"><a xlink:href="engine_8cpp.html#a072c434cfd125e58ac1cec9a5725688a" target="_top" xlink:title=" ">
<polygon fill="white" stroke="black" points="267,-380.5 267,-399.5 383,-399.5 383,-380.5 267,-380.5"/>
<text text-anchor="middle" x="325" y="-387.5" font-family="Helvetica,sans-Serif" font-size="10.00">advance_in_rotation</text>
</a>
</g>
</g>
<!-- Node4&#45;&gt;Node11 -->
<g id="edge10" class="edge">
<title>Node4&#45;&gt;Node11</title>
<path fill="none" stroke="midnightblue" d="M204.94,-247.6C209.78,-250.06 214.32,-253.14 218,-257 254.67,-295.45 215.67,-334.2 254,-371 255.5,-372.44 257.1,-373.77 258.77,-375"/>
<polygon fill="midnightblue" stroke="midnightblue" points="257.34,-378.23 267.72,-380.39 260.95,-372.23 257.34,-378.23"/>
</g>
<!-- Node12 -->
<g id="node12" class="node">
<title>Node12</title>
<g id="a_node12"><a xlink:href="namespace_d.html#a393bfec992f13a40a9f601e3e6c82874" target="_top" xlink:title=" ">
<polygon fill="white" stroke="black" points="287.5,-342.5 287.5,-361.5 362.5,-361.5 362.5,-342.5 287.5,-342.5"/>
<text text-anchor="middle" x="325" y="-349.5" font-family="Helvetica,sans-Serif" font-size="10.00">D::cartesian</text>
</a>
</g>
</g>
<!-- Node4&#45;&gt;Node12 -->
<g id="edge11" class="edge">
<title>Node4&#45;&gt;Node12</title>
<path fill="none" stroke="midnightblue" d="M203.42,-247.57C208.71,-250.05 213.78,-253.14 218,-257 245.58,-282.23 225.34,-309.02 254,-333 260.81,-338.7 269.17,-342.69 277.72,-345.5"/>
<polygon fill="midnightblue" stroke="midnightblue" points="276.8,-348.88 287.38,-348.19 278.68,-342.13 276.8,-348.88"/>
</g>
<!-- Node13 -->
<g id="node13" class="node">
<title>Node13</title>
<g id="a_node13"><a xlink:href="group__explorer_camera.html#ga2bd01f833407b47f26121736925e24fc" target="_top" xlink:title=" ">
<polygon fill="white" stroke="black" points="268.5,-304.5 268.5,-323.5 381.5,-323.5 381.5,-304.5 268.5,-304.5"/>
<text text-anchor="middle" x="325" y="-311.5" font-family="Helvetica,sans-Serif" font-size="10.00">cartesian2Spherical</text>
</a>
</g>
</g>
<!-- Node4&#45;&gt;Node13 -->
<g id="edge12" class="edge">
<title>Node4&#45;&gt;Node13</title>
<path fill="none" stroke="midnightblue" d="M199.46,-247.59C205.87,-250.16 212.35,-253.28 218,-257 237.42,-269.81 234.03,-283.06 254,-295 257.65,-297.18 261.55,-299.12 265.58,-300.83"/>
<polygon fill="midnightblue" stroke="midnightblue" points="264.55,-304.19 275.14,-304.46 267.03,-297.64 264.55,-304.19"/>
</g>
<!-- Node14 -->
<g id="node14" class="node">
<title>Node14</title>
<g id="a_node14"><a xlink:href="group__model_engine.html#gac02eaf37d06ce4074af34bcf4c2ebec6" target="_top" xlink:title=" ">
<polygon fill="white" stroke="black" points="294,-266.5 294,-285.5 356,-285.5 356,-266.5 294,-266.5"/>
<text text-anchor="middle" x="325" y="-273.5" font-family="Helvetica,sans-Serif" font-size="10.00">getModel</text>
</a>
</g>
</g>
<!-- Node4&#45;&gt;Node14 -->
<g id="edge13" class="edge">
<title>Node4&#45;&gt;Node14</title>
<path fill="none" stroke="midnightblue" d="M206.24,-247.59C230.01,-253.32 260.11,-260.58 283.93,-266.33"/>
<polygon fill="midnightblue" stroke="midnightblue" points="283.17,-269.75 293.71,-268.69 284.81,-262.95 283.17,-269.75"/>
</g>
<!-- Node15 -->
<g id="node15" class="node">
<title>Node15</title>
<g id="a_node15"><a xlink:href="namespace_d.html#ae27403f76d7334ff69a099e42f1f1616" target="_top" xlink:title=" ">
<polygon fill="white" stroke="black" points="296,-228.5 296,-247.5 354,-247.5 354,-228.5 296,-228.5"/>
<text text-anchor="middle" x="325" y="-235.5" font-family="Helvetica,sans-Serif" font-size="10.00">D::origin</text>
</a>
</g>
</g>
<!-- Node4&#45;&gt;Node15 -->
<g id="edge14" class="edge">
<title>Node4&#45;&gt;Node15</title>
<path fill="none" stroke="midnightblue" d="M218.07,-238C240.07,-238 265.3,-238 285.62,-238"/>
<polygon fill="midnightblue" stroke="midnightblue" points="285.75,-241.5 295.75,-238 285.75,-234.5 285.75,-241.5"/>
</g>
<!-- Node16 -->
<g id="node16" class="node">
<title>Node16</title>
<g id="a_node16"><a xlink:href="namespace_d.html#aa2fb96ccebb5bf88d4325f85beb99d84" target="_top" xlink:title="(radius,zenith,azimuth)">
<polygon fill="white" stroke="black" points="297.5,-190.5 297.5,-209.5 352.5,-209.5 352.5,-190.5 297.5,-190.5"/>
<text text-anchor="middle" x="325" y="-197.5" font-family="Helvetica,sans-Serif" font-size="10.00">D::polar</text>
</a>
</g>
</g>
<!-- Node4&#45;&gt;Node16 -->
<g id="edge15" class="edge">
<title>Node4&#45;&gt;Node16</title>
<path fill="none" stroke="midnightblue" d="M206.24,-228.41C231.12,-222.41 262.95,-214.73 287.24,-208.87"/>
<polygon fill="midnightblue" stroke="midnightblue" points="288.25,-212.23 297.15,-206.48 286.61,-205.42 288.25,-212.23"/>
</g>
<!-- Node17 -->
<g id="node17" class="node">
<title>Node17</title>
<g id="a_node17"><a xlink:href="namespace_d.html#a49b3788c9a2aae032c6c74d76441aa18" target="_top" xlink:title="(fov,near,var)">
<polygon fill="white" stroke="black" points="285.5,-152.5 285.5,-171.5 364.5,-171.5 364.5,-152.5 285.5,-152.5"/>
<text text-anchor="middle" x="325" y="-159.5" font-family="Helvetica,sans-Serif" font-size="10.00">D::projection</text>
</a>
</g>
</g>
<!-- Node4&#45;&gt;Node17 -->
<g id="edge16" class="edge">
<title>Node4&#45;&gt;Node17</title>
<path fill="none" stroke="midnightblue" d="M178.54,-228.39C194.79,-215.85 225.05,-193.97 254,-181 260.87,-177.92 268.35,-175.24 275.78,-172.95"/>
<polygon fill="midnightblue" stroke="midnightblue" points="276.83,-176.29 285.47,-170.15 274.89,-169.56 276.83,-176.29"/>
</g>
<!-- Node18 -->
<g id="node18" class="node">
<title>Node18</title>
<g id="a_node18"><a xlink:href="curves_8cpp.html#ad812fc50a0384335487e258a6f61714e" target="_top" xlink:title=" ">
<polygon fill="white" stroke="black" points="455,-247.5 455,-266.5 532,-266.5 532,-247.5 455,-247.5"/>
<text text-anchor="middle" x="493.5" y="-254.5" font-family="Helvetica,sans-Serif" font-size="10.00">renderCurve</text>
</a>
</g>
</g>
<!-- Node4&#45;&gt;Node18 -->
<g id="edge17" class="edge">
<title>Node4&#45;&gt;Node18</title>
<path fill="none" stroke="midnightblue" d="M171.68,-228.33C183.23,-207.91 213.34,-160.83 254,-143 311.8,-117.66 338.74,-116.45 396,-143 438.35,-162.63 468.85,-211.02 483.23,-238.02"/>
<polygon fill="midnightblue" stroke="midnightblue" points="480.27,-239.91 487.94,-247.21 486.5,-236.72 480.27,-239.91"/>
</g>
<!-- Node19 -->
<g id="node19" class="node">
<title>Node19</title>
<g id="a_node19"><a xlink:href="group__model_engine.html#ga2907e4adf4f2bef2c8ce416cb8470997" target="_top" xlink:title=" ">
<polygon fill="white" stroke="black" points="286,-76.5 286,-95.5 364,-95.5 364,-76.5 286,-76.5"/>
<text text-anchor="middle" x="325" y="-83.5" font-family="Helvetica,sans-Serif" font-size="10.00">renderModel</text>
</a>
</g>
</g>
<!-- Node4&#45;&gt;Node19 -->
<g id="edge19" class="edge">
<title>Node4&#45;&gt;Node19</title>
<path fill="none" stroke="midnightblue" d="M170.46,-228.42C180.69,-204.8 210.31,-143.26 254,-110 260.61,-104.97 268.35,-100.94 276.23,-97.74"/>
<polygon fill="midnightblue" stroke="midnightblue" points="277.65,-100.95 285.84,-94.23 275.25,-94.38 277.65,-100.95"/>
</g>
<!-- Node20 -->
<g id="node20" class="node">
<title>Node20</title>
<g id="a_node20"><a xlink:href="namespace_d.html#a1ccd692563b2bed3dbd7275b0bd3dbb3" target="_top" xlink:title=" ">
<polygon fill="white" stroke="black" points="297,-38.5 297,-57.5 353,-57.5 353,-38.5 297,-38.5"/>
<text text-anchor="middle" x="325" y="-45.5" font-family="Helvetica,sans-Serif" font-size="10.00">D::scale</text>
</a>
</g>
</g>
<!-- Node4&#45;&gt;Node20 -->
<g id="edge20" class="edge">
<title>Node4&#45;&gt;Node20</title>
<path fill="none" stroke="midnightblue" d="M168.59,-228.12C175.35,-198.75 199.35,-111.32 254,-67 263.3,-59.45 275.36,-54.89 286.84,-52.14"/>
<polygon fill="midnightblue" stroke="midnightblue" points="287.58,-55.56 296.69,-50.16 286.2,-48.7 287.58,-55.56"/>
</g>
<!-- Node21 -->
<g id="node21" class="node">
<title>Node21</title>
<g id="a_node21"><a xlink:href="namespace_d.html#a075a76915f7e2899933f446de8be40d9" target="_top" xlink:title=" ">
<polygon fill="white" stroke="black" points="304,-0.5 304,-19.5 346,-19.5 346,-0.5 304,-0.5"/>
<text text-anchor="middle" x="325" y="-7.5" font-family="Helvetica,sans-Serif" font-size="10.00">D::up</text>
</a>
</g>
</g>
<!-- Node4&#45;&gt;Node21 -->
<g id="edge21" class="edge">
<title>Node4&#45;&gt;Node21</title>
<path fill="none" stroke="midnightblue" d="M167.56,-228.39C171.74,-195.29 190.1,-85 254,-29 265.02,-19.34 280.48,-14.54 294.07,-12.17"/>
<polygon fill="midnightblue" stroke="midnightblue" points="294.57,-15.64 303.99,-10.8 293.61,-8.7 294.57,-15.64"/>
</g>
<!-- Node7 -->
<g id="node7" class="node">
<title>Node7</title>
<g id="a_node7"><a xlink:href="curves_8cpp.html#a98b26a4263f61db7149441a99a6d35b6" target="_top" xlink:title=" ">
<polygon fill="white" stroke="black" points="432,-351.5 432,-370.5 555,-370.5 555,-351.5 432,-351.5"/>
<text text-anchor="middle" x="493.5" y="-358.5" font-family="Helvetica,sans-Serif" font-size="10.00">align_global_pos_mat</text>
</a>
</g>
</g>
<!-- Node6&#45;&gt;Node7 -->
<g id="edge6" class="edge">
<title>Node6&#45;&gt;Node7</title>
<path fill="none" stroke="midnightblue" d="M366.41,-418.48C376.22,-415.78 386.58,-412.58 396,-409 420.84,-399.56 447.81,-385.82 466.91,-375.46"/>
<polygon fill="midnightblue" stroke="midnightblue" points="468.79,-378.42 475.87,-370.53 465.42,-372.29 468.79,-378.42"/>
</g>
<!-- Node8 -->
<g id="node8" class="node">
<title>Node8</title>
<g id="a_node8"><a xlink:href="curves_8cpp.html#af7cd8d9b34a073c2fd2d7d8187bcff42" target="_top" xlink:title=" ">
<polygon fill="white" stroke="black" points="591,-266.5 591,-285.5 721,-285.5 721,-266.5 591,-266.5"/>
<text text-anchor="middle" x="656" y="-273.5" font-family="Helvetica,sans-Serif" font-size="10.00">get_curve_global_point</text>
</a>
</g>
</g>
<!-- Node7&#45;&gt;Node8 -->
<g id="edge7" class="edge">
<title>Node7&#45;&gt;Node8</title>
<path fill="none" stroke="midnightblue" d="M512.6,-351.41C540.66,-336.56 594.82,-307.87 627.66,-290.48"/>
<polygon fill="midnightblue" stroke="midnightblue" points="629.52,-293.45 636.72,-285.68 626.25,-287.27 629.52,-293.45"/>
</g>
<!-- Node9 -->
<g id="node9" class="node">
<title>Node9</title>
<g id="a_node9"><a xlink:href="curves_8cpp.html#afa648d7de8c941b50b26f02755a955b9" target="_top" xlink:title=" ">
<polygon fill="white" stroke="black" points="767.5,-285.5 767.5,-304.5 856.5,-304.5 856.5,-285.5 767.5,-285.5"/>
<text text-anchor="middle" x="812" y="-292.5" font-family="Helvetica,sans-Serif" font-size="10.00">get_curve_info</text>
</a>
</g>
</g>
<!-- Node8&#45;&gt;Node9 -->
<g id="edge8" class="edge">
<title>Node8&#45;&gt;Node9</title>
<path fill="none" stroke="midnightblue" d="M721.42,-283.95C733.4,-285.43 745.8,-286.96 757.42,-288.39"/>
<polygon fill="midnightblue" stroke="midnightblue" points="757.04,-291.87 767.4,-289.62 757.9,-284.92 757.04,-291.87"/>
</g>
<!-- Node10 -->
<g id="node10" class="node">
<title>Node10</title>
<g id="a_node10"><a xlink:href="curves_8cpp.html#a6d6def6a76701b08284cba58066e3382" target="_top" xlink:title=" ">
<polygon fill="white" stroke="black" points="757,-247.5 757,-266.5 867,-266.5 867,-247.5 757,-247.5"/>
<text text-anchor="middle" x="812" y="-254.5" font-family="Helvetica,sans-Serif" font-size="10.00">get_curve_point_at</text>
</a>
</g>
</g>
<!-- Node8&#45;&gt;Node10 -->
<g id="edge9" class="edge">
<title>Node8&#45;&gt;Node10</title>
<path fill="none" stroke="midnightblue" d="M721.42,-268.05C729.74,-267.03 738.26,-265.97 746.58,-264.95"/>
<polygon fill="midnightblue" stroke="midnightblue" points="747.11,-268.41 756.6,-263.71 746.25,-261.46 747.11,-268.41"/>
</g>
<!-- Node18&#45;&gt;Node8 -->
<g id="edge18" class="edge">
<title>Node18&#45;&gt;Node8</title>
<path fill="none" stroke="midnightblue" d="M532.13,-261.45C546.63,-263.17 563.75,-265.2 580.53,-267.18"/>
<polygon fill="midnightblue" stroke="midnightblue" points="580.56,-270.71 590.91,-268.41 581.39,-263.76 580.56,-270.71"/>
</g>
</g>
</svg>
        <g id="navigator" transform="translate(0 0)" fill="#404254">
                <rect fill="#f2f5e9" fill-opacity="0.5" stroke="#606060" stroke-width=".5" x="0" y="0" width="60" height="60"/>
                <use id="zoomplus" xlink:href="#zoomPlus" x="17" y="9" onmousedown="handleZoom(evt,'in')"/>
                <use id="zoomminus" xlink:href="#zoomMin" x="42" y="9" onmousedown="handleZoom(evt,'out')"/>
                <use id="reset" xlink:href="#resetDef" x="30" y="36" onmousedown="handleReset()"/>
                <g id="arrowUp" xlink:href="#dirArrow" transform="translate(30 24)" onmousedown="handlePan(0,-1)">
                  <use xlink:href="#rim" fill="#404040">
                        <set attributeName="fill" to="#808080" begin="arrowUp.mouseover" end="arrowUp.mouseout"/>
                  </use>
                  <path fill="none" stroke="white" stroke-width="1.5" d="M0,-3.0v7 M-2.5,-0.5L0,-3.0L2.5,-0.5"/>
                </g>
                <g id="arrowRight" xlink:href="#dirArrow" transform="rotate(90) translate(36 -43)" onmousedown="handlePan(1,0)">
                  <use xlink:href="#rim" fill="#404040">
                        <set attributeName="fill" to="#808080" begin="arrowRight.mouseover" end="arrowRight.mouseout"/>
                  </use>
                  <path fill="none" stroke="white" stroke-width="1.5" d="M0,-3.0v7 M-2.5,-0.5L0,-3.0L2.5,-0.5"/>
                </g>
                <g id="arrowDown" xlink:href="#dirArrow" transform="rotate(180) translate(-30 -48)" onmousedown="handlePan(0,1)">
                  <use xlink:href="#rim" fill="#404040">
                        <set attributeName="fill" to="#808080" begin="arrowDown.mouseover" end="arrowDown.mouseout"/>
                  </use>
                  <path fill="none" stroke="white" stroke-width="1.5" d="M0,-3.0v7 M-2.5,-0.5L0,-3.0L2.5,-0.5"/>
                </g>
                <g id="arrowLeft" xlink:href="#dirArrow" transform="rotate(270) translate(-36 17)" onmousedown="handlePan(-1,0)">
                  <use xlink:href="#rim" fill="#404040">
                        <set attributeName="fill" to="#808080" begin="arrowLeft.mouseover" end="arrowLeft.mouseout"/>
                  </use>
                  <path fill="none" stroke="white" stroke-width="1.5" d="M0,-3.0v7 M-2.5,-0.5L0,-3.0L2.5,-0.5"/>
                </g>
        </g>
        <svg viewBox="0 0 15 15" width="100%" height="30px" preserveAspectRatio="xMaxYMin meet">
         <g id="arrow_out" transform="scale(0.3 0.3)">
          <a xlink:href="group__engine_ga91c42686f3245f22fb6b17ba5372d92c_cgraph_org.svg" target="_base">
           <rect id="button" ry="5" rx="5" y="6" x="6" height="38" width="38"
                fill="#f2f5e9" fill-opacity="0.5" stroke="#606060" stroke-width="1.0"/>
           <path id="arrow"
             d="M 11.500037,31.436501 C 11.940474,20.09759 22.043105,11.32322 32.158766,21.979434 L 37.068811,17.246167 C 37.068811,17.246167 37.088388,32 37.088388,32 L 22.160133,31.978069 C 22.160133,31.978069 26.997745,27.140456 26.997745,27.140456 C 18.528582,18.264221 13.291696,25.230495 11.500037,31.436501 z"
             style="fill:#404040;"/>
          </a>
         </g>
        </svg>
</svg>
