<?xml version="1.0" encoding="UTF-8" standalone="no"?>
<!DOCTYPE svg PUBLIC "-//W3C//DTD SVG 1.1//EN"
 "http://www.w3.org/Graphics/SVG/1.1/DTD/svg11.dtd">
<!-- Generated by graphviz version 3.0.0 (0)
 -->
<!-- Title: operations_render Pages: 1 -->
<svg width="715pt" height="256pt"
 viewBox="0.00 0.00 715.00 256.00" xmlns="http://www.w3.org/2000/svg" xmlns:xlink="http://www.w3.org/1999/xlink">
<g id="graph0" class="graph" transform="scale(1 1) rotate(0) translate(4 252)">
<title>operations_render</title>
<polygon fill="white" stroke="transparent" points="-4,4 -4,-252 711,-252 711,4 -4,4"/>
<!-- Node1 -->
<g id="node1" class="node">
<title>Node1</title>
<g id="a_node1"><a xlink:title=" ">
<polygon fill="#bfbfbf" stroke="black" points="0,-114.5 0,-133.5 105,-133.5 105,-114.5 0,-114.5"/>
<text text-anchor="middle" x="52.5" y="-121.5" font-family="Helvetica,sans-Serif" font-size="10.00">operations_render</text>
</a>
</g>
</g>
<!-- Node2 -->
<g id="node2" class="node">
<title>Node2</title>
<g id="a_node2"><a xlink:href="group__model_engine.html#gaa9af6d9e3eb9df46397e7fc463ae5525" target="_top" xlink:title=" ">
<polygon fill="white" stroke="black" points="163.5,-228.5 163.5,-247.5 234.5,-247.5 234.5,-228.5 163.5,-228.5"/>
<text text-anchor="middle" x="199" y="-235.5" font-family="Helvetica,sans-Serif" font-size="10.00">addTexture</text>
</a>
</g>
</g>
<!-- Node1&#45;&gt;Node2 -->
<g id="edge1" class="edge">
<title>Node1&#45;&gt;Node2</title>
<path fill="none" stroke="midnightblue" d="M59.78,-133.57C72.73,-152.56 104.29,-195.25 141,-219 145,-221.59 149.4,-223.86 153.91,-225.84"/>
<polygon fill="midnightblue" stroke="midnightblue" points="152.67,-229.12 163.26,-229.52 155.23,-222.6 152.67,-229.12"/>
</g>
<!-- Node3 -->
<g id="node3" class="node">
<title>Node3</title>
<g id="a_node3"><a xlink:href="curves_8cpp.html#af213e79ca700e91ea886085a4149a848" target="_top" xlink:title=" ">
<polygon fill="white" stroke="black" points="147,-190.5 147,-209.5 251,-209.5 251,-190.5 147,-190.5"/>
<text text-anchor="middle" x="199" y="-197.5" font-family="Helvetica,sans-Serif" font-size="10.00">advance_in_curve</text>
</a>
</g>
</g>
<!-- Node1&#45;&gt;Node3 -->
<g id="edge2" class="edge">
<title>Node1&#45;&gt;Node3</title>
<path fill="none" stroke="midnightblue" d="M65.94,-133.58C82.38,-145.89 112.59,-167.29 141,-181 145.41,-183.13 150.11,-185.11 154.86,-186.94"/>
<polygon fill="midnightblue" stroke="midnightblue" points="153.98,-190.34 164.58,-190.45 156.36,-183.76 153.98,-190.34"/>
</g>
<!-- Node8 -->
<g id="node8" class="node">
<title>Node8</title>
<g id="a_node8"><a xlink:href="engine_8cpp.html#a072c434cfd125e58ac1cec9a5725688a" target="_top" xlink:title=" ">
<polygon fill="white" stroke="black" points="141,-152.5 141,-171.5 257,-171.5 257,-152.5 141,-152.5"/>
<text text-anchor="middle" x="199" y="-159.5" font-family="Helvetica,sans-Serif" font-size="10.00">advance_in_rotation</text>
</a>
</g>
</g>
<!-- Node1&#45;&gt;Node8 -->
<g id="edge7" class="edge">
<title>Node1&#45;&gt;Node8</title>
<path fill="none" stroke="midnightblue" d="M89.96,-133.59C108.77,-138.54 131.91,-144.62 151.95,-149.89"/>
<polygon fill="midnightblue" stroke="midnightblue" points="151.24,-153.32 161.8,-152.48 153.02,-146.55 151.24,-153.32"/>
</g>
<!-- Node9 -->
<g id="node9" class="node">
<title>Node9</title>
<g id="a_node9"><a xlink:href="group__model_engine.html#ga56beba311d0a6fcbda9aeb516fe67f8f" target="_top" xlink:title=" ">
<polygon fill="white" stroke="black" points="164,-114.5 164,-133.5 234,-133.5 234,-114.5 164,-114.5"/>
<text text-anchor="middle" x="199" y="-121.5" font-family="Helvetica,sans-Serif" font-size="10.00">allocModel</text>
</a>
</g>
</g>
<!-- Node1&#45;&gt;Node9 -->
<g id="edge8" class="edge">
<title>Node1&#45;&gt;Node9</title>
<path fill="none" stroke="midnightblue" d="M105.26,-124C121.05,-124 138.27,-124 153.53,-124"/>
<polygon fill="midnightblue" stroke="midnightblue" points="153.74,-127.5 163.74,-124 153.74,-120.5 153.74,-127.5"/>
</g>
<!-- Node10 -->
<g id="node10" class="node">
<title>Node10</title>
<g id="a_node10"><a xlink:href="group__spherical.html#ga2a22d15f7463ccd8f8d1aa65e7578983" target="_top" xlink:title=" ">
<polygon fill="white" stroke="black" points="142.5,-76.5 142.5,-95.5 255.5,-95.5 255.5,-76.5 142.5,-76.5"/>
<text text-anchor="middle" x="199" y="-83.5" font-family="Helvetica,sans-Serif" font-size="10.00">cartesian2Spherical</text>
</a>
</g>
</g>
<!-- Node1&#45;&gt;Node10 -->
<g id="edge9" class="edge">
<title>Node1&#45;&gt;Node10</title>
<path fill="none" stroke="midnightblue" d="M89.96,-114.41C108.77,-109.46 131.91,-103.38 151.95,-98.11"/>
<polygon fill="midnightblue" stroke="midnightblue" points="153.02,-101.45 161.8,-95.52 151.24,-94.68 153.02,-101.45"/>
</g>
<!-- Node11 -->
<g id="node11" class="node">
<title>Node11</title>
<g id="a_node11"><a xlink:href="curves_8cpp.html#ad812fc50a0384335487e258a6f61714e" target="_top" xlink:title=" ">
<polygon fill="white" stroke="black" points="316,-95.5 316,-114.5 393,-114.5 393,-95.5 316,-95.5"/>
<text text-anchor="middle" x="354.5" y="-102.5" font-family="Helvetica,sans-Serif" font-size="10.00">renderCurve</text>
</a>
</g>
</g>
<!-- Node1&#45;&gt;Node11 -->
<g id="edge10" class="edge">
<title>Node1&#45;&gt;Node11</title>
<path fill="none" stroke="midnightblue" d="M63.79,-114.37C79.17,-100.7 109.72,-76.29 141,-67 190.42,-52.32 206.35,-57.39 257,-67 281.25,-71.6 307.21,-82.17 326.08,-91"/>
<polygon fill="midnightblue" stroke="midnightblue" points="324.73,-94.24 335.26,-95.42 327.77,-87.93 324.73,-94.24"/>
</g>
<!-- Node12 -->
<g id="node12" class="node">
<title>Node12</title>
<g id="a_node12"><a xlink:href="group__model_engine.html#ga9b0aa26dead35aab4fa6be0709998046" target="_top" xlink:title=" ">
<polygon fill="white" stroke="black" points="160,-0.5 160,-19.5 238,-19.5 238,-0.5 160,-0.5"/>
<text text-anchor="middle" x="199" y="-7.5" font-family="Helvetica,sans-Serif" font-size="10.00">renderModel</text>
</a>
</g>
</g>
<!-- Node1&#45;&gt;Node12 -->
<g id="edge12" class="edge">
<title>Node1&#45;&gt;Node12</title>
<path fill="none" stroke="midnightblue" d="M60.69,-114.36C74.5,-96.42 106.44,-57.59 141,-34 146.72,-30.1 153.18,-26.63 159.63,-23.64"/>
<polygon fill="midnightblue" stroke="midnightblue" points="161.22,-26.77 169.01,-19.6 158.44,-20.34 161.22,-26.77"/>
</g>
<!-- Node4 -->
<g id="node4" class="node">
<title>Node4</title>
<g id="a_node4"><a xlink:href="curves_8cpp.html#aca4aaefe66ab2cbc9d44054ab8929c0d" target="_top" xlink:title=" ">
<polygon fill="white" stroke="black" points="293,-161.5 293,-180.5 416,-180.5 416,-161.5 293,-161.5"/>
<text text-anchor="middle" x="354.5" y="-168.5" font-family="Helvetica,sans-Serif" font-size="10.00">align_global_pos_mat</text>
</a>
</g>
</g>
<!-- Node3&#45;&gt;Node4 -->
<g id="edge3" class="edge">
<title>Node3&#45;&gt;Node4</title>
<path fill="none" stroke="midnightblue" d="M250.69,-190.42C264.25,-187.86 279.04,-185.07 293.07,-182.42"/>
<polygon fill="midnightblue" stroke="midnightblue" points="293.95,-185.81 303.13,-180.52 292.65,-178.93 293.95,-185.81"/>
</g>
<!-- Node5 -->
<g id="node5" class="node">
<title>Node5</title>
<g id="a_node5"><a xlink:href="curves_8cpp.html#abe9fa1f2a311f275f92f5b46fb2f8490" target="_top" xlink:title=" ">
<polygon fill="white" stroke="black" points="452,-114.5 452,-133.5 582,-133.5 582,-114.5 452,-114.5"/>
<text text-anchor="middle" x="517" y="-121.5" font-family="Helvetica,sans-Serif" font-size="10.00">get_curve_global_point</text>
</a>
</g>
</g>
<!-- Node4&#45;&gt;Node5 -->
<g id="edge4" class="edge">
<title>Node4&#45;&gt;Node5</title>
<path fill="none" stroke="midnightblue" d="M387.98,-161.49C412.59,-154.28 446.62,-144.32 473.42,-136.47"/>
<polygon fill="midnightblue" stroke="midnightblue" points="474.68,-139.75 483.29,-133.58 472.71,-133.03 474.68,-139.75"/>
</g>
<!-- Node6 -->
<g id="node6" class="node">
<title>Node6</title>
<g id="a_node6"><a xlink:href="curves_8cpp.html#af68f8da25ecf53c589aa5d47f1f8e164" target="_top" xlink:title=" ">
<polygon fill="white" stroke="black" points="630,-133.5 630,-152.5 695,-152.5 695,-133.5 630,-133.5"/>
<text text-anchor="middle" x="662.5" y="-140.5" font-family="Helvetica,sans-Serif" font-size="10.00">get_curve</text>
</a>
</g>
</g>
<!-- Node5&#45;&gt;Node6 -->
<g id="edge5" class="edge">
<title>Node5&#45;&gt;Node6</title>
<path fill="none" stroke="midnightblue" d="M582.2,-132.5C595.01,-134.2 608.15,-135.94 619.95,-137.5"/>
<polygon fill="midnightblue" stroke="midnightblue" points="619.57,-140.98 629.94,-138.82 620.48,-134.04 619.57,-140.98"/>
</g>
<!-- Node7 -->
<g id="node7" class="node">
<title>Node7</title>
<g id="a_node7"><a xlink:href="curves_8cpp.html#afa648d7de8c941b50b26f02755a955b9" target="_top" xlink:title=" ">
<polygon fill="white" stroke="black" points="618,-95.5 618,-114.5 707,-114.5 707,-95.5 618,-95.5"/>
<text text-anchor="middle" x="662.5" y="-102.5" font-family="Helvetica,sans-Serif" font-size="10.00">get_curve_info</text>
</a>
</g>
</g>
<!-- Node5&#45;&gt;Node7 -->
<g id="edge6" class="edge">
<title>Node5&#45;&gt;Node7</title>
<path fill="none" stroke="midnightblue" d="M582.2,-115.5C590.79,-114.36 599.53,-113.21 607.92,-112.09"/>
<polygon fill="midnightblue" stroke="midnightblue" points="608.48,-115.55 617.94,-110.77 607.56,-108.61 608.48,-115.55"/>
</g>
<!-- Node11&#45;&gt;Node5 -->
<g id="edge11" class="edge">
<title>Node11&#45;&gt;Node5</title>
<path fill="none" stroke="midnightblue" d="M393.13,-109.45C407.63,-111.17 424.75,-113.2 441.53,-115.18"/>
<polygon fill="midnightblue" stroke="midnightblue" points="441.56,-118.71 451.91,-116.41 442.39,-111.76 441.56,-118.71"/>
</g>
</g>
</svg>
