<?xml version="1.0" encoding="UTF-8" standalone="no"?>
<!DOCTYPE svg PUBLIC "-//W3C//DTD SVG 1.1//EN"
 "http://www.w3.org/Graphics/SVG/1.1/DTD/svg11.dtd">
<!-- Generated by graphviz version 3.0.0 (0)
 -->
<!-- Title: xml_load_and_set_env Pages: 1 -->
<!--zoomable 685 -->
<svg id="main" version="1.1" xmlns="http://www.w3.org/2000/svg" xmlns:xlink="http://www.w3.org/1999/xlink" xml:space="preserve" onload="init(evt)">
<style type="text/css"><![CDATA[
.edge:hover path { stroke: red; }
.edge:hover polygon { stroke: red; fill: red; }
]]></style>
<script type="text/javascript"><![CDATA[
var edges = document.getElementsByTagName('g');
if (edges && edges.length) {
  for (var i=0;i<edges.length;i++) {
    if (edges[i].id.substr(0,4)=='edge') {
      edges[i].setAttribute('class','edge');
    }
  }
}
]]></script>
        <defs>
                <circle id="rim" cx="0" cy="0" r="7"/>
                <circle id="rim2" cx="0" cy="0" r="3.5"/>
                <g id="zoomPlus">
                        <use xlink:href="#rim" fill="#404040">
                                <set attributeName="fill" to="#808080" begin="zoomplus.mouseover" end="zoomplus.mouseout"/>
                        </use>
                        <path d="M-4,0h8M0,-4v8" fill="none" stroke="white" stroke-width="1.5" pointer-events="none"/>
                </g>
                <g id="zoomMin">
                        <use xlink:href="#rim" fill="#404040">
                                <set attributeName="fill" to="#808080" begin="zoomminus.mouseover" end="zoomminus.mouseout"/>
                        </use>
                        <path d="M-4,0h8" fill="none" stroke="white" stroke-width="1.5" pointer-events="none"/>
                </g>
                <g id="dirArrow">
                        <path fill="none" stroke="white" stroke-width="1.5" d="M0,-3.0v7 M-2.5,-0.5L0,-3.0L2.5,-0.5"/>
                </g>
               <g id="resetDef">
                       <use xlink:href="#rim2" fill="#404040">
                               <set attributeName="fill" to="#808080" begin="reset.mouseover" end="reset.mouseout"/>
                       </use>
               </g>
        </defs>

<script type="text/javascript">
var viewWidth = 927;
var viewHeight = 685;
var sectionId = 'dynsection-6';
</script>
<script xlink:href="svgpan.js"/>
<svg id="graph" class="graph">
<g id="viewport">
<title>xml_load_and_set_env</title>
<polygon fill="white" stroke="transparent" points="-4,4 -4,-681 923,-681 923,4 -4,4"/>
<!-- Node1 -->
<g id="node1" class="node">
<title>Node1</title>
<g id="a_node1"><a xlink:title=" ">
<polygon fill="#bfbfbf" stroke="black" points="0,-353.5 0,-372.5 128,-372.5 128,-353.5 0,-353.5"/>
<text text-anchor="middle" x="64" y="-360.5" font-family="Helvetica,sans-Serif" font-size="10.00">xml_load_and_set_env</text>
</a>
</g>
</g>
<!-- Node2 -->
<g id="node2" class="node">
<title>Node2</title>
<g id="a_node2"><a xlink:href="group__explorer_camera.html#ga8679d9b303f36964bf51dba0993caeaa" target="_top" xlink:title=" ">
<polygon fill="white" stroke="black" points="170.5,-505.5 170.5,-524.5 276.5,-524.5 276.5,-505.5 170.5,-505.5"/>
<text text-anchor="middle" x="223.5" y="-512.5" font-family="Helvetica,sans-Serif" font-size="10.00">env_load_defaults</text>
</a>
</g>
</g>
<!-- Node1&#45;&gt;Node2 -->
<g id="edge1" class="edge">
<title>Node1&#45;&gt;Node2</title>
<path fill="none" stroke="midnightblue" d="M74.85,-372.51C100.93,-397.67 172,-466.26 205.1,-498.21"/>
<polygon fill="midnightblue" stroke="midnightblue" points="203.03,-501.07 212.65,-505.5 207.89,-496.03 203.03,-501.07"/>
</g>
<!-- Node11 -->
<g id="node11" class="node">
<title>Node11</title>
<g id="a_node11"><a xlink:href="group___operations.html#ga462c16b6479801f3de982785f509141a" target="_top" xlink:title=" ">
<polygon fill="white" stroke="black" points="164,-186.5 164,-205.5 283,-205.5 283,-186.5 164,-186.5"/>
<text text-anchor="middle" x="223.5" y="-193.5" font-family="Helvetica,sans-Serif" font-size="10.00">operations_load_xml</text>
</a>
</g>
</g>
<!-- Node1&#45;&gt;Node11 -->
<g id="edge10" class="edge">
<title>Node1&#45;&gt;Node11</title>
<path fill="none" stroke="midnightblue" d="M74.38,-353.05C100.38,-325.49 173.57,-247.88 206.32,-213.16"/>
<polygon fill="midnightblue" stroke="midnightblue" points="209.05,-215.36 213.37,-205.69 203.96,-210.56 209.05,-215.36"/>
</g>
<!-- Node17 -->
<g id="node17" class="node">
<title>Node17</title>
<g id="a_node17"><a xlink:href="group___operations.html#ga8d5a19a3522cea1b4254684cf6515d13" target="_top" xlink:title=" ">
<polygon fill="white" stroke="black" points="171,-353.5 171,-372.5 276,-372.5 276,-353.5 171,-353.5"/>
<text text-anchor="middle" x="223.5" y="-360.5" font-family="Helvetica,sans-Serif" font-size="10.00">operations_render</text>
</a>
</g>
</g>
<!-- Node1&#45;&gt;Node17 -->
<g id="edge17" class="edge">
<title>Node1&#45;&gt;Node17</title>
<path fill="none" stroke="midnightblue" d="M128.15,-363C138.92,-363 150.09,-363 160.82,-363"/>
<polygon fill="midnightblue" stroke="midnightblue" points="160.94,-366.5 170.94,-363 160.94,-359.5 160.94,-366.5"/>
</g>
<!-- Node3 -->
<g id="node3" class="node">
<title>Node3</title>
<g id="a_node3"><a xlink:href="namespace_d.html#a393bfec992f13a40a9f601e3e6c82874" target="_top" xlink:title=" ">
<polygon fill="white" stroke="black" points="341.5,-581.5 341.5,-600.5 416.5,-600.5 416.5,-581.5 341.5,-581.5"/>
<text text-anchor="middle" x="379" y="-588.5" font-family="Helvetica,sans-Serif" font-size="10.00">D::cartesian</text>
</a>
</g>
</g>
<!-- Node2&#45;&gt;Node3 -->
<g id="edge2" class="edge">
<title>Node2&#45;&gt;Node3</title>
<path fill="none" stroke="midnightblue" d="M238.04,-524.55C255.91,-536.82 288.66,-558.19 319,-572 323.77,-574.17 328.87,-576.21 333.99,-578.08"/>
<polygon fill="midnightblue" stroke="midnightblue" points="333.2,-581.51 343.79,-581.46 335.49,-574.89 333.2,-581.51"/>
</g>
<!-- Node4 -->
<g id="node4" class="node">
<title>Node4</title>
<g id="a_node4"><a xlink:href="namespace_d.html#ae27403f76d7334ff69a099e42f1f1616" target="_top" xlink:title=" ">
<polygon fill="white" stroke="black" points="350,-543.5 350,-562.5 408,-562.5 408,-543.5 350,-543.5"/>
<text text-anchor="middle" x="379" y="-550.5" font-family="Helvetica,sans-Serif" font-size="10.00">D::origin</text>
</a>
</g>
</g>
<!-- Node2&#45;&gt;Node4 -->
<g id="edge3" class="edge">
<title>Node2&#45;&gt;Node4</title>
<path fill="none" stroke="midnightblue" d="M263.23,-524.59C286.75,-530.41 316.64,-537.81 340.02,-543.6"/>
<polygon fill="midnightblue" stroke="midnightblue" points="339.39,-547.05 349.94,-546.05 341.07,-540.25 339.39,-547.05"/>
</g>
<!-- Node5 -->
<g id="node5" class="node">
<title>Node5</title>
<g id="a_node5"><a xlink:href="namespace_d.html#aa2fb96ccebb5bf88d4325f85beb99d84" target="_top" xlink:title="(radius,zenith,azimuth)">
<polygon fill="white" stroke="black" points="351.5,-505.5 351.5,-524.5 406.5,-524.5 406.5,-505.5 351.5,-505.5"/>
<text text-anchor="middle" x="379" y="-512.5" font-family="Helvetica,sans-Serif" font-size="10.00">D::polar</text>
</a>
</g>
</g>
<!-- Node2&#45;&gt;Node5 -->
<g id="edge4" class="edge">
<title>Node2&#45;&gt;Node5</title>
<path fill="none" stroke="midnightblue" d="M276.9,-515C298,-515 321.85,-515 341.08,-515"/>
<polygon fill="midnightblue" stroke="midnightblue" points="341.24,-518.5 351.24,-515 341.24,-511.5 341.24,-518.5"/>
</g>
<!-- Node6 -->
<g id="node6" class="node">
<title>Node6</title>
<g id="a_node6"><a xlink:href="namespace_d.html#a49b3788c9a2aae032c6c74d76441aa18" target="_top" xlink:title="(fov,near,var)">
<polygon fill="white" stroke="black" points="339.5,-467.5 339.5,-486.5 418.5,-486.5 418.5,-467.5 339.5,-467.5"/>
<text text-anchor="middle" x="379" y="-474.5" font-family="Helvetica,sans-Serif" font-size="10.00">D::projection</text>
</a>
</g>
</g>
<!-- Node2&#45;&gt;Node6 -->
<g id="edge5" class="edge">
<title>Node2&#45;&gt;Node6</title>
<path fill="none" stroke="midnightblue" d="M263.23,-505.41C283.4,-500.42 308.25,-494.27 329.66,-488.97"/>
<polygon fill="midnightblue" stroke="midnightblue" points="330.68,-492.32 339.54,-486.52 329,-485.53 330.68,-492.32"/>
</g>
<!-- Node7 -->
<g id="node7" class="node">
<title>Node7</title>
<g id="a_node7"><a xlink:href="namespace_d.html#acff69d64de92ad4a8530de5424425dee" target="_top" xlink:title=" ">
<polygon fill="white" stroke="black" points="349.5,-657.5 349.5,-676.5 408.5,-676.5 408.5,-657.5 349.5,-657.5"/>
<text text-anchor="middle" x="379" y="-664.5" font-family="Helvetica,sans-Serif" font-size="10.00">D::rotate</text>
</a>
</g>
</g>
<!-- Node2&#45;&gt;Node7 -->
<g id="edge6" class="edge">
<title>Node2&#45;&gt;Node7</title>
<path fill="none" stroke="midnightblue" d="M228.68,-524.65C239.74,-549.04 272.16,-613.68 319,-648 325.09,-652.46 332.27,-655.9 339.48,-658.55"/>
<polygon fill="midnightblue" stroke="midnightblue" points="338.66,-661.96 349.25,-661.69 340.8,-655.3 338.66,-661.96"/>
</g>
<!-- Node8 -->
<g id="node8" class="node">
<title>Node8</title>
<g id="a_node8"><a xlink:href="namespace_d.html#a1ccd692563b2bed3dbd7275b0bd3dbb3" target="_top" xlink:title=" ">
<polygon fill="white" stroke="black" points="351,-429.5 351,-448.5 407,-448.5 407,-429.5 351,-429.5"/>
<text text-anchor="middle" x="379" y="-436.5" font-family="Helvetica,sans-Serif" font-size="10.00">D::scale</text>
</a>
</g>
</g>
<!-- Node2&#45;&gt;Node8 -->
<g id="edge7" class="edge">
<title>Node2&#45;&gt;Node8</title>
<path fill="none" stroke="midnightblue" d="M238.04,-505.45C255.91,-493.18 288.66,-471.81 319,-458 326.01,-454.81 333.72,-451.91 341.19,-449.4"/>
<polygon fill="midnightblue" stroke="midnightblue" points="342.32,-452.71 350.78,-446.33 340.19,-446.05 342.32,-452.71"/>
</g>
<!-- Node9 -->
<g id="node9" class="node">
<title>Node9</title>
<g id="a_node9"><a xlink:href="namespace_d.html#ae308988f832b1d5420f532ac7dfd772e" target="_top" xlink:title=" ">
<polygon fill="white" stroke="black" points="342,-619.5 342,-638.5 416,-638.5 416,-619.5 342,-619.5"/>
<text text-anchor="middle" x="379" y="-626.5" font-family="Helvetica,sans-Serif" font-size="10.00">D::translate</text>
</a>
</g>
</g>
<!-- Node2&#45;&gt;Node9 -->
<g id="edge8" class="edge">
<title>Node2&#45;&gt;Node9</title>
<path fill="none" stroke="midnightblue" d="M231.45,-524.57C245.74,-543.58 280.32,-586.3 319,-610 323.14,-612.54 327.65,-614.77 332.28,-616.73"/>
<polygon fill="midnightblue" stroke="midnightblue" points="331.26,-620.09 341.85,-620.37 333.75,-613.54 331.26,-620.09"/>
</g>
<!-- Node10 -->
<g id="node10" class="node">
<title>Node10</title>
<g id="a_node10"><a xlink:href="namespace_d.html#a075a76915f7e2899933f446de8be40d9" target="_top" xlink:title=" ">
<polygon fill="white" stroke="black" points="358,-391.5 358,-410.5 400,-410.5 400,-391.5 358,-391.5"/>
<text text-anchor="middle" x="379" y="-398.5" font-family="Helvetica,sans-Serif" font-size="10.00">D::up</text>
</a>
</g>
</g>
<!-- Node2&#45;&gt;Node10 -->
<g id="edge9" class="edge">
<title>Node2&#45;&gt;Node10</title>
<path fill="none" stroke="midnightblue" d="M231.45,-505.43C245.74,-486.42 280.32,-443.7 319,-420 327.85,-414.57 338.41,-410.54 348.14,-407.62"/>
<polygon fill="midnightblue" stroke="midnightblue" points="349.13,-410.97 357.86,-404.97 347.29,-404.22 349.13,-410.97"/>
</g>
<!-- Node12 -->
<g id="node12" class="node">
<title>Node12</title>
<g id="a_node12"><a xlink:href="group___operations.html#ga724a75a0bcc5898b0f2e576db5a3ef65" target="_top" xlink:title=" ">
<polygon fill="white" stroke="black" points="319,-57.5 319,-76.5 439,-76.5 439,-57.5 319,-57.5"/>
<text text-anchor="middle" x="379" y="-64.5" font-family="Helvetica,sans-Serif" font-size="10.00">operations_push_any</text>
</a>
</g>
</g>
<!-- Node11&#45;&gt;Node12 -->
<g id="edge11" class="edge">
<title>Node11&#45;&gt;Node12</title>
<path fill="none" stroke="midnightblue" d="M233.03,-186.44C248.93,-168.93 284.61,-131.02 319,-104 329.22,-95.97 341.26,-88.16 351.79,-81.8"/>
<polygon fill="midnightblue" stroke="midnightblue" points="353.74,-84.71 360.57,-76.61 350.18,-78.68 353.74,-84.71"/>
</g>
<!-- Node12&#45;&gt;Node12 -->
<g id="edge14" class="edge">
<title>Node12&#45;&gt;Node12</title>
<path fill="none" stroke="midnightblue" d="M355.26,-76.76C343.72,-85.57 351.63,-95 379,-95 396.96,-95 406.54,-90.94 407.75,-85.65"/>
<polygon fill="midnightblue" stroke="midnightblue" points="410.69,-83.75 402.74,-76.76 404.59,-87.19 410.69,-83.75"/>
</g>
<!-- Node13 -->
<g id="node13" class="node">
<title>Node13</title>
<g id="a_node13"><a xlink:href="group___operations.html#ga5e1350b5e6d7267d7e95a8ee351eae51" target="_top" xlink:title=" ">
<polygon fill="white" stroke="black" points="475,-38.5 475,-57.5 607,-57.5 607,-38.5 475,-38.5"/>
<text text-anchor="middle" x="541" y="-45.5" font-family="Helvetica,sans-Serif" font-size="10.00">crashIfFileDoesNotExist</text>
</a>
</g>
</g>
<!-- Node12&#45;&gt;Node13 -->
<g id="edge12" class="edge">
<title>Node12&#45;&gt;Node13</title>
<path fill="none" stroke="midnightblue" d="M439.12,-59.98C447.51,-58.98 456.22,-57.95 464.85,-56.92"/>
<polygon fill="midnightblue" stroke="midnightblue" points="465.41,-60.38 474.93,-55.73 464.59,-53.43 465.41,-60.38"/>
</g>
<!-- Node14 -->
<g id="node14" class="node">
<title>Node14</title>
<g id="a_node14"><a xlink:href="group___operations.html#gab70be49ae6c9836b6605fa296e23c58c" target="_top" xlink:title=" ">
<polygon fill="white" stroke="black" points="493.5,-0.5 493.5,-19.5 588.5,-19.5 588.5,-0.5 493.5,-0.5"/>
<text text-anchor="middle" x="541" y="-7.5" font-family="Helvetica,sans-Serif" font-size="10.00">elementToEnum</text>
</a>
</g>
</g>
<!-- Node12&#45;&gt;Node14 -->
<g id="edge13" class="edge">
<title>Node12&#45;&gt;Node14</title>
<path fill="none" stroke="midnightblue" d="M402.04,-57.48C421.15,-49.4 449.65,-37.75 475,-29 481.5,-26.76 488.41,-24.55 495.22,-22.47"/>
<polygon fill="midnightblue" stroke="midnightblue" points="496.47,-25.75 505.06,-19.54 494.48,-19.04 496.47,-25.75"/>
</g>
<!-- Node15 -->
<g id="node15" class="node">
<title>Node15</title>
<g id="a_node15"><a xlink:href="group___operations.html#ga27f2fb7edc94a99859f8e3a5120af3b4" target="_top" xlink:title=" ">
<polygon fill="white" stroke="black" points="476,-115 476,-145 606,-145 606,-115 476,-115"/>
<text text-anchor="start" x="484" y="-133" font-family="Helvetica,sans-Serif" font-size="10.00">operations_push_string</text>
<text text-anchor="middle" x="541" y="-122" font-family="Helvetica,sans-Serif" font-size="10.00">_attribute</text>
</a>
</g>
</g>
<!-- Node12&#45;&gt;Node15 -->
<g id="edge15" class="edge">
<title>Node12&#45;&gt;Node15</title>
<path fill="none" stroke="midnightblue" d="M403.78,-76.61C422.98,-84.35 450.69,-95.46 475,-105 480.14,-107.01 485.5,-109.11 490.86,-111.18"/>
<polygon fill="midnightblue" stroke="midnightblue" points="489.85,-114.54 500.44,-114.88 492.37,-108.01 489.85,-114.54"/>
</g>
<!-- Node16 -->
<g id="node16" class="node">
<title>Node16</title>
<g id="a_node16"><a xlink:href="group___operations.html#ga97fc3f3450980b121126d829a0263836" target="_top" xlink:title=" ">
<polygon fill="white" stroke="black" points="484.5,-76.5 484.5,-95.5 597.5,-95.5 597.5,-76.5 484.5,-76.5"/>
<text text-anchor="middle" x="541" y="-83.5" font-family="Helvetica,sans-Serif" font-size="10.00">pushFloatAttributes</text>
</a>
</g>
</g>
<!-- Node12&#45;&gt;Node16 -->
<g id="edge16" class="edge">
<title>Node12&#45;&gt;Node16</title>
<path fill="none" stroke="midnightblue" d="M439.12,-74.02C450.55,-75.38 462.59,-76.81 474.22,-78.19"/>
<polygon fill="midnightblue" stroke="midnightblue" points="473.96,-81.68 484.3,-79.39 474.79,-74.73 473.96,-81.68"/>
</g>
<!-- Node17&#45;&gt;Node3 -->
<g id="edge26" class="edge">
<title>Node17&#45;&gt;Node3</title>
<path fill="none" stroke="midnightblue" d="M228.72,-372.61C246.53,-413.16 314.87,-568.31 319,-572 322.86,-575.45 327.36,-578.27 332.12,-580.59"/>
<polygon fill="midnightblue" stroke="midnightblue" points="330.9,-583.87 341.48,-584.43 333.56,-577.4 330.9,-583.87"/>
</g>
<!-- Node17&#45;&gt;Node4 -->
<g id="edge28" class="edge">
<title>Node17&#45;&gt;Node4</title>
<path fill="none" stroke="midnightblue" d="M227.11,-372.78C235.38,-401.84 263.74,-488.51 319,-534 325.07,-538.99 332.47,-542.68 339.96,-545.41"/>
<polygon fill="midnightblue" stroke="midnightblue" points="339.15,-548.82 349.74,-548.46 341.24,-542.14 339.15,-548.82"/>
</g>
<!-- Node17&#45;&gt;Node5 -->
<g id="edge29" class="edge">
<title>Node17&#45;&gt;Node5</title>
<path fill="none" stroke="midnightblue" d="M228.68,-372.65C239.74,-397.04 272.16,-461.68 319,-496 325.73,-500.93 333.79,-504.61 341.76,-507.36"/>
<polygon fill="midnightblue" stroke="midnightblue" points="340.75,-510.71 351.34,-510.26 342.78,-504.01 340.75,-510.71"/>
</g>
<!-- Node17&#45;&gt;Node6 -->
<g id="edge30" class="edge">
<title>Node17&#45;&gt;Node6</title>
<path fill="none" stroke="midnightblue" d="M231.45,-372.57C245.74,-391.58 280.32,-434.3 319,-458 322.41,-460.09 326.08,-461.98 329.85,-463.67"/>
<polygon fill="midnightblue" stroke="midnightblue" points="328.79,-467.01 339.37,-467.5 331.4,-460.52 328.79,-467.01"/>
</g>
<!-- Node17&#45;&gt;Node8 -->
<g id="edge34" class="edge">
<title>Node17&#45;&gt;Node8</title>
<path fill="none" stroke="midnightblue" d="M238.04,-372.55C255.91,-384.82 288.66,-406.19 319,-420 326.01,-423.19 333.72,-426.09 341.19,-428.6"/>
<polygon fill="midnightblue" stroke="midnightblue" points="340.19,-431.95 350.78,-431.67 342.32,-425.29 340.19,-431.95"/>
</g>
<!-- Node17&#45;&gt;Node10 -->
<g id="edge35" class="edge">
<title>Node17&#45;&gt;Node10</title>
<path fill="none" stroke="midnightblue" d="M263.23,-372.59C289.5,-379.09 323.72,-387.56 347.93,-393.56"/>
<polygon fill="midnightblue" stroke="midnightblue" points="347.1,-396.96 357.65,-395.96 348.78,-390.16 347.1,-396.96"/>
</g>
<!-- Node18 -->
<g id="node18" class="node">
<title>Node18</title>
<g id="a_node18"><a xlink:href="curves_8cpp.html#a821c8cbf0a47b918c60a4912b733e6bd" target="_top" xlink:title=" ">
<polygon fill="white" stroke="black" points="327,-113.5 327,-132.5 431,-132.5 431,-113.5 327,-113.5"/>
<text text-anchor="middle" x="379" y="-120.5" font-family="Helvetica,sans-Serif" font-size="10.00">advance_in_curve</text>
</a>
</g>
</g>
<!-- Node17&#45;&gt;Node18 -->
<g id="edge18" class="edge">
<title>Node17&#45;&gt;Node18</title>
<path fill="none" stroke="midnightblue" d="M228.38,-353.32C245.08,-311.72 310.4,-149.84 319,-142 320.74,-140.41 322.62,-138.95 324.6,-137.62"/>
<polygon fill="midnightblue" stroke="midnightblue" points="326.75,-140.43 333.79,-132.51 323.35,-134.31 326.75,-140.43"/>
</g>
<!-- Node23 -->
<g id="node23" class="node">
<title>Node23</title>
<g id="a_node23"><a xlink:href="engine_8cpp.html#a072c434cfd125e58ac1cec9a5725688a" target="_top" xlink:title=" ">
<polygon fill="white" stroke="black" points="321,-315.5 321,-334.5 437,-334.5 437,-315.5 321,-315.5"/>
<text text-anchor="middle" x="379" y="-322.5" font-family="Helvetica,sans-Serif" font-size="10.00">advance_in_rotation</text>
</a>
</g>
</g>
<!-- Node17&#45;&gt;Node23 -->
<g id="edge23" class="edge">
<title>Node17&#45;&gt;Node23</title>
<path fill="none" stroke="midnightblue" d="M263.23,-353.41C283.4,-348.42 308.25,-342.27 329.66,-336.97"/>
<polygon fill="midnightblue" stroke="midnightblue" points="330.68,-340.32 339.54,-334.52 329,-333.53 330.68,-340.32"/>
</g>
<!-- Node24 -->
<g id="node24" class="node">
<title>Node24</title>
<g id="a_node24"><a xlink:href="group__model_engine.html#ga361bcac2814bb93f543d2c0f1b28b6d2" target="_top" xlink:title=" ">
<polygon fill="white" stroke="black" points="344,-277.5 344,-296.5 414,-296.5 414,-277.5 344,-277.5"/>
<text text-anchor="middle" x="379" y="-284.5" font-family="Helvetica,sans-Serif" font-size="10.00">allocModel</text>
</a>
</g>
</g>
<!-- Node17&#45;&gt;Node24 -->
<g id="edge24" class="edge">
<title>Node17&#45;&gt;Node24</title>
<path fill="none" stroke="midnightblue" d="M238.04,-353.45C255.91,-341.18 288.66,-319.81 319,-306 323.77,-303.83 328.87,-301.79 333.99,-299.92"/>
<polygon fill="midnightblue" stroke="midnightblue" points="335.49,-303.11 343.79,-296.54 333.2,-296.49 335.49,-303.11"/>
</g>
<!-- Node25 -->
<g id="node25" class="node">
<title>Node25</title>
<g id="a_node25"><a xlink:href="group__model_engine.html#ga8c7329ae859a08eea53a77130ebe6018" target="_top" xlink:title=" ">
<polygon fill="white" stroke="black" points="321.5,-228 321.5,-258 436.5,-258 436.5,-228 321.5,-228"/>
<text text-anchor="start" x="329.5" y="-246" font-family="Helvetica,sans-Serif" font-size="10.00">associate_a_texture</text>
<text text-anchor="middle" x="379" y="-235" font-family="Helvetica,sans-Serif" font-size="10.00">_to_model</text>
</a>
</g>
</g>
<!-- Node17&#45;&gt;Node25 -->
<g id="edge25" class="edge">
<title>Node17&#45;&gt;Node25</title>
<path fill="none" stroke="midnightblue" d="M231.86,-353.43C246.62,-334.8 281.61,-293.27 319,-268 321.72,-266.16 324.59,-264.42 327.55,-262.76"/>
<polygon fill="midnightblue" stroke="midnightblue" points="329.33,-265.79 336.62,-258.1 326.12,-259.56 329.33,-265.79"/>
</g>
<!-- Node26 -->
<g id="node26" class="node">
<title>Node26</title>
<g id="a_node26"><a xlink:href="group__explorer_camera.html#ga2bd01f833407b47f26121736925e24fc" target="_top" xlink:title=" ">
<polygon fill="white" stroke="black" points="322.5,-189.5 322.5,-208.5 435.5,-208.5 435.5,-189.5 322.5,-189.5"/>
<text text-anchor="middle" x="379" y="-196.5" font-family="Helvetica,sans-Serif" font-size="10.00">cartesian2Spherical</text>
</a>
</g>
</g>
<!-- Node17&#45;&gt;Node26 -->
<g id="edge27" class="edge">
<title>Node17&#45;&gt;Node26</title>
<path fill="none" stroke="midnightblue" d="M228.13,-353.25C238.29,-327.26 269.57,-255.76 319,-218 321.44,-216.13 324.08,-214.45 326.83,-212.92"/>
<polygon fill="midnightblue" stroke="midnightblue" points="328.4,-216.05 335.92,-208.59 325.39,-209.73 328.4,-216.05"/>
</g>
<!-- Node27 -->
<g id="node27" class="node">
<title>Node27</title>
<g id="a_node27"><a xlink:href="curves_8cpp.html#ad812fc50a0384335487e258a6f61714e" target="_top" xlink:title=" ">
<polygon fill="white" stroke="black" points="502.5,-315.5 502.5,-334.5 579.5,-334.5 579.5,-315.5 502.5,-315.5"/>
<text text-anchor="middle" x="541" y="-322.5" font-family="Helvetica,sans-Serif" font-size="10.00">renderCurve</text>
</a>
</g>
</g>
<!-- Node17&#45;&gt;Node27 -->
<g id="edge31" class="edge">
<title>Node17&#45;&gt;Node27</title>
<path fill="none" stroke="midnightblue" d="M276.24,-359.84C319.78,-356.84 383.63,-351.64 439,-344 456.42,-341.6 475.39,-338.23 492.14,-334.99"/>
<polygon fill="midnightblue" stroke="midnightblue" points="493.12,-338.37 502.25,-333.01 491.77,-331.5 493.12,-338.37"/>
</g>
<!-- Node28 -->
<g id="node28" class="node">
<title>Node28</title>
<g id="a_node28"><a xlink:href="group__model_engine.html#ga2907e4adf4f2bef2c8ce416cb8470997" target="_top" xlink:title=" ">
<polygon fill="white" stroke="black" points="340,-151.5 340,-170.5 418,-170.5 418,-151.5 340,-151.5"/>
<text text-anchor="middle" x="379" y="-158.5" font-family="Helvetica,sans-Serif" font-size="10.00">renderModel</text>
</a>
</g>
</g>
<!-- Node17&#45;&gt;Node28 -->
<g id="edge33" class="edge">
<title>Node17&#45;&gt;Node28</title>
<path fill="none" stroke="midnightblue" d="M226.68,-353.41C234.06,-323.22 260.89,-229.23 319,-180 322.47,-177.06 326.39,-174.58 330.53,-172.48"/>
<polygon fill="midnightblue" stroke="midnightblue" points="332.05,-175.64 339.85,-168.46 329.28,-169.21 332.05,-175.64"/>
</g>
<!-- Node19 -->
<g id="node19" class="node">
<title>Node19</title>
<g id="a_node19"><a xlink:href="curves_8cpp.html#a98b26a4263f61db7149441a99a6d35b6" target="_top" xlink:title=" ">
<polygon fill="white" stroke="black" points="479.5,-239.5 479.5,-258.5 602.5,-258.5 602.5,-239.5 479.5,-239.5"/>
<text text-anchor="middle" x="541" y="-246.5" font-family="Helvetica,sans-Serif" font-size="10.00">align_global_pos_mat</text>
</a>
</g>
</g>
<!-- Node18&#45;&gt;Node19 -->
<g id="edge19" class="edge">
<title>Node18&#45;&gt;Node19</title>
<path fill="none" stroke="midnightblue" d="M419.33,-132.6C426.16,-135.11 432.99,-138.21 439,-142 476.95,-165.95 510.38,-207.42 527.62,-231.08"/>
<polygon fill="midnightblue" stroke="midnightblue" points="524.95,-233.37 533.6,-239.48 530.65,-229.31 524.95,-233.37"/>
</g>
<!-- Node20 -->
<g id="node20" class="node">
<title>Node20</title>
<g id="a_node20"><a xlink:href="curves_8cpp.html#af7cd8d9b34a073c2fd2d7d8187bcff42" target="_top" xlink:title=" ">
<polygon fill="white" stroke="black" points="643,-277.5 643,-296.5 773,-296.5 773,-277.5 643,-277.5"/>
<text text-anchor="middle" x="708" y="-284.5" font-family="Helvetica,sans-Serif" font-size="10.00">get_curve_global_point</text>
</a>
</g>
</g>
<!-- Node19&#45;&gt;Node20 -->
<g id="edge20" class="edge">
<title>Node19&#45;&gt;Node20</title>
<path fill="none" stroke="midnightblue" d="M583.64,-258.59C605.51,-263.63 632.51,-269.84 655.66,-275.18"/>
<polygon fill="midnightblue" stroke="midnightblue" points="655.13,-278.65 665.66,-277.48 656.7,-271.82 655.13,-278.65"/>
</g>
<!-- Node21 -->
<g id="node21" class="node">
<title>Node21</title>
<g id="a_node21"><a xlink:href="curves_8cpp.html#afa648d7de8c941b50b26f02755a955b9" target="_top" xlink:title=" ">
<polygon fill="white" stroke="black" points="819.5,-296.5 819.5,-315.5 908.5,-315.5 908.5,-296.5 819.5,-296.5"/>
<text text-anchor="middle" x="864" y="-303.5" font-family="Helvetica,sans-Serif" font-size="10.00">get_curve_info</text>
</a>
</g>
</g>
<!-- Node20&#45;&gt;Node21 -->
<g id="edge21" class="edge">
<title>Node20&#45;&gt;Node21</title>
<path fill="none" stroke="midnightblue" d="M773.42,-294.95C785.4,-296.43 797.8,-297.96 809.42,-299.39"/>
<polygon fill="midnightblue" stroke="midnightblue" points="809.04,-302.87 819.4,-300.62 809.9,-295.92 809.04,-302.87"/>
</g>
<!-- Node22 -->
<g id="node22" class="node">
<title>Node22</title>
<g id="a_node22"><a xlink:href="curves_8cpp.html#a6d6def6a76701b08284cba58066e3382" target="_top" xlink:title=" ">
<polygon fill="white" stroke="black" points="809,-258.5 809,-277.5 919,-277.5 919,-258.5 809,-258.5"/>
<text text-anchor="middle" x="864" y="-265.5" font-family="Helvetica,sans-Serif" font-size="10.00">get_curve_point_at</text>
</a>
</g>
</g>
<!-- Node20&#45;&gt;Node22 -->
<g id="edge22" class="edge">
<title>Node20&#45;&gt;Node22</title>
<path fill="none" stroke="midnightblue" d="M773.42,-279.05C781.74,-278.03 790.26,-276.97 798.58,-275.95"/>
<polygon fill="midnightblue" stroke="midnightblue" points="799.11,-279.41 808.6,-274.71 798.25,-272.46 799.11,-279.41"/>
</g>
<!-- Node27&#45;&gt;Node20 -->
<g id="edge32" class="edge">
<title>Node27&#45;&gt;Node20</title>
<path fill="none" stroke="midnightblue" d="M579.85,-316.28C602.35,-311.1 631.18,-304.46 655.7,-298.81"/>
<polygon fill="midnightblue" stroke="midnightblue" points="656.6,-302.2 665.56,-296.54 655.03,-295.38 656.6,-302.2"/>
</g>
</g>
</svg>
        <g id="navigator" transform="translate(0 0)" fill="#404254">
                <rect fill="#f2f5e9" fill-opacity="0.5" stroke="#606060" stroke-width=".5" x="0" y="0" width="60" height="60"/>
                <use id="zoomplus" xlink:href="#zoomPlus" x="17" y="9" onmousedown="handleZoom(evt,'in')"/>
                <use id="zoomminus" xlink:href="#zoomMin" x="42" y="9" onmousedown="handleZoom(evt,'out')"/>
                <use id="reset" xlink:href="#resetDef" x="30" y="36" onmousedown="handleReset()"/>
                <g id="arrowUp" xlink:href="#dirArrow" transform="translate(30 24)" onmousedown="handlePan(0,-1)">
                  <use xlink:href="#rim" fill="#404040">
                        <set attributeName="fill" to="#808080" begin="arrowUp.mouseover" end="arrowUp.mouseout"/>
                  </use>
                  <path fill="none" stroke="white" stroke-width="1.5" d="M0,-3.0v7 M-2.5,-0.5L0,-3.0L2.5,-0.5"/>
                </g>
                <g id="arrowRight" xlink:href="#dirArrow" transform="rotate(90) translate(36 -43)" onmousedown="handlePan(1,0)">
                  <use xlink:href="#rim" fill="#404040">
                        <set attributeName="fill" to="#808080" begin="arrowRight.mouseover" end="arrowRight.mouseout"/>
                  </use>
                  <path fill="none" stroke="white" stroke-width="1.5" d="M0,-3.0v7 M-2.5,-0.5L0,-3.0L2.5,-0.5"/>
                </g>
                <g id="arrowDown" xlink:href="#dirArrow" transform="rotate(180) translate(-30 -48)" onmousedown="handlePan(0,1)">
                  <use xlink:href="#rim" fill="#404040">
                        <set attributeName="fill" to="#808080" begin="arrowDown.mouseover" end="arrowDown.mouseout"/>
                  </use>
                  <path fill="none" stroke="white" stroke-width="1.5" d="M0,-3.0v7 M-2.5,-0.5L0,-3.0L2.5,-0.5"/>
                </g>
                <g id="arrowLeft" xlink:href="#dirArrow" transform="rotate(270) translate(-36 17)" onmousedown="handlePan(-1,0)">
                  <use xlink:href="#rim" fill="#404040">
                        <set attributeName="fill" to="#808080" begin="arrowLeft.mouseover" end="arrowLeft.mouseout"/>
                  </use>
                  <path fill="none" stroke="white" stroke-width="1.5" d="M0,-3.0v7 M-2.5,-0.5L0,-3.0L2.5,-0.5"/>
                </g>
        </g>
        <svg viewBox="0 0 15 15" width="100%" height="30px" preserveAspectRatio="xMaxYMin meet">
         <g id="arrow_out" transform="scale(0.3 0.3)">
          <a xlink:href="group__engine_ga7148688af5abea686f74d15a50bd20ae_cgraph_org.svg" target="_base">
           <rect id="button" ry="5" rx="5" y="6" x="6" height="38" width="38"
                fill="#f2f5e9" fill-opacity="0.5" stroke="#606060" stroke-width="1.0"/>
           <path id="arrow"
             d="M 11.500037,31.436501 C 11.940474,20.09759 22.043105,11.32322 32.158766,21.979434 L 37.068811,17.246167 C 37.068811,17.246167 37.088388,32 37.088388,32 L 22.160133,31.978069 C 22.160133,31.978069 26.997745,27.140456 26.997745,27.140456 C 18.528582,18.264221 13.291696,25.230495 11.500037,31.436501 z"
             style="fill:#404040;"/>
          </a>
         </g>
        </svg>
</svg>
