<?xml version="1.0" encoding="UTF-8" standalone="no"?>
<!DOCTYPE svg PUBLIC "-//W3C//DTD SVG 1.1//EN"
 "http://www.w3.org/Graphics/SVG/1.1/DTD/svg11.dtd">
<!-- Generated by graphviz version 3.0.0 (0)
 -->
<!-- Title: explKeyboard Pages: 1 -->
<svg width="382pt" height="104pt"
 viewBox="0.00 0.00 382.00 104.00" xmlns="http://www.w3.org/2000/svg" xmlns:xlink="http://www.w3.org/1999/xlink">
<g id="graph0" class="graph" transform="scale(1 1) rotate(0) translate(4 100)">
<title>explKeyboard</title>
<polygon fill="white" stroke="transparent" points="-4,4 -4,-100 378,-100 378,4 -4,4"/>
<!-- Node1 -->
<g id="node1" class="node">
<title>Node1</title>
<g id="a_node1"><a xlink:title=" ">
<polygon fill="#bfbfbf" stroke="black" points="0,-38.5 0,-57.5 83,-57.5 83,-38.5 0,-38.5"/>
<text text-anchor="middle" x="41.5" y="-45.5" font-family="Helvetica,sans-Serif" font-size="10.00">explKeyboard</text>
</a>
</g>
</g>
<!-- Node2 -->
<g id="node2" class="node">
<title>Node2</title>
<g id="a_node2"><a xlink:href="group__camera.html#ga025f4079099b4474ee63a12529c22fa4" target="_top" xlink:title=" ">
<polygon fill="white" stroke="black" points="130.5,-76.5 130.5,-95.5 213.5,-95.5 213.5,-76.5 130.5,-76.5"/>
<text text-anchor="middle" x="172" y="-83.5" font-family="Helvetica,sans-Serif" font-size="10.00">changeProfile</text>
</a>
</g>
</g>
<!-- Node1&#45;&gt;Node2 -->
<g id="edge1" class="edge">
<title>Node1&#45;&gt;Node2</title>
<path fill="none" stroke="midnightblue" d="M74.93,-57.59C91.21,-62.4 111.14,-68.3 128.62,-73.47"/>
<polygon fill="midnightblue" stroke="midnightblue" points="128,-76.93 138.58,-76.41 129.99,-70.22 128,-76.93"/>
</g>
<!-- Node3 -->
<g id="node3" class="node">
<title>Node3</title>
<g id="a_node3"><a xlink:href="group__explorer_camera.html#ga8679d9b303f36964bf51dba0993caeaa" target="_top" xlink:title=" ">
<polygon fill="white" stroke="black" points="119,-38.5 119,-57.5 225,-57.5 225,-38.5 119,-38.5"/>
<text text-anchor="middle" x="172" y="-45.5" font-family="Helvetica,sans-Serif" font-size="10.00">env_load_defaults</text>
</a>
</g>
</g>
<!-- Node1&#45;&gt;Node3 -->
<g id="edge2" class="edge">
<title>Node1&#45;&gt;Node3</title>
<path fill="none" stroke="midnightblue" d="M83.16,-48C91.3,-48 100.02,-48 108.7,-48"/>
<polygon fill="midnightblue" stroke="midnightblue" points="108.83,-51.5 118.83,-48 108.83,-44.5 108.83,-51.5"/>
</g>
<!-- Node4 -->
<g id="node4" class="node">
<title>Node4</title>
<g id="a_node4"><a xlink:href="group__explorer_camera.html#ga9fe47c5361dc03b642823dc88f07465b" target="_top" xlink:title=" ">
<polygon fill="white" stroke="black" points="129,-0.5 129,-19.5 215,-19.5 215,-0.5 129,-0.5"/>
<text text-anchor="middle" x="172" y="-7.5" font-family="Helvetica,sans-Serif" font-size="10.00">explRedisplay</text>
</a>
</g>
</g>
<!-- Node1&#45;&gt;Node4 -->
<g id="edge3" class="edge">
<title>Node1&#45;&gt;Node4</title>
<path fill="none" stroke="midnightblue" d="M74.93,-38.41C91.21,-33.6 111.14,-27.7 128.62,-22.53"/>
<polygon fill="midnightblue" stroke="midnightblue" points="129.99,-25.78 138.58,-19.59 128,-19.07 129.99,-25.78"/>
</g>
<!-- Node5 -->
<g id="node5" class="node">
<title>Node5</title>
<g id="a_node5"><a xlink:href="group__explorer_camera.html#gaeac535a2aaeb6b1c8c4d1169bbc3cab1" target="_top" xlink:title=" ">
<polygon fill="white" stroke="black" points="261,-0.5 261,-19.5 374,-19.5 374,-0.5 261,-0.5"/>
<text text-anchor="middle" x="317.5" y="-7.5" font-family="Helvetica,sans-Serif" font-size="10.00">spherical2Cartesian</text>
</a>
</g>
</g>
<!-- Node4&#45;&gt;Node5 -->
<g id="edge4" class="edge">
<title>Node4&#45;&gt;Node5</title>
<path fill="none" stroke="midnightblue" d="M215.28,-10C226.45,-10 238.78,-10 250.87,-10"/>
<polygon fill="midnightblue" stroke="midnightblue" points="250.95,-13.5 260.95,-10 250.95,-6.5 250.95,-13.5"/>
</g>
</g>
</svg>
