<?xml version="1.0" encoding="UTF-8" standalone="no"?>
<!DOCTYPE svg PUBLIC "-//W3C//DTD SVG 1.1//EN"
 "http://www.w3.org/Graphics/SVG/1.1/DTD/svg11.dtd">
<!-- Generated by graphviz version 3.0.0 (0)
 -->
<!-- Title: engine_run Pages: 1 -->
<svg width="1034pt" height="694pt"
 viewBox="0.00 0.00 1034.00 694.00" xmlns="http://www.w3.org/2000/svg" xmlns:xlink="http://www.w3.org/1999/xlink">
<g id="graph0" class="graph" transform="scale(1 1) rotate(0) translate(4 690)">
<title>engine_run</title>
<polygon fill="white" stroke="transparent" points="-4,4 -4,-690 1030,-690 1030,4 -4,4"/>
<!-- Node1 -->
<g id="node1" class="node">
<title>Node1</title>
<g id="a_node1"><a xlink:title=" ">
<polygon fill="#bfbfbf" stroke="black" points="0,-426.5 0,-445.5 71,-445.5 71,-426.5 0,-426.5"/>
<text text-anchor="middle" x="35.5" y="-433.5" font-family="Helvetica,sans-Serif" font-size="10.00">engine_run</text>
</a>
</g>
</g>
<!-- Node2 -->
<g id="node2" class="node">
<title>Node2</title>
<g id="a_node2"><a xlink:href="group__camera.html#ga4eec7d736381fd000f84ccb4f2d844da" target="_top" xlink:title=" ">
<polygon fill="white" stroke="black" points="296,-464.5 296,-483.5 365,-483.5 365,-464.5 296,-464.5"/>
<text text-anchor="middle" x="330.5" y="-471.5" font-family="Helvetica,sans-Serif" font-size="10.00">loadProfile</text>
</a>
</g>
</g>
<!-- Node1&#45;&gt;Node2 -->
<g id="edge1" class="edge">
<title>Node1&#45;&gt;Node2</title>
<path fill="none" stroke="midnightblue" d="M67.12,-445.53C79.4,-449.01 93.77,-452.67 107,-455 168.46,-465.82 240.59,-470.54 285.68,-472.56"/>
<polygon fill="midnightblue" stroke="midnightblue" points="285.57,-476.06 295.71,-472.98 285.87,-469.07 285.57,-476.06"/>
</g>
<!-- Node3 -->
<g id="node3" class="node">
<title>Node3</title>
<g id="a_node3"><a xlink:href="group__engine.html#ga91c42686f3245f22fb6b17ba5372d92c" target="_top" xlink:title=" ">
<polygon fill="white" stroke="black" points="132.5,-426.5 132.5,-445.5 209.5,-445.5 209.5,-426.5 132.5,-426.5"/>
<text text-anchor="middle" x="171" y="-433.5" font-family="Helvetica,sans-Serif" font-size="10.00">renderScene</text>
</a>
</g>
</g>
<!-- Node1&#45;&gt;Node3 -->
<g id="edge2" class="edge">
<title>Node1&#45;&gt;Node3</title>
<path fill="none" stroke="midnightblue" d="M71.23,-436C86.71,-436 105.2,-436 121.98,-436"/>
<polygon fill="midnightblue" stroke="midnightblue" points="122.16,-439.5 132.16,-436 122.16,-432.5 122.16,-439.5"/>
</g>
<!-- Node23 -->
<g id="node23" class="node">
<title>Node23</title>
<g id="a_node23"><a xlink:href="group__engine.html#ga7148688af5abea686f74d15a50bd20ae" target="_top" xlink:title=" ">
<polygon fill="white" stroke="black" points="107,-331.5 107,-350.5 235,-350.5 235,-331.5 107,-331.5"/>
<text text-anchor="middle" x="171" y="-338.5" font-family="Helvetica,sans-Serif" font-size="10.00">xml_load_and_set_env</text>
</a>
</g>
</g>
<!-- Node1&#45;&gt;Node23 -->
<g id="edge24" class="edge">
<title>Node1&#45;&gt;Node23</title>
<path fill="none" stroke="midnightblue" d="M50.28,-426.19C73.49,-409.68 120.52,-376.21 148.23,-356.49"/>
<polygon fill="midnightblue" stroke="midnightblue" points="150.37,-359.26 156.49,-350.61 146.31,-353.56 150.37,-359.26"/>
</g>
<!-- Node3&#45;&gt;Node2 -->
<g id="edge4" class="edge">
<title>Node3&#45;&gt;Node2</title>
<path fill="none" stroke="midnightblue" d="M209.73,-445.1C232.66,-450.64 262.03,-457.72 285.95,-463.49"/>
<polygon fill="midnightblue" stroke="midnightblue" points="285.29,-466.93 295.83,-465.88 286.93,-460.13 285.29,-466.93"/>
</g>
<!-- Node4 -->
<g id="node4" class="node">
<title>Node4</title>
<g id="a_node4"><a xlink:href="engine_8cpp.html#a634dba686e70e7ff3f10c37d11f463da" target="_top" xlink:title=" ">
<polygon fill="white" stroke="black" points="296,-426.5 296,-445.5 365,-445.5 365,-426.5 296,-426.5"/>
<text text-anchor="middle" x="330.5" y="-433.5" font-family="Helvetica,sans-Serif" font-size="10.00">draw_axes</text>
</a>
</g>
</g>
<!-- Node3&#45;&gt;Node4 -->
<g id="edge3" class="edge">
<title>Node3&#45;&gt;Node4</title>
<path fill="none" stroke="midnightblue" d="M209.73,-436C232.56,-436 261.77,-436 285.63,-436"/>
<polygon fill="midnightblue" stroke="midnightblue" points="285.83,-439.5 295.83,-436 285.83,-432.5 285.83,-439.5"/>
</g>
<!-- Node5 -->
<g id="node5" class="node">
<title>Node5</title>
<g id="a_node5"><a xlink:href="group___operations.html#ga8d5a19a3522cea1b4254684cf6515d13" target="_top" xlink:title=" ">
<polygon fill="white" stroke="black" points="278,-388.5 278,-407.5 383,-407.5 383,-388.5 278,-388.5"/>
<text text-anchor="middle" x="330.5" y="-395.5" font-family="Helvetica,sans-Serif" font-size="10.00">operations_render</text>
</a>
</g>
</g>
<!-- Node3&#45;&gt;Node5 -->
<g id="edge5" class="edge">
<title>Node3&#45;&gt;Node5</title>
<path fill="none" stroke="midnightblue" d="M209.73,-426.9C230.81,-421.81 257.34,-415.41 280.07,-409.93"/>
<polygon fill="midnightblue" stroke="midnightblue" points="280.98,-413.31 289.88,-407.56 279.34,-406.5 280.98,-413.31"/>
</g>
<!-- Node6 -->
<g id="node6" class="node">
<title>Node6</title>
<g id="a_node6"><a xlink:href="curves_8cpp.html#a821c8cbf0a47b918c60a4912b733e6bd" target="_top" xlink:title=" ">
<polygon fill="white" stroke="black" points="434,-502.5 434,-521.5 538,-521.5 538,-502.5 434,-502.5"/>
<text text-anchor="middle" x="486" y="-509.5" font-family="Helvetica,sans-Serif" font-size="10.00">advance_in_curve</text>
</a>
</g>
</g>
<!-- Node5&#45;&gt;Node6 -->
<g id="edge6" class="edge">
<title>Node5&#45;&gt;Node6</title>
<path fill="none" stroke="midnightblue" d="M374.51,-407.55C380.1,-410.02 385.46,-413.11 390,-417 416.88,-440 399.97,-464.04 426,-488 430.33,-491.98 435.4,-495.34 440.73,-498.17"/>
<polygon fill="midnightblue" stroke="midnightblue" points="439.3,-501.37 449.84,-502.45 442.27,-495.03 439.3,-501.37"/>
</g>
<!-- Node11 -->
<g id="node11" class="node">
<title>Node11</title>
<g id="a_node11"><a xlink:href="engine_8cpp.html#a072c434cfd125e58ac1cec9a5725688a" target="_top" xlink:title=" ">
<polygon fill="white" stroke="black" points="428,-426.5 428,-445.5 544,-445.5 544,-426.5 428,-426.5"/>
<text text-anchor="middle" x="486" y="-433.5" font-family="Helvetica,sans-Serif" font-size="10.00">advance_in_rotation</text>
</a>
</g>
</g>
<!-- Node5&#45;&gt;Node11 -->
<g id="edge11" class="edge">
<title>Node5&#45;&gt;Node11</title>
<path fill="none" stroke="midnightblue" d="M370.23,-407.59C390.4,-412.58 415.25,-418.73 436.66,-424.03"/>
<polygon fill="midnightblue" stroke="midnightblue" points="436,-427.47 446.54,-426.48 437.68,-420.68 436,-427.47"/>
</g>
<!-- Node12 -->
<g id="node12" class="node">
<title>Node12</title>
<g id="a_node12"><a xlink:href="group__model_engine.html#ga361bcac2814bb93f543d2c0f1b28b6d2" target="_top" xlink:title=" ">
<polygon fill="white" stroke="black" points="451,-666.5 451,-685.5 521,-685.5 521,-666.5 451,-666.5"/>
<text text-anchor="middle" x="486" y="-673.5" font-family="Helvetica,sans-Serif" font-size="10.00">allocModel</text>
</a>
</g>
</g>
<!-- Node5&#45;&gt;Node12 -->
<g id="edge12" class="edge">
<title>Node5&#45;&gt;Node12</title>
<path fill="none" stroke="midnightblue" d="M378.04,-407.5C382.56,-409.98 386.69,-413.09 390,-417 459.72,-499.3 356.18,-574.79 426,-657 430.16,-661.9 435.59,-665.55 441.47,-668.26"/>
<polygon fill="midnightblue" stroke="midnightblue" points="440.37,-671.58 450.97,-671.8 442.82,-665.02 440.37,-671.58"/>
</g>
<!-- Node13 -->
<g id="node13" class="node">
<title>Node13</title>
<g id="a_node13"><a xlink:href="group__model_engine.html#ga8c7329ae859a08eea53a77130ebe6018" target="_top" xlink:title=" ">
<polygon fill="white" stroke="black" points="428.5,-617 428.5,-647 543.5,-647 543.5,-617 428.5,-617"/>
<text text-anchor="start" x="436.5" y="-635" font-family="Helvetica,sans-Serif" font-size="10.00">associate_a_texture</text>
<text text-anchor="middle" x="486" y="-624" font-family="Helvetica,sans-Serif" font-size="10.00">_to_model</text>
</a>
</g>
</g>
<!-- Node5&#45;&gt;Node13 -->
<g id="edge13" class="edge">
<title>Node5&#45;&gt;Node13</title>
<path fill="none" stroke="midnightblue" d="M377.89,-407.63C382.44,-410.08 386.61,-413.15 390,-417 446.8,-481.5 372.05,-540.1 426,-607 426.98,-608.22 428.03,-609.38 429.15,-610.48"/>
<polygon fill="midnightblue" stroke="midnightblue" points="427.25,-613.45 437.23,-616.99 431.64,-607.99 427.25,-613.45"/>
</g>
<!-- Node14 -->
<g id="node14" class="node">
<title>Node14</title>
<g id="a_node14"><a xlink:href="namespace_d.html#a393bfec992f13a40a9f601e3e6c82874" target="_top" xlink:title=" ">
<polygon fill="white" stroke="black" points="448.5,-274.5 448.5,-293.5 523.5,-293.5 523.5,-274.5 448.5,-274.5"/>
<text text-anchor="middle" x="486" y="-281.5" font-family="Helvetica,sans-Serif" font-size="10.00">D::cartesian</text>
</a>
</g>
</g>
<!-- Node5&#45;&gt;Node14 -->
<g id="edge14" class="edge">
<title>Node5&#45;&gt;Node14</title>
<path fill="none" stroke="midnightblue" d="M338.45,-388.43C352.74,-369.42 387.32,-326.7 426,-303 429.93,-300.59 434.19,-298.46 438.56,-296.58"/>
<polygon fill="midnightblue" stroke="midnightblue" points="440.17,-299.71 448.23,-292.85 437.65,-293.18 440.17,-299.71"/>
</g>
<!-- Node15 -->
<g id="node15" class="node">
<title>Node15</title>
<g id="a_node15"><a xlink:href="group__explorer_camera.html#ga2bd01f833407b47f26121736925e24fc" target="_top" xlink:title=" ">
<polygon fill="white" stroke="black" points="429.5,-578.5 429.5,-597.5 542.5,-597.5 542.5,-578.5 429.5,-578.5"/>
<text text-anchor="middle" x="486" y="-585.5" font-family="Helvetica,sans-Serif" font-size="10.00">cartesian2Spherical</text>
</a>
</g>
</g>
<!-- Node5&#45;&gt;Node15 -->
<g id="edge15" class="edge">
<title>Node5&#45;&gt;Node15</title>
<path fill="none" stroke="midnightblue" d="M377.44,-407.63C382.12,-410.08 386.45,-413.15 390,-417 437.05,-468.05 378.89,-518.01 426,-569 427.23,-570.33 428.55,-571.57 429.95,-572.72"/>
<polygon fill="midnightblue" stroke="midnightblue" points="428.39,-575.88 438.68,-578.42 432.22,-570.02 428.39,-575.88"/>
</g>
<!-- Node16 -->
<g id="node16" class="node">
<title>Node16</title>
<g id="a_node16"><a xlink:href="namespace_d.html#ae27403f76d7334ff69a099e42f1f1616" target="_top" xlink:title=" ">
<polygon fill="white" stroke="black" points="457,-236.5 457,-255.5 515,-255.5 515,-236.5 457,-236.5"/>
<text text-anchor="middle" x="486" y="-243.5" font-family="Helvetica,sans-Serif" font-size="10.00">D::origin</text>
</a>
</g>
</g>
<!-- Node5&#45;&gt;Node16 -->
<g id="edge16" class="edge">
<title>Node5&#45;&gt;Node16</title>
<path fill="none" stroke="midnightblue" d="M337.23,-388.36C353.79,-360.81 402.01,-282.58 426,-265 432.28,-260.4 439.72,-256.88 447.16,-254.21"/>
<polygon fill="midnightblue" stroke="midnightblue" points="448.37,-257.49 456.85,-251.15 446.26,-250.82 448.37,-257.49"/>
</g>
<!-- Node17 -->
<g id="node17" class="node">
<title>Node17</title>
<g id="a_node17"><a xlink:href="namespace_d.html#aa2fb96ccebb5bf88d4325f85beb99d84" target="_top" xlink:title="(radius,zenith,azimuth)">
<polygon fill="white" stroke="black" points="458.5,-198.5 458.5,-217.5 513.5,-217.5 513.5,-198.5 458.5,-198.5"/>
<text text-anchor="middle" x="486" y="-205.5" font-family="Helvetica,sans-Serif" font-size="10.00">D::polar</text>
</a>
</g>
</g>
<!-- Node5&#45;&gt;Node17 -->
<g id="edge17" class="edge">
<title>Node5&#45;&gt;Node17</title>
<path fill="none" stroke="midnightblue" d="M337.84,-388.5C348.98,-371.62 372.54,-335.18 390,-303 407.83,-270.15 397.9,-251.64 426,-227 432.38,-221.4 440.44,-217.45 448.53,-214.66"/>
<polygon fill="midnightblue" stroke="midnightblue" points="449.68,-217.97 458.3,-211.8 447.72,-211.25 449.68,-217.97"/>
</g>
<!-- Node18 -->
<g id="node18" class="node">
<title>Node18</title>
<g id="a_node18"><a xlink:href="namespace_d.html#a49b3788c9a2aae032c6c74d76441aa18" target="_top" xlink:title="(fov,near,var)">
<polygon fill="white" stroke="black" points="446.5,-388.5 446.5,-407.5 525.5,-407.5 525.5,-388.5 446.5,-388.5"/>
<text text-anchor="middle" x="486" y="-395.5" font-family="Helvetica,sans-Serif" font-size="10.00">D::projection</text>
</a>
</g>
</g>
<!-- Node5&#45;&gt;Node18 -->
<g id="edge18" class="edge">
<title>Node5&#45;&gt;Node18</title>
<path fill="none" stroke="midnightblue" d="M383.04,-398C400.21,-398 419.27,-398 436.22,-398"/>
<polygon fill="midnightblue" stroke="midnightblue" points="436.46,-401.5 446.46,-398 436.46,-394.5 436.46,-401.5"/>
</g>
<!-- Node19 -->
<g id="node19" class="node">
<title>Node19</title>
<g id="a_node19"><a xlink:href="curves_8cpp.html#ad812fc50a0384335487e258a6f61714e" target="_top" xlink:title=" ">
<polygon fill="white" stroke="black" points="609.5,-464.5 609.5,-483.5 686.5,-483.5 686.5,-464.5 609.5,-464.5"/>
<text text-anchor="middle" x="648" y="-471.5" font-family="Helvetica,sans-Serif" font-size="10.00">renderCurve</text>
</a>
</g>
</g>
<!-- Node5&#45;&gt;Node19 -->
<g id="edge19" class="edge">
<title>Node5&#45;&gt;Node19</title>
<path fill="none" stroke="midnightblue" d="M370.18,-407.53C377.06,-410.06 383.95,-413.18 390,-417 409.67,-429.42 405.04,-444.9 426,-455 480.99,-481.5 552.61,-482.47 599.19,-479.36"/>
<polygon fill="midnightblue" stroke="midnightblue" points="599.6,-482.84 609.3,-478.6 599.07,-475.86 599.6,-482.84"/>
</g>
<!-- Node20 -->
<g id="node20" class="node">
<title>Node20</title>
<g id="a_node20"><a xlink:href="group__model_engine.html#ga2907e4adf4f2bef2c8ce416cb8470997" target="_top" xlink:title=" ">
<polygon fill="white" stroke="black" points="447,-540.5 447,-559.5 525,-559.5 525,-540.5 447,-540.5"/>
<text text-anchor="middle" x="486" y="-547.5" font-family="Helvetica,sans-Serif" font-size="10.00">renderModel</text>
</a>
</g>
</g>
<!-- Node5&#45;&gt;Node20 -->
<g id="edge21" class="edge">
<title>Node5&#45;&gt;Node20</title>
<path fill="none" stroke="midnightblue" d="M376.58,-407.6C381.54,-410.05 386.16,-413.13 390,-417 427.42,-454.72 388.54,-493.32 426,-531 429.29,-534.31 433.16,-537.04 437.31,-539.3"/>
<polygon fill="midnightblue" stroke="midnightblue" points="436.2,-542.64 446.76,-543.52 439.06,-536.24 436.2,-542.64"/>
</g>
<!-- Node21 -->
<g id="node21" class="node">
<title>Node21</title>
<g id="a_node21"><a xlink:href="namespace_d.html#a1ccd692563b2bed3dbd7275b0bd3dbb3" target="_top" xlink:title=" ">
<polygon fill="white" stroke="black" points="458,-350.5 458,-369.5 514,-369.5 514,-350.5 458,-350.5"/>
<text text-anchor="middle" x="486" y="-357.5" font-family="Helvetica,sans-Serif" font-size="10.00">D::scale</text>
</a>
</g>
</g>
<!-- Node5&#45;&gt;Node21 -->
<g id="edge22" class="edge">
<title>Node5&#45;&gt;Node21</title>
<path fill="none" stroke="midnightblue" d="M370.23,-388.41C394.06,-382.51 424.43,-374.99 447.94,-369.17"/>
<polygon fill="midnightblue" stroke="midnightblue" points="449.02,-372.51 457.89,-366.71 447.34,-365.72 449.02,-372.51"/>
</g>
<!-- Node22 -->
<g id="node22" class="node">
<title>Node22</title>
<g id="a_node22"><a xlink:href="namespace_d.html#a075a76915f7e2899933f446de8be40d9" target="_top" xlink:title=" ">
<polygon fill="white" stroke="black" points="465,-312.5 465,-331.5 507,-331.5 507,-312.5 465,-312.5"/>
<text text-anchor="middle" x="486" y="-319.5" font-family="Helvetica,sans-Serif" font-size="10.00">D::up</text>
</a>
</g>
</g>
<!-- Node5&#45;&gt;Node22 -->
<g id="edge23" class="edge">
<title>Node5&#45;&gt;Node22</title>
<path fill="none" stroke="midnightblue" d="M345.04,-388.45C362.91,-376.18 395.66,-354.81 426,-341 435.21,-336.81 445.61,-333.13 455.08,-330.16"/>
<polygon fill="midnightblue" stroke="midnightblue" points="456.33,-333.44 464.9,-327.22 454.32,-326.74 456.33,-333.44"/>
</g>
<!-- Node7 -->
<g id="node7" class="node">
<title>Node7</title>
<g id="a_node7"><a xlink:href="curves_8cpp.html#a98b26a4263f61db7149441a99a6d35b6" target="_top" xlink:title=" ">
<polygon fill="white" stroke="black" points="586.5,-502.5 586.5,-521.5 709.5,-521.5 709.5,-502.5 586.5,-502.5"/>
<text text-anchor="middle" x="648" y="-509.5" font-family="Helvetica,sans-Serif" font-size="10.00">align_global_pos_mat</text>
</a>
</g>
</g>
<!-- Node6&#45;&gt;Node7 -->
<g id="edge7" class="edge">
<title>Node6&#45;&gt;Node7</title>
<path fill="none" stroke="midnightblue" d="M538.06,-512C550.19,-512 563.34,-512 576.17,-512"/>
<polygon fill="midnightblue" stroke="midnightblue" points="576.36,-515.5 586.36,-512 576.36,-508.5 576.36,-515.5"/>
</g>
<!-- Node8 -->
<g id="node8" class="node">
<title>Node8</title>
<g id="a_node8"><a xlink:href="curves_8cpp.html#af7cd8d9b34a073c2fd2d7d8187bcff42" target="_top" xlink:title=" ">
<polygon fill="white" stroke="black" points="750,-483.5 750,-502.5 880,-502.5 880,-483.5 750,-483.5"/>
<text text-anchor="middle" x="815" y="-490.5" font-family="Helvetica,sans-Serif" font-size="10.00">get_curve_global_point</text>
</a>
</g>
</g>
<!-- Node7&#45;&gt;Node8 -->
<g id="edge8" class="edge">
<title>Node7&#45;&gt;Node8</title>
<path fill="none" stroke="midnightblue" d="M709.5,-505.03C719.37,-503.9 729.68,-502.71 739.83,-501.54"/>
<polygon fill="midnightblue" stroke="midnightblue" points="740.36,-505 749.9,-500.38 739.56,-498.05 740.36,-505"/>
</g>
<!-- Node9 -->
<g id="node9" class="node">
<title>Node9</title>
<g id="a_node9"><a xlink:href="curves_8cpp.html#afa648d7de8c941b50b26f02755a955b9" target="_top" xlink:title=" ">
<polygon fill="white" stroke="black" points="926.5,-502.5 926.5,-521.5 1015.5,-521.5 1015.5,-502.5 926.5,-502.5"/>
<text text-anchor="middle" x="971" y="-509.5" font-family="Helvetica,sans-Serif" font-size="10.00">get_curve_info</text>
</a>
</g>
</g>
<!-- Node8&#45;&gt;Node9 -->
<g id="edge9" class="edge">
<title>Node8&#45;&gt;Node9</title>
<path fill="none" stroke="midnightblue" d="M880.42,-500.95C892.4,-502.43 904.8,-503.96 916.42,-505.39"/>
<polygon fill="midnightblue" stroke="midnightblue" points="916.04,-508.87 926.4,-506.62 916.9,-501.92 916.04,-508.87"/>
</g>
<!-- Node10 -->
<g id="node10" class="node">
<title>Node10</title>
<g id="a_node10"><a xlink:href="curves_8cpp.html#a6d6def6a76701b08284cba58066e3382" target="_top" xlink:title=" ">
<polygon fill="white" stroke="black" points="916,-464.5 916,-483.5 1026,-483.5 1026,-464.5 916,-464.5"/>
<text text-anchor="middle" x="971" y="-471.5" font-family="Helvetica,sans-Serif" font-size="10.00">get_curve_point_at</text>
</a>
</g>
</g>
<!-- Node8&#45;&gt;Node10 -->
<g id="edge10" class="edge">
<title>Node8&#45;&gt;Node10</title>
<path fill="none" stroke="midnightblue" d="M880.42,-485.05C888.74,-484.03 897.26,-482.97 905.58,-481.95"/>
<polygon fill="midnightblue" stroke="midnightblue" points="906.11,-485.41 915.6,-480.71 905.25,-478.46 906.11,-485.41"/>
</g>
<!-- Node19&#45;&gt;Node8 -->
<g id="edge20" class="edge">
<title>Node19&#45;&gt;Node8</title>
<path fill="none" stroke="midnightblue" d="M686.85,-478.36C702.59,-480.17 721.42,-482.34 739.71,-484.45"/>
<polygon fill="midnightblue" stroke="midnightblue" points="739.46,-487.94 749.8,-485.61 740.26,-480.99 739.46,-487.94"/>
</g>
<!-- Node23&#45;&gt;Node5 -->
<g id="edge41" class="edge">
<title>Node23&#45;&gt;Node5</title>
<path fill="none" stroke="midnightblue" d="M198.36,-350.54C224.37,-359.95 264.33,-374.41 293.3,-384.9"/>
<polygon fill="midnightblue" stroke="midnightblue" points="292.46,-388.32 303.05,-388.43 294.84,-381.73 292.46,-388.32"/>
</g>
<!-- Node24 -->
<g id="node24" class="node">
<title>Node24</title>
<g id="a_node24"><a xlink:href="group__explorer_camera.html#ga8679d9b303f36964bf51dba0993caeaa" target="_top" xlink:title=" ">
<polygon fill="white" stroke="black" points="277.5,-274.5 277.5,-293.5 383.5,-293.5 383.5,-274.5 277.5,-274.5"/>
<text text-anchor="middle" x="330.5" y="-281.5" font-family="Helvetica,sans-Serif" font-size="10.00">env_load_defaults</text>
</a>
</g>
</g>
<!-- Node23&#45;&gt;Node24 -->
<g id="edge25" class="edge">
<title>Node23&#45;&gt;Node24</title>
<path fill="none" stroke="midnightblue" d="M198.36,-331.46C224.37,-322.05 264.33,-307.59 293.3,-297.1"/>
<polygon fill="midnightblue" stroke="midnightblue" points="294.84,-300.27 303.05,-293.57 292.46,-293.68 294.84,-300.27"/>
</g>
<!-- Node27 -->
<g id="node27" class="node">
<title>Node27</title>
<g id="a_node27"><a xlink:href="group___operations.html#ga462c16b6479801f3de982785f509141a" target="_top" xlink:title=" ">
<polygon fill="white" stroke="black" points="271,-151.5 271,-170.5 390,-170.5 390,-151.5 271,-151.5"/>
<text text-anchor="middle" x="330.5" y="-158.5" font-family="Helvetica,sans-Serif" font-size="10.00">operations_load_xml</text>
</a>
</g>
</g>
<!-- Node23&#45;&gt;Node27 -->
<g id="edge34" class="edge">
<title>Node23&#45;&gt;Node27</title>
<path fill="none" stroke="midnightblue" d="M180.47,-331.32C205.89,-302.27 281.81,-215.5 314.38,-178.28"/>
<polygon fill="midnightblue" stroke="midnightblue" points="317.04,-180.56 320.99,-170.73 311.77,-175.95 317.04,-180.56"/>
</g>
<!-- Node24&#45;&gt;Node14 -->
<g id="edge26" class="edge">
<title>Node24&#45;&gt;Node14</title>
<path fill="none" stroke="midnightblue" d="M383.9,-284C401.45,-284 420.89,-284 438,-284"/>
<polygon fill="midnightblue" stroke="midnightblue" points="438.32,-287.5 448.32,-284 438.32,-280.5 438.32,-287.5"/>
</g>
<!-- Node24&#45;&gt;Node16 -->
<g id="edge27" class="edge">
<title>Node24&#45;&gt;Node16</title>
<path fill="none" stroke="midnightblue" d="M370.23,-274.41C393.75,-268.59 423.64,-261.19 447.02,-255.4"/>
<polygon fill="midnightblue" stroke="midnightblue" points="448.07,-258.75 456.94,-252.95 446.39,-251.95 448.07,-258.75"/>
</g>
<!-- Node24&#45;&gt;Node17 -->
<g id="edge28" class="edge">
<title>Node24&#45;&gt;Node17</title>
<path fill="none" stroke="midnightblue" d="M345.04,-274.45C362.91,-262.18 395.66,-240.81 426,-227 433.15,-223.75 441.02,-220.8 448.62,-218.26"/>
<polygon fill="midnightblue" stroke="midnightblue" points="449.9,-221.52 458.37,-215.15 447.78,-214.85 449.9,-221.52"/>
</g>
<!-- Node24&#45;&gt;Node18 -->
<g id="edge29" class="edge">
<title>Node24&#45;&gt;Node18</title>
<path fill="none" stroke="midnightblue" d="M338.45,-293.57C352.74,-312.58 387.32,-355.3 426,-379 429.41,-381.09 433.08,-382.98 436.85,-384.67"/>
<polygon fill="midnightblue" stroke="midnightblue" points="435.79,-388.01 446.37,-388.5 438.4,-381.52 435.79,-388.01"/>
</g>
<!-- Node24&#45;&gt;Node21 -->
<g id="edge31" class="edge">
<title>Node24&#45;&gt;Node21</title>
<path fill="none" stroke="midnightblue" d="M345.04,-293.55C362.91,-305.82 395.66,-327.19 426,-341 433.01,-344.19 440.72,-347.09 448.19,-349.6"/>
<polygon fill="midnightblue" stroke="midnightblue" points="447.19,-352.95 457.78,-352.67 449.32,-346.29 447.19,-352.95"/>
</g>
<!-- Node24&#45;&gt;Node22 -->
<g id="edge33" class="edge">
<title>Node24&#45;&gt;Node22</title>
<path fill="none" stroke="midnightblue" d="M370.23,-293.59C396.5,-300.09 430.72,-308.56 454.93,-314.56"/>
<polygon fill="midnightblue" stroke="midnightblue" points="454.1,-317.96 464.65,-316.96 455.78,-311.16 454.1,-317.96"/>
</g>
<!-- Node25 -->
<g id="node25" class="node">
<title>Node25</title>
<g id="a_node25"><a xlink:href="namespace_d.html#acff69d64de92ad4a8530de5424425dee" target="_top" xlink:title=" ">
<polygon fill="white" stroke="black" points="456.5,-122.5 456.5,-141.5 515.5,-141.5 515.5,-122.5 456.5,-122.5"/>
<text text-anchor="middle" x="486" y="-129.5" font-family="Helvetica,sans-Serif" font-size="10.00">D::rotate</text>
</a>
</g>
</g>
<!-- Node24&#45;&gt;Node25 -->
<g id="edge30" class="edge">
<title>Node24&#45;&gt;Node25</title>
<path fill="none" stroke="midnightblue" d="M335.68,-274.35C346.74,-249.96 379.16,-185.32 426,-151 432.09,-146.54 439.27,-143.1 446.48,-140.45"/>
<polygon fill="midnightblue" stroke="midnightblue" points="447.8,-143.7 456.25,-137.31 445.66,-137.04 447.8,-143.7"/>
</g>
<!-- Node26 -->
<g id="node26" class="node">
<title>Node26</title>
<g id="a_node26"><a xlink:href="namespace_d.html#ae308988f832b1d5420f532ac7dfd772e" target="_top" xlink:title=" ">
<polygon fill="white" stroke="black" points="449,-160.5 449,-179.5 523,-179.5 523,-160.5 449,-160.5"/>
<text text-anchor="middle" x="486" y="-167.5" font-family="Helvetica,sans-Serif" font-size="10.00">D::translate</text>
</a>
</g>
</g>
<!-- Node24&#45;&gt;Node26 -->
<g id="edge32" class="edge">
<title>Node24&#45;&gt;Node26</title>
<path fill="none" stroke="midnightblue" d="M338.45,-274.43C352.74,-255.42 387.32,-212.7 426,-189 430.14,-186.46 434.65,-184.23 439.28,-182.27"/>
<polygon fill="midnightblue" stroke="midnightblue" points="440.75,-185.46 448.85,-178.63 438.26,-178.91 440.75,-185.46"/>
</g>
<!-- Node28 -->
<g id="node28" class="node">
<title>Node28</title>
<g id="a_node28"><a xlink:href="group___operations.html#ga724a75a0bcc5898b0f2e576db5a3ef65" target="_top" xlink:title=" ">
<polygon fill="white" stroke="black" points="426,-66.5 426,-85.5 546,-85.5 546,-66.5 426,-66.5"/>
<text text-anchor="middle" x="486" y="-73.5" font-family="Helvetica,sans-Serif" font-size="10.00">operations_push_any</text>
</a>
</g>
</g>
<!-- Node27&#45;&gt;Node28 -->
<g id="edge35" class="edge">
<title>Node27&#45;&gt;Node28</title>
<path fill="none" stroke="midnightblue" d="M348.81,-151.41C375.53,-136.62 427,-108.11 458.45,-90.7"/>
<polygon fill="midnightblue" stroke="midnightblue" points="460.46,-93.59 467.52,-85.68 457.07,-87.46 460.46,-93.59"/>
</g>
<!-- Node28&#45;&gt;Node28 -->
<g id="edge38" class="edge">
<title>Node28&#45;&gt;Node28</title>
<path fill="none" stroke="midnightblue" d="M462.26,-85.76C450.72,-94.57 458.63,-104 486,-104 503.96,-104 513.54,-99.94 514.75,-94.65"/>
<polygon fill="midnightblue" stroke="midnightblue" points="517.69,-92.75 509.74,-85.76 511.59,-96.19 517.69,-92.75"/>
</g>
<!-- Node29 -->
<g id="node29" class="node">
<title>Node29</title>
<g id="a_node29"><a xlink:href="group___operations.html#ga5e1350b5e6d7267d7e95a8ee351eae51" target="_top" xlink:title=" ">
<polygon fill="white" stroke="black" points="582,-126.5 582,-145.5 714,-145.5 714,-126.5 582,-126.5"/>
<text text-anchor="middle" x="648" y="-133.5" font-family="Helvetica,sans-Serif" font-size="10.00">crashIfFileDoesNotExist</text>
</a>
</g>
</g>
<!-- Node28&#45;&gt;Node29 -->
<g id="edge36" class="edge">
<title>Node28&#45;&gt;Node29</title>
<path fill="none" stroke="midnightblue" d="M507.09,-85.53C526.13,-94.35 555.64,-107.5 582,-117 588.32,-119.28 595.05,-121.48 601.7,-123.54"/>
<polygon fill="midnightblue" stroke="midnightblue" points="600.74,-126.9 611.32,-126.43 602.75,-120.2 600.74,-126.9"/>
</g>
<!-- Node30 -->
<g id="node30" class="node">
<title>Node30</title>
<g id="a_node30"><a xlink:href="group___operations.html#gab70be49ae6c9836b6605fa296e23c58c" target="_top" xlink:title=" ">
<polygon fill="white" stroke="black" points="600.5,-88.5 600.5,-107.5 695.5,-107.5 695.5,-88.5 600.5,-88.5"/>
<text text-anchor="middle" x="648" y="-95.5" font-family="Helvetica,sans-Serif" font-size="10.00">elementToEnum</text>
</a>
</g>
</g>
<!-- Node28&#45;&gt;Node30 -->
<g id="edge37" class="edge">
<title>Node28&#45;&gt;Node30</title>
<path fill="none" stroke="midnightblue" d="M546.12,-84.13C560.52,-86.11 575.89,-88.22 590.18,-90.19"/>
<polygon fill="midnightblue" stroke="midnightblue" points="589.98,-93.69 600.36,-91.59 590.93,-86.76 589.98,-93.69"/>
</g>
<!-- Node31 -->
<g id="node31" class="node">
<title>Node31</title>
<g id="a_node31"><a xlink:href="group___operations.html#ga27f2fb7edc94a99859f8e3a5120af3b4" target="_top" xlink:title=" ">
<polygon fill="white" stroke="black" points="583,-39 583,-69 713,-69 713,-39 583,-39"/>
<text text-anchor="start" x="591" y="-57" font-family="Helvetica,sans-Serif" font-size="10.00">operations_push_string</text>
<text text-anchor="middle" x="648" y="-46" font-family="Helvetica,sans-Serif" font-size="10.00">_attribute</text>
</a>
</g>
</g>
<!-- Node28&#45;&gt;Node31 -->
<g id="edge39" class="edge">
<title>Node28&#45;&gt;Node31</title>
<path fill="none" stroke="midnightblue" d="M546.12,-67.87C554.79,-66.68 563.81,-65.44 572.73,-64.21"/>
<polygon fill="midnightblue" stroke="midnightblue" points="573.31,-67.67 582.74,-62.84 572.36,-60.73 573.31,-67.67"/>
</g>
<!-- Node32 -->
<g id="node32" class="node">
<title>Node32</title>
<g id="a_node32"><a xlink:href="group___operations.html#ga97fc3f3450980b121126d829a0263836" target="_top" xlink:title=" ">
<polygon fill="white" stroke="black" points="591.5,-0.5 591.5,-19.5 704.5,-19.5 704.5,-0.5 591.5,-0.5"/>
<text text-anchor="middle" x="648" y="-7.5" font-family="Helvetica,sans-Serif" font-size="10.00">pushFloatAttributes</text>
</a>
</g>
</g>
<!-- Node28&#45;&gt;Node32 -->
<g id="edge40" class="edge">
<title>Node28&#45;&gt;Node32</title>
<path fill="none" stroke="midnightblue" d="M504.1,-66.4C522.8,-56.17 553.89,-39.97 582,-29 587.89,-26.7 594.18,-24.53 600.44,-22.53"/>
<polygon fill="midnightblue" stroke="midnightblue" points="601.65,-25.82 610.18,-19.55 599.6,-19.13 601.65,-25.82"/>
</g>
</g>
</svg>
