<?xml version="1.0" encoding="UTF-8" standalone="no"?>
<!DOCTYPE svg PUBLIC "-//W3C//DTD SVG 1.1//EN"
 "http://www.w3.org/Graphics/SVG/1.1/DTD/svg11.dtd">
<!-- Generated by graphviz version 3.0.0 (0)
 -->
<!-- Title: main Pages: 1 -->
<svg width="1023pt" height="351pt"
 viewBox="0.00 0.00 1023.00 351.00" xmlns="http://www.w3.org/2000/svg" xmlns:xlink="http://www.w3.org/1999/xlink">
<g id="graph0" class="graph" transform="scale(1 1) rotate(0) translate(4 347)">
<title>main</title>
<polygon fill="white" stroke="transparent" points="-4,4 -4,-347 1019,-347 1019,4 -4,4"/>
<!-- Node1 -->
<g id="node1" class="node">
<title>Node1</title>
<g id="a_node1"><a xlink:title=" ">
<polygon fill="#bfbfbf" stroke="black" points="0,-95.5 0,-114.5 41,-114.5 41,-95.5 0,-95.5"/>
<text text-anchor="middle" x="20.5" y="-102.5" font-family="Helvetica,sans-Serif" font-size="10.00">main</text>
</a>
</g>
</g>
<!-- Node2 -->
<g id="node2" class="node">
<title>Node2</title>
<g id="a_node2"><a xlink:href="group__engine.html#ga98eaf946471acbd931de5d52ca83b3d1" target="_top" xlink:title=" ">
<polygon fill="white" stroke="black" points="77,-95.5 77,-114.5 148,-114.5 148,-95.5 77,-95.5"/>
<text text-anchor="middle" x="112.5" y="-102.5" font-family="Helvetica,sans-Serif" font-size="10.00">engine_run</text>
</a>
</g>
</g>
<!-- Node1&#45;&gt;Node2 -->
<g id="edge1" class="edge">
<title>Node1&#45;&gt;Node2</title>
<path fill="none" stroke="midnightblue" d="M41.03,-105C48.62,-105 57.64,-105 66.66,-105"/>
<polygon fill="midnightblue" stroke="midnightblue" points="66.77,-108.5 76.77,-105 66.77,-101.5 66.77,-108.5"/>
</g>
<!-- Node3 -->
<g id="node3" class="node">
<title>Node3</title>
<g id="a_node3"><a xlink:href="group__engine.html#ga33e20b37682a0492a9e95d13bef17f02" target="_top" xlink:title=" ">
<polygon fill="white" stroke="black" points="212,-190.5 212,-209.5 284,-209.5 284,-190.5 212,-190.5"/>
<text text-anchor="middle" x="248" y="-197.5" font-family="Helvetica,sans-Serif" font-size="10.00">changeSize</text>
</a>
</g>
</g>
<!-- Node2&#45;&gt;Node3 -->
<g id="edge2" class="edge">
<title>Node2&#45;&gt;Node3</title>
<path fill="none" stroke="midnightblue" d="M119.88,-114.7C130.99,-130.84 155.45,-163.18 184,-181 189.53,-184.45 195.73,-187.31 202.02,-189.67"/>
<polygon fill="midnightblue" stroke="midnightblue" points="201.31,-193.12 211.91,-192.97 203.53,-186.48 201.31,-193.12"/>
</g>
<!-- Node4 -->
<g id="node4" class="node">
<title>Node4</title>
<g id="a_node4"><a xlink:href="group__input.html#gac7632fff72011e8c11ae504a4596a7f7" target="_top" xlink:title=" ">
<polygon fill="white" stroke="black" points="206,-76.5 206,-95.5 290,-95.5 290,-76.5 206,-76.5"/>
<text text-anchor="middle" x="248" y="-83.5" font-family="Helvetica,sans-Serif" font-size="10.00">keyboardFunc</text>
</a>
</g>
</g>
<!-- Node2&#45;&gt;Node4 -->
<g id="edge3" class="edge">
<title>Node2&#45;&gt;Node4</title>
<path fill="none" stroke="midnightblue" d="M148.23,-100.06C162.68,-98 179.75,-95.57 195.6,-93.32"/>
<polygon fill="midnightblue" stroke="midnightblue" points="196.4,-96.74 205.8,-91.86 195.41,-89.81 196.4,-96.74"/>
</g>
<!-- Node8 -->
<g id="node8" class="node">
<title>Node8</title>
<g id="a_node8"><a xlink:href="group__input.html#ga2bebb17428cb218231ad556de2a20ed6" target="_top" xlink:title=" ">
<polygon fill="white" stroke="black" points="211,-38.5 211,-57.5 285,-57.5 285,-38.5 211,-38.5"/>
<text text-anchor="middle" x="248" y="-45.5" font-family="Helvetica,sans-Serif" font-size="10.00">motionFunc</text>
</a>
</g>
</g>
<!-- Node2&#45;&gt;Node8 -->
<g id="edge7" class="edge">
<title>Node2&#45;&gt;Node8</title>
<path fill="none" stroke="midnightblue" d="M129.01,-95.46C143.01,-87.14 164.35,-75.16 184,-67 189.47,-64.73 195.32,-62.59 201.16,-60.64"/>
<polygon fill="midnightblue" stroke="midnightblue" points="202.45,-63.9 210.91,-57.52 200.32,-57.23 202.45,-63.9"/>
</g>
<!-- Node9 -->
<g id="node9" class="node">
<title>Node9</title>
<g id="a_node9"><a xlink:href="group__input.html#gad48076b61c0ddb6bd4fadf644bf59ff1" target="_top" xlink:title=" ">
<polygon fill="white" stroke="black" points="212,-0.5 212,-19.5 284,-19.5 284,-0.5 212,-0.5"/>
<text text-anchor="middle" x="248" y="-7.5" font-family="Helvetica,sans-Serif" font-size="10.00">mouseFunc</text>
</a>
</g>
</g>
<!-- Node2&#45;&gt;Node9 -->
<g id="edge9" class="edge">
<title>Node2&#45;&gt;Node9</title>
<path fill="none" stroke="midnightblue" d="M119.88,-95.3C130.99,-79.16 155.45,-46.82 184,-29 189.53,-25.55 195.73,-22.69 202.02,-20.33"/>
<polygon fill="midnightblue" stroke="midnightblue" points="203.53,-23.52 211.91,-17.03 201.31,-16.88 203.53,-23.52"/>
</g>
<!-- Node10 -->
<g id="node10" class="node">
<title>Node10</title>
<g id="a_node10"><a xlink:href="group__engine.html#ga91c42686f3245f22fb6b17ba5372d92c" target="_top" xlink:title=" ">
<polygon fill="white" stroke="black" points="209.5,-114.5 209.5,-133.5 286.5,-133.5 286.5,-114.5 209.5,-114.5"/>
<text text-anchor="middle" x="248" y="-121.5" font-family="Helvetica,sans-Serif" font-size="10.00">renderScene</text>
</a>
</g>
</g>
<!-- Node2&#45;&gt;Node10 -->
<g id="edge11" class="edge">
<title>Node2&#45;&gt;Node10</title>
<path fill="none" stroke="midnightblue" d="M148.23,-109.94C163.71,-112.15 182.2,-114.78 198.98,-117.17"/>
<polygon fill="midnightblue" stroke="midnightblue" points="198.77,-120.67 209.16,-118.62 199.76,-113.74 198.77,-120.67"/>
</g>
<!-- Node18 -->
<g id="node18" class="node">
<title>Node18</title>
<g id="a_node18"><a xlink:href="group__engine.html#ga2b6a8884687b3fe271b099a450a82d24" target="_top" xlink:title=" ">
<polygon fill="white" stroke="black" points="184,-152.5 184,-171.5 312,-171.5 312,-152.5 184,-152.5"/>
<text text-anchor="middle" x="248" y="-159.5" font-family="Helvetica,sans-Serif" font-size="10.00">xml_load_and_set_env</text>
</a>
</g>
</g>
<!-- Node2&#45;&gt;Node18 -->
<g id="edge19" class="edge">
<title>Node2&#45;&gt;Node18</title>
<path fill="none" stroke="midnightblue" d="M129.01,-114.54C143.01,-122.86 164.35,-134.84 184,-143 189.47,-145.27 195.32,-147.41 201.16,-149.36"/>
<polygon fill="midnightblue" stroke="midnightblue" points="200.32,-152.77 210.91,-152.48 202.45,-146.1 200.32,-152.77"/>
</g>
<!-- Node5 -->
<g id="node5" class="node">
<title>Node5</title>
<g id="a_node5"><a xlink:href="group__engine.html#ga8679d9b303f36964bf51dba0993caeaa" target="_top" xlink:title=" ">
<polygon fill="white" stroke="black" points="354.5,-133.5 354.5,-152.5 460.5,-152.5 460.5,-133.5 354.5,-133.5"/>
<text text-anchor="middle" x="407.5" y="-140.5" font-family="Helvetica,sans-Serif" font-size="10.00">env_load_defaults</text>
</a>
</g>
</g>
<!-- Node4&#45;&gt;Node5 -->
<g id="edge4" class="edge">
<title>Node4&#45;&gt;Node5</title>
<path fill="none" stroke="midnightblue" d="M285.07,-95.57C293.99,-98.3 303.44,-101.49 312,-105 328.74,-111.87 331.34,-116.96 348,-124 353.1,-126.16 358.54,-128.22 363.97,-130.14"/>
<polygon fill="midnightblue" stroke="midnightblue" points="363.05,-133.52 373.65,-133.42 365.3,-126.89 363.05,-133.52"/>
</g>
<!-- Node6 -->
<g id="node6" class="node">
<title>Node6</title>
<g id="a_node6"><a xlink:href="group__engine.html#gab9813926390dc5773baf0b20dc2ea16e" target="_top" xlink:title=" ">
<polygon fill="white" stroke="black" points="376.5,-19.5 376.5,-38.5 438.5,-38.5 438.5,-19.5 376.5,-19.5"/>
<text text-anchor="middle" x="407.5" y="-26.5" font-family="Helvetica,sans-Serif" font-size="10.00">redisplay</text>
</a>
</g>
</g>
<!-- Node4&#45;&gt;Node6 -->
<g id="edge5" class="edge">
<title>Node4&#45;&gt;Node6</title>
<path fill="none" stroke="midnightblue" d="M285.07,-76.43C293.99,-73.7 303.44,-70.51 312,-67 328.74,-60.13 331.34,-55.04 348,-48 353.94,-45.49 360.33,-43.11 366.63,-40.93"/>
<polygon fill="midnightblue" stroke="midnightblue" points="367.99,-44.17 376.38,-37.69 365.78,-37.52 367.99,-44.17"/>
</g>
<!-- Node7 -->
<g id="node7" class="node">
<title>Node7</title>
<g id="a_node7"><a xlink:href="group__spherical.html#gab5ff5216bffd1e15798677f24213213d" target="_top" xlink:title=" ">
<polygon fill="white" stroke="black" points="514,-19.5 514,-38.5 627,-38.5 627,-19.5 514,-19.5"/>
<text text-anchor="middle" x="570.5" y="-26.5" font-family="Helvetica,sans-Serif" font-size="10.00">spherical2Cartesian</text>
</a>
</g>
</g>
<!-- Node6&#45;&gt;Node7 -->
<g id="edge6" class="edge">
<title>Node6&#45;&gt;Node7</title>
<path fill="none" stroke="midnightblue" d="M438.78,-29C457.11,-29 481.22,-29 503.73,-29"/>
<polygon fill="midnightblue" stroke="midnightblue" points="503.94,-32.5 513.94,-29 503.94,-25.5 503.94,-32.5"/>
</g>
<!-- Node8&#45;&gt;Node6 -->
<g id="edge8" class="edge">
<title>Node8&#45;&gt;Node6</title>
<path fill="none" stroke="midnightblue" d="M285.13,-43.64C309.29,-40.73 341.11,-36.89 366.1,-33.87"/>
<polygon fill="midnightblue" stroke="midnightblue" points="366.84,-37.31 376.35,-32.64 366.01,-30.36 366.84,-37.31"/>
</g>
<!-- Node9&#45;&gt;Node6 -->
<g id="edge10" class="edge">
<title>Node9&#45;&gt;Node6</title>
<path fill="none" stroke="midnightblue" d="M284.35,-14.26C308.66,-17.2 341,-21.1 366.29,-24.15"/>
<polygon fill="midnightblue" stroke="midnightblue" points="365.96,-27.64 376.31,-25.36 366.8,-20.69 365.96,-27.64"/>
</g>
<!-- Node11 -->
<g id="node11" class="node">
<title>Node11</title>
<g id="a_node11"><a xlink:href="engine_8cpp.html#a634dba686e70e7ff3f10c37d11f463da" target="_top" xlink:title=" ">
<polygon fill="white" stroke="black" points="373,-95.5 373,-114.5 442,-114.5 442,-95.5 373,-95.5"/>
<text text-anchor="middle" x="407.5" y="-102.5" font-family="Helvetica,sans-Serif" font-size="10.00">draw_axes</text>
</a>
</g>
</g>
<!-- Node10&#45;&gt;Node11 -->
<g id="edge12" class="edge">
<title>Node10&#45;&gt;Node11</title>
<path fill="none" stroke="midnightblue" d="M286.73,-119.45C309.56,-116.69 338.77,-113.17 362.63,-110.29"/>
<polygon fill="midnightblue" stroke="midnightblue" points="363.32,-113.73 372.83,-109.06 362.49,-106.78 363.32,-113.73"/>
</g>
<!-- Node12 -->
<g id="node12" class="node">
<title>Node12</title>
<g id="a_node12"><a xlink:href="group___operations.html#ga887f20c10a27832ea24178203a47fcc2" target="_top" xlink:title=" ">
<polygon fill="white" stroke="black" points="355,-171.5 355,-190.5 460,-190.5 460,-171.5 355,-171.5"/>
<text text-anchor="middle" x="407.5" y="-178.5" font-family="Helvetica,sans-Serif" font-size="10.00">operations_render</text>
</a>
</g>
</g>
<!-- Node10&#45;&gt;Node12 -->
<g id="edge13" class="edge">
<title>Node10&#45;&gt;Node12</title>
<path fill="none" stroke="midnightblue" d="M285.07,-133.57C293.99,-136.3 303.44,-139.49 312,-143 328.74,-149.87 331.34,-154.96 348,-162 353.1,-164.16 358.54,-166.22 363.97,-168.14"/>
<polygon fill="midnightblue" stroke="midnightblue" points="363.05,-171.52 373.65,-171.42 365.3,-164.89 363.05,-171.52"/>
</g>
<!-- Node17 -->
<g id="node17" class="node">
<title>Node17</title>
<g id="a_node17"><a xlink:href="group__engine.html#gaf049ec1caddd7a032fc8b48641e12f1e" target="_top" xlink:title=" ">
<polygon fill="white" stroke="black" points="355.5,-57.5 355.5,-76.5 459.5,-76.5 459.5,-57.5 355.5,-57.5"/>
<text text-anchor="middle" x="407.5" y="-64.5" font-family="Helvetica,sans-Serif" font-size="10.00">renderGreenPlane</text>
</a>
</g>
</g>
<!-- Node10&#45;&gt;Node17 -->
<g id="edge18" class="edge">
<title>Node10&#45;&gt;Node17</title>
<path fill="none" stroke="midnightblue" d="M285.07,-114.43C293.99,-111.7 303.44,-108.51 312,-105 328.74,-98.13 331.34,-93.04 348,-86 353.1,-83.84 358.54,-81.78 363.97,-79.86"/>
<polygon fill="midnightblue" stroke="midnightblue" points="365.3,-83.11 373.65,-76.58 363.05,-76.48 365.3,-83.11"/>
</g>
<!-- Node13 -->
<g id="node13" class="node">
<title>Node13</title>
<g id="a_node13"><a xlink:href="group__model_engine.html#ga56beba311d0a6fcbda9aeb516fe67f8f" target="_top" xlink:title=" ">
<polygon fill="white" stroke="black" points="535.5,-95.5 535.5,-114.5 605.5,-114.5 605.5,-95.5 535.5,-95.5"/>
<text text-anchor="middle" x="570.5" y="-102.5" font-family="Helvetica,sans-Serif" font-size="10.00">allocModel</text>
</a>
</g>
</g>
<!-- Node12&#45;&gt;Node13 -->
<g id="edge14" class="edge">
<title>Node12&#45;&gt;Node13</title>
<path fill="none" stroke="midnightblue" d="M447.18,-171.47C454.06,-168.94 460.95,-165.82 467,-162 486.67,-149.58 483.11,-136.07 503,-124 509.86,-119.84 517.66,-116.56 525.46,-113.98"/>
<polygon fill="midnightblue" stroke="midnightblue" points="526.66,-117.27 535.25,-111.07 524.67,-110.56 526.66,-117.27"/>
</g>
<!-- Node14 -->
<g id="node14" class="node">
<title>Node14</title>
<g id="a_node14"><a xlink:href="group__spherical.html#ga2a22d15f7463ccd8f8d1aa65e7578983" target="_top" xlink:title=" ">
<polygon fill="white" stroke="black" points="514,-209.5 514,-228.5 627,-228.5 627,-209.5 514,-209.5"/>
<text text-anchor="middle" x="570.5" y="-216.5" font-family="Helvetica,sans-Serif" font-size="10.00">cartesian2Spherical</text>
</a>
</g>
</g>
<!-- Node12&#45;&gt;Node14 -->
<g id="edge15" class="edge">
<title>Node12&#45;&gt;Node14</title>
<path fill="none" stroke="midnightblue" d="M449.13,-190.59C470.47,-195.63 496.81,-201.84 519.41,-207.18"/>
<polygon fill="midnightblue" stroke="midnightblue" points="518.63,-210.59 529.17,-209.48 520.24,-203.78 518.63,-210.59"/>
</g>
<!-- Node15 -->
<g id="node15" class="node">
<title>Node15</title>
<g id="a_node15"><a xlink:href="group__model_engine.html#gae7de75a0850ac9069b4a3710b63a102c" target="_top" xlink:title=" ">
<polygon fill="white" stroke="black" points="531.5,-171.5 531.5,-190.5 609.5,-190.5 609.5,-171.5 531.5,-171.5"/>
<text text-anchor="middle" x="570.5" y="-178.5" font-family="Helvetica,sans-Serif" font-size="10.00">renderModel</text>
</a>
</g>
</g>
<!-- Node12&#45;&gt;Node15 -->
<g id="edge16" class="edge">
<title>Node12&#45;&gt;Node15</title>
<path fill="none" stroke="midnightblue" d="M460.33,-181C479.89,-181 502.04,-181 521.26,-181"/>
<polygon fill="midnightblue" stroke="midnightblue" points="521.3,-184.5 531.3,-181 521.3,-177.5 521.3,-184.5"/>
</g>
<!-- Node16 -->
<g id="node16" class="node">
<title>Node16</title>
<g id="a_node16"><a xlink:href="group__engine.html#ga260fbd3d70764684657bbf1a617ddf99" target="_top" xlink:title=" ">
<polygon fill="white" stroke="black" points="533.5,-133.5 533.5,-152.5 607.5,-152.5 607.5,-133.5 533.5,-133.5"/>
<text text-anchor="middle" x="570.5" y="-140.5" font-family="Helvetica,sans-Serif" font-size="10.00">vbo_indices</text>
</a>
</g>
</g>
<!-- Node12&#45;&gt;Node16 -->
<g id="edge17" class="edge">
<title>Node12&#45;&gt;Node16</title>
<path fill="none" stroke="midnightblue" d="M449.13,-171.41C471.69,-166.09 499.83,-159.44 523.24,-153.92"/>
<polygon fill="midnightblue" stroke="midnightblue" points="524.35,-157.25 533.28,-151.55 522.74,-150.44 524.35,-157.25"/>
</g>
<!-- Node18&#45;&gt;Node5 -->
<g id="edge20" class="edge">
<title>Node18&#45;&gt;Node5</title>
<path fill="none" stroke="midnightblue" d="M312.15,-154.38C322.79,-153.1 333.82,-151.77 344.43,-150.49"/>
<polygon fill="midnightblue" stroke="midnightblue" points="344.94,-153.95 354.44,-149.28 344.1,-147 344.94,-153.95"/>
</g>
<!-- Node18&#45;&gt;Node12 -->
<g id="edge29" class="edge">
<title>Node18&#45;&gt;Node12</title>
<path fill="none" stroke="midnightblue" d="M312.15,-169.62C322.92,-170.92 334.09,-172.26 344.82,-173.56"/>
<polygon fill="midnightblue" stroke="midnightblue" points="344.59,-177.06 354.94,-174.78 345.43,-170.11 344.59,-177.06"/>
</g>
<!-- Node19 -->
<g id="node19" class="node">
<title>Node19</title>
<g id="a_node19"><a xlink:href="group__xml.html#gac937a83a82258806ef77b02f97ef0834" target="_top" xlink:title=" ">
<polygon fill="white" stroke="black" points="348,-247.5 348,-266.5 467,-266.5 467,-247.5 348,-247.5"/>
<text text-anchor="middle" x="407.5" y="-254.5" font-family="Helvetica,sans-Serif" font-size="10.00">operations_load_xml</text>
</a>
</g>
</g>
<!-- Node18&#45;&gt;Node19 -->
<g id="edge21" class="edge">
<title>Node18&#45;&gt;Node19</title>
<path fill="none" stroke="midnightblue" d="M288.91,-171.5C296.78,-174.07 304.82,-177.22 312,-181 342.2,-196.92 372.06,-223.17 389.89,-240.27"/>
<polygon fill="midnightblue" stroke="midnightblue" points="387.6,-242.92 397.2,-247.41 392.49,-237.92 387.6,-242.92"/>
</g>
<!-- Node20 -->
<g id="node20" class="node">
<title>Node20</title>
<g id="a_node20"><a xlink:href="group___groups.html#ga72c2d5ef943a89f829c08f6707e7669d" target="_top" xlink:title=" ">
<polygon fill="white" stroke="black" points="503,-285.5 503,-304.5 638,-304.5 638,-285.5 503,-285.5"/>
<text text-anchor="middle" x="570.5" y="-292.5" font-family="Helvetica,sans-Serif" font-size="10.00">operations_push_groups</text>
</a>
</g>
</g>
<!-- Node19&#45;&gt;Node20 -->
<g id="edge22" class="edge">
<title>Node19&#45;&gt;Node20</title>
<path fill="none" stroke="midnightblue" d="M449.13,-266.59C470.47,-271.63 496.81,-277.84 519.41,-283.18"/>
<polygon fill="midnightblue" stroke="midnightblue" points="518.63,-286.59 529.17,-285.48 520.24,-279.78 518.63,-286.59"/>
</g>
<!-- Node24 -->
<g id="node24" class="node">
<title>Node24</title>
<g id="a_node24"><a xlink:href="group___transforms.html#gaa15fe56d7980e7877845f3bc09125017" target="_top" xlink:title=" ">
<polygon fill="white" stroke="black" points="865,-258 865,-288 1015,-288 1015,-258 865,-258"/>
<text text-anchor="start" x="873" y="-276" font-family="Helvetica,sans-Serif" font-size="10.00">operations_push_transform</text>
<text text-anchor="middle" x="940" y="-265" font-family="Helvetica,sans-Serif" font-size="10.00">_attributes</text>
</a>
</g>
</g>
<!-- Node19&#45;&gt;Node24 -->
<g id="edge28" class="edge">
<title>Node19&#45;&gt;Node24</title>
<path fill="none" stroke="midnightblue" d="M467.04,-258.77C561.02,-261.6 745.95,-267.18 854.32,-270.45"/>
<polygon fill="midnightblue" stroke="midnightblue" points="854.46,-273.95 864.56,-270.75 854.67,-266.95 854.46,-273.95"/>
</g>
<!-- Node20&#45;&gt;Node20 -->
<g id="edge23" class="edge">
<title>Node20&#45;&gt;Node20</title>
<path fill="none" stroke="midnightblue" d="M545.53,-304.76C533.38,-313.57 541.71,-323 570.5,-323 589.85,-323 599.95,-318.74 600.81,-313.27"/>
<polygon fill="midnightblue" stroke="midnightblue" points="603.75,-311.37 595.47,-304.76 597.82,-315.09 603.75,-311.37"/>
</g>
<!-- Node21 -->
<g id="node21" class="node">
<title>Node21</title>
<g id="a_node21"><a xlink:href="group___models.html#gaca17d77a06e750f5cd95c1b79e1a8a30" target="_top" xlink:title=" ">
<polygon fill="white" stroke="black" points="682.5,-323.5 682.5,-342.5 820.5,-342.5 820.5,-323.5 682.5,-323.5"/>
<text text-anchor="middle" x="751.5" y="-330.5" font-family="Helvetica,sans-Serif" font-size="10.00">operations_push_models</text>
</a>
</g>
</g>
<!-- Node20&#45;&gt;Node21 -->
<g id="edge24" class="edge">
<title>Node20&#45;&gt;Node21</title>
<path fill="none" stroke="midnightblue" d="M616.67,-304.59C640.72,-309.69 670.47,-316.01 695.82,-321.39"/>
<polygon fill="midnightblue" stroke="midnightblue" points="695.15,-324.83 705.66,-323.48 696.6,-317.98 695.15,-324.83"/>
</g>
<!-- Node23 -->
<g id="node23" class="node">
<title>Node23</title>
<g id="a_node23"><a xlink:href="group___transforms.html#gaaa78b92f0257bb4755731622692de0cb" target="_top" xlink:title=" ">
<polygon fill="white" stroke="black" points="674,-285.5 674,-304.5 829,-304.5 829,-285.5 674,-285.5"/>
<text text-anchor="middle" x="751.5" y="-292.5" font-family="Helvetica,sans-Serif" font-size="10.00">operations_push_transforms</text>
</a>
</g>
</g>
<!-- Node20&#45;&gt;Node23 -->
<g id="edge26" class="edge">
<title>Node20&#45;&gt;Node23</title>
<path fill="none" stroke="midnightblue" d="M638.15,-295C646.51,-295 655.16,-295 663.77,-295"/>
<polygon fill="midnightblue" stroke="midnightblue" points="663.84,-298.5 673.84,-295 663.84,-291.5 663.84,-298.5"/>
</g>
<!-- Node22 -->
<g id="node22" class="node">
<title>Node22</title>
<g id="a_node22"><a xlink:href="group___models.html#ga5dc84f3f40c0bb6ad63dc2da3793ddd9" target="_top" xlink:title=" ">
<polygon fill="white" stroke="black" points="873.5,-323.5 873.5,-342.5 1006.5,-342.5 1006.5,-323.5 873.5,-323.5"/>
<text text-anchor="middle" x="940" y="-330.5" font-family="Helvetica,sans-Serif" font-size="10.00">operations_push_model</text>
</a>
</g>
</g>
<!-- Node21&#45;&gt;Node22 -->
<g id="edge25" class="edge">
<title>Node21&#45;&gt;Node22</title>
<path fill="none" stroke="midnightblue" d="M820.62,-333C834.44,-333 849.05,-333 863.11,-333"/>
<polygon fill="midnightblue" stroke="midnightblue" points="863.24,-336.5 873.24,-333 863.24,-329.5 863.24,-336.5"/>
</g>
<!-- Node23&#45;&gt;Node24 -->
<g id="edge27" class="edge">
<title>Node23&#45;&gt;Node24</title>
<path fill="none" stroke="midnightblue" d="M829.16,-285.96C837.61,-284.96 846.25,-283.94 854.78,-282.93"/>
<polygon fill="midnightblue" stroke="midnightblue" points="855.22,-286.41 864.74,-281.76 854.4,-279.46 855.22,-286.41"/>
</g>
</g>
</svg>
