<?xml version="1.0" encoding="UTF-8" standalone="no"?>
<!DOCTYPE svg PUBLIC "-//W3C//DTD SVG 1.1//EN"
 "http://www.w3.org/Graphics/SVG/1.1/DTD/svg11.dtd">
<!-- Generated by graphviz version 3.0.0 (0)
 -->
<!-- Title: explKeyboard Pages: 1 -->
<svg width="477pt" height="294pt"
 viewBox="0.00 0.00 477.00 294.00" xmlns="http://www.w3.org/2000/svg" xmlns:xlink="http://www.w3.org/1999/xlink">
<g id="graph0" class="graph" transform="scale(1 1) rotate(0) translate(4 290)">
<title>explKeyboard</title>
<polygon fill="white" stroke="transparent" points="-4,4 -4,-290 473,-290 473,4 -4,4"/>
<!-- Node1 -->
<g id="node1" class="node">
<title>Node1</title>
<g id="a_node1"><a xlink:title=" ">
<polygon fill="#bfbfbf" stroke="black" points="0,-190.5 0,-209.5 83,-209.5 83,-190.5 0,-190.5"/>
<text text-anchor="middle" x="41.5" y="-197.5" font-family="Helvetica,sans-Serif" font-size="10.00">explKeyboard</text>
</a>
</g>
</g>
<!-- Node2 -->
<g id="node2" class="node">
<title>Node2</title>
<g id="a_node2"><a xlink:href="group__camera.html#ga025f4079099b4474ee63a12529c22fa4" target="_top" xlink:title=" ">
<polygon fill="white" stroke="black" points="120.5,-228.5 120.5,-247.5 203.5,-247.5 203.5,-228.5 120.5,-228.5"/>
<text text-anchor="middle" x="162" y="-235.5" font-family="Helvetica,sans-Serif" font-size="10.00">changeProfile</text>
</a>
</g>
</g>
<!-- Node1&#45;&gt;Node2 -->
<g id="edge1" class="edge">
<title>Node1&#45;&gt;Node2</title>
<path fill="none" stroke="midnightblue" d="M72.4,-209.59C87.28,-214.36 105.46,-220.19 121.47,-225.32"/>
<polygon fill="midnightblue" stroke="midnightblue" points="120.52,-228.69 131.11,-228.41 122.65,-222.03 120.52,-228.69"/>
</g>
<!-- Node3 -->
<g id="node3" class="node">
<title>Node3</title>
<g id="a_node3"><a xlink:href="group__explorer_camera.html#ga8679d9b303f36964bf51dba0993caeaa" target="_top" xlink:title=" ">
<polygon fill="white" stroke="black" points="244.5,-152.5 244.5,-171.5 350.5,-171.5 350.5,-152.5 244.5,-152.5"/>
<text text-anchor="middle" x="297.5" y="-159.5" font-family="Helvetica,sans-Serif" font-size="10.00">env_load_defaults</text>
</a>
</g>
</g>
<!-- Node1&#45;&gt;Node3 -->
<g id="edge2" class="edge">
<title>Node1&#45;&gt;Node3</title>
<path fill="none" stroke="midnightblue" d="M76.56,-190.48C89.73,-187.08 104.99,-183.48 119,-181 156.89,-174.3 199.78,-169.63 233.9,-166.6"/>
<polygon fill="midnightblue" stroke="midnightblue" points="234.54,-170.05 244.2,-165.71 233.93,-163.08 234.54,-170.05"/>
</g>
<!-- Node12 -->
<g id="node12" class="node">
<title>Node12</title>
<g id="a_node12"><a xlink:href="group__explorer_camera.html#ga9fe47c5361dc03b642823dc88f07465b" target="_top" xlink:title=" ">
<polygon fill="white" stroke="black" points="119,-190.5 119,-209.5 205,-209.5 205,-190.5 119,-190.5"/>
<text text-anchor="middle" x="162" y="-197.5" font-family="Helvetica,sans-Serif" font-size="10.00">explRedisplay</text>
</a>
</g>
</g>
<!-- Node1&#45;&gt;Node12 -->
<g id="edge11" class="edge">
<title>Node1&#45;&gt;Node12</title>
<path fill="none" stroke="midnightblue" d="M83.28,-200C91.47,-200 100.18,-200 108.69,-200"/>
<polygon fill="midnightblue" stroke="midnightblue" points="108.93,-203.5 118.93,-200 108.93,-196.5 108.93,-203.5"/>
</g>
<!-- Node4 -->
<g id="node4" class="node">
<title>Node4</title>
<g id="a_node4"><a xlink:href="namespace_d.html#a393bfec992f13a40a9f601e3e6c82874" target="_top" xlink:title=" ">
<polygon fill="white" stroke="black" points="392,-266.5 392,-285.5 467,-285.5 467,-266.5 392,-266.5"/>
<text text-anchor="middle" x="429.5" y="-273.5" font-family="Helvetica,sans-Serif" font-size="10.00">D::cartesian</text>
</a>
</g>
</g>
<!-- Node3&#45;&gt;Node4 -->
<g id="edge3" class="edge">
<title>Node3&#45;&gt;Node4</title>
<path fill="none" stroke="midnightblue" d="M316.13,-171.53C327.78,-178.41 342.9,-188.48 354,-200 374.79,-221.58 367.73,-236.95 390,-257 391.67,-258.5 393.47,-259.91 395.36,-261.23"/>
<polygon fill="midnightblue" stroke="midnightblue" points="393.64,-264.28 404.01,-266.44 397.25,-258.28 393.64,-264.28"/>
</g>
<!-- Node5 -->
<g id="node5" class="node">
<title>Node5</title>
<g id="a_node5"><a xlink:href="namespace_d.html#ae27403f76d7334ff69a099e42f1f1616" target="_top" xlink:title=" ">
<polygon fill="white" stroke="black" points="400.5,-228.5 400.5,-247.5 458.5,-247.5 458.5,-228.5 400.5,-228.5"/>
<text text-anchor="middle" x="429.5" y="-235.5" font-family="Helvetica,sans-Serif" font-size="10.00">D::origin</text>
</a>
</g>
</g>
<!-- Node3&#45;&gt;Node5 -->
<g id="edge4" class="edge">
<title>Node3&#45;&gt;Node5</title>
<path fill="none" stroke="midnightblue" d="M312.81,-171.53C330.6,-183.23 362.03,-203.44 390,-219 392.87,-220.59 395.88,-222.2 398.92,-223.77"/>
<polygon fill="midnightblue" stroke="midnightblue" points="397.42,-226.94 407.93,-228.31 400.57,-220.69 397.42,-226.94"/>
</g>
<!-- Node6 -->
<g id="node6" class="node">
<title>Node6</title>
<g id="a_node6"><a xlink:href="namespace_d.html#aa2fb96ccebb5bf88d4325f85beb99d84" target="_top" xlink:title="(radius,zenith,azimuth)">
<polygon fill="white" stroke="black" points="402,-190.5 402,-209.5 457,-209.5 457,-190.5 402,-190.5"/>
<text text-anchor="middle" x="429.5" y="-197.5" font-family="Helvetica,sans-Serif" font-size="10.00">D::polar</text>
</a>
</g>
</g>
<!-- Node3&#45;&gt;Node6 -->
<g id="edge5" class="edge">
<title>Node3&#45;&gt;Node6</title>
<path fill="none" stroke="midnightblue" d="M331.3,-171.59C349.79,-176.99 372.93,-183.76 392,-189.33"/>
<polygon fill="midnightblue" stroke="midnightblue" points="391.25,-192.76 401.83,-192.2 393.21,-186.04 391.25,-192.76"/>
</g>
<!-- Node7 -->
<g id="node7" class="node">
<title>Node7</title>
<g id="a_node7"><a xlink:href="namespace_d.html#a49b3788c9a2aae032c6c74d76441aa18" target="_top" xlink:title="(fov,near,var)">
<polygon fill="white" stroke="black" points="390,-0.5 390,-19.5 469,-19.5 469,-0.5 390,-0.5"/>
<text text-anchor="middle" x="429.5" y="-7.5" font-family="Helvetica,sans-Serif" font-size="10.00">D::projection</text>
</a>
</g>
</g>
<!-- Node3&#45;&gt;Node7 -->
<g id="edge6" class="edge">
<title>Node3&#45;&gt;Node7</title>
<path fill="none" stroke="midnightblue" d="M302.94,-152.4C314.33,-128.65 346.76,-66.41 390,-29 391.69,-27.53 393.52,-26.15 395.43,-24.85"/>
<polygon fill="midnightblue" stroke="midnightblue" points="397.31,-27.8 404.12,-19.68 393.73,-21.79 397.31,-27.8"/>
</g>
<!-- Node8 -->
<g id="node8" class="node">
<title>Node8</title>
<g id="a_node8"><a xlink:href="namespace_d.html#acff69d64de92ad4a8530de5424425dee" target="_top" xlink:title=" ">
<polygon fill="white" stroke="black" points="400,-152.5 400,-171.5 459,-171.5 459,-152.5 400,-152.5"/>
<text text-anchor="middle" x="429.5" y="-159.5" font-family="Helvetica,sans-Serif" font-size="10.00">D::rotate</text>
</a>
</g>
</g>
<!-- Node3&#45;&gt;Node8 -->
<g id="edge7" class="edge">
<title>Node3&#45;&gt;Node8</title>
<path fill="none" stroke="midnightblue" d="M350.63,-162C363.63,-162 377.35,-162 389.59,-162"/>
<polygon fill="midnightblue" stroke="midnightblue" points="389.91,-165.5 399.91,-162 389.91,-158.5 389.91,-165.5"/>
</g>
<!-- Node9 -->
<g id="node9" class="node">
<title>Node9</title>
<g id="a_node9"><a xlink:href="namespace_d.html#a1ccd692563b2bed3dbd7275b0bd3dbb3" target="_top" xlink:title=" ">
<polygon fill="white" stroke="black" points="401.5,-114.5 401.5,-133.5 457.5,-133.5 457.5,-114.5 401.5,-114.5"/>
<text text-anchor="middle" x="429.5" y="-121.5" font-family="Helvetica,sans-Serif" font-size="10.00">D::scale</text>
</a>
</g>
</g>
<!-- Node3&#45;&gt;Node9 -->
<g id="edge8" class="edge">
<title>Node3&#45;&gt;Node9</title>
<path fill="none" stroke="midnightblue" d="M331.3,-152.41C349.67,-147.04 372.62,-140.34 391.6,-134.79"/>
<polygon fill="midnightblue" stroke="midnightblue" points="392.79,-138.08 401.41,-131.92 390.83,-131.37 392.79,-138.08"/>
</g>
<!-- Node10 -->
<g id="node10" class="node">
<title>Node10</title>
<g id="a_node10"><a xlink:href="namespace_d.html#ae308988f832b1d5420f532ac7dfd772e" target="_top" xlink:title=" ">
<polygon fill="white" stroke="black" points="392.5,-76.5 392.5,-95.5 466.5,-95.5 466.5,-76.5 392.5,-76.5"/>
<text text-anchor="middle" x="429.5" y="-83.5" font-family="Helvetica,sans-Serif" font-size="10.00">D::translate</text>
</a>
</g>
</g>
<!-- Node3&#45;&gt;Node10 -->
<g id="edge9" class="edge">
<title>Node3&#45;&gt;Node10</title>
<path fill="none" stroke="midnightblue" d="M312.81,-152.47C330.6,-140.77 362.03,-120.56 390,-105 392.87,-103.41 395.88,-101.8 398.92,-100.23"/>
<polygon fill="midnightblue" stroke="midnightblue" points="400.57,-103.31 407.93,-95.69 397.42,-97.06 400.57,-103.31"/>
</g>
<!-- Node11 -->
<g id="node11" class="node">
<title>Node11</title>
<g id="a_node11"><a xlink:href="namespace_d.html#a075a76915f7e2899933f446de8be40d9" target="_top" xlink:title=" ">
<polygon fill="white" stroke="black" points="408.5,-38.5 408.5,-57.5 450.5,-57.5 450.5,-38.5 408.5,-38.5"/>
<text text-anchor="middle" x="429.5" y="-45.5" font-family="Helvetica,sans-Serif" font-size="10.00">D::up</text>
</a>
</g>
</g>
<!-- Node3&#45;&gt;Node11 -->
<g id="edge10" class="edge">
<title>Node3&#45;&gt;Node11</title>
<path fill="none" stroke="midnightblue" d="M305.91,-152.31C320.43,-133.83 354.32,-93.08 390,-67 392.85,-64.91 395.97,-62.95 399.16,-61.13"/>
<polygon fill="midnightblue" stroke="midnightblue" points="400.92,-64.16 408.16,-56.42 397.68,-57.96 400.92,-64.16"/>
</g>
<!-- Node13 -->
<g id="node13" class="node">
<title>Node13</title>
<g id="a_node13"><a xlink:href="group__explorer_camera.html#ga549cdceeb42f58967c400bcf0fe7a9cf" target="_top" xlink:title=" ">
<polygon fill="white" stroke="black" points="241,-209.5 241,-228.5 354,-228.5 354,-209.5 241,-209.5"/>
<text text-anchor="middle" x="297.5" y="-216.5" font-family="Helvetica,sans-Serif" font-size="10.00">spherical2Cartesian</text>
</a>
</g>
</g>
<!-- Node12&#45;&gt;Node13 -->
<g id="edge12" class="edge">
<title>Node12&#45;&gt;Node13</title>
<path fill="none" stroke="midnightblue" d="M205.24,-206.01C213.37,-207.17 222.05,-208.4 230.72,-209.64"/>
<polygon fill="midnightblue" stroke="midnightblue" points="230.46,-213.14 240.85,-211.08 231.44,-206.21 230.46,-213.14"/>
</g>
<!-- Node13&#45;&gt;Node4 -->
<g id="edge13" class="edge">
<title>Node13&#45;&gt;Node4</title>
<path fill="none" stroke="midnightblue" d="M320.26,-228.54C341.35,-237.79 373.56,-251.91 397.36,-262.35"/>
<polygon fill="midnightblue" stroke="midnightblue" points="396.11,-265.62 406.67,-266.43 398.92,-259.21 396.11,-265.62"/>
</g>
<!-- Node13&#45;&gt;Node5 -->
<g id="edge14" class="edge">
<title>Node13&#45;&gt;Node5</title>
<path fill="none" stroke="midnightblue" d="M354.01,-227.11C366.27,-228.9 378.99,-230.76 390.37,-232.43"/>
<polygon fill="midnightblue" stroke="midnightblue" points="390,-235.91 400.4,-233.89 391.01,-228.98 390,-235.91"/>
</g>
<!-- Node13&#45;&gt;Node6 -->
<g id="edge15" class="edge">
<title>Node13&#45;&gt;Node6</title>
<path fill="none" stroke="midnightblue" d="M354.01,-210.89C366.69,-209.03 379.86,-207.11 391.54,-205.4"/>
<polygon fill="midnightblue" stroke="midnightblue" points="392.4,-208.81 401.79,-203.9 391.39,-201.89 392.4,-208.81"/>
</g>
</g>
</svg>
