<?xml version="1.0" encoding="UTF-8" standalone="no"?>
<!DOCTYPE svg PUBLIC "-//W3C//DTD SVG 1.1//EN"
 "http://www.w3.org/Graphics/SVG/1.1/DTD/svg11.dtd">
<!-- Generated by graphviz version 3.0.0 (0)
 -->
<!-- Title: get_bezier_patch Pages: 1 -->
<svg width="436pt" height="154pt"
 viewBox="0.00 0.00 436.00 153.50" xmlns="http://www.w3.org/2000/svg" xmlns:xlink="http://www.w3.org/1999/xlink">
<g id="graph0" class="graph" transform="scale(1 1) rotate(0) translate(4 149.5)">
<title>get_bezier_patch</title>
<polygon fill="white" stroke="transparent" points="-4,4 -4,-149.5 432,-149.5 432,4 -4,4"/>
<!-- Node1 -->
<g id="node1" class="node">
<title>Node1</title>
<g id="a_node1"><a xlink:title=" ">
<polygon fill="#bfbfbf" stroke="black" points="0,-57.5 0,-76.5 100,-76.5 100,-57.5 0,-57.5"/>
<text text-anchor="middle" x="50" y="-64.5" font-family="Helvetica,sans-Serif" font-size="10.00">get_bezier_patch</text>
</a>
</g>
</g>
<!-- Node2 -->
<g id="node2" class="node">
<title>Node2</title>
<g id="a_node2"><a xlink:href="group___bezier.html#ga4623e7c5e81e842a2b10cd85b9481744" target="_top" xlink:title=" ">
<polygon fill="white" stroke="black" points="136,-57.5 136,-76.5 249,-76.5 249,-57.5 136,-57.5"/>
<text text-anchor="middle" x="192.5" y="-64.5" font-family="Helvetica,sans-Serif" font-size="10.00">get_bezier_point_at</text>
</a>
</g>
</g>
<!-- Node1&#45;&gt;Node2 -->
<g id="edge1" class="edge">
<title>Node1&#45;&gt;Node2</title>
<path fill="none" stroke="midnightblue" d="M100.14,-67C108.44,-67 117.18,-67 125.83,-67"/>
<polygon fill="midnightblue" stroke="midnightblue" points="125.9,-70.5 135.9,-67 125.9,-63.5 125.9,-70.5"/>
</g>
<!-- Node3 -->
<g id="node3" class="node">
<title>Node3</title>
<g id="a_node3"><a xlink:href="group___bezier.html#gad11b5559e8d34f899f934960207ded9a" target="_top" xlink:title=" ">
<polygon fill="white" stroke="black" points="300,-115 300,-145 413,-145 413,-115 300,-115"/>
<text text-anchor="start" x="308" y="-133" font-family="Helvetica,sans-Serif" font-size="10.00">deriv_of_monic_3rd</text>
<text text-anchor="middle" x="356.5" y="-122" font-family="Helvetica,sans-Serif" font-size="10.00">_polynomial_at</text>
</a>
</g>
</g>
<!-- Node2&#45;&gt;Node3 -->
<g id="edge2" class="edge">
<title>Node2&#45;&gt;Node3</title>
<path fill="none" stroke="midnightblue" d="M215.56,-76.54C234.01,-84.44 261.08,-95.8 285,-105 290.51,-107.12 296.29,-109.28 302.07,-111.39"/>
<polygon fill="midnightblue" stroke="midnightblue" points="301.15,-114.78 311.74,-114.89 303.53,-108.2 301.15,-114.78"/>
</g>
<!-- Node4 -->
<g id="node4" class="node">
<title>Node4</title>
<g id="a_node4"><a xlink:href="group___curves.html#ga6d6def6a76701b08284cba58066e3382" target="_top" xlink:title=" ">
<polygon fill="white" stroke="black" points="301.5,-76.5 301.5,-95.5 411.5,-95.5 411.5,-76.5 301.5,-76.5"/>
<text text-anchor="middle" x="356.5" y="-83.5" font-family="Helvetica,sans-Serif" font-size="10.00">get_curve_point_at</text>
</a>
</g>
</g>
<!-- Node2&#45;&gt;Node4 -->
<g id="edge3" class="edge">
<title>Node2&#45;&gt;Node4</title>
<path fill="none" stroke="midnightblue" d="M249.25,-73.54C262.8,-75.13 277.4,-76.84 291.31,-78.47"/>
<polygon fill="midnightblue" stroke="midnightblue" points="290.95,-81.95 301.29,-79.64 291.76,-75 290.95,-81.95"/>
</g>
<!-- Node5 -->
<g id="node5" class="node">
<title>Node5</title>
<g id="a_node5"><a xlink:href="group___bezier.html#gafcf7fcde525db8b303b2205562b7684d" target="_top" xlink:title=" ">
<polygon fill="white" stroke="black" points="338.5,-38.5 338.5,-57.5 374.5,-57.5 374.5,-38.5 338.5,-38.5"/>
<text text-anchor="middle" x="356.5" y="-45.5" font-family="Helvetica,sans-Serif" font-size="10.00">mat</text>
</a>
</g>
</g>
<!-- Node2&#45;&gt;Node5 -->
<g id="edge4" class="edge">
<title>Node2&#45;&gt;Node5</title>
<path fill="none" stroke="midnightblue" d="M249.25,-60.46C276.03,-57.32 306.9,-53.7 328.44,-51.17"/>
<polygon fill="midnightblue" stroke="midnightblue" points="328.97,-54.64 338.49,-49.99 328.15,-47.68 328.97,-54.64"/>
</g>
<!-- Node6 -->
<g id="node6" class="node">
<title>Node6</title>
<g id="a_node6"><a xlink:href="group___bezier.html#gaa5cc85b3de7b256bb1f7c98ac78fef08" target="_top" xlink:title=" ">
<polygon fill="white" stroke="black" points="285,-0.5 285,-19.5 428,-19.5 428,-0.5 285,-0.5"/>
<text text-anchor="middle" x="356.5" y="-7.5" font-family="Helvetica,sans-Serif" font-size="10.00">monic_3rd_polynomial_at</text>
</a>
</g>
</g>
<!-- Node2&#45;&gt;Node6 -->
<g id="edge5" class="edge">
<title>Node2&#45;&gt;Node6</title>
<path fill="none" stroke="midnightblue" d="M214.28,-57.46C232.64,-49.25 260.25,-37.43 285,-29 291.93,-26.64 299.32,-24.38 306.61,-22.29"/>
<polygon fill="midnightblue" stroke="midnightblue" points="307.74,-25.61 316.44,-19.55 305.87,-18.86 307.74,-25.61"/>
</g>
</g>
</svg>
