<?xml version="1.0" encoding="UTF-8" standalone="no"?>
<!DOCTYPE svg PUBLIC "-//W3C//DTD SVG 1.1//EN"
 "http://www.w3.org/Graphics/SVG/1.1/DTD/svg11.dtd">
<!-- Generated by graphviz version 3.0.0 (0)
 -->
<!-- Title: engine_run Pages: 1 -->
<!--zoomable 332 -->
<svg id="main" version="1.1" xmlns="http://www.w3.org/2000/svg" xmlns:xlink="http://www.w3.org/1999/xlink" xml:space="preserve" onload="init(evt)">
<style type="text/css"><![CDATA[
.edge:hover path { stroke: red; }
.edge:hover polygon { stroke: red; fill: red; }
]]></style>
<script type="text/javascript"><![CDATA[
var edges = document.getElementsByTagName('g');
if (edges && edges.length) {
  for (var i=0;i<edges.length;i++) {
    if (edges[i].id.substr(0,4)=='edge') {
      edges[i].setAttribute('class','edge');
    }
  }
}
]]></script>
        <defs>
                <circle id="rim" cx="0" cy="0" r="7"/>
                <circle id="rim2" cx="0" cy="0" r="3.5"/>
                <g id="zoomPlus">
                        <use xlink:href="#rim" fill="#404040">
                                <set attributeName="fill" to="#808080" begin="zoomplus.mouseover" end="zoomplus.mouseout"/>
                        </use>
                        <path d="M-4,0h8M0,-4v8" fill="none" stroke="white" stroke-width="1.5" pointer-events="none"/>
                </g>
                <g id="zoomMin">
                        <use xlink:href="#rim" fill="#404040">
                                <set attributeName="fill" to="#808080" begin="zoomminus.mouseover" end="zoomminus.mouseout"/>
                        </use>
                        <path d="M-4,0h8" fill="none" stroke="white" stroke-width="1.5" pointer-events="none"/>
                </g>
                <g id="dirArrow">
                        <path fill="none" stroke="white" stroke-width="1.5" d="M0,-3.0v7 M-2.5,-0.5L0,-3.0L2.5,-0.5"/>
                </g>
               <g id="resetDef">
                       <use xlink:href="#rim2" fill="#404040">
                               <set attributeName="fill" to="#808080" begin="reset.mouseover" end="reset.mouseout"/>
                       </use>
               </g>
        </defs>

<script type="text/javascript">
var viewWidth = 946;
var viewHeight = 332;
var sectionId = 'dynsection-2';
</script>
<script xlink:href="svgpan.js"/>
<svg id="graph" class="graph">
<g id="viewport">
<title>engine_run</title>
<polygon fill="white" stroke="transparent" points="-4,4 -4,-328 942,-328 942,4 -4,4"/>
<!-- Node1 -->
<g id="node1" class="node">
<title>Node1</title>
<g id="a_node1"><a xlink:title=" ">
<polygon fill="#bfbfbf" stroke="black" points="0,-95.5 0,-114.5 71,-114.5 71,-95.5 0,-95.5"/>
<text text-anchor="middle" x="35.5" y="-102.5" font-family="Helvetica,sans-Serif" font-size="10.00">engine_run</text>
</a>
</g>
</g>
<!-- Node2 -->
<g id="node2" class="node">
<title>Node2</title>
<g id="a_node2"><a xlink:href="group__engine.html#ga33e20b37682a0492a9e95d13bef17f02" target="_top" xlink:title=" ">
<polygon fill="white" stroke="black" points="135,-190.5 135,-209.5 207,-209.5 207,-190.5 135,-190.5"/>
<text text-anchor="middle" x="171" y="-197.5" font-family="Helvetica,sans-Serif" font-size="10.00">changeSize</text>
</a>
</g>
</g>
<!-- Node1&#45;&gt;Node2 -->
<g id="edge1" class="edge">
<title>Node1&#45;&gt;Node2</title>
<path fill="none" stroke="midnightblue" d="M42.88,-114.7C53.99,-130.84 78.45,-163.18 107,-181 112.53,-184.45 118.73,-187.31 125.02,-189.67"/>
<polygon fill="midnightblue" stroke="midnightblue" points="124.31,-193.12 134.91,-192.97 126.53,-186.48 124.31,-193.12"/>
</g>
<!-- Node3 -->
<g id="node3" class="node">
<title>Node3</title>
<g id="a_node3"><a xlink:href="group__input.html#gac7632fff72011e8c11ae504a4596a7f7" target="_top" xlink:title=" ">
<polygon fill="white" stroke="black" points="129,-76.5 129,-95.5 213,-95.5 213,-76.5 129,-76.5"/>
<text text-anchor="middle" x="171" y="-83.5" font-family="Helvetica,sans-Serif" font-size="10.00">keyboardFunc</text>
</a>
</g>
</g>
<!-- Node1&#45;&gt;Node3 -->
<g id="edge2" class="edge">
<title>Node1&#45;&gt;Node3</title>
<path fill="none" stroke="midnightblue" d="M71.23,-100.06C85.68,-98 102.75,-95.57 118.6,-93.32"/>
<polygon fill="midnightblue" stroke="midnightblue" points="119.4,-96.74 128.8,-91.86 118.41,-89.81 119.4,-96.74"/>
</g>
<!-- Node7 -->
<g id="node7" class="node">
<title>Node7</title>
<g id="a_node7"><a xlink:href="group__input.html#ga2bebb17428cb218231ad556de2a20ed6" target="_top" xlink:title=" ">
<polygon fill="white" stroke="black" points="134,-38.5 134,-57.5 208,-57.5 208,-38.5 134,-38.5"/>
<text text-anchor="middle" x="171" y="-45.5" font-family="Helvetica,sans-Serif" font-size="10.00">motionFunc</text>
</a>
</g>
</g>
<!-- Node1&#45;&gt;Node7 -->
<g id="edge6" class="edge">
<title>Node1&#45;&gt;Node7</title>
<path fill="none" stroke="midnightblue" d="M52.01,-95.46C66.01,-87.14 87.35,-75.16 107,-67 112.47,-64.73 118.32,-62.59 124.16,-60.64"/>
<polygon fill="midnightblue" stroke="midnightblue" points="125.45,-63.9 133.91,-57.52 123.32,-57.23 125.45,-63.9"/>
</g>
<!-- Node8 -->
<g id="node8" class="node">
<title>Node8</title>
<g id="a_node8"><a xlink:href="group__input.html#gad48076b61c0ddb6bd4fadf644bf59ff1" target="_top" xlink:title=" ">
<polygon fill="white" stroke="black" points="135,-0.5 135,-19.5 207,-19.5 207,-0.5 135,-0.5"/>
<text text-anchor="middle" x="171" y="-7.5" font-family="Helvetica,sans-Serif" font-size="10.00">mouseFunc</text>
</a>
</g>
</g>
<!-- Node1&#45;&gt;Node8 -->
<g id="edge8" class="edge">
<title>Node1&#45;&gt;Node8</title>
<path fill="none" stroke="midnightblue" d="M42.88,-95.3C53.99,-79.16 78.45,-46.82 107,-29 112.53,-25.55 118.73,-22.69 125.02,-20.33"/>
<polygon fill="midnightblue" stroke="midnightblue" points="126.53,-23.52 134.91,-17.03 124.31,-16.88 126.53,-23.52"/>
</g>
<!-- Node9 -->
<g id="node9" class="node">
<title>Node9</title>
<g id="a_node9"><a xlink:href="group__engine.html#ga91c42686f3245f22fb6b17ba5372d92c" target="_top" xlink:title=" ">
<polygon fill="white" stroke="black" points="132.5,-114.5 132.5,-133.5 209.5,-133.5 209.5,-114.5 132.5,-114.5"/>
<text text-anchor="middle" x="171" y="-121.5" font-family="Helvetica,sans-Serif" font-size="10.00">renderScene</text>
</a>
</g>
</g>
<!-- Node1&#45;&gt;Node9 -->
<g id="edge10" class="edge">
<title>Node1&#45;&gt;Node9</title>
<path fill="none" stroke="midnightblue" d="M71.23,-109.94C86.71,-112.15 105.2,-114.78 121.98,-117.17"/>
<polygon fill="midnightblue" stroke="midnightblue" points="121.77,-120.67 132.16,-118.62 122.76,-113.74 121.77,-120.67"/>
</g>
<!-- Node16 -->
<g id="node16" class="node">
<title>Node16</title>
<g id="a_node16"><a xlink:href="group__engine.html#ga2b6a8884687b3fe271b099a450a82d24" target="_top" xlink:title=" ">
<polygon fill="white" stroke="black" points="107,-152.5 107,-171.5 235,-171.5 235,-152.5 107,-152.5"/>
<text text-anchor="middle" x="171" y="-159.5" font-family="Helvetica,sans-Serif" font-size="10.00">xml_load_and_set_env</text>
</a>
</g>
</g>
<!-- Node1&#45;&gt;Node16 -->
<g id="edge17" class="edge">
<title>Node1&#45;&gt;Node16</title>
<path fill="none" stroke="midnightblue" d="M52.01,-114.54C66.01,-122.86 87.35,-134.84 107,-143 112.47,-145.27 118.32,-147.41 124.16,-149.36"/>
<polygon fill="midnightblue" stroke="midnightblue" points="123.32,-152.77 133.91,-152.48 125.45,-146.1 123.32,-152.77"/>
</g>
<!-- Node4 -->
<g id="node4" class="node">
<title>Node4</title>
<g id="a_node4"><a xlink:href="group__engine.html#ga8679d9b303f36964bf51dba0993caeaa" target="_top" xlink:title=" ">
<polygon fill="white" stroke="black" points="277.5,-114.5 277.5,-133.5 383.5,-133.5 383.5,-114.5 277.5,-114.5"/>
<text text-anchor="middle" x="330.5" y="-121.5" font-family="Helvetica,sans-Serif" font-size="10.00">env_load_defaults</text>
</a>
</g>
</g>
<!-- Node3&#45;&gt;Node4 -->
<g id="edge3" class="edge">
<title>Node3&#45;&gt;Node4</title>
<path fill="none" stroke="midnightblue" d="M211.74,-95.59C232.53,-100.6 258.16,-106.79 280.2,-112.11"/>
<polygon fill="midnightblue" stroke="midnightblue" points="279.5,-115.54 290.04,-114.48 281.14,-108.73 279.5,-115.54"/>
</g>
<!-- Node5 -->
<g id="node5" class="node">
<title>Node5</title>
<g id="a_node5"><a xlink:href="group__engine.html#gab9813926390dc5773baf0b20dc2ea16e" target="_top" xlink:title=" ">
<polygon fill="white" stroke="black" points="299.5,-38.5 299.5,-57.5 361.5,-57.5 361.5,-38.5 299.5,-38.5"/>
<text text-anchor="middle" x="330.5" y="-45.5" font-family="Helvetica,sans-Serif" font-size="10.00">redisplay</text>
</a>
</g>
</g>
<!-- Node3&#45;&gt;Node5 -->
<g id="edge4" class="edge">
<title>Node3&#45;&gt;Node5</title>
<path fill="none" stroke="midnightblue" d="M211.74,-76.41C235.51,-70.68 265.61,-63.42 289.43,-57.67"/>
<polygon fill="midnightblue" stroke="midnightblue" points="290.31,-61.05 299.21,-55.31 288.67,-54.25 290.31,-61.05"/>
</g>
<!-- Node6 -->
<g id="node6" class="node">
<title>Node6</title>
<g id="a_node6"><a xlink:href="group__spherical.html#gab5ff5216bffd1e15798677f24213213d" target="_top" xlink:title=" ">
<polygon fill="white" stroke="black" points="437,-38.5 437,-57.5 550,-57.5 550,-38.5 437,-38.5"/>
<text text-anchor="middle" x="493.5" y="-45.5" font-family="Helvetica,sans-Serif" font-size="10.00">spherical2Cartesian</text>
</a>
</g>
</g>
<!-- Node5&#45;&gt;Node6 -->
<g id="edge5" class="edge">
<title>Node5&#45;&gt;Node6</title>
<path fill="none" stroke="midnightblue" d="M361.78,-48C380.11,-48 404.22,-48 426.73,-48"/>
<polygon fill="midnightblue" stroke="midnightblue" points="426.94,-51.5 436.94,-48 426.94,-44.5 426.94,-51.5"/>
</g>
<!-- Node7&#45;&gt;Node5 -->
<g id="edge7" class="edge">
<title>Node7&#45;&gt;Node5</title>
<path fill="none" stroke="midnightblue" d="M208.13,-48C232.29,-48 264.11,-48 289.1,-48"/>
<polygon fill="midnightblue" stroke="midnightblue" points="289.35,-51.5 299.35,-48 289.35,-44.5 289.35,-51.5"/>
</g>
<!-- Node8&#45;&gt;Node5 -->
<g id="edge9" class="edge">
<title>Node8&#45;&gt;Node5</title>
<path fill="none" stroke="midnightblue" d="M207.35,-18.53C231.66,-24.39 264,-32.2 289.29,-38.3"/>
<polygon fill="midnightblue" stroke="midnightblue" points="288.77,-41.77 299.31,-40.72 290.41,-34.97 288.77,-41.77"/>
</g>
<!-- Node10 -->
<g id="node10" class="node">
<title>Node10</title>
<g id="a_node10"><a xlink:href="engine_8cpp.html#a634dba686e70e7ff3f10c37d11f463da" target="_top" xlink:title=" ">
<polygon fill="white" stroke="black" points="296,-76.5 296,-95.5 365,-95.5 365,-76.5 296,-76.5"/>
<text text-anchor="middle" x="330.5" y="-83.5" font-family="Helvetica,sans-Serif" font-size="10.00">draw_axes</text>
</a>
</g>
</g>
<!-- Node9&#45;&gt;Node10 -->
<g id="edge11" class="edge">
<title>Node9&#45;&gt;Node10</title>
<path fill="none" stroke="midnightblue" d="M209.73,-114.9C232.66,-109.36 262.03,-102.28 285.95,-96.51"/>
<polygon fill="midnightblue" stroke="midnightblue" points="286.93,-99.87 295.83,-94.12 285.29,-93.07 286.93,-99.87"/>
</g>
<!-- Node11 -->
<g id="node11" class="node">
<title>Node11</title>
<g id="a_node11"><a xlink:href="group___operations.html#ga887f20c10a27832ea24178203a47fcc2" target="_top" xlink:title=" ">
<polygon fill="white" stroke="black" points="278,-152.5 278,-171.5 383,-171.5 383,-152.5 278,-152.5"/>
<text text-anchor="middle" x="330.5" y="-159.5" font-family="Helvetica,sans-Serif" font-size="10.00">operations_render</text>
</a>
</g>
</g>
<!-- Node9&#45;&gt;Node11 -->
<g id="edge12" class="edge">
<title>Node9&#45;&gt;Node11</title>
<path fill="none" stroke="midnightblue" d="M209.73,-133.1C230.81,-138.19 257.34,-144.59 280.07,-150.07"/>
<polygon fill="midnightblue" stroke="midnightblue" points="279.34,-153.5 289.88,-152.44 280.98,-146.69 279.34,-153.5"/>
</g>
<!-- Node12 -->
<g id="node12" class="node">
<title>Node12</title>
<g id="a_node12"><a xlink:href="group__model_engine.html#ga56beba311d0a6fcbda9aeb516fe67f8f" target="_top" xlink:title=" ">
<polygon fill="white" stroke="black" points="458.5,-76.5 458.5,-95.5 528.5,-95.5 528.5,-76.5 458.5,-76.5"/>
<text text-anchor="middle" x="493.5" y="-83.5" font-family="Helvetica,sans-Serif" font-size="10.00">allocModel</text>
</a>
</g>
</g>
<!-- Node11&#45;&gt;Node12 -->
<g id="edge13" class="edge">
<title>Node11&#45;&gt;Node12</title>
<path fill="none" stroke="midnightblue" d="M370.18,-152.47C377.06,-149.94 383.95,-146.82 390,-143 409.67,-130.58 406.11,-117.07 426,-105 432.86,-100.84 440.66,-97.56 448.46,-94.98"/>
<polygon fill="midnightblue" stroke="midnightblue" points="449.66,-98.27 458.25,-92.07 447.67,-91.56 449.66,-98.27"/>
</g>
<!-- Node13 -->
<g id="node13" class="node">
<title>Node13</title>
<g id="a_node13"><a xlink:href="group__spherical.html#ga2a22d15f7463ccd8f8d1aa65e7578983" target="_top" xlink:title=" ">
<polygon fill="white" stroke="black" points="437,-190.5 437,-209.5 550,-209.5 550,-190.5 437,-190.5"/>
<text text-anchor="middle" x="493.5" y="-197.5" font-family="Helvetica,sans-Serif" font-size="10.00">cartesian2Spherical</text>
</a>
</g>
</g>
<!-- Node11&#45;&gt;Node13 -->
<g id="edge14" class="edge">
<title>Node11&#45;&gt;Node13</title>
<path fill="none" stroke="midnightblue" d="M372.13,-171.59C393.47,-176.63 419.81,-182.84 442.41,-188.18"/>
<polygon fill="midnightblue" stroke="midnightblue" points="441.63,-191.59 452.17,-190.48 443.24,-184.78 441.63,-191.59"/>
</g>
<!-- Node14 -->
<g id="node14" class="node">
<title>Node14</title>
<g id="a_node14"><a xlink:href="group__model_engine.html#gae7de75a0850ac9069b4a3710b63a102c" target="_top" xlink:title=" ">
<polygon fill="white" stroke="black" points="454.5,-152.5 454.5,-171.5 532.5,-171.5 532.5,-152.5 454.5,-152.5"/>
<text text-anchor="middle" x="493.5" y="-159.5" font-family="Helvetica,sans-Serif" font-size="10.00">renderModel</text>
</a>
</g>
</g>
<!-- Node11&#45;&gt;Node14 -->
<g id="edge15" class="edge">
<title>Node11&#45;&gt;Node14</title>
<path fill="none" stroke="midnightblue" d="M383.33,-162C402.89,-162 425.04,-162 444.26,-162"/>
<polygon fill="midnightblue" stroke="midnightblue" points="444.3,-165.5 454.3,-162 444.3,-158.5 444.3,-165.5"/>
</g>
<!-- Node15 -->
<g id="node15" class="node">
<title>Node15</title>
<g id="a_node15"><a xlink:href="group__engine.html#ga260fbd3d70764684657bbf1a617ddf99" target="_top" xlink:title=" ">
<polygon fill="white" stroke="black" points="456.5,-114.5 456.5,-133.5 530.5,-133.5 530.5,-114.5 456.5,-114.5"/>
<text text-anchor="middle" x="493.5" y="-121.5" font-family="Helvetica,sans-Serif" font-size="10.00">vbo_indices</text>
</a>
</g>
</g>
<!-- Node11&#45;&gt;Node15 -->
<g id="edge16" class="edge">
<title>Node11&#45;&gt;Node15</title>
<path fill="none" stroke="midnightblue" d="M372.13,-152.41C394.69,-147.09 422.83,-140.44 446.24,-134.92"/>
<polygon fill="midnightblue" stroke="midnightblue" points="447.35,-138.25 456.28,-132.55 445.74,-131.44 447.35,-138.25"/>
</g>
<!-- Node16&#45;&gt;Node4 -->
<g id="edge18" class="edge">
<title>Node16&#45;&gt;Node4</title>
<path fill="none" stroke="midnightblue" d="M211.74,-152.41C232.53,-147.4 258.16,-141.21 280.2,-135.89"/>
<polygon fill="midnightblue" stroke="midnightblue" points="281.14,-139.27 290.04,-133.52 279.5,-132.46 281.14,-139.27"/>
</g>
<!-- Node16&#45;&gt;Node11 -->
<g id="edge27" class="edge">
<title>Node16&#45;&gt;Node11</title>
<path fill="none" stroke="midnightblue" d="M235.15,-162C245.92,-162 257.09,-162 267.82,-162"/>
<polygon fill="midnightblue" stroke="midnightblue" points="267.94,-165.5 277.94,-162 267.94,-158.5 267.94,-165.5"/>
</g>
<!-- Node17 -->
<g id="node17" class="node">
<title>Node17</title>
<g id="a_node17"><a xlink:href="group__xml.html#gac937a83a82258806ef77b02f97ef0834" target="_top" xlink:title=" ">
<polygon fill="white" stroke="black" points="271,-228.5 271,-247.5 390,-247.5 390,-228.5 271,-228.5"/>
<text text-anchor="middle" x="330.5" y="-235.5" font-family="Helvetica,sans-Serif" font-size="10.00">operations_load_xml</text>
</a>
</g>
</g>
<!-- Node16&#45;&gt;Node17 -->
<g id="edge19" class="edge">
<title>Node16&#45;&gt;Node17</title>
<path fill="none" stroke="midnightblue" d="M209.21,-171.54C217.83,-174.21 226.86,-177.38 235,-181 261.18,-192.63 289.02,-210.12 307.65,-222.66"/>
<polygon fill="midnightblue" stroke="midnightblue" points="305.77,-225.61 316,-228.37 309.72,-219.83 305.77,-225.61"/>
</g>
<!-- Node18 -->
<g id="node18" class="node">
<title>Node18</title>
<g id="a_node18"><a xlink:href="group___groups.html#ga72c2d5ef943a89f829c08f6707e7669d" target="_top" xlink:title=" ">
<polygon fill="white" stroke="black" points="426,-266.5 426,-285.5 561,-285.5 561,-266.5 426,-266.5"/>
<text text-anchor="middle" x="493.5" y="-273.5" font-family="Helvetica,sans-Serif" font-size="10.00">operations_push_groups</text>
</a>
</g>
</g>
<!-- Node17&#45;&gt;Node18 -->
<g id="edge20" class="edge">
<title>Node17&#45;&gt;Node18</title>
<path fill="none" stroke="midnightblue" d="M372.13,-247.59C393.47,-252.63 419.81,-258.84 442.41,-264.18"/>
<polygon fill="midnightblue" stroke="midnightblue" points="441.63,-267.59 452.17,-266.48 443.24,-260.78 441.63,-267.59"/>
</g>
<!-- Node22 -->
<g id="node22" class="node">
<title>Node22</title>
<g id="a_node22"><a xlink:href="group___transforms.html#gaa15fe56d7980e7877845f3bc09125017" target="_top" xlink:title=" ">
<polygon fill="white" stroke="black" points="788,-239 788,-269 938,-269 938,-239 788,-239"/>
<text text-anchor="start" x="796" y="-257" font-family="Helvetica,sans-Serif" font-size="10.00">operations_push_transform</text>
<text text-anchor="middle" x="863" y="-246" font-family="Helvetica,sans-Serif" font-size="10.00">_attributes</text>
</a>
</g>
</g>
<!-- Node17&#45;&gt;Node22 -->
<g id="edge26" class="edge">
<title>Node17&#45;&gt;Node22</title>
<path fill="none" stroke="midnightblue" d="M390.04,-239.77C484.02,-242.6 668.95,-248.18 777.32,-251.45"/>
<polygon fill="midnightblue" stroke="midnightblue" points="777.46,-254.95 787.56,-251.75 777.67,-247.95 777.46,-254.95"/>
</g>
<!-- Node18&#45;&gt;Node18 -->
<g id="edge21" class="edge">
<title>Node18&#45;&gt;Node18</title>
<path fill="none" stroke="midnightblue" d="M468.53,-285.76C456.38,-294.57 464.71,-304 493.5,-304 512.85,-304 522.95,-299.74 523.81,-294.27"/>
<polygon fill="midnightblue" stroke="midnightblue" points="526.75,-292.37 518.47,-285.76 520.82,-296.09 526.75,-292.37"/>
</g>
<!-- Node19 -->
<g id="node19" class="node">
<title>Node19</title>
<g id="a_node19"><a xlink:href="group___models.html#gaca17d77a06e750f5cd95c1b79e1a8a30" target="_top" xlink:title=" ">
<polygon fill="white" stroke="black" points="605.5,-304.5 605.5,-323.5 743.5,-323.5 743.5,-304.5 605.5,-304.5"/>
<text text-anchor="middle" x="674.5" y="-311.5" font-family="Helvetica,sans-Serif" font-size="10.00">operations_push_models</text>
</a>
</g>
</g>
<!-- Node18&#45;&gt;Node19 -->
<g id="edge22" class="edge">
<title>Node18&#45;&gt;Node19</title>
<path fill="none" stroke="midnightblue" d="M539.67,-285.59C563.72,-290.69 593.47,-297.01 618.82,-302.39"/>
<polygon fill="midnightblue" stroke="midnightblue" points="618.15,-305.83 628.66,-304.48 619.6,-298.98 618.15,-305.83"/>
</g>
<!-- Node21 -->
<g id="node21" class="node">
<title>Node21</title>
<g id="a_node21"><a xlink:href="group___transforms.html#gaaa78b92f0257bb4755731622692de0cb" target="_top" xlink:title=" ">
<polygon fill="white" stroke="black" points="597,-266.5 597,-285.5 752,-285.5 752,-266.5 597,-266.5"/>
<text text-anchor="middle" x="674.5" y="-273.5" font-family="Helvetica,sans-Serif" font-size="10.00">operations_push_transforms</text>
</a>
</g>
</g>
<!-- Node18&#45;&gt;Node21 -->
<g id="edge24" class="edge">
<title>Node18&#45;&gt;Node21</title>
<path fill="none" stroke="midnightblue" d="M561.15,-276C569.51,-276 578.16,-276 586.77,-276"/>
<polygon fill="midnightblue" stroke="midnightblue" points="586.84,-279.5 596.84,-276 586.84,-272.5 586.84,-279.5"/>
</g>
<!-- Node20 -->
<g id="node20" class="node">
<title>Node20</title>
<g id="a_node20"><a xlink:href="group___models.html#ga5dc84f3f40c0bb6ad63dc2da3793ddd9" target="_top" xlink:title=" ">
<polygon fill="white" stroke="black" points="796.5,-304.5 796.5,-323.5 929.5,-323.5 929.5,-304.5 796.5,-304.5"/>
<text text-anchor="middle" x="863" y="-311.5" font-family="Helvetica,sans-Serif" font-size="10.00">operations_push_model</text>
</a>
</g>
</g>
<!-- Node19&#45;&gt;Node20 -->
<g id="edge23" class="edge">
<title>Node19&#45;&gt;Node20</title>
<path fill="none" stroke="midnightblue" d="M743.62,-314C757.44,-314 772.05,-314 786.11,-314"/>
<polygon fill="midnightblue" stroke="midnightblue" points="786.24,-317.5 796.24,-314 786.24,-310.5 786.24,-317.5"/>
</g>
<!-- Node21&#45;&gt;Node22 -->
<g id="edge25" class="edge">
<title>Node21&#45;&gt;Node22</title>
<path fill="none" stroke="midnightblue" d="M752.16,-266.96C760.61,-265.96 769.25,-264.94 777.78,-263.93"/>
<polygon fill="midnightblue" stroke="midnightblue" points="778.22,-267.41 787.74,-262.76 777.4,-260.46 778.22,-267.41"/>
</g>
</g>
</svg>
        <g id="navigator" transform="translate(0 0)" fill="#404254">
                <rect fill="#f2f5e9" fill-opacity="0.5" stroke="#606060" stroke-width=".5" x="0" y="0" width="60" height="60"/>
                <use id="zoomplus" xlink:href="#zoomPlus" x="17" y="9" onmousedown="handleZoom(evt,'in')"/>
                <use id="zoomminus" xlink:href="#zoomMin" x="42" y="9" onmousedown="handleZoom(evt,'out')"/>
                <use id="reset" xlink:href="#resetDef" x="30" y="36" onmousedown="handleReset()"/>
                <g id="arrowUp" xlink:href="#dirArrow" transform="translate(30 24)" onmousedown="handlePan(0,-1)">
                  <use xlink:href="#rim" fill="#404040">
                        <set attributeName="fill" to="#808080" begin="arrowUp.mouseover" end="arrowUp.mouseout"/>
                  </use>
                  <path fill="none" stroke="white" stroke-width="1.5" d="M0,-3.0v7 M-2.5,-0.5L0,-3.0L2.5,-0.5"/>
                </g>
                <g id="arrowRight" xlink:href="#dirArrow" transform="rotate(90) translate(36 -43)" onmousedown="handlePan(1,0)">
                  <use xlink:href="#rim" fill="#404040">
                        <set attributeName="fill" to="#808080" begin="arrowRight.mouseover" end="arrowRight.mouseout"/>
                  </use>
                  <path fill="none" stroke="white" stroke-width="1.5" d="M0,-3.0v7 M-2.5,-0.5L0,-3.0L2.5,-0.5"/>
                </g>
                <g id="arrowDown" xlink:href="#dirArrow" transform="rotate(180) translate(-30 -48)" onmousedown="handlePan(0,1)">
                  <use xlink:href="#rim" fill="#404040">
                        <set attributeName="fill" to="#808080" begin="arrowDown.mouseover" end="arrowDown.mouseout"/>
                  </use>
                  <path fill="none" stroke="white" stroke-width="1.5" d="M0,-3.0v7 M-2.5,-0.5L0,-3.0L2.5,-0.5"/>
                </g>
                <g id="arrowLeft" xlink:href="#dirArrow" transform="rotate(270) translate(-36 17)" onmousedown="handlePan(-1,0)">
                  <use xlink:href="#rim" fill="#404040">
                        <set attributeName="fill" to="#808080" begin="arrowLeft.mouseover" end="arrowLeft.mouseout"/>
                  </use>
                  <path fill="none" stroke="white" stroke-width="1.5" d="M0,-3.0v7 M-2.5,-0.5L0,-3.0L2.5,-0.5"/>
                </g>
        </g>
        <svg viewBox="0 0 15 15" width="100%" height="30px" preserveAspectRatio="xMaxYMin meet">
         <g id="arrow_out" transform="scale(0.3 0.3)">
          <a xlink:href="group__engine_ga98eaf946471acbd931de5d52ca83b3d1_cgraph_org.svg" target="_base">
           <rect id="button" ry="5" rx="5" y="6" x="6" height="38" width="38"
                fill="#f2f5e9" fill-opacity="0.5" stroke="#606060" stroke-width="1.0"/>
           <path id="arrow"
             d="M 11.500037,31.436501 C 11.940474,20.09759 22.043105,11.32322 32.158766,21.979434 L 37.068811,17.246167 C 37.068811,17.246167 37.088388,32 37.088388,32 L 22.160133,31.978069 C 22.160133,31.978069 26.997745,27.140456 26.997745,27.140456 C 18.528582,18.264221 13.291696,25.230495 11.500037,31.436501 z"
             style="fill:#404040;"/>
          </a>
         </g>
        </svg>
</svg>
