<?xml version="1.0" encoding="UTF-8" standalone="no"?>
<!DOCTYPE svg PUBLIC "-//W3C//DTD SVG 1.1//EN"
 "http://www.w3.org/Graphics/SVG/1.1/DTD/svg11.dtd">
<!-- Generated by graphviz version 3.0.0 (0)
 -->
<!-- Title: engine_run Pages: 1 -->
<!--zoomable 400 -->
<svg id="main" version="1.1" xmlns="http://www.w3.org/2000/svg" xmlns:xlink="http://www.w3.org/1999/xlink" xml:space="preserve" onload="init(evt)">
<style type="text/css"><![CDATA[
.edge:hover path { stroke: red; }
.edge:hover polygon { stroke: red; fill: red; }
]]></style>
<script type="text/javascript"><![CDATA[
var edges = document.getElementsByTagName('g');
if (edges && edges.length) {
  for (var i=0;i<edges.length;i++) {
    if (edges[i].id.substr(0,4)=='edge') {
      edges[i].setAttribute('class','edge');
    }
  }
}
]]></script>
        <defs>
                <circle id="rim" cx="0" cy="0" r="7"/>
                <circle id="rim2" cx="0" cy="0" r="3.5"/>
                <g id="zoomPlus">
                        <use xlink:href="#rim" fill="#404040">
                                <set attributeName="fill" to="#808080" begin="zoomplus.mouseover" end="zoomplus.mouseout"/>
                        </use>
                        <path d="M-4,0h8M0,-4v8" fill="none" stroke="white" stroke-width="1.5" pointer-events="none"/>
                </g>
                <g id="zoomMin">
                        <use xlink:href="#rim" fill="#404040">
                                <set attributeName="fill" to="#808080" begin="zoomminus.mouseover" end="zoomminus.mouseout"/>
                        </use>
                        <path d="M-4,0h8" fill="none" stroke="white" stroke-width="1.5" pointer-events="none"/>
                </g>
                <g id="dirArrow">
                        <path fill="none" stroke="white" stroke-width="1.5" d="M0,-3.0v7 M-2.5,-0.5L0,-3.0L2.5,-0.5"/>
                </g>
               <g id="resetDef">
                       <use xlink:href="#rim2" fill="#404040">
                               <set attributeName="fill" to="#808080" begin="reset.mouseover" end="reset.mouseout"/>
                       </use>
               </g>
        </defs>

<script type="text/javascript">
var viewWidth = 1341;
var viewHeight = 400;
var sectionId = 'dynsection-1';
</script>
<script xlink:href="svgpan.js"/>
<svg id="graph" class="graph">
<g id="viewport">
<title>engine_run</title>
<polygon fill="white" stroke="transparent" points="-4,4 -4,-396 1337,-396 1337,4 -4,4"/>
<!-- Node1 -->
<g id="node1" class="node">
<title>Node1</title>
<g id="a_node1"><a xlink:title=" ">
<polygon fill="#bfbfbf" stroke="black" points="0,-230.5 0,-249.5 71,-249.5 71,-230.5 0,-230.5"/>
<text text-anchor="middle" x="35.5" y="-237.5" font-family="Helvetica,sans-Serif" font-size="10.00">engine_run</text>
</a>
</g>
</g>
<!-- Node2 -->
<g id="node2" class="node">
<title>Node2</title>
<g id="a_node2"><a xlink:href="group__camera.html#ga4eec7d736381fd000f84ccb4f2d844da" target="_top" xlink:title=" ">
<polygon fill="white" stroke="black" points="296,-268.5 296,-287.5 365,-287.5 365,-268.5 296,-268.5"/>
<text text-anchor="middle" x="330.5" y="-275.5" font-family="Helvetica,sans-Serif" font-size="10.00">loadProfile</text>
</a>
</g>
</g>
<!-- Node1&#45;&gt;Node2 -->
<g id="edge1" class="edge">
<title>Node1&#45;&gt;Node2</title>
<path fill="none" stroke="midnightblue" d="M67.12,-249.53C79.4,-253.01 93.77,-256.67 107,-259 168.46,-269.82 240.59,-274.54 285.68,-276.56"/>
<polygon fill="midnightblue" stroke="midnightblue" points="285.57,-280.06 295.71,-276.98 285.87,-273.07 285.57,-280.06"/>
</g>
<!-- Node3 -->
<g id="node3" class="node">
<title>Node3</title>
<g id="a_node3"><a xlink:href="group__engine.html#ga91c42686f3245f22fb6b17ba5372d92c" target="_top" xlink:title=" ">
<polygon fill="white" stroke="black" points="132.5,-230.5 132.5,-249.5 209.5,-249.5 209.5,-230.5 132.5,-230.5"/>
<text text-anchor="middle" x="171" y="-237.5" font-family="Helvetica,sans-Serif" font-size="10.00">renderScene</text>
</a>
</g>
</g>
<!-- Node1&#45;&gt;Node3 -->
<g id="edge2" class="edge">
<title>Node1&#45;&gt;Node3</title>
<path fill="none" stroke="midnightblue" d="M71.23,-240C86.71,-240 105.2,-240 121.98,-240"/>
<polygon fill="midnightblue" stroke="midnightblue" points="122.16,-243.5 132.16,-240 122.16,-236.5 122.16,-243.5"/>
</g>
<!-- Node16 -->
<g id="node16" class="node">
<title>Node16</title>
<g id="a_node16"><a xlink:href="group__engine.html#ga4c801322659c1ed52adccd3874552bb3" target="_top" xlink:title=" ">
<polygon fill="white" stroke="black" points="107,-192.5 107,-211.5 235,-211.5 235,-192.5 107,-192.5"/>
<text text-anchor="middle" x="171" y="-199.5" font-family="Helvetica,sans-Serif" font-size="10.00">xml_load_and_set_env</text>
</a>
</g>
</g>
<!-- Node1&#45;&gt;Node16 -->
<g id="edge17" class="edge">
<title>Node1&#45;&gt;Node16</title>
<path fill="none" stroke="midnightblue" d="M70.19,-230.41C87.26,-225.55 108.2,-219.59 126.48,-214.39"/>
<polygon fill="midnightblue" stroke="midnightblue" points="127.66,-217.69 136.32,-211.59 125.75,-210.96 127.66,-217.69"/>
</g>
<!-- Node3&#45;&gt;Node2 -->
<g id="edge3" class="edge">
<title>Node3&#45;&gt;Node2</title>
<path fill="none" stroke="midnightblue" d="M209.73,-249.1C232.66,-254.64 262.03,-261.72 285.95,-267.49"/>
<polygon fill="midnightblue" stroke="midnightblue" points="285.29,-270.93 295.83,-269.88 286.93,-264.13 285.29,-270.93"/>
</g>
<!-- Node4 -->
<g id="node4" class="node">
<title>Node4</title>
<g id="a_node4"><a xlink:href="group___operations.html#ga8d5a19a3522cea1b4254684cf6515d13" target="_top" xlink:title=" ">
<polygon fill="white" stroke="black" points="278,-230.5 278,-249.5 383,-249.5 383,-230.5 278,-230.5"/>
<text text-anchor="middle" x="330.5" y="-237.5" font-family="Helvetica,sans-Serif" font-size="10.00">operations_render</text>
</a>
</g>
</g>
<!-- Node3&#45;&gt;Node4 -->
<g id="edge4" class="edge">
<title>Node3&#45;&gt;Node4</title>
<path fill="none" stroke="midnightblue" d="M209.73,-240C227.08,-240 248.13,-240 267.71,-240"/>
<polygon fill="midnightblue" stroke="midnightblue" points="267.79,-243.5 277.79,-240 267.79,-236.5 267.79,-243.5"/>
</g>
<!-- Node5 -->
<g id="node5" class="node">
<title>Node5</title>
<g id="a_node5"><a xlink:href="curves_8cpp.html#a821c8cbf0a47b918c60a4912b733e6bd" target="_top" xlink:title=" ">
<polygon fill="white" stroke="black" points="441.5,-372.5 441.5,-391.5 545.5,-391.5 545.5,-372.5 441.5,-372.5"/>
<text text-anchor="middle" x="493.5" y="-379.5" font-family="Helvetica,sans-Serif" font-size="10.00">advance_in_curve</text>
</a>
</g>
</g>
<!-- Node4&#45;&gt;Node5 -->
<g id="edge5" class="edge">
<title>Node4&#45;&gt;Node5</title>
<path fill="none" stroke="midnightblue" d="M376.19,-249.56C381.27,-252.02 386.04,-255.11 390,-259 424.92,-293.25 390.48,-329.38 426,-363 427.95,-364.84 430.06,-366.51 432.29,-368.01"/>
<polygon fill="midnightblue" stroke="midnightblue" points="430.98,-371.28 441.42,-373.06 434.36,-365.16 430.98,-371.28"/>
</g>
<!-- Node10 -->
<g id="node10" class="node">
<title>Node10</title>
<g id="a_node10"><a xlink:href="engine_8cpp.html#a072c434cfd125e58ac1cec9a5725688a" target="_top" xlink:title=" ">
<polygon fill="white" stroke="black" points="435.5,-334.5 435.5,-353.5 551.5,-353.5 551.5,-334.5 435.5,-334.5"/>
<text text-anchor="middle" x="493.5" y="-341.5" font-family="Helvetica,sans-Serif" font-size="10.00">advance_in_rotation</text>
</a>
</g>
</g>
<!-- Node4&#45;&gt;Node10 -->
<g id="edge10" class="edge">
<title>Node4&#45;&gt;Node10</title>
<path fill="none" stroke="midnightblue" d="M374.1,-249.55C379.82,-252.01 385.32,-255.11 390,-259 415.71,-280.34 399.91,-304.12 426,-325 428.29,-326.83 430.74,-328.48 433.31,-329.97"/>
<polygon fill="midnightblue" stroke="midnightblue" points="431.89,-333.18 442.4,-334.46 434.99,-326.9 431.89,-333.18"/>
</g>
<!-- Node11 -->
<g id="node11" class="node">
<title>Node11</title>
<g id="a_node11"><a xlink:href="group__model_engine.html#ga361bcac2814bb93f543d2c0f1b28b6d2" target="_top" xlink:title=" ">
<polygon fill="white" stroke="black" points="458.5,-296.5 458.5,-315.5 528.5,-315.5 528.5,-296.5 458.5,-296.5"/>
<text text-anchor="middle" x="493.5" y="-303.5" font-family="Helvetica,sans-Serif" font-size="10.00">allocModel</text>
</a>
</g>
</g>
<!-- Node4&#45;&gt;Node11 -->
<g id="edge11" class="edge">
<title>Node4&#45;&gt;Node11</title>
<path fill="none" stroke="midnightblue" d="M367.58,-249.54C375.19,-252.15 383.02,-255.3 390,-259 407.91,-268.5 407.93,-277.83 426,-287 433.08,-290.59 440.93,-293.6 448.69,-296.08"/>
<polygon fill="midnightblue" stroke="midnightblue" points="447.82,-299.47 458.4,-298.94 449.8,-292.75 447.82,-299.47"/>
</g>
<!-- Node12 -->
<g id="node12" class="node">
<title>Node12</title>
<g id="a_node12"><a xlink:href="group__model_engine.html#ga8c7329ae859a08eea53a77130ebe6018" target="_top" xlink:title=" ">
<polygon fill="white" stroke="black" points="436,-247 436,-277 551,-277 551,-247 436,-247"/>
<text text-anchor="start" x="444" y="-265" font-family="Helvetica,sans-Serif" font-size="10.00">associate_a_texture</text>
<text text-anchor="middle" x="493.5" y="-254" font-family="Helvetica,sans-Serif" font-size="10.00">_to_model</text>
</a>
</g>
</g>
<!-- Node4&#45;&gt;Node12 -->
<g id="edge12" class="edge">
<title>Node4&#45;&gt;Node12</title>
<path fill="none" stroke="midnightblue" d="M383.33,-247.08C396.79,-248.92 411.48,-250.93 425.6,-252.86"/>
<polygon fill="midnightblue" stroke="midnightblue" points="425.37,-256.36 435.76,-254.25 426.32,-249.42 425.37,-256.36"/>
</g>
<!-- Node13 -->
<g id="node13" class="node">
<title>Node13</title>
<g id="a_node13"><a xlink:href="group__explorer_camera.html#gabd434f65cba3ee8011b8d3cdd1f25dca" target="_top" xlink:title=" ">
<polygon fill="white" stroke="black" points="437,-208.5 437,-227.5 550,-227.5 550,-208.5 437,-208.5"/>
<text text-anchor="middle" x="493.5" y="-215.5" font-family="Helvetica,sans-Serif" font-size="10.00">cartesian2Spherical</text>
</a>
</g>
</g>
<!-- Node4&#45;&gt;Node13 -->
<g id="edge13" class="edge">
<title>Node4&#45;&gt;Node13</title>
<path fill="none" stroke="midnightblue" d="M383.33,-232.92C397.22,-231.02 412.42,-228.94 426.95,-226.96"/>
<polygon fill="midnightblue" stroke="midnightblue" points="427.44,-230.42 436.88,-225.6 426.5,-223.49 427.44,-230.42"/>
</g>
<!-- Node14 -->
<g id="node14" class="node">
<title>Node14</title>
<g id="a_node14"><a xlink:href="curves_8cpp.html#ad812fc50a0384335487e258a6f61714e" target="_top" xlink:title=" ">
<polygon fill="white" stroke="black" points="636,-184.5 636,-203.5 713,-203.5 713,-184.5 636,-184.5"/>
<text text-anchor="middle" x="674.5" y="-191.5" font-family="Helvetica,sans-Serif" font-size="10.00">renderCurve</text>
</a>
</g>
</g>
<!-- Node4&#45;&gt;Node14 -->
<g id="edge14" class="edge">
<title>Node4&#45;&gt;Node14</title>
<path fill="none" stroke="midnightblue" d="M365.43,-230.47C373.62,-227.77 382.24,-224.57 390,-221 407.03,-213.16 408,-204.26 426,-199 493.15,-179.37 574.98,-182.68 625.66,-187.7"/>
<polygon fill="midnightblue" stroke="midnightblue" points="625.37,-191.19 635.68,-188.75 626.1,-184.23 625.37,-191.19"/>
</g>
<!-- Node15 -->
<g id="node15" class="node">
<title>Node15</title>
<g id="a_node15"><a xlink:href="group__model_engine.html#ga2907e4adf4f2bef2c8ce416cb8470997" target="_top" xlink:title=" ">
<polygon fill="white" stroke="black" points="454.5,-132.5 454.5,-151.5 532.5,-151.5 532.5,-132.5 454.5,-132.5"/>
<text text-anchor="middle" x="493.5" y="-139.5" font-family="Helvetica,sans-Serif" font-size="10.00">renderModel</text>
</a>
</g>
</g>
<!-- Node4&#45;&gt;Node15 -->
<g id="edge16" class="edge">
<title>Node4&#45;&gt;Node15</title>
<path fill="none" stroke="midnightblue" d="M372.91,-230.48C378.99,-228 384.91,-224.89 390,-221 413.21,-203.26 403.08,-184.11 426,-166 431.69,-161.5 438.3,-157.8 445.11,-154.77"/>
<polygon fill="midnightblue" stroke="midnightblue" points="446.44,-158 454.43,-151.04 443.84,-151.5 446.44,-158"/>
</g>
<!-- Node6 -->
<g id="node6" class="node">
<title>Node6</title>
<g id="a_node6"><a xlink:href="curves_8cpp.html#a98b26a4263f61db7149441a99a6d35b6" target="_top" xlink:title=" ">
<polygon fill="white" stroke="black" points="613,-351.5 613,-370.5 736,-370.5 736,-351.5 613,-351.5"/>
<text text-anchor="middle" x="674.5" y="-358.5" font-family="Helvetica,sans-Serif" font-size="10.00">align_global_pos_mat</text>
</a>
</g>
</g>
<!-- Node5&#45;&gt;Node6 -->
<g id="edge6" class="edge">
<title>Node5&#45;&gt;Node6</title>
<path fill="none" stroke="midnightblue" d="M545.79,-375.98C563.48,-373.91 583.62,-371.54 602.6,-369.32"/>
<polygon fill="midnightblue" stroke="midnightblue" points="603.17,-372.78 612.69,-368.13 602.35,-365.82 603.17,-372.78"/>
</g>
<!-- Node7 -->
<g id="node7" class="node">
<title>Node7</title>
<g id="a_node7"><a xlink:href="curves_8cpp.html#abe9fa1f2a311f275f92f5b46fb2f8490" target="_top" xlink:title=" ">
<polygon fill="white" stroke="black" points="810.5,-272.5 810.5,-291.5 940.5,-291.5 940.5,-272.5 810.5,-272.5"/>
<text text-anchor="middle" x="875.5" y="-279.5" font-family="Helvetica,sans-Serif" font-size="10.00">get_curve_global_point</text>
</a>
</g>
</g>
<!-- Node6&#45;&gt;Node7 -->
<g id="edge7" class="edge">
<title>Node6&#45;&gt;Node7</title>
<path fill="none" stroke="midnightblue" d="M699.5,-351.47C734.84,-337.44 800.99,-311.18 841.06,-295.27"/>
<polygon fill="midnightblue" stroke="midnightblue" points="842.41,-298.51 850.41,-291.56 839.82,-292 842.41,-298.51"/>
</g>
<!-- Node8 -->
<g id="node8" class="node">
<title>Node8</title>
<g id="a_node8"><a xlink:href="curves_8cpp.html#afa648d7de8c941b50b26f02755a955b9" target="_top" xlink:title=" ">
<polygon fill="white" stroke="black" points="1028.5,-291.5 1028.5,-310.5 1117.5,-310.5 1117.5,-291.5 1028.5,-291.5"/>
<text text-anchor="middle" x="1073" y="-298.5" font-family="Helvetica,sans-Serif" font-size="10.00">get_curve_info</text>
</a>
</g>
</g>
<!-- Node7&#45;&gt;Node8 -->
<g id="edge8" class="edge">
<title>Node7&#45;&gt;Node8</title>
<path fill="none" stroke="midnightblue" d="M940.51,-288.22C965.65,-290.66 994.19,-293.44 1018.23,-295.77"/>
<polygon fill="midnightblue" stroke="midnightblue" points="1017.95,-299.26 1028.24,-296.75 1018.63,-292.3 1017.95,-299.26"/>
</g>
<!-- Node9 -->
<g id="node9" class="node">
<title>Node9</title>
<g id="a_node9"><a xlink:href="curves_8cpp.html#a6d6def6a76701b08284cba58066e3382" target="_top" xlink:title=" ">
<polygon fill="white" stroke="black" points="1018,-253.5 1018,-272.5 1128,-272.5 1128,-253.5 1018,-253.5"/>
<text text-anchor="middle" x="1073" y="-260.5" font-family="Helvetica,sans-Serif" font-size="10.00">get_curve_point_at</text>
</a>
</g>
</g>
<!-- Node7&#45;&gt;Node9 -->
<g id="edge9" class="edge">
<title>Node7&#45;&gt;Node9</title>
<path fill="none" stroke="midnightblue" d="M940.51,-275.78C962.14,-273.68 986.29,-271.33 1007.92,-269.23"/>
<polygon fill="midnightblue" stroke="midnightblue" points="1008.38,-272.7 1017.99,-268.25 1007.7,-265.73 1008.38,-272.7"/>
</g>
<!-- Node14&#45;&gt;Node7 -->
<g id="edge15" class="edge">
<title>Node14&#45;&gt;Node7</title>
<path fill="none" stroke="midnightblue" d="M697.18,-203.59C732.61,-219.26 803.07,-250.41 843.69,-268.38"/>
<polygon fill="midnightblue" stroke="midnightblue" points="842.29,-271.58 852.85,-272.43 845.12,-265.18 842.29,-271.58"/>
</g>
<!-- Node16&#45;&gt;Node4 -->
<g id="edge32" class="edge">
<title>Node16&#45;&gt;Node4</title>
<path fill="none" stroke="midnightblue" d="M211.74,-211.59C232.53,-216.6 258.16,-222.79 280.2,-228.11"/>
<polygon fill="midnightblue" stroke="midnightblue" points="279.5,-231.54 290.04,-230.48 281.14,-224.73 279.5,-231.54"/>
</g>
<!-- Node17 -->
<g id="node17" class="node">
<title>Node17</title>
<g id="a_node17"><a xlink:href="group__explorer_camera.html#ga8679d9b303f36964bf51dba0993caeaa" target="_top" xlink:title=" ">
<polygon fill="white" stroke="black" points="277.5,-192.5 277.5,-211.5 383.5,-211.5 383.5,-192.5 277.5,-192.5"/>
<text text-anchor="middle" x="330.5" y="-199.5" font-family="Helvetica,sans-Serif" font-size="10.00">env_load_defaults</text>
</a>
</g>
</g>
<!-- Node16&#45;&gt;Node17 -->
<g id="edge18" class="edge">
<title>Node16&#45;&gt;Node17</title>
<path fill="none" stroke="midnightblue" d="M235.15,-202C245.79,-202 256.82,-202 267.43,-202"/>
<polygon fill="midnightblue" stroke="midnightblue" points="267.44,-205.5 277.44,-202 267.44,-198.5 267.44,-205.5"/>
</g>
<!-- Node18 -->
<g id="node18" class="node">
<title>Node18</title>
<g id="a_node18"><a xlink:href="group__xml.html#gad700972f3f382c3cc5658ce95361ad0e" target="_top" xlink:title=" ">
<polygon fill="white" stroke="black" points="271,-57.5 271,-76.5 390,-76.5 390,-57.5 271,-57.5"/>
<text text-anchor="middle" x="330.5" y="-64.5" font-family="Helvetica,sans-Serif" font-size="10.00">operations_load_xml</text>
</a>
</g>
</g>
<!-- Node16&#45;&gt;Node18 -->
<g id="edge19" class="edge">
<title>Node16&#45;&gt;Node18</title>
<path fill="none" stroke="midnightblue" d="M183.33,-192.29C210.12,-169.33 277.6,-111.49 310.66,-83.15"/>
<polygon fill="midnightblue" stroke="midnightblue" points="312.96,-85.79 318.28,-76.62 308.41,-80.47 312.96,-85.79"/>
</g>
<!-- Node19 -->
<g id="node19" class="node">
<title>Node19</title>
<g id="a_node19"><a xlink:href="group___groups.html#ga2729bcb63525027c28b0107fe17d3a06" target="_top" xlink:title=" ">
<polygon fill="white" stroke="black" points="426,-76.5 426,-95.5 561,-95.5 561,-76.5 426,-76.5"/>
<text text-anchor="middle" x="493.5" y="-83.5" font-family="Helvetica,sans-Serif" font-size="10.00">operations_push_groups</text>
</a>
</g>
</g>
<!-- Node18&#45;&gt;Node19 -->
<g id="edge20" class="edge">
<title>Node18&#45;&gt;Node19</title>
<path fill="none" stroke="midnightblue" d="M390.08,-73.91C398.42,-74.9 407.09,-75.92 415.71,-76.94"/>
<polygon fill="midnightblue" stroke="midnightblue" points="415.44,-80.43 425.78,-78.13 416.26,-73.48 415.44,-80.43"/>
</g>
<!-- Node26 -->
<g id="node26" class="node">
<title>Node26</title>
<g id="a_node26"><a xlink:href="group___transforms.html#gaa8e01339ca5863980bb193197d4781e2" target="_top" xlink:title=" ">
<polygon fill="white" stroke="black" points="1183,-71 1183,-101 1333,-101 1333,-71 1183,-71"/>
<text text-anchor="start" x="1191" y="-89" font-family="Helvetica,sans-Serif" font-size="10.00">operations_push_transform</text>
<text text-anchor="middle" x="1258" y="-78" font-family="Helvetica,sans-Serif" font-size="10.00">_attributes</text>
</a>
</g>
</g>
<!-- Node18&#45;&gt;Node26 -->
<g id="edge31" class="edge">
<title>Node18&#45;&gt;Node26</title>
<path fill="none" stroke="midnightblue" d="M390.15,-61.76C458.22,-56.13 573.89,-48 673.5,-48 673.5,-48 673.5,-48 876.5,-48 978.79,-48 1095.79,-61.77 1172.73,-72.73"/>
<polygon fill="midnightblue" stroke="midnightblue" points="1172.45,-76.22 1182.85,-74.18 1173.45,-69.29 1172.45,-76.22"/>
</g>
<!-- Node27 -->
<g id="node27" class="node">
<title>Node27</title>
<g id="a_node27"><a xlink:href="group__xml.html#gadda1aacffc4688669d0253cec56f849b" target="_top" xlink:title=" ">
<polygon fill="white" stroke="black" points="429,-0.5 429,-19.5 558,-19.5 558,-0.5 429,-0.5"/>
<text text-anchor="middle" x="493.5" y="-7.5" font-family="Helvetica,sans-Serif" font-size="10.00">operations_push_lights</text>
</a>
</g>
</g>
<!-- Node18&#45;&gt;Node27 -->
<g id="edge30" class="edge">
<title>Node18&#45;&gt;Node27</title>
<path fill="none" stroke="midnightblue" d="M358.45,-57.46C385.15,-48.01 426.24,-33.46 455.89,-22.96"/>
<polygon fill="midnightblue" stroke="midnightblue" points="457.21,-26.21 465.46,-19.57 454.87,-19.61 457.21,-26.21"/>
</g>
<!-- Node19&#45;&gt;Node19 -->
<g id="edge21" class="edge">
<title>Node19&#45;&gt;Node19</title>
<path fill="none" stroke="midnightblue" d="M468.53,-95.76C456.38,-104.57 464.71,-114 493.5,-114 512.85,-114 522.95,-109.74 523.81,-104.27"/>
<polygon fill="midnightblue" stroke="midnightblue" points="526.75,-102.37 518.47,-95.76 520.82,-106.09 526.75,-102.37"/>
</g>
<!-- Node20 -->
<g id="node20" class="node">
<title>Node20</title>
<g id="a_node20"><a xlink:href="group___models.html#gaf4f69faf6a2c6db692bd0f742c08ca17" target="_top" xlink:title=" ">
<polygon fill="white" stroke="black" points="605.5,-137.5 605.5,-156.5 743.5,-156.5 743.5,-137.5 605.5,-137.5"/>
<text text-anchor="middle" x="674.5" y="-144.5" font-family="Helvetica,sans-Serif" font-size="10.00">operations_push_models</text>
</a>
</g>
</g>
<!-- Node19&#45;&gt;Node20 -->
<g id="edge22" class="edge">
<title>Node19&#45;&gt;Node20</title>
<path fill="none" stroke="midnightblue" d="M522.47,-95.53C552.99,-105.93 602,-122.63 635.88,-134.18"/>
<polygon fill="midnightblue" stroke="midnightblue" points="634.84,-137.52 645.43,-137.44 637.1,-130.9 634.84,-137.52"/>
</g>
<!-- Node23 -->
<g id="node23" class="node">
<title>Node23</title>
<g id="a_node23"><a xlink:href="group___transforms.html#gab74408a65711c19872c69797a55c6229" target="_top" xlink:title=" ">
<polygon fill="white" stroke="black" points="597,-76.5 597,-95.5 752,-95.5 752,-76.5 597,-76.5"/>
<text text-anchor="middle" x="674.5" y="-83.5" font-family="Helvetica,sans-Serif" font-size="10.00">operations_push_transforms</text>
</a>
</g>
</g>
<!-- Node19&#45;&gt;Node23 -->
<g id="edge25" class="edge">
<title>Node19&#45;&gt;Node23</title>
<path fill="none" stroke="midnightblue" d="M561.15,-86C569.51,-86 578.16,-86 586.77,-86"/>
<polygon fill="midnightblue" stroke="midnightblue" points="586.84,-89.5 596.84,-86 586.84,-82.5 586.84,-89.5"/>
</g>
<!-- Node21 -->
<g id="node21" class="node">
<title>Node21</title>
<g id="a_node21"><a xlink:href="group___models.html#ga9c6066851b617631703c06b7aa6f72ac" target="_top" xlink:title=" ">
<polygon fill="white" stroke="black" points="809,-151.5 809,-170.5 942,-170.5 942,-151.5 809,-151.5"/>
<text text-anchor="middle" x="875.5" y="-158.5" font-family="Helvetica,sans-Serif" font-size="10.00">operations_push_model</text>
</a>
</g>
</g>
<!-- Node20&#45;&gt;Node21 -->
<g id="edge23" class="edge">
<title>Node20&#45;&gt;Node21</title>
<path fill="none" stroke="midnightblue" d="M743.71,-151.8C761.38,-153.04 780.51,-154.39 798.55,-155.66"/>
<polygon fill="midnightblue" stroke="midnightblue" points="798.52,-159.16 808.74,-156.37 799.01,-152.18 798.52,-159.16"/>
</g>
<!-- Node22 -->
<g id="node22" class="node">
<title>Node22</title>
<g id="a_node22"><a xlink:href="group___models.html#gaa31dcad7bd49e781068f4d5f42734e2a" target="_top" xlink:title=" ">
<polygon fill="white" stroke="black" points="1008,-164 1008,-194 1138,-194 1138,-164 1008,-164"/>
<text text-anchor="start" x="1016" y="-182" font-family="Helvetica,sans-Serif" font-size="10.00">operations_push_string</text>
<text text-anchor="middle" x="1073" y="-171" font-family="Helvetica,sans-Serif" font-size="10.00">_attribute</text>
</a>
</g>
</g>
<!-- Node21&#45;&gt;Node22 -->
<g id="edge24" class="edge">
<title>Node21&#45;&gt;Node22</title>
<path fill="none" stroke="midnightblue" d="M942.14,-167.04C960.02,-168.69 979.51,-170.48 997.82,-172.17"/>
<polygon fill="midnightblue" stroke="midnightblue" points="997.58,-175.66 1007.86,-173.09 998.22,-168.69 997.58,-175.66"/>
</g>
<!-- Node24 -->
<g id="node24" class="node">
<title>Node24</title>
<g id="a_node24"><a xlink:href="group___transforms.html#ga9b8048838c7a406b93e9677dd9cb4373" target="_top" xlink:title=" ">
<polygon fill="white" stroke="black" points="788,-76.5 788,-95.5 963,-95.5 963,-76.5 788,-76.5"/>
<text text-anchor="middle" x="875.5" y="-83.5" font-family="Helvetica,sans-Serif" font-size="10.00">operations_push_transformation</text>
</a>
</g>
</g>
<!-- Node23&#45;&gt;Node24 -->
<g id="edge26" class="edge">
<title>Node23&#45;&gt;Node24</title>
<path fill="none" stroke="midnightblue" d="M752.15,-86C760.57,-86 769.23,-86 777.85,-86"/>
<polygon fill="midnightblue" stroke="midnightblue" points="777.94,-89.5 787.94,-86 777.94,-82.5 777.94,-89.5"/>
</g>
<!-- Node25 -->
<g id="node25" class="node">
<title>Node25</title>
<g id="a_node25"><a xlink:href="group___transforms.html#ga34490f49c910f6ad0b3b39d97ca6991f" target="_top" xlink:title=" ">
<polygon fill="white" stroke="black" points="999,-115 999,-145 1147,-145 1147,-115 999,-115"/>
<text text-anchor="start" x="1007" y="-133" font-family="Helvetica,sans-Serif" font-size="10.00">operations_push_extended</text>
<text text-anchor="middle" x="1073" y="-122" font-family="Helvetica,sans-Serif" font-size="10.00">_translate_attributes</text>
</a>
</g>
</g>
<!-- Node24&#45;&gt;Node25 -->
<g id="edge27" class="edge">
<title>Node24&#45;&gt;Node25</title>
<path fill="none" stroke="midnightblue" d="M918.92,-95.55C941.23,-100.57 969.26,-106.88 995.23,-112.72"/>
<polygon fill="midnightblue" stroke="midnightblue" points="994.54,-116.15 1005.06,-114.93 996.07,-109.32 994.54,-116.15"/>
</g>
<!-- Node24&#45;&gt;Node26 -->
<g id="edge29" class="edge">
<title>Node24&#45;&gt;Node26</title>
<path fill="none" stroke="midnightblue" d="M963.32,-86C1026.06,-86 1110.38,-86 1172.57,-86"/>
<polygon fill="midnightblue" stroke="midnightblue" points="1172.74,-89.5 1182.74,-86 1172.74,-82.5 1172.74,-89.5"/>
</g>
<!-- Node25&#45;&gt;Node26 -->
<g id="edge28" class="edge">
<title>Node25&#45;&gt;Node26</title>
<path fill="none" stroke="midnightblue" d="M1136.47,-114.98C1151.99,-111.25 1168.75,-107.22 1184.7,-103.38"/>
<polygon fill="midnightblue" stroke="midnightblue" points="1185.6,-106.77 1194.5,-101.03 1183.96,-99.96 1185.6,-106.77"/>
</g>
</g>
</svg>
        <g id="navigator" transform="translate(0 0)" fill="#404254">
                <rect fill="#f2f5e9" fill-opacity="0.5" stroke="#606060" stroke-width=".5" x="0" y="0" width="60" height="60"/>
                <use id="zoomplus" xlink:href="#zoomPlus" x="17" y="9" onmousedown="handleZoom(evt,'in')"/>
                <use id="zoomminus" xlink:href="#zoomMin" x="42" y="9" onmousedown="handleZoom(evt,'out')"/>
                <use id="reset" xlink:href="#resetDef" x="30" y="36" onmousedown="handleReset()"/>
                <g id="arrowUp" xlink:href="#dirArrow" transform="translate(30 24)" onmousedown="handlePan(0,-1)">
                  <use xlink:href="#rim" fill="#404040">
                        <set attributeName="fill" to="#808080" begin="arrowUp.mouseover" end="arrowUp.mouseout"/>
                  </use>
                  <path fill="none" stroke="white" stroke-width="1.5" d="M0,-3.0v7 M-2.5,-0.5L0,-3.0L2.5,-0.5"/>
                </g>
                <g id="arrowRight" xlink:href="#dirArrow" transform="rotate(90) translate(36 -43)" onmousedown="handlePan(1,0)">
                  <use xlink:href="#rim" fill="#404040">
                        <set attributeName="fill" to="#808080" begin="arrowRight.mouseover" end="arrowRight.mouseout"/>
                  </use>
                  <path fill="none" stroke="white" stroke-width="1.5" d="M0,-3.0v7 M-2.5,-0.5L0,-3.0L2.5,-0.5"/>
                </g>
                <g id="arrowDown" xlink:href="#dirArrow" transform="rotate(180) translate(-30 -48)" onmousedown="handlePan(0,1)">
                  <use xlink:href="#rim" fill="#404040">
                        <set attributeName="fill" to="#808080" begin="arrowDown.mouseover" end="arrowDown.mouseout"/>
                  </use>
                  <path fill="none" stroke="white" stroke-width="1.5" d="M0,-3.0v7 M-2.5,-0.5L0,-3.0L2.5,-0.5"/>
                </g>
                <g id="arrowLeft" xlink:href="#dirArrow" transform="rotate(270) translate(-36 17)" onmousedown="handlePan(-1,0)">
                  <use xlink:href="#rim" fill="#404040">
                        <set attributeName="fill" to="#808080" begin="arrowLeft.mouseover" end="arrowLeft.mouseout"/>
                  </use>
                  <path fill="none" stroke="white" stroke-width="1.5" d="M0,-3.0v7 M-2.5,-0.5L0,-3.0L2.5,-0.5"/>
                </g>
        </g>
        <svg viewBox="0 0 15 15" width="100%" height="30px" preserveAspectRatio="xMaxYMin meet">
         <g id="arrow_out" transform="scale(0.3 0.3)">
          <a xlink:href="group__engine_ga98eaf946471acbd931de5d52ca83b3d1_cgraph_org.svg" target="_base">
           <rect id="button" ry="5" rx="5" y="6" x="6" height="38" width="38"
                fill="#f2f5e9" fill-opacity="0.5" stroke="#606060" stroke-width="1.0"/>
           <path id="arrow"
             d="M 11.500037,31.436501 C 11.940474,20.09759 22.043105,11.32322 32.158766,21.979434 L 37.068811,17.246167 C 37.068811,17.246167 37.088388,32 37.088388,32 L 22.160133,31.978069 C 22.160133,31.978069 26.997745,27.140456 26.997745,27.140456 C 18.528582,18.264221 13.291696,25.230495 11.500037,31.436501 z"
             style="fill:#404040;"/>
          </a>
         </g>
        </svg>
</svg>
