<?xml version="1.0" encoding="UTF-8" standalone="no"?>
<!DOCTYPE svg PUBLIC "-//W3C//DTD SVG 1.1//EN"
 "http://www.w3.org/Graphics/SVG/1.1/DTD/svg11.dtd">
<!-- Generated by graphviz version 3.0.0 (0)
 -->
<!-- Title: operations_push_any Pages: 1 -->
<svg width="296pt" height="154pt"
 viewBox="0.00 0.00 296.00 154.00" xmlns="http://www.w3.org/2000/svg" xmlns:xlink="http://www.w3.org/1999/xlink">
<g id="graph0" class="graph" transform="scale(1 1) rotate(0) translate(4 150)">
<title>operations_push_any</title>
<polygon fill="white" stroke="transparent" points="-4,4 -4,-150 292,-150 292,4 -4,4"/>
<!-- Node1 -->
<g id="node1" class="node">
<title>Node1</title>
<g id="a_node1"><a xlink:title=" ">
<polygon fill="#bfbfbf" stroke="black" points="0,-66.5 0,-85.5 120,-85.5 120,-66.5 0,-66.5"/>
<text text-anchor="middle" x="60" y="-73.5" font-family="Helvetica,sans-Serif" font-size="10.00">operations_push_any</text>
</a>
</g>
</g>
<!-- Node1&#45;&gt;Node1 -->
<g id="edge3" class="edge">
<title>Node1&#45;&gt;Node1</title>
<path fill="none" stroke="midnightblue" d="M35.03,-85.76C22.88,-94.57 31.21,-104 60,-104 79.35,-104 89.45,-99.74 90.31,-94.27"/>
<polygon fill="midnightblue" stroke="midnightblue" points="93.25,-92.37 84.97,-85.76 87.32,-96.09 93.25,-92.37"/>
</g>
<!-- Node2 -->
<g id="node2" class="node">
<title>Node2</title>
<g id="a_node2"><a xlink:href="group___auxiliary.html#ga5e1350b5e6d7267d7e95a8ee351eae51" target="_top" xlink:title=" ">
<polygon fill="white" stroke="black" points="156,-126.5 156,-145.5 288,-145.5 288,-126.5 156,-126.5"/>
<text text-anchor="middle" x="222" y="-133.5" font-family="Helvetica,sans-Serif" font-size="10.00">crashIfFileDoesNotExist</text>
</a>
</g>
</g>
<!-- Node1&#45;&gt;Node2 -->
<g id="edge1" class="edge">
<title>Node1&#45;&gt;Node2</title>
<path fill="none" stroke="midnightblue" d="M81.09,-85.53C100.13,-94.35 129.64,-107.5 156,-117 162.32,-119.28 169.05,-121.48 175.7,-123.54"/>
<polygon fill="midnightblue" stroke="midnightblue" points="174.74,-126.9 185.32,-126.43 176.75,-120.2 174.74,-126.9"/>
</g>
<!-- Node3 -->
<g id="node3" class="node">
<title>Node3</title>
<g id="a_node3"><a xlink:href="group___auxiliary.html#gab70be49ae6c9836b6605fa296e23c58c" target="_top" xlink:title=" ">
<polygon fill="white" stroke="black" points="174.5,-88.5 174.5,-107.5 269.5,-107.5 269.5,-88.5 174.5,-88.5"/>
<text text-anchor="middle" x="222" y="-95.5" font-family="Helvetica,sans-Serif" font-size="10.00">elementToEnum</text>
</a>
</g>
</g>
<!-- Node1&#45;&gt;Node3 -->
<g id="edge2" class="edge">
<title>Node1&#45;&gt;Node3</title>
<path fill="none" stroke="midnightblue" d="M120.12,-84.13C134.52,-86.11 149.89,-88.22 164.18,-90.19"/>
<polygon fill="midnightblue" stroke="midnightblue" points="163.98,-93.69 174.36,-91.59 164.93,-86.76 163.98,-93.69"/>
</g>
<!-- Node4 -->
<g id="node4" class="node">
<title>Node4</title>
<g id="a_node4"><a xlink:href="group___auxiliary.html#ga27f2fb7edc94a99859f8e3a5120af3b4" target="_top" xlink:title=" ">
<polygon fill="white" stroke="black" points="157,-39 157,-69 287,-69 287,-39 157,-39"/>
<text text-anchor="start" x="165" y="-57" font-family="Helvetica,sans-Serif" font-size="10.00">operations_push_string</text>
<text text-anchor="middle" x="222" y="-46" font-family="Helvetica,sans-Serif" font-size="10.00">_attribute</text>
</a>
</g>
</g>
<!-- Node1&#45;&gt;Node4 -->
<g id="edge4" class="edge">
<title>Node1&#45;&gt;Node4</title>
<path fill="none" stroke="midnightblue" d="M120.12,-67.87C128.79,-66.68 137.81,-65.44 146.73,-64.21"/>
<polygon fill="midnightblue" stroke="midnightblue" points="147.31,-67.67 156.74,-62.84 146.36,-60.73 147.31,-67.67"/>
</g>
<!-- Node5 -->
<g id="node5" class="node">
<title>Node5</title>
<g id="a_node5"><a xlink:href="group___auxiliary.html#ga97fc3f3450980b121126d829a0263836" target="_top" xlink:title=" ">
<polygon fill="white" stroke="black" points="165.5,-0.5 165.5,-19.5 278.5,-19.5 278.5,-0.5 165.5,-0.5"/>
<text text-anchor="middle" x="222" y="-7.5" font-family="Helvetica,sans-Serif" font-size="10.00">pushFloatAttributes</text>
</a>
</g>
</g>
<!-- Node1&#45;&gt;Node5 -->
<g id="edge5" class="edge">
<title>Node1&#45;&gt;Node5</title>
<path fill="none" stroke="midnightblue" d="M78.85,-66.34C97.67,-56.4 128.37,-40.87 156,-30 162.72,-27.36 169.95,-24.83 177.04,-22.52"/>
<polygon fill="midnightblue" stroke="midnightblue" points="178.1,-25.86 186.59,-19.52 176,-19.18 178.1,-25.86"/>
</g>
</g>
</svg>
