<?xml version="1.0" encoding="UTF-8" standalone="no"?>
<!DOCTYPE svg PUBLIC "-//W3C//DTD SVG 1.1//EN"
 "http://www.w3.org/Graphics/SVG/1.1/DTD/svg11.dtd">
<!-- Generated by graphviz version 3.0.0 (0)
 -->
<!-- Title: get_curve_point_at Pages: 1 -->
<svg width="1085pt" height="104pt"
 viewBox="0.00 0.00 1085.00 104.00" xmlns="http://www.w3.org/2000/svg" xmlns:xlink="http://www.w3.org/1999/xlink">
<g id="graph0" class="graph" transform="scale(1 1) rotate(0) translate(4 100)">
<title>get_curve_point_at</title>
<polygon fill="white" stroke="transparent" points="-4,4 -4,-100 1081,-100 1081,4 -4,4"/>
<!-- Node1 -->
<g id="node1" class="node">
<title>Node1</title>
<g id="a_node1"><a xlink:title=" ">
<polygon fill="#bfbfbf" stroke="black" points="967,-57.5 967,-76.5 1077,-76.5 1077,-57.5 967,-57.5"/>
<text text-anchor="middle" x="1022" y="-64.5" font-family="Helvetica,sans-Serif" font-size="10.00">get_curve_point_at</text>
</a>
</g>
</g>
<!-- Node2 -->
<g id="node2" class="node">
<title>Node2</title>
<g id="a_node2"><a xlink:href="group___bezier.html#ga4623e7c5e81e842a2b10cd85b9481744" target="_top" xlink:title=" ">
<polygon fill="white" stroke="black" points="809.5,-76.5 809.5,-95.5 922.5,-95.5 922.5,-76.5 809.5,-76.5"/>
<text text-anchor="middle" x="866" y="-83.5" font-family="Helvetica,sans-Serif" font-size="10.00">get_bezier_point_at</text>
</a>
</g>
</g>
<!-- Node1&#45;&gt;Node2 -->
<g id="edge1" class="edge">
<title>Node1&#45;&gt;Node2</title>
<path fill="none" stroke="midnightblue" d="M956.5,-74.96C945.24,-76.35 933.62,-77.78 922.63,-79.14"/>
<polygon fill="midnightblue" stroke="midnightblue" points="957.21,-78.4 966.71,-73.7 956.35,-71.45 957.21,-78.4"/>
</g>
<!-- Node7 -->
<g id="node7" class="node">
<title>Node7</title>
<g id="a_node7"><a xlink:href="group___curves.html#gaf7cd8d9b34a073c2fd2d7d8187bcff42" target="_top" xlink:title=" ">
<polygon fill="white" stroke="black" points="801,-38.5 801,-57.5 931,-57.5 931,-38.5 801,-38.5"/>
<text text-anchor="middle" x="866" y="-45.5" font-family="Helvetica,sans-Serif" font-size="10.00">get_curve_global_point</text>
</a>
</g>
</g>
<!-- Node1&#45;&gt;Node7 -->
<g id="edge6" class="edge">
<title>Node1&#45;&gt;Node7</title>
<path fill="none" stroke="midnightblue" d="M956.56,-59.05C948.13,-58.01 939.5,-56.95 931.08,-55.91"/>
<polygon fill="midnightblue" stroke="midnightblue" points="956.35,-62.55 966.71,-60.3 957.21,-55.6 956.35,-62.55"/>
</g>
<!-- Node3 -->
<g id="node3" class="node">
<title>Node3</title>
<g id="a_node3"><a xlink:href="group___bezier.html#ga08aa0300760bfa97d7555a4c4d09f8be" target="_top" xlink:title=" ">
<polygon fill="white" stroke="black" points="653.5,-76.5 653.5,-95.5 753.5,-95.5 753.5,-76.5 653.5,-76.5"/>
<text text-anchor="middle" x="703.5" y="-83.5" font-family="Helvetica,sans-Serif" font-size="10.00">get_bezier_patch</text>
</a>
</g>
</g>
<!-- Node2&#45;&gt;Node3 -->
<g id="edge2" class="edge">
<title>Node2&#45;&gt;Node3</title>
<path fill="none" stroke="midnightblue" d="M798.96,-86C783.81,-86 767.95,-86 753.66,-86"/>
<polygon fill="midnightblue" stroke="midnightblue" points="799.32,-89.5 809.32,-86 799.32,-82.5 799.32,-89.5"/>
</g>
<!-- Node4 -->
<g id="node4" class="node">
<title>Node4</title>
<g id="a_node4"><a xlink:href="group___bezier.html#gad696b1162ccfd03b01584b7794814cf5" target="_top" xlink:title=" ">
<polygon fill="white" stroke="black" points="497,-76.5 497,-95.5 606,-95.5 606,-76.5 497,-76.5"/>
<text text-anchor="middle" x="551.5" y="-83.5" font-family="Helvetica,sans-Serif" font-size="10.00">get_bezier_surface</text>
</a>
</g>
</g>
<!-- Node3&#45;&gt;Node4 -->
<g id="edge3" class="edge">
<title>Node3&#45;&gt;Node4</title>
<path fill="none" stroke="midnightblue" d="M643.26,-86C631.01,-86 618.17,-86 606.13,-86"/>
<polygon fill="midnightblue" stroke="midnightblue" points="643.38,-89.5 653.38,-86 643.38,-82.5 643.38,-89.5"/>
</g>
<!-- Node5 -->
<g id="node5" class="node">
<title>Node5</title>
<g id="a_node5"><a xlink:href="group___bezier.html#ga0886f14826417ba72823e219550591e1" target="_top" xlink:title=" ">
<polygon fill="white" stroke="black" points="348,-76.5 348,-95.5 461,-95.5 461,-76.5 348,-76.5"/>
<text text-anchor="middle" x="404.5" y="-83.5" font-family="Helvetica,sans-Serif" font-size="10.00">model_bezier_write</text>
</a>
</g>
</g>
<!-- Node4&#45;&gt;Node5 -->
<g id="edge4" class="edge">
<title>Node4&#45;&gt;Node5</title>
<path fill="none" stroke="midnightblue" d="M486.7,-86C478.23,-86 469.61,-86 461.29,-86"/>
<polygon fill="midnightblue" stroke="midnightblue" points="486.92,-89.5 496.92,-86 486.92,-82.5 486.92,-89.5"/>
</g>
<!-- Node6 -->
<g id="node6" class="node">
<title>Node6</title>
<g id="a_node6"><a xlink:href="group___c_l_i.html#gaee608aedd5b0b58f2966c2ff15101925" target="_top" xlink:title=" ">
<polygon fill="white" stroke="black" points="227.5,-76.5 227.5,-95.5 268.5,-95.5 268.5,-76.5 227.5,-76.5"/>
<text text-anchor="middle" x="248" y="-83.5" font-family="Helvetica,sans-Serif" font-size="10.00">main</text>
</a>
</g>
</g>
<!-- Node5&#45;&gt;Node6 -->
<g id="edge5" class="edge">
<title>Node5&#45;&gt;Node6</title>
<path fill="none" stroke="midnightblue" d="M337.53,-86C312.57,-86 286.01,-86 268.57,-86"/>
<polygon fill="midnightblue" stroke="midnightblue" points="337.72,-89.5 347.72,-86 337.72,-82.5 337.72,-89.5"/>
</g>
<!-- Node8 -->
<g id="node8" class="node">
<title>Node8</title>
<g id="a_node8"><a xlink:href="group___curves.html#ga98b26a4263f61db7149441a99a6d35b6" target="_top" xlink:title=" ">
<polygon fill="white" stroke="black" points="642,-38.5 642,-57.5 765,-57.5 765,-38.5 642,-38.5"/>
<text text-anchor="middle" x="703.5" y="-45.5" font-family="Helvetica,sans-Serif" font-size="10.00">align_global_pos_mat</text>
</a>
</g>
</g>
<!-- Node7&#45;&gt;Node8 -->
<g id="edge7" class="edge">
<title>Node7&#45;&gt;Node8</title>
<path fill="none" stroke="midnightblue" d="M790.42,-48C781.98,-48 773.46,-48 765.22,-48"/>
<polygon fill="midnightblue" stroke="midnightblue" points="790.64,-51.5 800.64,-48 790.64,-44.5 790.64,-51.5"/>
</g>
<!-- Node15 -->
<g id="node15" class="node">
<title>Node15</title>
<g id="a_node15"><a xlink:href="group___curves.html#gad812fc50a0384335487e258a6f61714e" target="_top" xlink:title=" ">
<polygon fill="white" stroke="black" points="513,-0.5 513,-19.5 590,-19.5 590,-0.5 513,-0.5"/>
<text text-anchor="middle" x="551.5" y="-7.5" font-family="Helvetica,sans-Serif" font-size="10.00">renderCurve</text>
</a>
</g>
</g>
<!-- Node7&#45;&gt;Node15 -->
<g id="edge15" class="edge">
<title>Node7&#45;&gt;Node15</title>
<path fill="none" stroke="midnightblue" d="M809.98,-36.54C795.4,-33.78 779.65,-31.04 765,-29 704.1,-20.51 632.83,-15.04 590.25,-12.25"/>
<polygon fill="midnightblue" stroke="midnightblue" points="809.37,-39.99 819.86,-38.44 810.7,-33.11 809.37,-39.99"/>
</g>
<!-- Node9 -->
<g id="node9" class="node">
<title>Node9</title>
<g id="a_node9"><a xlink:href="group___curves.html#ga821c8cbf0a47b918c60a4912b733e6bd" target="_top" xlink:title=" ">
<polygon fill="white" stroke="black" points="499.5,-38.5 499.5,-57.5 603.5,-57.5 603.5,-38.5 499.5,-38.5"/>
<text text-anchor="middle" x="551.5" y="-45.5" font-family="Helvetica,sans-Serif" font-size="10.00">advance_in_curve</text>
</a>
</g>
</g>
<!-- Node8&#45;&gt;Node9 -->
<g id="edge8" class="edge">
<title>Node8&#45;&gt;Node9</title>
<path fill="none" stroke="midnightblue" d="M631.72,-48C622.26,-48 612.71,-48 603.68,-48"/>
<polygon fill="midnightblue" stroke="midnightblue" points="631.92,-51.5 641.92,-48 631.92,-44.5 631.92,-51.5"/>
</g>
<!-- Node10 -->
<g id="node10" class="node">
<title>Node10</title>
<g id="a_node10"><a xlink:href="group___rendering.html#ga8d5a19a3522cea1b4254684cf6515d13" target="_top" xlink:title=" ">
<polygon fill="white" stroke="black" points="352,-0.5 352,-19.5 457,-19.5 457,-0.5 352,-0.5"/>
<text text-anchor="middle" x="404.5" y="-7.5" font-family="Helvetica,sans-Serif" font-size="10.00">operations_render</text>
</a>
</g>
</g>
<!-- Node9&#45;&gt;Node10 -->
<g id="edge9" class="edge">
<title>Node9&#45;&gt;Node10</title>
<path fill="none" stroke="midnightblue" d="M504.01,-35.82C483.88,-30.54 460.66,-24.46 441.83,-19.52"/>
<polygon fill="midnightblue" stroke="midnightblue" points="503.35,-39.26 513.91,-38.41 505.12,-32.49 503.35,-39.26"/>
</g>
<!-- Node11 -->
<g id="node11" class="node">
<title>Node11</title>
<g id="a_node11"><a xlink:href="group__engine.html#ga91c42686f3245f22fb6b17ba5372d92c" target="_top" xlink:title=" ">
<polygon fill="white" stroke="black" points="209.5,-38.5 209.5,-57.5 286.5,-57.5 286.5,-38.5 209.5,-38.5"/>
<text text-anchor="middle" x="248" y="-45.5" font-family="Helvetica,sans-Serif" font-size="10.00">renderScene</text>
</a>
</g>
</g>
<!-- Node10&#45;&gt;Node11 -->
<g id="edge10" class="edge">
<title>Node10&#45;&gt;Node11</title>
<path fill="none" stroke="midnightblue" d="M354.69,-22.01C332.69,-27.42 307.12,-33.7 286.64,-38.74"/>
<polygon fill="midnightblue" stroke="midnightblue" points="355.64,-25.38 364.51,-19.59 353.97,-18.58 355.64,-25.38"/>
</g>
<!-- Node14 -->
<g id="node14" class="node">
<title>Node14</title>
<g id="a_node14"><a xlink:href="group__engine.html#ga7148688af5abea686f74d15a50bd20ae" target="_top" xlink:title=" ">
<polygon fill="white" stroke="black" points="184,-0.5 184,-19.5 312,-19.5 312,-0.5 184,-0.5"/>
<text text-anchor="middle" x="248" y="-7.5" font-family="Helvetica,sans-Serif" font-size="10.00">xml_load_and_set_env</text>
</a>
</g>
</g>
<!-- Node10&#45;&gt;Node14 -->
<g id="edge13" class="edge">
<title>Node10&#45;&gt;Node14</title>
<path fill="none" stroke="midnightblue" d="M341.61,-10C331.86,-10 321.77,-10 312,-10"/>
<polygon fill="midnightblue" stroke="midnightblue" points="341.62,-13.5 351.62,-10 341.62,-6.5 341.62,-13.5"/>
</g>
<!-- Node12 -->
<g id="node12" class="node">
<title>Node12</title>
<g id="a_node12"><a xlink:href="group__engine.html#ga98eaf946471acbd931de5d52ca83b3d1" target="_top" xlink:title=" ">
<polygon fill="white" stroke="black" points="77,-19.5 77,-38.5 148,-38.5 148,-19.5 77,-19.5"/>
<text text-anchor="middle" x="112.5" y="-26.5" font-family="Helvetica,sans-Serif" font-size="10.00">engine_run</text>
</a>
</g>
</g>
<!-- Node11&#45;&gt;Node12 -->
<g id="edge11" class="edge">
<title>Node11&#45;&gt;Node12</title>
<path fill="none" stroke="midnightblue" d="M199.2,-41.2C182.29,-38.79 163.61,-36.13 148.02,-33.91"/>
<polygon fill="midnightblue" stroke="midnightblue" points="199.06,-44.71 209.46,-42.66 200.05,-37.78 199.06,-44.71"/>
</g>
<!-- Node13 -->
<g id="node13" class="node">
<title>Node13</title>
<g id="a_node13"><a xlink:href="group___operations___c_l_i.html#ga3c04138a5bfe5d72780bb7e82a18e627" target="_top" xlink:title=" ">
<polygon fill="white" stroke="black" points="0,-19.5 0,-38.5 41,-38.5 41,-19.5 0,-19.5"/>
<text text-anchor="middle" x="20.5" y="-26.5" font-family="Helvetica,sans-Serif" font-size="10.00">main</text>
</a>
</g>
</g>
<!-- Node12&#45;&gt;Node13 -->
<g id="edge12" class="edge">
<title>Node12&#45;&gt;Node13</title>
<path fill="none" stroke="midnightblue" d="M66.88,-29C57.87,-29 48.84,-29 41.24,-29"/>
<polygon fill="midnightblue" stroke="midnightblue" points="66.96,-32.5 76.96,-29 66.96,-25.5 66.96,-32.5"/>
</g>
<!-- Node14&#45;&gt;Node12 -->
<g id="edge14" class="edge">
<title>Node14&#45;&gt;Node12</title>
<path fill="none" stroke="midnightblue" d="M173.71,-20.43C164.82,-21.7 156.09,-22.94 148.16,-24.07"/>
<polygon fill="midnightblue" stroke="midnightblue" points="174.36,-23.87 183.77,-19 173.38,-16.94 174.36,-23.87"/>
</g>
<!-- Node15&#45;&gt;Node10 -->
<g id="edge16" class="edge">
<title>Node15&#45;&gt;Node10</title>
<path fill="none" stroke="midnightblue" d="M502.51,-10C487.99,-10 471.98,-10 457.22,-10"/>
<polygon fill="midnightblue" stroke="midnightblue" points="502.78,-13.5 512.78,-10 502.78,-6.5 502.78,-13.5"/>
</g>
</g>
</svg>
