<?xml version="1.0" encoding="UTF-8" standalone="no"?>
<!DOCTYPE svg PUBLIC "-//W3C//DTD SVG 1.1//EN"
 "http://www.w3.org/Graphics/SVG/1.1/DTD/svg11.dtd">
<!-- Generated by graphviz version 3.0.0 (0)
 -->
<!-- Title: main Pages: 1 -->
<svg width="1418pt" height="400pt"
 viewBox="0.00 0.00 1418.00 400.00" xmlns="http://www.w3.org/2000/svg" xmlns:xlink="http://www.w3.org/1999/xlink">
<g id="graph0" class="graph" transform="scale(1 1) rotate(0) translate(4 396)">
<title>main</title>
<polygon fill="white" stroke="transparent" points="-4,4 -4,-396 1414,-396 1414,4 -4,4"/>
<!-- Node1 -->
<g id="node1" class="node">
<title>Node1</title>
<g id="a_node1"><a xlink:title=" ">
<polygon fill="#bfbfbf" stroke="black" points="0,-230.5 0,-249.5 41,-249.5 41,-230.5 0,-230.5"/>
<text text-anchor="middle" x="20.5" y="-237.5" font-family="Helvetica,sans-Serif" font-size="10.00">main</text>
</a>
</g>
</g>
<!-- Node2 -->
<g id="node2" class="node">
<title>Node2</title>
<g id="a_node2"><a xlink:href="group__engine.html#ga98eaf946471acbd931de5d52ca83b3d1" target="_top" xlink:title=" ">
<polygon fill="white" stroke="black" points="77,-230.5 77,-249.5 148,-249.5 148,-230.5 77,-230.5"/>
<text text-anchor="middle" x="112.5" y="-237.5" font-family="Helvetica,sans-Serif" font-size="10.00">engine_run</text>
</a>
</g>
</g>
<!-- Node1&#45;&gt;Node2 -->
<g id="edge1" class="edge">
<title>Node1&#45;&gt;Node2</title>
<path fill="none" stroke="midnightblue" d="M41.03,-240C48.62,-240 57.64,-240 66.66,-240"/>
<polygon fill="midnightblue" stroke="midnightblue" points="66.77,-243.5 76.77,-240 66.77,-236.5 66.77,-243.5"/>
</g>
<!-- Node3 -->
<g id="node3" class="node">
<title>Node3</title>
<g id="a_node3"><a xlink:href="group__camera.html#ga4eec7d736381fd000f84ccb4f2d844da" target="_top" xlink:title=" ">
<polygon fill="white" stroke="black" points="373,-268.5 373,-287.5 442,-287.5 442,-268.5 373,-268.5"/>
<text text-anchor="middle" x="407.5" y="-275.5" font-family="Helvetica,sans-Serif" font-size="10.00">loadProfile</text>
</a>
</g>
</g>
<!-- Node2&#45;&gt;Node3 -->
<g id="edge2" class="edge">
<title>Node2&#45;&gt;Node3</title>
<path fill="none" stroke="midnightblue" d="M144.12,-249.53C156.4,-253.01 170.77,-256.67 184,-259 245.46,-269.82 317.59,-274.54 362.68,-276.56"/>
<polygon fill="midnightblue" stroke="midnightblue" points="362.57,-280.06 372.71,-276.98 362.87,-273.07 362.57,-280.06"/>
</g>
<!-- Node4 -->
<g id="node4" class="node">
<title>Node4</title>
<g id="a_node4"><a xlink:href="group__engine.html#ga91c42686f3245f22fb6b17ba5372d92c" target="_top" xlink:title=" ">
<polygon fill="white" stroke="black" points="209.5,-230.5 209.5,-249.5 286.5,-249.5 286.5,-230.5 209.5,-230.5"/>
<text text-anchor="middle" x="248" y="-237.5" font-family="Helvetica,sans-Serif" font-size="10.00">renderScene</text>
</a>
</g>
</g>
<!-- Node2&#45;&gt;Node4 -->
<g id="edge3" class="edge">
<title>Node2&#45;&gt;Node4</title>
<path fill="none" stroke="midnightblue" d="M148.23,-240C163.71,-240 182.2,-240 198.98,-240"/>
<polygon fill="midnightblue" stroke="midnightblue" points="199.16,-243.5 209.16,-240 199.16,-236.5 199.16,-243.5"/>
</g>
<!-- Node17 -->
<g id="node17" class="node">
<title>Node17</title>
<g id="a_node17"><a xlink:href="group__engine.html#ga4c801322659c1ed52adccd3874552bb3" target="_top" xlink:title=" ">
<polygon fill="white" stroke="black" points="184,-192.5 184,-211.5 312,-211.5 312,-192.5 184,-192.5"/>
<text text-anchor="middle" x="248" y="-199.5" font-family="Helvetica,sans-Serif" font-size="10.00">xml_load_and_set_env</text>
</a>
</g>
</g>
<!-- Node2&#45;&gt;Node17 -->
<g id="edge18" class="edge">
<title>Node2&#45;&gt;Node17</title>
<path fill="none" stroke="midnightblue" d="M147.19,-230.41C164.26,-225.55 185.2,-219.59 203.48,-214.39"/>
<polygon fill="midnightblue" stroke="midnightblue" points="204.66,-217.69 213.32,-211.59 202.75,-210.96 204.66,-217.69"/>
</g>
<!-- Node4&#45;&gt;Node3 -->
<g id="edge4" class="edge">
<title>Node4&#45;&gt;Node3</title>
<path fill="none" stroke="midnightblue" d="M286.73,-249.1C309.66,-254.64 339.03,-261.72 362.95,-267.49"/>
<polygon fill="midnightblue" stroke="midnightblue" points="362.29,-270.93 372.83,-269.88 363.93,-264.13 362.29,-270.93"/>
</g>
<!-- Node5 -->
<g id="node5" class="node">
<title>Node5</title>
<g id="a_node5"><a xlink:href="group___operations.html#ga8d5a19a3522cea1b4254684cf6515d13" target="_top" xlink:title=" ">
<polygon fill="white" stroke="black" points="355,-230.5 355,-249.5 460,-249.5 460,-230.5 355,-230.5"/>
<text text-anchor="middle" x="407.5" y="-237.5" font-family="Helvetica,sans-Serif" font-size="10.00">operations_render</text>
</a>
</g>
</g>
<!-- Node4&#45;&gt;Node5 -->
<g id="edge5" class="edge">
<title>Node4&#45;&gt;Node5</title>
<path fill="none" stroke="midnightblue" d="M286.73,-240C304.08,-240 325.13,-240 344.71,-240"/>
<polygon fill="midnightblue" stroke="midnightblue" points="344.79,-243.5 354.79,-240 344.79,-236.5 344.79,-243.5"/>
</g>
<!-- Node6 -->
<g id="node6" class="node">
<title>Node6</title>
<g id="a_node6"><a xlink:href="curves_8cpp.html#a821c8cbf0a47b918c60a4912b733e6bd" target="_top" xlink:title=" ">
<polygon fill="white" stroke="black" points="518.5,-372.5 518.5,-391.5 622.5,-391.5 622.5,-372.5 518.5,-372.5"/>
<text text-anchor="middle" x="570.5" y="-379.5" font-family="Helvetica,sans-Serif" font-size="10.00">advance_in_curve</text>
</a>
</g>
</g>
<!-- Node5&#45;&gt;Node6 -->
<g id="edge6" class="edge">
<title>Node5&#45;&gt;Node6</title>
<path fill="none" stroke="midnightblue" d="M453.19,-249.56C458.27,-252.02 463.04,-255.11 467,-259 501.92,-293.25 467.48,-329.38 503,-363 504.95,-364.84 507.06,-366.51 509.29,-368.01"/>
<polygon fill="midnightblue" stroke="midnightblue" points="507.98,-371.28 518.42,-373.06 511.36,-365.16 507.98,-371.28"/>
</g>
<!-- Node11 -->
<g id="node11" class="node">
<title>Node11</title>
<g id="a_node11"><a xlink:href="engine_8cpp.html#a072c434cfd125e58ac1cec9a5725688a" target="_top" xlink:title=" ">
<polygon fill="white" stroke="black" points="512.5,-334.5 512.5,-353.5 628.5,-353.5 628.5,-334.5 512.5,-334.5"/>
<text text-anchor="middle" x="570.5" y="-341.5" font-family="Helvetica,sans-Serif" font-size="10.00">advance_in_rotation</text>
</a>
</g>
</g>
<!-- Node5&#45;&gt;Node11 -->
<g id="edge11" class="edge">
<title>Node5&#45;&gt;Node11</title>
<path fill="none" stroke="midnightblue" d="M451.1,-249.55C456.82,-252.01 462.32,-255.11 467,-259 492.71,-280.34 476.91,-304.12 503,-325 505.29,-326.83 507.74,-328.48 510.31,-329.97"/>
<polygon fill="midnightblue" stroke="midnightblue" points="508.89,-333.18 519.4,-334.46 511.99,-326.9 508.89,-333.18"/>
</g>
<!-- Node12 -->
<g id="node12" class="node">
<title>Node12</title>
<g id="a_node12"><a xlink:href="group__model_engine.html#ga361bcac2814bb93f543d2c0f1b28b6d2" target="_top" xlink:title=" ">
<polygon fill="white" stroke="black" points="535.5,-296.5 535.5,-315.5 605.5,-315.5 605.5,-296.5 535.5,-296.5"/>
<text text-anchor="middle" x="570.5" y="-303.5" font-family="Helvetica,sans-Serif" font-size="10.00">allocModel</text>
</a>
</g>
</g>
<!-- Node5&#45;&gt;Node12 -->
<g id="edge12" class="edge">
<title>Node5&#45;&gt;Node12</title>
<path fill="none" stroke="midnightblue" d="M444.58,-249.54C452.19,-252.15 460.02,-255.3 467,-259 484.91,-268.5 484.93,-277.83 503,-287 510.08,-290.59 517.93,-293.6 525.69,-296.08"/>
<polygon fill="midnightblue" stroke="midnightblue" points="524.82,-299.47 535.4,-298.94 526.8,-292.75 524.82,-299.47"/>
</g>
<!-- Node13 -->
<g id="node13" class="node">
<title>Node13</title>
<g id="a_node13"><a xlink:href="group__model_engine.html#ga8c7329ae859a08eea53a77130ebe6018" target="_top" xlink:title=" ">
<polygon fill="white" stroke="black" points="513,-247 513,-277 628,-277 628,-247 513,-247"/>
<text text-anchor="start" x="521" y="-265" font-family="Helvetica,sans-Serif" font-size="10.00">associate_a_texture</text>
<text text-anchor="middle" x="570.5" y="-254" font-family="Helvetica,sans-Serif" font-size="10.00">_to_model</text>
</a>
</g>
</g>
<!-- Node5&#45;&gt;Node13 -->
<g id="edge13" class="edge">
<title>Node5&#45;&gt;Node13</title>
<path fill="none" stroke="midnightblue" d="M460.33,-247.08C473.79,-248.92 488.48,-250.93 502.6,-252.86"/>
<polygon fill="midnightblue" stroke="midnightblue" points="502.37,-256.36 512.76,-254.25 503.32,-249.42 502.37,-256.36"/>
</g>
<!-- Node14 -->
<g id="node14" class="node">
<title>Node14</title>
<g id="a_node14"><a xlink:href="group__explorer_camera.html#gabd434f65cba3ee8011b8d3cdd1f25dca" target="_top" xlink:title=" ">
<polygon fill="white" stroke="black" points="514,-208.5 514,-227.5 627,-227.5 627,-208.5 514,-208.5"/>
<text text-anchor="middle" x="570.5" y="-215.5" font-family="Helvetica,sans-Serif" font-size="10.00">cartesian2Spherical</text>
</a>
</g>
</g>
<!-- Node5&#45;&gt;Node14 -->
<g id="edge14" class="edge">
<title>Node5&#45;&gt;Node14</title>
<path fill="none" stroke="midnightblue" d="M460.33,-232.92C474.22,-231.02 489.42,-228.94 503.95,-226.96"/>
<polygon fill="midnightblue" stroke="midnightblue" points="504.44,-230.42 513.88,-225.6 503.5,-223.49 504.44,-230.42"/>
</g>
<!-- Node15 -->
<g id="node15" class="node">
<title>Node15</title>
<g id="a_node15"><a xlink:href="curves_8cpp.html#ad812fc50a0384335487e258a6f61714e" target="_top" xlink:title=" ">
<polygon fill="white" stroke="black" points="713,-184.5 713,-203.5 790,-203.5 790,-184.5 713,-184.5"/>
<text text-anchor="middle" x="751.5" y="-191.5" font-family="Helvetica,sans-Serif" font-size="10.00">renderCurve</text>
</a>
</g>
</g>
<!-- Node5&#45;&gt;Node15 -->
<g id="edge15" class="edge">
<title>Node5&#45;&gt;Node15</title>
<path fill="none" stroke="midnightblue" d="M442.43,-230.47C450.62,-227.77 459.24,-224.57 467,-221 484.03,-213.16 485,-204.26 503,-199 570.15,-179.37 651.98,-182.68 702.66,-187.7"/>
<polygon fill="midnightblue" stroke="midnightblue" points="702.37,-191.19 712.68,-188.75 703.1,-184.23 702.37,-191.19"/>
</g>
<!-- Node16 -->
<g id="node16" class="node">
<title>Node16</title>
<g id="a_node16"><a xlink:href="group__model_engine.html#ga2907e4adf4f2bef2c8ce416cb8470997" target="_top" xlink:title=" ">
<polygon fill="white" stroke="black" points="531.5,-132.5 531.5,-151.5 609.5,-151.5 609.5,-132.5 531.5,-132.5"/>
<text text-anchor="middle" x="570.5" y="-139.5" font-family="Helvetica,sans-Serif" font-size="10.00">renderModel</text>
</a>
</g>
</g>
<!-- Node5&#45;&gt;Node16 -->
<g id="edge17" class="edge">
<title>Node5&#45;&gt;Node16</title>
<path fill="none" stroke="midnightblue" d="M449.91,-230.48C455.99,-228 461.91,-224.89 467,-221 490.21,-203.26 480.08,-184.11 503,-166 508.69,-161.5 515.3,-157.8 522.11,-154.77"/>
<polygon fill="midnightblue" stroke="midnightblue" points="523.44,-158 531.43,-151.04 520.84,-151.5 523.44,-158"/>
</g>
<!-- Node7 -->
<g id="node7" class="node">
<title>Node7</title>
<g id="a_node7"><a xlink:href="curves_8cpp.html#a98b26a4263f61db7149441a99a6d35b6" target="_top" xlink:title=" ">
<polygon fill="white" stroke="black" points="690,-351.5 690,-370.5 813,-370.5 813,-351.5 690,-351.5"/>
<text text-anchor="middle" x="751.5" y="-358.5" font-family="Helvetica,sans-Serif" font-size="10.00">align_global_pos_mat</text>
</a>
</g>
</g>
<!-- Node6&#45;&gt;Node7 -->
<g id="edge7" class="edge">
<title>Node6&#45;&gt;Node7</title>
<path fill="none" stroke="midnightblue" d="M622.79,-375.98C640.48,-373.91 660.62,-371.54 679.6,-369.32"/>
<polygon fill="midnightblue" stroke="midnightblue" points="680.17,-372.78 689.69,-368.13 679.35,-365.82 680.17,-372.78"/>
</g>
<!-- Node8 -->
<g id="node8" class="node">
<title>Node8</title>
<g id="a_node8"><a xlink:href="curves_8cpp.html#abe9fa1f2a311f275f92f5b46fb2f8490" target="_top" xlink:title=" ">
<polygon fill="white" stroke="black" points="887.5,-272.5 887.5,-291.5 1017.5,-291.5 1017.5,-272.5 887.5,-272.5"/>
<text text-anchor="middle" x="952.5" y="-279.5" font-family="Helvetica,sans-Serif" font-size="10.00">get_curve_global_point</text>
</a>
</g>
</g>
<!-- Node7&#45;&gt;Node8 -->
<g id="edge8" class="edge">
<title>Node7&#45;&gt;Node8</title>
<path fill="none" stroke="midnightblue" d="M776.5,-351.47C811.84,-337.44 877.99,-311.18 918.06,-295.27"/>
<polygon fill="midnightblue" stroke="midnightblue" points="919.41,-298.51 927.41,-291.56 916.82,-292 919.41,-298.51"/>
</g>
<!-- Node9 -->
<g id="node9" class="node">
<title>Node9</title>
<g id="a_node9"><a xlink:href="curves_8cpp.html#afa648d7de8c941b50b26f02755a955b9" target="_top" xlink:title=" ">
<polygon fill="white" stroke="black" points="1105.5,-291.5 1105.5,-310.5 1194.5,-310.5 1194.5,-291.5 1105.5,-291.5"/>
<text text-anchor="middle" x="1150" y="-298.5" font-family="Helvetica,sans-Serif" font-size="10.00">get_curve_info</text>
</a>
</g>
</g>
<!-- Node8&#45;&gt;Node9 -->
<g id="edge9" class="edge">
<title>Node8&#45;&gt;Node9</title>
<path fill="none" stroke="midnightblue" d="M1017.51,-288.22C1042.65,-290.66 1071.19,-293.44 1095.23,-295.77"/>
<polygon fill="midnightblue" stroke="midnightblue" points="1094.95,-299.26 1105.24,-296.75 1095.63,-292.3 1094.95,-299.26"/>
</g>
<!-- Node10 -->
<g id="node10" class="node">
<title>Node10</title>
<g id="a_node10"><a xlink:href="curves_8cpp.html#a6d6def6a76701b08284cba58066e3382" target="_top" xlink:title=" ">
<polygon fill="white" stroke="black" points="1095,-253.5 1095,-272.5 1205,-272.5 1205,-253.5 1095,-253.5"/>
<text text-anchor="middle" x="1150" y="-260.5" font-family="Helvetica,sans-Serif" font-size="10.00">get_curve_point_at</text>
</a>
</g>
</g>
<!-- Node8&#45;&gt;Node10 -->
<g id="edge10" class="edge">
<title>Node8&#45;&gt;Node10</title>
<path fill="none" stroke="midnightblue" d="M1017.51,-275.78C1039.14,-273.68 1063.29,-271.33 1084.92,-269.23"/>
<polygon fill="midnightblue" stroke="midnightblue" points="1085.38,-272.7 1094.99,-268.25 1084.7,-265.73 1085.38,-272.7"/>
</g>
<!-- Node15&#45;&gt;Node8 -->
<g id="edge16" class="edge">
<title>Node15&#45;&gt;Node8</title>
<path fill="none" stroke="midnightblue" d="M774.18,-203.59C809.61,-219.26 880.07,-250.41 920.69,-268.38"/>
<polygon fill="midnightblue" stroke="midnightblue" points="919.29,-271.58 929.85,-272.43 922.12,-265.18 919.29,-271.58"/>
</g>
<!-- Node17&#45;&gt;Node5 -->
<g id="edge33" class="edge">
<title>Node17&#45;&gt;Node5</title>
<path fill="none" stroke="midnightblue" d="M288.74,-211.59C309.53,-216.6 335.16,-222.79 357.2,-228.11"/>
<polygon fill="midnightblue" stroke="midnightblue" points="356.5,-231.54 367.04,-230.48 358.14,-224.73 356.5,-231.54"/>
</g>
<!-- Node18 -->
<g id="node18" class="node">
<title>Node18</title>
<g id="a_node18"><a xlink:href="group__explorer_camera.html#ga8679d9b303f36964bf51dba0993caeaa" target="_top" xlink:title=" ">
<polygon fill="white" stroke="black" points="354.5,-192.5 354.5,-211.5 460.5,-211.5 460.5,-192.5 354.5,-192.5"/>
<text text-anchor="middle" x="407.5" y="-199.5" font-family="Helvetica,sans-Serif" font-size="10.00">env_load_defaults</text>
</a>
</g>
</g>
<!-- Node17&#45;&gt;Node18 -->
<g id="edge19" class="edge">
<title>Node17&#45;&gt;Node18</title>
<path fill="none" stroke="midnightblue" d="M312.15,-202C322.79,-202 333.82,-202 344.43,-202"/>
<polygon fill="midnightblue" stroke="midnightblue" points="344.44,-205.5 354.44,-202 344.44,-198.5 344.44,-205.5"/>
</g>
<!-- Node19 -->
<g id="node19" class="node">
<title>Node19</title>
<g id="a_node19"><a xlink:href="group__xml.html#gad700972f3f382c3cc5658ce95361ad0e" target="_top" xlink:title=" ">
<polygon fill="white" stroke="black" points="348,-57.5 348,-76.5 467,-76.5 467,-57.5 348,-57.5"/>
<text text-anchor="middle" x="407.5" y="-64.5" font-family="Helvetica,sans-Serif" font-size="10.00">operations_load_xml</text>
</a>
</g>
</g>
<!-- Node17&#45;&gt;Node19 -->
<g id="edge20" class="edge">
<title>Node17&#45;&gt;Node19</title>
<path fill="none" stroke="midnightblue" d="M260.33,-192.29C287.12,-169.33 354.6,-111.49 387.66,-83.15"/>
<polygon fill="midnightblue" stroke="midnightblue" points="389.96,-85.79 395.28,-76.62 385.41,-80.47 389.96,-85.79"/>
</g>
<!-- Node20 -->
<g id="node20" class="node">
<title>Node20</title>
<g id="a_node20"><a xlink:href="group___groups.html#ga2729bcb63525027c28b0107fe17d3a06" target="_top" xlink:title=" ">
<polygon fill="white" stroke="black" points="503,-76.5 503,-95.5 638,-95.5 638,-76.5 503,-76.5"/>
<text text-anchor="middle" x="570.5" y="-83.5" font-family="Helvetica,sans-Serif" font-size="10.00">operations_push_groups</text>
</a>
</g>
</g>
<!-- Node19&#45;&gt;Node20 -->
<g id="edge21" class="edge">
<title>Node19&#45;&gt;Node20</title>
<path fill="none" stroke="midnightblue" d="M467.08,-73.91C475.42,-74.9 484.09,-75.92 492.71,-76.94"/>
<polygon fill="midnightblue" stroke="midnightblue" points="492.44,-80.43 502.78,-78.13 493.26,-73.48 492.44,-80.43"/>
</g>
<!-- Node27 -->
<g id="node27" class="node">
<title>Node27</title>
<g id="a_node27"><a xlink:href="group___transforms.html#gaa8e01339ca5863980bb193197d4781e2" target="_top" xlink:title=" ">
<polygon fill="white" stroke="black" points="1260,-71 1260,-101 1410,-101 1410,-71 1260,-71"/>
<text text-anchor="start" x="1268" y="-89" font-family="Helvetica,sans-Serif" font-size="10.00">operations_push_transform</text>
<text text-anchor="middle" x="1335" y="-78" font-family="Helvetica,sans-Serif" font-size="10.00">_attributes</text>
</a>
</g>
</g>
<!-- Node19&#45;&gt;Node27 -->
<g id="edge32" class="edge">
<title>Node19&#45;&gt;Node27</title>
<path fill="none" stroke="midnightblue" d="M467.15,-61.76C535.22,-56.13 650.89,-48 750.5,-48 750.5,-48 750.5,-48 953.5,-48 1055.79,-48 1172.79,-61.77 1249.73,-72.73"/>
<polygon fill="midnightblue" stroke="midnightblue" points="1249.45,-76.22 1259.85,-74.18 1250.45,-69.29 1249.45,-76.22"/>
</g>
<!-- Node28 -->
<g id="node28" class="node">
<title>Node28</title>
<g id="a_node28"><a xlink:href="group__xml.html#gadda1aacffc4688669d0253cec56f849b" target="_top" xlink:title=" ">
<polygon fill="white" stroke="black" points="506,-0.5 506,-19.5 635,-19.5 635,-0.5 506,-0.5"/>
<text text-anchor="middle" x="570.5" y="-7.5" font-family="Helvetica,sans-Serif" font-size="10.00">operations_push_lights</text>
</a>
</g>
</g>
<!-- Node19&#45;&gt;Node28 -->
<g id="edge31" class="edge">
<title>Node19&#45;&gt;Node28</title>
<path fill="none" stroke="midnightblue" d="M435.45,-57.46C462.15,-48.01 503.24,-33.46 532.89,-22.96"/>
<polygon fill="midnightblue" stroke="midnightblue" points="534.21,-26.21 542.46,-19.57 531.87,-19.61 534.21,-26.21"/>
</g>
<!-- Node20&#45;&gt;Node20 -->
<g id="edge22" class="edge">
<title>Node20&#45;&gt;Node20</title>
<path fill="none" stroke="midnightblue" d="M545.53,-95.76C533.38,-104.57 541.71,-114 570.5,-114 589.85,-114 599.95,-109.74 600.81,-104.27"/>
<polygon fill="midnightblue" stroke="midnightblue" points="603.75,-102.37 595.47,-95.76 597.82,-106.09 603.75,-102.37"/>
</g>
<!-- Node21 -->
<g id="node21" class="node">
<title>Node21</title>
<g id="a_node21"><a xlink:href="group___models.html#gaf4f69faf6a2c6db692bd0f742c08ca17" target="_top" xlink:title=" ">
<polygon fill="white" stroke="black" points="682.5,-137.5 682.5,-156.5 820.5,-156.5 820.5,-137.5 682.5,-137.5"/>
<text text-anchor="middle" x="751.5" y="-144.5" font-family="Helvetica,sans-Serif" font-size="10.00">operations_push_models</text>
</a>
</g>
</g>
<!-- Node20&#45;&gt;Node21 -->
<g id="edge23" class="edge">
<title>Node20&#45;&gt;Node21</title>
<path fill="none" stroke="midnightblue" d="M599.47,-95.53C629.99,-105.93 679,-122.63 712.88,-134.18"/>
<polygon fill="midnightblue" stroke="midnightblue" points="711.84,-137.52 722.43,-137.44 714.1,-130.9 711.84,-137.52"/>
</g>
<!-- Node24 -->
<g id="node24" class="node">
<title>Node24</title>
<g id="a_node24"><a xlink:href="group___transforms.html#gab74408a65711c19872c69797a55c6229" target="_top" xlink:title=" ">
<polygon fill="white" stroke="black" points="674,-76.5 674,-95.5 829,-95.5 829,-76.5 674,-76.5"/>
<text text-anchor="middle" x="751.5" y="-83.5" font-family="Helvetica,sans-Serif" font-size="10.00">operations_push_transforms</text>
</a>
</g>
</g>
<!-- Node20&#45;&gt;Node24 -->
<g id="edge26" class="edge">
<title>Node20&#45;&gt;Node24</title>
<path fill="none" stroke="midnightblue" d="M638.15,-86C646.51,-86 655.16,-86 663.77,-86"/>
<polygon fill="midnightblue" stroke="midnightblue" points="663.84,-89.5 673.84,-86 663.84,-82.5 663.84,-89.5"/>
</g>
<!-- Node22 -->
<g id="node22" class="node">
<title>Node22</title>
<g id="a_node22"><a xlink:href="group___models.html#ga9c6066851b617631703c06b7aa6f72ac" target="_top" xlink:title=" ">
<polygon fill="white" stroke="black" points="886,-151.5 886,-170.5 1019,-170.5 1019,-151.5 886,-151.5"/>
<text text-anchor="middle" x="952.5" y="-158.5" font-family="Helvetica,sans-Serif" font-size="10.00">operations_push_model</text>
</a>
</g>
</g>
<!-- Node21&#45;&gt;Node22 -->
<g id="edge24" class="edge">
<title>Node21&#45;&gt;Node22</title>
<path fill="none" stroke="midnightblue" d="M820.71,-151.8C838.38,-153.04 857.51,-154.39 875.55,-155.66"/>
<polygon fill="midnightblue" stroke="midnightblue" points="875.52,-159.16 885.74,-156.37 876.01,-152.18 875.52,-159.16"/>
</g>
<!-- Node23 -->
<g id="node23" class="node">
<title>Node23</title>
<g id="a_node23"><a xlink:href="group___models.html#gaa31dcad7bd49e781068f4d5f42734e2a" target="_top" xlink:title=" ">
<polygon fill="white" stroke="black" points="1085,-164 1085,-194 1215,-194 1215,-164 1085,-164"/>
<text text-anchor="start" x="1093" y="-182" font-family="Helvetica,sans-Serif" font-size="10.00">operations_push_string</text>
<text text-anchor="middle" x="1150" y="-171" font-family="Helvetica,sans-Serif" font-size="10.00">_attribute</text>
</a>
</g>
</g>
<!-- Node22&#45;&gt;Node23 -->
<g id="edge25" class="edge">
<title>Node22&#45;&gt;Node23</title>
<path fill="none" stroke="midnightblue" d="M1019.14,-167.04C1037.02,-168.69 1056.51,-170.48 1074.82,-172.17"/>
<polygon fill="midnightblue" stroke="midnightblue" points="1074.58,-175.66 1084.86,-173.09 1075.22,-168.69 1074.58,-175.66"/>
</g>
<!-- Node25 -->
<g id="node25" class="node">
<title>Node25</title>
<g id="a_node25"><a xlink:href="group___transforms.html#ga9b8048838c7a406b93e9677dd9cb4373" target="_top" xlink:title=" ">
<polygon fill="white" stroke="black" points="865,-76.5 865,-95.5 1040,-95.5 1040,-76.5 865,-76.5"/>
<text text-anchor="middle" x="952.5" y="-83.5" font-family="Helvetica,sans-Serif" font-size="10.00">operations_push_transformation</text>
</a>
</g>
</g>
<!-- Node24&#45;&gt;Node25 -->
<g id="edge27" class="edge">
<title>Node24&#45;&gt;Node25</title>
<path fill="none" stroke="midnightblue" d="M829.15,-86C837.57,-86 846.23,-86 854.85,-86"/>
<polygon fill="midnightblue" stroke="midnightblue" points="854.94,-89.5 864.94,-86 854.94,-82.5 854.94,-89.5"/>
</g>
<!-- Node26 -->
<g id="node26" class="node">
<title>Node26</title>
<g id="a_node26"><a xlink:href="group___transforms.html#ga34490f49c910f6ad0b3b39d97ca6991f" target="_top" xlink:title=" ">
<polygon fill="white" stroke="black" points="1076,-115 1076,-145 1224,-145 1224,-115 1076,-115"/>
<text text-anchor="start" x="1084" y="-133" font-family="Helvetica,sans-Serif" font-size="10.00">operations_push_extended</text>
<text text-anchor="middle" x="1150" y="-122" font-family="Helvetica,sans-Serif" font-size="10.00">_translate_attributes</text>
</a>
</g>
</g>
<!-- Node25&#45;&gt;Node26 -->
<g id="edge28" class="edge">
<title>Node25&#45;&gt;Node26</title>
<path fill="none" stroke="midnightblue" d="M995.92,-95.55C1018.23,-100.57 1046.26,-106.88 1072.23,-112.72"/>
<polygon fill="midnightblue" stroke="midnightblue" points="1071.54,-116.15 1082.06,-114.93 1073.07,-109.32 1071.54,-116.15"/>
</g>
<!-- Node25&#45;&gt;Node27 -->
<g id="edge30" class="edge">
<title>Node25&#45;&gt;Node27</title>
<path fill="none" stroke="midnightblue" d="M1040.32,-86C1103.06,-86 1187.38,-86 1249.57,-86"/>
<polygon fill="midnightblue" stroke="midnightblue" points="1249.74,-89.5 1259.74,-86 1249.74,-82.5 1249.74,-89.5"/>
</g>
<!-- Node26&#45;&gt;Node27 -->
<g id="edge29" class="edge">
<title>Node26&#45;&gt;Node27</title>
<path fill="none" stroke="midnightblue" d="M1213.47,-114.98C1228.99,-111.25 1245.75,-107.22 1261.7,-103.38"/>
<polygon fill="midnightblue" stroke="midnightblue" points="1262.6,-106.77 1271.5,-101.03 1260.96,-99.96 1262.6,-106.77"/>
</g>
</g>
</svg>
