<?xml version="1.0" encoding="UTF-8" standalone="no"?>
<!DOCTYPE svg PUBLIC "-//W3C//DTD SVG 1.1//EN"
 "http://www.w3.org/Graphics/SVG/1.1/DTD/svg11.dtd">
<!-- Generated by graphviz version 3.0.0 (0)
 -->
<!-- Title: operations_push_groups Pages: 1 -->
<svg width="520pt" height="78pt"
 viewBox="0.00 0.00 520.00 77.50" xmlns="http://www.w3.org/2000/svg" xmlns:xlink="http://www.w3.org/1999/xlink">
<g id="graph0" class="graph" transform="scale(1 1) rotate(0) translate(4 73.5)">
<title>operations_push_groups</title>
<polygon fill="white" stroke="transparent" points="-4,4 -4,-73.5 516,-73.5 516,4 -4,4"/>
<!-- Node1 -->
<g id="node1" class="node">
<title>Node1</title>
<g id="a_node1"><a xlink:title=" ">
<polygon fill="#bfbfbf" stroke="black" points="0,-28 0,-47 135,-47 135,-28 0,-28"/>
<text text-anchor="middle" x="67.5" y="-35" font-family="Helvetica,sans-Serif" font-size="10.00">operations_push_groups</text>
</a>
</g>
</g>
<!-- Node1&#45;&gt;Node1 -->
<g id="edge1" class="edge">
<title>Node1&#45;&gt;Node1</title>
<path fill="none" stroke="midnightblue" d="M39.76,-47.26C26.26,-56.07 35.51,-65.5 67.5,-65.5 89.49,-65.5 100.74,-61.04 101.23,-55.39"/>
<polygon fill="midnightblue" stroke="midnightblue" points="103.99,-53.23 95.24,-47.26 98.35,-57.38 103.99,-53.23"/>
</g>
<!-- Node2 -->
<g id="node2" class="node">
<title>Node2</title>
<g id="a_node2"><a xlink:href="group___models.html#gaca17d77a06e750f5cd95c1b79e1a8a30" target="_top" xlink:title=" ">
<polygon fill="white" stroke="black" points="179.5,-48 179.5,-67 317.5,-67 317.5,-48 179.5,-48"/>
<text text-anchor="middle" x="248.5" y="-55" font-family="Helvetica,sans-Serif" font-size="10.00">operations_push_models</text>
</a>
</g>
</g>
<!-- Node1&#45;&gt;Node2 -->
<g id="edge2" class="edge">
<title>Node1&#45;&gt;Node2</title>
<path fill="none" stroke="midnightblue" d="M135.15,-44.95C146.3,-46.19 157.95,-47.49 169.36,-48.77"/>
<polygon fill="midnightblue" stroke="midnightblue" points="168.97,-52.25 179.3,-49.88 169.75,-45.29 168.97,-52.25"/>
</g>
<!-- Node4 -->
<g id="node4" class="node">
<title>Node4</title>
<g id="a_node4"><a xlink:href="group___transforms.html#gaaa78b92f0257bb4755731622692de0cb" target="_top" xlink:title=" ">
<polygon fill="white" stroke="black" points="171,-9 171,-28 326,-28 326,-9 171,-9"/>
<text text-anchor="middle" x="248.5" y="-16" font-family="Helvetica,sans-Serif" font-size="10.00">operations_push_transforms</text>
</a>
</g>
</g>
<!-- Node1&#45;&gt;Node4 -->
<g id="edge4" class="edge">
<title>Node1&#45;&gt;Node4</title>
<path fill="none" stroke="midnightblue" d="M135.15,-30.43C143.51,-29.54 152.16,-28.62 160.77,-27.71"/>
<polygon fill="midnightblue" stroke="midnightblue" points="161.26,-31.17 170.84,-26.64 160.52,-24.21 161.26,-31.17"/>
</g>
<!-- Node3 -->
<g id="node3" class="node">
<title>Node3</title>
<g id="a_node3"><a xlink:href="group___models.html#ga5dc84f3f40c0bb6ad63dc2da3793ddd9" target="_top" xlink:title=" ">
<polygon fill="white" stroke="black" points="370.5,-50 370.5,-69 503.5,-69 503.5,-50 370.5,-50"/>
<text text-anchor="middle" x="437" y="-57" font-family="Helvetica,sans-Serif" font-size="10.00">operations_push_model</text>
</a>
</g>
</g>
<!-- Node2&#45;&gt;Node3 -->
<g id="edge3" class="edge">
<title>Node2&#45;&gt;Node3</title>
<path fill="none" stroke="midnightblue" d="M317.62,-58.23C331.44,-58.38 346.05,-58.54 360.11,-58.69"/>
<polygon fill="midnightblue" stroke="midnightblue" points="360.2,-62.19 370.24,-58.79 360.28,-55.19 360.2,-62.19"/>
</g>
<!-- Node5 -->
<g id="node5" class="node">
<title>Node5</title>
<g id="a_node5"><a xlink:href="group___transforms.html#gaa15fe56d7980e7877845f3bc09125017" target="_top" xlink:title=" ">
<polygon fill="white" stroke="black" points="362,-0.5 362,-30.5 512,-30.5 512,-0.5 362,-0.5"/>
<text text-anchor="start" x="370" y="-18.5" font-family="Helvetica,sans-Serif" font-size="10.00">operations_push_transform</text>
<text text-anchor="middle" x="437" y="-7.5" font-family="Helvetica,sans-Serif" font-size="10.00">_attributes</text>
</a>
</g>
</g>
<!-- Node4&#45;&gt;Node5 -->
<g id="edge5" class="edge">
<title>Node4&#45;&gt;Node5</title>
<path fill="none" stroke="midnightblue" d="M326.16,-17.27C334.52,-17.13 343.06,-16.99 351.51,-16.86"/>
<polygon fill="midnightblue" stroke="midnightblue" points="351.8,-20.36 361.74,-16.69 351.68,-13.36 351.8,-20.36"/>
</g>
</g>
</svg>
