<?xml version="1.0" encoding="UTF-8" standalone="no"?>
<!DOCTYPE svg PUBLIC "-//W3C//DTD SVG 1.1//EN"
 "http://www.w3.org/Graphics/SVG/1.1/DTD/svg11.dtd">
<!-- Generated by graphviz version 3.0.0 (0)
 -->
<!-- Title: xml_load_and_set_env Pages: 1 -->
<svg width="1234pt" height="481pt"
 viewBox="0.00 0.00 1234.00 480.50" xmlns="http://www.w3.org/2000/svg" xmlns:xlink="http://www.w3.org/1999/xlink">
<g id="graph0" class="graph" transform="scale(1 1) rotate(0) translate(4 476.5)">
<title>xml_load_and_set_env</title>
<polygon fill="white" stroke="transparent" points="-4,4 -4,-476.5 1230,-476.5 1230,4 -4,4"/>
<!-- Node1 -->
<g id="node1" class="node">
<title>Node1</title>
<g id="a_node1"><a xlink:title=" ">
<polygon fill="#bfbfbf" stroke="black" points="0,-297.5 0,-316.5 128,-316.5 128,-297.5 0,-297.5"/>
<text text-anchor="middle" x="64" y="-304.5" font-family="Helvetica,sans-Serif" font-size="10.00">xml_load_and_set_env</text>
</a>
</g>
</g>
<!-- Node2 -->
<g id="node2" class="node">
<title>Node2</title>
<g id="a_node2"><a xlink:href="group__explorer_camera.html#ga8679d9b303f36964bf51dba0993caeaa" target="_top" xlink:title=" ">
<polygon fill="white" stroke="black" points="170.5,-335.5 170.5,-354.5 276.5,-354.5 276.5,-335.5 170.5,-335.5"/>
<text text-anchor="middle" x="223.5" y="-342.5" font-family="Helvetica,sans-Serif" font-size="10.00">env_load_defaults</text>
</a>
</g>
</g>
<!-- Node1&#45;&gt;Node2 -->
<g id="edge1" class="edge">
<title>Node1&#45;&gt;Node2</title>
<path fill="none" stroke="midnightblue" d="M104.74,-316.59C125.53,-321.6 151.16,-327.79 173.2,-333.11"/>
<polygon fill="midnightblue" stroke="midnightblue" points="172.5,-336.54 183.04,-335.48 174.14,-329.73 172.5,-336.54"/>
</g>
<!-- Node3 -->
<g id="node3" class="node">
<title>Node3</title>
<g id="a_node3"><a xlink:href="group__xml.html#gad700972f3f382c3cc5658ce95361ad0e" target="_top" xlink:title=" ">
<polygon fill="white" stroke="black" points="164,-297.5 164,-316.5 283,-316.5 283,-297.5 164,-297.5"/>
<text text-anchor="middle" x="223.5" y="-304.5" font-family="Helvetica,sans-Serif" font-size="10.00">operations_load_xml</text>
</a>
</g>
</g>
<!-- Node1&#45;&gt;Node3 -->
<g id="edge2" class="edge">
<title>Node1&#45;&gt;Node3</title>
<path fill="none" stroke="midnightblue" d="M128.15,-307C136.55,-307 145.19,-307 153.68,-307"/>
<polygon fill="midnightblue" stroke="midnightblue" points="153.93,-310.5 163.93,-307 153.93,-303.5 153.93,-310.5"/>
</g>
<!-- Node13 -->
<g id="node13" class="node">
<title>Node13</title>
<g id="a_node13"><a xlink:href="group___operations.html#ga8d5a19a3522cea1b4254684cf6515d13" target="_top" xlink:title=" ">
<polygon fill="white" stroke="black" points="171,-142.5 171,-161.5 276,-161.5 276,-142.5 171,-142.5"/>
<text text-anchor="middle" x="223.5" y="-149.5" font-family="Helvetica,sans-Serif" font-size="10.00">operations_render</text>
</a>
</g>
</g>
<!-- Node1&#45;&gt;Node13 -->
<g id="edge15" class="edge">
<title>Node1&#45;&gt;Node13</title>
<path fill="none" stroke="midnightblue" d="M74.85,-297.3C101.04,-271.53 172.6,-201.1 205.52,-168.71"/>
<polygon fill="midnightblue" stroke="midnightblue" points="207.98,-171.2 212.65,-161.69 203.07,-166.21 207.98,-171.2"/>
</g>
<!-- Node4 -->
<g id="node4" class="node">
<title>Node4</title>
<g id="a_node4"><a xlink:href="group___groups.html#ga2729bcb63525027c28b0107fe17d3a06" target="_top" xlink:title=" ">
<polygon fill="white" stroke="black" points="319,-368.5 319,-387.5 454,-387.5 454,-368.5 319,-368.5"/>
<text text-anchor="middle" x="386.5" y="-375.5" font-family="Helvetica,sans-Serif" font-size="10.00">operations_push_groups</text>
</a>
</g>
</g>
<!-- Node3&#45;&gt;Node4 -->
<g id="edge3" class="edge">
<title>Node3&#45;&gt;Node4</title>
<path fill="none" stroke="midnightblue" d="M257.01,-316.57C265.56,-319.35 274.71,-322.58 283,-326 309.75,-337.05 339.09,-352.27 359.5,-363.39"/>
<polygon fill="midnightblue" stroke="midnightblue" points="358.03,-366.57 368.47,-368.33 361.4,-360.44 358.03,-366.57"/>
</g>
<!-- Node11 -->
<g id="node11" class="node">
<title>Node11</title>
<g id="a_node11"><a xlink:href="group___transforms.html#gaa8e01339ca5863980bb193197d4781e2" target="_top" xlink:title=" ">
<polygon fill="white" stroke="black" points="1076,-349 1076,-379 1226,-379 1226,-349 1076,-349"/>
<text text-anchor="start" x="1084" y="-367" font-family="Helvetica,sans-Serif" font-size="10.00">operations_push_transform</text>
<text text-anchor="middle" x="1151" y="-356" font-family="Helvetica,sans-Serif" font-size="10.00">_attributes</text>
</a>
</g>
</g>
<!-- Node3&#45;&gt;Node11 -->
<g id="edge14" class="edge">
<title>Node3&#45;&gt;Node11</title>
<path fill="none" stroke="midnightblue" d="M283.15,-312.24C351.22,-317.87 466.89,-326 566.5,-326 566.5,-326 566.5,-326 769.5,-326 871.79,-326 988.79,-339.77 1065.73,-350.73"/>
<polygon fill="midnightblue" stroke="midnightblue" points="1065.45,-354.22 1075.85,-352.18 1066.45,-347.29 1065.45,-354.22"/>
</g>
<!-- Node12 -->
<g id="node12" class="node">
<title>Node12</title>
<g id="a_node12"><a xlink:href="group__xml.html#gadda1aacffc4688669d0253cec56f849b" target="_top" xlink:title=" ">
<polygon fill="white" stroke="black" points="322,-278.5 322,-297.5 451,-297.5 451,-278.5 322,-278.5"/>
<text text-anchor="middle" x="386.5" y="-285.5" font-family="Helvetica,sans-Serif" font-size="10.00">operations_push_lights</text>
</a>
</g>
</g>
<!-- Node3&#45;&gt;Node12 -->
<g id="edge13" class="edge">
<title>Node3&#45;&gt;Node12</title>
<path fill="none" stroke="midnightblue" d="M283.08,-300.09C292.42,-298.98 302.19,-297.83 311.83,-296.69"/>
<polygon fill="midnightblue" stroke="midnightblue" points="312.28,-300.17 321.8,-295.52 311.46,-293.21 312.28,-300.17"/>
</g>
<!-- Node4&#45;&gt;Node4 -->
<g id="edge4" class="edge">
<title>Node4&#45;&gt;Node4</title>
<path fill="none" stroke="midnightblue" d="M361.53,-387.76C349.38,-396.57 357.71,-406 386.5,-406 405.85,-406 415.95,-401.74 416.81,-396.27"/>
<polygon fill="midnightblue" stroke="midnightblue" points="419.75,-394.37 411.47,-387.76 413.82,-398.09 419.75,-394.37"/>
</g>
<!-- Node5 -->
<g id="node5" class="node">
<title>Node5</title>
<g id="a_node5"><a xlink:href="group___models.html#gaf4f69faf6a2c6db692bd0f742c08ca17" target="_top" xlink:title=" ">
<polygon fill="white" stroke="black" points="498.5,-420.5 498.5,-439.5 636.5,-439.5 636.5,-420.5 498.5,-420.5"/>
<text text-anchor="middle" x="567.5" y="-427.5" font-family="Helvetica,sans-Serif" font-size="10.00">operations_push_models</text>
</a>
</g>
</g>
<!-- Node4&#45;&gt;Node5 -->
<g id="edge5" class="edge">
<title>Node4&#45;&gt;Node5</title>
<path fill="none" stroke="midnightblue" d="M420.33,-387.54C449.38,-395.98 491.97,-408.35 523.69,-417.56"/>
<polygon fill="midnightblue" stroke="midnightblue" points="522.99,-421.01 533.57,-420.43 524.95,-414.28 522.99,-421.01"/>
</g>
<!-- Node8 -->
<g id="node8" class="node">
<title>Node8</title>
<g id="a_node8"><a xlink:href="group___transforms.html#gab74408a65711c19872c69797a55c6229" target="_top" xlink:title=" ">
<polygon fill="white" stroke="black" points="490,-368.5 490,-387.5 645,-387.5 645,-368.5 490,-368.5"/>
<text text-anchor="middle" x="567.5" y="-375.5" font-family="Helvetica,sans-Serif" font-size="10.00">operations_push_transforms</text>
</a>
</g>
</g>
<!-- Node4&#45;&gt;Node8 -->
<g id="edge8" class="edge">
<title>Node4&#45;&gt;Node8</title>
<path fill="none" stroke="midnightblue" d="M454.15,-378C462.51,-378 471.16,-378 479.77,-378"/>
<polygon fill="midnightblue" stroke="midnightblue" points="479.84,-381.5 489.84,-378 479.84,-374.5 479.84,-381.5"/>
</g>
<!-- Node6 -->
<g id="node6" class="node">
<title>Node6</title>
<g id="a_node6"><a xlink:href="group___models.html#ga9c6066851b617631703c06b7aa6f72ac" target="_top" xlink:title=" ">
<polygon fill="white" stroke="black" points="702,-433.5 702,-452.5 835,-452.5 835,-433.5 702,-433.5"/>
<text text-anchor="middle" x="768.5" y="-440.5" font-family="Helvetica,sans-Serif" font-size="10.00">operations_push_model</text>
</a>
</g>
</g>
<!-- Node5&#45;&gt;Node6 -->
<g id="edge6" class="edge">
<title>Node5&#45;&gt;Node6</title>
<path fill="none" stroke="midnightblue" d="M636.71,-434.46C654.38,-435.61 673.51,-436.86 691.55,-438.04"/>
<polygon fill="midnightblue" stroke="midnightblue" points="691.53,-441.54 701.74,-438.7 691.99,-434.56 691.53,-441.54"/>
</g>
<!-- Node7 -->
<g id="node7" class="node">
<title>Node7</title>
<g id="a_node7"><a xlink:href="group___models.html#gaa31dcad7bd49e781068f4d5f42734e2a" target="_top" xlink:title=" ">
<polygon fill="white" stroke="black" points="901,-442 901,-472 1031,-472 1031,-442 901,-442"/>
<text text-anchor="start" x="909" y="-460" font-family="Helvetica,sans-Serif" font-size="10.00">operations_push_string</text>
<text text-anchor="middle" x="966" y="-449" font-family="Helvetica,sans-Serif" font-size="10.00">_attribute</text>
</a>
</g>
</g>
<!-- Node6&#45;&gt;Node7 -->
<g id="edge7" class="edge">
<title>Node6&#45;&gt;Node7</title>
<path fill="none" stroke="midnightblue" d="M835.14,-447.7C853.02,-448.98 872.51,-450.38 890.82,-451.69"/>
<polygon fill="midnightblue" stroke="midnightblue" points="890.63,-455.18 900.86,-452.41 891.13,-448.2 890.63,-455.18"/>
</g>
<!-- Node9 -->
<g id="node9" class="node">
<title>Node9</title>
<g id="a_node9"><a xlink:href="group___transforms.html#ga9b8048838c7a406b93e9677dd9cb4373" target="_top" xlink:title=" ">
<polygon fill="white" stroke="black" points="681,-368.5 681,-387.5 856,-387.5 856,-368.5 681,-368.5"/>
<text text-anchor="middle" x="768.5" y="-375.5" font-family="Helvetica,sans-Serif" font-size="10.00">operations_push_transformation</text>
</a>
</g>
</g>
<!-- Node8&#45;&gt;Node9 -->
<g id="edge9" class="edge">
<title>Node8&#45;&gt;Node9</title>
<path fill="none" stroke="midnightblue" d="M645.15,-378C653.57,-378 662.23,-378 670.85,-378"/>
<polygon fill="midnightblue" stroke="midnightblue" points="670.94,-381.5 680.94,-378 670.94,-374.5 670.94,-381.5"/>
</g>
<!-- Node10 -->
<g id="node10" class="node">
<title>Node10</title>
<g id="a_node10"><a xlink:href="group___transforms.html#ga34490f49c910f6ad0b3b39d97ca6991f" target="_top" xlink:title=" ">
<polygon fill="white" stroke="black" points="892,-393 892,-423 1040,-423 1040,-393 892,-393"/>
<text text-anchor="start" x="900" y="-411" font-family="Helvetica,sans-Serif" font-size="10.00">operations_push_extended</text>
<text text-anchor="middle" x="966" y="-400" font-family="Helvetica,sans-Serif" font-size="10.00">_translate_attributes</text>
</a>
</g>
</g>
<!-- Node9&#45;&gt;Node10 -->
<g id="edge10" class="edge">
<title>Node9&#45;&gt;Node10</title>
<path fill="none" stroke="midnightblue" d="M831.63,-387.53C847.46,-389.96 864.74,-392.61 881.45,-395.18"/>
<polygon fill="midnightblue" stroke="midnightblue" points="881.35,-398.7 891.76,-396.76 882.41,-391.79 881.35,-398.7"/>
</g>
<!-- Node9&#45;&gt;Node11 -->
<g id="edge12" class="edge">
<title>Node9&#45;&gt;Node11</title>
<path fill="none" stroke="midnightblue" d="M856.32,-374.81C919.06,-372.5 1003.38,-369.39 1065.57,-367.11"/>
<polygon fill="midnightblue" stroke="midnightblue" points="1065.88,-370.6 1075.74,-366.73 1065.62,-363.6 1065.88,-370.6"/>
</g>
<!-- Node10&#45;&gt;Node11 -->
<g id="edge11" class="edge">
<title>Node10&#45;&gt;Node11</title>
<path fill="none" stroke="midnightblue" d="M1029.47,-392.98C1044.99,-389.25 1061.75,-385.22 1077.7,-381.38"/>
<polygon fill="midnightblue" stroke="midnightblue" points="1078.6,-384.77 1087.5,-379.03 1076.96,-377.96 1078.6,-384.77"/>
</g>
<!-- Node14 -->
<g id="node14" class="node">
<title>Node14</title>
<g id="a_node14"><a xlink:href="curves_8cpp.html#a821c8cbf0a47b918c60a4912b733e6bd" target="_top" xlink:title=" ">
<polygon fill="white" stroke="black" points="334.5,-240.5 334.5,-259.5 438.5,-259.5 438.5,-240.5 334.5,-240.5"/>
<text text-anchor="middle" x="386.5" y="-247.5" font-family="Helvetica,sans-Serif" font-size="10.00">advance_in_curve</text>
</a>
</g>
</g>
<!-- Node13&#45;&gt;Node14 -->
<g id="edge16" class="edge">
<title>Node13&#45;&gt;Node14</title>
<path fill="none" stroke="midnightblue" d="M233.19,-161.51C248.8,-178.03 283.29,-212.08 319,-231 323.28,-233.27 327.87,-235.3 332.56,-237.1"/>
<polygon fill="midnightblue" stroke="midnightblue" points="331.66,-240.49 342.26,-240.5 333.97,-233.89 331.66,-240.49"/>
</g>
<!-- Node19 -->
<g id="node19" class="node">
<title>Node19</title>
<g id="a_node19"><a xlink:href="engine_8cpp.html#a072c434cfd125e58ac1cec9a5725688a" target="_top" xlink:title=" ">
<polygon fill="white" stroke="black" points="328.5,-202.5 328.5,-221.5 444.5,-221.5 444.5,-202.5 328.5,-202.5"/>
<text text-anchor="middle" x="386.5" y="-209.5" font-family="Helvetica,sans-Serif" font-size="10.00">advance_in_rotation</text>
</a>
</g>
</g>
<!-- Node13&#45;&gt;Node19 -->
<g id="edge21" class="edge">
<title>Node13&#45;&gt;Node19</title>
<path fill="none" stroke="midnightblue" d="M244.47,-161.58C263.39,-170.43 292.73,-183.6 319,-193 325.46,-195.31 332.34,-197.54 339.14,-199.6"/>
<polygon fill="midnightblue" stroke="midnightblue" points="338.41,-203.03 348.99,-202.5 340.38,-196.32 338.41,-203.03"/>
</g>
<!-- Node20 -->
<g id="node20" class="node">
<title>Node20</title>
<g id="a_node20"><a xlink:href="group__model_engine.html#ga361bcac2814bb93f543d2c0f1b28b6d2" target="_top" xlink:title=" ">
<polygon fill="white" stroke="black" points="351.5,-164.5 351.5,-183.5 421.5,-183.5 421.5,-164.5 351.5,-164.5"/>
<text text-anchor="middle" x="386.5" y="-171.5" font-family="Helvetica,sans-Serif" font-size="10.00">allocModel</text>
</a>
</g>
</g>
<!-- Node13&#45;&gt;Node20 -->
<g id="edge22" class="edge">
<title>Node13&#45;&gt;Node20</title>
<path fill="none" stroke="midnightblue" d="M276.33,-159.08C297.15,-161.93 320.92,-165.17 340.95,-167.91"/>
<polygon fill="midnightblue" stroke="midnightblue" points="340.66,-171.41 351.04,-169.29 341.61,-164.47 340.66,-171.41"/>
</g>
<!-- Node21 -->
<g id="node21" class="node">
<title>Node21</title>
<g id="a_node21"><a xlink:href="group__model_engine.html#ga8c7329ae859a08eea53a77130ebe6018" target="_top" xlink:title=" ">
<polygon fill="white" stroke="black" points="329,-115 329,-145 444,-145 444,-115 329,-115"/>
<text text-anchor="start" x="337" y="-133" font-family="Helvetica,sans-Serif" font-size="10.00">associate_a_texture</text>
<text text-anchor="middle" x="386.5" y="-122" font-family="Helvetica,sans-Serif" font-size="10.00">_to_model</text>
</a>
</g>
</g>
<!-- Node13&#45;&gt;Node21 -->
<g id="edge23" class="edge">
<title>Node13&#45;&gt;Node21</title>
<path fill="none" stroke="midnightblue" d="M276.33,-144.92C289.79,-143.08 304.48,-141.07 318.6,-139.14"/>
<polygon fill="midnightblue" stroke="midnightblue" points="319.32,-142.58 328.76,-137.75 318.37,-135.64 319.32,-142.58"/>
</g>
<!-- Node22 -->
<g id="node22" class="node">
<title>Node22</title>
<g id="a_node22"><a xlink:href="group__explorer_camera.html#gabd434f65cba3ee8011b8d3cdd1f25dca" target="_top" xlink:title=" ">
<polygon fill="white" stroke="black" points="330,-76.5 330,-95.5 443,-95.5 443,-76.5 330,-76.5"/>
<text text-anchor="middle" x="386.5" y="-83.5" font-family="Helvetica,sans-Serif" font-size="10.00">cartesian2Spherical</text>
</a>
</g>
</g>
<!-- Node13&#45;&gt;Node22 -->
<g id="edge24" class="edge">
<title>Node13&#45;&gt;Node22</title>
<path fill="none" stroke="midnightblue" d="M241.89,-142.48C260.56,-132.52 291.3,-116.83 319,-106 325.79,-103.34 333.09,-100.83 340.27,-98.53"/>
<polygon fill="midnightblue" stroke="midnightblue" points="341.42,-101.84 349.94,-95.55 339.35,-95.15 341.42,-101.84"/>
</g>
<!-- Node23 -->
<g id="node23" class="node">
<title>Node23</title>
<g id="a_node23"><a xlink:href="curves_8cpp.html#ad812fc50a0384335487e258a6f61714e" target="_top" xlink:title=" ">
<polygon fill="white" stroke="black" points="529,-79.5 529,-98.5 606,-98.5 606,-79.5 529,-79.5"/>
<text text-anchor="middle" x="567.5" y="-86.5" font-family="Helvetica,sans-Serif" font-size="10.00">renderCurve</text>
</a>
</g>
</g>
<!-- Node13&#45;&gt;Node23 -->
<g id="edge25" class="edge">
<title>Node13&#45;&gt;Node23</title>
<path fill="none" stroke="midnightblue" d="M231.2,-142.45C245.02,-123.66 278.82,-82.41 319,-67 390.41,-39.61 481.61,-60.71 530.94,-76.27"/>
<polygon fill="midnightblue" stroke="midnightblue" points="529.93,-79.62 540.52,-79.39 532.1,-72.97 529.93,-79.62"/>
</g>
<!-- Node24 -->
<g id="node24" class="node">
<title>Node24</title>
<g id="a_node24"><a xlink:href="group__model_engine.html#ga2907e4adf4f2bef2c8ce416cb8470997" target="_top" xlink:title=" ">
<polygon fill="white" stroke="black" points="347.5,-0.5 347.5,-19.5 425.5,-19.5 425.5,-0.5 347.5,-0.5"/>
<text text-anchor="middle" x="386.5" y="-7.5" font-family="Helvetica,sans-Serif" font-size="10.00">renderModel</text>
</a>
</g>
</g>
<!-- Node13&#45;&gt;Node24 -->
<g id="edge27" class="edge">
<title>Node13&#45;&gt;Node24</title>
<path fill="none" stroke="midnightblue" d="M229.77,-142.25C242.31,-119.93 276.09,-64.69 319,-34 324.9,-29.78 331.63,-26.23 338.48,-23.26"/>
<polygon fill="midnightblue" stroke="midnightblue" points="339.81,-26.49 347.83,-19.57 337.24,-19.98 339.81,-26.49"/>
</g>
<!-- Node15 -->
<g id="node15" class="node">
<title>Node15</title>
<g id="a_node15"><a xlink:href="curves_8cpp.html#a98b26a4263f61db7149441a99a6d35b6" target="_top" xlink:title=" ">
<polygon fill="white" stroke="black" points="506,-158.5 506,-177.5 629,-177.5 629,-158.5 506,-158.5"/>
<text text-anchor="middle" x="567.5" y="-165.5" font-family="Helvetica,sans-Serif" font-size="10.00">align_global_pos_mat</text>
</a>
</g>
</g>
<!-- Node14&#45;&gt;Node15 -->
<g id="edge17" class="edge">
<title>Node14&#45;&gt;Node15</title>
<path fill="none" stroke="midnightblue" d="M426.7,-240.44C435.8,-237.77 445.35,-234.6 454,-231 486.19,-217.6 520.85,-197.19 543.06,-183.25"/>
<polygon fill="midnightblue" stroke="midnightblue" points="545.21,-186.03 551.78,-177.72 541.46,-180.13 545.21,-186.03"/>
</g>
<!-- Node16 -->
<g id="node16" class="node">
<title>Node16</title>
<g id="a_node16"><a xlink:href="curves_8cpp.html#abe9fa1f2a311f275f92f5b46fb2f8490" target="_top" xlink:title=" ">
<polygon fill="white" stroke="black" points="703.5,-139.5 703.5,-158.5 833.5,-158.5 833.5,-139.5 703.5,-139.5"/>
<text text-anchor="middle" x="768.5" y="-146.5" font-family="Helvetica,sans-Serif" font-size="10.00">get_curve_global_point</text>
</a>
</g>
</g>
<!-- Node15&#45;&gt;Node16 -->
<g id="edge18" class="edge">
<title>Node15&#45;&gt;Node16</title>
<path fill="none" stroke="midnightblue" d="M629.02,-162.22C649.26,-160.29 672.06,-158.11 693.23,-156.09"/>
<polygon fill="midnightblue" stroke="midnightblue" points="693.85,-159.55 703.47,-155.11 693.19,-152.58 693.85,-159.55"/>
</g>
<!-- Node17 -->
<g id="node17" class="node">
<title>Node17</title>
<g id="a_node17"><a xlink:href="curves_8cpp.html#afa648d7de8c941b50b26f02755a955b9" target="_top" xlink:title=" ">
<polygon fill="white" stroke="black" points="921.5,-158.5 921.5,-177.5 1010.5,-177.5 1010.5,-158.5 921.5,-158.5"/>
<text text-anchor="middle" x="966" y="-165.5" font-family="Helvetica,sans-Serif" font-size="10.00">get_curve_info</text>
</a>
</g>
</g>
<!-- Node16&#45;&gt;Node17 -->
<g id="edge19" class="edge">
<title>Node16&#45;&gt;Node17</title>
<path fill="none" stroke="midnightblue" d="M833.51,-155.22C858.65,-157.66 887.19,-160.44 911.23,-162.77"/>
<polygon fill="midnightblue" stroke="midnightblue" points="910.95,-166.26 921.24,-163.75 911.63,-159.3 910.95,-166.26"/>
</g>
<!-- Node18 -->
<g id="node18" class="node">
<title>Node18</title>
<g id="a_node18"><a xlink:href="curves_8cpp.html#a6d6def6a76701b08284cba58066e3382" target="_top" xlink:title=" ">
<polygon fill="white" stroke="black" points="911,-120.5 911,-139.5 1021,-139.5 1021,-120.5 911,-120.5"/>
<text text-anchor="middle" x="966" y="-127.5" font-family="Helvetica,sans-Serif" font-size="10.00">get_curve_point_at</text>
</a>
</g>
</g>
<!-- Node16&#45;&gt;Node18 -->
<g id="edge20" class="edge">
<title>Node16&#45;&gt;Node18</title>
<path fill="none" stroke="midnightblue" d="M833.51,-142.78C855.14,-140.68 879.29,-138.33 900.92,-136.23"/>
<polygon fill="midnightblue" stroke="midnightblue" points="901.38,-139.7 910.99,-135.25 900.7,-132.73 901.38,-139.7"/>
</g>
<!-- Node23&#45;&gt;Node16 -->
<g id="edge26" class="edge">
<title>Node23&#45;&gt;Node16</title>
<path fill="none" stroke="midnightblue" d="M600.03,-98.51C634.14,-108.79 688.65,-125.23 726.16,-136.54"/>
<polygon fill="midnightblue" stroke="midnightblue" points="725.2,-139.9 735.79,-139.44 727.22,-133.2 725.2,-139.9"/>
</g>
</g>
</svg>
