<?xml version="1.0" encoding="UTF-8" standalone="no"?>
<!DOCTYPE svg PUBLIC "-//W3C//DTD SVG 1.1//EN"
 "http://www.w3.org/Graphics/SVG/1.1/DTD/svg11.dtd">
<!-- Generated by graphviz version 3.0.0 (0)
 -->
<!-- Title: main Pages: 1 -->
<!--zoomable 408 -->
<svg id="main" version="1.1" xmlns="http://www.w3.org/2000/svg" xmlns:xlink="http://www.w3.org/1999/xlink" xml:space="preserve" onload="init(evt)">
<style type="text/css"><![CDATA[
.edge:hover path { stroke: red; }
.edge:hover polygon { stroke: red; fill: red; }
]]></style>
<script type="text/javascript"><![CDATA[
var edges = document.getElementsByTagName('g');
if (edges && edges.length) {
  for (var i=0;i<edges.length;i++) {
    if (edges[i].id.substr(0,4)=='edge') {
      edges[i].setAttribute('class','edge');
    }
  }
}
]]></script>
        <defs>
                <circle id="rim" cx="0" cy="0" r="7"/>
                <circle id="rim2" cx="0" cy="0" r="3.5"/>
                <g id="zoomPlus">
                        <use xlink:href="#rim" fill="#404040">
                                <set attributeName="fill" to="#808080" begin="zoomplus.mouseover" end="zoomplus.mouseout"/>
                        </use>
                        <path d="M-4,0h8M0,-4v8" fill="none" stroke="white" stroke-width="1.5" pointer-events="none"/>
                </g>
                <g id="zoomMin">
                        <use xlink:href="#rim" fill="#404040">
                                <set attributeName="fill" to="#808080" begin="zoomminus.mouseover" end="zoomminus.mouseout"/>
                        </use>
                        <path d="M-4,0h8" fill="none" stroke="white" stroke-width="1.5" pointer-events="none"/>
                </g>
                <g id="dirArrow">
                        <path fill="none" stroke="white" stroke-width="1.5" d="M0,-3.0v7 M-2.5,-0.5L0,-3.0L2.5,-0.5"/>
                </g>
               <g id="resetDef">
                       <use xlink:href="#rim2" fill="#404040">
                               <set attributeName="fill" to="#808080" begin="reset.mouseover" end="reset.mouseout"/>
                       </use>
               </g>
        </defs>

<script type="text/javascript">
var viewWidth = 1418;
var viewHeight = 408;
var sectionId = 'dynsection-5';
</script>
<script xlink:href="svgpan.js"/>
<svg id="graph" class="graph">
<g id="viewport">
<title>main</title>
<polygon fill="white" stroke="transparent" points="-4,4 -4,-404 1414,-404 1414,4 -4,4"/>
<!-- Node1 -->
<g id="node1" class="node">
<title>Node1</title>
<g id="a_node1"><a xlink:title=" ">
<polygon fill="#bfbfbf" stroke="black" points="0,-152.5 0,-171.5 41,-171.5 41,-152.5 0,-152.5"/>
<text text-anchor="middle" x="20.5" y="-159.5" font-family="Helvetica,sans-Serif" font-size="10.00">main</text>
</a>
</g>
</g>
<!-- Node2 -->
<g id="node2" class="node">
<title>Node2</title>
<g id="a_node2"><a xlink:href="group__engine.html#ga98eaf946471acbd931de5d52ca83b3d1" target="_top" xlink:title=" ">
<polygon fill="white" stroke="black" points="77,-152.5 77,-171.5 148,-171.5 148,-152.5 77,-152.5"/>
<text text-anchor="middle" x="112.5" y="-159.5" font-family="Helvetica,sans-Serif" font-size="10.00">engine_run</text>
</a>
</g>
</g>
<!-- Node1&#45;&gt;Node2 -->
<g id="edge1" class="edge">
<title>Node1&#45;&gt;Node2</title>
<path fill="none" stroke="midnightblue" d="M41.03,-162C48.62,-162 57.64,-162 66.66,-162"/>
<polygon fill="midnightblue" stroke="midnightblue" points="66.77,-165.5 76.77,-162 66.77,-158.5 66.77,-165.5"/>
</g>
<!-- Node3 -->
<g id="node3" class="node">
<title>Node3</title>
<g id="a_node3"><a xlink:href="group__engine.html#ga33e20b37682a0492a9e95d13bef17f02" target="_top" xlink:title=" ">
<polygon fill="white" stroke="black" points="212,-247.5 212,-266.5 284,-266.5 284,-247.5 212,-247.5"/>
<text text-anchor="middle" x="248" y="-254.5" font-family="Helvetica,sans-Serif" font-size="10.00">changeSize</text>
</a>
</g>
</g>
<!-- Node2&#45;&gt;Node3 -->
<g id="edge2" class="edge">
<title>Node2&#45;&gt;Node3</title>
<path fill="none" stroke="midnightblue" d="M119.88,-171.7C130.99,-187.84 155.45,-220.18 184,-238 189.53,-241.45 195.73,-244.31 202.02,-246.67"/>
<polygon fill="midnightblue" stroke="midnightblue" points="201.31,-250.12 211.91,-249.97 203.53,-243.48 201.31,-250.12"/>
</g>
<!-- Node4 -->
<g id="node4" class="node">
<title>Node4</title>
<g id="a_node4"><a xlink:href="group__input.html#gac7632fff72011e8c11ae504a4596a7f7" target="_top" xlink:title=" ">
<polygon fill="white" stroke="black" points="206,-171.5 206,-190.5 290,-190.5 290,-171.5 206,-171.5"/>
<text text-anchor="middle" x="248" y="-178.5" font-family="Helvetica,sans-Serif" font-size="10.00">keyboardFunc</text>
</a>
</g>
</g>
<!-- Node2&#45;&gt;Node4 -->
<g id="edge3" class="edge">
<title>Node2&#45;&gt;Node4</title>
<path fill="none" stroke="midnightblue" d="M148.23,-166.94C162.68,-169 179.75,-171.43 195.6,-173.68"/>
<polygon fill="midnightblue" stroke="midnightblue" points="195.41,-177.19 205.8,-175.14 196.4,-170.26 195.41,-177.19"/>
</g>
<!-- Node8 -->
<g id="node8" class="node">
<title>Node8</title>
<g id="a_node8"><a xlink:href="group__input.html#ga2bebb17428cb218231ad556de2a20ed6" target="_top" xlink:title=" ">
<polygon fill="white" stroke="black" points="211,-133.5 211,-152.5 285,-152.5 285,-133.5 211,-133.5"/>
<text text-anchor="middle" x="248" y="-140.5" font-family="Helvetica,sans-Serif" font-size="10.00">motionFunc</text>
</a>
</g>
</g>
<!-- Node2&#45;&gt;Node8 -->
<g id="edge7" class="edge">
<title>Node2&#45;&gt;Node8</title>
<path fill="none" stroke="midnightblue" d="M148.23,-157.06C164.09,-154.8 183.12,-152.09 200.23,-149.66"/>
<polygon fill="midnightblue" stroke="midnightblue" points="201.17,-153.06 210.58,-148.18 200.19,-146.13 201.17,-153.06"/>
</g>
<!-- Node9 -->
<g id="node9" class="node">
<title>Node9</title>
<g id="a_node9"><a xlink:href="group__input.html#gad48076b61c0ddb6bd4fadf644bf59ff1" target="_top" xlink:title=" ">
<polygon fill="white" stroke="black" points="212,-95.5 212,-114.5 284,-114.5 284,-95.5 212,-95.5"/>
<text text-anchor="middle" x="248" y="-102.5" font-family="Helvetica,sans-Serif" font-size="10.00">mouseFunc</text>
</a>
</g>
</g>
<!-- Node2&#45;&gt;Node9 -->
<g id="edge9" class="edge">
<title>Node2&#45;&gt;Node9</title>
<path fill="none" stroke="midnightblue" d="M129.01,-152.46C143.01,-144.14 164.35,-132.16 184,-124 189.82,-121.58 196.05,-119.33 202.25,-117.27"/>
<polygon fill="midnightblue" stroke="midnightblue" points="203.42,-120.57 211.9,-114.22 201.31,-113.9 203.42,-120.57"/>
</g>
<!-- Node10 -->
<g id="node10" class="node">
<title>Node10</title>
<g id="a_node10"><a xlink:href="group__engine.html#ga91c42686f3245f22fb6b17ba5372d92c" target="_top" xlink:title=" ">
<polygon fill="white" stroke="black" points="209.5,-57.5 209.5,-76.5 286.5,-76.5 286.5,-57.5 209.5,-57.5"/>
<text text-anchor="middle" x="248" y="-64.5" font-family="Helvetica,sans-Serif" font-size="10.00">renderScene</text>
</a>
</g>
</g>
<!-- Node2&#45;&gt;Node10 -->
<g id="edge11" class="edge">
<title>Node2&#45;&gt;Node10</title>
<path fill="none" stroke="midnightblue" d="M119.88,-152.3C130.99,-136.16 155.45,-103.82 184,-86 188.79,-83.01 194.07,-80.47 199.48,-78.32"/>
<polygon fill="midnightblue" stroke="midnightblue" points="201.02,-81.48 209.28,-74.84 198.68,-74.89 201.02,-81.48"/>
</g>
<!-- Node25 -->
<g id="node25" class="node">
<title>Node25</title>
<g id="a_node25"><a xlink:href="group__engine.html#ga2b6a8884687b3fe271b099a450a82d24" target="_top" xlink:title=" ">
<polygon fill="white" stroke="black" points="184,-209.5 184,-228.5 312,-228.5 312,-209.5 184,-209.5"/>
<text text-anchor="middle" x="248" y="-216.5" font-family="Helvetica,sans-Serif" font-size="10.00">xml_load_and_set_env</text>
</a>
</g>
</g>
<!-- Node2&#45;&gt;Node25 -->
<g id="edge28" class="edge">
<title>Node2&#45;&gt;Node25</title>
<path fill="none" stroke="midnightblue" d="M129.01,-171.54C143.01,-179.86 164.35,-191.84 184,-200 189.47,-202.27 195.32,-204.41 201.16,-206.36"/>
<polygon fill="midnightblue" stroke="midnightblue" points="200.32,-209.77 210.91,-209.48 202.45,-203.1 200.32,-209.77"/>
</g>
<!-- Node5 -->
<g id="node5" class="node">
<title>Node5</title>
<g id="a_node5"><a xlink:href="group__engine.html#ga8679d9b303f36964bf51dba0993caeaa" target="_top" xlink:title=" ">
<polygon fill="white" stroke="black" points="354.5,-200.5 354.5,-219.5 460.5,-219.5 460.5,-200.5 354.5,-200.5"/>
<text text-anchor="middle" x="407.5" y="-207.5" font-family="Helvetica,sans-Serif" font-size="10.00">env_load_defaults</text>
</a>
</g>
</g>
<!-- Node4&#45;&gt;Node5 -->
<g id="edge4" class="edge">
<title>Node4&#45;&gt;Node5</title>
<path fill="none" stroke="midnightblue" d="M290.38,-188.62C306.99,-191.68 326.49,-195.27 344.72,-198.62"/>
<polygon fill="midnightblue" stroke="midnightblue" points="344.21,-202.09 354.68,-200.46 345.48,-195.21 344.21,-202.09"/>
</g>
<!-- Node6 -->
<g id="node6" class="node">
<title>Node6</title>
<g id="a_node6"><a xlink:href="group__engine.html#gab9813926390dc5773baf0b20dc2ea16e" target="_top" xlink:title=" ">
<polygon fill="white" stroke="black" points="376.5,-95.5 376.5,-114.5 438.5,-114.5 438.5,-95.5 376.5,-95.5"/>
<text text-anchor="middle" x="407.5" y="-102.5" font-family="Helvetica,sans-Serif" font-size="10.00">redisplay</text>
</a>
</g>
</g>
<!-- Node4&#45;&gt;Node6 -->
<g id="edge5" class="edge">
<title>Node4&#45;&gt;Node6</title>
<path fill="none" stroke="midnightblue" d="M286.21,-171.46C294.83,-168.79 303.86,-165.62 312,-162 326.15,-155.72 360.07,-134.67 383.18,-119.99"/>
<polygon fill="midnightblue" stroke="midnightblue" points="385.19,-122.85 391.74,-114.53 381.43,-116.95 385.19,-122.85"/>
</g>
<!-- Node7 -->
<g id="node7" class="node">
<title>Node7</title>
<g id="a_node7"><a xlink:href="group__spherical.html#gab5ff5216bffd1e15798677f24213213d" target="_top" xlink:title=" ">
<polygon fill="white" stroke="black" points="514,-0.5 514,-19.5 627,-19.5 627,-0.5 514,-0.5"/>
<text text-anchor="middle" x="570.5" y="-7.5" font-family="Helvetica,sans-Serif" font-size="10.00">spherical2Cartesian</text>
</a>
</g>
</g>
<!-- Node6&#45;&gt;Node7 -->
<g id="edge6" class="edge">
<title>Node6&#45;&gt;Node7</title>
<path fill="none" stroke="midnightblue" d="M438.7,-99.47C448.44,-96.62 458.82,-92.36 467,-86 490.66,-67.61 479.02,-46.96 503,-29 505.51,-27.12 508.21,-25.42 511.02,-23.89"/>
<polygon fill="midnightblue" stroke="midnightblue" points="512.73,-26.95 520.32,-19.56 509.78,-20.61 512.73,-26.95"/>
</g>
<!-- Node8&#45;&gt;Node6 -->
<g id="edge8" class="edge">
<title>Node8&#45;&gt;Node6</title>
<path fill="none" stroke="midnightblue" d="M285.13,-134.28C309.4,-128.43 341.39,-120.71 366.44,-114.67"/>
<polygon fill="midnightblue" stroke="midnightblue" points="367.45,-118.02 376.35,-112.27 365.81,-111.22 367.45,-118.02"/>
</g>
<!-- Node9&#45;&gt;Node6 -->
<g id="edge10" class="edge">
<title>Node9&#45;&gt;Node6</title>
<path fill="none" stroke="midnightblue" d="M284.35,-105C308.66,-105 341,-105 366.29,-105"/>
<polygon fill="midnightblue" stroke="midnightblue" points="366.31,-108.5 376.31,-105 366.31,-101.5 366.31,-108.5"/>
</g>
<!-- Node10&#45;&gt;Node6 -->
<g id="edge26" class="edge">
<title>Node10&#45;&gt;Node6</title>
<path fill="none" stroke="midnightblue" d="M286.73,-76.1C310.88,-81.93 342.18,-89.48 366.73,-95.4"/>
<polygon fill="midnightblue" stroke="midnightblue" points="365.91,-98.81 376.45,-97.75 367.55,-92 365.91,-98.81"/>
</g>
<!-- Node11 -->
<g id="node11" class="node">
<title>Node11</title>
<g id="a_node11"><a xlink:href="engine_8cpp.html#a634dba686e70e7ff3f10c37d11f463da" target="_top" xlink:title=" ">
<polygon fill="white" stroke="black" points="373,-57.5 373,-76.5 442,-76.5 442,-57.5 373,-57.5"/>
<text text-anchor="middle" x="407.5" y="-64.5" font-family="Helvetica,sans-Serif" font-size="10.00">draw_axes</text>
</a>
</g>
</g>
<!-- Node10&#45;&gt;Node11 -->
<g id="edge12" class="edge">
<title>Node10&#45;&gt;Node11</title>
<path fill="none" stroke="midnightblue" d="M286.73,-67C309.56,-67 338.77,-67 362.63,-67"/>
<polygon fill="midnightblue" stroke="midnightblue" points="362.83,-70.5 372.83,-67 362.83,-63.5 362.83,-70.5"/>
</g>
<!-- Node12 -->
<g id="node12" class="node">
<title>Node12</title>
<g id="a_node12"><a xlink:href="group___operations.html#ga887f20c10a27832ea24178203a47fcc2" target="_top" xlink:title=" ">
<polygon fill="white" stroke="black" points="355,-152.5 355,-171.5 460,-171.5 460,-152.5 355,-152.5"/>
<text text-anchor="middle" x="407.5" y="-159.5" font-family="Helvetica,sans-Serif" font-size="10.00">operations_render</text>
</a>
</g>
</g>
<!-- Node10&#45;&gt;Node12 -->
<g id="edge13" class="edge">
<title>Node10&#45;&gt;Node12</title>
<path fill="none" stroke="midnightblue" d="M286.69,-74.89C295.38,-77.64 304.32,-81.26 312,-86 331.8,-98.21 330.12,-109.12 348,-124 358.15,-132.45 370.27,-140.6 380.84,-147.17"/>
<polygon fill="midnightblue" stroke="midnightblue" points="379.27,-150.31 389.64,-152.5 382.9,-144.32 379.27,-150.31"/>
</g>
<!-- Node24 -->
<g id="node24" class="node">
<title>Node24</title>
<g id="a_node24"><a xlink:href="group__engine.html#gaf049ec1caddd7a032fc8b48641e12f1e" target="_top" xlink:title=" ">
<polygon fill="white" stroke="black" points="355.5,-19.5 355.5,-38.5 459.5,-38.5 459.5,-19.5 355.5,-19.5"/>
<text text-anchor="middle" x="407.5" y="-26.5" font-family="Helvetica,sans-Serif" font-size="10.00">renderGreenPlane</text>
</a>
</g>
</g>
<!-- Node10&#45;&gt;Node24 -->
<g id="edge27" class="edge">
<title>Node10&#45;&gt;Node24</title>
<path fill="none" stroke="midnightblue" d="M286.73,-57.9C307.81,-52.81 334.34,-46.41 357.07,-40.93"/>
<polygon fill="midnightblue" stroke="midnightblue" points="357.98,-44.31 366.88,-38.56 356.34,-37.5 357.98,-44.31"/>
</g>
<!-- Node13 -->
<g id="node13" class="node">
<title>Node13</title>
<g id="a_node13"><a xlink:href="curves_8cpp.html#af213e79ca700e91ea886085a4149a848" target="_top" xlink:title=" ">
<polygon fill="white" stroke="black" points="518.5,-228.5 518.5,-247.5 622.5,-247.5 622.5,-228.5 518.5,-228.5"/>
<text text-anchor="middle" x="570.5" y="-235.5" font-family="Helvetica,sans-Serif" font-size="10.00">advance_in_curve</text>
</a>
</g>
</g>
<!-- Node12&#45;&gt;Node13 -->
<g id="edge14" class="edge">
<title>Node12&#45;&gt;Node13</title>
<path fill="none" stroke="midnightblue" d="M430.46,-171.6C441.68,-176.83 455.38,-183.71 467,-191 484.17,-201.78 484.93,-209.83 503,-219 507.5,-221.28 512.32,-223.33 517.23,-225.16"/>
<polygon fill="midnightblue" stroke="midnightblue" points="516.12,-228.48 526.71,-228.4 518.38,-221.85 516.12,-228.48"/>
</g>
<!-- Node18 -->
<g id="node18" class="node">
<title>Node18</title>
<g id="a_node18"><a xlink:href="engine_8cpp.html#a072c434cfd125e58ac1cec9a5725688a" target="_top" xlink:title=" ">
<polygon fill="white" stroke="black" points="512.5,-190.5 512.5,-209.5 628.5,-209.5 628.5,-190.5 512.5,-190.5"/>
<text text-anchor="middle" x="570.5" y="-197.5" font-family="Helvetica,sans-Serif" font-size="10.00">advance_in_rotation</text>
</a>
</g>
</g>
<!-- Node12&#45;&gt;Node18 -->
<g id="edge19" class="edge">
<title>Node12&#45;&gt;Node18</title>
<path fill="none" stroke="midnightblue" d="M449.13,-171.59C470.47,-176.63 496.81,-182.84 519.41,-188.18"/>
<polygon fill="midnightblue" stroke="midnightblue" points="518.63,-191.59 529.17,-190.48 520.24,-184.78 518.63,-191.59"/>
</g>
<!-- Node19 -->
<g id="node19" class="node">
<title>Node19</title>
<g id="a_node19"><a xlink:href="group__model_engine.html#ga56beba311d0a6fcbda9aeb516fe67f8f" target="_top" xlink:title=" ">
<polygon fill="white" stroke="black" points="535.5,-152.5 535.5,-171.5 605.5,-171.5 605.5,-152.5 535.5,-152.5"/>
<text text-anchor="middle" x="570.5" y="-159.5" font-family="Helvetica,sans-Serif" font-size="10.00">allocModel</text>
</a>
</g>
</g>
<!-- Node12&#45;&gt;Node19 -->
<g id="edge20" class="edge">
<title>Node12&#45;&gt;Node19</title>
<path fill="none" stroke="midnightblue" d="M460.33,-162C481.15,-162 504.92,-162 524.95,-162"/>
<polygon fill="midnightblue" stroke="midnightblue" points="525.04,-165.5 535.04,-162 525.04,-158.5 525.04,-165.5"/>
</g>
<!-- Node20 -->
<g id="node20" class="node">
<title>Node20</title>
<g id="a_node20"><a xlink:href="group__spherical.html#ga2a22d15f7463ccd8f8d1aa65e7578983" target="_top" xlink:title=" ">
<polygon fill="white" stroke="black" points="514,-114.5 514,-133.5 627,-133.5 627,-114.5 514,-114.5"/>
<text text-anchor="middle" x="570.5" y="-121.5" font-family="Helvetica,sans-Serif" font-size="10.00">cartesian2Spherical</text>
</a>
</g>
</g>
<!-- Node12&#45;&gt;Node20 -->
<g id="edge21" class="edge">
<title>Node12&#45;&gt;Node20</title>
<path fill="none" stroke="midnightblue" d="M449.13,-152.41C470.47,-147.37 496.81,-141.16 519.41,-135.82"/>
<polygon fill="midnightblue" stroke="midnightblue" points="520.24,-139.22 529.17,-133.52 518.63,-132.41 520.24,-139.22"/>
</g>
<!-- Node21 -->
<g id="node21" class="node">
<title>Node21</title>
<g id="a_node21"><a xlink:href="curves_8cpp.html#ad812fc50a0384335487e258a6f61714e" target="_top" xlink:title=" ">
<polygon fill="white" stroke="black" points="713,-266.5 713,-285.5 790,-285.5 790,-266.5 713,-266.5"/>
<text text-anchor="middle" x="751.5" y="-273.5" font-family="Helvetica,sans-Serif" font-size="10.00">renderCurve</text>
</a>
</g>
</g>
<!-- Node12&#45;&gt;Node21 -->
<g id="edge22" class="edge">
<title>Node12&#45;&gt;Node21</title>
<path fill="none" stroke="midnightblue" d="M436.3,-171.62C446.82,-176.27 458.34,-182.67 467,-191 491.08,-214.16 474.94,-238.86 503,-257 563.05,-295.83 649.24,-292.31 702.45,-285.02"/>
<polygon fill="midnightblue" stroke="midnightblue" points="703.25,-288.44 712.64,-283.52 702.24,-281.51 703.25,-288.44"/>
</g>
<!-- Node22 -->
<g id="node22" class="node">
<title>Node22</title>
<g id="a_node22"><a xlink:href="group__model_engine.html#gae7de75a0850ac9069b4a3710b63a102c" target="_top" xlink:title=" ">
<polygon fill="white" stroke="black" points="531.5,-76.5 531.5,-95.5 609.5,-95.5 609.5,-76.5 531.5,-76.5"/>
<text text-anchor="middle" x="570.5" y="-83.5" font-family="Helvetica,sans-Serif" font-size="10.00">renderModel</text>
</a>
</g>
</g>
<!-- Node12&#45;&gt;Node22 -->
<g id="edge24" class="edge">
<title>Node12&#45;&gt;Node22</title>
<path fill="none" stroke="midnightblue" d="M423.25,-152.45C445.54,-138.12 486.93,-112 503,-105 508.85,-102.45 515.14,-100.14 521.43,-98.08"/>
<polygon fill="midnightblue" stroke="midnightblue" points="522.74,-101.35 531.26,-95.06 520.67,-94.66 522.74,-101.35"/>
</g>
<!-- Node23 -->
<g id="node23" class="node">
<title>Node23</title>
<g id="a_node23"><a xlink:href="group__engine.html#ga260fbd3d70764684657bbf1a617ddf99" target="_top" xlink:title=" ">
<polygon fill="white" stroke="black" points="533.5,-38.5 533.5,-57.5 607.5,-57.5 607.5,-38.5 533.5,-38.5"/>
<text text-anchor="middle" x="570.5" y="-45.5" font-family="Helvetica,sans-Serif" font-size="10.00">vbo_indices</text>
</a>
</g>
</g>
<!-- Node12&#45;&gt;Node23 -->
<g id="edge25" class="edge">
<title>Node12&#45;&gt;Node23</title>
<path fill="none" stroke="midnightblue" d="M427.65,-152.35C439.87,-145.57 455.51,-135.63 467,-124 488.05,-102.68 479.02,-84.96 503,-67 509.08,-62.45 516.21,-58.98 523.51,-56.35"/>
<polygon fill="midnightblue" stroke="midnightblue" points="524.97,-59.56 533.48,-53.25 522.89,-52.88 524.97,-59.56"/>
</g>
<!-- Node14 -->
<g id="node14" class="node">
<title>Node14</title>
<g id="a_node14"><a xlink:href="curves_8cpp.html#aca4aaefe66ab2cbc9d44054ab8929c0d" target="_top" xlink:title=" ">
<polygon fill="white" stroke="black" points="690,-228.5 690,-247.5 813,-247.5 813,-228.5 690,-228.5"/>
<text text-anchor="middle" x="751.5" y="-235.5" font-family="Helvetica,sans-Serif" font-size="10.00">align_global_pos_mat</text>
</a>
</g>
</g>
<!-- Node13&#45;&gt;Node14 -->
<g id="edge15" class="edge">
<title>Node13&#45;&gt;Node14</title>
<path fill="none" stroke="midnightblue" d="M622.79,-238C640.48,-238 660.62,-238 679.6,-238"/>
<polygon fill="midnightblue" stroke="midnightblue" points="679.69,-241.5 689.69,-238 679.69,-234.5 679.69,-241.5"/>
</g>
<!-- Node15 -->
<g id="node15" class="node">
<title>Node15</title>
<g id="a_node15"><a xlink:href="curves_8cpp.html#abe9fa1f2a311f275f92f5b46fb2f8490" target="_top" xlink:title=" ">
<polygon fill="white" stroke="black" points="887.5,-247.5 887.5,-266.5 1017.5,-266.5 1017.5,-247.5 887.5,-247.5"/>
<text text-anchor="middle" x="952.5" y="-254.5" font-family="Helvetica,sans-Serif" font-size="10.00">get_curve_global_point</text>
</a>
</g>
</g>
<!-- Node14&#45;&gt;Node15 -->
<g id="edge16" class="edge">
<title>Node14&#45;&gt;Node15</title>
<path fill="none" stroke="midnightblue" d="M813.02,-243.78C833.26,-245.71 856.06,-247.89 877.23,-249.91"/>
<polygon fill="midnightblue" stroke="midnightblue" points="877.19,-253.42 887.47,-250.89 877.85,-246.45 877.19,-253.42"/>
</g>
<!-- Node16 -->
<g id="node16" class="node">
<title>Node16</title>
<g id="a_node16"><a xlink:href="curves_8cpp.html#af68f8da25ecf53c589aa5d47f1f8e164" target="_top" xlink:title=" ">
<polygon fill="white" stroke="black" points="1117.5,-257.5 1117.5,-276.5 1182.5,-276.5 1182.5,-257.5 1117.5,-257.5"/>
<text text-anchor="middle" x="1150" y="-264.5" font-family="Helvetica,sans-Serif" font-size="10.00">get_curve</text>
</a>
</g>
</g>
<!-- Node15&#45;&gt;Node16 -->
<g id="edge17" class="edge">
<title>Node15&#45;&gt;Node16</title>
<path fill="none" stroke="midnightblue" d="M1017.51,-260.27C1046.97,-261.78 1081.09,-263.53 1107.19,-264.86"/>
<polygon fill="midnightblue" stroke="midnightblue" points="1107.33,-268.37 1117.49,-265.39 1107.68,-261.38 1107.33,-268.37"/>
</g>
<!-- Node17 -->
<g id="node17" class="node">
<title>Node17</title>
<g id="a_node17"><a xlink:href="curves_8cpp.html#afa648d7de8c941b50b26f02755a955b9" target="_top" xlink:title=" ">
<polygon fill="white" stroke="black" points="1105.5,-219.5 1105.5,-238.5 1194.5,-238.5 1194.5,-219.5 1105.5,-219.5"/>
<text text-anchor="middle" x="1150" y="-226.5" font-family="Helvetica,sans-Serif" font-size="10.00">get_curve_info</text>
</a>
</g>
</g>
<!-- Node15&#45;&gt;Node17 -->
<g id="edge18" class="edge">
<title>Node15&#45;&gt;Node17</title>
<path fill="none" stroke="midnightblue" d="M1017.51,-247.83C1042.65,-244.23 1071.19,-240.14 1095.23,-236.7"/>
<polygon fill="midnightblue" stroke="midnightblue" points="1095.84,-240.15 1105.24,-235.27 1094.84,-233.22 1095.84,-240.15"/>
</g>
<!-- Node21&#45;&gt;Node15 -->
<g id="edge23" class="edge">
<title>Node21&#45;&gt;Node15</title>
<path fill="none" stroke="midnightblue" d="M790.4,-272.38C814.81,-270.05 847.38,-266.94 876.84,-264.13"/>
<polygon fill="midnightblue" stroke="midnightblue" points="877.49,-267.58 887.12,-263.15 876.83,-260.61 877.49,-267.58"/>
</g>
<!-- Node25&#45;&gt;Node5 -->
<g id="edge29" class="edge">
<title>Node25&#45;&gt;Node5</title>
<path fill="none" stroke="midnightblue" d="M312.15,-215.39C322.79,-214.78 333.82,-214.15 344.43,-213.55"/>
<polygon fill="midnightblue" stroke="midnightblue" points="344.66,-217.04 354.44,-212.97 344.26,-210.05 344.66,-217.04"/>
</g>
<!-- Node25&#45;&gt;Node12 -->
<g id="edge41" class="edge">
<title>Node25&#45;&gt;Node12</title>
<path fill="none" stroke="midnightblue" d="M282.53,-209.49C292.11,-206.62 302.51,-203.33 312,-200 333.21,-192.55 356.67,-183.13 374.9,-175.53"/>
<polygon fill="midnightblue" stroke="midnightblue" points="376.32,-178.73 384.18,-171.63 373.61,-172.28 376.32,-178.73"/>
</g>
<!-- Node26 -->
<g id="node26" class="node">
<title>Node26</title>
<g id="a_node26"><a xlink:href="group__xml.html#gac937a83a82258806ef77b02f97ef0834" target="_top" xlink:title=" ">
<polygon fill="white" stroke="black" points="348,-304.5 348,-323.5 467,-323.5 467,-304.5 348,-304.5"/>
<text text-anchor="middle" x="407.5" y="-311.5" font-family="Helvetica,sans-Serif" font-size="10.00">operations_load_xml</text>
</a>
</g>
</g>
<!-- Node25&#45;&gt;Node26 -->
<g id="edge30" class="edge">
<title>Node25&#45;&gt;Node26</title>
<path fill="none" stroke="midnightblue" d="M288.91,-228.5C296.78,-231.07 304.82,-234.22 312,-238 342.2,-253.92 372.06,-280.17 389.89,-297.27"/>
<polygon fill="midnightblue" stroke="midnightblue" points="387.6,-299.92 397.2,-304.41 392.49,-294.92 387.6,-299.92"/>
</g>
<!-- Node27 -->
<g id="node27" class="node">
<title>Node27</title>
<g id="a_node27"><a xlink:href="group___groups.html#ga72c2d5ef943a89f829c08f6707e7669d" target="_top" xlink:title=" ">
<polygon fill="white" stroke="black" points="503,-342.5 503,-361.5 638,-361.5 638,-342.5 503,-342.5"/>
<text text-anchor="middle" x="570.5" y="-349.5" font-family="Helvetica,sans-Serif" font-size="10.00">operations_push_groups</text>
</a>
</g>
</g>
<!-- Node26&#45;&gt;Node27 -->
<g id="edge31" class="edge">
<title>Node26&#45;&gt;Node27</title>
<path fill="none" stroke="midnightblue" d="M449.13,-323.59C470.47,-328.63 496.81,-334.84 519.41,-340.18"/>
<polygon fill="midnightblue" stroke="midnightblue" points="518.63,-343.59 529.17,-342.48 520.24,-336.78 518.63,-343.59"/>
</g>
<!-- Node33 -->
<g id="node33" class="node">
<title>Node33</title>
<g id="a_node33"><a xlink:href="group___transforms.html#gaa15fe56d7980e7877845f3bc09125017" target="_top" xlink:title=" ">
<polygon fill="white" stroke="black" points="1260,-343 1260,-373 1410,-373 1410,-343 1260,-343"/>
<text text-anchor="start" x="1268" y="-361" font-family="Helvetica,sans-Serif" font-size="10.00">operations_push_transform</text>
<text text-anchor="middle" x="1335" y="-350" font-family="Helvetica,sans-Serif" font-size="10.00">_attributes</text>
</a>
</g>
</g>
<!-- Node26&#45;&gt;Node33 -->
<g id="edge40" class="edge">
<title>Node26&#45;&gt;Node33</title>
<path fill="none" stroke="midnightblue" d="M467.2,-314C535.33,-314 651.05,-314 750.5,-314 750.5,-314 750.5,-314 953.5,-314 1074.02,-314 1104.78,-315.37 1224,-333 1237.56,-335.01 1251.93,-337.78 1265.66,-340.76"/>
<polygon fill="midnightblue" stroke="midnightblue" points="1264.99,-344.2 1275.51,-342.96 1266.51,-337.37 1264.99,-344.2"/>
</g>
<!-- Node27&#45;&gt;Node27 -->
<g id="edge32" class="edge">
<title>Node27&#45;&gt;Node27</title>
<path fill="none" stroke="midnightblue" d="M545.53,-361.76C533.38,-370.57 541.71,-380 570.5,-380 589.85,-380 599.95,-375.74 600.81,-370.27"/>
<polygon fill="midnightblue" stroke="midnightblue" points="603.75,-368.37 595.47,-361.76 597.82,-372.09 603.75,-368.37"/>
</g>
<!-- Node28 -->
<g id="node28" class="node">
<title>Node28</title>
<g id="a_node28"><a xlink:href="group___models.html#gaca17d77a06e750f5cd95c1b79e1a8a30" target="_top" xlink:title=" ">
<polygon fill="white" stroke="black" points="682.5,-342.5 682.5,-361.5 820.5,-361.5 820.5,-342.5 682.5,-342.5"/>
<text text-anchor="middle" x="751.5" y="-349.5" font-family="Helvetica,sans-Serif" font-size="10.00">operations_push_models</text>
</a>
</g>
</g>
<!-- Node27&#45;&gt;Node28 -->
<g id="edge33" class="edge">
<title>Node27&#45;&gt;Node28</title>
<path fill="none" stroke="midnightblue" d="M638.15,-352C649.19,-352 660.72,-352 672.01,-352"/>
<polygon fill="midnightblue" stroke="midnightblue" points="672.3,-355.5 682.3,-352 672.3,-348.5 672.3,-355.5"/>
</g>
<!-- Node30 -->
<g id="node30" class="node">
<title>Node30</title>
<g id="a_node30"><a xlink:href="group___transforms.html#gaaa78b92f0257bb4755731622692de0cb" target="_top" xlink:title=" ">
<polygon fill="white" stroke="black" points="674,-380.5 674,-399.5 829,-399.5 829,-380.5 674,-380.5"/>
<text text-anchor="middle" x="751.5" y="-387.5" font-family="Helvetica,sans-Serif" font-size="10.00">operations_push_transforms</text>
</a>
</g>
</g>
<!-- Node27&#45;&gt;Node30 -->
<g id="edge35" class="edge">
<title>Node27&#45;&gt;Node30</title>
<path fill="none" stroke="midnightblue" d="M616.67,-361.59C640.72,-366.69 670.47,-373.01 695.82,-378.39"/>
<polygon fill="midnightblue" stroke="midnightblue" points="695.15,-381.83 705.66,-380.48 696.6,-374.98 695.15,-381.83"/>
</g>
<!-- Node29 -->
<g id="node29" class="node">
<title>Node29</title>
<g id="a_node29"><a xlink:href="group___models.html#ga5dc84f3f40c0bb6ad63dc2da3793ddd9" target="_top" xlink:title=" ">
<polygon fill="white" stroke="black" points="886,-342.5 886,-361.5 1019,-361.5 1019,-342.5 886,-342.5"/>
<text text-anchor="middle" x="952.5" y="-349.5" font-family="Helvetica,sans-Serif" font-size="10.00">operations_push_model</text>
</a>
</g>
</g>
<!-- Node28&#45;&gt;Node29 -->
<g id="edge34" class="edge">
<title>Node28&#45;&gt;Node29</title>
<path fill="none" stroke="midnightblue" d="M820.71,-352C838.38,-352 857.51,-352 875.55,-352"/>
<polygon fill="midnightblue" stroke="midnightblue" points="875.74,-355.5 885.74,-352 875.74,-348.5 875.74,-355.5"/>
</g>
<!-- Node31 -->
<g id="node31" class="node">
<title>Node31</title>
<g id="a_node31"><a xlink:href="group___transforms.html#ga3ceb952cabab7fc6918d4a676d53508d" target="_top" xlink:title=" ">
<polygon fill="white" stroke="black" points="865,-380.5 865,-399.5 1040,-399.5 1040,-380.5 865,-380.5"/>
<text text-anchor="middle" x="952.5" y="-387.5" font-family="Helvetica,sans-Serif" font-size="10.00">operations_push_transformation</text>
</a>
</g>
</g>
<!-- Node30&#45;&gt;Node31 -->
<g id="edge36" class="edge">
<title>Node30&#45;&gt;Node31</title>
<path fill="none" stroke="midnightblue" d="M829.15,-390C837.57,-390 846.23,-390 854.85,-390"/>
<polygon fill="midnightblue" stroke="midnightblue" points="854.94,-393.5 864.94,-390 854.94,-386.5 854.94,-393.5"/>
</g>
<!-- Node32 -->
<g id="node32" class="node">
<title>Node32</title>
<g id="a_node32"><a xlink:href="group___transforms.html#ga5078bb9f7411d7f9f26c535a52ae7c6b" target="_top" xlink:title=" ">
<polygon fill="white" stroke="black" points="1076,-343 1076,-373 1224,-373 1224,-343 1076,-343"/>
<text text-anchor="start" x="1084" y="-361" font-family="Helvetica,sans-Serif" font-size="10.00">operations_push_extended</text>
<text text-anchor="middle" x="1150" y="-350" font-family="Helvetica,sans-Serif" font-size="10.00">_translate_attributes</text>
</a>
</g>
</g>
<!-- Node31&#45;&gt;Node32 -->
<g id="edge37" class="edge">
<title>Node31&#45;&gt;Node32</title>
<path fill="none" stroke="midnightblue" d="M1011.63,-380.49C1028.63,-377.7 1047.55,-374.61 1065.78,-371.62"/>
<polygon fill="midnightblue" stroke="midnightblue" points="1066.52,-375.05 1075.83,-369.98 1065.39,-368.14 1066.52,-375.05"/>
</g>
<!-- Node31&#45;&gt;Node33 -->
<g id="edge39" class="edge">
<title>Node31&#45;&gt;Node33</title>
<path fill="none" stroke="midnightblue" d="M1040.02,-392.1C1093.27,-392.31 1162.82,-390.67 1224,-383 1238.37,-381.2 1253.61,-378.35 1268.03,-375.22"/>
<polygon fill="midnightblue" stroke="midnightblue" points="1268.87,-378.62 1277.85,-373.01 1267.33,-371.79 1268.87,-378.62"/>
</g>
<!-- Node32&#45;&gt;Node33 -->
<g id="edge38" class="edge">
<title>Node32&#45;&gt;Node33</title>
<path fill="none" stroke="midnightblue" d="M1224.12,-358C1232.56,-358 1241.22,-358 1249.8,-358"/>
<polygon fill="midnightblue" stroke="midnightblue" points="1249.8,-361.5 1259.8,-358 1249.8,-354.5 1249.8,-361.5"/>
</g>
</g>
</svg>
        <g id="navigator" transform="translate(0 0)" fill="#404254">
                <rect fill="#f2f5e9" fill-opacity="0.5" stroke="#606060" stroke-width=".5" x="0" y="0" width="60" height="60"/>
                <use id="zoomplus" xlink:href="#zoomPlus" x="17" y="9" onmousedown="handleZoom(evt,'in')"/>
                <use id="zoomminus" xlink:href="#zoomMin" x="42" y="9" onmousedown="handleZoom(evt,'out')"/>
                <use id="reset" xlink:href="#resetDef" x="30" y="36" onmousedown="handleReset()"/>
                <g id="arrowUp" xlink:href="#dirArrow" transform="translate(30 24)" onmousedown="handlePan(0,-1)">
                  <use xlink:href="#rim" fill="#404040">
                        <set attributeName="fill" to="#808080" begin="arrowUp.mouseover" end="arrowUp.mouseout"/>
                  </use>
                  <path fill="none" stroke="white" stroke-width="1.5" d="M0,-3.0v7 M-2.5,-0.5L0,-3.0L2.5,-0.5"/>
                </g>
                <g id="arrowRight" xlink:href="#dirArrow" transform="rotate(90) translate(36 -43)" onmousedown="handlePan(1,0)">
                  <use xlink:href="#rim" fill="#404040">
                        <set attributeName="fill" to="#808080" begin="arrowRight.mouseover" end="arrowRight.mouseout"/>
                  </use>
                  <path fill="none" stroke="white" stroke-width="1.5" d="M0,-3.0v7 M-2.5,-0.5L0,-3.0L2.5,-0.5"/>
                </g>
                <g id="arrowDown" xlink:href="#dirArrow" transform="rotate(180) translate(-30 -48)" onmousedown="handlePan(0,1)">
                  <use xlink:href="#rim" fill="#404040">
                        <set attributeName="fill" to="#808080" begin="arrowDown.mouseover" end="arrowDown.mouseout"/>
                  </use>
                  <path fill="none" stroke="white" stroke-width="1.5" d="M0,-3.0v7 M-2.5,-0.5L0,-3.0L2.5,-0.5"/>
                </g>
                <g id="arrowLeft" xlink:href="#dirArrow" transform="rotate(270) translate(-36 17)" onmousedown="handlePan(-1,0)">
                  <use xlink:href="#rim" fill="#404040">
                        <set attributeName="fill" to="#808080" begin="arrowLeft.mouseover" end="arrowLeft.mouseout"/>
                  </use>
                  <path fill="none" stroke="white" stroke-width="1.5" d="M0,-3.0v7 M-2.5,-0.5L0,-3.0L2.5,-0.5"/>
                </g>
        </g>
        <svg viewBox="0 0 15 15" width="100%" height="30px" preserveAspectRatio="xMaxYMin meet">
         <g id="arrow_out" transform="scale(0.3 0.3)">
          <a xlink:href="group__engine_ga3c04138a5bfe5d72780bb7e82a18e627_cgraph_org.svg" target="_base">
           <rect id="button" ry="5" rx="5" y="6" x="6" height="38" width="38"
                fill="#f2f5e9" fill-opacity="0.5" stroke="#606060" stroke-width="1.0"/>
           <path id="arrow"
             d="M 11.500037,31.436501 C 11.940474,20.09759 22.043105,11.32322 32.158766,21.979434 L 37.068811,17.246167 C 37.068811,17.246167 37.088388,32 37.088388,32 L 22.160133,31.978069 C 22.160133,31.978069 26.997745,27.140456 26.997745,27.140456 C 18.528582,18.264221 13.291696,25.230495 11.500037,31.436501 z"
             style="fill:#404040;"/>
          </a>
         </g>
        </svg>
</svg>
