<?xml version="1.0" encoding="UTF-8" standalone="no"?>
<!DOCTYPE svg PUBLIC "-//W3C//DTD SVG 1.1//EN"
 "http://www.w3.org/Graphics/SVG/1.1/DTD/svg11.dtd">
<!-- Generated by graphviz version 3.0.0 (0)
 -->
<!-- Title: changeProfile Pages: 1 -->
<svg width="210pt" height="66pt"
 viewBox="0.00 0.00 210.00 66.00" xmlns="http://www.w3.org/2000/svg" xmlns:xlink="http://www.w3.org/1999/xlink">
<g id="graph0" class="graph" transform="scale(1 1) rotate(0) translate(4 62)">
<title>changeProfile</title>
<polygon fill="white" stroke="transparent" points="-4,4 -4,-62 206,-62 206,4 -4,4"/>
<!-- Node1 -->
<g id="node1" class="node">
<title>Node1</title>
<g id="a_node1"><a xlink:title=" ">
<polygon fill="#bfbfbf" stroke="black" points="119,-19.5 119,-38.5 202,-38.5 202,-19.5 119,-19.5"/>
<text text-anchor="middle" x="160.5" y="-26.5" font-family="Helvetica,sans-Serif" font-size="10.00">changeProfile</text>
</a>
</g>
</g>
<!-- Node2 -->
<g id="node2" class="node">
<title>Node2</title>
<g id="a_node2"><a xlink:href="group__explorer_camera.html#ga0b95fc35a07bac37f27f163fb7cba34d" target="_top" xlink:title=" ">
<polygon fill="white" stroke="black" points="0,-38.5 0,-57.5 83,-57.5 83,-38.5 0,-38.5"/>
<text text-anchor="middle" x="41.5" y="-45.5" font-family="Helvetica,sans-Serif" font-size="10.00">explKeyboard</text>
</a>
</g>
</g>
<!-- Node1&#45;&gt;Node2 -->
<g id="edge1" class="edge">
<title>Node1&#45;&gt;Node2</title>
<path fill="none" stroke="midnightblue" d="M108.91,-37.22C100.25,-38.62 91.37,-40.06 83.02,-41.42"/>
<polygon fill="midnightblue" stroke="midnightblue" points="109.6,-40.65 118.91,-35.59 108.48,-33.74 109.6,-40.65"/>
</g>
<!-- Node3 -->
<g id="node3" class="node">
<title>Node3</title>
<g id="a_node3"><a xlink:href="group__fps_camera.html#gaed73e5ab45fe69d1231f88a89a17fcf4" target="_top" xlink:title=" ">
<polygon fill="white" stroke="black" points="3,-0.5 3,-19.5 80,-19.5 80,-0.5 3,-0.5"/>
<text text-anchor="middle" x="41.5" y="-7.5" font-family="Helvetica,sans-Serif" font-size="10.00">fpsKeyboard</text>
</a>
</g>
</g>
<!-- Node1&#45;&gt;Node3 -->
<g id="edge2" class="edge">
<title>Node1&#45;&gt;Node3</title>
<path fill="none" stroke="midnightblue" d="M109.01,-20.8C99.37,-19.24 89.43,-17.62 80.27,-16.13"/>
<polygon fill="midnightblue" stroke="midnightblue" points="108.48,-24.26 118.91,-22.41 109.6,-17.35 108.48,-24.26"/>
</g>
</g>
</svg>
