<?xml version="1.0" encoding="UTF-8" standalone="no"?>
<!DOCTYPE svg PUBLIC "-//W3C//DTD SVG 1.1//EN"
 "http://www.w3.org/Graphics/SVG/1.1/DTD/svg11.dtd">
<!-- Generated by graphviz version 3.0.0 (0)
 -->
<!-- Title: Engine Pages: 1 -->
<svg width="149pt" height="64pt"
 viewBox="0.00 0.00 149.00 64.00" xmlns="http://www.w3.org/2000/svg" xmlns:xlink="http://www.w3.org/1999/xlink">
<g id="graph0" class="graph" transform="scale(1 1) rotate(0) translate(4 60)">
<title>Engine</title>
<polygon fill="white" stroke="transparent" points="-4,4 -4,-60 145,-60 145,4 -4,4"/>
<!-- Node3 -->
<g id="node1" class="node">
<title>Node3</title>
<g id="a_node1"><a xlink:href="group__camera.html" target="_top" xlink:title=" ">
<polygon fill="white" stroke="black" points="141,-56 86,-56 86,-37 141,-37 141,-56"/>
<text text-anchor="middle" x="113.5" y="-44" font-family="Helvetica,sans-Serif" font-size="10.00">Camera</text>
</a>
</g>
</g>
<!-- Node1 -->
<g id="node2" class="node">
<title>Node1</title>
<g id="a_node2"><a xlink:title=" ">
<polygon fill="#bfbfbf" stroke="black" points="50,-37 0,-37 0,-18 50,-18 50,-37"/>
<text text-anchor="middle" x="25" y="-25" font-family="Helvetica,sans-Serif" font-size="10.00">Engine</text>
</a>
</g>
</g>
<!-- Node1&#45;&gt;Node3 -->
<g id="edge2" class="edge">
<title>Node1&#45;&gt;Node3</title>
<path fill="none" stroke="black" d="M59.87,-34.94C68.48,-36.83 77.61,-38.84 85.8,-40.64"/>
<polygon fill="black" stroke="black" points="60.61,-31.52 50.1,-32.79 59.11,-38.36 60.61,-31.52"/>
</g>
<!-- Node2 -->
<g id="node3" class="node">
<title>Node2</title>
<g id="a_node3"><a xlink:href="group__model_engine.html" target="_top" xlink:title=" ">
<polygon fill="white" stroke="black" points="137,-19 90,-19 90,0 137,0 137,-19"/>
<text text-anchor="middle" x="113.5" y="-7" font-family="Helvetica,sans-Serif" font-size="10.00">Model</text>
</a>
</g>
</g>
<!-- Node1&#45;&gt;Node2 -->
<g id="edge1" class="edge">
<title>Node1&#45;&gt;Node2</title>
<path fill="none" stroke="black" d="M60.11,-20.4C70.05,-18.33 80.67,-16.12 89.72,-14.24"/>
<polygon fill="black" stroke="black" points="59.17,-17.02 50.1,-22.49 60.6,-23.88 59.17,-17.02"/>
</g>
</g>
</svg>
