<?xml version="1.0" encoding="UTF-8" standalone="no"?>
<!DOCTYPE svg PUBLIC "-//W3C//DTD SVG 1.1//EN"
 "http://www.w3.org/Graphics/SVG/1.1/DTD/svg11.dtd">
<!-- Generated by graphviz version 3.0.0 (0)
 -->
<!-- Title: main Pages: 1 -->
<svg width="1133pt" height="682pt"
 viewBox="0.00 0.00 1133.00 682.00" xmlns="http://www.w3.org/2000/svg" xmlns:xlink="http://www.w3.org/1999/xlink">
<g id="graph0" class="graph" transform="scale(1 1) rotate(0) translate(4 678)">
<title>main</title>
<polygon fill="white" stroke="transparent" points="-4,4 -4,-678 1129,-678 1129,4 -4,4"/>
<!-- Node1 -->
<g id="node1" class="node">
<title>Node1</title>
<g id="a_node1"><a xlink:title=" ">
<polygon fill="#bfbfbf" stroke="black" points="0,-426.5 0,-445.5 41,-445.5 41,-426.5 0,-426.5"/>
<text text-anchor="middle" x="20.5" y="-433.5" font-family="Helvetica,sans-Serif" font-size="10.00">main</text>
</a>
</g>
</g>
<!-- Node2 -->
<g id="node2" class="node">
<title>Node2</title>
<g id="a_node2"><a xlink:href="group__engine.html#ga98eaf946471acbd931de5d52ca83b3d1" target="_top" xlink:title=" ">
<polygon fill="white" stroke="black" points="77,-426.5 77,-445.5 148,-445.5 148,-426.5 77,-426.5"/>
<text text-anchor="middle" x="112.5" y="-433.5" font-family="Helvetica,sans-Serif" font-size="10.00">engine_run</text>
</a>
</g>
</g>
<!-- Node1&#45;&gt;Node2 -->
<g id="edge1" class="edge">
<title>Node1&#45;&gt;Node2</title>
<path fill="none" stroke="midnightblue" d="M41.03,-436C48.62,-436 57.64,-436 66.66,-436"/>
<polygon fill="midnightblue" stroke="midnightblue" points="66.77,-439.5 76.77,-436 66.77,-432.5 66.77,-439.5"/>
</g>
<!-- Node3 -->
<g id="node3" class="node">
<title>Node3</title>
<g id="a_node3"><a xlink:href="group___profile.html#ga4eec7d736381fd000f84ccb4f2d844da" target="_top" xlink:title=" ">
<polygon fill="white" stroke="black" points="373,-464.5 373,-483.5 442,-483.5 442,-464.5 373,-464.5"/>
<text text-anchor="middle" x="407.5" y="-471.5" font-family="Helvetica,sans-Serif" font-size="10.00">loadProfile</text>
</a>
</g>
</g>
<!-- Node2&#45;&gt;Node3 -->
<g id="edge2" class="edge">
<title>Node2&#45;&gt;Node3</title>
<path fill="none" stroke="midnightblue" d="M144.12,-445.53C156.4,-449.01 170.77,-452.67 184,-455 245.46,-465.82 317.59,-470.54 362.68,-472.56"/>
<polygon fill="midnightblue" stroke="midnightblue" points="362.57,-476.06 372.71,-472.98 362.87,-469.07 362.57,-476.06"/>
</g>
<!-- Node4 -->
<g id="node4" class="node">
<title>Node4</title>
<g id="a_node4"><a xlink:href="group__engine.html#ga91c42686f3245f22fb6b17ba5372d92c" target="_top" xlink:title=" ">
<polygon fill="white" stroke="black" points="209.5,-426.5 209.5,-445.5 286.5,-445.5 286.5,-426.5 209.5,-426.5"/>
<text text-anchor="middle" x="248" y="-433.5" font-family="Helvetica,sans-Serif" font-size="10.00">renderScene</text>
</a>
</g>
</g>
<!-- Node2&#45;&gt;Node4 -->
<g id="edge3" class="edge">
<title>Node2&#45;&gt;Node4</title>
<path fill="none" stroke="midnightblue" d="M148.23,-436C163.71,-436 182.2,-436 198.98,-436"/>
<polygon fill="midnightblue" stroke="midnightblue" points="199.16,-439.5 209.16,-436 199.16,-432.5 199.16,-439.5"/>
</g>
<!-- Node24 -->
<g id="node24" class="node">
<title>Node24</title>
<g id="a_node24"><a xlink:href="group__engine.html#ga7148688af5abea686f74d15a50bd20ae" target="_top" xlink:title=" ">
<polygon fill="white" stroke="black" points="184,-331.5 184,-350.5 312,-350.5 312,-331.5 184,-331.5"/>
<text text-anchor="middle" x="248" y="-338.5" font-family="Helvetica,sans-Serif" font-size="10.00">xml_load_and_set_env</text>
</a>
</g>
</g>
<!-- Node2&#45;&gt;Node24 -->
<g id="edge25" class="edge">
<title>Node2&#45;&gt;Node24</title>
<path fill="none" stroke="midnightblue" d="M127.28,-426.19C150.49,-409.68 197.52,-376.21 225.23,-356.49"/>
<polygon fill="midnightblue" stroke="midnightblue" points="227.37,-359.26 233.49,-350.61 223.31,-353.56 227.37,-359.26"/>
</g>
<!-- Node4&#45;&gt;Node3 -->
<g id="edge5" class="edge">
<title>Node4&#45;&gt;Node3</title>
<path fill="none" stroke="midnightblue" d="M286.73,-445.1C309.66,-450.64 339.03,-457.72 362.95,-463.49"/>
<polygon fill="midnightblue" stroke="midnightblue" points="362.29,-466.93 372.83,-465.88 363.93,-460.13 362.29,-466.93"/>
</g>
<!-- Node5 -->
<g id="node5" class="node">
<title>Node5</title>
<g id="a_node5"><a xlink:href="engine_8cpp.html#a634dba686e70e7ff3f10c37d11f463da" target="_top" xlink:title=" ">
<polygon fill="white" stroke="black" points="373,-426.5 373,-445.5 442,-445.5 442,-426.5 373,-426.5"/>
<text text-anchor="middle" x="407.5" y="-433.5" font-family="Helvetica,sans-Serif" font-size="10.00">draw_axes</text>
</a>
</g>
</g>
<!-- Node4&#45;&gt;Node5 -->
<g id="edge4" class="edge">
<title>Node4&#45;&gt;Node5</title>
<path fill="none" stroke="midnightblue" d="M286.73,-436C309.56,-436 338.77,-436 362.63,-436"/>
<polygon fill="midnightblue" stroke="midnightblue" points="362.83,-439.5 372.83,-436 362.83,-432.5 362.83,-439.5"/>
</g>
<!-- Node6 -->
<g id="node6" class="node">
<title>Node6</title>
<g id="a_node6"><a xlink:href="group___rendering.html#ga8d5a19a3522cea1b4254684cf6515d13" target="_top" xlink:title=" ">
<polygon fill="white" stroke="black" points="355,-388.5 355,-407.5 460,-407.5 460,-388.5 355,-388.5"/>
<text text-anchor="middle" x="407.5" y="-395.5" font-family="Helvetica,sans-Serif" font-size="10.00">operations_render</text>
</a>
</g>
</g>
<!-- Node4&#45;&gt;Node6 -->
<g id="edge6" class="edge">
<title>Node4&#45;&gt;Node6</title>
<path fill="none" stroke="midnightblue" d="M286.73,-426.9C307.81,-421.81 334.34,-415.41 357.07,-409.93"/>
<polygon fill="midnightblue" stroke="midnightblue" points="357.98,-413.31 366.88,-407.56 356.34,-406.5 357.98,-413.31"/>
</g>
<!-- Node7 -->
<g id="node7" class="node">
<title>Node7</title>
<g id="a_node7"><a xlink:href="group__model_engine.html#ga2ca8791f2c1829e3df5d449129d21c32" target="_top" xlink:title=" ">
<polygon fill="white" stroke="black" points="503,-502.5 503,-521.5 645,-521.5 645,-502.5 503,-502.5"/>
<text text-anchor="middle" x="574" y="-509.5" font-family="Helvetica,sans-Serif" font-size="10.00">addTextureImageToModel</text>
</a>
</g>
</g>
<!-- Node6&#45;&gt;Node7 -->
<g id="edge7" class="edge">
<title>Node6&#45;&gt;Node7</title>
<path fill="none" stroke="midnightblue" d="M451.9,-407.57C457.37,-410.03 462.59,-413.12 467,-417 495.07,-441.68 474.34,-469.02 503,-493 505.03,-494.7 507.19,-496.24 509.46,-497.65"/>
<polygon fill="midnightblue" stroke="midnightblue" points="508.16,-500.92 518.64,-502.44 511.39,-494.71 508.16,-500.92"/>
</g>
<!-- Node8 -->
<g id="node8" class="node">
<title>Node8</title>
<g id="a_node8"><a xlink:href="group___curves.html#ga821c8cbf0a47b918c60a4912b733e6bd" target="_top" xlink:title=" ">
<polygon fill="white" stroke="black" points="522,-464.5 522,-483.5 626,-483.5 626,-464.5 522,-464.5"/>
<text text-anchor="middle" x="574" y="-471.5" font-family="Helvetica,sans-Serif" font-size="10.00">advance_in_curve</text>
</a>
</g>
</g>
<!-- Node6&#45;&gt;Node8 -->
<g id="edge8" class="edge">
<title>Node6&#45;&gt;Node8</title>
<path fill="none" stroke="midnightblue" d="M446.04,-407.55C453.24,-410.11 460.54,-413.23 467,-417 485.75,-427.94 484.34,-438.91 503,-450 510.15,-454.25 518.15,-457.88 526.12,-460.94"/>
<polygon fill="midnightblue" stroke="midnightblue" points="525.18,-464.32 535.77,-464.38 527.53,-457.72 525.18,-464.32"/>
</g>
<!-- Node13 -->
<g id="node13" class="node">
<title>Node13</title>
<g id="a_node13"><a xlink:href="engine_8cpp.html#a072c434cfd125e58ac1cec9a5725688a" target="_top" xlink:title=" ">
<polygon fill="white" stroke="black" points="516,-654.5 516,-673.5 632,-673.5 632,-654.5 516,-654.5"/>
<text text-anchor="middle" x="574" y="-661.5" font-family="Helvetica,sans-Serif" font-size="10.00">advance_in_rotation</text>
</a>
</g>
</g>
<!-- Node6&#45;&gt;Node13 -->
<g id="edge13" class="edge">
<title>Node6&#45;&gt;Node13</title>
<path fill="none" stroke="midnightblue" d="M455.01,-407.53C459.54,-410 463.67,-413.1 467,-417 533.61,-495.02 434.5,-568.63 503,-645 504.36,-646.51 505.82,-647.91 507.37,-649.2"/>
<polygon fill="midnightblue" stroke="midnightblue" points="505.51,-652.16 515.77,-654.8 509.39,-646.34 505.51,-652.16"/>
</g>
<!-- Node14 -->
<g id="node14" class="node">
<title>Node14</title>
<g id="a_node14"><a xlink:href="namespace_d.html#a393bfec992f13a40a9f601e3e6c82874" target="_top" xlink:title=" ">
<polygon fill="white" stroke="black" points="536.5,-274.5 536.5,-293.5 611.5,-293.5 611.5,-274.5 536.5,-274.5"/>
<text text-anchor="middle" x="574" y="-281.5" font-family="Helvetica,sans-Serif" font-size="10.00">D::cartesian</text>
</a>
</g>
</g>
<!-- Node6&#45;&gt;Node14 -->
<g id="edge14" class="edge">
<title>Node6&#45;&gt;Node14</title>
<path fill="none" stroke="midnightblue" d="M415.36,-388.27C429.48,-368.98 463.78,-325.8 503,-303 510.2,-298.82 518.35,-295.53 526.48,-292.95"/>
<polygon fill="midnightblue" stroke="midnightblue" points="527.66,-296.25 536.32,-290.14 525.74,-289.52 527.66,-296.25"/>
</g>
<!-- Node15 -->
<g id="node15" class="node">
<title>Node15</title>
<g id="a_node15"><a xlink:href="group__explorer_camera.html#ga2bd01f833407b47f26121736925e24fc" target="_top" xlink:title=" ">
<polygon fill="white" stroke="black" points="517.5,-616.5 517.5,-635.5 630.5,-635.5 630.5,-616.5 517.5,-616.5"/>
<text text-anchor="middle" x="574" y="-623.5" font-family="Helvetica,sans-Serif" font-size="10.00">cartesian2Spherical</text>
</a>
</g>
</g>
<!-- Node6&#45;&gt;Node15 -->
<g id="edge15" class="edge">
<title>Node6&#45;&gt;Node15</title>
<path fill="none" stroke="midnightblue" d="M454.89,-407.63C459.44,-410.08 463.61,-413.15 467,-417 523.8,-481.5 444.64,-543.91 503,-607 504.63,-608.76 506.41,-610.37 508.3,-611.84"/>
<polygon fill="midnightblue" stroke="midnightblue" points="506.9,-615.08 517.25,-617.37 510.59,-609.13 506.9,-615.08"/>
</g>
<!-- Node16 -->
<g id="node16" class="node">
<title>Node16</title>
<g id="a_node16"><a xlink:href="group__model_engine.html#gac02eaf37d06ce4074af34bcf4c2ebec6" target="_top" xlink:title=" ">
<polygon fill="white" stroke="black" points="543,-578.5 543,-597.5 605,-597.5 605,-578.5 543,-578.5"/>
<text text-anchor="middle" x="574" y="-585.5" font-family="Helvetica,sans-Serif" font-size="10.00">getModel</text>
</a>
</g>
</g>
<!-- Node6&#45;&gt;Node16 -->
<g id="edge16" class="edge">
<title>Node6&#45;&gt;Node16</title>
<path fill="none" stroke="midnightblue" d="M454.44,-407.63C459.12,-410.08 463.45,-413.15 467,-417 514.05,-468.05 454.71,-519.12 503,-569 510.91,-577.17 521.96,-581.95 532.94,-584.7"/>
<polygon fill="midnightblue" stroke="midnightblue" points="532.42,-588.16 542.92,-586.7 533.8,-581.3 532.42,-588.16"/>
</g>
<!-- Node17 -->
<g id="node17" class="node">
<title>Node17</title>
<g id="a_node17"><a xlink:href="namespace_d.html#ae27403f76d7334ff69a099e42f1f1616" target="_top" xlink:title=" ">
<polygon fill="white" stroke="black" points="545,-236.5 545,-255.5 603,-255.5 603,-236.5 545,-236.5"/>
<text text-anchor="middle" x="574" y="-243.5" font-family="Helvetica,sans-Serif" font-size="10.00">D::origin</text>
</a>
</g>
</g>
<!-- Node6&#45;&gt;Node17 -->
<g id="edge17" class="edge">
<title>Node6&#45;&gt;Node17</title>
<path fill="none" stroke="midnightblue" d="M414.19,-388.31C430.64,-360.61 478.61,-282.01 503,-265 512.41,-258.44 523.99,-254.14 535,-251.32"/>
<polygon fill="midnightblue" stroke="midnightblue" points="535.87,-254.72 544.87,-249.13 534.35,-247.88 535.87,-254.72"/>
</g>
<!-- Node18 -->
<g id="node18" class="node">
<title>Node18</title>
<g id="a_node18"><a xlink:href="namespace_d.html#aa2fb96ccebb5bf88d4325f85beb99d84" target="_top" xlink:title="(radius,zenith,azimuth)">
<polygon fill="white" stroke="black" points="546.5,-198.5 546.5,-217.5 601.5,-217.5 601.5,-198.5 546.5,-198.5"/>
<text text-anchor="middle" x="574" y="-205.5" font-family="Helvetica,sans-Serif" font-size="10.00">D::polar</text>
</a>
</g>
</g>
<!-- Node6&#45;&gt;Node18 -->
<g id="edge18" class="edge">
<title>Node6&#45;&gt;Node18</title>
<path fill="none" stroke="midnightblue" d="M414.84,-388.5C425.98,-371.62 449.54,-335.18 467,-303 484.83,-270.15 474.34,-250.98 503,-227 512.34,-219.19 524.61,-214.57 536.26,-211.84"/>
<polygon fill="midnightblue" stroke="midnightblue" points="537.1,-215.24 546.25,-209.9 535.77,-208.37 537.1,-215.24"/>
</g>
<!-- Node19 -->
<g id="node19" class="node">
<title>Node19</title>
<g id="a_node19"><a xlink:href="namespace_d.html#a49b3788c9a2aae032c6c74d76441aa18" target="_top" xlink:title="(fov,near,var)">
<polygon fill="white" stroke="black" points="534.5,-388.5 534.5,-407.5 613.5,-407.5 613.5,-388.5 534.5,-388.5"/>
<text text-anchor="middle" x="574" y="-395.5" font-family="Helvetica,sans-Serif" font-size="10.00">D::projection</text>
</a>
</g>
</g>
<!-- Node6&#45;&gt;Node19 -->
<g id="edge19" class="edge">
<title>Node6&#45;&gt;Node19</title>
<path fill="none" stroke="midnightblue" d="M460.1,-398C480.56,-398 503.97,-398 524.15,-398"/>
<polygon fill="midnightblue" stroke="midnightblue" points="524.38,-401.5 534.38,-398 524.38,-394.5 524.38,-401.5"/>
</g>
<!-- Node20 -->
<g id="node20" class="node">
<title>Node20</title>
<g id="a_node20"><a xlink:href="group___curves.html#gad812fc50a0384335487e258a6f61714e" target="_top" xlink:title=" ">
<polygon fill="white" stroke="black" points="708.5,-426.5 708.5,-445.5 785.5,-445.5 785.5,-426.5 708.5,-426.5"/>
<text text-anchor="middle" x="747" y="-433.5" font-family="Helvetica,sans-Serif" font-size="10.00">renderCurve</text>
</a>
</g>
</g>
<!-- Node6&#45;&gt;Node20 -->
<g id="edge20" class="edge">
<title>Node6&#45;&gt;Node20</title>
<path fill="none" stroke="midnightblue" d="M450.18,-407.51C466.57,-410.95 485.6,-414.58 503,-417 570.5,-426.39 649.24,-431.48 698.36,-433.97"/>
<polygon fill="midnightblue" stroke="midnightblue" points="698.22,-437.47 708.38,-434.46 698.57,-430.48 698.22,-437.47"/>
</g>
<!-- Node21 -->
<g id="node21" class="node">
<title>Node21</title>
<g id="a_node21"><a xlink:href="group__model_engine.html#ga2907e4adf4f2bef2c8ce416cb8470997" target="_top" xlink:title=" ">
<polygon fill="white" stroke="black" points="535,-540.5 535,-559.5 613,-559.5 613,-540.5 535,-540.5"/>
<text text-anchor="middle" x="574" y="-547.5" font-family="Helvetica,sans-Serif" font-size="10.00">renderModel</text>
</a>
</g>
</g>
<!-- Node6&#45;&gt;Node21 -->
<g id="edge22" class="edge">
<title>Node6&#45;&gt;Node21</title>
<path fill="none" stroke="midnightblue" d="M453.58,-407.6C458.54,-410.05 463.16,-413.13 467,-417 504.42,-454.72 464.67,-494.2 503,-531 509.14,-536.89 516.91,-541 525.03,-543.85"/>
<polygon fill="midnightblue" stroke="midnightblue" points="524.06,-547.21 534.64,-546.65 526.02,-540.49 524.06,-547.21"/>
</g>
<!-- Node22 -->
<g id="node22" class="node">
<title>Node22</title>
<g id="a_node22"><a xlink:href="namespace_d.html#a1ccd692563b2bed3dbd7275b0bd3dbb3" target="_top" xlink:title=" ">
<polygon fill="white" stroke="black" points="546,-350.5 546,-369.5 602,-369.5 602,-350.5 546,-350.5"/>
<text text-anchor="middle" x="574" y="-357.5" font-family="Helvetica,sans-Serif" font-size="10.00">D::scale</text>
</a>
</g>
</g>
<!-- Node6&#45;&gt;Node22 -->
<g id="edge23" class="edge">
<title>Node6&#45;&gt;Node22</title>
<path fill="none" stroke="midnightblue" d="M450.01,-388.41C476.44,-382.3 510.39,-374.46 535.92,-368.57"/>
<polygon fill="midnightblue" stroke="midnightblue" points="537,-371.91 545.95,-366.25 535.42,-365.09 537,-371.91"/>
</g>
<!-- Node23 -->
<g id="node23" class="node">
<title>Node23</title>
<g id="a_node23"><a xlink:href="namespace_d.html#a075a76915f7e2899933f446de8be40d9" target="_top" xlink:title=" ">
<polygon fill="white" stroke="black" points="553,-312.5 553,-331.5 595,-331.5 595,-312.5 553,-312.5"/>
<text text-anchor="middle" x="574" y="-319.5" font-family="Helvetica,sans-Serif" font-size="10.00">D::up</text>
</a>
</g>
</g>
<!-- Node6&#45;&gt;Node23 -->
<g id="edge24" class="edge">
<title>Node6&#45;&gt;Node23</title>
<path fill="none" stroke="midnightblue" d="M421.64,-388.45C439.33,-375.97 472.17,-354.18 503,-341 515.66,-335.59 530.29,-331.33 542.88,-328.23"/>
<polygon fill="midnightblue" stroke="midnightblue" points="543.95,-331.58 552.89,-325.9 542.36,-324.76 543.95,-331.58"/>
</g>
<!-- Node9 -->
<g id="node9" class="node">
<title>Node9</title>
<g id="a_node9"><a xlink:href="group___curves.html#ga98b26a4263f61db7149441a99a6d35b6" target="_top" xlink:title=" ">
<polygon fill="white" stroke="black" points="685.5,-464.5 685.5,-483.5 808.5,-483.5 808.5,-464.5 685.5,-464.5"/>
<text text-anchor="middle" x="747" y="-471.5" font-family="Helvetica,sans-Serif" font-size="10.00">align_global_pos_mat</text>
</a>
</g>
</g>
<!-- Node8&#45;&gt;Node9 -->
<g id="edge9" class="edge">
<title>Node8&#45;&gt;Node9</title>
<path fill="none" stroke="midnightblue" d="M626.31,-474C641.7,-474 658.87,-474 675.29,-474"/>
<polygon fill="midnightblue" stroke="midnightblue" points="675.39,-477.5 685.39,-474 675.39,-470.5 675.39,-477.5"/>
</g>
<!-- Node10 -->
<g id="node10" class="node">
<title>Node10</title>
<g id="a_node10"><a xlink:href="group___curves.html#gaf7cd8d9b34a073c2fd2d7d8187bcff42" target="_top" xlink:title=" ">
<polygon fill="white" stroke="black" points="849,-445.5 849,-464.5 979,-464.5 979,-445.5 849,-445.5"/>
<text text-anchor="middle" x="914" y="-452.5" font-family="Helvetica,sans-Serif" font-size="10.00">get_curve_global_point</text>
</a>
</g>
</g>
<!-- Node9&#45;&gt;Node10 -->
<g id="edge10" class="edge">
<title>Node9&#45;&gt;Node10</title>
<path fill="none" stroke="midnightblue" d="M808.5,-467.03C818.37,-465.9 828.68,-464.71 838.83,-463.54"/>
<polygon fill="midnightblue" stroke="midnightblue" points="839.36,-467 848.9,-462.38 838.56,-460.05 839.36,-467"/>
</g>
<!-- Node11 -->
<g id="node11" class="node">
<title>Node11</title>
<g id="a_node11"><a xlink:href="group___curves.html#gafa648d7de8c941b50b26f02755a955b9" target="_top" xlink:title=" ">
<polygon fill="white" stroke="black" points="1025.5,-464.5 1025.5,-483.5 1114.5,-483.5 1114.5,-464.5 1025.5,-464.5"/>
<text text-anchor="middle" x="1070" y="-471.5" font-family="Helvetica,sans-Serif" font-size="10.00">get_curve_info</text>
</a>
</g>
</g>
<!-- Node10&#45;&gt;Node11 -->
<g id="edge11" class="edge">
<title>Node10&#45;&gt;Node11</title>
<path fill="none" stroke="midnightblue" d="M979.42,-462.95C991.4,-464.43 1003.8,-465.96 1015.42,-467.39"/>
<polygon fill="midnightblue" stroke="midnightblue" points="1015.04,-470.87 1025.4,-468.62 1015.9,-463.92 1015.04,-470.87"/>
</g>
<!-- Node12 -->
<g id="node12" class="node">
<title>Node12</title>
<g id="a_node12"><a xlink:href="group___curves.html#ga6d6def6a76701b08284cba58066e3382" target="_top" xlink:title=" ">
<polygon fill="white" stroke="black" points="1015,-426.5 1015,-445.5 1125,-445.5 1125,-426.5 1015,-426.5"/>
<text text-anchor="middle" x="1070" y="-433.5" font-family="Helvetica,sans-Serif" font-size="10.00">get_curve_point_at</text>
</a>
</g>
</g>
<!-- Node10&#45;&gt;Node12 -->
<g id="edge12" class="edge">
<title>Node10&#45;&gt;Node12</title>
<path fill="none" stroke="midnightblue" d="M979.42,-447.05C987.74,-446.03 996.26,-444.97 1004.58,-443.95"/>
<polygon fill="midnightblue" stroke="midnightblue" points="1005.11,-447.41 1014.6,-442.71 1004.25,-440.46 1005.11,-447.41"/>
</g>
<!-- Node20&#45;&gt;Node10 -->
<g id="edge21" class="edge">
<title>Node20&#45;&gt;Node10</title>
<path fill="none" stroke="midnightblue" d="M785.85,-440.36C801.59,-442.17 820.42,-444.34 838.71,-446.45"/>
<polygon fill="midnightblue" stroke="midnightblue" points="838.46,-449.94 848.8,-447.61 839.26,-442.99 838.46,-449.94"/>
</g>
<!-- Node24&#45;&gt;Node6 -->
<g id="edge42" class="edge">
<title>Node24&#45;&gt;Node6</title>
<path fill="none" stroke="midnightblue" d="M275.36,-350.54C301.37,-359.95 341.33,-374.41 370.3,-384.9"/>
<polygon fill="midnightblue" stroke="midnightblue" points="369.46,-388.32 380.05,-388.43 371.84,-381.73 369.46,-388.32"/>
</g>
<!-- Node25 -->
<g id="node25" class="node">
<title>Node25</title>
<g id="a_node25"><a xlink:href="group__explorer_camera.html#ga8679d9b303f36964bf51dba0993caeaa" target="_top" xlink:title=" ">
<polygon fill="white" stroke="black" points="354.5,-274.5 354.5,-293.5 460.5,-293.5 460.5,-274.5 354.5,-274.5"/>
<text text-anchor="middle" x="407.5" y="-281.5" font-family="Helvetica,sans-Serif" font-size="10.00">env_load_defaults</text>
</a>
</g>
</g>
<!-- Node24&#45;&gt;Node25 -->
<g id="edge26" class="edge">
<title>Node24&#45;&gt;Node25</title>
<path fill="none" stroke="midnightblue" d="M275.36,-331.46C301.37,-322.05 341.33,-307.59 370.3,-297.1"/>
<polygon fill="midnightblue" stroke="midnightblue" points="371.84,-300.27 380.05,-293.57 369.46,-293.68 371.84,-300.27"/>
</g>
<!-- Node28 -->
<g id="node28" class="node">
<title>Node28</title>
<g id="a_node28"><a xlink:href="group___parsing.html#ga462c16b6479801f3de982785f509141a" target="_top" xlink:title=" ">
<polygon fill="white" stroke="black" points="348,-151.5 348,-170.5 467,-170.5 467,-151.5 348,-151.5"/>
<text text-anchor="middle" x="407.5" y="-158.5" font-family="Helvetica,sans-Serif" font-size="10.00">operations_load_xml</text>
</a>
</g>
</g>
<!-- Node24&#45;&gt;Node28 -->
<g id="edge35" class="edge">
<title>Node24&#45;&gt;Node28</title>
<path fill="none" stroke="midnightblue" d="M257.47,-331.32C282.89,-302.27 358.81,-215.5 391.38,-178.28"/>
<polygon fill="midnightblue" stroke="midnightblue" points="394.04,-180.56 397.99,-170.73 388.77,-175.95 394.04,-180.56"/>
</g>
<!-- Node25&#45;&gt;Node14 -->
<g id="edge27" class="edge">
<title>Node25&#45;&gt;Node14</title>
<path fill="none" stroke="midnightblue" d="M460.55,-284C481.65,-284 505.82,-284 526.34,-284"/>
<polygon fill="midnightblue" stroke="midnightblue" points="526.39,-287.5 536.39,-284 526.39,-280.5 526.39,-287.5"/>
</g>
<!-- Node25&#45;&gt;Node17 -->
<g id="edge28" class="edge">
<title>Node25&#45;&gt;Node17</title>
<path fill="none" stroke="midnightblue" d="M450.01,-274.41C476.11,-268.38 509.53,-260.66 534.95,-254.79"/>
<polygon fill="midnightblue" stroke="midnightblue" points="536,-258.14 544.96,-252.48 534.42,-251.32 536,-258.14"/>
</g>
<!-- Node25&#45;&gt;Node18 -->
<g id="edge29" class="edge">
<title>Node25&#45;&gt;Node18</title>
<path fill="none" stroke="midnightblue" d="M421.64,-274.45C439.33,-261.97 472.17,-240.18 503,-227 513.64,-222.45 525.66,-218.72 536.69,-215.81"/>
<polygon fill="midnightblue" stroke="midnightblue" points="537.63,-219.18 546.49,-213.36 535.94,-212.39 537.63,-219.18"/>
</g>
<!-- Node25&#45;&gt;Node19 -->
<g id="edge30" class="edge">
<title>Node25&#45;&gt;Node19</title>
<path fill="none" stroke="midnightblue" d="M415.36,-293.73C429.48,-313.02 463.78,-356.2 503,-379 509.59,-382.83 516.97,-385.91 524.4,-388.38"/>
<polygon fill="midnightblue" stroke="midnightblue" points="523.56,-391.78 534.14,-391.29 525.56,-385.07 523.56,-391.78"/>
</g>
<!-- Node25&#45;&gt;Node22 -->
<g id="edge32" class="edge">
<title>Node25&#45;&gt;Node22</title>
<path fill="none" stroke="midnightblue" d="M421.64,-293.55C439.33,-306.03 472.17,-327.82 503,-341 513.35,-345.43 525.02,-349.08 535.81,-351.96"/>
<polygon fill="midnightblue" stroke="midnightblue" points="535.27,-355.43 545.82,-354.48 536.98,-348.64 535.27,-355.43"/>
</g>
<!-- Node25&#45;&gt;Node23 -->
<g id="edge34" class="edge">
<title>Node25&#45;&gt;Node23</title>
<path fill="none" stroke="midnightblue" d="M450.01,-293.59C478.95,-300.28 516.9,-309.04 542.95,-315.06"/>
<polygon fill="midnightblue" stroke="midnightblue" points="542.45,-318.54 552.98,-317.38 544.03,-311.72 542.45,-318.54"/>
</g>
<!-- Node26 -->
<g id="node26" class="node">
<title>Node26</title>
<g id="a_node26"><a xlink:href="namespace_d.html#acff69d64de92ad4a8530de5424425dee" target="_top" xlink:title=" ">
<polygon fill="white" stroke="black" points="544.5,-122.5 544.5,-141.5 603.5,-141.5 603.5,-122.5 544.5,-122.5"/>
<text text-anchor="middle" x="574" y="-129.5" font-family="Helvetica,sans-Serif" font-size="10.00">D::rotate</text>
</a>
</g>
</g>
<!-- Node25&#45;&gt;Node26 -->
<g id="edge31" class="edge">
<title>Node25&#45;&gt;Node26</title>
<path fill="none" stroke="midnightblue" d="M412.59,-274.22C423.43,-249.52 455.37,-184.22 503,-151 512.16,-144.61 523.37,-140.37 534.11,-137.55"/>
<polygon fill="midnightblue" stroke="midnightblue" points="535.21,-140.89 544.19,-135.27 533.66,-134.07 535.21,-140.89"/>
</g>
<!-- Node27 -->
<g id="node27" class="node">
<title>Node27</title>
<g id="a_node27"><a xlink:href="namespace_d.html#ae308988f832b1d5420f532ac7dfd772e" target="_top" xlink:title=" ">
<polygon fill="white" stroke="black" points="537,-160.5 537,-179.5 611,-179.5 611,-160.5 537,-160.5"/>
<text text-anchor="middle" x="574" y="-167.5" font-family="Helvetica,sans-Serif" font-size="10.00">D::translate</text>
</a>
</g>
</g>
<!-- Node25&#45;&gt;Node27 -->
<g id="edge33" class="edge">
<title>Node25&#45;&gt;Node27</title>
<path fill="none" stroke="midnightblue" d="M415.36,-274.27C429.48,-254.98 463.78,-211.8 503,-189 510.36,-184.72 518.7,-181.38 527.01,-178.78"/>
<polygon fill="midnightblue" stroke="midnightblue" points="528,-182.13 536.68,-176.05 526.1,-175.4 528,-182.13"/>
</g>
<!-- Node29 -->
<g id="node29" class="node">
<title>Node29</title>
<g id="a_node29"><a xlink:href="group___parsing.html#ga724a75a0bcc5898b0f2e576db5a3ef65" target="_top" xlink:title=" ">
<polygon fill="white" stroke="black" points="514,-66.5 514,-85.5 634,-85.5 634,-66.5 514,-66.5"/>
<text text-anchor="middle" x="574" y="-73.5" font-family="Helvetica,sans-Serif" font-size="10.00">operations_push_any</text>
</a>
</g>
</g>
<!-- Node28&#45;&gt;Node29 -->
<g id="edge36" class="edge">
<title>Node28&#45;&gt;Node29</title>
<path fill="none" stroke="midnightblue" d="M427.05,-151.41C455.81,-136.56 511.32,-107.87 544.98,-90.48"/>
<polygon fill="midnightblue" stroke="midnightblue" points="546.99,-93.38 554.26,-85.68 543.77,-87.16 546.99,-93.38"/>
</g>
<!-- Node29&#45;&gt;Node29 -->
<g id="edge39" class="edge">
<title>Node29&#45;&gt;Node29</title>
<path fill="none" stroke="midnightblue" d="M548.41,-85.76C535.97,-94.57 544.5,-104 574,-104 593.82,-104 604.18,-99.74 605.06,-94.27"/>
<polygon fill="midnightblue" stroke="midnightblue" points="607.94,-92.27 599.59,-85.76 602.05,-96.06 607.94,-92.27"/>
</g>
<!-- Node30 -->
<g id="node30" class="node">
<title>Node30</title>
<g id="a_node30"><a xlink:href="group___auxiliary.html#ga5e1350b5e6d7267d7e95a8ee351eae51" target="_top" xlink:title=" ">
<polygon fill="white" stroke="black" points="681,-126.5 681,-145.5 813,-145.5 813,-126.5 681,-126.5"/>
<text text-anchor="middle" x="747" y="-133.5" font-family="Helvetica,sans-Serif" font-size="10.00">crashIfFileDoesNotExist</text>
</a>
</g>
</g>
<!-- Node29&#45;&gt;Node30 -->
<g id="edge37" class="edge">
<title>Node29&#45;&gt;Node30</title>
<path fill="none" stroke="midnightblue" d="M597.95,-85.53C619.29,-94.22 652.03,-107.18 681,-117 687.58,-119.23 694.59,-121.44 701.48,-123.53"/>
<polygon fill="midnightblue" stroke="midnightblue" points="700.84,-126.99 711.42,-126.48 702.83,-120.28 700.84,-126.99"/>
</g>
<!-- Node31 -->
<g id="node31" class="node">
<title>Node31</title>
<g id="a_node31"><a xlink:href="group___auxiliary.html#gab70be49ae6c9836b6605fa296e23c58c" target="_top" xlink:title=" ">
<polygon fill="white" stroke="black" points="699.5,-88.5 699.5,-107.5 794.5,-107.5 794.5,-88.5 699.5,-88.5"/>
<text text-anchor="middle" x="747" y="-95.5" font-family="Helvetica,sans-Serif" font-size="10.00">elementToEnum</text>
</a>
</g>
</g>
<!-- Node29&#45;&gt;Node31 -->
<g id="edge38" class="edge">
<title>Node29&#45;&gt;Node31</title>
<path fill="none" stroke="midnightblue" d="M634.33,-83.63C652.15,-85.93 671.65,-88.43 689.29,-90.7"/>
<polygon fill="midnightblue" stroke="midnightblue" points="689.08,-94.21 699.44,-92.01 689.97,-87.26 689.08,-94.21"/>
</g>
<!-- Node32 -->
<g id="node32" class="node">
<title>Node32</title>
<g id="a_node32"><a xlink:href="group___auxiliary.html#ga27f2fb7edc94a99859f8e3a5120af3b4" target="_top" xlink:title=" ">
<polygon fill="white" stroke="black" points="682,-39 682,-69 812,-69 812,-39 682,-39"/>
<text text-anchor="start" x="690" y="-57" font-family="Helvetica,sans-Serif" font-size="10.00">operations_push_string</text>
<text text-anchor="middle" x="747" y="-46" font-family="Helvetica,sans-Serif" font-size="10.00">_attribute</text>
</a>
</g>
</g>
<!-- Node29&#45;&gt;Node32 -->
<g id="edge40" class="edge">
<title>Node29&#45;&gt;Node32</title>
<path fill="none" stroke="midnightblue" d="M634.33,-68.37C646.43,-66.81 659.31,-65.15 671.85,-63.54"/>
<polygon fill="midnightblue" stroke="midnightblue" points="672.35,-67 681.82,-62.26 671.45,-60.06 672.35,-67"/>
</g>
<!-- Node33 -->
<g id="node33" class="node">
<title>Node33</title>
<g id="a_node33"><a xlink:href="group___auxiliary.html#ga97fc3f3450980b121126d829a0263836" target="_top" xlink:title=" ">
<polygon fill="white" stroke="black" points="690.5,-0.5 690.5,-19.5 803.5,-19.5 803.5,-0.5 690.5,-0.5"/>
<text text-anchor="middle" x="747" y="-7.5" font-family="Helvetica,sans-Serif" font-size="10.00">pushFloatAttributes</text>
</a>
</g>
</g>
<!-- Node29&#45;&gt;Node33 -->
<g id="edge41" class="edge">
<title>Node29&#45;&gt;Node33</title>
<path fill="none" stroke="midnightblue" d="M594.6,-66.36C615.64,-56.25 650.19,-40.28 681,-29 687.31,-26.69 694.03,-24.47 700.68,-22.41"/>
<polygon fill="midnightblue" stroke="midnightblue" points="701.73,-25.74 710.3,-19.51 699.72,-19.04 701.73,-25.74"/>
</g>
</g>
</svg>
