<?xml version="1.0" encoding="UTF-8" standalone="no"?>
<!DOCTYPE svg PUBLIC "-//W3C//DTD SVG 1.1//EN"
 "http://www.w3.org/Graphics/SVG/1.1/DTD/svg11.dtd">
<!-- Generated by graphviz version 3.0.0 (0)
 -->
<!-- Title: operations_render Pages: 1 -->
<svg width="736pt" height="496pt"
 viewBox="0.00 0.00 736.00 496.00" xmlns="http://www.w3.org/2000/svg" xmlns:xlink="http://www.w3.org/1999/xlink">
<g id="graph0" class="graph" transform="scale(1 1) rotate(0) translate(4 492)">
<title>operations_render</title>
<polygon fill="white" stroke="transparent" points="-4,4 -4,-492 732,-492 732,4 -4,4"/>
<!-- Node1 -->
<g id="node1" class="node">
<title>Node1</title>
<g id="a_node1"><a xlink:title=" ">
<polygon fill="#bfbfbf" stroke="black" points="0,-228.5 0,-247.5 105,-247.5 105,-228.5 0,-228.5"/>
<text text-anchor="middle" x="52.5" y="-235.5" font-family="Helvetica,sans-Serif" font-size="10.00">operations_render</text>
</a>
</g>
</g>
<!-- Node2 -->
<g id="node2" class="node">
<title>Node2</title>
<g id="a_node2"><a xlink:href="curves_8cpp.html#a821c8cbf0a47b918c60a4912b733e6bd" target="_top" xlink:title=" ">
<polygon fill="white" stroke="black" points="147,-468.5 147,-487.5 251,-487.5 251,-468.5 147,-468.5"/>
<text text-anchor="middle" x="199" y="-475.5" font-family="Helvetica,sans-Serif" font-size="10.00">advance_in_curve</text>
</a>
</g>
</g>
<!-- Node1&#45;&gt;Node2 -->
<g id="edge1" class="edge">
<title>Node1&#45;&gt;Node2</title>
<path fill="none" stroke="midnightblue" d="M54.44,-247.54C58.31,-281.45 75.96,-397.45 141,-459 142.66,-460.57 144.46,-462.02 146.35,-463.34"/>
<polygon fill="midnightblue" stroke="midnightblue" points="144.77,-466.46 155.18,-468.41 148.25,-460.39 144.77,-466.46"/>
</g>
<!-- Node7 -->
<g id="node7" class="node">
<title>Node7</title>
<g id="a_node7"><a xlink:href="engine_8cpp.html#a072c434cfd125e58ac1cec9a5725688a" target="_top" xlink:title=" ">
<polygon fill="white" stroke="black" points="141,-430.5 141,-449.5 257,-449.5 257,-430.5 141,-430.5"/>
<text text-anchor="middle" x="199" y="-437.5" font-family="Helvetica,sans-Serif" font-size="10.00">advance_in_rotation</text>
</a>
</g>
</g>
<!-- Node1&#45;&gt;Node7 -->
<g id="edge6" class="edge">
<title>Node1&#45;&gt;Node7</title>
<path fill="none" stroke="midnightblue" d="M55.32,-247.55C61.54,-277.64 84.77,-371.36 141,-421 142.92,-422.69 144.99,-424.23 147.17,-425.64"/>
<polygon fill="midnightblue" stroke="midnightblue" points="145.54,-428.74 156.01,-430.41 148.87,-422.58 145.54,-428.74"/>
</g>
<!-- Node8 -->
<g id="node8" class="node">
<title>Node8</title>
<g id="a_node8"><a xlink:href="group__model_engine.html#ga361bcac2814bb93f543d2c0f1b28b6d2" target="_top" xlink:title=" ">
<polygon fill="white" stroke="black" points="164,-392.5 164,-411.5 234,-411.5 234,-392.5 164,-392.5"/>
<text text-anchor="middle" x="199" y="-399.5" font-family="Helvetica,sans-Serif" font-size="10.00">allocModel</text>
</a>
</g>
</g>
<!-- Node1&#45;&gt;Node8 -->
<g id="edge7" class="edge">
<title>Node1&#45;&gt;Node8</title>
<path fill="none" stroke="midnightblue" d="M56.67,-247.72C65.6,-273.64 93.48,-344.98 141,-383 145.02,-386.22 149.61,-388.9 154.4,-391.13"/>
<polygon fill="midnightblue" stroke="midnightblue" points="153.17,-394.41 163.76,-394.9 155.79,-387.92 153.17,-394.41"/>
</g>
<!-- Node9 -->
<g id="node9" class="node">
<title>Node9</title>
<g id="a_node9"><a xlink:href="group__model_engine.html#ga8c7329ae859a08eea53a77130ebe6018" target="_top" xlink:title=" ">
<polygon fill="white" stroke="black" points="141.5,-343 141.5,-373 256.5,-373 256.5,-343 141.5,-343"/>
<text text-anchor="start" x="149.5" y="-361" font-family="Helvetica,sans-Serif" font-size="10.00">associate_a_texture</text>
<text text-anchor="middle" x="199" y="-350" font-family="Helvetica,sans-Serif" font-size="10.00">_to_model</text>
</a>
</g>
</g>
<!-- Node1&#45;&gt;Node9 -->
<g id="edge8" class="edge">
<title>Node1&#45;&gt;Node9</title>
<path fill="none" stroke="midnightblue" d="M60.18,-247.57C73.6,-266.2 105.59,-307.73 141,-333 143.51,-334.79 146.18,-336.5 148.92,-338.11"/>
<polygon fill="midnightblue" stroke="midnightblue" points="147.44,-341.29 157.91,-342.95 150.76,-335.13 147.44,-341.29"/>
</g>
<!-- Node10 -->
<g id="node10" class="node">
<title>Node10</title>
<g id="a_node10"><a xlink:href="namespace_d.html#a393bfec992f13a40a9f601e3e6c82874" target="_top" xlink:title=" ">
<polygon fill="white" stroke="black" points="161.5,-304.5 161.5,-323.5 236.5,-323.5 236.5,-304.5 161.5,-304.5"/>
<text text-anchor="middle" x="199" y="-311.5" font-family="Helvetica,sans-Serif" font-size="10.00">D::cartesian</text>
</a>
</g>
</g>
<!-- Node1&#45;&gt;Node10 -->
<g id="edge9" class="edge">
<title>Node1&#45;&gt;Node10</title>
<path fill="none" stroke="midnightblue" d="M65.94,-247.58C82.38,-259.89 112.59,-281.29 141,-295 145.41,-297.13 150.11,-299.11 154.86,-300.94"/>
<polygon fill="midnightblue" stroke="midnightblue" points="153.98,-304.34 164.58,-304.45 156.36,-297.76 153.98,-304.34"/>
</g>
<!-- Node11 -->
<g id="node11" class="node">
<title>Node11</title>
<g id="a_node11"><a xlink:href="group__explorer_camera.html#ga2bd01f833407b47f26121736925e24fc" target="_top" xlink:title=" ">
<polygon fill="white" stroke="black" points="142.5,-266.5 142.5,-285.5 255.5,-285.5 255.5,-266.5 142.5,-266.5"/>
<text text-anchor="middle" x="199" y="-273.5" font-family="Helvetica,sans-Serif" font-size="10.00">cartesian2Spherical</text>
</a>
</g>
</g>
<!-- Node1&#45;&gt;Node11 -->
<g id="edge10" class="edge">
<title>Node1&#45;&gt;Node11</title>
<path fill="none" stroke="midnightblue" d="M89.96,-247.59C108.77,-252.54 131.91,-258.62 151.95,-263.89"/>
<polygon fill="midnightblue" stroke="midnightblue" points="151.24,-267.32 161.8,-266.48 153.02,-260.55 151.24,-267.32"/>
</g>
<!-- Node12 -->
<g id="node12" class="node">
<title>Node12</title>
<g id="a_node12"><a xlink:href="namespace_d.html#ae27403f76d7334ff69a099e42f1f1616" target="_top" xlink:title=" ">
<polygon fill="white" stroke="black" points="170,-228.5 170,-247.5 228,-247.5 228,-228.5 170,-228.5"/>
<text text-anchor="middle" x="199" y="-235.5" font-family="Helvetica,sans-Serif" font-size="10.00">D::origin</text>
</a>
</g>
</g>
<!-- Node1&#45;&gt;Node12 -->
<g id="edge11" class="edge">
<title>Node1&#45;&gt;Node12</title>
<path fill="none" stroke="midnightblue" d="M105.26,-238C123.06,-238 142.68,-238 159.26,-238"/>
<polygon fill="midnightblue" stroke="midnightblue" points="159.68,-241.5 169.67,-238 159.67,-234.5 159.68,-241.5"/>
</g>
<!-- Node13 -->
<g id="node13" class="node">
<title>Node13</title>
<g id="a_node13"><a xlink:href="namespace_d.html#aa2fb96ccebb5bf88d4325f85beb99d84" target="_top" xlink:title="(radius,zenith,azimuth)">
<polygon fill="white" stroke="black" points="171.5,-190.5 171.5,-209.5 226.5,-209.5 226.5,-190.5 171.5,-190.5"/>
<text text-anchor="middle" x="199" y="-197.5" font-family="Helvetica,sans-Serif" font-size="10.00">D::polar</text>
</a>
</g>
</g>
<!-- Node1&#45;&gt;Node13 -->
<g id="edge12" class="edge">
<title>Node1&#45;&gt;Node13</title>
<path fill="none" stroke="midnightblue" d="M89.96,-228.41C111.76,-222.68 139.37,-215.42 161.22,-209.67"/>
<polygon fill="midnightblue" stroke="midnightblue" points="162.35,-213 171.13,-207.07 160.57,-206.23 162.35,-213"/>
</g>
<!-- Node14 -->
<g id="node14" class="node">
<title>Node14</title>
<g id="a_node14"><a xlink:href="namespace_d.html#a49b3788c9a2aae032c6c74d76441aa18" target="_top" xlink:title="(fov,near,var)">
<polygon fill="white" stroke="black" points="159.5,-152.5 159.5,-171.5 238.5,-171.5 238.5,-152.5 159.5,-152.5"/>
<text text-anchor="middle" x="199" y="-159.5" font-family="Helvetica,sans-Serif" font-size="10.00">D::projection</text>
</a>
</g>
</g>
<!-- Node1&#45;&gt;Node14 -->
<g id="edge13" class="edge">
<title>Node1&#45;&gt;Node14</title>
<path fill="none" stroke="midnightblue" d="M65.94,-228.42C82.38,-216.11 112.59,-194.71 141,-181 145.41,-178.87 150.11,-176.89 154.86,-175.06"/>
<polygon fill="midnightblue" stroke="midnightblue" points="156.36,-178.24 164.58,-171.55 153.98,-171.66 156.36,-178.24"/>
</g>
<!-- Node15 -->
<g id="node15" class="node">
<title>Node15</title>
<g id="a_node15"><a xlink:href="curves_8cpp.html#ad812fc50a0384335487e258a6f61714e" target="_top" xlink:title=" ">
<polygon fill="white" stroke="black" points="316,-272.5 316,-291.5 393,-291.5 393,-272.5 316,-272.5"/>
<text text-anchor="middle" x="354.5" y="-279.5" font-family="Helvetica,sans-Serif" font-size="10.00">renderCurve</text>
</a>
</g>
</g>
<!-- Node1&#45;&gt;Node15 -->
<g id="edge14" class="edge">
<title>Node1&#45;&gt;Node15</title>
<path fill="none" stroke="midnightblue" d="M58.68,-228.33C70.23,-207.91 100.34,-160.83 141,-143 188.22,-122.3 211.32,-119.1 257,-143 305.65,-168.45 334.69,-230.81 346.83,-262.64"/>
<polygon fill="midnightblue" stroke="midnightblue" points="343.59,-263.96 350.3,-272.16 350.17,-261.57 343.59,-263.96"/>
</g>
<!-- Node16 -->
<g id="node16" class="node">
<title>Node16</title>
<g id="a_node16"><a xlink:href="group__model_engine.html#ga2907e4adf4f2bef2c8ce416cb8470997" target="_top" xlink:title=" ">
<polygon fill="white" stroke="black" points="160,-76.5 160,-95.5 238,-95.5 238,-76.5 160,-76.5"/>
<text text-anchor="middle" x="199" y="-83.5" font-family="Helvetica,sans-Serif" font-size="10.00">renderModel</text>
</a>
</g>
</g>
<!-- Node1&#45;&gt;Node16 -->
<g id="edge16" class="edge">
<title>Node1&#45;&gt;Node16</title>
<path fill="none" stroke="midnightblue" d="M57.76,-228.26C68.46,-204.8 98.68,-144.57 141,-110 145.74,-106.13 151.2,-102.79 156.82,-99.94"/>
<polygon fill="midnightblue" stroke="midnightblue" points="158.68,-102.94 166.33,-95.6 155.78,-96.57 158.68,-102.94"/>
</g>
<!-- Node17 -->
<g id="node17" class="node">
<title>Node17</title>
<g id="a_node17"><a xlink:href="namespace_d.html#a1ccd692563b2bed3dbd7275b0bd3dbb3" target="_top" xlink:title=" ">
<polygon fill="white" stroke="black" points="171,-38.5 171,-57.5 227,-57.5 227,-38.5 171,-38.5"/>
<text text-anchor="middle" x="199" y="-45.5" font-family="Helvetica,sans-Serif" font-size="10.00">D::scale</text>
</a>
</g>
</g>
<!-- Node1&#45;&gt;Node17 -->
<g id="edge17" class="edge">
<title>Node1&#45;&gt;Node17</title>
<path fill="none" stroke="midnightblue" d="M55.71,-228.26C62.79,-199.29 87.63,-112.86 141,-67 146.77,-62.05 153.87,-58.37 161.08,-55.65"/>
<polygon fill="midnightblue" stroke="midnightblue" points="162.42,-58.9 170.86,-52.5 160.27,-52.24 162.42,-58.9"/>
</g>
<!-- Node18 -->
<g id="node18" class="node">
<title>Node18</title>
<g id="a_node18"><a xlink:href="namespace_d.html#a075a76915f7e2899933f446de8be40d9" target="_top" xlink:title=" ">
<polygon fill="white" stroke="black" points="178,-0.5 178,-19.5 220,-19.5 220,-0.5 178,-0.5"/>
<text text-anchor="middle" x="199" y="-7.5" font-family="Helvetica,sans-Serif" font-size="10.00">D::up</text>
</a>
</g>
</g>
<!-- Node1&#45;&gt;Node18 -->
<g id="edge18" class="edge">
<title>Node1&#45;&gt;Node18</title>
<path fill="none" stroke="midnightblue" d="M54.74,-228.06C59.43,-194.84 79.01,-86.53 141,-29 148.49,-22.05 158.6,-17.64 168.22,-14.84"/>
<polygon fill="midnightblue" stroke="midnightblue" points="169.05,-18.23 177.94,-12.46 167.39,-11.43 169.05,-18.23"/>
</g>
<!-- Node3 -->
<g id="node3" class="node">
<title>Node3</title>
<g id="a_node3"><a xlink:href="curves_8cpp.html#a98b26a4263f61db7149441a99a6d35b6" target="_top" xlink:title=" ">
<polygon fill="white" stroke="black" points="293,-389.5 293,-408.5 416,-408.5 416,-389.5 293,-389.5"/>
<text text-anchor="middle" x="354.5" y="-396.5" font-family="Helvetica,sans-Serif" font-size="10.00">align_global_pos_mat</text>
</a>
</g>
</g>
<!-- Node2&#45;&gt;Node3 -->
<g id="edge2" class="edge">
<title>Node2&#45;&gt;Node3</title>
<path fill="none" stroke="midnightblue" d="M233.07,-468.44C241.05,-465.73 249.45,-462.55 257,-459 284.13,-446.26 313.05,-427.51 332.08,-414.37"/>
<polygon fill="midnightblue" stroke="midnightblue" points="334.14,-417.19 340.33,-408.59 330.13,-411.46 334.14,-417.19"/>
</g>
<!-- Node4 -->
<g id="node4" class="node">
<title>Node4</title>
<g id="a_node4"><a xlink:href="curves_8cpp.html#af7cd8d9b34a073c2fd2d7d8187bcff42" target="_top" xlink:title=" ">
<polygon fill="white" stroke="black" points="452,-291.5 452,-310.5 582,-310.5 582,-291.5 452,-291.5"/>
<text text-anchor="middle" x="517" y="-298.5" font-family="Helvetica,sans-Serif" font-size="10.00">get_curve_global_point</text>
</a>
</g>
</g>
<!-- Node3&#45;&gt;Node4 -->
<g id="edge3" class="edge">
<title>Node3&#45;&gt;Node4</title>
<path fill="none" stroke="midnightblue" d="M371.18,-389.42C399.16,-372.34 457.86,-336.5 491.3,-316.08"/>
<polygon fill="midnightblue" stroke="midnightblue" points="493.31,-318.96 500.02,-310.76 489.66,-312.98 493.31,-318.96"/>
</g>
<!-- Node5 -->
<g id="node5" class="node">
<title>Node5</title>
<g id="a_node5"><a xlink:href="curves_8cpp.html#afa648d7de8c941b50b26f02755a955b9" target="_top" xlink:title=" ">
<polygon fill="white" stroke="black" points="628.5,-310.5 628.5,-329.5 717.5,-329.5 717.5,-310.5 628.5,-310.5"/>
<text text-anchor="middle" x="673" y="-317.5" font-family="Helvetica,sans-Serif" font-size="10.00">get_curve_info</text>
</a>
</g>
</g>
<!-- Node4&#45;&gt;Node5 -->
<g id="edge4" class="edge">
<title>Node4&#45;&gt;Node5</title>
<path fill="none" stroke="midnightblue" d="M582.42,-308.95C594.4,-310.43 606.8,-311.96 618.42,-313.39"/>
<polygon fill="midnightblue" stroke="midnightblue" points="618.04,-316.87 628.4,-314.62 618.9,-309.92 618.04,-316.87"/>
</g>
<!-- Node6 -->
<g id="node6" class="node">
<title>Node6</title>
<g id="a_node6"><a xlink:href="curves_8cpp.html#a6d6def6a76701b08284cba58066e3382" target="_top" xlink:title=" ">
<polygon fill="white" stroke="black" points="618,-272.5 618,-291.5 728,-291.5 728,-272.5 618,-272.5"/>
<text text-anchor="middle" x="673" y="-279.5" font-family="Helvetica,sans-Serif" font-size="10.00">get_curve_point_at</text>
</a>
</g>
</g>
<!-- Node4&#45;&gt;Node6 -->
<g id="edge5" class="edge">
<title>Node4&#45;&gt;Node6</title>
<path fill="none" stroke="midnightblue" d="M582.42,-293.05C590.74,-292.03 599.26,-290.97 607.58,-289.95"/>
<polygon fill="midnightblue" stroke="midnightblue" points="608.11,-293.41 617.6,-288.71 607.25,-286.46 608.11,-293.41"/>
</g>
<!-- Node15&#45;&gt;Node4 -->
<g id="edge15" class="edge">
<title>Node15&#45;&gt;Node4</title>
<path fill="none" stroke="midnightblue" d="M393.13,-286.45C407.63,-288.17 424.75,-290.2 441.53,-292.18"/>
<polygon fill="midnightblue" stroke="midnightblue" points="441.56,-295.71 451.91,-293.41 442.39,-288.76 441.56,-295.71"/>
</g>
</g>
</svg>
