<?xml version="1.0" encoding="UTF-8" standalone="no"?>
<!DOCTYPE svg PUBLIC "-//W3C//DTD SVG 1.1//EN"
 "http://www.w3.org/Graphics/SVG/1.1/DTD/svg11.dtd">
<!-- Generated by graphviz version 3.0.0 (0)
 -->
<!-- Title: mat Pages: 1 -->
<svg width="700pt" height="28pt"
 viewBox="0.00 0.00 700.00 28.00" xmlns="http://www.w3.org/2000/svg" xmlns:xlink="http://www.w3.org/1999/xlink">
<g id="graph0" class="graph" transform="scale(1 1) rotate(0) translate(4 24)">
<title>mat</title>
<polygon fill="white" stroke="transparent" points="-4,4 -4,-24 696,-24 696,4 -4,4"/>
<!-- Node1 -->
<g id="node1" class="node">
<title>Node1</title>
<g id="a_node1"><a xlink:title=" ">
<polygon fill="#bfbfbf" stroke="black" points="656,-0.5 656,-19.5 692,-19.5 692,-0.5 656,-0.5"/>
<text text-anchor="middle" x="674" y="-7.5" font-family="Helvetica,sans-Serif" font-size="10.00">mat</text>
</a>
</g>
</g>
<!-- Node2 -->
<g id="node2" class="node">
<title>Node2</title>
<g id="a_node2"><a xlink:href="group__bezier.html#ga4623e7c5e81e842a2b10cd85b9481744" target="_top" xlink:title=" ">
<polygon fill="white" stroke="black" points="507,-0.5 507,-19.5 620,-19.5 620,-0.5 507,-0.5"/>
<text text-anchor="middle" x="563.5" y="-7.5" font-family="Helvetica,sans-Serif" font-size="10.00">get_bezier_point_at</text>
</a>
</g>
</g>
<!-- Node1&#45;&gt;Node2 -->
<g id="edge1" class="edge">
<title>Node1&#45;&gt;Node2</title>
<path fill="none" stroke="midnightblue" d="M645.42,-10C637.73,-10 629.08,-10 620.38,-10"/>
<polygon fill="midnightblue" stroke="midnightblue" points="645.57,-13.5 655.57,-10 645.57,-6.5 645.57,-13.5"/>
</g>
<!-- Node3 -->
<g id="node3" class="node">
<title>Node3</title>
<g id="a_node3"><a xlink:href="group__bezier.html#ga08aa0300760bfa97d7555a4c4d09f8be" target="_top" xlink:title=" ">
<polygon fill="white" stroke="black" points="371,-0.5 371,-19.5 471,-19.5 471,-0.5 371,-0.5"/>
<text text-anchor="middle" x="421" y="-7.5" font-family="Helvetica,sans-Serif" font-size="10.00">get_bezier_patch</text>
</a>
</g>
</g>
<!-- Node2&#45;&gt;Node3 -->
<g id="edge2" class="edge">
<title>Node2&#45;&gt;Node3</title>
<path fill="none" stroke="midnightblue" d="M496.9,-10C488.25,-10 479.51,-10 471.21,-10"/>
<polygon fill="midnightblue" stroke="midnightblue" points="496.97,-13.5 506.97,-10 496.97,-6.5 496.97,-13.5"/>
</g>
<!-- Node4 -->
<g id="node4" class="node">
<title>Node4</title>
<g id="a_node4"><a xlink:href="group__bezier.html#gad696b1162ccfd03b01584b7794814cf5" target="_top" xlink:title=" ">
<polygon fill="white" stroke="black" points="226,-0.5 226,-19.5 335,-19.5 335,-0.5 226,-0.5"/>
<text text-anchor="middle" x="280.5" y="-7.5" font-family="Helvetica,sans-Serif" font-size="10.00">get_bezier_surface</text>
</a>
</g>
</g>
<!-- Node3&#45;&gt;Node4 -->
<g id="edge3" class="edge">
<title>Node3&#45;&gt;Node4</title>
<path fill="none" stroke="midnightblue" d="M360.63,-10C352.21,-10 343.58,-10 335.26,-10"/>
<polygon fill="midnightblue" stroke="midnightblue" points="360.78,-13.5 370.78,-10 360.78,-6.5 360.78,-13.5"/>
</g>
<!-- Node5 -->
<g id="node5" class="node">
<title>Node5</title>
<g id="a_node5"><a xlink:href="group__bezier.html#ga0886f14826417ba72823e219550591e1" target="_top" xlink:title=" ">
<polygon fill="white" stroke="black" points="77,-0.5 77,-19.5 190,-19.5 190,-0.5 77,-0.5"/>
<text text-anchor="middle" x="133.5" y="-7.5" font-family="Helvetica,sans-Serif" font-size="10.00">model_bezier_write</text>
</a>
</g>
</g>
<!-- Node4&#45;&gt;Node5 -->
<g id="edge4" class="edge">
<title>Node4&#45;&gt;Node5</title>
<path fill="none" stroke="midnightblue" d="M215.7,-10C207.23,-10 198.61,-10 190.29,-10"/>
<polygon fill="midnightblue" stroke="midnightblue" points="215.92,-13.5 225.92,-10 215.92,-6.5 215.92,-13.5"/>
</g>
<!-- Node6 -->
<g id="node6" class="node">
<title>Node6</title>
<g id="a_node6"><a xlink:href="generator_8cpp.html#aee608aedd5b0b58f2966c2ff15101925" target="_top" xlink:title=" ">
<polygon fill="white" stroke="black" points="0,-0.5 0,-19.5 41,-19.5 41,-0.5 0,-0.5"/>
<text text-anchor="middle" x="20.5" y="-7.5" font-family="Helvetica,sans-Serif" font-size="10.00">main</text>
</a>
</g>
</g>
<!-- Node5&#45;&gt;Node6 -->
<g id="edge5" class="edge">
<title>Node5&#45;&gt;Node6</title>
<path fill="none" stroke="midnightblue" d="M66.58,-10C57.37,-10 48.56,-10 41.21,-10"/>
<polygon fill="midnightblue" stroke="midnightblue" points="66.67,-13.5 76.67,-10 66.67,-6.5 66.67,-13.5"/>
</g>
</g>
</svg>
