<?xml version="1.0" encoding="UTF-8" standalone="no"?>
<!DOCTYPE svg PUBLIC "-//W3C//DTD SVG 1.1//EN"
 "http://www.w3.org/Graphics/SVG/1.1/DTD/svg11.dtd">
<!-- Generated by graphviz version 3.0.0 (0)
 -->
<!-- Title: engine_run Pages: 1 -->
<svg width="946pt" height="284pt"
 viewBox="0.00 0.00 946.00 284.00" xmlns="http://www.w3.org/2000/svg" xmlns:xlink="http://www.w3.org/1999/xlink">
<g id="graph0" class="graph" transform="scale(1 1) rotate(0) translate(4 280)">
<title>engine_run</title>
<polygon fill="white" stroke="transparent" points="-4,4 -4,-280 942,-280 942,4 -4,4"/>
<!-- Node1 -->
<g id="node1" class="node">
<title>Node1</title>
<g id="a_node1"><a xlink:title=" ">
<polygon fill="#bfbfbf" stroke="black" points="0,-161.5 0,-180.5 71,-180.5 71,-161.5 0,-161.5"/>
<text text-anchor="middle" x="35.5" y="-168.5" font-family="Helvetica,sans-Serif" font-size="10.00">engine_run</text>
</a>
</g>
</g>
<!-- Node2 -->
<g id="node2" class="node">
<title>Node2</title>
<g id="a_node2"><a xlink:href="group__engine.html#ga33e20b37682a0492a9e95d13bef17f02" target="_top" xlink:title=" ">
<polygon fill="white" stroke="black" points="135,-256.5 135,-275.5 207,-275.5 207,-256.5 135,-256.5"/>
<text text-anchor="middle" x="171" y="-263.5" font-family="Helvetica,sans-Serif" font-size="10.00">changeSize</text>
</a>
</g>
</g>
<!-- Node1&#45;&gt;Node2 -->
<g id="edge1" class="edge">
<title>Node1&#45;&gt;Node2</title>
<path fill="none" stroke="midnightblue" d="M42.88,-180.7C53.99,-196.84 78.45,-229.18 107,-247 112.53,-250.45 118.73,-253.31 125.02,-255.67"/>
<polygon fill="midnightblue" stroke="midnightblue" points="124.31,-259.12 134.91,-258.97 126.53,-252.48 124.31,-259.12"/>
</g>
<!-- Node3 -->
<g id="node3" class="node">
<title>Node3</title>
<g id="a_node3"><a xlink:href="group__input.html#gac7632fff72011e8c11ae504a4596a7f7" target="_top" xlink:title=" ">
<polygon fill="white" stroke="black" points="129,-142.5 129,-161.5 213,-161.5 213,-142.5 129,-142.5"/>
<text text-anchor="middle" x="171" y="-149.5" font-family="Helvetica,sans-Serif" font-size="10.00">keyboardFunc</text>
</a>
</g>
</g>
<!-- Node1&#45;&gt;Node3 -->
<g id="edge2" class="edge">
<title>Node1&#45;&gt;Node3</title>
<path fill="none" stroke="midnightblue" d="M71.23,-166.06C85.68,-164 102.75,-161.57 118.6,-159.32"/>
<polygon fill="midnightblue" stroke="midnightblue" points="119.4,-162.74 128.8,-157.86 118.41,-155.81 119.4,-162.74"/>
</g>
<!-- Node7 -->
<g id="node7" class="node">
<title>Node7</title>
<g id="a_node7"><a xlink:href="group__input.html#ga2bebb17428cb218231ad556de2a20ed6" target="_top" xlink:title=" ">
<polygon fill="white" stroke="black" points="134,-218.5 134,-237.5 208,-237.5 208,-218.5 134,-218.5"/>
<text text-anchor="middle" x="171" y="-225.5" font-family="Helvetica,sans-Serif" font-size="10.00">motionFunc</text>
</a>
</g>
</g>
<!-- Node1&#45;&gt;Node7 -->
<g id="edge6" class="edge">
<title>Node1&#45;&gt;Node7</title>
<path fill="none" stroke="midnightblue" d="M52.01,-180.54C66.01,-188.86 87.35,-200.84 107,-209 112.47,-211.27 118.32,-213.41 124.16,-215.36"/>
<polygon fill="midnightblue" stroke="midnightblue" points="123.32,-218.77 133.91,-218.48 125.45,-212.1 123.32,-218.77"/>
</g>
<!-- Node8 -->
<g id="node8" class="node">
<title>Node8</title>
<g id="a_node8"><a xlink:href="group__input.html#gad48076b61c0ddb6bd4fadf644bf59ff1" target="_top" xlink:title=" ">
<polygon fill="white" stroke="black" points="135,-180.5 135,-199.5 207,-199.5 207,-180.5 135,-180.5"/>
<text text-anchor="middle" x="171" y="-187.5" font-family="Helvetica,sans-Serif" font-size="10.00">mouseFunc</text>
</a>
</g>
</g>
<!-- Node1&#45;&gt;Node8 -->
<g id="edge8" class="edge">
<title>Node1&#45;&gt;Node8</title>
<path fill="none" stroke="midnightblue" d="M71.23,-175.94C87.63,-178.28 107.42,-181.09 124.96,-183.59"/>
<polygon fill="midnightblue" stroke="midnightblue" points="124.59,-187.07 134.98,-185.02 125.58,-180.14 124.59,-187.07"/>
</g>
<!-- Node10 -->
<g id="node10" class="node">
<title>Node10</title>
<g id="a_node10"><a xlink:href="group__engine.html#ga91c42686f3245f22fb6b17ba5372d92c" target="_top" xlink:title=" ">
<polygon fill="white" stroke="black" points="132.5,-66.5 132.5,-85.5 209.5,-85.5 209.5,-66.5 132.5,-66.5"/>
<text text-anchor="middle" x="171" y="-73.5" font-family="Helvetica,sans-Serif" font-size="10.00">renderScene</text>
</a>
</g>
</g>
<!-- Node1&#45;&gt;Node10 -->
<g id="edge11" class="edge">
<title>Node1&#45;&gt;Node10</title>
<path fill="none" stroke="midnightblue" d="M42.88,-161.3C53.99,-145.16 78.45,-112.82 107,-95 111.79,-92.01 117.07,-89.47 122.48,-87.32"/>
<polygon fill="midnightblue" stroke="midnightblue" points="124.02,-90.48 132.28,-83.84 121.68,-83.89 124.02,-90.48"/>
</g>
<!-- Node15 -->
<g id="node15" class="node">
<title>Node15</title>
<g id="a_node15"><a xlink:href="group__engine.html#ga2b6a8884687b3fe271b099a450a82d24" target="_top" xlink:title=" ">
<polygon fill="white" stroke="black" points="107,-104.5 107,-123.5 235,-123.5 235,-104.5 107,-104.5"/>
<text text-anchor="middle" x="171" y="-111.5" font-family="Helvetica,sans-Serif" font-size="10.00">xml_load_and_set_env</text>
</a>
</g>
</g>
<!-- Node1&#45;&gt;Node15 -->
<g id="edge17" class="edge">
<title>Node1&#45;&gt;Node15</title>
<path fill="none" stroke="midnightblue" d="M52.01,-161.46C66.01,-153.14 87.35,-141.16 107,-133 112.47,-130.73 118.32,-128.59 124.16,-126.64"/>
<polygon fill="midnightblue" stroke="midnightblue" points="125.45,-129.9 133.91,-123.52 123.32,-123.23 125.45,-129.9"/>
</g>
<!-- Node4 -->
<g id="node4" class="node">
<title>Node4</title>
<g id="a_node4"><a xlink:href="group__engine.html#ga8679d9b303f36964bf51dba0993caeaa" target="_top" xlink:title=" ">
<polygon fill="white" stroke="black" points="277.5,-142.5 277.5,-161.5 383.5,-161.5 383.5,-142.5 277.5,-142.5"/>
<text text-anchor="middle" x="330.5" y="-149.5" font-family="Helvetica,sans-Serif" font-size="10.00">env_load_defaults</text>
</a>
</g>
</g>
<!-- Node3&#45;&gt;Node4 -->
<g id="edge3" class="edge">
<title>Node3&#45;&gt;Node4</title>
<path fill="none" stroke="midnightblue" d="M213.38,-152C229.84,-152 249.13,-152 267.21,-152"/>
<polygon fill="midnightblue" stroke="midnightblue" points="267.39,-155.5 277.39,-152 267.39,-148.5 267.39,-155.5"/>
</g>
<!-- Node5 -->
<g id="node5" class="node">
<title>Node5</title>
<g id="a_node5"><a xlink:href="group__engine.html#gab9813926390dc5773baf0b20dc2ea16e" target="_top" xlink:title=" ">
<polygon fill="white" stroke="black" points="299.5,-218.5 299.5,-237.5 361.5,-237.5 361.5,-218.5 299.5,-218.5"/>
<text text-anchor="middle" x="330.5" y="-225.5" font-family="Helvetica,sans-Serif" font-size="10.00">redisplay</text>
</a>
</g>
</g>
<!-- Node3&#45;&gt;Node5 -->
<g id="edge4" class="edge">
<title>Node3&#45;&gt;Node5</title>
<path fill="none" stroke="midnightblue" d="M209.21,-161.54C217.83,-164.21 226.86,-167.38 235,-171 261.18,-182.63 289.02,-200.12 307.65,-212.66"/>
<polygon fill="midnightblue" stroke="midnightblue" points="305.77,-215.61 316,-218.37 309.72,-209.83 305.77,-215.61"/>
</g>
<!-- Node6 -->
<g id="node6" class="node">
<title>Node6</title>
<g id="a_node6"><a xlink:href="group__spherical.html#gab5ff5216bffd1e15798677f24213213d" target="_top" xlink:title=" ">
<polygon fill="white" stroke="black" points="437,-218.5 437,-237.5 550,-237.5 550,-218.5 437,-218.5"/>
<text text-anchor="middle" x="493.5" y="-225.5" font-family="Helvetica,sans-Serif" font-size="10.00">spherical2Cartesian</text>
</a>
</g>
</g>
<!-- Node5&#45;&gt;Node6 -->
<g id="edge5" class="edge">
<title>Node5&#45;&gt;Node6</title>
<path fill="none" stroke="midnightblue" d="M361.78,-228C380.11,-228 404.22,-228 426.73,-228"/>
<polygon fill="midnightblue" stroke="midnightblue" points="426.94,-231.5 436.94,-228 426.94,-224.5 426.94,-231.5"/>
</g>
<!-- Node7&#45;&gt;Node5 -->
<g id="edge7" class="edge">
<title>Node7&#45;&gt;Node5</title>
<path fill="none" stroke="midnightblue" d="M208.13,-228C232.29,-228 264.11,-228 289.1,-228"/>
<polygon fill="midnightblue" stroke="midnightblue" points="289.35,-231.5 299.35,-228 289.35,-224.5 289.35,-231.5"/>
</g>
<!-- Node8&#45;&gt;Node5 -->
<g id="edge10" class="edge">
<title>Node8&#45;&gt;Node5</title>
<path fill="none" stroke="midnightblue" d="M207.35,-198.53C231.66,-204.39 264,-212.2 289.29,-218.3"/>
<polygon fill="midnightblue" stroke="midnightblue" points="288.77,-221.77 299.31,-220.72 290.41,-214.97 288.77,-221.77"/>
</g>
<!-- Node9 -->
<g id="node9" class="node">
<title>Node9</title>
<g id="a_node9"><a xlink:href="group__spherical.html#ga2a22d15f7463ccd8f8d1aa65e7578983" target="_top" xlink:title=" ">
<polygon fill="white" stroke="black" points="437,-76.5 437,-95.5 550,-95.5 550,-76.5 437,-76.5"/>
<text text-anchor="middle" x="493.5" y="-83.5" font-family="Helvetica,sans-Serif" font-size="10.00">cartesian2Spherical</text>
</a>
</g>
</g>
<!-- Node8&#45;&gt;Node9 -->
<g id="edge9" class="edge">
<title>Node8&#45;&gt;Node9</title>
<path fill="none" stroke="midnightblue" d="M207.1,-193.2C251.47,-195.87 329.38,-195.89 390,-171 394.89,-168.99 445.14,-126.45 473.42,-102.33"/>
<polygon fill="midnightblue" stroke="midnightblue" points="475.75,-104.93 481.08,-95.78 471.21,-99.61 475.75,-104.93"/>
</g>
<!-- Node11 -->
<g id="node11" class="node">
<title>Node11</title>
<g id="a_node11"><a xlink:href="engine_8cpp.html#a634dba686e70e7ff3f10c37d11f463da" target="_top" xlink:title=" ">
<polygon fill="white" stroke="black" points="296,-28.5 296,-47.5 365,-47.5 365,-28.5 296,-28.5"/>
<text text-anchor="middle" x="330.5" y="-35.5" font-family="Helvetica,sans-Serif" font-size="10.00">draw_axes</text>
</a>
</g>
</g>
<!-- Node10&#45;&gt;Node11 -->
<g id="edge12" class="edge">
<title>Node10&#45;&gt;Node11</title>
<path fill="none" stroke="midnightblue" d="M209.73,-66.9C232.66,-61.36 262.03,-54.28 285.95,-48.51"/>
<polygon fill="midnightblue" stroke="midnightblue" points="286.93,-51.87 295.83,-46.12 285.29,-45.07 286.93,-51.87"/>
</g>
<!-- Node12 -->
<g id="node12" class="node">
<title>Node12</title>
<g id="a_node12"><a xlink:href="group___operations.html#ga887f20c10a27832ea24178203a47fcc2" target="_top" xlink:title=" ">
<polygon fill="white" stroke="black" points="278,-66.5 278,-85.5 383,-85.5 383,-66.5 278,-66.5"/>
<text text-anchor="middle" x="330.5" y="-73.5" font-family="Helvetica,sans-Serif" font-size="10.00">operations_render</text>
</a>
</g>
</g>
<!-- Node10&#45;&gt;Node12 -->
<g id="edge13" class="edge">
<title>Node10&#45;&gt;Node12</title>
<path fill="none" stroke="midnightblue" d="M209.73,-76C227.08,-76 248.13,-76 267.71,-76"/>
<polygon fill="midnightblue" stroke="midnightblue" points="267.79,-79.5 277.79,-76 267.79,-72.5 267.79,-79.5"/>
</g>
<!-- Node12&#45;&gt;Node9 -->
<g id="edge15" class="edge">
<title>Node12&#45;&gt;Node9</title>
<path fill="none" stroke="midnightblue" d="M383.33,-79.22C397.09,-80.07 412.13,-81.01 426.53,-81.9"/>
<polygon fill="midnightblue" stroke="midnightblue" points="426.68,-85.42 436.88,-82.55 427.11,-78.43 426.68,-85.42"/>
</g>
<!-- Node13 -->
<g id="node13" class="node">
<title>Node13</title>
<g id="a_node13"><a xlink:href="group__model_engine.html#ga56beba311d0a6fcbda9aeb516fe67f8f" target="_top" xlink:title=" ">
<polygon fill="white" stroke="black" points="458.5,-38.5 458.5,-57.5 528.5,-57.5 528.5,-38.5 458.5,-38.5"/>
<text text-anchor="middle" x="493.5" y="-45.5" font-family="Helvetica,sans-Serif" font-size="10.00">allocModel</text>
</a>
</g>
</g>
<!-- Node12&#45;&gt;Node13 -->
<g id="edge14" class="edge">
<title>Node12&#45;&gt;Node13</title>
<path fill="none" stroke="midnightblue" d="M383.33,-66.99C404.15,-63.37 427.92,-59.23 447.95,-55.75"/>
<polygon fill="midnightblue" stroke="midnightblue" points="448.79,-59.15 458.04,-53.99 447.59,-52.26 448.79,-59.15"/>
</g>
<!-- Node14 -->
<g id="node14" class="node">
<title>Node14</title>
<g id="a_node14"><a xlink:href="group__model_engine.html#ga9b0aa26dead35aab4fa6be0709998046" target="_top" xlink:title=" ">
<polygon fill="white" stroke="black" points="454.5,-0.5 454.5,-19.5 532.5,-19.5 532.5,-0.5 454.5,-0.5"/>
<text text-anchor="middle" x="493.5" y="-7.5" font-family="Helvetica,sans-Serif" font-size="10.00">renderModel</text>
</a>
</g>
</g>
<!-- Node12&#45;&gt;Node14 -->
<g id="edge16" class="edge">
<title>Node12&#45;&gt;Node14</title>
<path fill="none" stroke="midnightblue" d="M367.58,-66.46C375.19,-63.85 383.02,-60.7 390,-57 407.91,-47.5 407.93,-38.17 426,-29 431.76,-26.08 438.04,-23.54 444.36,-21.36"/>
<polygon fill="midnightblue" stroke="midnightblue" points="445.79,-24.58 454.27,-18.22 443.68,-17.91 445.79,-24.58"/>
</g>
<!-- Node15&#45;&gt;Node4 -->
<g id="edge18" class="edge">
<title>Node15&#45;&gt;Node4</title>
<path fill="none" stroke="midnightblue" d="M211.74,-123.59C232.53,-128.6 258.16,-134.79 280.2,-140.11"/>
<polygon fill="midnightblue" stroke="midnightblue" points="279.5,-143.54 290.04,-142.48 281.14,-136.73 279.5,-143.54"/>
</g>
<!-- Node15&#45;&gt;Node12 -->
<g id="edge27" class="edge">
<title>Node15&#45;&gt;Node12</title>
<path fill="none" stroke="midnightblue" d="M211.74,-104.41C232.53,-99.4 258.16,-93.21 280.2,-87.89"/>
<polygon fill="midnightblue" stroke="midnightblue" points="281.14,-91.27 290.04,-85.52 279.5,-84.46 281.14,-91.27"/>
</g>
<!-- Node16 -->
<g id="node16" class="node">
<title>Node16</title>
<g id="a_node16"><a xlink:href="group__xml.html#gac937a83a82258806ef77b02f97ef0834" target="_top" xlink:title=" ">
<polygon fill="white" stroke="black" points="271,-104.5 271,-123.5 390,-123.5 390,-104.5 271,-104.5"/>
<text text-anchor="middle" x="330.5" y="-111.5" font-family="Helvetica,sans-Serif" font-size="10.00">operations_load_xml</text>
</a>
</g>
</g>
<!-- Node15&#45;&gt;Node16 -->
<g id="edge19" class="edge">
<title>Node15&#45;&gt;Node16</title>
<path fill="none" stroke="midnightblue" d="M235.15,-114C243.55,-114 252.19,-114 260.68,-114"/>
<polygon fill="midnightblue" stroke="midnightblue" points="260.93,-117.5 270.93,-114 260.93,-110.5 260.93,-117.5"/>
</g>
<!-- Node17 -->
<g id="node17" class="node">
<title>Node17</title>
<g id="a_node17"><a xlink:href="group___groups.html#ga72c2d5ef943a89f829c08f6707e7669d" target="_top" xlink:title=" ">
<polygon fill="white" stroke="black" points="426,-152.5 426,-171.5 561,-171.5 561,-152.5 426,-152.5"/>
<text text-anchor="middle" x="493.5" y="-159.5" font-family="Helvetica,sans-Serif" font-size="10.00">operations_push_groups</text>
</a>
</g>
</g>
<!-- Node16&#45;&gt;Node17 -->
<g id="edge20" class="edge">
<title>Node16&#45;&gt;Node17</title>
<path fill="none" stroke="midnightblue" d="M363.69,-123.6C388.7,-131.05 423.58,-141.45 450.74,-149.55"/>
<polygon fill="midnightblue" stroke="midnightblue" points="449.78,-152.92 460.36,-152.42 451.78,-146.21 449.78,-152.92"/>
</g>
<!-- Node21 -->
<g id="node21" class="node">
<title>Node21</title>
<g id="a_node21"><a xlink:href="group___transforms.html#gaa15fe56d7980e7877845f3bc09125017" target="_top" xlink:title=" ">
<polygon fill="white" stroke="black" points="788,-125 788,-155 938,-155 938,-125 788,-125"/>
<text text-anchor="start" x="796" y="-143" font-family="Helvetica,sans-Serif" font-size="10.00">operations_push_transform</text>
<text text-anchor="middle" x="863" y="-132" font-family="Helvetica,sans-Serif" font-size="10.00">_attributes</text>
</a>
</g>
</g>
<!-- Node16&#45;&gt;Node21 -->
<g id="edge26" class="edge">
<title>Node16&#45;&gt;Node21</title>
<path fill="none" stroke="midnightblue" d="M390.04,-116.87C484.02,-121.48 668.95,-130.54 777.32,-135.85"/>
<polygon fill="midnightblue" stroke="midnightblue" points="777.4,-139.36 787.56,-136.35 777.74,-132.37 777.4,-139.36"/>
</g>
<!-- Node17&#45;&gt;Node17 -->
<g id="edge21" class="edge">
<title>Node17&#45;&gt;Node17</title>
<path fill="none" stroke="midnightblue" d="M468.53,-171.76C456.38,-180.57 464.71,-190 493.5,-190 512.85,-190 522.95,-185.74 523.81,-180.27"/>
<polygon fill="midnightblue" stroke="midnightblue" points="526.75,-178.37 518.47,-171.76 520.82,-182.09 526.75,-178.37"/>
</g>
<!-- Node18 -->
<g id="node18" class="node">
<title>Node18</title>
<g id="a_node18"><a xlink:href="group___models.html#gaca17d77a06e750f5cd95c1b79e1a8a30" target="_top" xlink:title=" ">
<polygon fill="white" stroke="black" points="605.5,-190.5 605.5,-209.5 743.5,-209.5 743.5,-190.5 605.5,-190.5"/>
<text text-anchor="middle" x="674.5" y="-197.5" font-family="Helvetica,sans-Serif" font-size="10.00">operations_push_models</text>
</a>
</g>
</g>
<!-- Node17&#45;&gt;Node18 -->
<g id="edge22" class="edge">
<title>Node17&#45;&gt;Node18</title>
<path fill="none" stroke="midnightblue" d="M539.67,-171.59C563.72,-176.69 593.47,-183.01 618.82,-188.39"/>
<polygon fill="midnightblue" stroke="midnightblue" points="618.15,-191.83 628.66,-190.48 619.6,-184.98 618.15,-191.83"/>
</g>
<!-- Node20 -->
<g id="node20" class="node">
<title>Node20</title>
<g id="a_node20"><a xlink:href="group___transforms.html#gaaa78b92f0257bb4755731622692de0cb" target="_top" xlink:title=" ">
<polygon fill="white" stroke="black" points="597,-152.5 597,-171.5 752,-171.5 752,-152.5 597,-152.5"/>
<text text-anchor="middle" x="674.5" y="-159.5" font-family="Helvetica,sans-Serif" font-size="10.00">operations_push_transforms</text>
</a>
</g>
</g>
<!-- Node17&#45;&gt;Node20 -->
<g id="edge24" class="edge">
<title>Node17&#45;&gt;Node20</title>
<path fill="none" stroke="midnightblue" d="M561.15,-162C569.51,-162 578.16,-162 586.77,-162"/>
<polygon fill="midnightblue" stroke="midnightblue" points="586.84,-165.5 596.84,-162 586.84,-158.5 586.84,-165.5"/>
</g>
<!-- Node19 -->
<g id="node19" class="node">
<title>Node19</title>
<g id="a_node19"><a xlink:href="group___models.html#ga5dc84f3f40c0bb6ad63dc2da3793ddd9" target="_top" xlink:title=" ">
<polygon fill="white" stroke="black" points="796.5,-190.5 796.5,-209.5 929.5,-209.5 929.5,-190.5 796.5,-190.5"/>
<text text-anchor="middle" x="863" y="-197.5" font-family="Helvetica,sans-Serif" font-size="10.00">operations_push_model</text>
</a>
</g>
</g>
<!-- Node18&#45;&gt;Node19 -->
<g id="edge23" class="edge">
<title>Node18&#45;&gt;Node19</title>
<path fill="none" stroke="midnightblue" d="M743.62,-200C757.44,-200 772.05,-200 786.11,-200"/>
<polygon fill="midnightblue" stroke="midnightblue" points="786.24,-203.5 796.24,-200 786.24,-196.5 786.24,-203.5"/>
</g>
<!-- Node20&#45;&gt;Node21 -->
<g id="edge25" class="edge">
<title>Node20&#45;&gt;Node21</title>
<path fill="none" stroke="midnightblue" d="M752.16,-152.96C760.61,-151.96 769.25,-150.94 777.78,-149.93"/>
<polygon fill="midnightblue" stroke="midnightblue" points="778.22,-153.41 787.74,-148.76 777.4,-146.46 778.22,-153.41"/>
</g>
</g>
</svg>
