<?xml version="1.0" encoding="UTF-8" standalone="no"?>
<!DOCTYPE svg PUBLIC "-//W3C//DTD SVG 1.1//EN"
 "http://www.w3.org/Graphics/SVG/1.1/DTD/svg11.dtd">
<!-- Generated by graphviz version 3.0.0 (0)
 -->
<!-- Title: engine_run Pages: 1 -->
<!--zoomable 682 -->
<svg id="main" version="1.1" xmlns="http://www.w3.org/2000/svg" xmlns:xlink="http://www.w3.org/1999/xlink" xml:space="preserve" onload="init(evt)">
<style type="text/css"><![CDATA[
.edge:hover path { stroke: red; }
.edge:hover polygon { stroke: red; fill: red; }
]]></style>
<script type="text/javascript"><![CDATA[
var edges = document.getElementsByTagName('g');
if (edges && edges.length) {
  for (var i=0;i<edges.length;i++) {
    if (edges[i].id.substr(0,4)=='edge') {
      edges[i].setAttribute('class','edge');
    }
  }
}
]]></script>
        <defs>
                <circle id="rim" cx="0" cy="0" r="7"/>
                <circle id="rim2" cx="0" cy="0" r="3.5"/>
                <g id="zoomPlus">
                        <use xlink:href="#rim" fill="#404040">
                                <set attributeName="fill" to="#808080" begin="zoomplus.mouseover" end="zoomplus.mouseout"/>
                        </use>
                        <path d="M-4,0h8M0,-4v8" fill="none" stroke="white" stroke-width="1.5" pointer-events="none"/>
                </g>
                <g id="zoomMin">
                        <use xlink:href="#rim" fill="#404040">
                                <set attributeName="fill" to="#808080" begin="zoomminus.mouseover" end="zoomminus.mouseout"/>
                        </use>
                        <path d="M-4,0h8" fill="none" stroke="white" stroke-width="1.5" pointer-events="none"/>
                </g>
                <g id="dirArrow">
                        <path fill="none" stroke="white" stroke-width="1.5" d="M0,-3.0v7 M-2.5,-0.5L0,-3.0L2.5,-0.5"/>
                </g>
               <g id="resetDef">
                       <use xlink:href="#rim2" fill="#404040">
                               <set attributeName="fill" to="#808080" begin="reset.mouseover" end="reset.mouseout"/>
                       </use>
               </g>
        </defs>

<script type="text/javascript">
var viewWidth = 1056;
var viewHeight = 682;
var sectionId = 'dynsection-1';
</script>
<script xlink:href="svgpan.js"/>
<svg id="graph" class="graph">
<g id="viewport">
<title>engine_run</title>
<polygon fill="white" stroke="transparent" points="-4,4 -4,-678 1052,-678 1052,4 -4,4"/>
<!-- Node1 -->
<g id="node1" class="node">
<title>Node1</title>
<g id="a_node1"><a xlink:title=" ">
<polygon fill="#bfbfbf" stroke="black" points="0,-426.5 0,-445.5 71,-445.5 71,-426.5 0,-426.5"/>
<text text-anchor="middle" x="35.5" y="-433.5" font-family="Helvetica,sans-Serif" font-size="10.00">engine_run</text>
</a>
</g>
</g>
<!-- Node2 -->
<g id="node2" class="node">
<title>Node2</title>
<g id="a_node2"><a xlink:href="group__camera.html#ga4eec7d736381fd000f84ccb4f2d844da" target="_top" xlink:title=" ">
<polygon fill="white" stroke="black" points="296,-464.5 296,-483.5 365,-483.5 365,-464.5 296,-464.5"/>
<text text-anchor="middle" x="330.5" y="-471.5" font-family="Helvetica,sans-Serif" font-size="10.00">loadProfile</text>
</a>
</g>
</g>
<!-- Node1&#45;&gt;Node2 -->
<g id="edge1" class="edge">
<title>Node1&#45;&gt;Node2</title>
<path fill="none" stroke="midnightblue" d="M67.12,-445.53C79.4,-449.01 93.77,-452.67 107,-455 168.46,-465.82 240.59,-470.54 285.68,-472.56"/>
<polygon fill="midnightblue" stroke="midnightblue" points="285.57,-476.06 295.71,-472.98 285.87,-469.07 285.57,-476.06"/>
</g>
<!-- Node3 -->
<g id="node3" class="node">
<title>Node3</title>
<g id="a_node3"><a xlink:href="group__engine.html#ga91c42686f3245f22fb6b17ba5372d92c" target="_top" xlink:title=" ">
<polygon fill="white" stroke="black" points="132.5,-426.5 132.5,-445.5 209.5,-445.5 209.5,-426.5 132.5,-426.5"/>
<text text-anchor="middle" x="171" y="-433.5" font-family="Helvetica,sans-Serif" font-size="10.00">renderScene</text>
</a>
</g>
</g>
<!-- Node1&#45;&gt;Node3 -->
<g id="edge2" class="edge">
<title>Node1&#45;&gt;Node3</title>
<path fill="none" stroke="midnightblue" d="M71.23,-436C86.71,-436 105.2,-436 121.98,-436"/>
<polygon fill="midnightblue" stroke="midnightblue" points="122.16,-439.5 132.16,-436 122.16,-432.5 122.16,-439.5"/>
</g>
<!-- Node23 -->
<g id="node23" class="node">
<title>Node23</title>
<g id="a_node23"><a xlink:href="group__engine.html#ga7148688af5abea686f74d15a50bd20ae" target="_top" xlink:title=" ">
<polygon fill="white" stroke="black" points="107,-331.5 107,-350.5 235,-350.5 235,-331.5 107,-331.5"/>
<text text-anchor="middle" x="171" y="-338.5" font-family="Helvetica,sans-Serif" font-size="10.00">xml_load_and_set_env</text>
</a>
</g>
</g>
<!-- Node1&#45;&gt;Node23 -->
<g id="edge24" class="edge">
<title>Node1&#45;&gt;Node23</title>
<path fill="none" stroke="midnightblue" d="M50.28,-426.19C73.49,-409.68 120.52,-376.21 148.23,-356.49"/>
<polygon fill="midnightblue" stroke="midnightblue" points="150.37,-359.26 156.49,-350.61 146.31,-353.56 150.37,-359.26"/>
</g>
<!-- Node3&#45;&gt;Node2 -->
<g id="edge4" class="edge">
<title>Node3&#45;&gt;Node2</title>
<path fill="none" stroke="midnightblue" d="M209.73,-445.1C232.66,-450.64 262.03,-457.72 285.95,-463.49"/>
<polygon fill="midnightblue" stroke="midnightblue" points="285.29,-466.93 295.83,-465.88 286.93,-460.13 285.29,-466.93"/>
</g>
<!-- Node4 -->
<g id="node4" class="node">
<title>Node4</title>
<g id="a_node4"><a xlink:href="engine_8cpp.html#a634dba686e70e7ff3f10c37d11f463da" target="_top" xlink:title=" ">
<polygon fill="white" stroke="black" points="296,-426.5 296,-445.5 365,-445.5 365,-426.5 296,-426.5"/>
<text text-anchor="middle" x="330.5" y="-433.5" font-family="Helvetica,sans-Serif" font-size="10.00">draw_axes</text>
</a>
</g>
</g>
<!-- Node3&#45;&gt;Node4 -->
<g id="edge3" class="edge">
<title>Node3&#45;&gt;Node4</title>
<path fill="none" stroke="midnightblue" d="M209.73,-436C232.56,-436 261.77,-436 285.63,-436"/>
<polygon fill="midnightblue" stroke="midnightblue" points="285.83,-439.5 295.83,-436 285.83,-432.5 285.83,-439.5"/>
</g>
<!-- Node5 -->
<g id="node5" class="node">
<title>Node5</title>
<g id="a_node5"><a xlink:href="group___operations.html#ga8d5a19a3522cea1b4254684cf6515d13" target="_top" xlink:title=" ">
<polygon fill="white" stroke="black" points="278,-388.5 278,-407.5 383,-407.5 383,-388.5 278,-388.5"/>
<text text-anchor="middle" x="330.5" y="-395.5" font-family="Helvetica,sans-Serif" font-size="10.00">operations_render</text>
</a>
</g>
</g>
<!-- Node3&#45;&gt;Node5 -->
<g id="edge5" class="edge">
<title>Node3&#45;&gt;Node5</title>
<path fill="none" stroke="midnightblue" d="M209.73,-426.9C230.81,-421.81 257.34,-415.41 280.07,-409.93"/>
<polygon fill="midnightblue" stroke="midnightblue" points="280.98,-413.31 289.88,-407.56 279.34,-406.5 280.98,-413.31"/>
</g>
<!-- Node6 -->
<g id="node6" class="node">
<title>Node6</title>
<g id="a_node6"><a xlink:href="group__model_engine.html#ga2ca8791f2c1829e3df5d449129d21c32" target="_top" xlink:title=" ">
<polygon fill="white" stroke="black" points="426,-502.5 426,-521.5 568,-521.5 568,-502.5 426,-502.5"/>
<text text-anchor="middle" x="497" y="-509.5" font-family="Helvetica,sans-Serif" font-size="10.00">addTextureImageToModel</text>
</a>
</g>
</g>
<!-- Node5&#45;&gt;Node6 -->
<g id="edge6" class="edge">
<title>Node5&#45;&gt;Node6</title>
<path fill="none" stroke="midnightblue" d="M374.9,-407.57C380.37,-410.03 385.59,-413.12 390,-417 418.07,-441.68 397.34,-469.02 426,-493 428.03,-494.7 430.19,-496.24 432.46,-497.65"/>
<polygon fill="midnightblue" stroke="midnightblue" points="431.16,-500.92 441.64,-502.44 434.39,-494.71 431.16,-500.92"/>
</g>
<!-- Node7 -->
<g id="node7" class="node">
<title>Node7</title>
<g id="a_node7"><a xlink:href="curves_8cpp.html#a821c8cbf0a47b918c60a4912b733e6bd" target="_top" xlink:title=" ">
<polygon fill="white" stroke="black" points="445,-464.5 445,-483.5 549,-483.5 549,-464.5 445,-464.5"/>
<text text-anchor="middle" x="497" y="-471.5" font-family="Helvetica,sans-Serif" font-size="10.00">advance_in_curve</text>
</a>
</g>
</g>
<!-- Node5&#45;&gt;Node7 -->
<g id="edge7" class="edge">
<title>Node5&#45;&gt;Node7</title>
<path fill="none" stroke="midnightblue" d="M369.04,-407.55C376.24,-410.11 383.54,-413.23 390,-417 408.75,-427.94 407.34,-438.91 426,-450 433.15,-454.25 441.15,-457.88 449.12,-460.94"/>
<polygon fill="midnightblue" stroke="midnightblue" points="448.18,-464.32 458.77,-464.38 450.53,-457.72 448.18,-464.32"/>
</g>
<!-- Node12 -->
<g id="node12" class="node">
<title>Node12</title>
<g id="a_node12"><a xlink:href="engine_8cpp.html#a072c434cfd125e58ac1cec9a5725688a" target="_top" xlink:title=" ">
<polygon fill="white" stroke="black" points="439,-654.5 439,-673.5 555,-673.5 555,-654.5 439,-654.5"/>
<text text-anchor="middle" x="497" y="-661.5" font-family="Helvetica,sans-Serif" font-size="10.00">advance_in_rotation</text>
</a>
</g>
</g>
<!-- Node5&#45;&gt;Node12 -->
<g id="edge12" class="edge">
<title>Node5&#45;&gt;Node12</title>
<path fill="none" stroke="midnightblue" d="M378.01,-407.53C382.54,-410 386.67,-413.1 390,-417 456.61,-495.02 357.5,-568.63 426,-645 427.36,-646.51 428.82,-647.91 430.37,-649.2"/>
<polygon fill="midnightblue" stroke="midnightblue" points="428.51,-652.16 438.77,-654.8 432.39,-646.34 428.51,-652.16"/>
</g>
<!-- Node13 -->
<g id="node13" class="node">
<title>Node13</title>
<g id="a_node13"><a xlink:href="namespace_d.html#a393bfec992f13a40a9f601e3e6c82874" target="_top" xlink:title=" ">
<polygon fill="white" stroke="black" points="459.5,-274.5 459.5,-293.5 534.5,-293.5 534.5,-274.5 459.5,-274.5"/>
<text text-anchor="middle" x="497" y="-281.5" font-family="Helvetica,sans-Serif" font-size="10.00">D::cartesian</text>
</a>
</g>
</g>
<!-- Node5&#45;&gt;Node13 -->
<g id="edge13" class="edge">
<title>Node5&#45;&gt;Node13</title>
<path fill="none" stroke="midnightblue" d="M338.36,-388.27C352.48,-368.98 386.78,-325.8 426,-303 433.2,-298.82 441.35,-295.53 449.48,-292.95"/>
<polygon fill="midnightblue" stroke="midnightblue" points="450.66,-296.25 459.32,-290.14 448.74,-289.52 450.66,-296.25"/>
</g>
<!-- Node14 -->
<g id="node14" class="node">
<title>Node14</title>
<g id="a_node14"><a xlink:href="group__explorer_camera.html#ga2bd01f833407b47f26121736925e24fc" target="_top" xlink:title=" ">
<polygon fill="white" stroke="black" points="440.5,-616.5 440.5,-635.5 553.5,-635.5 553.5,-616.5 440.5,-616.5"/>
<text text-anchor="middle" x="497" y="-623.5" font-family="Helvetica,sans-Serif" font-size="10.00">cartesian2Spherical</text>
</a>
</g>
</g>
<!-- Node5&#45;&gt;Node14 -->
<g id="edge14" class="edge">
<title>Node5&#45;&gt;Node14</title>
<path fill="none" stroke="midnightblue" d="M377.89,-407.63C382.44,-410.08 386.61,-413.15 390,-417 446.8,-481.5 367.64,-543.91 426,-607 427.63,-608.76 429.41,-610.37 431.3,-611.84"/>
<polygon fill="midnightblue" stroke="midnightblue" points="429.9,-615.08 440.25,-617.37 433.59,-609.13 429.9,-615.08"/>
</g>
<!-- Node15 -->
<g id="node15" class="node">
<title>Node15</title>
<g id="a_node15"><a xlink:href="group__model_engine.html#gac02eaf37d06ce4074af34bcf4c2ebec6" target="_top" xlink:title=" ">
<polygon fill="white" stroke="black" points="466,-578.5 466,-597.5 528,-597.5 528,-578.5 466,-578.5"/>
<text text-anchor="middle" x="497" y="-585.5" font-family="Helvetica,sans-Serif" font-size="10.00">getModel</text>
</a>
</g>
</g>
<!-- Node5&#45;&gt;Node15 -->
<g id="edge15" class="edge">
<title>Node5&#45;&gt;Node15</title>
<path fill="none" stroke="midnightblue" d="M377.44,-407.63C382.12,-410.08 386.45,-413.15 390,-417 437.05,-468.05 377.71,-519.12 426,-569 433.91,-577.17 444.96,-581.95 455.94,-584.7"/>
<polygon fill="midnightblue" stroke="midnightblue" points="455.42,-588.16 465.92,-586.7 456.8,-581.3 455.42,-588.16"/>
</g>
<!-- Node16 -->
<g id="node16" class="node">
<title>Node16</title>
<g id="a_node16"><a xlink:href="namespace_d.html#ae27403f76d7334ff69a099e42f1f1616" target="_top" xlink:title=" ">
<polygon fill="white" stroke="black" points="468,-236.5 468,-255.5 526,-255.5 526,-236.5 468,-236.5"/>
<text text-anchor="middle" x="497" y="-243.5" font-family="Helvetica,sans-Serif" font-size="10.00">D::origin</text>
</a>
</g>
</g>
<!-- Node5&#45;&gt;Node16 -->
<g id="edge16" class="edge">
<title>Node5&#45;&gt;Node16</title>
<path fill="none" stroke="midnightblue" d="M337.19,-388.31C353.64,-360.61 401.61,-282.01 426,-265 435.41,-258.44 446.99,-254.14 458,-251.32"/>
<polygon fill="midnightblue" stroke="midnightblue" points="458.87,-254.72 467.87,-249.13 457.35,-247.88 458.87,-254.72"/>
</g>
<!-- Node17 -->
<g id="node17" class="node">
<title>Node17</title>
<g id="a_node17"><a xlink:href="namespace_d.html#aa2fb96ccebb5bf88d4325f85beb99d84" target="_top" xlink:title="(radius,zenith,azimuth)">
<polygon fill="white" stroke="black" points="469.5,-198.5 469.5,-217.5 524.5,-217.5 524.5,-198.5 469.5,-198.5"/>
<text text-anchor="middle" x="497" y="-205.5" font-family="Helvetica,sans-Serif" font-size="10.00">D::polar</text>
</a>
</g>
</g>
<!-- Node5&#45;&gt;Node17 -->
<g id="edge17" class="edge">
<title>Node5&#45;&gt;Node17</title>
<path fill="none" stroke="midnightblue" d="M337.84,-388.5C348.98,-371.62 372.54,-335.18 390,-303 407.83,-270.15 397.34,-250.98 426,-227 435.34,-219.19 447.61,-214.57 459.26,-211.84"/>
<polygon fill="midnightblue" stroke="midnightblue" points="460.1,-215.24 469.25,-209.9 458.77,-208.37 460.1,-215.24"/>
</g>
<!-- Node18 -->
<g id="node18" class="node">
<title>Node18</title>
<g id="a_node18"><a xlink:href="namespace_d.html#a49b3788c9a2aae032c6c74d76441aa18" target="_top" xlink:title="(fov,near,var)">
<polygon fill="white" stroke="black" points="457.5,-388.5 457.5,-407.5 536.5,-407.5 536.5,-388.5 457.5,-388.5"/>
<text text-anchor="middle" x="497" y="-395.5" font-family="Helvetica,sans-Serif" font-size="10.00">D::projection</text>
</a>
</g>
</g>
<!-- Node5&#45;&gt;Node18 -->
<g id="edge18" class="edge">
<title>Node5&#45;&gt;Node18</title>
<path fill="none" stroke="midnightblue" d="M383.1,-398C403.56,-398 426.97,-398 447.15,-398"/>
<polygon fill="midnightblue" stroke="midnightblue" points="447.38,-401.5 457.38,-398 447.38,-394.5 447.38,-401.5"/>
</g>
<!-- Node19 -->
<g id="node19" class="node">
<title>Node19</title>
<g id="a_node19"><a xlink:href="curves_8cpp.html#ad812fc50a0384335487e258a6f61714e" target="_top" xlink:title=" ">
<polygon fill="white" stroke="black" points="631.5,-426.5 631.5,-445.5 708.5,-445.5 708.5,-426.5 631.5,-426.5"/>
<text text-anchor="middle" x="670" y="-433.5" font-family="Helvetica,sans-Serif" font-size="10.00">renderCurve</text>
</a>
</g>
</g>
<!-- Node5&#45;&gt;Node19 -->
<g id="edge19" class="edge">
<title>Node5&#45;&gt;Node19</title>
<path fill="none" stroke="midnightblue" d="M373.18,-407.51C389.57,-410.95 408.6,-414.58 426,-417 493.5,-426.39 572.24,-431.48 621.36,-433.97"/>
<polygon fill="midnightblue" stroke="midnightblue" points="621.22,-437.47 631.38,-434.46 621.57,-430.48 621.22,-437.47"/>
</g>
<!-- Node20 -->
<g id="node20" class="node">
<title>Node20</title>
<g id="a_node20"><a xlink:href="group__model_engine.html#ga2907e4adf4f2bef2c8ce416cb8470997" target="_top" xlink:title=" ">
<polygon fill="white" stroke="black" points="458,-540.5 458,-559.5 536,-559.5 536,-540.5 458,-540.5"/>
<text text-anchor="middle" x="497" y="-547.5" font-family="Helvetica,sans-Serif" font-size="10.00">renderModel</text>
</a>
</g>
</g>
<!-- Node5&#45;&gt;Node20 -->
<g id="edge21" class="edge">
<title>Node5&#45;&gt;Node20</title>
<path fill="none" stroke="midnightblue" d="M376.58,-407.6C381.54,-410.05 386.16,-413.13 390,-417 427.42,-454.72 387.67,-494.2 426,-531 432.14,-536.89 439.91,-541 448.03,-543.85"/>
<polygon fill="midnightblue" stroke="midnightblue" points="447.06,-547.21 457.64,-546.65 449.02,-540.49 447.06,-547.21"/>
</g>
<!-- Node21 -->
<g id="node21" class="node">
<title>Node21</title>
<g id="a_node21"><a xlink:href="namespace_d.html#a1ccd692563b2bed3dbd7275b0bd3dbb3" target="_top" xlink:title=" ">
<polygon fill="white" stroke="black" points="469,-350.5 469,-369.5 525,-369.5 525,-350.5 469,-350.5"/>
<text text-anchor="middle" x="497" y="-357.5" font-family="Helvetica,sans-Serif" font-size="10.00">D::scale</text>
</a>
</g>
</g>
<!-- Node5&#45;&gt;Node21 -->
<g id="edge22" class="edge">
<title>Node5&#45;&gt;Node21</title>
<path fill="none" stroke="midnightblue" d="M373.01,-388.41C399.44,-382.3 433.39,-374.46 458.92,-368.57"/>
<polygon fill="midnightblue" stroke="midnightblue" points="460,-371.91 468.95,-366.25 458.42,-365.09 460,-371.91"/>
</g>
<!-- Node22 -->
<g id="node22" class="node">
<title>Node22</title>
<g id="a_node22"><a xlink:href="namespace_d.html#a075a76915f7e2899933f446de8be40d9" target="_top" xlink:title=" ">
<polygon fill="white" stroke="black" points="476,-312.5 476,-331.5 518,-331.5 518,-312.5 476,-312.5"/>
<text text-anchor="middle" x="497" y="-319.5" font-family="Helvetica,sans-Serif" font-size="10.00">D::up</text>
</a>
</g>
</g>
<!-- Node5&#45;&gt;Node22 -->
<g id="edge23" class="edge">
<title>Node5&#45;&gt;Node22</title>
<path fill="none" stroke="midnightblue" d="M344.64,-388.45C362.33,-375.97 395.17,-354.18 426,-341 438.66,-335.59 453.29,-331.33 465.88,-328.23"/>
<polygon fill="midnightblue" stroke="midnightblue" points="466.95,-331.58 475.89,-325.9 465.36,-324.76 466.95,-331.58"/>
</g>
<!-- Node8 -->
<g id="node8" class="node">
<title>Node8</title>
<g id="a_node8"><a xlink:href="curves_8cpp.html#a98b26a4263f61db7149441a99a6d35b6" target="_top" xlink:title=" ">
<polygon fill="white" stroke="black" points="608.5,-464.5 608.5,-483.5 731.5,-483.5 731.5,-464.5 608.5,-464.5"/>
<text text-anchor="middle" x="670" y="-471.5" font-family="Helvetica,sans-Serif" font-size="10.00">align_global_pos_mat</text>
</a>
</g>
</g>
<!-- Node7&#45;&gt;Node8 -->
<g id="edge8" class="edge">
<title>Node7&#45;&gt;Node8</title>
<path fill="none" stroke="midnightblue" d="M549.31,-474C564.7,-474 581.87,-474 598.29,-474"/>
<polygon fill="midnightblue" stroke="midnightblue" points="598.39,-477.5 608.39,-474 598.39,-470.5 598.39,-477.5"/>
</g>
<!-- Node9 -->
<g id="node9" class="node">
<title>Node9</title>
<g id="a_node9"><a xlink:href="curves_8cpp.html#af7cd8d9b34a073c2fd2d7d8187bcff42" target="_top" xlink:title=" ">
<polygon fill="white" stroke="black" points="772,-445.5 772,-464.5 902,-464.5 902,-445.5 772,-445.5"/>
<text text-anchor="middle" x="837" y="-452.5" font-family="Helvetica,sans-Serif" font-size="10.00">get_curve_global_point</text>
</a>
</g>
</g>
<!-- Node8&#45;&gt;Node9 -->
<g id="edge9" class="edge">
<title>Node8&#45;&gt;Node9</title>
<path fill="none" stroke="midnightblue" d="M731.5,-467.03C741.37,-465.9 751.68,-464.71 761.83,-463.54"/>
<polygon fill="midnightblue" stroke="midnightblue" points="762.36,-467 771.9,-462.38 761.56,-460.05 762.36,-467"/>
</g>
<!-- Node10 -->
<g id="node10" class="node">
<title>Node10</title>
<g id="a_node10"><a xlink:href="curves_8cpp.html#afa648d7de8c941b50b26f02755a955b9" target="_top" xlink:title=" ">
<polygon fill="white" stroke="black" points="948.5,-464.5 948.5,-483.5 1037.5,-483.5 1037.5,-464.5 948.5,-464.5"/>
<text text-anchor="middle" x="993" y="-471.5" font-family="Helvetica,sans-Serif" font-size="10.00">get_curve_info</text>
</a>
</g>
</g>
<!-- Node9&#45;&gt;Node10 -->
<g id="edge10" class="edge">
<title>Node9&#45;&gt;Node10</title>
<path fill="none" stroke="midnightblue" d="M902.42,-462.95C914.4,-464.43 926.8,-465.96 938.42,-467.39"/>
<polygon fill="midnightblue" stroke="midnightblue" points="938.04,-470.87 948.4,-468.62 938.9,-463.92 938.04,-470.87"/>
</g>
<!-- Node11 -->
<g id="node11" class="node">
<title>Node11</title>
<g id="a_node11"><a xlink:href="curves_8cpp.html#a6d6def6a76701b08284cba58066e3382" target="_top" xlink:title=" ">
<polygon fill="white" stroke="black" points="938,-426.5 938,-445.5 1048,-445.5 1048,-426.5 938,-426.5"/>
<text text-anchor="middle" x="993" y="-433.5" font-family="Helvetica,sans-Serif" font-size="10.00">get_curve_point_at</text>
</a>
</g>
</g>
<!-- Node9&#45;&gt;Node11 -->
<g id="edge11" class="edge">
<title>Node9&#45;&gt;Node11</title>
<path fill="none" stroke="midnightblue" d="M902.42,-447.05C910.74,-446.03 919.26,-444.97 927.58,-443.95"/>
<polygon fill="midnightblue" stroke="midnightblue" points="928.11,-447.41 937.6,-442.71 927.25,-440.46 928.11,-447.41"/>
</g>
<!-- Node19&#45;&gt;Node9 -->
<g id="edge20" class="edge">
<title>Node19&#45;&gt;Node9</title>
<path fill="none" stroke="midnightblue" d="M708.85,-440.36C724.59,-442.17 743.42,-444.34 761.71,-446.45"/>
<polygon fill="midnightblue" stroke="midnightblue" points="761.46,-449.94 771.8,-447.61 762.26,-442.99 761.46,-449.94"/>
</g>
<!-- Node23&#45;&gt;Node5 -->
<g id="edge41" class="edge">
<title>Node23&#45;&gt;Node5</title>
<path fill="none" stroke="midnightblue" d="M198.36,-350.54C224.37,-359.95 264.33,-374.41 293.3,-384.9"/>
<polygon fill="midnightblue" stroke="midnightblue" points="292.46,-388.32 303.05,-388.43 294.84,-381.73 292.46,-388.32"/>
</g>
<!-- Node24 -->
<g id="node24" class="node">
<title>Node24</title>
<g id="a_node24"><a xlink:href="group__explorer_camera.html#ga8679d9b303f36964bf51dba0993caeaa" target="_top" xlink:title=" ">
<polygon fill="white" stroke="black" points="277.5,-274.5 277.5,-293.5 383.5,-293.5 383.5,-274.5 277.5,-274.5"/>
<text text-anchor="middle" x="330.5" y="-281.5" font-family="Helvetica,sans-Serif" font-size="10.00">env_load_defaults</text>
</a>
</g>
</g>
<!-- Node23&#45;&gt;Node24 -->
<g id="edge25" class="edge">
<title>Node23&#45;&gt;Node24</title>
<path fill="none" stroke="midnightblue" d="M198.36,-331.46C224.37,-322.05 264.33,-307.59 293.3,-297.1"/>
<polygon fill="midnightblue" stroke="midnightblue" points="294.84,-300.27 303.05,-293.57 292.46,-293.68 294.84,-300.27"/>
</g>
<!-- Node27 -->
<g id="node27" class="node">
<title>Node27</title>
<g id="a_node27"><a xlink:href="group___operations.html#ga462c16b6479801f3de982785f509141a" target="_top" xlink:title=" ">
<polygon fill="white" stroke="black" points="271,-151.5 271,-170.5 390,-170.5 390,-151.5 271,-151.5"/>
<text text-anchor="middle" x="330.5" y="-158.5" font-family="Helvetica,sans-Serif" font-size="10.00">operations_load_xml</text>
</a>
</g>
</g>
<!-- Node23&#45;&gt;Node27 -->
<g id="edge34" class="edge">
<title>Node23&#45;&gt;Node27</title>
<path fill="none" stroke="midnightblue" d="M180.47,-331.32C205.89,-302.27 281.81,-215.5 314.38,-178.28"/>
<polygon fill="midnightblue" stroke="midnightblue" points="317.04,-180.56 320.99,-170.73 311.77,-175.95 317.04,-180.56"/>
</g>
<!-- Node24&#45;&gt;Node13 -->
<g id="edge26" class="edge">
<title>Node24&#45;&gt;Node13</title>
<path fill="none" stroke="midnightblue" d="M383.55,-284C404.65,-284 428.82,-284 449.34,-284"/>
<polygon fill="midnightblue" stroke="midnightblue" points="449.39,-287.5 459.39,-284 449.39,-280.5 449.39,-287.5"/>
</g>
<!-- Node24&#45;&gt;Node16 -->
<g id="edge27" class="edge">
<title>Node24&#45;&gt;Node16</title>
<path fill="none" stroke="midnightblue" d="M373.01,-274.41C399.11,-268.38 432.53,-260.66 457.95,-254.79"/>
<polygon fill="midnightblue" stroke="midnightblue" points="459,-258.14 467.96,-252.48 457.42,-251.32 459,-258.14"/>
</g>
<!-- Node24&#45;&gt;Node17 -->
<g id="edge28" class="edge">
<title>Node24&#45;&gt;Node17</title>
<path fill="none" stroke="midnightblue" d="M344.64,-274.45C362.33,-261.97 395.17,-240.18 426,-227 436.64,-222.45 448.66,-218.72 459.69,-215.81"/>
<polygon fill="midnightblue" stroke="midnightblue" points="460.63,-219.18 469.49,-213.36 458.94,-212.39 460.63,-219.18"/>
</g>
<!-- Node24&#45;&gt;Node18 -->
<g id="edge29" class="edge">
<title>Node24&#45;&gt;Node18</title>
<path fill="none" stroke="midnightblue" d="M338.36,-293.73C352.48,-313.02 386.78,-356.2 426,-379 432.59,-382.83 439.97,-385.91 447.4,-388.38"/>
<polygon fill="midnightblue" stroke="midnightblue" points="446.56,-391.78 457.14,-391.29 448.56,-385.07 446.56,-391.78"/>
</g>
<!-- Node24&#45;&gt;Node21 -->
<g id="edge31" class="edge">
<title>Node24&#45;&gt;Node21</title>
<path fill="none" stroke="midnightblue" d="M344.64,-293.55C362.33,-306.03 395.17,-327.82 426,-341 436.35,-345.43 448.02,-349.08 458.81,-351.96"/>
<polygon fill="midnightblue" stroke="midnightblue" points="458.27,-355.43 468.82,-354.48 459.98,-348.64 458.27,-355.43"/>
</g>
<!-- Node24&#45;&gt;Node22 -->
<g id="edge33" class="edge">
<title>Node24&#45;&gt;Node22</title>
<path fill="none" stroke="midnightblue" d="M373.01,-293.59C401.95,-300.28 439.9,-309.04 465.95,-315.06"/>
<polygon fill="midnightblue" stroke="midnightblue" points="465.45,-318.54 475.98,-317.38 467.03,-311.72 465.45,-318.54"/>
</g>
<!-- Node25 -->
<g id="node25" class="node">
<title>Node25</title>
<g id="a_node25"><a xlink:href="namespace_d.html#acff69d64de92ad4a8530de5424425dee" target="_top" xlink:title=" ">
<polygon fill="white" stroke="black" points="467.5,-122.5 467.5,-141.5 526.5,-141.5 526.5,-122.5 467.5,-122.5"/>
<text text-anchor="middle" x="497" y="-129.5" font-family="Helvetica,sans-Serif" font-size="10.00">D::rotate</text>
</a>
</g>
</g>
<!-- Node24&#45;&gt;Node25 -->
<g id="edge30" class="edge">
<title>Node24&#45;&gt;Node25</title>
<path fill="none" stroke="midnightblue" d="M335.59,-274.22C346.43,-249.52 378.37,-184.22 426,-151 435.16,-144.61 446.37,-140.37 457.11,-137.55"/>
<polygon fill="midnightblue" stroke="midnightblue" points="458.21,-140.89 467.19,-135.27 456.66,-134.07 458.21,-140.89"/>
</g>
<!-- Node26 -->
<g id="node26" class="node">
<title>Node26</title>
<g id="a_node26"><a xlink:href="namespace_d.html#ae308988f832b1d5420f532ac7dfd772e" target="_top" xlink:title=" ">
<polygon fill="white" stroke="black" points="460,-160.5 460,-179.5 534,-179.5 534,-160.5 460,-160.5"/>
<text text-anchor="middle" x="497" y="-167.5" font-family="Helvetica,sans-Serif" font-size="10.00">D::translate</text>
</a>
</g>
</g>
<!-- Node24&#45;&gt;Node26 -->
<g id="edge32" class="edge">
<title>Node24&#45;&gt;Node26</title>
<path fill="none" stroke="midnightblue" d="M338.36,-274.27C352.48,-254.98 386.78,-211.8 426,-189 433.36,-184.72 441.7,-181.38 450.01,-178.78"/>
<polygon fill="midnightblue" stroke="midnightblue" points="451,-182.13 459.68,-176.05 449.1,-175.4 451,-182.13"/>
</g>
<!-- Node28 -->
<g id="node28" class="node">
<title>Node28</title>
<g id="a_node28"><a xlink:href="group___operations.html#ga724a75a0bcc5898b0f2e576db5a3ef65" target="_top" xlink:title=" ">
<polygon fill="white" stroke="black" points="437,-66.5 437,-85.5 557,-85.5 557,-66.5 437,-66.5"/>
<text text-anchor="middle" x="497" y="-73.5" font-family="Helvetica,sans-Serif" font-size="10.00">operations_push_any</text>
</a>
</g>
</g>
<!-- Node27&#45;&gt;Node28 -->
<g id="edge35" class="edge">
<title>Node27&#45;&gt;Node28</title>
<path fill="none" stroke="midnightblue" d="M350.05,-151.41C378.81,-136.56 434.32,-107.87 467.98,-90.48"/>
<polygon fill="midnightblue" stroke="midnightblue" points="469.99,-93.38 477.26,-85.68 466.77,-87.16 469.99,-93.38"/>
</g>
<!-- Node28&#45;&gt;Node28 -->
<g id="edge38" class="edge">
<title>Node28&#45;&gt;Node28</title>
<path fill="none" stroke="midnightblue" d="M471.41,-85.76C458.97,-94.57 467.5,-104 497,-104 516.82,-104 527.18,-99.74 528.06,-94.27"/>
<polygon fill="midnightblue" stroke="midnightblue" points="530.94,-92.27 522.59,-85.76 525.05,-96.06 530.94,-92.27"/>
</g>
<!-- Node29 -->
<g id="node29" class="node">
<title>Node29</title>
<g id="a_node29"><a xlink:href="group___operations.html#ga5e1350b5e6d7267d7e95a8ee351eae51" target="_top" xlink:title=" ">
<polygon fill="white" stroke="black" points="604,-126.5 604,-145.5 736,-145.5 736,-126.5 604,-126.5"/>
<text text-anchor="middle" x="670" y="-133.5" font-family="Helvetica,sans-Serif" font-size="10.00">crashIfFileDoesNotExist</text>
</a>
</g>
</g>
<!-- Node28&#45;&gt;Node29 -->
<g id="edge36" class="edge">
<title>Node28&#45;&gt;Node29</title>
<path fill="none" stroke="midnightblue" d="M520.95,-85.53C542.29,-94.22 575.03,-107.18 604,-117 610.58,-119.23 617.59,-121.44 624.48,-123.53"/>
<polygon fill="midnightblue" stroke="midnightblue" points="623.84,-126.99 634.42,-126.48 625.83,-120.28 623.84,-126.99"/>
</g>
<!-- Node30 -->
<g id="node30" class="node">
<title>Node30</title>
<g id="a_node30"><a xlink:href="group___operations.html#gab70be49ae6c9836b6605fa296e23c58c" target="_top" xlink:title=" ">
<polygon fill="white" stroke="black" points="622.5,-88.5 622.5,-107.5 717.5,-107.5 717.5,-88.5 622.5,-88.5"/>
<text text-anchor="middle" x="670" y="-95.5" font-family="Helvetica,sans-Serif" font-size="10.00">elementToEnum</text>
</a>
</g>
</g>
<!-- Node28&#45;&gt;Node30 -->
<g id="edge37" class="edge">
<title>Node28&#45;&gt;Node30</title>
<path fill="none" stroke="midnightblue" d="M557.33,-83.63C575.15,-85.93 594.65,-88.43 612.29,-90.7"/>
<polygon fill="midnightblue" stroke="midnightblue" points="612.08,-94.21 622.44,-92.01 612.97,-87.26 612.08,-94.21"/>
</g>
<!-- Node31 -->
<g id="node31" class="node">
<title>Node31</title>
<g id="a_node31"><a xlink:href="group___operations.html#ga27f2fb7edc94a99859f8e3a5120af3b4" target="_top" xlink:title=" ">
<polygon fill="white" stroke="black" points="605,-39 605,-69 735,-69 735,-39 605,-39"/>
<text text-anchor="start" x="613" y="-57" font-family="Helvetica,sans-Serif" font-size="10.00">operations_push_string</text>
<text text-anchor="middle" x="670" y="-46" font-family="Helvetica,sans-Serif" font-size="10.00">_attribute</text>
</a>
</g>
</g>
<!-- Node28&#45;&gt;Node31 -->
<g id="edge39" class="edge">
<title>Node28&#45;&gt;Node31</title>
<path fill="none" stroke="midnightblue" d="M557.33,-68.37C569.43,-66.81 582.31,-65.15 594.85,-63.54"/>
<polygon fill="midnightblue" stroke="midnightblue" points="595.35,-67 604.82,-62.26 594.45,-60.06 595.35,-67"/>
</g>
<!-- Node32 -->
<g id="node32" class="node">
<title>Node32</title>
<g id="a_node32"><a xlink:href="group___operations.html#ga97fc3f3450980b121126d829a0263836" target="_top" xlink:title=" ">
<polygon fill="white" stroke="black" points="613.5,-0.5 613.5,-19.5 726.5,-19.5 726.5,-0.5 613.5,-0.5"/>
<text text-anchor="middle" x="670" y="-7.5" font-family="Helvetica,sans-Serif" font-size="10.00">pushFloatAttributes</text>
</a>
</g>
</g>
<!-- Node28&#45;&gt;Node32 -->
<g id="edge40" class="edge">
<title>Node28&#45;&gt;Node32</title>
<path fill="none" stroke="midnightblue" d="M517.6,-66.36C538.64,-56.25 573.19,-40.28 604,-29 610.31,-26.69 617.03,-24.47 623.68,-22.41"/>
<polygon fill="midnightblue" stroke="midnightblue" points="624.73,-25.74 633.3,-19.51 622.72,-19.04 624.73,-25.74"/>
</g>
</g>
</svg>
        <g id="navigator" transform="translate(0 0)" fill="#404254">
                <rect fill="#f2f5e9" fill-opacity="0.5" stroke="#606060" stroke-width=".5" x="0" y="0" width="60" height="60"/>
                <use id="zoomplus" xlink:href="#zoomPlus" x="17" y="9" onmousedown="handleZoom(evt,'in')"/>
                <use id="zoomminus" xlink:href="#zoomMin" x="42" y="9" onmousedown="handleZoom(evt,'out')"/>
                <use id="reset" xlink:href="#resetDef" x="30" y="36" onmousedown="handleReset()"/>
                <g id="arrowUp" xlink:href="#dirArrow" transform="translate(30 24)" onmousedown="handlePan(0,-1)">
                  <use xlink:href="#rim" fill="#404040">
                        <set attributeName="fill" to="#808080" begin="arrowUp.mouseover" end="arrowUp.mouseout"/>
                  </use>
                  <path fill="none" stroke="white" stroke-width="1.5" d="M0,-3.0v7 M-2.5,-0.5L0,-3.0L2.5,-0.5"/>
                </g>
                <g id="arrowRight" xlink:href="#dirArrow" transform="rotate(90) translate(36 -43)" onmousedown="handlePan(1,0)">
                  <use xlink:href="#rim" fill="#404040">
                        <set attributeName="fill" to="#808080" begin="arrowRight.mouseover" end="arrowRight.mouseout"/>
                  </use>
                  <path fill="none" stroke="white" stroke-width="1.5" d="M0,-3.0v7 M-2.5,-0.5L0,-3.0L2.5,-0.5"/>
                </g>
                <g id="arrowDown" xlink:href="#dirArrow" transform="rotate(180) translate(-30 -48)" onmousedown="handlePan(0,1)">
                  <use xlink:href="#rim" fill="#404040">
                        <set attributeName="fill" to="#808080" begin="arrowDown.mouseover" end="arrowDown.mouseout"/>
                  </use>
                  <path fill="none" stroke="white" stroke-width="1.5" d="M0,-3.0v7 M-2.5,-0.5L0,-3.0L2.5,-0.5"/>
                </g>
                <g id="arrowLeft" xlink:href="#dirArrow" transform="rotate(270) translate(-36 17)" onmousedown="handlePan(-1,0)">
                  <use xlink:href="#rim" fill="#404040">
                        <set attributeName="fill" to="#808080" begin="arrowLeft.mouseover" end="arrowLeft.mouseout"/>
                  </use>
                  <path fill="none" stroke="white" stroke-width="1.5" d="M0,-3.0v7 M-2.5,-0.5L0,-3.0L2.5,-0.5"/>
                </g>
        </g>
        <svg viewBox="0 0 15 15" width="100%" height="30px" preserveAspectRatio="xMaxYMin meet">
         <g id="arrow_out" transform="scale(0.3 0.3)">
          <a xlink:href="group__engine_ga98eaf946471acbd931de5d52ca83b3d1_cgraph_org.svg" target="_base">
           <rect id="button" ry="5" rx="5" y="6" x="6" height="38" width="38"
                fill="#f2f5e9" fill-opacity="0.5" stroke="#606060" stroke-width="1.0"/>
           <path id="arrow"
             d="M 11.500037,31.436501 C 11.940474,20.09759 22.043105,11.32322 32.158766,21.979434 L 37.068811,17.246167 C 37.068811,17.246167 37.088388,32 37.088388,32 L 22.160133,31.978069 C 22.160133,31.978069 26.997745,27.140456 26.997745,27.140456 C 18.528582,18.264221 13.291696,25.230495 11.500037,31.436501 z"
             style="fill:#404040;"/>
          </a>
         </g>
        </svg>
</svg>
