<?xml version="1.0" encoding="UTF-8" standalone="no"?>
<!DOCTYPE svg PUBLIC "-//W3C//DTD SVG 1.1//EN"
 "http://www.w3.org/Graphics/SVG/1.1/DTD/svg11.dtd">
<!-- Generated by graphviz version 3.0.0 (0)
 -->
<!-- Title: operations_push_string_attribute Pages: 1 -->
<svg width="1155pt" height="52pt"
 viewBox="0.00 0.00 1155.00 51.50" xmlns="http://www.w3.org/2000/svg" xmlns:xlink="http://www.w3.org/1999/xlink">
<g id="graph0" class="graph" transform="scale(1 1) rotate(0) translate(4 47.5)">
<title>operations_push_string_attribute</title>
<polygon fill="white" stroke="transparent" points="-4,4 -4,-47.5 1151,-47.5 1151,4 -4,4"/>
<!-- Node1 -->
<g id="node1" class="node">
<title>Node1</title>
<g id="a_node1"><a xlink:title=" ">
<polygon fill="#bfbfbf" stroke="black" points="1017,-0.5 1017,-30.5 1147,-30.5 1147,-0.5 1017,-0.5"/>
<text text-anchor="start" x="1025" y="-18.5" font-family="Helvetica,sans-Serif" font-size="10.00">operations_push_string</text>
<text text-anchor="middle" x="1082" y="-7.5" font-family="Helvetica,sans-Serif" font-size="10.00">_attribute</text>
</a>
</g>
</g>
<!-- Node2 -->
<g id="node2" class="node">
<title>Node2</title>
<g id="a_node2"><a xlink:href="group___models.html#ga9c6066851b617631703c06b7aa6f72ac" target="_top" xlink:title=" ">
<polygon fill="white" stroke="black" points="848,-6 848,-25 981,-25 981,-6 848,-6"/>
<text text-anchor="middle" x="914.5" y="-13" font-family="Helvetica,sans-Serif" font-size="10.00">operations_push_model</text>
</a>
</g>
</g>
<!-- Node1&#45;&gt;Node2 -->
<g id="edge1" class="edge">
<title>Node1&#45;&gt;Node2</title>
<path fill="none" stroke="midnightblue" d="M1006.36,-15.5C997.95,-15.5 989.43,-15.5 981.15,-15.5"/>
<polygon fill="midnightblue" stroke="midnightblue" points="1006.54,-19 1016.54,-15.5 1006.54,-12 1006.54,-19"/>
</g>
<!-- Node3 -->
<g id="node3" class="node">
<title>Node3</title>
<g id="a_node3"><a xlink:href="group___models.html#gaf4f69faf6a2c6db692bd0f742c08ca17" target="_top" xlink:title=" ">
<polygon fill="white" stroke="black" points="674,-6 674,-25 812,-25 812,-6 674,-6"/>
<text text-anchor="middle" x="743" y="-13" font-family="Helvetica,sans-Serif" font-size="10.00">operations_push_models</text>
</a>
</g>
</g>
<!-- Node2&#45;&gt;Node3 -->
<g id="edge2" class="edge">
<title>Node2&#45;&gt;Node3</title>
<path fill="none" stroke="midnightblue" d="M837.96,-15.5C829.37,-15.5 820.65,-15.5 812.16,-15.5"/>
<polygon fill="midnightblue" stroke="midnightblue" points="837.97,-19 847.97,-15.5 837.97,-12 837.97,-19"/>
</g>
<!-- Node4 -->
<g id="node4" class="node">
<title>Node4</title>
<g id="a_node4"><a xlink:href="group___groups.html#ga2729bcb63525027c28b0107fe17d3a06" target="_top" xlink:title=" ">
<polygon fill="white" stroke="black" points="503,-6 503,-25 638,-25 638,-6 503,-6"/>
<text text-anchor="middle" x="570.5" y="-13" font-family="Helvetica,sans-Serif" font-size="10.00">operations_push_groups</text>
</a>
</g>
</g>
<!-- Node3&#45;&gt;Node4 -->
<g id="edge3" class="edge">
<title>Node3&#45;&gt;Node4</title>
<path fill="none" stroke="midnightblue" d="M663.42,-15.5C655,-15.5 646.49,-15.5 638.22,-15.5"/>
<polygon fill="midnightblue" stroke="midnightblue" points="663.63,-19 673.63,-15.5 663.63,-12 663.63,-19"/>
</g>
<!-- Node4&#45;&gt;Node4 -->
<g id="edge8" class="edge">
<title>Node4&#45;&gt;Node4</title>
<path fill="none" stroke="midnightblue" d="M600.81,-33.77C599.95,-39.24 589.85,-43.5 570.5,-43.5 541.71,-43.5 533.38,-34.07 545.53,-25.26"/>
<polygon fill="midnightblue" stroke="midnightblue" points="603.75,-31.87 595.47,-25.26 597.82,-35.59 603.75,-31.87"/>
</g>
<!-- Node5 -->
<g id="node5" class="node">
<title>Node5</title>
<g id="a_node5"><a xlink:href="group__xml.html#gad700972f3f382c3cc5658ce95361ad0e" target="_top" xlink:title=" ">
<polygon fill="white" stroke="black" points="348,-6 348,-25 467,-25 467,-6 348,-6"/>
<text text-anchor="middle" x="407.5" y="-13" font-family="Helvetica,sans-Serif" font-size="10.00">operations_load_xml</text>
</a>
</g>
</g>
<!-- Node4&#45;&gt;Node5 -->
<g id="edge4" class="edge">
<title>Node4&#45;&gt;Node5</title>
<path fill="none" stroke="midnightblue" d="M492.36,-15.5C483.9,-15.5 475.4,-15.5 467.22,-15.5"/>
<polygon fill="midnightblue" stroke="midnightblue" points="492.62,-19 502.62,-15.5 492.62,-12 492.62,-19"/>
</g>
<!-- Node6 -->
<g id="node6" class="node">
<title>Node6</title>
<g id="a_node6"><a xlink:href="group__engine.html#ga4c801322659c1ed52adccd3874552bb3" target="_top" xlink:title=" ">
<polygon fill="white" stroke="black" points="184,-6 184,-25 312,-25 312,-6 184,-6"/>
<text text-anchor="middle" x="248" y="-13" font-family="Helvetica,sans-Serif" font-size="10.00">xml_load_and_set_env</text>
</a>
</g>
</g>
<!-- Node5&#45;&gt;Node6 -->
<g id="edge5" class="edge">
<title>Node5&#45;&gt;Node6</title>
<path fill="none" stroke="midnightblue" d="M337.64,-15.5C329.17,-15.5 320.56,-15.5 312.19,-15.5"/>
<polygon fill="midnightblue" stroke="midnightblue" points="337.85,-19 347.85,-15.5 337.85,-12 337.85,-19"/>
</g>
<!-- Node7 -->
<g id="node7" class="node">
<title>Node7</title>
<g id="a_node7"><a xlink:href="group__engine.html#ga98eaf946471acbd931de5d52ca83b3d1" target="_top" xlink:title=" ">
<polygon fill="white" stroke="black" points="77,-6 77,-25 148,-25 148,-6 77,-6"/>
<text text-anchor="middle" x="112.5" y="-13" font-family="Helvetica,sans-Serif" font-size="10.00">engine_run</text>
</a>
</g>
</g>
<!-- Node6&#45;&gt;Node7 -->
<g id="edge6" class="edge">
<title>Node6&#45;&gt;Node7</title>
<path fill="none" stroke="midnightblue" d="M173.71,-15.5C164.82,-15.5 156.09,-15.5 148.16,-15.5"/>
<polygon fill="midnightblue" stroke="midnightblue" points="173.77,-19 183.77,-15.5 173.77,-12 173.77,-19"/>
</g>
<!-- Node8 -->
<g id="node8" class="node">
<title>Node8</title>
<g id="a_node8"><a xlink:href="group__engine.html#ga3c04138a5bfe5d72780bb7e82a18e627" target="_top" xlink:title=" ">
<polygon fill="white" stroke="black" points="0,-6 0,-25 41,-25 41,-6 0,-6"/>
<text text-anchor="middle" x="20.5" y="-13" font-family="Helvetica,sans-Serif" font-size="10.00">main</text>
</a>
</g>
</g>
<!-- Node7&#45;&gt;Node8 -->
<g id="edge7" class="edge">
<title>Node7&#45;&gt;Node8</title>
<path fill="none" stroke="midnightblue" d="M66.88,-15.5C57.87,-15.5 48.84,-15.5 41.24,-15.5"/>
<polygon fill="midnightblue" stroke="midnightblue" points="66.96,-19 76.96,-15.5 66.96,-12 66.96,-19"/>
</g>
</g>
</svg>
