<?xml version="1.0" encoding="UTF-8" standalone="no"?>
<!DOCTYPE svg PUBLIC "-//W3C//DTD SVG 1.1//EN"
 "http://www.w3.org/Graphics/SVG/1.1/DTD/svg11.dtd">
<!-- Generated by graphviz version 3.0.0 (0)
 -->
<!-- Title: Camera Pages: 1 -->
<svg width="280pt" height="64pt"
 viewBox="0.00 0.00 280.00 64.00" xmlns="http://www.w3.org/2000/svg" xmlns:xlink="http://www.w3.org/1999/xlink">
<g id="graph0" class="graph" transform="scale(1 1) rotate(0) translate(4 60)">
<title>Camera</title>
<polygon fill="white" stroke="transparent" points="-4,4 -4,-60 276,-60 276,4 -4,4"/>
<!-- Node1 -->
<g id="node1" class="node">
<title>Node1</title>
<g id="a_node1"><a xlink:title=" ">
<polygon fill="#bfbfbf" stroke="black" points="141,-37 86,-37 86,-18 141,-18 141,-37"/>
<text text-anchor="middle" x="113.5" y="-25" font-family="Helvetica,sans-Serif" font-size="10.00">Camera</text>
</a>
</g>
</g>
<!-- Node4 -->
<g id="node3" class="node">
<title>Node4</title>
<g id="a_node3"><a xlink:href="group__explorer_camera.html" target="_top" xlink:title=" ">
<polygon fill="white" stroke="black" points="272,-56 177,-56 177,-37 272,-37 272,-56"/>
<text text-anchor="middle" x="224.5" y="-44" font-family="Helvetica,sans-Serif" font-size="10.00">ExplorerCamera</text>
</a>
</g>
</g>
<!-- Node1&#45;&gt;Node4 -->
<g id="edge3" class="edge">
<title>Node1&#45;&gt;Node4</title>
<path fill="none" stroke="black" d="M151.16,-33.89C159.36,-35.32 168.16,-36.85 176.71,-38.34"/>
<polygon fill="black" stroke="black" points="151.62,-30.42 141.16,-32.15 150.41,-37.31 151.62,-30.42"/>
</g>
<!-- Node3 -->
<g id="node4" class="node">
<title>Node3</title>
<g id="a_node4"><a xlink:href="group__fps_camera.html" target="_top" xlink:title=" ">
<polygon fill="white" stroke="black" points="260.5,-19 188.5,-19 188.5,0 260.5,0 260.5,-19"/>
<text text-anchor="middle" x="224.5" y="-7" font-family="Helvetica,sans-Serif" font-size="10.00">FpsCamera</text>
</a>
</g>
</g>
<!-- Node1&#45;&gt;Node3 -->
<g id="edge2" class="edge">
<title>Node1&#45;&gt;Node3</title>
<path fill="none" stroke="black" d="M151.31,-21.42C163.31,-19.44 176.6,-17.25 188.46,-15.29"/>
<polygon fill="black" stroke="black" points="150.46,-18.01 141.16,-23.1 151.6,-24.92 150.46,-18.01"/>
</g>
<!-- Node2 -->
<g id="node2" class="node">
<title>Node2</title>
<g id="a_node2"><a xlink:href="group__engine.html" target="_top" xlink:title=" ">
<polygon fill="white" stroke="black" points="50,-37 0,-37 0,-18 50,-18 50,-37"/>
<text text-anchor="middle" x="25" y="-25" font-family="Helvetica,sans-Serif" font-size="10.00">Engine</text>
</a>
</g>
</g>
<!-- Node2&#45;&gt;Node1 -->
<g id="edge1" class="edge">
<title>Node2&#45;&gt;Node1</title>
<path fill="none" stroke="black" d="M60.15,-27.5C68.68,-27.5 77.69,-27.5 85.8,-27.5"/>
<polygon fill="black" stroke="black" points="60.1,-24 50.1,-27.5 60.1,-31 60.1,-24"/>
</g>
</g>
</svg>
