<?xml version="1.0" encoding="UTF-8" standalone="no"?>
<!DOCTYPE svg PUBLIC "-//W3C//DTD SVG 1.1//EN"
 "http://www.w3.org/Graphics/SVG/1.1/DTD/svg11.dtd">
<!-- Generated by graphviz version 3.0.0 (0)
 -->
<!-- Title: spherical2Cartesian Pages: 1 -->
<svg width="362pt" height="142pt"
 viewBox="0.00 0.00 362.00 142.00" xmlns="http://www.w3.org/2000/svg" xmlns:xlink="http://www.w3.org/1999/xlink">
<g id="graph0" class="graph" transform="scale(1 1) rotate(0) translate(4 138)">
<title>spherical2Cartesian</title>
<polygon fill="white" stroke="transparent" points="-4,4 -4,-138 358,-138 358,4 -4,4"/>
<!-- Node1 -->
<g id="node1" class="node">
<title>Node1</title>
<g id="a_node1"><a xlink:title=" ">
<polygon fill="#bfbfbf" stroke="black" points="241,-57.5 241,-76.5 354,-76.5 354,-57.5 241,-57.5"/>
<text text-anchor="middle" x="297.5" y="-64.5" font-family="Helvetica,sans-Serif" font-size="10.00">spherical2Cartesian</text>
</a>
</g>
</g>
<!-- Node2 -->
<g id="node2" class="node">
<title>Node2</title>
<g id="a_node2"><a xlink:href="group__explorer_camera.html#ga9fe47c5361dc03b642823dc88f07465b" target="_top" xlink:title=" ">
<polygon fill="white" stroke="black" points="119,-57.5 119,-76.5 205,-76.5 205,-57.5 119,-57.5"/>
<text text-anchor="middle" x="162" y="-64.5" font-family="Helvetica,sans-Serif" font-size="10.00">explRedisplay</text>
</a>
</g>
</g>
<!-- Node1&#45;&gt;Node2 -->
<g id="edge1" class="edge">
<title>Node1&#45;&gt;Node2</title>
<path fill="none" stroke="midnightblue" d="M230.57,-67C221.94,-67 213.3,-67 205.21,-67"/>
<polygon fill="midnightblue" stroke="midnightblue" points="230.66,-70.5 240.66,-67 230.66,-63.5 230.66,-70.5"/>
</g>
<!-- Node3 -->
<g id="node3" class="node">
<title>Node3</title>
<g id="a_node3"><a xlink:href="group__explorer_camera.html#gab0f1d17222b0687759f3d0e7ee600f20" target="_top" xlink:title=" ">
<polygon fill="white" stroke="black" points="3.5,-114.5 3.5,-133.5 79.5,-133.5 79.5,-114.5 3.5,-114.5"/>
<text text-anchor="middle" x="41.5" y="-121.5" font-family="Helvetica,sans-Serif" font-size="10.00">explCamera</text>
</a>
</g>
</g>
<!-- Node2&#45;&gt;Node3 -->
<g id="edge2" class="edge">
<title>Node2&#45;&gt;Node3</title>
<path fill="none" stroke="midnightblue" d="M132.37,-81.07C117.64,-88.28 99.39,-97.16 83,-105 76.55,-108.08 69.51,-111.4 63.13,-114.39"/>
<polygon fill="midnightblue" stroke="midnightblue" points="134.05,-84.15 141.48,-76.61 130.96,-77.86 134.05,-84.15"/>
</g>
<!-- Node4 -->
<g id="node4" class="node">
<title>Node4</title>
<g id="a_node4"><a xlink:href="group__explorer_camera.html#ga0b95fc35a07bac37f27f163fb7cba34d" target="_top" xlink:title=" ">
<polygon fill="white" stroke="black" points="0,-76.5 0,-95.5 83,-95.5 83,-76.5 0,-76.5"/>
<text text-anchor="middle" x="41.5" y="-83.5" font-family="Helvetica,sans-Serif" font-size="10.00">explKeyboard</text>
</a>
</g>
</g>
<!-- Node2&#45;&gt;Node4 -->
<g id="edge3" class="edge">
<title>Node2&#45;&gt;Node4</title>
<path fill="none" stroke="midnightblue" d="M108.94,-75.35C100.35,-76.73 91.55,-78.14 83.28,-79.46"/>
<polygon fill="midnightblue" stroke="midnightblue" points="109.57,-78.79 118.89,-73.75 108.46,-71.88 109.57,-78.79"/>
</g>
<!-- Node5 -->
<g id="node5" class="node">
<title>Node5</title>
<g id="a_node5"><a xlink:href="group__explorer_camera.html#ga1521b52ce120927b1ab548e0b6631e13" target="_top" xlink:title=" ">
<polygon fill="white" stroke="black" points="6,-38.5 6,-57.5 77,-57.5 77,-38.5 6,-38.5"/>
<text text-anchor="middle" x="41.5" y="-45.5" font-family="Helvetica,sans-Serif" font-size="10.00">explMotion</text>
</a>
</g>
</g>
<!-- Node2&#45;&gt;Node5 -->
<g id="edge4" class="edge">
<title>Node2&#45;&gt;Node5</title>
<path fill="none" stroke="midnightblue" d="M108.74,-58.62C98.01,-56.9 86.97,-55.13 77.06,-53.54"/>
<polygon fill="midnightblue" stroke="midnightblue" points="108.46,-62.12 118.89,-60.25 109.57,-55.21 108.46,-62.12"/>
</g>
<!-- Node6 -->
<g id="node6" class="node">
<title>Node6</title>
<g id="a_node6"><a xlink:href="group__explorer_camera.html#gab86b1c960c066cefd232128fa8754875" target="_top" xlink:title=" ">
<polygon fill="white" stroke="black" points="6.5,-0.5 6.5,-19.5 76.5,-19.5 76.5,-0.5 6.5,-0.5"/>
<text text-anchor="middle" x="41.5" y="-7.5" font-family="Helvetica,sans-Serif" font-size="10.00">explMouse</text>
</a>
</g>
</g>
<!-- Node2&#45;&gt;Node6 -->
<g id="edge5" class="edge">
<title>Node2&#45;&gt;Node6</title>
<path fill="none" stroke="midnightblue" d="M132.37,-52.93C117.64,-45.72 99.39,-36.84 83,-29 76.55,-25.92 69.51,-22.6 63.13,-19.61"/>
<polygon fill="midnightblue" stroke="midnightblue" points="130.96,-56.14 141.48,-57.39 134.05,-49.85 130.96,-56.14"/>
</g>
</g>
</svg>
