<?xml version="1.0" encoding="UTF-8" standalone="no"?>
<!DOCTYPE svg PUBLIC "-//W3C//DTD SVG 1.1//EN"
 "http://www.w3.org/Graphics/SVG/1.1/DTD/svg11.dtd">
<!-- Generated by graphviz version 3.0.0 (0)
 -->
<!-- Title: xml_load_and_set_env Pages: 1 -->
<!--zoomable 469 -->
<svg id="main" version="1.1" xmlns="http://www.w3.org/2000/svg" xmlns:xlink="http://www.w3.org/1999/xlink" xml:space="preserve" onload="init(evt)">
<style type="text/css"><![CDATA[
.edge:hover path { stroke: red; }
.edge:hover polygon { stroke: red; fill: red; }
]]></style>
<script type="text/javascript"><![CDATA[
var edges = document.getElementsByTagName('g');
if (edges && edges.length) {
  for (var i=0;i<edges.length;i++) {
    if (edges[i].id.substr(0,4)=='edge') {
      edges[i].setAttribute('class','edge');
    }
  }
}
]]></script>
        <defs>
                <circle id="rim" cx="0" cy="0" r="7"/>
                <circle id="rim2" cx="0" cy="0" r="3.5"/>
                <g id="zoomPlus">
                        <use xlink:href="#rim" fill="#404040">
                                <set attributeName="fill" to="#808080" begin="zoomplus.mouseover" end="zoomplus.mouseout"/>
                        </use>
                        <path d="M-4,0h8M0,-4v8" fill="none" stroke="white" stroke-width="1.5" pointer-events="none"/>
                </g>
                <g id="zoomMin">
                        <use xlink:href="#rim" fill="#404040">
                                <set attributeName="fill" to="#808080" begin="zoomminus.mouseover" end="zoomminus.mouseout"/>
                        </use>
                        <path d="M-4,0h8" fill="none" stroke="white" stroke-width="1.5" pointer-events="none"/>
                </g>
                <g id="dirArrow">
                        <path fill="none" stroke="white" stroke-width="1.5" d="M0,-3.0v7 M-2.5,-0.5L0,-3.0L2.5,-0.5"/>
                </g>
               <g id="resetDef">
                       <use xlink:href="#rim2" fill="#404040">
                               <set attributeName="fill" to="#808080" begin="reset.mouseover" end="reset.mouseout"/>
                       </use>
               </g>
        </defs>

<script type="text/javascript">
var viewWidth = 1234;
var viewHeight = 469;
var sectionId = 'dynsection-10';
</script>
<script xlink:href="svgpan.js"/>
<svg id="graph" class="graph">
<g id="viewport">
<title>xml_load_and_set_env</title>
<polygon fill="white" stroke="transparent" points="-4,4 -4,-464.5 1230,-464.5 1230,4 -4,4"/>
<!-- Node1 -->
<g id="node1" class="node">
<title>Node1</title>
<g id="a_node1"><a xlink:title=" ">
<polygon fill="#bfbfbf" stroke="black" points="0,-285.5 0,-304.5 128,-304.5 128,-285.5 0,-285.5"/>
<text text-anchor="middle" x="64" y="-292.5" font-family="Helvetica,sans-Serif" font-size="10.00">xml_load_and_set_env</text>
</a>
</g>
</g>
<!-- Node2 -->
<g id="node2" class="node">
<title>Node2</title>
<g id="a_node2"><a xlink:href="group__engine.html#ga8679d9b303f36964bf51dba0993caeaa" target="_top" xlink:title=" ">
<polygon fill="white" stroke="black" points="170.5,-323.5 170.5,-342.5 276.5,-342.5 276.5,-323.5 170.5,-323.5"/>
<text text-anchor="middle" x="223.5" y="-330.5" font-family="Helvetica,sans-Serif" font-size="10.00">env_load_defaults</text>
</a>
</g>
</g>
<!-- Node1&#45;&gt;Node2 -->
<g id="edge1" class="edge">
<title>Node1&#45;&gt;Node2</title>
<path fill="none" stroke="midnightblue" d="M104.74,-304.59C125.53,-309.6 151.16,-315.79 173.2,-321.11"/>
<polygon fill="midnightblue" stroke="midnightblue" points="172.5,-324.54 183.04,-323.48 174.14,-317.73 172.5,-324.54"/>
</g>
<!-- Node3 -->
<g id="node3" class="node">
<title>Node3</title>
<g id="a_node3"><a xlink:href="group__xml.html#gac937a83a82258806ef77b02f97ef0834" target="_top" xlink:title=" ">
<polygon fill="white" stroke="black" points="164,-285.5 164,-304.5 283,-304.5 283,-285.5 164,-285.5"/>
<text text-anchor="middle" x="223.5" y="-292.5" font-family="Helvetica,sans-Serif" font-size="10.00">operations_load_xml</text>
</a>
</g>
</g>
<!-- Node1&#45;&gt;Node3 -->
<g id="edge2" class="edge">
<title>Node1&#45;&gt;Node3</title>
<path fill="none" stroke="midnightblue" d="M128.15,-295C136.55,-295 145.19,-295 153.68,-295"/>
<polygon fill="midnightblue" stroke="midnightblue" points="153.93,-298.5 163.93,-295 153.93,-291.5 153.93,-298.5"/>
</g>
<!-- Node13 -->
<g id="node13" class="node">
<title>Node13</title>
<g id="a_node13"><a xlink:href="group___operations.html#ga887f20c10a27832ea24178203a47fcc2" target="_top" xlink:title=" ">
<polygon fill="white" stroke="black" points="171,-133.5 171,-152.5 276,-152.5 276,-133.5 171,-133.5"/>
<text text-anchor="middle" x="223.5" y="-140.5" font-family="Helvetica,sans-Serif" font-size="10.00">operations_render</text>
</a>
</g>
</g>
<!-- Node1&#45;&gt;Node13 -->
<g id="edge15" class="edge">
<title>Node1&#45;&gt;Node13</title>
<path fill="none" stroke="midnightblue" d="M74.85,-285.49C100.93,-260.33 172,-191.74 205.1,-159.79"/>
<polygon fill="midnightblue" stroke="midnightblue" points="207.89,-161.97 212.65,-152.5 203.03,-156.93 207.89,-161.97"/>
</g>
<!-- Node4 -->
<g id="node4" class="node">
<title>Node4</title>
<g id="a_node4"><a xlink:href="group___groups.html#ga72c2d5ef943a89f829c08f6707e7669d" target="_top" xlink:title=" ">
<polygon fill="white" stroke="black" points="319,-356.5 319,-375.5 454,-375.5 454,-356.5 319,-356.5"/>
<text text-anchor="middle" x="386.5" y="-363.5" font-family="Helvetica,sans-Serif" font-size="10.00">operations_push_groups</text>
</a>
</g>
</g>
<!-- Node3&#45;&gt;Node4 -->
<g id="edge3" class="edge">
<title>Node3&#45;&gt;Node4</title>
<path fill="none" stroke="midnightblue" d="M257.01,-304.57C265.56,-307.35 274.71,-310.58 283,-314 309.75,-325.05 339.09,-340.27 359.5,-351.39"/>
<polygon fill="midnightblue" stroke="midnightblue" points="358.03,-354.57 368.47,-356.33 361.4,-348.44 358.03,-354.57"/>
</g>
<!-- Node11 -->
<g id="node11" class="node">
<title>Node11</title>
<g id="a_node11"><a xlink:href="group___transforms.html#ga322e67bfbfd0f7db581a853b85fea9c1" target="_top" xlink:title=" ">
<polygon fill="white" stroke="black" points="1076,-337 1076,-367 1226,-367 1226,-337 1076,-337"/>
<text text-anchor="start" x="1084" y="-355" font-family="Helvetica,sans-Serif" font-size="10.00">operations_push_transform</text>
<text text-anchor="middle" x="1151" y="-344" font-family="Helvetica,sans-Serif" font-size="10.00">_attributes</text>
</a>
</g>
</g>
<!-- Node3&#45;&gt;Node11 -->
<g id="edge14" class="edge">
<title>Node3&#45;&gt;Node11</title>
<path fill="none" stroke="midnightblue" d="M283.15,-300.24C351.22,-305.87 466.89,-314 566.5,-314 566.5,-314 566.5,-314 769.5,-314 871.79,-314 988.79,-327.77 1065.73,-338.73"/>
<polygon fill="midnightblue" stroke="midnightblue" points="1065.45,-342.22 1075.85,-340.18 1066.45,-335.29 1065.45,-342.22"/>
</g>
<!-- Node12 -->
<g id="node12" class="node">
<title>Node12</title>
<g id="a_node12"><a xlink:href="group__xml.html#ga13d09c76a06c071031512828eb7bc4fa" target="_top" xlink:title=" ">
<polygon fill="white" stroke="black" points="322,-266.5 322,-285.5 451,-285.5 451,-266.5 322,-266.5"/>
<text text-anchor="middle" x="386.5" y="-273.5" font-family="Helvetica,sans-Serif" font-size="10.00">operations_push_lights</text>
</a>
</g>
</g>
<!-- Node3&#45;&gt;Node12 -->
<g id="edge13" class="edge">
<title>Node3&#45;&gt;Node12</title>
<path fill="none" stroke="midnightblue" d="M283.08,-288.09C292.42,-286.98 302.19,-285.83 311.83,-284.69"/>
<polygon fill="midnightblue" stroke="midnightblue" points="312.28,-288.17 321.8,-283.52 311.46,-281.21 312.28,-288.17"/>
</g>
<!-- Node4&#45;&gt;Node4 -->
<g id="edge4" class="edge">
<title>Node4&#45;&gt;Node4</title>
<path fill="none" stroke="midnightblue" d="M361.53,-375.76C349.38,-384.57 357.71,-394 386.5,-394 405.85,-394 415.95,-389.74 416.81,-384.27"/>
<polygon fill="midnightblue" stroke="midnightblue" points="419.75,-382.37 411.47,-375.76 413.82,-386.09 419.75,-382.37"/>
</g>
<!-- Node5 -->
<g id="node5" class="node">
<title>Node5</title>
<g id="a_node5"><a xlink:href="group___models.html#gae6874961000e3d9274674e4f9c21dd60" target="_top" xlink:title=" ">
<polygon fill="white" stroke="black" points="498.5,-408.5 498.5,-427.5 636.5,-427.5 636.5,-408.5 498.5,-408.5"/>
<text text-anchor="middle" x="567.5" y="-415.5" font-family="Helvetica,sans-Serif" font-size="10.00">operations_push_models</text>
</a>
</g>
</g>
<!-- Node4&#45;&gt;Node5 -->
<g id="edge5" class="edge">
<title>Node4&#45;&gt;Node5</title>
<path fill="none" stroke="midnightblue" d="M420.33,-375.54C449.38,-383.98 491.97,-396.35 523.69,-405.56"/>
<polygon fill="midnightblue" stroke="midnightblue" points="522.99,-409.01 533.57,-408.43 524.95,-402.28 522.99,-409.01"/>
</g>
<!-- Node8 -->
<g id="node8" class="node">
<title>Node8</title>
<g id="a_node8"><a xlink:href="group___transforms.html#gad83b646af5265ef92c21db557652be7d" target="_top" xlink:title=" ">
<polygon fill="white" stroke="black" points="490,-356.5 490,-375.5 645,-375.5 645,-356.5 490,-356.5"/>
<text text-anchor="middle" x="567.5" y="-363.5" font-family="Helvetica,sans-Serif" font-size="10.00">operations_push_transforms</text>
</a>
</g>
</g>
<!-- Node4&#45;&gt;Node8 -->
<g id="edge8" class="edge">
<title>Node4&#45;&gt;Node8</title>
<path fill="none" stroke="midnightblue" d="M454.15,-366C462.51,-366 471.16,-366 479.77,-366"/>
<polygon fill="midnightblue" stroke="midnightblue" points="479.84,-369.5 489.84,-366 479.84,-362.5 479.84,-369.5"/>
</g>
<!-- Node6 -->
<g id="node6" class="node">
<title>Node6</title>
<g id="a_node6"><a xlink:href="group___models.html#gaea4cf479be9d482699b0a7871a19efed" target="_top" xlink:title=" ">
<polygon fill="white" stroke="black" points="702,-421.5 702,-440.5 835,-440.5 835,-421.5 702,-421.5"/>
<text text-anchor="middle" x="768.5" y="-428.5" font-family="Helvetica,sans-Serif" font-size="10.00">operations_push_model</text>
</a>
</g>
</g>
<!-- Node5&#45;&gt;Node6 -->
<g id="edge6" class="edge">
<title>Node5&#45;&gt;Node6</title>
<path fill="none" stroke="midnightblue" d="M636.71,-422.46C654.38,-423.61 673.51,-424.86 691.55,-426.04"/>
<polygon fill="midnightblue" stroke="midnightblue" points="691.53,-429.54 701.74,-426.7 691.99,-422.56 691.53,-429.54"/>
</g>
<!-- Node7 -->
<g id="node7" class="node">
<title>Node7</title>
<g id="a_node7"><a xlink:href="group___models.html#gaa7a60aeaf83f15158c6896c1b817eeee" target="_top" xlink:title=" ">
<polygon fill="white" stroke="black" points="901,-430 901,-460 1031,-460 1031,-430 901,-430"/>
<text text-anchor="start" x="909" y="-448" font-family="Helvetica,sans-Serif" font-size="10.00">operations_push_string</text>
<text text-anchor="middle" x="966" y="-437" font-family="Helvetica,sans-Serif" font-size="10.00">_attribute</text>
</a>
</g>
</g>
<!-- Node6&#45;&gt;Node7 -->
<g id="edge7" class="edge">
<title>Node6&#45;&gt;Node7</title>
<path fill="none" stroke="midnightblue" d="M835.14,-435.7C853.02,-436.98 872.51,-438.38 890.82,-439.69"/>
<polygon fill="midnightblue" stroke="midnightblue" points="890.63,-443.18 900.86,-440.41 891.13,-436.2 890.63,-443.18"/>
</g>
<!-- Node9 -->
<g id="node9" class="node">
<title>Node9</title>
<g id="a_node9"><a xlink:href="group___transforms.html#gafa423b24e0a976a40fa25bde5279d6da" target="_top" xlink:title=" ">
<polygon fill="white" stroke="black" points="681,-356.5 681,-375.5 856,-375.5 856,-356.5 681,-356.5"/>
<text text-anchor="middle" x="768.5" y="-363.5" font-family="Helvetica,sans-Serif" font-size="10.00">operations_push_transformation</text>
</a>
</g>
</g>
<!-- Node8&#45;&gt;Node9 -->
<g id="edge9" class="edge">
<title>Node8&#45;&gt;Node9</title>
<path fill="none" stroke="midnightblue" d="M645.15,-366C653.57,-366 662.23,-366 670.85,-366"/>
<polygon fill="midnightblue" stroke="midnightblue" points="670.94,-369.5 680.94,-366 670.94,-362.5 670.94,-369.5"/>
</g>
<!-- Node10 -->
<g id="node10" class="node">
<title>Node10</title>
<g id="a_node10"><a xlink:href="group___transforms.html#ga9fb2cf393283a6c4e01669d004e011cb" target="_top" xlink:title=" ">
<polygon fill="white" stroke="black" points="892,-381 892,-411 1040,-411 1040,-381 892,-381"/>
<text text-anchor="start" x="900" y="-399" font-family="Helvetica,sans-Serif" font-size="10.00">operations_push_extended</text>
<text text-anchor="middle" x="966" y="-388" font-family="Helvetica,sans-Serif" font-size="10.00">_translate_attributes</text>
</a>
</g>
</g>
<!-- Node9&#45;&gt;Node10 -->
<g id="edge10" class="edge">
<title>Node9&#45;&gt;Node10</title>
<path fill="none" stroke="midnightblue" d="M831.63,-375.53C847.46,-377.96 864.74,-380.61 881.45,-383.18"/>
<polygon fill="midnightblue" stroke="midnightblue" points="881.35,-386.7 891.76,-384.76 882.41,-379.79 881.35,-386.7"/>
</g>
<!-- Node9&#45;&gt;Node11 -->
<g id="edge12" class="edge">
<title>Node9&#45;&gt;Node11</title>
<path fill="none" stroke="midnightblue" d="M856.32,-362.81C919.06,-360.5 1003.38,-357.39 1065.57,-355.11"/>
<polygon fill="midnightblue" stroke="midnightblue" points="1065.88,-358.6 1075.74,-354.73 1065.62,-351.6 1065.88,-358.6"/>
</g>
<!-- Node10&#45;&gt;Node11 -->
<g id="edge11" class="edge">
<title>Node10&#45;&gt;Node11</title>
<path fill="none" stroke="midnightblue" d="M1029.47,-380.98C1044.99,-377.25 1061.75,-373.22 1077.7,-369.38"/>
<polygon fill="midnightblue" stroke="midnightblue" points="1078.6,-372.77 1087.5,-367.03 1076.96,-365.96 1078.6,-372.77"/>
</g>
<!-- Node14 -->
<g id="node14" class="node">
<title>Node14</title>
<g id="a_node14"><a xlink:href="group__model_engine.html#gaa9af6d9e3eb9df46397e7fc463ae5525" target="_top" xlink:title=" ">
<polygon fill="white" stroke="black" points="351,-228.5 351,-247.5 422,-247.5 422,-228.5 351,-228.5"/>
<text text-anchor="middle" x="386.5" y="-235.5" font-family="Helvetica,sans-Serif" font-size="10.00">addTexture</text>
</a>
</g>
</g>
<!-- Node13&#45;&gt;Node14 -->
<g id="edge16" class="edge">
<title>Node13&#45;&gt;Node14</title>
<path fill="none" stroke="midnightblue" d="M233.78,-152.64C249.73,-168.69 284.04,-200.9 319,-219 325.82,-222.53 333.38,-225.49 340.89,-227.93"/>
<polygon fill="midnightblue" stroke="midnightblue" points="340.09,-231.34 350.67,-230.85 342.09,-224.63 340.09,-231.34"/>
</g>
<!-- Node15 -->
<g id="node15" class="node">
<title>Node15</title>
<g id="a_node15"><a xlink:href="curves_8cpp.html#af213e79ca700e91ea886085a4149a848" target="_top" xlink:title=" ">
<polygon fill="white" stroke="black" points="334.5,-190.5 334.5,-209.5 438.5,-209.5 438.5,-190.5 334.5,-190.5"/>
<text text-anchor="middle" x="386.5" y="-197.5" font-family="Helvetica,sans-Serif" font-size="10.00">advance_in_curve</text>
</a>
</g>
</g>
<!-- Node13&#45;&gt;Node15 -->
<g id="edge17" class="edge">
<title>Node13&#45;&gt;Node15</title>
<path fill="none" stroke="midnightblue" d="M246.4,-152.56C265.4,-160.68 293.74,-172.34 319,-181 325.56,-183.25 332.55,-185.45 339.44,-187.51"/>
<polygon fill="midnightblue" stroke="midnightblue" points="338.81,-190.98 349.39,-190.42 340.78,-184.26 338.81,-190.98"/>
</g>
<!-- Node20 -->
<g id="node20" class="node">
<title>Node20</title>
<g id="a_node20"><a xlink:href="engine_8cpp.html#a072c434cfd125e58ac1cec9a5725688a" target="_top" xlink:title=" ">
<polygon fill="white" stroke="black" points="328.5,-152.5 328.5,-171.5 444.5,-171.5 444.5,-152.5 328.5,-152.5"/>
<text text-anchor="middle" x="386.5" y="-159.5" font-family="Helvetica,sans-Serif" font-size="10.00">advance_in_rotation</text>
</a>
</g>
</g>
<!-- Node13&#45;&gt;Node20 -->
<g id="edge22" class="edge">
<title>Node13&#45;&gt;Node20</title>
<path fill="none" stroke="midnightblue" d="M276.33,-149.12C289.72,-150.7 304.32,-152.42 318.37,-154.08"/>
<polygon fill="midnightblue" stroke="midnightblue" points="318.13,-157.57 328.47,-155.27 318.95,-150.62 318.13,-157.57"/>
</g>
<!-- Node21 -->
<g id="node21" class="node">
<title>Node21</title>
<g id="a_node21"><a xlink:href="group__model_engine.html#ga56beba311d0a6fcbda9aeb516fe67f8f" target="_top" xlink:title=" ">
<polygon fill="white" stroke="black" points="351.5,-114.5 351.5,-133.5 421.5,-133.5 421.5,-114.5 351.5,-114.5"/>
<text text-anchor="middle" x="386.5" y="-121.5" font-family="Helvetica,sans-Serif" font-size="10.00">allocModel</text>
</a>
</g>
</g>
<!-- Node13&#45;&gt;Node21 -->
<g id="edge23" class="edge">
<title>Node13&#45;&gt;Node21</title>
<path fill="none" stroke="midnightblue" d="M276.33,-136.88C297.15,-134.43 320.92,-131.62 340.95,-129.26"/>
<polygon fill="midnightblue" stroke="midnightblue" points="341.52,-132.71 351.04,-128.07 340.7,-125.76 341.52,-132.71"/>
</g>
<!-- Node22 -->
<g id="node22" class="node">
<title>Node22</title>
<g id="a_node22"><a xlink:href="group__spherical.html#ga2a22d15f7463ccd8f8d1aa65e7578983" target="_top" xlink:title=" ">
<polygon fill="white" stroke="black" points="330,-76.5 330,-95.5 443,-95.5 443,-76.5 330,-76.5"/>
<text text-anchor="middle" x="386.5" y="-83.5" font-family="Helvetica,sans-Serif" font-size="10.00">cartesian2Spherical</text>
</a>
</g>
</g>
<!-- Node13&#45;&gt;Node22 -->
<g id="edge24" class="edge">
<title>Node13&#45;&gt;Node22</title>
<path fill="none" stroke="midnightblue" d="M246.4,-133.44C265.4,-125.32 293.74,-113.66 319,-105 325.56,-102.75 332.55,-100.55 339.44,-98.49"/>
<polygon fill="midnightblue" stroke="midnightblue" points="340.78,-101.74 349.39,-95.58 338.81,-95.02 340.78,-101.74"/>
</g>
<!-- Node23 -->
<g id="node23" class="node">
<title>Node23</title>
<g id="a_node23"><a xlink:href="curves_8cpp.html#ad812fc50a0384335487e258a6f61714e" target="_top" xlink:title=" ">
<polygon fill="white" stroke="black" points="529,-67.5 529,-86.5 606,-86.5 606,-67.5 529,-67.5"/>
<text text-anchor="middle" x="567.5" y="-74.5" font-family="Helvetica,sans-Serif" font-size="10.00">renderCurve</text>
</a>
</g>
</g>
<!-- Node13&#45;&gt;Node23 -->
<g id="edge25" class="edge">
<title>Node13&#45;&gt;Node23</title>
<path fill="none" stroke="midnightblue" d="M232.35,-133.37C247.14,-116.09 281.07,-80.36 319,-67 385.98,-43.41 469.52,-54.41 520.4,-65.2"/>
<polygon fill="midnightblue" stroke="midnightblue" points="519.91,-68.67 530.43,-67.41 521.42,-61.84 519.91,-68.67"/>
</g>
<!-- Node24 -->
<g id="node24" class="node">
<title>Node24</title>
<g id="a_node24"><a xlink:href="group__model_engine.html#ga9b0aa26dead35aab4fa6be0709998046" target="_top" xlink:title=" ">
<polygon fill="white" stroke="black" points="347.5,-0.5 347.5,-19.5 425.5,-19.5 425.5,-0.5 347.5,-0.5"/>
<text text-anchor="middle" x="386.5" y="-7.5" font-family="Helvetica,sans-Serif" font-size="10.00">renderModel</text>
</a>
</g>
</g>
<!-- Node13&#45;&gt;Node24 -->
<g id="edge27" class="edge">
<title>Node13&#45;&gt;Node24</title>
<path fill="none" stroke="midnightblue" d="M230.36,-133.39C243.6,-112.42 277.91,-62.2 319,-34 325.12,-29.8 332.07,-26.24 339.1,-23.26"/>
<polygon fill="midnightblue" stroke="midnightblue" points="340.62,-26.43 348.68,-19.55 338.09,-19.9 340.62,-26.43"/>
</g>
<!-- Node16 -->
<g id="node16" class="node">
<title>Node16</title>
<g id="a_node16"><a xlink:href="curves_8cpp.html#aca4aaefe66ab2cbc9d44054ab8929c0d" target="_top" xlink:title=" ">
<polygon fill="white" stroke="black" points="506,-133.5 506,-152.5 629,-152.5 629,-133.5 506,-133.5"/>
<text text-anchor="middle" x="567.5" y="-140.5" font-family="Helvetica,sans-Serif" font-size="10.00">align_global_pos_mat</text>
</a>
</g>
</g>
<!-- Node15&#45;&gt;Node16 -->
<g id="edge18" class="edge">
<title>Node15&#45;&gt;Node16</title>
<path fill="none" stroke="midnightblue" d="M422.11,-190.45C432.4,-187.52 443.68,-184.21 454,-181 479.43,-173.08 507.85,-163.47 529.76,-155.9"/>
<polygon fill="midnightblue" stroke="midnightblue" points="531.04,-159.16 539.34,-152.58 528.74,-152.55 531.04,-159.16"/>
</g>
<!-- Node17 -->
<g id="node17" class="node">
<title>Node17</title>
<g id="a_node17"><a xlink:href="curves_8cpp.html#abe9fa1f2a311f275f92f5b46fb2f8490" target="_top" xlink:title=" ">
<polygon fill="white" stroke="black" points="703.5,-114.5 703.5,-133.5 833.5,-133.5 833.5,-114.5 703.5,-114.5"/>
<text text-anchor="middle" x="768.5" y="-121.5" font-family="Helvetica,sans-Serif" font-size="10.00">get_curve_global_point</text>
</a>
</g>
</g>
<!-- Node16&#45;&gt;Node17 -->
<g id="edge19" class="edge">
<title>Node16&#45;&gt;Node17</title>
<path fill="none" stroke="midnightblue" d="M629.02,-137.22C649.26,-135.29 672.06,-133.11 693.23,-131.09"/>
<polygon fill="midnightblue" stroke="midnightblue" points="693.85,-134.55 703.47,-130.11 693.19,-127.58 693.85,-134.55"/>
</g>
<!-- Node18 -->
<g id="node18" class="node">
<title>Node18</title>
<g id="a_node18"><a xlink:href="curves_8cpp.html#af68f8da25ecf53c589aa5d47f1f8e164" target="_top" xlink:title=" ">
<polygon fill="white" stroke="black" points="933.5,-133.5 933.5,-152.5 998.5,-152.5 998.5,-133.5 933.5,-133.5"/>
<text text-anchor="middle" x="966" y="-140.5" font-family="Helvetica,sans-Serif" font-size="10.00">get_curve</text>
</a>
</g>
</g>
<!-- Node17&#45;&gt;Node18 -->
<g id="edge20" class="edge">
<title>Node17&#45;&gt;Node18</title>
<path fill="none" stroke="midnightblue" d="M833.51,-130.22C862.97,-133.08 897.09,-136.4 923.19,-138.94"/>
<polygon fill="midnightblue" stroke="midnightblue" points="923.2,-142.45 933.49,-139.94 923.88,-135.49 923.2,-142.45"/>
</g>
<!-- Node19 -->
<g id="node19" class="node">
<title>Node19</title>
<g id="a_node19"><a xlink:href="curves_8cpp.html#afa648d7de8c941b50b26f02755a955b9" target="_top" xlink:title=" ">
<polygon fill="white" stroke="black" points="921.5,-95.5 921.5,-114.5 1010.5,-114.5 1010.5,-95.5 921.5,-95.5"/>
<text text-anchor="middle" x="966" y="-102.5" font-family="Helvetica,sans-Serif" font-size="10.00">get_curve_info</text>
</a>
</g>
</g>
<!-- Node17&#45;&gt;Node19 -->
<g id="edge21" class="edge">
<title>Node17&#45;&gt;Node19</title>
<path fill="none" stroke="midnightblue" d="M833.51,-117.78C858.65,-115.34 887.19,-112.56 911.23,-110.23"/>
<polygon fill="midnightblue" stroke="midnightblue" points="911.63,-113.7 921.24,-109.25 910.95,-106.74 911.63,-113.7"/>
</g>
<!-- Node23&#45;&gt;Node17 -->
<g id="edge26" class="edge">
<title>Node23&#45;&gt;Node17</title>
<path fill="none" stroke="midnightblue" d="M606.4,-85.95C637.81,-93.37 682.71,-103.98 717.14,-112.11"/>
<polygon fill="midnightblue" stroke="midnightblue" points="716.47,-115.54 727.01,-114.44 718.08,-108.73 716.47,-115.54"/>
</g>
</g>
</svg>
        <g id="navigator" transform="translate(0 0)" fill="#404254">
                <rect fill="#f2f5e9" fill-opacity="0.5" stroke="#606060" stroke-width=".5" x="0" y="0" width="60" height="60"/>
                <use id="zoomplus" xlink:href="#zoomPlus" x="17" y="9" onmousedown="handleZoom(evt,'in')"/>
                <use id="zoomminus" xlink:href="#zoomMin" x="42" y="9" onmousedown="handleZoom(evt,'out')"/>
                <use id="reset" xlink:href="#resetDef" x="30" y="36" onmousedown="handleReset()"/>
                <g id="arrowUp" xlink:href="#dirArrow" transform="translate(30 24)" onmousedown="handlePan(0,-1)">
                  <use xlink:href="#rim" fill="#404040">
                        <set attributeName="fill" to="#808080" begin="arrowUp.mouseover" end="arrowUp.mouseout"/>
                  </use>
                  <path fill="none" stroke="white" stroke-width="1.5" d="M0,-3.0v7 M-2.5,-0.5L0,-3.0L2.5,-0.5"/>
                </g>
                <g id="arrowRight" xlink:href="#dirArrow" transform="rotate(90) translate(36 -43)" onmousedown="handlePan(1,0)">
                  <use xlink:href="#rim" fill="#404040">
                        <set attributeName="fill" to="#808080" begin="arrowRight.mouseover" end="arrowRight.mouseout"/>
                  </use>
                  <path fill="none" stroke="white" stroke-width="1.5" d="M0,-3.0v7 M-2.5,-0.5L0,-3.0L2.5,-0.5"/>
                </g>
                <g id="arrowDown" xlink:href="#dirArrow" transform="rotate(180) translate(-30 -48)" onmousedown="handlePan(0,1)">
                  <use xlink:href="#rim" fill="#404040">
                        <set attributeName="fill" to="#808080" begin="arrowDown.mouseover" end="arrowDown.mouseout"/>
                  </use>
                  <path fill="none" stroke="white" stroke-width="1.5" d="M0,-3.0v7 M-2.5,-0.5L0,-3.0L2.5,-0.5"/>
                </g>
                <g id="arrowLeft" xlink:href="#dirArrow" transform="rotate(270) translate(-36 17)" onmousedown="handlePan(-1,0)">
                  <use xlink:href="#rim" fill="#404040">
                        <set attributeName="fill" to="#808080" begin="arrowLeft.mouseover" end="arrowLeft.mouseout"/>
                  </use>
                  <path fill="none" stroke="white" stroke-width="1.5" d="M0,-3.0v7 M-2.5,-0.5L0,-3.0L2.5,-0.5"/>
                </g>
        </g>
        <svg viewBox="0 0 15 15" width="100%" height="30px" preserveAspectRatio="xMaxYMin meet">
         <g id="arrow_out" transform="scale(0.3 0.3)">
          <a xlink:href="group__engine_ga2b6a8884687b3fe271b099a450a82d24_cgraph_org.svg" target="_base">
           <rect id="button" ry="5" rx="5" y="6" x="6" height="38" width="38"
                fill="#f2f5e9" fill-opacity="0.5" stroke="#606060" stroke-width="1.0"/>
           <path id="arrow"
             d="M 11.500037,31.436501 C 11.940474,20.09759 22.043105,11.32322 32.158766,21.979434 L 37.068811,17.246167 C 37.068811,17.246167 37.088388,32 37.088388,32 L 22.160133,31.978069 C 22.160133,31.978069 26.997745,27.140456 26.997745,27.140456 C 18.528582,18.264221 13.291696,25.230495 11.500037,31.436501 z"
             style="fill:#404040;"/>
          </a>
         </g>
        </svg>
</svg>
