<?xml version="1.0" encoding="UTF-8" standalone="no"?>
<!DOCTYPE svg PUBLIC "-//W3C//DTD SVG 1.1//EN"
 "http://www.w3.org/Graphics/SVG/1.1/DTD/svg11.dtd">
<!-- Generated by graphviz version 3.0.0 (0)
 -->
<!-- Title: main Pages: 1 -->
<svg width="407pt" height="142pt"
 viewBox="0.00 0.00 407.00 142.00" xmlns="http://www.w3.org/2000/svg" xmlns:xlink="http://www.w3.org/1999/xlink">
<g id="graph0" class="graph" transform="scale(1 1) rotate(0) translate(4 138)">
<title>main</title>
<polygon fill="white" stroke="transparent" points="-4,4 -4,-138 403,-138 403,4 -4,4"/>
<!-- Node1 -->
<g id="node1" class="node">
<title>Node1</title>
<g id="a_node1"><a xlink:title=" ">
<polygon fill="#bfbfbf" stroke="black" points="0,-57.5 0,-76.5 41,-76.5 41,-57.5 0,-57.5"/>
<text text-anchor="middle" x="20.5" y="-64.5" font-family="Helvetica,sans-Serif" font-size="10.00">main</text>
</a>
</g>
</g>
<!-- Node2 -->
<g id="node2" class="node">
<title>Node2</title>
<g id="a_node2"><a xlink:href="main_8cpp.html#a33e20b37682a0492a9e95d13bef17f02" target="_top" xlink:title=" ">
<polygon fill="white" stroke="black" points="97.5,-114.5 97.5,-133.5 169.5,-133.5 169.5,-114.5 97.5,-114.5"/>
<text text-anchor="middle" x="133.5" y="-121.5" font-family="Helvetica,sans-Serif" font-size="10.00">changeSize</text>
</a>
</g>
</g>
<!-- Node1&#45;&gt;Node2 -->
<g id="edge1" class="edge">
<title>Node1&#45;&gt;Node2</title>
<path fill="none" stroke="midnightblue" d="M33.68,-76.78C44.54,-85.14 61.14,-97.04 77,-105 81.27,-107.14 85.84,-109.14 90.45,-110.97"/>
<polygon fill="midnightblue" stroke="midnightblue" points="89.31,-114.28 99.91,-114.49 91.76,-107.72 89.31,-114.28"/>
</g>
<!-- Node3 -->
<g id="node3" class="node">
<title>Node3</title>
<g id="a_node3"><a xlink:href="main_8cpp.html#ac7632fff72011e8c11ae504a4596a7f7" target="_top" xlink:title=" ">
<polygon fill="white" stroke="black" points="91.5,-76.5 91.5,-95.5 175.5,-95.5 175.5,-76.5 91.5,-76.5"/>
<text text-anchor="middle" x="133.5" y="-83.5" font-family="Helvetica,sans-Serif" font-size="10.00">keyboardFunc</text>
</a>
</g>
</g>
<!-- Node1&#45;&gt;Node3 -->
<g id="edge2" class="edge">
<title>Node1&#45;&gt;Node3</title>
<path fill="none" stroke="midnightblue" d="M41.09,-70.35C52.21,-72.26 66.7,-74.74 80.85,-77.16"/>
<polygon fill="midnightblue" stroke="midnightblue" points="80.59,-80.67 91.04,-78.9 81.77,-73.77 80.59,-80.67"/>
</g>
<!-- Node4 -->
<g id="node4" class="node">
<title>Node4</title>
<g id="a_node4"><a xlink:href="main_8cpp.html#a22a15e4bdf7b2b913b6cb41cc85b0b79" target="_top" xlink:title=" ">
<polygon fill="white" stroke="black" points="77,-38.5 77,-57.5 190,-57.5 190,-38.5 77,-38.5"/>
<text text-anchor="middle" x="133.5" y="-45.5" font-family="Helvetica,sans-Serif" font-size="10.00">processSpecialKeys</text>
</a>
</g>
</g>
<!-- Node1&#45;&gt;Node4 -->
<g id="edge3" class="edge">
<title>Node1&#45;&gt;Node4</title>
<path fill="none" stroke="midnightblue" d="M41.09,-63.65C48.57,-62.37 57.58,-60.82 66.99,-59.21"/>
<polygon fill="midnightblue" stroke="midnightblue" points="67.62,-62.66 76.89,-57.52 66.44,-55.76 67.62,-62.66"/>
</g>
<!-- Node5 -->
<g id="node5" class="node">
<title>Node5</title>
<g id="a_node5"><a xlink:href="main_8cpp.html#a2a96aed746d13d9b42d7888e156045f6" target="_top" xlink:title=" ">
<polygon fill="white" stroke="black" points="95,-0.5 95,-19.5 172,-19.5 172,-0.5 95,-0.5"/>
<text text-anchor="middle" x="133.5" y="-7.5" font-family="Helvetica,sans-Serif" font-size="10.00">renderScene</text>
</a>
</g>
</g>
<!-- Node1&#45;&gt;Node5 -->
<g id="edge4" class="edge">
<title>Node1&#45;&gt;Node5</title>
<path fill="none" stroke="midnightblue" d="M33.68,-57.22C44.54,-48.86 61.14,-36.96 77,-29 81.27,-26.86 85.84,-24.86 90.45,-23.03"/>
<polygon fill="midnightblue" stroke="midnightblue" points="91.76,-26.28 99.91,-19.51 89.31,-19.72 91.76,-26.28"/>
</g>
<!-- Node6 -->
<g id="node6" class="node">
<title>Node6</title>
<g id="a_node6"><a xlink:href="main_8cpp.html#ab6e5b61214cdc09a3bc74d1d3795c5f9" target="_top" xlink:title=" ">
<polygon fill="white" stroke="black" points="226,-0.5 226,-19.5 291,-19.5 291,-0.5 226,-0.5"/>
<text text-anchor="middle" x="258.5" y="-7.5" font-family="Helvetica,sans-Serif" font-size="10.00">drawCone</text>
</a>
</g>
</g>
<!-- Node5&#45;&gt;Node6 -->
<g id="edge5" class="edge">
<title>Node5&#45;&gt;Node6</title>
<path fill="none" stroke="midnightblue" d="M172.07,-10C185.94,-10 201.74,-10 215.94,-10"/>
<polygon fill="midnightblue" stroke="midnightblue" points="215.95,-13.5 225.95,-10 215.95,-6.5 215.95,-13.5"/>
</g>
<!-- Node7 -->
<g id="node7" class="node">
<title>Node7</title>
<g id="a_node7"><a xlink:href="main_8cpp.html#a808aea2b6040a6c77d4062c1f190a0f2" target="_top" xlink:title=" ">
<polygon fill="white" stroke="black" points="327,-0.5 327,-19.5 399,-19.5 399,-0.5 327,-0.5"/>
<text text-anchor="middle" x="363" y="-7.5" font-family="Helvetica,sans-Serif" font-size="10.00">coneVertex</text>
</a>
</g>
</g>
<!-- Node6&#45;&gt;Node7 -->
<g id="edge6" class="edge">
<title>Node6&#45;&gt;Node7</title>
<path fill="none" stroke="midnightblue" d="M291.09,-10C299.21,-10 308.1,-10 316.76,-10"/>
<polygon fill="midnightblue" stroke="midnightblue" points="316.76,-13.5 326.76,-10 316.76,-6.5 316.76,-13.5"/>
</g>
</g>
</svg>
