<?xml version="1.0" encoding="UTF-8" standalone="no"?>
<!DOCTYPE svg PUBLIC "-//W3C//DTD SVG 1.1//EN"
 "http://www.w3.org/Graphics/SVG/1.1/DTD/svg11.dtd">
<!-- Generated by graphviz version 3.0.0 (0)
 -->
<!-- Title: D::rotate Pages: 1 -->
<svg width="557pt" height="66pt"
 viewBox="0.00 0.00 557.00 66.00" xmlns="http://www.w3.org/2000/svg" xmlns:xlink="http://www.w3.org/1999/xlink">
<g id="graph0" class="graph" transform="scale(1 1) rotate(0) translate(4 62)">
<title>D::rotate</title>
<polygon fill="white" stroke="transparent" points="-4,4 -4,-62 553,-62 553,4 -4,4"/>
<!-- Node1 -->
<g id="node1" class="node">
<title>Node1</title>
<g id="a_node1"><a xlink:title=" ">
<polygon fill="#bfbfbf" stroke="black" points="490,-19.5 490,-38.5 549,-38.5 549,-19.5 490,-19.5"/>
<text text-anchor="middle" x="519.5" y="-26.5" font-family="Helvetica,sans-Serif" font-size="10.00">D::rotate</text>
</a>
</g>
</g>
<!-- Node2 -->
<g id="node2" class="node">
<title>Node2</title>
<g id="a_node2"><a xlink:href="group__explorer_camera.html#ga8679d9b303f36964bf51dba0993caeaa" target="_top" xlink:title=" ">
<polygon fill="white" stroke="black" points="348,-19.5 348,-38.5 454,-38.5 454,-19.5 348,-19.5"/>
<text text-anchor="middle" x="401" y="-26.5" font-family="Helvetica,sans-Serif" font-size="10.00">env_load_defaults</text>
</a>
</g>
</g>
<!-- Node1&#45;&gt;Node2 -->
<g id="edge1" class="edge">
<title>Node1&#45;&gt;Node2</title>
<path fill="none" stroke="midnightblue" d="M479.67,-29C471.47,-29 462.68,-29 454.07,-29"/>
<polygon fill="midnightblue" stroke="midnightblue" points="479.7,-32.5 489.7,-29 479.7,-25.5 479.7,-32.5"/>
</g>
<!-- Node3 -->
<g id="node3" class="node">
<title>Node3</title>
<g id="a_node3"><a xlink:href="group__explorer_camera.html#ga0b95fc35a07bac37f27f163fb7cba34d" target="_top" xlink:title=" ">
<polygon fill="white" stroke="black" points="206.5,-38.5 206.5,-57.5 289.5,-57.5 289.5,-38.5 206.5,-38.5"/>
<text text-anchor="middle" x="248" y="-45.5" font-family="Helvetica,sans-Serif" font-size="10.00">explKeyboard</text>
</a>
</g>
</g>
<!-- Node2&#45;&gt;Node3 -->
<g id="edge2" class="edge">
<title>Node2&#45;&gt;Node3</title>
<path fill="none" stroke="midnightblue" d="M337.24,-36.9C321.24,-38.91 304.46,-41.02 289.87,-42.86"/>
<polygon fill="midnightblue" stroke="midnightblue" points="338.13,-40.31 347.61,-35.59 337.25,-33.37 338.13,-40.31"/>
</g>
<!-- Node4 -->
<g id="node4" class="node">
<title>Node4</title>
<g id="a_node4"><a xlink:href="group__engine.html#ga7148688af5abea686f74d15a50bd20ae" target="_top" xlink:title=" ">
<polygon fill="white" stroke="black" points="184,-0.5 184,-19.5 312,-19.5 312,-0.5 184,-0.5"/>
<text text-anchor="middle" x="248" y="-7.5" font-family="Helvetica,sans-Serif" font-size="10.00">xml_load_and_set_env</text>
</a>
</g>
</g>
<!-- Node2&#45;&gt;Node4 -->
<g id="edge3" class="edge">
<title>Node2&#45;&gt;Node4</title>
<path fill="none" stroke="midnightblue" d="M337.55,-21.14C329.18,-20.09 320.6,-19.01 312.22,-17.95"/>
<polygon fill="midnightblue" stroke="midnightblue" points="337.25,-24.63 347.61,-22.41 338.13,-17.69 337.25,-24.63"/>
</g>
<!-- Node5 -->
<g id="node5" class="node">
<title>Node5</title>
<g id="a_node5"><a xlink:href="group__engine.html#ga98eaf946471acbd931de5d52ca83b3d1" target="_top" xlink:title=" ">
<polygon fill="white" stroke="black" points="77,-0.5 77,-19.5 148,-19.5 148,-0.5 77,-0.5"/>
<text text-anchor="middle" x="112.5" y="-7.5" font-family="Helvetica,sans-Serif" font-size="10.00">engine_run</text>
</a>
</g>
</g>
<!-- Node4&#45;&gt;Node5 -->
<g id="edge4" class="edge">
<title>Node4&#45;&gt;Node5</title>
<path fill="none" stroke="midnightblue" d="M173.71,-10C164.82,-10 156.09,-10 148.16,-10"/>
<polygon fill="midnightblue" stroke="midnightblue" points="173.77,-13.5 183.77,-10 173.77,-6.5 173.77,-13.5"/>
</g>
<!-- Node6 -->
<g id="node6" class="node">
<title>Node6</title>
<g id="a_node6"><a xlink:href="group___operations___c_l_i.html#ga3c04138a5bfe5d72780bb7e82a18e627" target="_top" xlink:title=" ">
<polygon fill="white" stroke="black" points="0,-0.5 0,-19.5 41,-19.5 41,-0.5 0,-0.5"/>
<text text-anchor="middle" x="20.5" y="-7.5" font-family="Helvetica,sans-Serif" font-size="10.00">main</text>
</a>
</g>
</g>
<!-- Node5&#45;&gt;Node6 -->
<g id="edge5" class="edge">
<title>Node5&#45;&gt;Node6</title>
<path fill="none" stroke="midnightblue" d="M66.88,-10C57.87,-10 48.84,-10 41.24,-10"/>
<polygon fill="midnightblue" stroke="midnightblue" points="66.96,-13.5 76.96,-10 66.96,-6.5 66.96,-13.5"/>
</g>
</g>
</svg>
