<?xml version="1.0" encoding="UTF-8" standalone="no"?>
<!DOCTYPE svg PUBLIC "-//W3C//DTD SVG 1.1//EN"
 "http://www.w3.org/Graphics/SVG/1.1/DTD/svg11.dtd">
<!-- Generated by graphviz version 3.0.0 (0)
 -->
<!-- Title: D::cartesian Pages: 1 -->
<svg width="592pt" height="218pt"
 viewBox="0.00 0.00 592.00 218.00" xmlns="http://www.w3.org/2000/svg" xmlns:xlink="http://www.w3.org/1999/xlink">
<g id="graph0" class="graph" transform="scale(1 1) rotate(0) translate(4 214)">
<title>D::cartesian</title>
<polygon fill="white" stroke="transparent" points="-4,4 -4,-214 588,-214 588,4 -4,4"/>
<!-- Node1 -->
<g id="node1" class="node">
<title>Node1</title>
<g id="a_node1"><a xlink:title=" ">
<polygon fill="#bfbfbf" stroke="black" points="509,-114.5 509,-133.5 584,-133.5 584,-114.5 509,-114.5"/>
<text text-anchor="middle" x="546.5" y="-121.5" font-family="Helvetica,sans-Serif" font-size="10.00">D::cartesian</text>
</a>
</g>
</g>
<!-- Node2 -->
<g id="node2" class="node">
<title>Node2</title>
<g id="a_node2"><a xlink:href="group__explorer_camera.html#ga8679d9b303f36964bf51dba0993caeaa" target="_top" xlink:title=" ">
<polygon fill="white" stroke="black" points="363.5,-114.5 363.5,-133.5 469.5,-133.5 469.5,-114.5 363.5,-114.5"/>
<text text-anchor="middle" x="416.5" y="-121.5" font-family="Helvetica,sans-Serif" font-size="10.00">env_load_defaults</text>
</a>
</g>
</g>
<!-- Node1&#45;&gt;Node2 -->
<g id="edge1" class="edge">
<title>Node1&#45;&gt;Node2</title>
<path fill="none" stroke="midnightblue" d="M498.57,-124C489.25,-124 479.41,-124 469.92,-124"/>
<polygon fill="midnightblue" stroke="midnightblue" points="498.82,-127.5 508.82,-124 498.82,-120.5 498.82,-127.5"/>
</g>
<!-- Node7 -->
<g id="node7" class="node">
<title>Node7</title>
<g id="a_node7"><a xlink:href="group___operations.html#ga8d5a19a3522cea1b4254684cf6515d13" target="_top" xlink:title=" ">
<polygon fill="white" stroke="black" points="364,-152.5 364,-171.5 469,-171.5 469,-152.5 364,-152.5"/>
<text text-anchor="middle" x="416.5" y="-159.5" font-family="Helvetica,sans-Serif" font-size="10.00">operations_render</text>
</a>
</g>
</g>
<!-- Node1&#45;&gt;Node7 -->
<g id="edge6" class="edge">
<title>Node1&#45;&gt;Node7</title>
<path fill="none" stroke="midnightblue" d="M503.28,-136.54C485.86,-141.7 466.01,-147.6 449.79,-152.41"/>
<polygon fill="midnightblue" stroke="midnightblue" points="504.61,-139.79 513.2,-133.59 502.62,-133.08 504.61,-139.79"/>
</g>
<!-- Node9 -->
<g id="node9" class="node">
<title>Node9</title>
<g id="a_node9"><a xlink:href="group__explorer_camera.html#ga549cdceeb42f58967c400bcf0fe7a9cf" target="_top" xlink:title=" ">
<polygon fill="white" stroke="black" points="360,-76.5 360,-95.5 473,-95.5 473,-76.5 360,-76.5"/>
<text text-anchor="middle" x="416.5" y="-83.5" font-family="Helvetica,sans-Serif" font-size="10.00">spherical2Cartesian</text>
</a>
</g>
</g>
<!-- Node1&#45;&gt;Node9 -->
<g id="edge10" class="edge">
<title>Node1&#45;&gt;Node9</title>
<path fill="none" stroke="midnightblue" d="M503.28,-111.46C485.86,-106.3 466.01,-100.4 449.79,-95.59"/>
<polygon fill="midnightblue" stroke="midnightblue" points="502.62,-114.92 513.2,-114.41 504.61,-108.21 502.62,-114.92"/>
</g>
<!-- Node3 -->
<g id="node3" class="node">
<title>Node3</title>
<g id="a_node3"><a xlink:href="group__explorer_camera.html#ga0b95fc35a07bac37f27f163fb7cba34d" target="_top" xlink:title=" ">
<polygon fill="white" stroke="black" points="77,-114.5 77,-133.5 160,-133.5 160,-114.5 77,-114.5"/>
<text text-anchor="middle" x="118.5" y="-121.5" font-family="Helvetica,sans-Serif" font-size="10.00">explKeyboard</text>
</a>
</g>
</g>
<!-- Node2&#45;&gt;Node3 -->
<g id="edge2" class="edge">
<title>Node2&#45;&gt;Node3</title>
<path fill="none" stroke="midnightblue" d="M353.1,-124C295.02,-124 210.13,-124 160.28,-124"/>
<polygon fill="midnightblue" stroke="midnightblue" points="353.26,-127.5 363.26,-124 353.26,-120.5 353.26,-127.5"/>
</g>
<!-- Node4 -->
<g id="node4" class="node">
<title>Node4</title>
<g id="a_node4"><a xlink:href="group__engine.html#ga7148688af5abea686f74d15a50bd20ae" target="_top" xlink:title=" ">
<polygon fill="white" stroke="black" points="196,-152.5 196,-171.5 324,-171.5 324,-152.5 196,-152.5"/>
<text text-anchor="middle" x="260" y="-159.5" font-family="Helvetica,sans-Serif" font-size="10.00">xml_load_and_set_env</text>
</a>
</g>
</g>
<!-- Node2&#45;&gt;Node4 -->
<g id="edge3" class="edge">
<title>Node2&#45;&gt;Node4</title>
<path fill="none" stroke="midnightblue" d="M366.55,-136.04C344.96,-141.35 319.96,-147.5 299.71,-152.48"/>
<polygon fill="midnightblue" stroke="midnightblue" points="367.64,-139.38 376.51,-133.59 365.97,-132.58 367.64,-139.38"/>
</g>
<!-- Node5 -->
<g id="node5" class="node">
<title>Node5</title>
<g id="a_node5"><a xlink:href="group__engine.html#ga98eaf946471acbd931de5d52ca83b3d1" target="_top" xlink:title=" ">
<polygon fill="white" stroke="black" points="83,-171.5 83,-190.5 154,-190.5 154,-171.5 83,-171.5"/>
<text text-anchor="middle" x="118.5" y="-178.5" font-family="Helvetica,sans-Serif" font-size="10.00">engine_run</text>
</a>
</g>
</g>
<!-- Node4&#45;&gt;Node5 -->
<g id="edge4" class="edge">
<title>Node4&#45;&gt;Node5</title>
<path fill="none" stroke="midnightblue" d="M185.71,-171.98C174.76,-173.47 163.91,-174.95 154.27,-176.26"/>
<polygon fill="midnightblue" stroke="midnightblue" points="186.34,-175.43 195.78,-170.61 185.4,-168.49 186.34,-175.43"/>
</g>
<!-- Node6 -->
<g id="node6" class="node">
<title>Node6</title>
<g id="a_node6"><a xlink:href="group__engine.html#ga3c04138a5bfe5d72780bb7e82a18e627" target="_top" xlink:title=" ">
<polygon fill="white" stroke="black" points="0,-171.5 0,-190.5 41,-190.5 41,-171.5 0,-171.5"/>
<text text-anchor="middle" x="20.5" y="-178.5" font-family="Helvetica,sans-Serif" font-size="10.00">main</text>
</a>
</g>
</g>
<!-- Node5&#45;&gt;Node6 -->
<g id="edge5" class="edge">
<title>Node5&#45;&gt;Node6</title>
<path fill="none" stroke="midnightblue" d="M72.74,-181C61.6,-181 50.22,-181 41.03,-181"/>
<polygon fill="midnightblue" stroke="midnightblue" points="72.84,-184.5 82.84,-181 72.84,-177.5 72.84,-184.5"/>
</g>
<!-- Node7&#45;&gt;Node4 -->
<g id="edge9" class="edge">
<title>Node7&#45;&gt;Node4</title>
<path fill="none" stroke="midnightblue" d="M353.61,-162C343.86,-162 333.77,-162 324,-162"/>
<polygon fill="midnightblue" stroke="midnightblue" points="353.62,-165.5 363.62,-162 353.62,-158.5 353.62,-165.5"/>
</g>
<!-- Node8 -->
<g id="node8" class="node">
<title>Node8</title>
<g id="a_node8"><a xlink:href="group__engine.html#ga91c42686f3245f22fb6b17ba5372d92c" target="_top" xlink:title=" ">
<polygon fill="white" stroke="black" points="221.5,-190.5 221.5,-209.5 298.5,-209.5 298.5,-190.5 221.5,-190.5"/>
<text text-anchor="middle" x="260" y="-197.5" font-family="Helvetica,sans-Serif" font-size="10.00">renderScene</text>
</a>
</g>
</g>
<!-- Node7&#45;&gt;Node8 -->
<g id="edge7" class="edge">
<title>Node7&#45;&gt;Node8</title>
<path fill="none" stroke="midnightblue" d="M366.69,-174.01C344.69,-179.42 319.12,-185.7 298.64,-190.74"/>
<polygon fill="midnightblue" stroke="midnightblue" points="367.64,-177.38 376.51,-171.59 365.97,-170.58 367.64,-177.38"/>
</g>
<!-- Node8&#45;&gt;Node5 -->
<g id="edge8" class="edge">
<title>Node8&#45;&gt;Node5</title>
<path fill="none" stroke="midnightblue" d="M211.17,-193.49C192.54,-190.95 171.58,-188.09 154.41,-185.75"/>
<polygon fill="midnightblue" stroke="midnightblue" points="210.87,-196.98 221.25,-194.86 211.81,-190.04 210.87,-196.98"/>
</g>
<!-- Node10 -->
<g id="node10" class="node">
<title>Node10</title>
<g id="a_node10"><a xlink:href="group__explorer_camera.html#ga9fe47c5361dc03b642823dc88f07465b" target="_top" xlink:title=" ">
<polygon fill="white" stroke="black" points="217,-76.5 217,-95.5 303,-95.5 303,-76.5 217,-76.5"/>
<text text-anchor="middle" x="260" y="-83.5" font-family="Helvetica,sans-Serif" font-size="10.00">explRedisplay</text>
</a>
</g>
</g>
<!-- Node9&#45;&gt;Node10 -->
<g id="edge11" class="edge">
<title>Node9&#45;&gt;Node10</title>
<path fill="none" stroke="midnightblue" d="M349.51,-86C333.79,-86 317.43,-86 303.12,-86"/>
<polygon fill="midnightblue" stroke="midnightblue" points="349.72,-89.5 359.72,-86 349.72,-82.5 349.72,-89.5"/>
</g>
<!-- Node10&#45;&gt;Node3 -->
<g id="edge13" class="edge">
<title>Node10&#45;&gt;Node3</title>
<path fill="none" stroke="midnightblue" d="M214.04,-98.25C194.82,-103.48 172.7,-109.51 154.69,-114.41"/>
<polygon fill="midnightblue" stroke="midnightblue" points="215.07,-101.59 223.8,-95.59 213.23,-94.84 215.07,-101.59"/>
</g>
<!-- Node11 -->
<g id="node11" class="node">
<title>Node11</title>
<g id="a_node11"><a xlink:href="group__explorer_camera.html#gab0f1d17222b0687759f3d0e7ee600f20" target="_top" xlink:title=" ">
<polygon fill="white" stroke="black" points="80.5,-0.5 80.5,-19.5 156.5,-19.5 156.5,-0.5 80.5,-0.5"/>
<text text-anchor="middle" x="118.5" y="-7.5" font-family="Helvetica,sans-Serif" font-size="10.00">explCamera</text>
</a>
</g>
</g>
<!-- Node10&#45;&gt;Node11 -->
<g id="edge12" class="edge">
<title>Node10&#45;&gt;Node11</title>
<path fill="none" stroke="midnightblue" d="M234.4,-71.07C214.56,-59.22 185.81,-42.45 160,-29 153.8,-25.77 146.96,-22.46 140.68,-19.53"/>
<polygon fill="midnightblue" stroke="midnightblue" points="232.74,-74.15 243.11,-76.3 236.34,-68.15 232.74,-74.15"/>
</g>
<!-- Node12 -->
<g id="node12" class="node">
<title>Node12</title>
<g id="a_node12"><a xlink:href="group__explorer_camera.html#ga1521b52ce120927b1ab548e0b6631e13" target="_top" xlink:title=" ">
<polygon fill="white" stroke="black" points="83,-76.5 83,-95.5 154,-95.5 154,-76.5 83,-76.5"/>
<text text-anchor="middle" x="118.5" y="-83.5" font-family="Helvetica,sans-Serif" font-size="10.00">explMotion</text>
</a>
</g>
</g>
<!-- Node10&#45;&gt;Node12 -->
<g id="edge14" class="edge">
<title>Node10&#45;&gt;Node12</title>
<path fill="none" stroke="midnightblue" d="M206.64,-86C189.08,-86 169.95,-86 154.09,-86"/>
<polygon fill="midnightblue" stroke="midnightblue" points="206.77,-89.5 216.77,-86 206.77,-82.5 206.77,-89.5"/>
</g>
<!-- Node13 -->
<g id="node13" class="node">
<title>Node13</title>
<g id="a_node13"><a xlink:href="group__explorer_camera.html#gab86b1c960c066cefd232128fa8754875" target="_top" xlink:title=" ">
<polygon fill="white" stroke="black" points="83.5,-38.5 83.5,-57.5 153.5,-57.5 153.5,-38.5 83.5,-38.5"/>
<text text-anchor="middle" x="118.5" y="-45.5" font-family="Helvetica,sans-Serif" font-size="10.00">explMouse</text>
</a>
</g>
</g>
<!-- Node10&#45;&gt;Node13 -->
<g id="edge15" class="edge">
<title>Node10&#45;&gt;Node13</title>
<path fill="none" stroke="midnightblue" d="M213.89,-73.71C194.35,-68.39 171.86,-62.26 153.73,-57.32"/>
<polygon fill="midnightblue" stroke="midnightblue" points="213.23,-77.16 223.8,-76.41 215.07,-70.41 213.23,-77.16"/>
</g>
</g>
</svg>
