<?xml version="1.0" encoding="UTF-8" standalone="no"?>
<!DOCTYPE svg PUBLIC "-//W3C//DTD SVG 1.1//EN"
 "http://www.w3.org/Graphics/SVG/1.1/DTD/svg11.dtd">
<!-- Generated by graphviz version 3.0.0 (0)
 -->
<!-- Title: main2 Pages: 1 -->
<svg width="1254pt" height="203pt"
 viewBox="0.00 0.00 1254.00 202.50" xmlns="http://www.w3.org/2000/svg" xmlns:xlink="http://www.w3.org/1999/xlink">
<g id="graph0" class="graph" transform="scale(1 1) rotate(0) translate(4 198.5)">
<title>main2</title>
<polygon fill="white" stroke="transparent" points="-4,4 -4,-198.5 1250,-198.5 1250,4 -4,4"/>
<!-- Node1 -->
<g id="node1" class="node">
<title>Node1</title>
<g id="a_node1"><a xlink:title=" ">
<polygon fill="#bfbfbf" stroke="black" points="0,-19.5 0,-38.5 47,-38.5 47,-19.5 0,-19.5"/>
<text text-anchor="middle" x="23.5" y="-26.5" font-family="Helvetica,sans-Serif" font-size="10.00">main2</text>
</a>
</g>
</g>
<!-- Node2 -->
<g id="node2" class="node">
<title>Node2</title>
<g id="a_node2"><a xlink:href="parsing_8cpp.html#a46d5190ea0181cc625329b5221e9dce9" target="_top" xlink:title=" ">
<polygon fill="white" stroke="black" points="83,-19.5 83,-38.5 148,-38.5 148,-19.5 83,-19.5"/>
<text text-anchor="middle" x="115.5" y="-26.5" font-family="Helvetica,sans-Serif" font-size="10.00">example1</text>
</a>
</g>
</g>
<!-- Node1&#45;&gt;Node2 -->
<g id="edge1" class="edge">
<title>Node1&#45;&gt;Node2</title>
<path fill="none" stroke="midnightblue" d="M47.21,-29C55,-29 63.97,-29 72.78,-29"/>
<polygon fill="midnightblue" stroke="midnightblue" points="72.96,-32.5 82.96,-29 72.96,-25.5 72.96,-32.5"/>
</g>
<!-- Node3 -->
<g id="node3" class="node">
<title>Node3</title>
<g id="a_node3"><a xlink:href="group__xml.html#gac937a83a82258806ef77b02f97ef0834" target="_top" xlink:title=" ">
<polygon fill="white" stroke="black" points="184,-38.5 184,-57.5 303,-57.5 303,-38.5 184,-38.5"/>
<text text-anchor="middle" x="243.5" y="-45.5" font-family="Helvetica,sans-Serif" font-size="10.00">operations_load_xml</text>
</a>
</g>
</g>
<!-- Node2&#45;&gt;Node3 -->
<g id="edge2" class="edge">
<title>Node2&#45;&gt;Node3</title>
<path fill="none" stroke="midnightblue" d="M148.3,-33.79C156.13,-34.98 164.84,-36.29 173.69,-37.62"/>
<polygon fill="midnightblue" stroke="midnightblue" points="173.31,-41.11 183.72,-39.14 174.35,-34.18 173.31,-41.11"/>
</g>
<!-- Node13 -->
<g id="node13" class="node">
<title>Node13</title>
<g id="a_node13"><a xlink:href="group___printing.html#ga8ad288d2a741eb3d632a6d3e005c4347" target="_top" xlink:title=" ">
<polygon fill="white" stroke="black" points="195.5,-0.5 195.5,-19.5 291.5,-19.5 291.5,-0.5 195.5,-0.5"/>
<text text-anchor="middle" x="243.5" y="-7.5" font-family="Helvetica,sans-Serif" font-size="10.00">operations_print</text>
</a>
</g>
</g>
<!-- Node2&#45;&gt;Node13 -->
<g id="edge15" class="edge">
<title>Node2&#45;&gt;Node13</title>
<path fill="none" stroke="midnightblue" d="M148.3,-24.21C159.57,-22.51 172.63,-20.54 185.37,-18.62"/>
<polygon fill="midnightblue" stroke="midnightblue" points="186.1,-22.04 195.47,-17.09 185.06,-15.12 186.1,-22.04"/>
</g>
<!-- Node4 -->
<g id="node4" class="node">
<title>Node4</title>
<g id="a_node4"><a xlink:href="group___groups.html#ga72c2d5ef943a89f829c08f6707e7669d" target="_top" xlink:title=" ">
<polygon fill="white" stroke="black" points="339,-83.5 339,-102.5 474,-102.5 474,-83.5 339,-83.5"/>
<text text-anchor="middle" x="406.5" y="-90.5" font-family="Helvetica,sans-Serif" font-size="10.00">operations_push_groups</text>
</a>
</g>
</g>
<!-- Node3&#45;&gt;Node4 -->
<g id="edge3" class="edge">
<title>Node3&#45;&gt;Node4</title>
<path fill="none" stroke="midnightblue" d="M278.64,-57.54C302.87,-64.31 335.6,-73.46 361.74,-80.77"/>
<polygon fill="midnightblue" stroke="midnightblue" points="360.83,-84.15 371.41,-83.47 362.72,-77.41 360.83,-84.15"/>
</g>
<!-- Node11 -->
<g id="node11" class="node">
<title>Node11</title>
<g id="a_node11"><a xlink:href="group___transforms.html#ga322e67bfbfd0f7db581a853b85fea9c1" target="_top" xlink:title=" ">
<polygon fill="white" stroke="black" points="1096,-71 1096,-101 1246,-101 1246,-71 1096,-71"/>
<text text-anchor="start" x="1104" y="-89" font-family="Helvetica,sans-Serif" font-size="10.00">operations_push_transform</text>
<text text-anchor="middle" x="1171" y="-78" font-family="Helvetica,sans-Serif" font-size="10.00">_attributes</text>
</a>
</g>
</g>
<!-- Node3&#45;&gt;Node11 -->
<g id="edge14" class="edge">
<title>Node3&#45;&gt;Node11</title>
<path fill="none" stroke="midnightblue" d="M303.2,-48C371.33,-48 487.05,-48 586.5,-48 586.5,-48 586.5,-48 789.5,-48 891.79,-48 1008.79,-61.77 1085.73,-72.73"/>
<polygon fill="midnightblue" stroke="midnightblue" points="1085.45,-76.22 1095.85,-74.18 1086.45,-69.29 1085.45,-76.22"/>
</g>
<!-- Node12 -->
<g id="node12" class="node">
<title>Node12</title>
<g id="a_node12"><a xlink:href="group__xml.html#ga13d09c76a06c071031512828eb7bc4fa" target="_top" xlink:title=" ">
<polygon fill="white" stroke="black" points="342,-0.5 342,-19.5 471,-19.5 471,-0.5 342,-0.5"/>
<text text-anchor="middle" x="406.5" y="-7.5" font-family="Helvetica,sans-Serif" font-size="10.00">operations_push_lights</text>
</a>
</g>
</g>
<!-- Node3&#45;&gt;Node12 -->
<g id="edge13" class="edge">
<title>Node3&#45;&gt;Node12</title>
<path fill="none" stroke="midnightblue" d="M285.13,-38.41C306.47,-33.37 332.81,-27.16 355.41,-21.82"/>
<polygon fill="midnightblue" stroke="midnightblue" points="356.24,-25.22 365.17,-19.52 354.63,-18.41 356.24,-25.22"/>
</g>
<!-- Node4&#45;&gt;Node4 -->
<g id="edge4" class="edge">
<title>Node4&#45;&gt;Node4</title>
<path fill="none" stroke="midnightblue" d="M381.53,-102.76C369.38,-111.57 377.71,-121 406.5,-121 425.85,-121 435.95,-116.74 436.81,-111.27"/>
<polygon fill="midnightblue" stroke="midnightblue" points="439.75,-109.37 431.47,-102.76 433.82,-113.09 439.75,-109.37"/>
</g>
<!-- Node5 -->
<g id="node5" class="node">
<title>Node5</title>
<g id="a_node5"><a xlink:href="group___models.html#gae6874961000e3d9274674e4f9c21dd60" target="_top" xlink:title=" ">
<polygon fill="white" stroke="black" points="518.5,-135.5 518.5,-154.5 656.5,-154.5 656.5,-135.5 518.5,-135.5"/>
<text text-anchor="middle" x="587.5" y="-142.5" font-family="Helvetica,sans-Serif" font-size="10.00">operations_push_models</text>
</a>
</g>
</g>
<!-- Node4&#45;&gt;Node5 -->
<g id="edge5" class="edge">
<title>Node4&#45;&gt;Node5</title>
<path fill="none" stroke="midnightblue" d="M440.33,-102.54C469.38,-110.98 511.97,-123.35 543.69,-132.56"/>
<polygon fill="midnightblue" stroke="midnightblue" points="542.99,-136.01 553.57,-135.43 544.95,-129.28 542.99,-136.01"/>
</g>
<!-- Node8 -->
<g id="node8" class="node">
<title>Node8</title>
<g id="a_node8"><a xlink:href="group___transforms.html#gad83b646af5265ef92c21db557652be7d" target="_top" xlink:title=" ">
<polygon fill="white" stroke="black" points="510,-83.5 510,-102.5 665,-102.5 665,-83.5 510,-83.5"/>
<text text-anchor="middle" x="587.5" y="-90.5" font-family="Helvetica,sans-Serif" font-size="10.00">operations_push_transforms</text>
</a>
</g>
</g>
<!-- Node4&#45;&gt;Node8 -->
<g id="edge8" class="edge">
<title>Node4&#45;&gt;Node8</title>
<path fill="none" stroke="midnightblue" d="M474.15,-93C482.51,-93 491.16,-93 499.77,-93"/>
<polygon fill="midnightblue" stroke="midnightblue" points="499.84,-96.5 509.84,-93 499.84,-89.5 499.84,-96.5"/>
</g>
<!-- Node6 -->
<g id="node6" class="node">
<title>Node6</title>
<g id="a_node6"><a xlink:href="group___models.html#gaea4cf479be9d482699b0a7871a19efed" target="_top" xlink:title=" ">
<polygon fill="white" stroke="black" points="722,-162.5 722,-181.5 855,-181.5 855,-162.5 722,-162.5"/>
<text text-anchor="middle" x="788.5" y="-169.5" font-family="Helvetica,sans-Serif" font-size="10.00">operations_push_model</text>
</a>
</g>
</g>
<!-- Node5&#45;&gt;Node6 -->
<g id="edge6" class="edge">
<title>Node5&#45;&gt;Node6</title>
<path fill="none" stroke="midnightblue" d="M656.71,-154.25C674.46,-156.66 693.69,-159.27 711.8,-161.73"/>
<polygon fill="midnightblue" stroke="midnightblue" points="711.36,-165.2 721.74,-163.08 712.3,-158.26 711.36,-165.2"/>
</g>
<!-- Node7 -->
<g id="node7" class="node">
<title>Node7</title>
<g id="a_node7"><a xlink:href="group___models.html#gaa7a60aeaf83f15158c6896c1b817eeee" target="_top" xlink:title=" ">
<polygon fill="white" stroke="black" points="921,-164 921,-194 1051,-194 1051,-164 921,-164"/>
<text text-anchor="start" x="929" y="-182" font-family="Helvetica,sans-Serif" font-size="10.00">operations_push_string</text>
<text text-anchor="middle" x="986" y="-171" font-family="Helvetica,sans-Serif" font-size="10.00">_attribute</text>
</a>
</g>
</g>
<!-- Node6&#45;&gt;Node7 -->
<g id="edge7" class="edge">
<title>Node6&#45;&gt;Node7</title>
<path fill="none" stroke="midnightblue" d="M855.14,-174.35C873.02,-174.99 892.51,-175.69 910.82,-176.34"/>
<polygon fill="midnightblue" stroke="midnightblue" points="910.74,-179.84 920.86,-176.7 910.99,-172.85 910.74,-179.84"/>
</g>
<!-- Node9 -->
<g id="node9" class="node">
<title>Node9</title>
<g id="a_node9"><a xlink:href="group___transforms.html#gafa423b24e0a976a40fa25bde5279d6da" target="_top" xlink:title=" ">
<polygon fill="white" stroke="black" points="701,-83.5 701,-102.5 876,-102.5 876,-83.5 701,-83.5"/>
<text text-anchor="middle" x="788.5" y="-90.5" font-family="Helvetica,sans-Serif" font-size="10.00">operations_push_transformation</text>
</a>
</g>
</g>
<!-- Node8&#45;&gt;Node9 -->
<g id="edge9" class="edge">
<title>Node8&#45;&gt;Node9</title>
<path fill="none" stroke="midnightblue" d="M665.15,-93C673.57,-93 682.23,-93 690.85,-93"/>
<polygon fill="midnightblue" stroke="midnightblue" points="690.94,-96.5 700.94,-93 690.94,-89.5 690.94,-96.5"/>
</g>
<!-- Node10 -->
<g id="node10" class="node">
<title>Node10</title>
<g id="a_node10"><a xlink:href="group___transforms.html#ga9fb2cf393283a6c4e01669d004e011cb" target="_top" xlink:title=" ">
<polygon fill="white" stroke="black" points="912,-115 912,-145 1060,-145 1060,-115 912,-115"/>
<text text-anchor="start" x="920" y="-133" font-family="Helvetica,sans-Serif" font-size="10.00">operations_push_extended</text>
<text text-anchor="middle" x="986" y="-122" font-family="Helvetica,sans-Serif" font-size="10.00">_translate_attributes</text>
</a>
</g>
</g>
<!-- Node9&#45;&gt;Node10 -->
<g id="edge10" class="edge">
<title>Node9&#45;&gt;Node10</title>
<path fill="none" stroke="midnightblue" d="M839.85,-102.53C858.79,-106.11 880.88,-110.29 902.02,-114.29"/>
<polygon fill="midnightblue" stroke="midnightblue" points="901.5,-117.76 911.97,-116.18 902.8,-110.88 901.5,-117.76"/>
</g>
<!-- Node9&#45;&gt;Node11 -->
<g id="edge12" class="edge">
<title>Node9&#45;&gt;Node11</title>
<path fill="none" stroke="midnightblue" d="M876.32,-91.4C939.06,-90.25 1023.38,-88.7 1085.57,-87.55"/>
<polygon fill="midnightblue" stroke="midnightblue" points="1085.81,-91.05 1095.74,-87.37 1085.68,-84.05 1085.81,-91.05"/>
</g>
<!-- Node10&#45;&gt;Node11 -->
<g id="edge11" class="edge">
<title>Node10&#45;&gt;Node11</title>
<path fill="none" stroke="midnightblue" d="M1049.47,-114.98C1064.99,-111.25 1081.75,-107.22 1097.7,-103.38"/>
<polygon fill="midnightblue" stroke="midnightblue" points="1098.6,-106.77 1107.5,-101.03 1096.96,-99.96 1098.6,-106.77"/>
</g>
</g>
</svg>
