<?xml version="1.0" encoding="UTF-8" standalone="no"?>
<!DOCTYPE svg PUBLIC "-//W3C//DTD SVG 1.1//EN"
 "http://www.w3.org/Graphics/SVG/1.1/DTD/svg11.dtd">
<!-- Generated by graphviz version 3.0.0 (0)
 -->
<!-- Title: example1 Pages: 1 -->
<svg width="776pt" height="123pt"
 viewBox="0.00 0.00 776.00 123.00" xmlns="http://www.w3.org/2000/svg" xmlns:xlink="http://www.w3.org/1999/xlink">
<g id="graph0" class="graph" transform="scale(1 1) rotate(0) translate(4 119)">
<title>example1</title>
<polygon fill="white" stroke="transparent" points="-4,4 -4,-119 772,-119 772,4 -4,4"/>
<!-- Node1 -->
<g id="node1" class="node">
<title>Node1</title>
<g id="a_node1"><a xlink:title=" ">
<polygon fill="#bfbfbf" stroke="black" points="0,-19.5 0,-38.5 65,-38.5 65,-19.5 0,-19.5"/>
<text text-anchor="middle" x="32.5" y="-26.5" font-family="Helvetica,sans-Serif" font-size="10.00">example1</text>
</a>
</g>
</g>
<!-- Node2 -->
<g id="node2" class="node">
<title>Node2</title>
<g id="a_node2"><a xlink:href="group__xml.html#gac937a83a82258806ef77b02f97ef0834" target="_top" xlink:title=" ">
<polygon fill="white" stroke="black" points="101,-38.5 101,-57.5 220,-57.5 220,-38.5 101,-38.5"/>
<text text-anchor="middle" x="160.5" y="-45.5" font-family="Helvetica,sans-Serif" font-size="10.00">operations_load_xml</text>
</a>
</g>
</g>
<!-- Node1&#45;&gt;Node2 -->
<g id="edge1" class="edge">
<title>Node1&#45;&gt;Node2</title>
<path fill="none" stroke="midnightblue" d="M65.3,-33.79C73.13,-34.98 81.84,-36.29 90.69,-37.62"/>
<polygon fill="midnightblue" stroke="midnightblue" points="90.31,-41.11 100.72,-39.14 91.35,-34.18 90.31,-41.11"/>
</g>
<!-- Node8 -->
<g id="node8" class="node">
<title>Node8</title>
<g id="a_node8"><a xlink:href="group___printing.html#ga8ad288d2a741eb3d632a6d3e005c4347" target="_top" xlink:title=" ">
<polygon fill="white" stroke="black" points="112.5,-0.5 112.5,-19.5 208.5,-19.5 208.5,-0.5 112.5,-0.5"/>
<text text-anchor="middle" x="160.5" y="-7.5" font-family="Helvetica,sans-Serif" font-size="10.00">operations_print</text>
</a>
</g>
</g>
<!-- Node1&#45;&gt;Node8 -->
<g id="edge9" class="edge">
<title>Node1&#45;&gt;Node8</title>
<path fill="none" stroke="midnightblue" d="M65.3,-24.21C76.57,-22.51 89.63,-20.54 102.37,-18.62"/>
<polygon fill="midnightblue" stroke="midnightblue" points="103.1,-22.04 112.47,-17.09 102.06,-15.12 103.1,-22.04"/>
</g>
<!-- Node3 -->
<g id="node3" class="node">
<title>Node3</title>
<g id="a_node3"><a xlink:href="group___groups.html#ga72c2d5ef943a89f829c08f6707e7669d" target="_top" xlink:title=" ">
<polygon fill="white" stroke="black" points="256,-57.5 256,-76.5 391,-76.5 391,-57.5 256,-57.5"/>
<text text-anchor="middle" x="323.5" y="-64.5" font-family="Helvetica,sans-Serif" font-size="10.00">operations_push_groups</text>
</a>
</g>
</g>
<!-- Node2&#45;&gt;Node3 -->
<g id="edge2" class="edge">
<title>Node2&#45;&gt;Node3</title>
<path fill="none" stroke="midnightblue" d="M220.08,-54.91C228.42,-55.9 237.09,-56.92 245.71,-57.94"/>
<polygon fill="midnightblue" stroke="midnightblue" points="245.44,-61.43 255.78,-59.13 246.26,-54.48 245.44,-61.43"/>
</g>
<!-- Node7 -->
<g id="node7" class="node">
<title>Node7</title>
<g id="a_node7"><a xlink:href="group___transforms.html#gaa15fe56d7980e7877845f3bc09125017" target="_top" xlink:title=" ">
<polygon fill="white" stroke="black" points="618,-30 618,-60 768,-60 768,-30 618,-30"/>
<text text-anchor="start" x="626" y="-48" font-family="Helvetica,sans-Serif" font-size="10.00">operations_push_transform</text>
<text text-anchor="middle" x="693" y="-37" font-family="Helvetica,sans-Serif" font-size="10.00">_attributes</text>
</a>
</g>
</g>
<!-- Node2&#45;&gt;Node7 -->
<g id="edge8" class="edge">
<title>Node2&#45;&gt;Node7</title>
<path fill="none" stroke="midnightblue" d="M220.04,-47.67C314.02,-47.14 498.95,-46.09 607.32,-45.48"/>
<polygon fill="midnightblue" stroke="midnightblue" points="607.58,-48.98 617.56,-45.42 607.54,-41.98 607.58,-48.98"/>
</g>
<!-- Node3&#45;&gt;Node3 -->
<g id="edge3" class="edge">
<title>Node3&#45;&gt;Node3</title>
<path fill="none" stroke="midnightblue" d="M298.53,-76.76C286.38,-85.57 294.71,-95 323.5,-95 342.85,-95 352.95,-90.74 353.81,-85.27"/>
<polygon fill="midnightblue" stroke="midnightblue" points="356.75,-83.37 348.47,-76.76 350.82,-87.09 356.75,-83.37"/>
</g>
<!-- Node4 -->
<g id="node4" class="node">
<title>Node4</title>
<g id="a_node4"><a xlink:href="group___models.html#gaca17d77a06e750f5cd95c1b79e1a8a30" target="_top" xlink:title=" ">
<polygon fill="white" stroke="black" points="435.5,-95.5 435.5,-114.5 573.5,-114.5 573.5,-95.5 435.5,-95.5"/>
<text text-anchor="middle" x="504.5" y="-102.5" font-family="Helvetica,sans-Serif" font-size="10.00">operations_push_models</text>
</a>
</g>
</g>
<!-- Node3&#45;&gt;Node4 -->
<g id="edge4" class="edge">
<title>Node3&#45;&gt;Node4</title>
<path fill="none" stroke="midnightblue" d="M369.67,-76.59C393.72,-81.69 423.47,-88.01 448.82,-93.39"/>
<polygon fill="midnightblue" stroke="midnightblue" points="448.15,-96.83 458.66,-95.48 449.6,-89.98 448.15,-96.83"/>
</g>
<!-- Node6 -->
<g id="node6" class="node">
<title>Node6</title>
<g id="a_node6"><a xlink:href="group___transforms.html#gaaa78b92f0257bb4755731622692de0cb" target="_top" xlink:title=" ">
<polygon fill="white" stroke="black" points="427,-57.5 427,-76.5 582,-76.5 582,-57.5 427,-57.5"/>
<text text-anchor="middle" x="504.5" y="-64.5" font-family="Helvetica,sans-Serif" font-size="10.00">operations_push_transforms</text>
</a>
</g>
</g>
<!-- Node3&#45;&gt;Node6 -->
<g id="edge6" class="edge">
<title>Node3&#45;&gt;Node6</title>
<path fill="none" stroke="midnightblue" d="M391.15,-67C399.51,-67 408.16,-67 416.77,-67"/>
<polygon fill="midnightblue" stroke="midnightblue" points="416.84,-70.5 426.84,-67 416.84,-63.5 416.84,-70.5"/>
</g>
<!-- Node5 -->
<g id="node5" class="node">
<title>Node5</title>
<g id="a_node5"><a xlink:href="group___models.html#ga5dc84f3f40c0bb6ad63dc2da3793ddd9" target="_top" xlink:title=" ">
<polygon fill="white" stroke="black" points="626.5,-95.5 626.5,-114.5 759.5,-114.5 759.5,-95.5 626.5,-95.5"/>
<text text-anchor="middle" x="693" y="-102.5" font-family="Helvetica,sans-Serif" font-size="10.00">operations_push_model</text>
</a>
</g>
</g>
<!-- Node4&#45;&gt;Node5 -->
<g id="edge5" class="edge">
<title>Node4&#45;&gt;Node5</title>
<path fill="none" stroke="midnightblue" d="M573.62,-105C587.44,-105 602.05,-105 616.11,-105"/>
<polygon fill="midnightblue" stroke="midnightblue" points="616.24,-108.5 626.24,-105 616.24,-101.5 616.24,-108.5"/>
</g>
<!-- Node6&#45;&gt;Node7 -->
<g id="edge7" class="edge">
<title>Node6&#45;&gt;Node7</title>
<path fill="none" stroke="midnightblue" d="M582.16,-57.96C590.61,-56.96 599.25,-55.94 607.78,-54.93"/>
<polygon fill="midnightblue" stroke="midnightblue" points="608.22,-58.41 617.74,-53.76 607.4,-51.46 608.22,-58.41"/>
</g>
</g>
</svg>
