<?xml version="1.0" encoding="UTF-8" standalone="no"?>
<!DOCTYPE svg PUBLIC "-//W3C//DTD SVG 1.1//EN"
 "http://www.w3.org/Graphics/SVG/1.1/DTD/svg11.dtd">
<!-- Generated by graphviz version 3.0.0 (0)
 -->
<!-- Title: main2 Pages: 1 -->
<svg width="859pt" height="123pt"
 viewBox="0.00 0.00 859.00 123.00" xmlns="http://www.w3.org/2000/svg" xmlns:xlink="http://www.w3.org/1999/xlink">
<g id="graph0" class="graph" transform="scale(1 1) rotate(0) translate(4 119)">
<title>main2</title>
<polygon fill="white" stroke="transparent" points="-4,4 -4,-119 855,-119 855,4 -4,4"/>
<!-- Node1 -->
<g id="node1" class="node">
<title>Node1</title>
<g id="a_node1"><a xlink:title=" ">
<polygon fill="#bfbfbf" stroke="black" points="0,-19.5 0,-38.5 47,-38.5 47,-19.5 0,-19.5"/>
<text text-anchor="middle" x="23.5" y="-26.5" font-family="Helvetica,sans-Serif" font-size="10.00">main2</text>
</a>
</g>
</g>
<!-- Node2 -->
<g id="node2" class="node">
<title>Node2</title>
<g id="a_node2"><a xlink:href="parsing_8cpp.html#a46d5190ea0181cc625329b5221e9dce9" target="_top" xlink:title=" ">
<polygon fill="white" stroke="black" points="83,-19.5 83,-38.5 148,-38.5 148,-19.5 83,-19.5"/>
<text text-anchor="middle" x="115.5" y="-26.5" font-family="Helvetica,sans-Serif" font-size="10.00">example1</text>
</a>
</g>
</g>
<!-- Node1&#45;&gt;Node2 -->
<g id="edge1" class="edge">
<title>Node1&#45;&gt;Node2</title>
<path fill="none" stroke="midnightblue" d="M47.21,-29C55,-29 63.97,-29 72.78,-29"/>
<polygon fill="midnightblue" stroke="midnightblue" points="72.96,-32.5 82.96,-29 72.96,-25.5 72.96,-32.5"/>
</g>
<!-- Node3 -->
<g id="node3" class="node">
<title>Node3</title>
<g id="a_node3"><a xlink:href="group__xml.html#gac937a83a82258806ef77b02f97ef0834" target="_top" xlink:title=" ">
<polygon fill="white" stroke="black" points="184,-38.5 184,-57.5 303,-57.5 303,-38.5 184,-38.5"/>
<text text-anchor="middle" x="243.5" y="-45.5" font-family="Helvetica,sans-Serif" font-size="10.00">operations_load_xml</text>
</a>
</g>
</g>
<!-- Node2&#45;&gt;Node3 -->
<g id="edge2" class="edge">
<title>Node2&#45;&gt;Node3</title>
<path fill="none" stroke="midnightblue" d="M148.3,-33.79C156.13,-34.98 164.84,-36.29 173.69,-37.62"/>
<polygon fill="midnightblue" stroke="midnightblue" points="173.31,-41.11 183.72,-39.14 174.35,-34.18 173.31,-41.11"/>
</g>
<!-- Node9 -->
<g id="node9" class="node">
<title>Node9</title>
<g id="a_node9"><a xlink:href="group___printing.html#ga8ad288d2a741eb3d632a6d3e005c4347" target="_top" xlink:title=" ">
<polygon fill="white" stroke="black" points="195.5,-0.5 195.5,-19.5 291.5,-19.5 291.5,-0.5 195.5,-0.5"/>
<text text-anchor="middle" x="243.5" y="-7.5" font-family="Helvetica,sans-Serif" font-size="10.00">operations_print</text>
</a>
</g>
</g>
<!-- Node2&#45;&gt;Node9 -->
<g id="edge10" class="edge">
<title>Node2&#45;&gt;Node9</title>
<path fill="none" stroke="midnightblue" d="M148.3,-24.21C159.57,-22.51 172.63,-20.54 185.37,-18.62"/>
<polygon fill="midnightblue" stroke="midnightblue" points="186.1,-22.04 195.47,-17.09 185.06,-15.12 186.1,-22.04"/>
</g>
<!-- Node4 -->
<g id="node4" class="node">
<title>Node4</title>
<g id="a_node4"><a xlink:href="group___groups.html#ga72c2d5ef943a89f829c08f6707e7669d" target="_top" xlink:title=" ">
<polygon fill="white" stroke="black" points="339,-57.5 339,-76.5 474,-76.5 474,-57.5 339,-57.5"/>
<text text-anchor="middle" x="406.5" y="-64.5" font-family="Helvetica,sans-Serif" font-size="10.00">operations_push_groups</text>
</a>
</g>
</g>
<!-- Node3&#45;&gt;Node4 -->
<g id="edge3" class="edge">
<title>Node3&#45;&gt;Node4</title>
<path fill="none" stroke="midnightblue" d="M303.08,-54.91C311.42,-55.9 320.09,-56.92 328.71,-57.94"/>
<polygon fill="midnightblue" stroke="midnightblue" points="328.44,-61.43 338.78,-59.13 329.26,-54.48 328.44,-61.43"/>
</g>
<!-- Node8 -->
<g id="node8" class="node">
<title>Node8</title>
<g id="a_node8"><a xlink:href="group___transforms.html#gaa15fe56d7980e7877845f3bc09125017" target="_top" xlink:title=" ">
<polygon fill="white" stroke="black" points="701,-30 701,-60 851,-60 851,-30 701,-30"/>
<text text-anchor="start" x="709" y="-48" font-family="Helvetica,sans-Serif" font-size="10.00">operations_push_transform</text>
<text text-anchor="middle" x="776" y="-37" font-family="Helvetica,sans-Serif" font-size="10.00">_attributes</text>
</a>
</g>
</g>
<!-- Node3&#45;&gt;Node8 -->
<g id="edge9" class="edge">
<title>Node3&#45;&gt;Node8</title>
<path fill="none" stroke="midnightblue" d="M303.04,-47.67C397.02,-47.14 581.95,-46.09 690.32,-45.48"/>
<polygon fill="midnightblue" stroke="midnightblue" points="690.58,-48.98 700.56,-45.42 690.54,-41.98 690.58,-48.98"/>
</g>
<!-- Node4&#45;&gt;Node4 -->
<g id="edge4" class="edge">
<title>Node4&#45;&gt;Node4</title>
<path fill="none" stroke="midnightblue" d="M381.53,-76.76C369.38,-85.57 377.71,-95 406.5,-95 425.85,-95 435.95,-90.74 436.81,-85.27"/>
<polygon fill="midnightblue" stroke="midnightblue" points="439.75,-83.37 431.47,-76.76 433.82,-87.09 439.75,-83.37"/>
</g>
<!-- Node5 -->
<g id="node5" class="node">
<title>Node5</title>
<g id="a_node5"><a xlink:href="group___models.html#gaca17d77a06e750f5cd95c1b79e1a8a30" target="_top" xlink:title=" ">
<polygon fill="white" stroke="black" points="518.5,-95.5 518.5,-114.5 656.5,-114.5 656.5,-95.5 518.5,-95.5"/>
<text text-anchor="middle" x="587.5" y="-102.5" font-family="Helvetica,sans-Serif" font-size="10.00">operations_push_models</text>
</a>
</g>
</g>
<!-- Node4&#45;&gt;Node5 -->
<g id="edge5" class="edge">
<title>Node4&#45;&gt;Node5</title>
<path fill="none" stroke="midnightblue" d="M452.67,-76.59C476.72,-81.69 506.47,-88.01 531.82,-93.39"/>
<polygon fill="midnightblue" stroke="midnightblue" points="531.15,-96.83 541.66,-95.48 532.6,-89.98 531.15,-96.83"/>
</g>
<!-- Node7 -->
<g id="node7" class="node">
<title>Node7</title>
<g id="a_node7"><a xlink:href="group___transforms.html#gaaa78b92f0257bb4755731622692de0cb" target="_top" xlink:title=" ">
<polygon fill="white" stroke="black" points="510,-57.5 510,-76.5 665,-76.5 665,-57.5 510,-57.5"/>
<text text-anchor="middle" x="587.5" y="-64.5" font-family="Helvetica,sans-Serif" font-size="10.00">operations_push_transforms</text>
</a>
</g>
</g>
<!-- Node4&#45;&gt;Node7 -->
<g id="edge7" class="edge">
<title>Node4&#45;&gt;Node7</title>
<path fill="none" stroke="midnightblue" d="M474.15,-67C482.51,-67 491.16,-67 499.77,-67"/>
<polygon fill="midnightblue" stroke="midnightblue" points="499.84,-70.5 509.84,-67 499.84,-63.5 499.84,-70.5"/>
</g>
<!-- Node6 -->
<g id="node6" class="node">
<title>Node6</title>
<g id="a_node6"><a xlink:href="group___models.html#ga5dc84f3f40c0bb6ad63dc2da3793ddd9" target="_top" xlink:title=" ">
<polygon fill="white" stroke="black" points="709.5,-95.5 709.5,-114.5 842.5,-114.5 842.5,-95.5 709.5,-95.5"/>
<text text-anchor="middle" x="776" y="-102.5" font-family="Helvetica,sans-Serif" font-size="10.00">operations_push_model</text>
</a>
</g>
</g>
<!-- Node5&#45;&gt;Node6 -->
<g id="edge6" class="edge">
<title>Node5&#45;&gt;Node6</title>
<path fill="none" stroke="midnightblue" d="M656.62,-105C670.44,-105 685.05,-105 699.11,-105"/>
<polygon fill="midnightblue" stroke="midnightblue" points="699.24,-108.5 709.24,-105 699.24,-101.5 699.24,-108.5"/>
</g>
<!-- Node7&#45;&gt;Node8 -->
<g id="edge8" class="edge">
<title>Node7&#45;&gt;Node8</title>
<path fill="none" stroke="midnightblue" d="M665.16,-57.96C673.61,-56.96 682.25,-55.94 690.78,-54.93"/>
<polygon fill="midnightblue" stroke="midnightblue" points="691.22,-58.41 700.74,-53.76 690.4,-51.46 691.22,-58.41"/>
</g>
</g>
</svg>
