<?xml version="1.0" encoding="UTF-8" standalone="no"?>
<!DOCTYPE svg PUBLIC "-//W3C//DTD SVG 1.1//EN"
 "http://www.w3.org/Graphics/SVG/1.1/DTD/svg11.dtd">
<!-- Generated by graphviz version 3.0.0 (0)
 -->
<!-- Title: example1 Pages: 1 -->
<!--zoomable 203 -->
<svg id="main" version="1.1" xmlns="http://www.w3.org/2000/svg" xmlns:xlink="http://www.w3.org/1999/xlink" xml:space="preserve" onload="init(evt)">
<style type="text/css"><![CDATA[
.edge:hover path { stroke: red; }
.edge:hover polygon { stroke: red; fill: red; }
]]></style>
<script type="text/javascript"><![CDATA[
var edges = document.getElementsByTagName('g');
if (edges && edges.length) {
  for (var i=0;i<edges.length;i++) {
    if (edges[i].id.substr(0,4)=='edge') {
      edges[i].setAttribute('class','edge');
    }
  }
}
]]></script>
        <defs>
                <circle id="rim" cx="0" cy="0" r="7"/>
                <circle id="rim2" cx="0" cy="0" r="3.5"/>
                <g id="zoomPlus">
                        <use xlink:href="#rim" fill="#404040">
                                <set attributeName="fill" to="#808080" begin="zoomplus.mouseover" end="zoomplus.mouseout"/>
                        </use>
                        <path d="M-4,0h8M0,-4v8" fill="none" stroke="white" stroke-width="1.5" pointer-events="none"/>
                </g>
                <g id="zoomMin">
                        <use xlink:href="#rim" fill="#404040">
                                <set attributeName="fill" to="#808080" begin="zoomminus.mouseover" end="zoomminus.mouseout"/>
                        </use>
                        <path d="M-4,0h8" fill="none" stroke="white" stroke-width="1.5" pointer-events="none"/>
                </g>
                <g id="dirArrow">
                        <path fill="none" stroke="white" stroke-width="1.5" d="M0,-3.0v7 M-2.5,-0.5L0,-3.0L2.5,-0.5"/>
                </g>
               <g id="resetDef">
                       <use xlink:href="#rim2" fill="#404040">
                               <set attributeName="fill" to="#808080" begin="reset.mouseover" end="reset.mouseout"/>
                       </use>
               </g>
        </defs>

<script type="text/javascript">
var viewWidth = 1171;
var viewHeight = 203;
var sectionId = 'dynsection-1';
</script>
<script xlink:href="svgpan.js"/>
<svg id="graph" class="graph">
<g id="viewport">
<title>example1</title>
<polygon fill="white" stroke="transparent" points="-4,4 -4,-198.5 1167,-198.5 1167,4 -4,4"/>
<!-- Node1 -->
<g id="node1" class="node">
<title>Node1</title>
<g id="a_node1"><a xlink:title=" ">
<polygon fill="#bfbfbf" stroke="black" points="0,-19.5 0,-38.5 65,-38.5 65,-19.5 0,-19.5"/>
<text text-anchor="middle" x="32.5" y="-26.5" font-family="Helvetica,sans-Serif" font-size="10.00">example1</text>
</a>
</g>
</g>
<!-- Node2 -->
<g id="node2" class="node">
<title>Node2</title>
<g id="a_node2"><a xlink:href="group__xml.html#gac937a83a82258806ef77b02f97ef0834" target="_top" xlink:title=" ">
<polygon fill="white" stroke="black" points="101,-38.5 101,-57.5 220,-57.5 220,-38.5 101,-38.5"/>
<text text-anchor="middle" x="160.5" y="-45.5" font-family="Helvetica,sans-Serif" font-size="10.00">operations_load_xml</text>
</a>
</g>
</g>
<!-- Node1&#45;&gt;Node2 -->
<g id="edge1" class="edge">
<title>Node1&#45;&gt;Node2</title>
<path fill="none" stroke="midnightblue" d="M65.3,-33.79C73.13,-34.98 81.84,-36.29 90.69,-37.62"/>
<polygon fill="midnightblue" stroke="midnightblue" points="90.31,-41.11 100.72,-39.14 91.35,-34.18 90.31,-41.11"/>
</g>
<!-- Node12 -->
<g id="node12" class="node">
<title>Node12</title>
<g id="a_node12"><a xlink:href="group___printing.html#ga8ad288d2a741eb3d632a6d3e005c4347" target="_top" xlink:title=" ">
<polygon fill="white" stroke="black" points="112.5,-0.5 112.5,-19.5 208.5,-19.5 208.5,-0.5 112.5,-0.5"/>
<text text-anchor="middle" x="160.5" y="-7.5" font-family="Helvetica,sans-Serif" font-size="10.00">operations_print</text>
</a>
</g>
</g>
<!-- Node1&#45;&gt;Node12 -->
<g id="edge14" class="edge">
<title>Node1&#45;&gt;Node12</title>
<path fill="none" stroke="midnightblue" d="M65.3,-24.21C76.57,-22.51 89.63,-20.54 102.37,-18.62"/>
<polygon fill="midnightblue" stroke="midnightblue" points="103.1,-22.04 112.47,-17.09 102.06,-15.12 103.1,-22.04"/>
</g>
<!-- Node3 -->
<g id="node3" class="node">
<title>Node3</title>
<g id="a_node3"><a xlink:href="group___groups.html#ga72c2d5ef943a89f829c08f6707e7669d" target="_top" xlink:title=" ">
<polygon fill="white" stroke="black" points="256,-83.5 256,-102.5 391,-102.5 391,-83.5 256,-83.5"/>
<text text-anchor="middle" x="323.5" y="-90.5" font-family="Helvetica,sans-Serif" font-size="10.00">operations_push_groups</text>
</a>
</g>
</g>
<!-- Node2&#45;&gt;Node3 -->
<g id="edge2" class="edge">
<title>Node2&#45;&gt;Node3</title>
<path fill="none" stroke="midnightblue" d="M195.64,-57.54C219.87,-64.31 252.6,-73.46 278.74,-80.77"/>
<polygon fill="midnightblue" stroke="midnightblue" points="277.83,-84.15 288.41,-83.47 279.72,-77.41 277.83,-84.15"/>
</g>
<!-- Node10 -->
<g id="node10" class="node">
<title>Node10</title>
<g id="a_node10"><a xlink:href="group___transforms.html#ga322e67bfbfd0f7db581a853b85fea9c1" target="_top" xlink:title=" ">
<polygon fill="white" stroke="black" points="1013,-71 1013,-101 1163,-101 1163,-71 1013,-71"/>
<text text-anchor="start" x="1021" y="-89" font-family="Helvetica,sans-Serif" font-size="10.00">operations_push_transform</text>
<text text-anchor="middle" x="1088" y="-78" font-family="Helvetica,sans-Serif" font-size="10.00">_attributes</text>
</a>
</g>
</g>
<!-- Node2&#45;&gt;Node10 -->
<g id="edge13" class="edge">
<title>Node2&#45;&gt;Node10</title>
<path fill="none" stroke="midnightblue" d="M220.2,-48C288.33,-48 404.05,-48 503.5,-48 503.5,-48 503.5,-48 706.5,-48 808.79,-48 925.79,-61.77 1002.73,-72.73"/>
<polygon fill="midnightblue" stroke="midnightblue" points="1002.45,-76.22 1012.85,-74.18 1003.45,-69.29 1002.45,-76.22"/>
</g>
<!-- Node11 -->
<g id="node11" class="node">
<title>Node11</title>
<g id="a_node11"><a xlink:href="group__xml.html#ga13d09c76a06c071031512828eb7bc4fa" target="_top" xlink:title=" ">
<polygon fill="white" stroke="black" points="259,-0.5 259,-19.5 388,-19.5 388,-0.5 259,-0.5"/>
<text text-anchor="middle" x="323.5" y="-7.5" font-family="Helvetica,sans-Serif" font-size="10.00">operations_push_lights</text>
</a>
</g>
</g>
<!-- Node2&#45;&gt;Node11 -->
<g id="edge12" class="edge">
<title>Node2&#45;&gt;Node11</title>
<path fill="none" stroke="midnightblue" d="M202.13,-38.41C223.47,-33.37 249.81,-27.16 272.41,-21.82"/>
<polygon fill="midnightblue" stroke="midnightblue" points="273.24,-25.22 282.17,-19.52 271.63,-18.41 273.24,-25.22"/>
</g>
<!-- Node3&#45;&gt;Node3 -->
<g id="edge3" class="edge">
<title>Node3&#45;&gt;Node3</title>
<path fill="none" stroke="midnightblue" d="M298.53,-102.76C286.38,-111.57 294.71,-121 323.5,-121 342.85,-121 352.95,-116.74 353.81,-111.27"/>
<polygon fill="midnightblue" stroke="midnightblue" points="356.75,-109.37 348.47,-102.76 350.82,-113.09 356.75,-109.37"/>
</g>
<!-- Node4 -->
<g id="node4" class="node">
<title>Node4</title>
<g id="a_node4"><a xlink:href="group___models.html#gae6874961000e3d9274674e4f9c21dd60" target="_top" xlink:title=" ">
<polygon fill="white" stroke="black" points="435.5,-135.5 435.5,-154.5 573.5,-154.5 573.5,-135.5 435.5,-135.5"/>
<text text-anchor="middle" x="504.5" y="-142.5" font-family="Helvetica,sans-Serif" font-size="10.00">operations_push_models</text>
</a>
</g>
</g>
<!-- Node3&#45;&gt;Node4 -->
<g id="edge4" class="edge">
<title>Node3&#45;&gt;Node4</title>
<path fill="none" stroke="midnightblue" d="M357.33,-102.54C386.38,-110.98 428.97,-123.35 460.69,-132.56"/>
<polygon fill="midnightblue" stroke="midnightblue" points="459.99,-136.01 470.57,-135.43 461.95,-129.28 459.99,-136.01"/>
</g>
<!-- Node7 -->
<g id="node7" class="node">
<title>Node7</title>
<g id="a_node7"><a xlink:href="group___transforms.html#gad83b646af5265ef92c21db557652be7d" target="_top" xlink:title=" ">
<polygon fill="white" stroke="black" points="427,-83.5 427,-102.5 582,-102.5 582,-83.5 427,-83.5"/>
<text text-anchor="middle" x="504.5" y="-90.5" font-family="Helvetica,sans-Serif" font-size="10.00">operations_push_transforms</text>
</a>
</g>
</g>
<!-- Node3&#45;&gt;Node7 -->
<g id="edge7" class="edge">
<title>Node3&#45;&gt;Node7</title>
<path fill="none" stroke="midnightblue" d="M391.15,-93C399.51,-93 408.16,-93 416.77,-93"/>
<polygon fill="midnightblue" stroke="midnightblue" points="416.84,-96.5 426.84,-93 416.84,-89.5 416.84,-96.5"/>
</g>
<!-- Node5 -->
<g id="node5" class="node">
<title>Node5</title>
<g id="a_node5"><a xlink:href="group___models.html#gaea4cf479be9d482699b0a7871a19efed" target="_top" xlink:title=" ">
<polygon fill="white" stroke="black" points="639,-162.5 639,-181.5 772,-181.5 772,-162.5 639,-162.5"/>
<text text-anchor="middle" x="705.5" y="-169.5" font-family="Helvetica,sans-Serif" font-size="10.00">operations_push_model</text>
</a>
</g>
</g>
<!-- Node4&#45;&gt;Node5 -->
<g id="edge5" class="edge">
<title>Node4&#45;&gt;Node5</title>
<path fill="none" stroke="midnightblue" d="M573.71,-154.25C591.46,-156.66 610.69,-159.27 628.8,-161.73"/>
<polygon fill="midnightblue" stroke="midnightblue" points="628.36,-165.2 638.74,-163.08 629.3,-158.26 628.36,-165.2"/>
</g>
<!-- Node6 -->
<g id="node6" class="node">
<title>Node6</title>
<g id="a_node6"><a xlink:href="group___models.html#gaa7a60aeaf83f15158c6896c1b817eeee" target="_top" xlink:title=" ">
<polygon fill="white" stroke="black" points="838,-164 838,-194 968,-194 968,-164 838,-164"/>
<text text-anchor="start" x="846" y="-182" font-family="Helvetica,sans-Serif" font-size="10.00">operations_push_string</text>
<text text-anchor="middle" x="903" y="-171" font-family="Helvetica,sans-Serif" font-size="10.00">_attribute</text>
</a>
</g>
</g>
<!-- Node5&#45;&gt;Node6 -->
<g id="edge6" class="edge">
<title>Node5&#45;&gt;Node6</title>
<path fill="none" stroke="midnightblue" d="M772.14,-174.35C790.02,-174.99 809.51,-175.69 827.82,-176.34"/>
<polygon fill="midnightblue" stroke="midnightblue" points="827.74,-179.84 837.86,-176.7 827.99,-172.85 827.74,-179.84"/>
</g>
<!-- Node8 -->
<g id="node8" class="node">
<title>Node8</title>
<g id="a_node8"><a xlink:href="group___transforms.html#gafa423b24e0a976a40fa25bde5279d6da" target="_top" xlink:title=" ">
<polygon fill="white" stroke="black" points="618,-83.5 618,-102.5 793,-102.5 793,-83.5 618,-83.5"/>
<text text-anchor="middle" x="705.5" y="-90.5" font-family="Helvetica,sans-Serif" font-size="10.00">operations_push_transformation</text>
</a>
</g>
</g>
<!-- Node7&#45;&gt;Node8 -->
<g id="edge8" class="edge">
<title>Node7&#45;&gt;Node8</title>
<path fill="none" stroke="midnightblue" d="M582.15,-93C590.57,-93 599.23,-93 607.85,-93"/>
<polygon fill="midnightblue" stroke="midnightblue" points="607.94,-96.5 617.94,-93 607.94,-89.5 607.94,-96.5"/>
</g>
<!-- Node9 -->
<g id="node9" class="node">
<title>Node9</title>
<g id="a_node9"><a xlink:href="group___transforms.html#ga9fb2cf393283a6c4e01669d004e011cb" target="_top" xlink:title=" ">
<polygon fill="white" stroke="black" points="829,-115 829,-145 977,-145 977,-115 829,-115"/>
<text text-anchor="start" x="837" y="-133" font-family="Helvetica,sans-Serif" font-size="10.00">operations_push_extended</text>
<text text-anchor="middle" x="903" y="-122" font-family="Helvetica,sans-Serif" font-size="10.00">_translate_attributes</text>
</a>
</g>
</g>
<!-- Node8&#45;&gt;Node9 -->
<g id="edge9" class="edge">
<title>Node8&#45;&gt;Node9</title>
<path fill="none" stroke="midnightblue" d="M756.85,-102.53C775.79,-106.11 797.88,-110.29 819.02,-114.29"/>
<polygon fill="midnightblue" stroke="midnightblue" points="818.5,-117.76 828.97,-116.18 819.8,-110.88 818.5,-117.76"/>
</g>
<!-- Node8&#45;&gt;Node10 -->
<g id="edge11" class="edge">
<title>Node8&#45;&gt;Node10</title>
<path fill="none" stroke="midnightblue" d="M793.32,-91.4C856.06,-90.25 940.38,-88.7 1002.57,-87.55"/>
<polygon fill="midnightblue" stroke="midnightblue" points="1002.81,-91.05 1012.74,-87.37 1002.68,-84.05 1002.81,-91.05"/>
</g>
<!-- Node9&#45;&gt;Node10 -->
<g id="edge10" class="edge">
<title>Node9&#45;&gt;Node10</title>
<path fill="none" stroke="midnightblue" d="M966.47,-114.98C981.99,-111.25 998.75,-107.22 1014.7,-103.38"/>
<polygon fill="midnightblue" stroke="midnightblue" points="1015.6,-106.77 1024.5,-101.03 1013.96,-99.96 1015.6,-106.77"/>
</g>
</g>
</svg>
        <g id="navigator" transform="translate(0 0)" fill="#404254">
                <rect fill="#f2f5e9" fill-opacity="0.5" stroke="#606060" stroke-width=".5" x="0" y="0" width="60" height="60"/>
                <use id="zoomplus" xlink:href="#zoomPlus" x="17" y="9" onmousedown="handleZoom(evt,'in')"/>
                <use id="zoomminus" xlink:href="#zoomMin" x="42" y="9" onmousedown="handleZoom(evt,'out')"/>
                <use id="reset" xlink:href="#resetDef" x="30" y="36" onmousedown="handleReset()"/>
                <g id="arrowUp" xlink:href="#dirArrow" transform="translate(30 24)" onmousedown="handlePan(0,-1)">
                  <use xlink:href="#rim" fill="#404040">
                        <set attributeName="fill" to="#808080" begin="arrowUp.mouseover" end="arrowUp.mouseout"/>
                  </use>
                  <path fill="none" stroke="white" stroke-width="1.5" d="M0,-3.0v7 M-2.5,-0.5L0,-3.0L2.5,-0.5"/>
                </g>
                <g id="arrowRight" xlink:href="#dirArrow" transform="rotate(90) translate(36 -43)" onmousedown="handlePan(1,0)">
                  <use xlink:href="#rim" fill="#404040">
                        <set attributeName="fill" to="#808080" begin="arrowRight.mouseover" end="arrowRight.mouseout"/>
                  </use>
                  <path fill="none" stroke="white" stroke-width="1.5" d="M0,-3.0v7 M-2.5,-0.5L0,-3.0L2.5,-0.5"/>
                </g>
                <g id="arrowDown" xlink:href="#dirArrow" transform="rotate(180) translate(-30 -48)" onmousedown="handlePan(0,1)">
                  <use xlink:href="#rim" fill="#404040">
                        <set attributeName="fill" to="#808080" begin="arrowDown.mouseover" end="arrowDown.mouseout"/>
                  </use>
                  <path fill="none" stroke="white" stroke-width="1.5" d="M0,-3.0v7 M-2.5,-0.5L0,-3.0L2.5,-0.5"/>
                </g>
                <g id="arrowLeft" xlink:href="#dirArrow" transform="rotate(270) translate(-36 17)" onmousedown="handlePan(-1,0)">
                  <use xlink:href="#rim" fill="#404040">
                        <set attributeName="fill" to="#808080" begin="arrowLeft.mouseover" end="arrowLeft.mouseout"/>
                  </use>
                  <path fill="none" stroke="white" stroke-width="1.5" d="M0,-3.0v7 M-2.5,-0.5L0,-3.0L2.5,-0.5"/>
                </g>
        </g>
        <svg viewBox="0 0 15 15" width="100%" height="30px" preserveAspectRatio="xMaxYMin meet">
         <g id="arrow_out" transform="scale(0.3 0.3)">
          <a xlink:href="parsing_8cpp_a46d5190ea0181cc625329b5221e9dce9_cgraph_org.svg" target="_base">
           <rect id="button" ry="5" rx="5" y="6" x="6" height="38" width="38"
                fill="#f2f5e9" fill-opacity="0.5" stroke="#606060" stroke-width="1.0"/>
           <path id="arrow"
             d="M 11.500037,31.436501 C 11.940474,20.09759 22.043105,11.32322 32.158766,21.979434 L 37.068811,17.246167 C 37.068811,17.246167 37.088388,32 37.088388,32 L 22.160133,31.978069 C 22.160133,31.978069 26.997745,27.140456 26.997745,27.140456 C 18.528582,18.264221 13.291696,25.230495 11.500037,31.436501 z"
             style="fill:#404040;"/>
          </a>
         </g>
        </svg>
</svg>
