<?xml version="1.0" encoding="UTF-8" standalone="no"?>
<!DOCTYPE svg PUBLIC "-//W3C//DTD SVG 1.1//EN"
 "http://www.w3.org/Graphics/SVG/1.1/DTD/svg11.dtd">
<!-- Generated by graphviz version 3.0.0 (0)
 -->
<!-- Title: src/parsing.cpp Pages: 1 -->
<svg width="808pt" height="140pt"
 viewBox="0.00 0.00 808.00 140.00" xmlns="http://www.w3.org/2000/svg" xmlns:xlink="http://www.w3.org/1999/xlink">
<g id="graph0" class="graph" transform="scale(1 1) rotate(0) translate(4 136)">
<title>src/parsing.cpp</title>
<polygon fill="white" stroke="transparent" points="-4,4 -4,-136 804,-136 804,4 -4,4"/>
<!-- Node1 -->
<g id="node1" class="node">
<title>Node1</title>
<g id="a_node1"><a xlink:title=" ">
<polygon fill="#bfbfbf" stroke="black" points="306,-112.5 306,-131.5 396,-131.5 396,-112.5 306,-112.5"/>
<text text-anchor="middle" x="351" y="-119.5" font-family="Helvetica,sans-Serif" font-size="10.00">src/parsing.cpp</text>
</a>
</g>
</g>
<!-- Node2 -->
<g id="node2" class="node">
<title>Node2</title>
<g id="a_node2"><a xlink:title=" ">
<polygon fill="white" stroke="#bfbfbf" points="0,-56.5 0,-75.5 46,-75.5 46,-56.5 0,-56.5"/>
<text text-anchor="middle" x="23" y="-63.5" font-family="Helvetica,sans-Serif" font-size="10.00">cstdio</text>
</a>
</g>
</g>
<!-- Node1&#45;&gt;Node2 -->
<g id="edge1" class="edge">
<title>Node1&#45;&gt;Node2</title>
<path fill="none" stroke="midnightblue" d="M305.8,-115.89C249.47,-109.13 150.11,-95.94 56.28,-76.06"/>
<polygon fill="midnightblue" stroke="midnightblue" points="56.85,-72.6 46.34,-73.92 55.38,-79.44 56.85,-72.6"/>
</g>
<!-- Node3 -->
<g id="node3" class="node">
<title>Node3</title>
<g id="a_node3"><a xlink:title=" ">
<polygon fill="white" stroke="#bfbfbf" points="64,-56.5 64,-75.5 114,-75.5 114,-56.5 64,-56.5"/>
<text text-anchor="middle" x="89" y="-63.5" font-family="Helvetica,sans-Serif" font-size="10.00">cstring</text>
</a>
</g>
</g>
<!-- Node1&#45;&gt;Node3 -->
<g id="edge2" class="edge">
<title>Node1&#45;&gt;Node3</title>
<path fill="none" stroke="midnightblue" d="M306.92,-112.48C261.88,-103.68 189.96,-89.4 128,-76 126.74,-75.73 125.46,-75.45 124.16,-75.16"/>
<polygon fill="midnightblue" stroke="midnightblue" points="124.68,-71.69 114.15,-72.91 123.14,-78.52 124.68,-71.69"/>
</g>
<!-- Node4 -->
<g id="node4" class="node">
<title>Node4</title>
<g id="a_node4"><a xlink:title=" ">
<polygon fill="white" stroke="#bfbfbf" points="431.5,-0.5 431.5,-19.5 478.5,-19.5 478.5,-0.5 431.5,-0.5"/>
<text text-anchor="middle" x="455" y="-7.5" font-family="Helvetica,sans-Serif" font-size="10.00">vector</text>
</a>
</g>
</g>
<!-- Node1&#45;&gt;Node4 -->
<g id="edge3" class="edge">
<title>Node1&#45;&gt;Node4</title>
<path fill="none" stroke="midnightblue" d="M305.85,-120.08C237.24,-117.12 118.93,-105 161,-56 194.19,-17.34 350.96,-11.54 421.02,-10.92"/>
<polygon fill="midnightblue" stroke="midnightblue" points="421.12,-14.42 431.1,-10.86 421.08,-7.42 421.12,-14.42"/>
</g>
<!-- Node5 -->
<g id="node5" class="node">
<title>Node5</title>
<g id="a_node5"><a xlink:title=" ">
<polygon fill="white" stroke="#bfbfbf" points="170,-56.5 170,-75.5 230,-75.5 230,-56.5 170,-56.5"/>
<text text-anchor="middle" x="200" y="-63.5" font-family="Helvetica,sans-Serif" font-size="10.00">iostream</text>
</a>
</g>
</g>
<!-- Node1&#45;&gt;Node5 -->
<g id="edge4" class="edge">
<title>Node1&#45;&gt;Node5</title>
<path fill="none" stroke="midnightblue" d="M327.07,-112.44C301.78,-103.4 261.7,-89.06 233.32,-78.92"/>
<polygon fill="midnightblue" stroke="midnightblue" points="234.41,-75.59 223.81,-75.52 232.05,-82.18 234.41,-75.59"/>
</g>
<!-- Node6 -->
<g id="node6" class="node">
<title>Node6</title>
<g id="a_node6"><a xlink:title=" ">
<polygon fill="white" stroke="#bfbfbf" points="248.5,-56.5 248.5,-75.5 299.5,-75.5 299.5,-56.5 248.5,-56.5"/>
<text text-anchor="middle" x="274" y="-63.5" font-family="Helvetica,sans-Serif" font-size="10.00">csignal</text>
</a>
</g>
</g>
<!-- Node1&#45;&gt;Node6 -->
<g id="edge5" class="edge">
<title>Node1&#45;&gt;Node6</title>
<path fill="none" stroke="midnightblue" d="M338.63,-112.32C326.84,-104.06 308.87,-91.45 294.86,-81.63"/>
<polygon fill="midnightblue" stroke="midnightblue" points="296.54,-78.53 286.34,-75.65 292.52,-84.26 296.54,-78.53"/>
</g>
<!-- Node7 -->
<g id="node7" class="node">
<title>Node7</title>
<g id="a_node7"><a xlink:title=" ">
<polygon fill="white" stroke="#bfbfbf" points="318,-56.5 318,-75.5 384,-75.5 384,-56.5 318,-56.5"/>
<text text-anchor="middle" x="351" y="-63.5" font-family="Helvetica,sans-Serif" font-size="10.00">sys/wait.h</text>
</a>
</g>
</g>
<!-- Node1&#45;&gt;Node7 -->
<g id="edge6" class="edge">
<title>Node1&#45;&gt;Node7</title>
<path fill="none" stroke="midnightblue" d="M351,-112.08C351,-105.01 351,-94.86 351,-85.99"/>
<polygon fill="midnightblue" stroke="midnightblue" points="354.5,-85.75 351,-75.75 347.5,-85.75 354.5,-85.75"/>
</g>
<!-- Node8 -->
<g id="node8" class="node">
<title>Node8</title>
<g id="a_node8"><a xlink:title=" ">
<polygon fill="white" stroke="#bfbfbf" points="402.5,-56.5 402.5,-75.5 475.5,-75.5 475.5,-56.5 402.5,-56.5"/>
<text text-anchor="middle" x="439" y="-63.5" font-family="Helvetica,sans-Serif" font-size="10.00">pg_config.h</text>
</a>
</g>
</g>
<!-- Node1&#45;&gt;Node8 -->
<g id="edge7" class="edge">
<title>Node1&#45;&gt;Node8</title>
<path fill="none" stroke="midnightblue" d="M365.14,-112.32C378.87,-103.9 399.94,-90.97 416.06,-81.07"/>
<polygon fill="midnightblue" stroke="midnightblue" points="418.2,-83.87 424.9,-75.65 414.54,-77.9 418.2,-83.87"/>
</g>
<!-- Node9 -->
<g id="node9" class="node">
<title>Node9</title>
<g id="a_node9"><a xlink:title=" ">
<polygon fill="white" stroke="#bfbfbf" points="494,-56.5 494,-75.5 562,-75.5 562,-56.5 494,-56.5"/>
<text text-anchor="middle" x="528" y="-63.5" font-family="Helvetica,sans-Serif" font-size="10.00">wordexp.h</text>
</a>
</g>
</g>
<!-- Node1&#45;&gt;Node9 -->
<g id="edge8" class="edge">
<title>Node1&#45;&gt;Node9</title>
<path fill="none" stroke="midnightblue" d="M379.05,-112.44C409.08,-103.28 456.91,-88.69 490.24,-78.52"/>
<polygon fill="midnightblue" stroke="midnightblue" points="491.54,-81.78 500.09,-75.52 489.5,-75.09 491.54,-81.78"/>
</g>
<!-- Node10 -->
<g id="node10" class="node">
<title>Node10</title>
<g id="a_node10"><a xlink:title=" ">
<polygon fill="white" stroke="#bfbfbf" points="580,-56.5 580,-75.5 632,-75.5 632,-56.5 580,-56.5"/>
<text text-anchor="middle" x="606" y="-63.5" font-family="Helvetica,sans-Serif" font-size="10.00">cassert</text>
</a>
</g>
</g>
<!-- Node1&#45;&gt;Node10 -->
<g id="edge9" class="edge">
<title>Node1&#45;&gt;Node10</title>
<path fill="none" stroke="midnightblue" d="M396.23,-112.43C438.63,-104.25 504.02,-91.24 569.57,-76.25"/>
<polygon fill="midnightblue" stroke="midnightblue" points="570.7,-79.58 579.66,-73.92 569.13,-72.76 570.7,-79.58"/>
</g>
<!-- Node11 -->
<g id="node11" class="node">
<title>Node11</title>
<g id="a_node11"><a xlink:title=" ">
<polygon fill="white" stroke="#bfbfbf" points="650.5,-56.5 650.5,-75.5 719.5,-75.5 719.5,-56.5 650.5,-56.5"/>
<text text-anchor="middle" x="685" y="-63.5" font-family="Helvetica,sans-Serif" font-size="10.00">tinyxml2.h</text>
</a>
</g>
</g>
<!-- Node1&#45;&gt;Node11 -->
<g id="edge10" class="edge">
<title>Node1&#45;&gt;Node11</title>
<path fill="none" stroke="midnightblue" d="M396.32,-114.65C451.48,-106.78 547.68,-92.55 640.33,-76.04"/>
<polygon fill="midnightblue" stroke="midnightblue" points="641.22,-79.44 650.44,-74.23 639.98,-72.55 641.22,-79.44"/>
</g>
<!-- Node12 -->
<g id="node12" class="node">
<title>Node12</title>
<g id="a_node12"><a xlink:href="parsing_8h.html" target="_top" xlink:title=" ">
<polygon fill="white" stroke="black" points="738,-56.5 738,-75.5 800,-75.5 800,-56.5 738,-56.5"/>
<text text-anchor="middle" x="769" y="-63.5" font-family="Helvetica,sans-Serif" font-size="10.00">parsing.h</text>
</a>
</g>
</g>
<!-- Node1&#45;&gt;Node12 -->
<g id="edge11" class="edge">
<title>Node1&#45;&gt;Node12</title>
<path fill="none" stroke="midnightblue" d="M396.02,-117.15C465.21,-110.9 602.01,-97.25 727.45,-76.11"/>
<polygon fill="midnightblue" stroke="midnightblue" points="728.35,-79.51 737.62,-74.38 727.17,-72.61 728.35,-79.51"/>
</g>
<!-- Node12&#45;&gt;Node4 -->
<g id="edge12" class="edge">
<title>Node12&#45;&gt;Node4</title>
<path fill="none" stroke="midnightblue" d="M737.59,-57.75C734.69,-57.14 731.79,-56.54 729,-56 642.67,-39.21 540.24,-23.5 488.49,-15.85"/>
<polygon fill="midnightblue" stroke="midnightblue" points="488.94,-12.38 478.54,-14.39 487.92,-19.31 488.94,-12.38"/>
</g>
</g>
</svg>
