<?xml version="1.0" encoding="UTF-8" standalone="no"?>
<!DOCTYPE svg PUBLIC "-//W3C//DTD SVG 1.1//EN"
 "http://www.w3.org/Graphics/SVG/1.1/DTD/svg11.dtd">
<!-- Generated by graphviz version 3.0.0 (0)
 -->
<!-- Title: src/parsing.cpp Pages: 1 -->
<svg width="548pt" height="140pt"
 viewBox="0.00 0.00 548.00 140.00" xmlns="http://www.w3.org/2000/svg" xmlns:xlink="http://www.w3.org/1999/xlink">
<g id="graph0" class="graph" transform="scale(1 1) rotate(0) translate(4 136)">
<title>src/parsing.cpp</title>
<polygon fill="white" stroke="transparent" points="-4,4 -4,-136 544,-136 544,4 -4,4"/>
<!-- Node1 -->
<g id="node1" class="node">
<title>Node1</title>
<g id="a_node1"><a xlink:title=" ">
<polygon fill="#bfbfbf" stroke="black" points="240,-112.5 240,-131.5 330,-131.5 330,-112.5 240,-112.5"/>
<text text-anchor="middle" x="285" y="-119.5" font-family="Helvetica,sans-Serif" font-size="10.00">src/parsing.cpp</text>
</a>
</g>
</g>
<!-- Node2 -->
<g id="node2" class="node">
<title>Node2</title>
<g id="a_node2"><a xlink:title=" ">
<polygon fill="white" stroke="#bfbfbf" points="0,-56.5 0,-75.5 52,-75.5 52,-56.5 0,-56.5"/>
<text text-anchor="middle" x="26" y="-63.5" font-family="Helvetica,sans-Serif" font-size="10.00">cassert</text>
</a>
</g>
</g>
<!-- Node1&#45;&gt;Node2 -->
<g id="edge1" class="edge">
<title>Node1&#45;&gt;Node2</title>
<path fill="none" stroke="midnightblue" d="M239.8,-112.65C196.58,-104.51 129.34,-91.41 62.23,-76.19"/>
<polygon fill="midnightblue" stroke="midnightblue" points="62.86,-72.75 52.34,-73.93 61.31,-79.57 62.86,-72.75"/>
</g>
<!-- Node3 -->
<g id="node3" class="node">
<title>Node3</title>
<g id="a_node3"><a xlink:title=" ">
<polygon fill="white" stroke="#bfbfbf" points="70,-56.5 70,-75.5 138,-75.5 138,-56.5 70,-56.5"/>
<text text-anchor="middle" x="104" y="-63.5" font-family="Helvetica,sans-Serif" font-size="10.00">filesystem</text>
</a>
</g>
</g>
<!-- Node1&#45;&gt;Node3 -->
<g id="edge2" class="edge">
<title>Node1&#45;&gt;Node3</title>
<path fill="none" stroke="midnightblue" d="M256.32,-112.44C225.47,-103.24 176.27,-88.56 142.17,-78.39"/>
<polygon fill="midnightblue" stroke="midnightblue" points="143.13,-75.02 132.55,-75.52 141.13,-81.73 143.13,-75.02"/>
</g>
<!-- Node4 -->
<g id="node4" class="node">
<title>Node4</title>
<g id="a_node4"><a xlink:title=" ">
<polygon fill="white" stroke="#bfbfbf" points="156,-56.5 156,-75.5 216,-75.5 216,-56.5 156,-56.5"/>
<text text-anchor="middle" x="186" y="-63.5" font-family="Helvetica,sans-Serif" font-size="10.00">iostream</text>
</a>
</g>
</g>
<!-- Node1&#45;&gt;Node4 -->
<g id="edge3" class="edge">
<title>Node1&#45;&gt;Node4</title>
<path fill="none" stroke="midnightblue" d="M269.09,-112.32C253.36,-103.74 229.06,-90.49 210.79,-80.52"/>
<polygon fill="midnightblue" stroke="midnightblue" points="212.32,-77.37 201.87,-75.65 208.97,-83.52 212.32,-77.37"/>
</g>
<!-- Node5 -->
<g id="node5" class="node">
<title>Node5</title>
<g id="a_node5"><a xlink:title=" ">
<polygon fill="white" stroke="#bfbfbf" points="234,-56.5 234,-75.5 278,-75.5 278,-56.5 234,-56.5"/>
<text text-anchor="middle" x="256" y="-63.5" font-family="Helvetica,sans-Serif" font-size="10.00">string</text>
</a>
</g>
</g>
<!-- Node1&#45;&gt;Node5 -->
<g id="edge4" class="edge">
<title>Node1&#45;&gt;Node5</title>
<path fill="none" stroke="midnightblue" d="M280.21,-112.08C276.24,-104.69 270.47,-93.95 265.57,-84.81"/>
<polygon fill="midnightblue" stroke="midnightblue" points="268.51,-82.91 260.7,-75.75 262.35,-86.22 268.51,-82.91"/>
</g>
<!-- Node6 -->
<g id="node6" class="node">
<title>Node6</title>
<g id="a_node6"><a xlink:title=" ">
<polygon fill="white" stroke="#bfbfbf" points="296,-56.5 296,-75.5 334,-75.5 334,-56.5 296,-56.5"/>
<text text-anchor="middle" x="315" y="-63.5" font-family="Helvetica,sans-Serif" font-size="10.00">map</text>
</a>
</g>
</g>
<!-- Node1&#45;&gt;Node6 -->
<g id="edge5" class="edge">
<title>Node1&#45;&gt;Node6</title>
<path fill="none" stroke="midnightblue" d="M289.95,-112.08C294.1,-104.61 300.15,-93.72 305.27,-84.52"/>
<polygon fill="midnightblue" stroke="midnightblue" points="308.34,-86.19 310.14,-75.75 302.22,-82.79 308.34,-86.19"/>
</g>
<!-- Node7 -->
<g id="node7" class="node">
<title>Node7</title>
<g id="a_node7"><a xlink:title=" ">
<polygon fill="white" stroke="#bfbfbf" points="411.5,-0.5 411.5,-19.5 458.5,-19.5 458.5,-0.5 411.5,-0.5"/>
<text text-anchor="middle" x="435" y="-7.5" font-family="Helvetica,sans-Serif" font-size="10.00">vector</text>
</a>
</g>
</g>
<!-- Node1&#45;&gt;Node7 -->
<g id="edge6" class="edge">
<title>Node1&#45;&gt;Node7</title>
<path fill="none" stroke="midnightblue" d="M296.77,-112.37C322.4,-93.57 383.5,-48.77 415.18,-25.53"/>
<polygon fill="midnightblue" stroke="midnightblue" points="417.29,-28.33 423.28,-19.59 413.15,-22.68 417.29,-28.33"/>
</g>
<!-- Node8 -->
<g id="node8" class="node">
<title>Node8</title>
<g id="a_node8"><a xlink:title=" ">
<polygon fill="white" stroke="#bfbfbf" points="390.5,-56.5 390.5,-75.5 459.5,-75.5 459.5,-56.5 390.5,-56.5"/>
<text text-anchor="middle" x="425" y="-63.5" font-family="Helvetica,sans-Serif" font-size="10.00">tinyxml2.h</text>
</a>
</g>
</g>
<!-- Node1&#45;&gt;Node8 -->
<g id="edge7" class="edge">
<title>Node1&#45;&gt;Node8</title>
<path fill="none" stroke="midnightblue" d="M307.18,-112.44C330.43,-103.48 367.15,-89.31 393.42,-79.18"/>
<polygon fill="midnightblue" stroke="midnightblue" points="394.85,-82.38 402.92,-75.52 392.33,-75.85 394.85,-82.38"/>
</g>
<!-- Node9 -->
<g id="node9" class="node">
<title>Node9</title>
<g id="a_node9"><a xlink:href="parsing_8h.html" target="_top" xlink:title=" ">
<polygon fill="white" stroke="black" points="478,-56.5 478,-75.5 540,-75.5 540,-56.5 478,-56.5"/>
<text text-anchor="middle" x="509" y="-63.5" font-family="Helvetica,sans-Serif" font-size="10.00">parsing.h</text>
</a>
</g>
</g>
<!-- Node1&#45;&gt;Node9 -->
<g id="edge8" class="edge">
<title>Node1&#45;&gt;Node9</title>
<path fill="none" stroke="midnightblue" d="M320.49,-112.44C360.5,-102.8 425.44,-87.14 467.69,-76.96"/>
<polygon fill="midnightblue" stroke="midnightblue" points="468.75,-80.3 477.65,-74.56 467.11,-73.5 468.75,-80.3"/>
</g>
<!-- Node9&#45;&gt;Node7 -->
<g id="edge9" class="edge">
<title>Node9&#45;&gt;Node7</title>
<path fill="none" stroke="midnightblue" d="M497.11,-56.32C485.85,-48.11 468.71,-35.6 455.29,-25.81"/>
<polygon fill="midnightblue" stroke="midnightblue" points="457.25,-22.9 447.11,-19.83 453.12,-28.56 457.25,-22.9"/>
</g>
</g>
</svg>
