<?xml version="1.0" encoding="UTF-8" standalone="no"?>
<!DOCTYPE svg PUBLIC "-//W3C//DTD SVG 1.1//EN"
 "http://www.w3.org/Graphics/SVG/1.1/DTD/svg11.dtd">
<!-- Generated by graphviz version 3.0.0 (0)
 -->
<!-- Title: model Pages: 1 -->
<svg width="402pt" height="128pt"
 viewBox="0.00 0.00 402.00 128.00" xmlns="http://www.w3.org/2000/svg" xmlns:xlink="http://www.w3.org/1999/xlink">
<g id="graph0" class="graph" transform="scale(1 1) rotate(0) translate(4 124)">
<title>model</title>
<polygon fill="white" stroke="transparent" points="-4,4 -4,-124 398,-124 398,4 -4,4"/>
<!-- Node1 -->
<g id="node1" class="node">
<title>Node1</title>
<g id="a_node1"><a xlink:title=" ">
<polygon fill="#bfbfbf" stroke="black" points="140.5,-0.5 140.5,-19.5 187.5,-19.5 187.5,-0.5 140.5,-0.5"/>
<text text-anchor="middle" x="164" y="-7.5" font-family="Helvetica,sans-Serif" font-size="10.00">model</text>
</a>
</g>
</g>
<!-- Node2 -->
<g id="node2" class="node">
<title>Node2</title>
<g id="a_node2"><a xlink:title=" ">
<polygon fill="white" stroke="black" points="0,-100.5 0,-119.5 52,-119.5 52,-100.5 0,-100.5"/>
<text text-anchor="middle" x="26" y="-107.5" font-family="Helvetica,sans-Serif" font-size="10.00">GLsizei</text>
</a>
</g>
</g>
<!-- Node2&#45;&gt;Node1 -->
<g id="edge1" class="edge">
<title>Node2&#45;&gt;Node1</title>
<path fill="none" stroke="#9a32cd" stroke-dasharray="5,2" d="M26.56,-89.77C28.08,-73.7 32.84,-51.33 47,-38 60.28,-25.5 110.08,-17.47 140.26,-13.64"/>
<polygon fill="#9a32cd" stroke="#9a32cd" points="23.04,-89.95 25.93,-100.14 30.03,-90.37 23.04,-89.95"/>
<text text-anchor="middle" x="71.5" y="-57.5" font-family="Helvetica,sans-Serif" font-size="10.00"> nVertices</text>
</g>
<!-- Node3 -->
<g id="node3" class="node">
<title>Node3</title>
<g id="a_node3"><a xlink:title=" ">
<polygon fill="white" stroke="black" points="74,-100.5 74,-119.5 122,-119.5 122,-100.5 74,-100.5"/>
<text text-anchor="middle" x="98" y="-107.5" font-family="Helvetica,sans-Serif" font-size="10.00">GLuint</text>
</a>
</g>
</g>
<!-- Node3&#45;&gt;Node1 -->
<g id="edge2" class="edge">
<title>Node3&#45;&gt;Node1</title>
<path fill="none" stroke="#9a32cd" stroke-dasharray="5,2" d="M99.14,-89.81C100.92,-74.43 105.47,-52.99 117,-38 123.19,-29.94 132.53,-23.88 141.25,-19.56"/>
<polygon fill="#9a32cd" stroke="#9a32cd" points="95.61,-89.93 98.24,-100.2 102.59,-90.54 95.61,-89.93"/>
<text text-anchor="middle" x="138.5" y="-74" font-family="Helvetica,sans-Serif" font-size="10.00"> normals</text>
<text text-anchor="middle" x="138.5" y="-63" font-family="Helvetica,sans-Serif" font-size="10.00">tbo</text>
<text text-anchor="middle" x="138.5" y="-52" font-family="Helvetica,sans-Serif" font-size="10.00">tc</text>
<text text-anchor="middle" x="138.5" y="-41" font-family="Helvetica,sans-Serif" font-size="10.00">vbo</text>
</g>
<!-- Node4 -->
<g id="node4" class="node">
<title>Node4</title>
<g id="a_node4"><a xlink:title=" ">
<polygon fill="white" stroke="black" points="144,-100.5 144,-119.5 184,-119.5 184,-100.5 144,-100.5"/>
<text text-anchor="middle" x="164" y="-107.5" font-family="Helvetica,sans-Serif" font-size="10.00">vec3</text>
</a>
</g>
</g>
<!-- Node4&#45;&gt;Node1 -->
<g id="edge3" class="edge">
<title>Node4&#45;&gt;Node1</title>
<path fill="none" stroke="#9a32cd" stroke-dasharray="5,2" d="M164,-90.22C164,-68.95 164,-35.22 164,-19.54"/>
<polygon fill="#9a32cd" stroke="#9a32cd" points="160.5,-90.3 164,-100.3 167.5,-90.3 160.5,-90.3"/>
<text text-anchor="middle" x="186.5" y="-74" font-family="Helvetica,sans-Serif" font-size="10.00"> ambient</text>
<text text-anchor="middle" x="186.5" y="-63" font-family="Helvetica,sans-Serif" font-size="10.00">diffuse</text>
<text text-anchor="middle" x="186.5" y="-52" font-family="Helvetica,sans-Serif" font-size="10.00">emissive</text>
<text text-anchor="middle" x="186.5" y="-41" font-family="Helvetica,sans-Serif" font-size="10.00">specular</text>
</g>
<!-- Node5 -->
<g id="node5" class="node">
<title>Node5</title>
<g id="a_node5"><a xlink:title=" ">
<polygon fill="white" stroke="black" points="206,-100.5 206,-119.5 258,-119.5 258,-100.5 206,-100.5"/>
<text text-anchor="middle" x="232" y="-107.5" font-family="Helvetica,sans-Serif" font-size="10.00">GLfloat</text>
</a>
</g>
</g>
<!-- Node5&#45;&gt;Node1 -->
<g id="edge4" class="edge">
<title>Node5&#45;&gt;Node1</title>
<path fill="none" stroke="#9a32cd" stroke-dasharray="5,2" d="M229.98,-90.26C227.49,-74.84 222,-53.14 210,-38 203.67,-30.02 194.29,-23.91 185.65,-19.54"/>
<polygon fill="#9a32cd" stroke="#9a32cd" points="226.51,-90.75 231.31,-100.2 233.45,-89.82 226.51,-90.75"/>
<text text-anchor="middle" x="252.5" y="-57.5" font-family="Helvetica,sans-Serif" font-size="10.00"> shininess</text>
</g>
<!-- Node6 -->
<g id="node6" class="node">
<title>Node6</title>
<g id="a_node6"><a xlink:title=" ">
<polygon fill="white" stroke="black" points="276,-100.5 276,-119.5 394,-119.5 394,-100.5 276,-100.5"/>
<text text-anchor="middle" x="335" y="-107.5" font-family="Helvetica,sans-Serif" font-size="10.00">anonymous:material</text>
</a>
</g>
</g>
<!-- Node6&#45;&gt;Node1 -->
<g id="edge5" class="edge">
<title>Node6&#45;&gt;Node1</title>
<path fill="none" stroke="#9a32cd" stroke-dasharray="5,2" d="M326.24,-91.39C317.17,-75.01 301.47,-51.22 281,-38 252.46,-19.56 212.83,-13.65 187.8,-11.8"/>
<polygon fill="#9a32cd" stroke="#9a32cd" points="323.26,-93.24 331.01,-100.46 329.46,-89.98 323.26,-93.24"/>
<text text-anchor="middle" x="342.5" y="-57.5" font-family="Helvetica,sans-Serif" font-size="10.00"> material</text>
</g>
</g>
</svg>
