<?xml version="1.0" encoding="UTF-8" standalone="no"?>
<!DOCTYPE svg PUBLIC "-//W3C//DTD SVG 1.1//EN"
 "http://www.w3.org/Graphics/SVG/1.1/DTD/svg11.dtd">
<!-- Generated by graphviz version 3.0.0 (0)
 -->
<!-- Title: baseModel Pages: 1 -->
<svg width="183pt" height="117pt"
 viewBox="0.00 0.00 182.50 117.00" xmlns="http://www.w3.org/2000/svg" xmlns:xlink="http://www.w3.org/1999/xlink">
<g id="graph0" class="graph" transform="scale(1 1) rotate(0) translate(4 113)">
<title>baseModel</title>
<polygon fill="white" stroke="transparent" points="-4,4 -4,-113 178.5,-113 178.5,4 -4,4"/>
<!-- Node1 -->
<g id="node1" class="node">
<title>Node1</title>
<g id="a_node1"><a xlink:title=" ">
<polygon fill="#bfbfbf" stroke="black" points="15.5,-0.5 15.5,-19.5 85.5,-19.5 85.5,-0.5 15.5,-0.5"/>
<text text-anchor="middle" x="50.5" y="-7.5" font-family="Helvetica,sans-Serif" font-size="10.00">baseModel</text>
</a>
</g>
</g>
<!-- Node2 -->
<g id="node2" class="node">
<title>Node2</title>
<g id="a_node2"><a xlink:title=" ">
<polygon fill="white" stroke="black" points="0,-89.5 0,-108.5 29,-108.5 29,-89.5 0,-89.5"/>
<text text-anchor="middle" x="14.5" y="-96.5" font-family="Helvetica,sans-Serif" font-size="10.00">int</text>
</a>
</g>
</g>
<!-- Node2&#45;&gt;Node1 -->
<g id="edge1" class="edge">
<title>Node2&#45;&gt;Node1</title>
<path fill="none" stroke="#9a32cd" stroke-dasharray="5,2" d="M10.77,-79.23C9.26,-66.87 9.13,-50.69 15.5,-38 19.36,-30.32 26.54,-24.19 33.4,-19.73"/>
<polygon fill="#9a32cd" stroke="#9a32cd" points="7.35,-79.99 12.41,-89.3 14.26,-78.87 7.35,-79.99"/>
<text text-anchor="middle" x="40" y="-52" font-family="Helvetica,sans-Serif" font-size="10.00"> nVertices</text>
</g>
<!-- Node3 -->
<g id="node3" class="node">
<title>Node3</title>
<g id="a_node3"><a xlink:title=" ">
<polygon fill="white" stroke="black" points="63,-89.5 63,-108.5 110,-108.5 110,-89.5 63,-89.5"/>
<text text-anchor="middle" x="86.5" y="-96.5" font-family="Helvetica,sans-Serif" font-size="10.00">float *</text>
</a>
</g>
</g>
<!-- Node3&#45;&gt;Node1 -->
<g id="edge2" class="edge">
<title>Node3&#45;&gt;Node1</title>
<path fill="none" stroke="#9a32cd" stroke-dasharray="5,2" d="M80.42,-79.58C76.3,-67.58 70.53,-51.68 64.5,-38 61.78,-31.81 58.28,-25.06 55.46,-19.86"/>
<polygon fill="#9a32cd" stroke="#9a32cd" points="77.2,-80.96 83.7,-89.32 83.83,-78.73 77.2,-80.96"/>
<text text-anchor="middle" x="125.5" y="-63" font-family="Helvetica,sans-Serif" font-size="10.00"> normals</text>
<text text-anchor="middle" x="125.5" y="-52" font-family="Helvetica,sans-Serif" font-size="10.00">texture_coordinates</text>
<text text-anchor="middle" x="125.5" y="-41" font-family="Helvetica,sans-Serif" font-size="10.00">vertices</text>
</g>
</g>
</svg>
