<?xml version="1.0" encoding="UTF-8" standalone="no"?>
<!DOCTYPE svg PUBLIC "-//W3C//DTD SVG 1.1//EN"
 "http://www.w3.org/Graphics/SVG/1.1/DTD/svg11.dtd">
<!-- Generated by graphviz version 3.0.0 (0)
 -->
<!-- Title: profile_struct Pages: 1 -->
<svg width="342pt" height="357pt"
 viewBox="0.00 0.00 342.00 357.36" xmlns="http://www.w3.org/2000/svg" xmlns:xlink="http://www.w3.org/1999/xlink">
<g id="graph0" class="graph" transform="scale(1 1) rotate(0) translate(4 353.36)">
<title>profile_struct</title>
<polygon fill="white" stroke="transparent" points="-4,4 -4,-353.36 338,-353.36 338,4 -4,4"/>
<!-- Node1 -->
<g id="node1" class="node">
<title>Node1</title>
<g id="a_node1"><a xlink:title=" ">
<polygon fill="#bfbfbf" stroke="black" points="253,-159.36 253,-178.36 334,-178.36 334,-159.36 253,-159.36"/>
<text text-anchor="middle" x="293.5" y="-166.36" font-family="Helvetica,sans-Serif" font-size="10.00">profile_struct</text>
</a>
</g>
</g>
<!-- Node2 -->
<g id="node2" class="node">
<title>Node2</title>
<g id="a_node2"><a xlink:title=" ">
<polygon fill="white" stroke="black" points="2,-318.86 2,-348.86 121,-348.86 121,-318.86 2,-318.86"/>
<text text-anchor="start" x="10" y="-336.86" font-family="Helvetica,sans-Serif" font-size="10.00">void(*)(int button,</text>
<text text-anchor="middle" x="61.5" y="-325.86" font-family="Helvetica,sans-Serif" font-size="10.00"> int state, int x, int y)</text>
</a>
</g>
</g>
<!-- Node2&#45;&gt;Node1 -->
<g id="edge1" class="edge">
<title>Node2&#45;&gt;Node1</title>
<path fill="none" stroke="#9a32cd" stroke-dasharray="5,2" d="M131.35,-334.78C165.74,-331.89 206.07,-323.06 235,-299.86 274.72,-268 287.7,-203.16 291.29,-178.59"/>
<polygon fill="#9a32cd" stroke="#9a32cd" points="131.09,-331.28 121.36,-335.46 131.57,-338.27 131.09,-331.28"/>
<text text-anchor="middle" x="188" y="-335.86" font-family="Helvetica,sans-Serif" font-size="10.00"> mouseFunc</text>
</g>
<!-- Node3 -->
<g id="node3" class="node">
<title>Node3</title>
<g id="a_node3"><a xlink:title=" ">
<polygon fill="white" stroke="black" points="8,-280.36 8,-299.36 115,-299.36 115,-280.36 8,-280.36"/>
<text text-anchor="middle" x="61.5" y="-287.36" font-family="Helvetica,sans-Serif" font-size="10.00">void(*)(int x, int y)</text>
</a>
</g>
</g>
<!-- Node3&#45;&gt;Node1 -->
<g id="edge2" class="edge">
<title>Node3&#45;&gt;Node1</title>
<path fill="none" stroke="#9a32cd" stroke-dasharray="5,2" d="M125.24,-279.57C159.72,-271.79 202.04,-258.61 235,-236.86 258.48,-221.35 277.64,-193.52 286.75,-178.73"/>
<polygon fill="#9a32cd" stroke="#9a32cd" points="124.31,-276.19 115.27,-281.72 125.79,-283.03 124.31,-276.19"/>
<text text-anchor="middle" x="188" y="-287.86" font-family="Helvetica,sans-Serif" font-size="10.00"> motionFunc</text>
<text text-anchor="middle" x="188" y="-276.86" font-family="Helvetica,sans-Serif" font-size="10.00">passiveMotionFunc</text>
</g>
<!-- Node4 -->
<g id="node4" class="node">
<title>Node4</title>
<g id="a_node4"><a xlink:title=" ">
<polygon fill="white" stroke="black" points="0.5,-220.36 0.5,-261.36 122.5,-261.36 122.5,-220.36 0.5,-220.36"/>
<text text-anchor="start" x="8.5" y="-249.36" font-family="Helvetica,sans-Serif" font-size="10.00">void(*)(unsigned char</text>
<text text-anchor="start" x="8.5" y="-238.36" font-family="Helvetica,sans-Serif" font-size="10.00"> key, int xmouse, int</text>
<text text-anchor="middle" x="61.5" y="-227.36" font-family="Helvetica,sans-Serif" font-size="10.00"> ymouse)</text>
</a>
</g>
</g>
<!-- Node4&#45;&gt;Node1 -->
<g id="edge3" class="edge">
<title>Node4&#45;&gt;Node1</title>
<path fill="none" stroke="#9a32cd" stroke-dasharray="5,2" d="M132.76,-224.9C164.37,-217.01 201.94,-206.65 235,-194.86 248.11,-190.18 262.36,-183.75 273.4,-178.45"/>
<polygon fill="#9a32cd" stroke="#9a32cd" points="131.59,-221.58 122.71,-227.37 133.26,-228.38 131.59,-221.58"/>
<text text-anchor="middle" x="188" y="-224.86" font-family="Helvetica,sans-Serif" font-size="10.00"> keyboardFunc</text>
</g>
<!-- Node5 -->
<g id="node5" class="node">
<title>Node5</title>
<g id="a_node5"><a xlink:title=" ">
<polygon fill="white" stroke="black" points="0.5,-170.86 0.5,-200.86 122.5,-200.86 122.5,-170.86 0.5,-170.86"/>
<text text-anchor="start" x="8.5" y="-188.86" font-family="Helvetica,sans-Serif" font-size="10.00">void(*)(unsigned char</text>
<text text-anchor="middle" x="61.5" y="-177.86" font-family="Helvetica,sans-Serif" font-size="10.00"> key, int x, int y)</text>
</a>
</g>
</g>
<!-- Node5&#45;&gt;Node1 -->
<g id="edge4" class="edge">
<title>Node5&#45;&gt;Node1</title>
<path fill="none" stroke="#9a32cd" stroke-dasharray="5,2" d="M132.73,-180.66C172.19,-177.75 219.98,-174.22 252.96,-171.78"/>
<polygon fill="#9a32cd" stroke="#9a32cd" points="132.34,-177.18 122.63,-181.41 132.86,-184.16 132.34,-177.18"/>
<text text-anchor="middle" x="188" y="-182.86" font-family="Helvetica,sans-Serif" font-size="10.00"> keyboardUpFunc</text>
</g>
<!-- Node6 -->
<g id="node6" class="node">
<title>Node6</title>
<g id="a_node6"><a xlink:title=" ">
<polygon fill="white" stroke="black" points="0,-121.86 0,-151.86 123,-151.86 123,-121.86 0,-121.86"/>
<text text-anchor="start" x="8" y="-139.86" font-family="Helvetica,sans-Serif" font-size="10.00">void(*)(int key, int</text>
<text text-anchor="middle" x="61.5" y="-128.86" font-family="Helvetica,sans-Serif" font-size="10.00"> xmouse, int ymouse)</text>
</a>
</g>
</g>
<!-- Node6&#45;&gt;Node1 -->
<g id="edge5" class="edge">
<title>Node6&#45;&gt;Node1</title>
<path fill="none" stroke="#9a32cd" stroke-dasharray="5,2" d="M133.65,-144.42C164.82,-148.01 201.79,-152.66 235,-157.86 240.82,-158.77 246.96,-159.83 252.97,-160.93"/>
<polygon fill="#9a32cd" stroke="#9a32cd" points="133.64,-140.89 123.31,-143.24 132.85,-147.85 133.64,-140.89"/>
<text text-anchor="middle" x="188" y="-160.86" font-family="Helvetica,sans-Serif" font-size="10.00"> specialFunc</text>
</g>
<!-- Node7 -->
<g id="node7" class="node">
<title>Node7</title>
<g id="a_node7"><a xlink:title=" ">
<polygon fill="white" stroke="black" points="32.5,-77.36 32.5,-96.36 90.5,-96.36 90.5,-77.36 32.5,-77.36"/>
<text text-anchor="middle" x="61.5" y="-84.36" font-family="Helvetica,sans-Serif" font-size="10.00">void(*)()</text>
</a>
</g>
</g>
<!-- Node7&#45;&gt;Node1 -->
<g id="edge6" class="edge">
<title>Node7&#45;&gt;Node1</title>
<path fill="none" stroke="#9a32cd" stroke-dasharray="5,2" d="M100.85,-80.51C137.44,-76.36 193.05,-75.15 235,-96.86 261.71,-110.67 280.2,-143.03 288.14,-159.24"/>
<polygon fill="#9a32cd" stroke="#9a32cd" points="100.09,-77.08 90.6,-81.81 100.96,-84.03 100.09,-77.08"/>
<text text-anchor="middle" x="188" y="-132.86" font-family="Helvetica,sans-Serif" font-size="10.00"> camera</text>
<text text-anchor="middle" x="188" y="-121.86" font-family="Helvetica,sans-Serif" font-size="10.00">displayFunc</text>
<text text-anchor="middle" x="188" y="-110.86" font-family="Helvetica,sans-Serif" font-size="10.00">init</text>
<text text-anchor="middle" x="188" y="-99.86" font-family="Helvetica,sans-Serif" font-size="10.00">setSettings</text>
</g>
<!-- Node8 -->
<g id="node8" class="node">
<title>Node8</title>
<g id="a_node8"><a xlink:title=" ">
<polygon fill="white" stroke="black" points="6.5,-39.36 6.5,-58.36 116.5,-58.36 116.5,-39.36 6.5,-39.36"/>
<text text-anchor="middle" x="61.5" y="-46.36" font-family="Helvetica,sans-Serif" font-size="10.00">void(*)(int w, int h)</text>
</a>
</g>
</g>
<!-- Node8&#45;&gt;Node1 -->
<g id="edge7" class="edge">
<title>Node8&#45;&gt;Node1</title>
<path fill="none" stroke="#9a32cd" stroke-dasharray="5,2" d="M126.56,-40.02C161.26,-38.5 203.38,-42.26 235,-62.86 270.08,-85.71 285.44,-137.55 290.49,-159.14"/>
<polygon fill="#9a32cd" stroke="#9a32cd" points="126.29,-36.53 116.52,-40.61 126.71,-43.52 126.29,-36.53"/>
<text text-anchor="middle" x="188" y="-65.86" font-family="Helvetica,sans-Serif" font-size="10.00"> reshapeFunc</text>
</g>
<!-- Node9 -->
<g id="node9" class="node">
<title>Node9</title>
<g id="a_node9"><a xlink:title=" ">
<polygon fill="white" stroke="black" points="26,-1.36 26,-20.36 97,-20.36 97,-1.36 26,-1.36"/>
<text text-anchor="middle" x="61.5" y="-8.36" font-family="Helvetica,sans-Serif" font-size="10.00">void(*)(int)</text>
</a>
</g>
</g>
<!-- Node9&#45;&gt;Node1 -->
<g id="edge8" class="edge">
<title>Node9&#45;&gt;Node1</title>
<path fill="none" stroke="#9a32cd" stroke-dasharray="5,2" d="M107.47,-2.37C145.17,2.12 198.54,2.06 235,-24.86 280.05,-58.11 289.85,-132.39 291.94,-159.07"/>
<polygon fill="#9a32cd" stroke="#9a32cd" points="106.72,1.06 97.27,-3.74 107.65,-5.88 106.72,1.06"/>
<text text-anchor="middle" x="188" y="-27.86" font-family="Helvetica,sans-Serif" font-size="10.00"> timerFunc</text>
</g>
</g>
</svg>
