<?xml version="1.0" encoding="UTF-8" standalone="no"?>
<!DOCTYPE svg PUBLIC "-//W3C//DTD SVG 1.1//EN"
 "http://www.w3.org/Graphics/SVG/1.1/DTD/svg11.dtd">
<!-- Generated by graphviz version 3.0.0 (0)
 -->
<!-- Title: Motion Pages: 1 -->
<svg width="85pt" height="150pt"
 viewBox="0.00 0.00 85.00 150.00" xmlns="http://www.w3.org/2000/svg" xmlns:xlink="http://www.w3.org/1999/xlink">
<g id="graph0" class="graph" transform="scale(1 1) rotate(0) translate(4 146)">
<title>Motion</title>
<polygon fill="white" stroke="transparent" points="-4,4 -4,-146 81,-146 81,4 -4,4"/>
<!-- Node1 -->
<g id="node1" class="node">
<title>Node1</title>
<g id="a_node1"><a xlink:title=" ">
<polygon fill="#bfbfbf" stroke="black" points="0,-0.5 0,-19.5 50,-19.5 50,-0.5 0,-0.5"/>
<text text-anchor="middle" x="25" y="-7.5" font-family="Helvetica,sans-Serif" font-size="10.00">Motion</text>
</a>
</g>
</g>
<!-- Node2 -->
<g id="node2" class="node">
<title>Node2</title>
<g id="a_node2"><a xlink:title=" ">
<polygon fill="white" stroke="black" points="6,-122.5 6,-141.5 44,-141.5 44,-122.5 6,-122.5"/>
<text text-anchor="middle" x="25" y="-129.5" font-family="Helvetica,sans-Serif" font-size="10.00">bool</text>
</a>
</g>
</g>
<!-- Node2&#45;&gt;Node1 -->
<g id="edge1" class="edge">
<title>Node2&#45;&gt;Node1</title>
<path fill="none" stroke="#9a32cd" stroke-dasharray="5,2" d="M25,-112.15C25,-85.72 25,-38.76 25,-19.55"/>
<polygon fill="#9a32cd" stroke="#9a32cd" points="21.5,-112.37 25,-122.37 28.5,-112.37 21.5,-112.37"/>
<text text-anchor="middle" x="51" y="-96" font-family="Helvetica,sans-Serif" font-size="10.00"> Backward</text>
<text text-anchor="middle" x="51" y="-85" font-family="Helvetica,sans-Serif" font-size="10.00">Down</text>
<text text-anchor="middle" x="51" y="-74" font-family="Helvetica,sans-Serif" font-size="10.00">Forward</text>
<text text-anchor="middle" x="51" y="-63" font-family="Helvetica,sans-Serif" font-size="10.00">Left</text>
<text text-anchor="middle" x="51" y="-52" font-family="Helvetica,sans-Serif" font-size="10.00">Right</text>
<text text-anchor="middle" x="51" y="-41" font-family="Helvetica,sans-Serif" font-size="10.00">Up</text>
</g>
</g>
</svg>
